<?xml version="1.0" encoding="UTF-8" standalone="no"?>
<!-- Generator: Adobe Illustrator 26.1.0, SVG Export Plug-In . SVG Version: 6.00 Build 0)  -->

<svg
   version="1.1"
   id="Layer_1"
   x="0px"
   y="0px"
   viewBox="0 0 933.40003 758.82483"
   xml:space="preserve"
   sodipodi:docname="exchange_hud.svg"
   width="933.40002"
   height="758.82483"
   inkscape:version="1.1 (c68e22c387, 2021-05-23)"
   xmlns:inkscape="http://www.inkscape.org/namespaces/inkscape"
   xmlns:sodipodi="http://sodipodi.sourceforge.net/DTD/sodipodi-0.dtd"
   xmlns="http://www.w3.org/2000/svg"
   xmlns:svg="http://www.w3.org/2000/svg"><defs
   id="defs757">
	
	
	
	
	
	

	
	
	
	
	
	
	
	
</defs><sodipodi:namedview
   id="namedview755"
   pagecolor="#ffffff"
   bordercolor="#666666"
   borderopacity="1.0"
   inkscape:pageshadow="2"
   inkscape:pageopacity="0.0"
   inkscape:pagecheckerboard="0"
   showgrid="false"
   inkscape:zoom="0.71128012"
   inkscape:cx="293.83641"
   inkscape:cy="394.3594"
   inkscape:window-width="1842"
   inkscape:window-height="1057"
   inkscape:window-x="-8"
   inkscape:window-y="-8"
   inkscape:window-maximized="1"
   inkscape:current-layer="Layer_1" />
<style
   type="text/css"
   id="style2">
	.st0{fill:#444444;}
	.st1{fill:#4F403A;stroke:#666666;stroke-width:3.2496;stroke-miterlimit:10;}
	.st2{fill:#383838;}
	.st3{fill:none;stroke:#4C4A36;stroke-width:9;stroke-miterlimit:10;}
	.st4{fill:none;stroke:#303F2B;stroke-width:7;stroke-miterlimit:10;}
	.st5{fill:#727272;stroke:#5B5B5B;stroke-width:2.9529;stroke-miterlimit:10;}
	.st6{fill:#727272;stroke:#5B5B5B;stroke-width:2.8058;stroke-miterlimit:10;}
	.st7{fill:#222321;}
	.st8{fill:#4F403A;}
	.st9{fill:#606060;}
	.st10{fill:#939393;}
	.st11{fill:#706051;}
	.st12{fill:#6D9942;}
	.st13{fill:#66605C;}
	.st14{fill:none;stroke:#5B5B5B;stroke-width:8.1322;stroke-miterlimit:10;}
	.st15{fill:#727272;}
	.st16{fill:#459B8C;stroke:#5B5B5B;stroke-width:8;stroke-miterlimit:10;}
	.st17{fill:none;stroke:#A4FFFF;stroke-miterlimit:10;}
	.st18{fill:#6DA0A0;stroke:#5B5B5B;stroke-width:2.4926;stroke-miterlimit:10;}
	.st19{fill:none;stroke:#5B5B5B;stroke-width:2.4926;stroke-miterlimit:10;}
	.st20{fill:#66605C;stroke:#5B5B5B;stroke-width:1.1673;stroke-miterlimit:10;}
	.st21{fill:#459B8C;stroke:#5B5B5B;stroke-width:1.079;stroke-miterlimit:10;}
	.st22{fill:#AEAEAF;}
	.st23{fill:#A0323A;}
	.st24{fill:#5B5B5B;}
	.st25{fill:#3FB25A;}
	.st26{opacity:0.56;fill:#CE7F42;enable-background:new    ;}
	.st27{fill:#CE7F42;}
	.st28{fill:#662F14;}
	.st29{fill:#686868;}
	.st30{fill:#9C9B9B;}
	.st31{fill:#BBBBBB;}
	.st32{fill:#918E89;stroke:#625552;stroke-width:1.4309;stroke-miterlimit:10;}
	.st33{fill:#918E89;stroke:#625552;stroke-width:3.1241;stroke-miterlimit:10;}
	.st34{fill:none;stroke:#5B5B5B;stroke-width:4.8278;stroke-miterlimit:10;}
	.st35{fill:#3C4C41;}
	.st36{fill:#2F3D33;}
	.st37{opacity:0.6;}
	.st38{fill:none;stroke:#FFFFFF;stroke-width:0.5936;stroke-miterlimit:10;}
	.st39{fill:none;stroke:#A4FFFF;stroke-width:0.5936;stroke-miterlimit:10;}
	.st40{fill:#4F403A;stroke:#666666;stroke-width:2;stroke-miterlimit:10;}
	.st41{fill:none;stroke:#A4FFFF;stroke-width:0.785;stroke-miterlimit:10;}
	.st42{fill:#A4FFFF;}
	.st43{font-family:'Digitalix';}
	.st44{font-size:26.3155px;}
	.st45{fill:none;}
	.st46{font-size:10px;}
	.st47{font-family:'Rocks__G';}
	.st48{font-size:20px;}
	.st49{font-size:10.5664px;}
	.st50{font-size:6.1911px;}
	.st51{fill:#459B8C;}
	.st52{font-size:12.7223px;}
	.st53{font-family:'AlternateGotNo3D';}
	.st54{font-size:16px;}
	.st55{opacity:0.19;}
</style>
<g
   id="g6"
   transform="translate(-510.9,0.2000003)">
	<path
   style="color:#000000;fill:#444444;-inkscape-stroke:none"
   d="m 622.4,-0.2 -58.7,84 c -4.5,6.5 -2.9,15.4 3.5,19.9 l 9.3,6.5 c 6.5,4.5 15.4,2.9 19.9,-3.5 L 671.2,-0.2 Z"
   id="path4" />
</g>
<g
   id="g10"
   transform="translate(-510.9,0.2000003)">
	<path
   class="st0"
   d="m 1327.9,-0.2 h -48.7 l 74.7,106.9 c 4.5,6.5 13.4,8.1 19.9,3.5 l 9.3,-6.5 c 6.5,-4.5 8.1,-13.4 3.5,-19.9 z"
   id="path8" />
</g>
<polygon
   class="st1"
   points="1372.8,749.9 1372.8,703.3 572.4,703.3 572.4,749.9 815.7,749.9 820.8,744.5 1133.9,744.5 1139.1,749.9 "
   id="polygon12"
   transform="translate(-510.9,0.2000003)" />
<g
   id="g16"
   transform="translate(-510.9,0.2000003)">
		<path
   class="st0"
   d="m 564.9,83 6.5,-9.3 c 4.5,-6.5 13.4,-8.1 19.9,-3.5 l 151,95.6 c 6.5,4.5 1.5,18.8 -3,25.3 l -6.5,9.3 c -4.5,6.5 -14,13.2 -20.5,8.7 L 568.4,103 c -6.4,-4.6 -8,-13.5 -3.5,-20 z"
   id="path14" />
	</g><circle
   class="st2"
   cx="205.89999"
   cy="179.59999"
   r="25.1"
   id="circle18" /><circle
   class="st2"
   cx="72.599998"
   cy="90.399994"
   r="20"
   id="circle20" /><circle
   class="st2"
   cx="133.10001"
   cy="130.5"
   r="9.6000004"
   id="circle22" /><circle
   class="st2"
   cx="100.30001"
   cy="109"
   r="9.6000004"
   id="circle24" /><path
   id="path2287"
   style="color:#000000;fill:#383838;-inkscape-stroke:none"
   d="m 126.33633,0 a 9.6000004,9.6000004 0 0 0 -0.53711,3.0996094 9.6000004,9.6000004 0 0 0 9.60156,9.5996096 9.6000004,9.6000004 0 0 0 9.59961,-9.5996096 A 9.6000004,9.6000004 0 0 0 144.48281,0 Z" /><circle
   class="st2"
   cx="112.69997"
   cy="35.600002"
   r="9.6000004"
   id="circle28" /><circle
   class="st2"
   cx="90.699982"
   cy="68"
   r="9.6000004"
   id="circle30" />
<g
   id="g36"
   transform="translate(-510.9,0.2000003)">
	<path
   d="m 677.2,251.9 c -0.4,-0.8 -0.4,-1.6 -0.3,-2.5 0.9,-4.7 1.8,-9.3 2.8,-14 0.2,-1 0,-1.6 -0.8,-2.2 -2.2,-1.5 -4.1,-3.3 -6,-5.2 -0.3,-0.3 -0.4,-0.3 -0.8,-0.2 -5.1,1.6 -10.2,3.2 -15.3,4.8 -2,0.6 -3.5,0 -4.4,-1.8 -2.9,-6 -5.9,-11.9 -8.8,-17.9 -0.9,-1.8 -0.4,-3.5 1.3,-4.7 3.6,-2.5 7.2,-5 10.8,-7.5 0.8,-0.5 1.6,-1.1 2.4,-1.6 0.3,-0.2 0.4,-0.4 0.4,-0.8 -0.3,-2.7 -0.5,-5.4 -0.4,-8.2 0,-0.4 -0.2,-0.5 -0.5,-0.7 -4.5,-2.4 -9,-4.5 -13.6,-6.6 -0.4,-0.2 -0.8,-0.3 -1.1,-0.6 -1.1,-0.8 -1.6,-1.9 -1.3,-3.2 1.5,-6.8 3.7,-13.4 6.5,-19.8 0.2,-0.5 0.5,-1 0.8,-1.4 1.1,-1.8 2.2,-2.3 4.3,-1.8 4.9,1 9.7,2 14.6,3.1 0.6,0.1 0.9,0 1.3,-0.5 1.5,-2.1 3.2,-4 5,-5.8 0.3,-0.3 0.4,-0.6 0.2,-1.1 -1.8,-5.2 -3.7,-10.4 -4.9,-15.8 -0.4,-1.8 0.2,-3 1.9,-3.9 6,-3 12.1,-6 18.1,-9 1.8,-0.9 3.3,-0.4 4.4,1.2 3.1,4.5 6.2,8.9 9.4,13.4 0.2,0.3 0.4,0.3 0.7,0.3 2.7,-0.4 5.4,-0.6 8.1,-0.5 0.4,0 0.5,-0.2 0.6,-0.4 2.3,-4.7 4.7,-9.4 7,-14 0.9,-1.8 2.4,-2.5 4.3,-1.9 5.6,1.6 11.2,3.3 16.7,5.5 1.1,0.5 2.3,1 3.4,1.5 1.6,0.8 2.4,2.2 2.1,4 -0.6,3.7 -1.5,7.3 -2.2,11 -0.3,1.4 -0.5,2.7 -0.8,4.1 -0.1,0.3 0,0.5 0.3,0.7 2.4,1.7 4.7,3.7 6.7,5.9 0.3,0.3 0.5,0.3 0.8,0.2 3.9,-1.3 7.9,-2.5 11.8,-3.8 1.2,-0.4 2.5,-0.8 3.7,-1.2 1.7,-0.5 3.2,0.2 4.1,2 1.8,3.6 3.5,7.1 5.3,10.7 1.2,2.4 2.4,4.8 3.5,7.1 0.9,1.9 0.5,3.5 -1.2,4.7 -4.4,3 -8.8,6.1 -13.2,9.1 -0.3,0.2 -0.4,0.4 -0.4,0.8 0.4,2.7 0.6,5.4 0.5,8.1 0,0.4 0.1,0.6 0.5,0.8 4.5,2.4 9.1,4.5 13.7,6.6 2,0.9 2.6,1.9 2.2,4.1 -0.5,2.7 -1.3,5.4 -2.1,8 -1.2,3.7 -2.4,7.4 -4,10.9 -0.3,0.7 -0.8,1.5 -1.2,2.2 -0.8,1.4 -2,1.9 -3.6,1.6 -2.2,-0.4 -4.3,-0.9 -6.5,-1.3 -3,-0.6 -6,-1.2 -8.9,-1.8 -0.4,-0.1 -0.5,0 -0.8,0.3 -1.6,2.2 -3.3,4.2 -5.2,6 -0.3,0.3 -0.4,0.5 -0.2,0.9 1.7,4.8 3.4,9.7 4.7,14.7 0.1,0.6 0.3,1.2 0.4,1.7 0.2,1.3 -0.2,2.3 -1.3,3 -0.3,0.2 -0.7,0.4 -1,0.6 -5.8,2.9 -11.6,5.7 -17.4,8.6 -0.3,0.2 -0.7,0.3 -1,0.4 -1.5,0.5 -2.8,0 -3.6,-1.3 -3.1,-4.5 -6.3,-9 -9.4,-13.5 -0.2,-0.3 -0.5,-0.4 -0.8,-0.4 -2.6,0.4 -5.2,0.6 -7.8,0.5 -0.4,0 -0.6,0.2 -0.8,0.5 -2.3,4.7 -4.7,9.3 -7,14 -0.9,1.7 -2.3,2.4 -4.2,1.9 -1.6,-0.4 -3.2,-0.9 -4.7,-1.4 -4.7,-1.5 -9.3,-2.9 -13.8,-4.9 -0.6,-0.3 -1.2,-0.6 -1.8,-0.9 -1.4,-0.2 -1.9,-0.7 -2.2,-1.4 z m 23.7,-82.1 c -11.5,5.4 -16.4,20 -10.7,31.5 5.6,11.4 20,16.4 31.5,10.7 11.5,-5.6 16.4,-20 10.7,-31.6 -5.7,-11.6 -20.3,-16.4 -31.5,-10.6 z"
   id="path34" />
</g>
<g
   id="g40"
   transform="translate(-510.9,0.2000003)">
	<path
   d="m 556.8,138.1 c -0.3,-0.6 -0.3,-1.3 -0.2,-1.9 0.7,-3.6 1.4,-7.3 2.2,-10.9 0.2,-0.8 0,-1.2 -0.7,-1.7 -1.7,-1.2 -3.2,-2.6 -4.7,-4.1 -0.2,-0.2 -0.3,-0.3 -0.6,-0.2 -4,1.3 -8,2.5 -12,3.8 -1.5,0.5 -2.7,0 -3.5,-1.4 -2.3,-4.7 -4.6,-9.3 -6.9,-14 -0.7,-1.4 -0.3,-2.7 1,-3.7 2.8,-1.9 5.6,-3.9 8.4,-5.9 0.6,-0.4 1.2,-0.9 1.9,-1.3 0.2,-0.2 0.3,-0.3 0.3,-0.6 -0.3,-2.1 -0.4,-4.3 -0.3,-6.4 0,-0.3 -0.2,-0.4 -0.4,-0.5 -3.5,-1.9 -7.1,-3.5 -10.7,-5.2 -0.3,-0.1 -0.6,-0.3 -0.8,-0.5 -0.9,-0.6 -1.2,-1.5 -1,-2.5 1.2,-5.3 2.9,-10.5 5.1,-15.5 0.2,-0.4 0.4,-0.8 0.6,-1.1 0.8,-1.4 1.8,-1.8 3.3,-1.4 3.8,0.8 7.6,1.6 11.5,2.4 0.5,0.1 0.7,0 1,-0.4 1.2,-1.6 2.5,-3.1 3.9,-4.5 0.3,-0.3 0.3,-0.5 0.2,-0.8 -1.4,-4.1 -2.9,-8.2 -3.9,-12.4 -0.3,-1.4 0.1,-2.4 1.5,-3 4.7,-2.3 9.5,-4.7 14.2,-7 1.4,-0.7 2.6,-0.3 3.5,1 2.4,3.5 4.9,7 7.3,10.5 0.1,0.2 0.3,0.3 0.5,0.2 2.1,-0.3 4.2,-0.5 6.3,-0.4 0.3,0 0.4,-0.1 0.5,-0.3 1.8,-3.7 3.7,-7.3 5.5,-11 0.7,-1.4 1.9,-2 3.4,-1.5 4.4,1.3 8.8,2.6 13.1,4.3 0.9,0.4 1.8,0.8 2.6,1.2 1.3,0.6 1.8,1.7 1.6,3.1 -0.5,2.9 -1.1,5.7 -1.7,8.6 -0.2,1.1 -0.4,2.1 -0.6,3.2 -0.1,0.3 0,0.4 0.2,0.6 1.9,1.4 3.7,2.9 5.3,4.6 0.2,0.2 0.4,0.2 0.7,0.1 3.1,-1 6.2,-2 9.2,-3 1,-0.3 1.9,-0.6 2.9,-0.9 1.3,-0.4 2.5,0.2 3.2,1.5 1.4,2.8 2.8,5.6 4.1,8.4 0.9,1.9 1.8,3.7 2.8,5.6 0.7,1.5 0.4,2.8 -1,3.7 -3.4,2.4 -6.9,4.8 -10.3,7.2 -0.2,0.2 -0.3,0.3 -0.3,0.7 0.3,2.1 0.4,4.2 0.4,6.3 0,0.3 0.1,0.5 0.4,0.6 3.5,1.9 7.1,3.6 10.7,5.2 1.6,0.7 2,1.5 1.7,3.2 -0.4,2.1 -1,4.2 -1.7,6.3 -0.9,2.9 -1.9,5.8 -3.1,8.5 -0.3,0.6 -0.6,1.1 -0.9,1.7 -0.6,1.1 -1.6,1.5 -2.8,1.3 -1.7,-0.3 -3.4,-0.7 -5.1,-1 -2.3,-0.5 -4.7,-0.9 -7,-1.4 -0.3,-0.1 -0.4,0 -0.6,0.2 -1.2,1.7 -2.6,3.3 -4.1,4.7 -0.2,0.2 -0.3,0.4 -0.2,0.7 1.3,3.8 2.7,7.6 3.7,11.5 0.1,0.4 0.2,0.9 0.3,1.4 0.1,1 -0.2,1.8 -1,2.4 -0.3,0.2 -0.5,0.3 -0.8,0.5 -4.5,2.2 -9.1,4.5 -13.6,6.7 -0.3,0.1 -0.5,0.2 -0.8,0.3 -1.2,0.4 -2.2,0 -2.8,-1 -2.5,-3.5 -4.9,-7.1 -7.4,-10.6 -0.2,-0.3 -0.4,-0.3 -0.7,-0.3 -2,0.3 -4.1,0.5 -6.1,0.4 -0.3,0 -0.5,0.1 -0.6,0.4 -1.8,3.7 -3.7,7.3 -5.5,11 -0.7,1.4 -1.8,1.9 -3.3,1.5 -1.2,-0.3 -2.5,-0.7 -3.7,-1.1 -3.7,-1.2 -7.3,-2.3 -10.8,-3.9 -0.5,-0.2 -0.9,-0.5 -1.4,-0.7 -0.8,-0.6 -1.2,-1 -1.4,-1.5 z m 18.6,-64.3 c -9,4.2 -12.8,15.7 -8.4,24.7 4.4,8.9 15.6,12.9 24.7,8.4 9,-4.4 12.9,-15.7 8.4,-24.7 -4.5,-9.2 -16,-13 -24.7,-8.4 z"
   id="path38" />
</g>
<g
   id="g60"
   transform="translate(-510.9,0.2000003)">
	<g
   id="g44">
		<path
   class="st0"
   d="m 1385.5,83 -6.5,-9.3 c -4.5,-6.5 -13.4,-8.1 -19.9,-3.5 l -151,95.6 c -6.5,4.5 -1.5,18.8 3,25.3 l 6.5,9.3 c 4.5,6.5 14,13.2 20.5,8.7 L 1381.9,103 c 6.5,-4.6 8.1,-13.5 3.6,-20 z"
   id="path42" />
	</g>
	<circle
   class="st2"
   cx="1233.6"
   cy="179.39999"
   r="25.1"
   id="circle46" />
	<circle
   class="st2"
   cx="1366.9"
   cy="90.199997"
   r="20"
   id="circle48" />
	<circle
   class="st2"
   cx="1306.4"
   cy="130.3"
   r="9.6000004"
   id="circle50" />
	<circle
   class="st2"
   cx="1339.2"
   cy="108.8"
   r="9.6000004"
   id="circle52" />
	<path
   id="circle54"
   style="fill:#383838"
   class="st2"
   d="M 804.05664,6.5 A 9.6000004,9.6000004 0 0 0 803.5,9.5996094 9.6000004,9.6000004 0 0 0 813.09961,19.199219 9.6000004,9.6000004 0 0 0 822.69922,9.5996094 9.6000004,9.6000004 0 0 0 822.18359,6.5 Z"
   transform="translate(491,-6.7000003)" />
	<circle
   class="st2"
   cx="1326.8"
   cy="35.400002"
   r="9.6000004"
   id="circle56" />
	<circle
   class="st2"
   cx="1348.8"
   cy="67.800003"
   r="9.6000004"
   id="circle58" />
</g>
<g
   id="g64"
   transform="translate(-510.9,0.2000003)">
	<path
   d="m 1271.7,253.4 c -0.6,0.3 -1.2,0.6 -1.8,0.9 -4.5,2 -9.1,3.5 -13.8,4.9 -1.6,0.5 -3.1,1 -4.7,1.4 -1.9,0.5 -3.4,-0.2 -4.2,-1.9 -2.3,-4.7 -4.7,-9.3 -7,-14 -0.2,-0.4 -0.4,-0.5 -0.8,-0.5 -2.6,0 -5.2,-0.2 -7.8,-0.5 -0.4,-0.1 -0.6,0 -0.8,0.4 -3.1,4.5 -6.3,9 -9.4,13.5 -0.9,1.3 -2.2,1.7 -3.6,1.3 -0.3,-0.1 -0.7,-0.3 -1,-0.4 -5.8,-2.9 -11.6,-5.7 -17.4,-8.6 -0.3,-0.2 -0.7,-0.4 -1,-0.6 -1.1,-0.7 -1.5,-1.7 -1.3,-3 0.1,-0.6 0.2,-1.2 0.4,-1.7 1.3,-5 3,-9.8 4.7,-14.7 0.1,-0.4 0,-0.6 -0.2,-0.9 -1.9,-1.9 -3.7,-3.9 -5.2,-6 -0.2,-0.3 -0.4,-0.4 -0.8,-0.3 -3,0.6 -5.9,1.2 -8.9,1.8 -2.2,0.4 -4.3,0.9 -6.5,1.3 -1.6,0.3 -2.8,-0.2 -3.6,-1.6 -0.4,-0.7 -0.8,-1.4 -1.2,-2.2 -1.6,-3.5 -2.8,-7.2 -4,-10.9 -0.9,-2.6 -1.7,-5.3 -2.1,-8 -0.4,-2.2 0.2,-3.2 2.2,-4.1 4.6,-2.1 9.2,-4.2 13.7,-6.6 0.4,-0.2 0.5,-0.4 0.5,-0.8 -0.1,-2.7 0,-5.4 0.5,-8.1 0.1,-0.4 -0.1,-0.6 -0.4,-0.8 -4.4,-3 -8.8,-6.1 -13.2,-9.1 -1.7,-1.2 -2.1,-2.8 -1.2,-4.7 1.2,-2.4 2.3,-4.8 3.5,-7.1 1.8,-3.6 3.5,-7.1 5.3,-10.7 0.9,-1.8 2.4,-2.5 4.1,-2 1.2,0.4 2.5,0.8 3.7,1.2 3.9,1.3 7.9,2.5 11.8,3.8 0.3,0.1 0.6,0.2 0.8,-0.2 2,-2.2 4.3,-4.2 6.7,-5.9 0.3,-0.2 0.4,-0.4 0.3,-0.7 -0.3,-1.4 -0.5,-2.7 -0.8,-4.1 -0.7,-3.7 -1.6,-7.3 -2.2,-11 -0.3,-1.8 0.4,-3.2 2.1,-4 1.1,-0.5 2.2,-1.1 3.4,-1.5 5.4,-2.2 11.1,-3.8 16.7,-5.5 2,-0.6 3.4,0.1 4.3,1.9 2.3,4.7 4.7,9.4 7,14 0.1,0.3 0.2,0.4 0.6,0.4 2.7,0 5.4,0.2 8.1,0.5 0.3,0 0.5,0 0.7,-0.3 3.1,-4.5 6.3,-8.9 9.4,-13.4 1.1,-1.6 2.7,-2.1 4.4,-1.2 6,3 12.1,6 18.1,9 1.7,0.8 2.3,2 1.9,3.9 -1.2,5.4 -3.1,10.6 -4.9,15.8 -0.2,0.5 -0.1,0.7 0.2,1.1 1.8,1.8 3.5,3.7 5,5.8 0.4,0.5 0.7,0.6 1.3,0.5 4.9,-1 9.7,-2.1 14.6,-3.1 2,-0.4 3.2,0.1 4.3,1.8 0.3,0.5 0.6,0.9 0.8,1.4 2.8,6.4 5,13 6.5,19.8 0.3,1.3 -0.2,2.4 -1.3,3.2 -0.3,0.2 -0.7,0.4 -1.1,0.6 -4.6,2.1 -9.2,4.2 -13.6,6.6 -0.3,0.2 -0.5,0.3 -0.5,0.7 0.1,2.7 -0.1,5.5 -0.4,8.2 0,0.4 0,0.6 0.4,0.8 0.8,0.5 1.6,1.1 2.4,1.6 3.6,2.5 7.2,5 10.8,7.5 1.7,1.2 2.2,2.8 1.3,4.7 -2.9,6 -5.9,11.9 -8.8,17.9 -0.9,1.9 -2.5,2.5 -4.4,1.8 -5.1,-1.6 -10.2,-3.2 -15.3,-4.8 -0.4,-0.1 -0.6,0 -0.8,0.2 -1.8,1.9 -3.8,3.7 -6,5.2 -0.9,0.6 -1.1,1.2 -0.8,2.2 1,4.6 1.9,9.3 2.8,14 0.2,0.8 0.2,1.7 -0.3,2.5 -1,0.6 -1.5,1.1 -2.2,1.4 z m -53.8,-73 c -5.7,11.5 -0.7,25.9 10.7,31.6 11.6,5.7 25.9,0.7 31.5,-10.7 5.7,-11.5 0.8,-26.1 -10.7,-31.5 -11.1,-5.8 -25.7,-1 -31.5,10.6 z"
   id="path62" />
</g>
<g
   id="g68"
   transform="translate(-510.9,0.2000003)">
	<path
   d="m 1392.5,139.3 c -0.5,0.2 -0.9,0.5 -1.4,0.7 -3.5,1.6 -7.2,2.7 -10.8,3.9 -1.2,0.4 -2.5,0.8 -3.7,1.1 -1.5,0.4 -2.6,-0.1 -3.3,-1.5 -1.8,-3.7 -3.7,-7.3 -5.5,-11 -0.1,-0.3 -0.3,-0.4 -0.6,-0.4 -2.1,0 -4.1,-0.1 -6.1,-0.4 -0.3,0 -0.5,0 -0.7,0.3 -2.5,3.5 -4.9,7.1 -7.4,10.6 -0.7,1 -1.7,1.4 -2.8,1 -0.3,-0.1 -0.5,-0.2 -0.8,-0.3 -4.5,-2.2 -9.1,-4.5 -13.6,-6.7 -0.3,-0.1 -0.5,-0.3 -0.8,-0.5 -0.9,-0.6 -1.2,-1.4 -1,-2.4 0.1,-0.5 0.2,-0.9 0.3,-1.4 1,-3.9 2.3,-7.7 3.7,-11.5 0.1,-0.3 0,-0.5 -0.2,-0.7 -1.5,-1.5 -2.9,-3 -4.1,-4.7 -0.2,-0.2 -0.3,-0.3 -0.6,-0.2 -2.3,0.5 -4.7,1 -7,1.4 -1.7,0.3 -3.4,0.7 -5.1,1 -1.2,0.2 -2.2,-0.1 -2.8,-1.3 -0.3,-0.6 -0.6,-1.1 -0.9,-1.7 -1.3,-2.8 -2.2,-5.6 -3.1,-8.5 -0.7,-2.1 -1.3,-4.1 -1.7,-6.3 -0.3,-1.7 0.1,-2.5 1.7,-3.2 3.6,-1.6 7.2,-3.3 10.7,-5.2 0.3,-0.2 0.4,-0.3 0.4,-0.6 -0.1,-2.1 0,-4.2 0.4,-6.3 0.1,-0.3 -0.1,-0.5 -0.3,-0.7 -3.4,-2.4 -6.9,-4.8 -10.3,-7.2 -1.3,-0.9 -1.7,-2.2 -1,-3.7 0.9,-1.9 1.8,-3.7 2.8,-5.6 1.4,-2.8 2.8,-5.6 4.1,-8.4 0.7,-1.4 1.9,-2 3.2,-1.5 1,0.3 1.9,0.6 2.9,0.9 3.1,1 6.2,2 9.2,3 0.2,0.1 0.4,0.1 0.7,-0.1 1.6,-1.7 3.4,-3.3 5.3,-4.6 0.2,-0.2 0.3,-0.3 0.2,-0.6 -0.2,-1.1 -0.4,-2.1 -0.6,-3.2 -0.6,-2.9 -1.2,-5.7 -1.7,-8.6 -0.2,-1.4 0.3,-2.5 1.6,-3.1 0.9,-0.4 1.7,-0.8 2.6,-1.2 4.3,-1.7 8.7,-3 13.1,-4.3 1.5,-0.4 2.7,0.1 3.4,1.5 1.8,3.7 3.7,7.3 5.5,11 0.1,0.2 0.2,0.3 0.5,0.3 2.1,0 4.2,0.1 6.3,0.4 0.2,0 0.4,0 0.5,-0.2 2.4,-3.5 4.9,-7 7.3,-10.5 0.9,-1.3 2.1,-1.6 3.5,-1 4.7,2.3 9.5,4.7 14.2,7 1.3,0.7 1.8,1.6 1.5,3 -1,4.2 -2.4,8.3 -3.9,12.4 -0.1,0.4 -0.1,0.6 0.2,0.8 1.4,1.4 2.8,2.9 3.9,4.5 0.3,0.4 0.5,0.5 1,0.4 3.8,-0.8 7.6,-1.6 11.5,-2.4 1.6,-0.3 2.5,0.1 3.3,1.4 0.2,0.4 0.4,0.7 0.6,1.1 2.2,5 3.9,10.2 5.1,15.5 0.2,1.1 -0.2,1.9 -1,2.5 -0.3,0.2 -0.6,0.3 -0.8,0.5 -3.6,1.7 -7.2,3.3 -10.7,5.2 -0.2,0.1 -0.4,0.2 -0.4,0.5 0.1,2.1 -0.1,4.3 -0.3,6.4 0,0.3 0,0.5 0.3,0.6 0.6,0.4 1.2,0.8 1.9,1.3 2.8,2 5.6,3.9 8.4,5.9 1.3,0.9 1.7,2.2 1,3.7 -2.3,4.7 -4.6,9.3 -6.9,14 -0.7,1.5 -1.9,1.9 -3.5,1.4 -4,-1.3 -8,-2.5 -12,-3.8 -0.3,-0.1 -0.4,0 -0.6,0.2 -1.4,1.5 -3,2.9 -4.7,4.1 -0.7,0.5 -0.8,0.9 -0.7,1.7 0.8,3.6 1.5,7.3 2.2,10.9 0.1,0.7 0.1,1.3 -0.2,1.9 -0.5,0.8 -0.9,1.2 -1.4,1.5 z m -42.2,-57.2 c -4.5,9 -0.6,20.3 8.4,24.7 9.1,4.4 20.3,0.5 24.7,-8.4 4.4,-9 0.6,-20.4 -8.4,-24.7 -8.8,-4.5 -20.2,-0.7 -24.7,8.4 z"
   id="path66" />
</g>









































<g
   id="g254"
   transform="translate(-510.9,0.2000003)">
	<g
   id="g250">
		<path
   class="st26"
   d="m 1406.2,258.9 c -29.1,3.5 -58.2,6.9 -87.3,10.3 43.5,8.4 52.2,10.9 87.3,-10.3 z"
   id="path226" />
		<path
   class="st26"
   d="m 1158.8,279.6 c 14.9,-1.4 28.5,-3.5 41.7,-5.4 0.3,-2.5 0.5,-4.7 0.5,-6.8 -8.5,1.3 -17.5,2.6 -27.1,3.7 z"
   id="path228" />
		<path
   class="st27"
   d="m 1425.1,256.7 c -1.2,0.2 -2.4,0.3 -3.5,0.4 -52.5,34.5 -56.8,27.5 -129.7,15.4 -1.9,0.2 -3.9,0.5 -5.8,0.7 1.7,0.2 3.5,0.5 5.2,0.8 75.1,12.4 78.2,19.6 133.8,-17.3 z"
   id="path230" />
		<path
   class="st27"
   d="m 1155.3,281.5 c 16.2,-1.4 30.8,-3.6 44.9,-5.7 0.1,-0.5 0.2,-1.1 0.2,-1.6 -13.2,1.9 -26.9,4 -41.7,5.4 z"
   id="path232" />
		<path
   class="st27"
   d="m 1410,258.4 c -1.3,0.2 -2.5,0.3 -3.8,0.5 -35.1,21.2 -43.8,18.7 -87.3,10.3 -1.8,0.2 -3.5,0.4 -5.2,0.6 49.7,9.5 56.8,12.9 96.3,-11.4 z"
   id="path234" />
		<path
   class="st27"
   d="m 1173.9,271.1 c 9.6,-1.1 18.5,-2.4 27.1,-3.7 0,-0.5 0,-1.1 0,-1.6 -7.5,1.1 -15.2,2.2 -23.5,3.3 z"
   id="path236" />
		<path
   class="st27"
   d="m 1196.6,338.5 c 4.8,-0.7 12.5,-1.8 14.2,-6.4 1.8,-5.3 -5.1,-8.7 -10.2,-10.7 -0.2,-0.1 -4.5,-1.5 -4.7,-1.5 l -3.2,-0.8 c -18.5,-5.2 -54.2,-7.5 -90.3,-8 l -5.1,2.8 c 36.4,0.9 73.3,3.5 97.6,9.4 0.2,0.1 4.3,1.4 4.5,1.5 38.6,15.7 -64.1,12.9 -137.7,9.1 l -4.3,2.4 c 48.7,3.3 111.3,6 139.2,2.2 z m -1.7,-15.3 z"
   id="path238" />
		<path
   class="st27"
   d="M 1200.6,321.5 Z"
   id="path240" />
		<path
   class="st27"
   d="M 1200.6,321.5 Z"
   id="path242" />
		<path
   class="st27"
   d="m 1201,421.5 v -0.4 c -0.2,0 -0.5,0 -0.7,0 z"
   id="path244" />
		<path
   class="st27"
   d="m 1195.6,418.5 c 1.8,0 3.7,0 5.5,0 v -1.6 c -2.7,0 -5.4,0 -8.2,0.1 z"
   id="path246" />
		<path
   class="st27"
   d="m 1315.7,402.6 c 1,-0.2 2.1,-0.4 3.1,-0.5 -6.4,-0.7 -18.2,-1.9 -30.7,-2.8 9.1,1.1 18.3,2.2 27.6,3.3 z"
   id="path248" />
	</g>
	<path
   class="st28"
   d="m 1124.8,320.8 c 55.8,-12 105,-16.2 116,-17.8 33.6,-4.2 139.9,-21.8 195,-12.2 l -0.1,0.3 c -42.6,-3.9 -166.4,8.9 -194.8,12.9 -30,4.3 -41.3,7.7 -116.1,17.1 z"
   id="path252" />
</g>
<g
   id="g270"
   transform="translate(-510.9,0.2000003)">
	<path
   class="st27"
   d="m 701.5,382.8 c -0.2,0 -0.5,0 -0.6,0.1 l -9.3,1.2 c 75,2.5 161.8,9.9 211.5,14.5 v -1.9 c -46.3,-4.3 -124.7,-11 -195.8,-13.9 z"
   id="path256" />
	<g
   id="g268">
		<path
   class="st27"
   d="m 735.7,286 c -0.1,0 -0.1,0 0,0 z"
   id="path258" />
		<path
   class="st27"
   d="M 735.7,286 Z"
   id="path260" />
		<path
   class="st27"
   d="m 765.2,320.6 c -6.8,12.7 76.9,17.5 137.7,19.3 v -3.8 c -62.9,-2 -127.9,-6.4 -134.1,-13.9 8.1,-6.1 89.6,0.2 134.1,4.2 v -2.1 c 0,-0.6 -0.2,-1.2 -0.4,-1.8 -46.6,-4.3 -132.6,-10.8 -137.3,-1.9 z"
   id="path262" />
		<path
   class="st27"
   d="M 757.9,424.2 Z"
   id="path264" />
		<path
   class="st27"
   d="m 776.1,407.2 c 8.9,-0.7 10,-1.8 10.3,-2.8 0.1,-0.3 0.2,-1 -0.5,-1.7 -7.7,-6.8 -48.8,-8.5 -51,-8.7 -7.4,-0.8 -70.5,-8.1 -75.8,-0.4 -9.2,13.2 95.7,15.3 117,13.6 z m -41.6,-11.3 c 9.1,0.4 42.6,2.5 49.8,8 -8.5,4.7 -119,0.8 -123.7,-8.3 -4.2,-7.8 64.6,-0.8 73.9,0.3 z"
   id="path266" />
	</g>
</g>
<g
   id="g286"
   transform="translate(-510.9,0.2000003)">
	<g
   id="g284">
		<path
   class="st27"
   d="m 756.9,453 c -21.1,-2.2 -39.8,-5.2 -57.6,-7.4 l 47.1,-2 c 26.3,2.7 57.9,3.2 108.3,-4.7 l 4.3,-0.2 c 2.2,-0.1 3.8,1.8 3.5,3.9 l -0.3,2 c -0.1,0 -0.1,0 -0.2,0 -30.7,6 -74.1,12.4 -105.1,8.4 z"
   id="path272" />
		<path
   class="st27"
   d="m 538.3,452.6 55.2,-2.4 c -2.3,0.5 -4.7,0.9 -7.2,1.3 -19.6,3.5 -32.7,4.8 -48,1.1 z"
   id="path274" />
		<path
   class="st27"
   d="M 695.2,459.6 C 674.6,457 648,453.7 626.5,455.4 l -5,0.5 -0.9,-2.2 c -0.1,-0.2 -0.2,-0.4 -0.2,-0.6 18.8,-1.9 39.9,-0.7 75.2,3.9 19.9,2.5 15,2.4 53.2,6.5 25.9,2.6 70.9,0.8 111.4,-5.8 L 860,460 c -76.4,13 -127.2,4.4 -164.8,-0.4 z"
   id="path276" />
		<path
   class="st27"
   d="m 703.4,498.1 c 16.9,-12.7 103.5,-14.5 153.1,-14.4 l -0.7,4.6 c -0.2,1.5 -1.5,2.7 -2.9,2.9 l -34.4,4.2 c -0.9,0.1 -2.1,0.5 -2.6,1.3 l -1.5,2.5 c -1.7,2.4 0.2,5.6 3,5.4 l 32.2,-2.6 c 1.5,-0.2 2.8,0.7 3.4,1.9 -61,3.2 -166.8,7.1 -149.6,-5.8 z"
   id="path278" />
		<path
   class="st27"
   d="M 556.4,594.8 Z"
   id="path280" />
		<path
   class="st27"
   d="m 537.9,585.2 c 7.6,-6.8 50.5,-8.5 50.5,-8.5 0,0 80.6,-9.5 74.9,1.2 -5.5,10.7 -133,14.1 -125.4,7.3 z"
   id="path282" />
	</g>
</g>
<g
   id="g320"
   transform="translate(-510.9,0.2000003)">
	<polyline
   class="st22"
   points="550.6,294.7 510.9,294.7 510.9,285.7 550.6,285.7  "
   id="polyline288" />
	<polygon
   class="st29"
   points="516.7,294.7 514.7,285.7 516.7,285.7 518.7,294.7 "
   id="polygon290" />
	<polygon
   class="st29"
   points="520.7,294.7 518.7,285.7 520.7,285.7 522.7,294.7 "
   id="polygon292" />
	<polygon
   class="st29"
   points="524.7,294.7 522.7,285.7 524.7,285.7 526.7,294.7 "
   id="polygon294" />
	<polyline
   class="st29"
   points="528.7,294.7 526.7,285.7 528.7,285.7  "
   id="polyline296" />
	<polyline
   class="st30"
   points="530.9,298.4 524.3,298.4 524.3,282.1 530.9,282.1  "
   id="polyline298" />
	<polyline
   class="st31"
   points="530.9,298.4 524.3,298.4 524.3,294.8 530.9,294.8  "
   id="polyline300" />
	<polyline
   class="st31"
   points="530.9,285.7 524.3,285.7 524.3,282.1 530.9,282.1  "
   id="polyline302" />
	<polyline
   class="st22"
   points="550.6,361.2 510.9,361.2 510.9,352.2 550.6,352.2  "
   id="polyline304" />
	<polygon
   class="st29"
   points="516.7,361.2 514.7,352.2 516.7,352.2 518.7,361.2 "
   id="polygon306" />
	<polygon
   class="st29"
   points="520.7,361.2 518.7,352.2 520.7,352.2 522.7,361.2 "
   id="polygon308" />
	<polygon
   class="st29"
   points="524.7,361.2 522.7,352.2 524.7,352.2 526.7,361.2 "
   id="polygon310" />
	<polyline
   class="st29"
   points="528.7,361.2 526.7,352.2 528.7,352.2  "
   id="polyline312" />
	<polyline
   class="st30"
   points="530.9,364.8 524.3,364.8 524.3,348.6 530.9,348.6  "
   id="polyline314" />
	<polyline
   class="st31"
   points="530.9,364.8 524.3,364.8 524.3,361.3 530.9,361.3  "
   id="polyline316" />
	<polyline
   class="st31"
   points="530.9,352.2 524.3,352.2 524.3,348.6 530.9,348.6  "
   id="polyline318" />
</g>
<g
   id="g354"
   transform="translate(-510.9,0.2000003)">
	<polyline
   class="st22"
   points="550.6,540.2 510.9,540.2 510.9,531.2 550.6,531.2  "
   id="polyline322" />
	<polygon
   class="st29"
   points="516.7,540.2 514.7,531.2 516.7,531.2 518.7,540.2 "
   id="polygon324" />
	<polygon
   class="st29"
   points="520.7,540.2 518.7,531.2 520.7,531.2 522.7,540.2 "
   id="polygon326" />
	<polygon
   class="st29"
   points="524.7,540.2 522.7,531.2 524.7,531.2 526.7,540.2 "
   id="polygon328" />
	<polyline
   class="st29"
   points="528.7,540.2 526.7,531.2 528.7,531.2  "
   id="polyline330" />
	<polyline
   class="st30"
   points="530.9,543.8 524.3,543.8 524.3,527.6 530.9,527.6  "
   id="polyline332" />
	<polyline
   class="st31"
   points="530.9,543.8 524.3,543.8 524.3,540.3 530.9,540.3  "
   id="polyline334" />
	<polyline
   class="st31"
   points="530.9,531.1 524.3,531.1 524.3,527.6 530.9,527.6  "
   id="polyline336" />
	<polyline
   class="st22"
   points="550.6,606.7 510.9,606.7 510.9,597.7 550.6,597.7  "
   id="polyline338" />
	<polygon
   class="st29"
   points="516.7,606.7 514.7,597.7 516.7,597.7 518.7,606.7 "
   id="polygon340" />
	<polygon
   class="st29"
   points="520.7,606.7 518.7,597.7 520.7,597.7 522.7,606.7 "
   id="polygon342" />
	<polygon
   class="st29"
   points="524.7,606.7 522.7,597.7 524.7,597.7 526.7,606.7 "
   id="polygon344" />
	<polyline
   class="st29"
   points="528.7,606.7 526.7,597.7 528.7,597.7  "
   id="polyline346" />
	<polyline
   class="st30"
   points="530.9,610.3 524.3,610.3 524.3,594.1 530.9,594.1  "
   id="polyline348" />
	<polyline
   class="st31"
   points="530.9,610.3 524.3,610.3 524.3,606.8 530.9,606.8  "
   id="polyline350" />
	<polyline
   class="st31"
   points="530.9,597.6 524.3,597.6 524.3,594.1 530.9,594.1  "
   id="polyline352" />
</g>
<g
   id="g388"
   transform="translate(-510.9,0.2000003)">
	<polyline
   class="st22"
   points="1404.6,597.7 1444.3,597.7 1444.3,606.7 1404.6,606.7  "
   id="polyline356" />
	<polygon
   class="st29"
   points="1438.5,597.7 1440.5,606.7 1438.5,606.7 1436.5,597.7 "
   id="polygon358" />
	<polygon
   class="st29"
   points="1434.5,597.7 1436.5,606.7 1434.5,606.7 1432.5,597.7 "
   id="polygon360" />
	<polygon
   class="st29"
   points="1430.5,597.7 1432.5,606.7 1430.5,606.7 1428.5,597.7 "
   id="polygon362" />
	<polyline
   class="st29"
   points="1426.5,597.7 1428.5,606.7 1426.5,606.7  "
   id="polyline364" />
	<polyline
   class="st30"
   points="1424.3,594.1 1430.9,594.1 1430.9,610.3 1424.3,610.3  "
   id="polyline366" />
	<polyline
   class="st31"
   points="1424.3,594.1 1430.9,594.1 1430.9,597.6 1424.3,597.6  "
   id="polyline368" />
	<polyline
   class="st31"
   points="1424.3,606.8 1430.9,606.8 1430.9,610.3 1424.3,610.3  "
   id="polyline370" />
	<polyline
   class="st22"
   points="1404.6,531.2 1444.3,531.2 1444.3,540.2 1404.6,540.2  "
   id="polyline372" />
	<polygon
   class="st29"
   points="1438.5,531.2 1440.5,540.2 1438.5,540.2 1436.5,531.2 "
   id="polygon374" />
	<polygon
   class="st29"
   points="1434.5,531.2 1436.5,540.2 1434.5,540.2 1432.5,531.2 "
   id="polygon376" />
	<polygon
   class="st29"
   points="1430.5,531.2 1432.5,540.2 1430.5,540.2 1428.5,531.2 "
   id="polygon378" />
	<polyline
   class="st29"
   points="1426.5,531.2 1428.5,540.2 1426.5,540.2  "
   id="polyline380" />
	<polyline
   class="st30"
   points="1424.3,527.6 1430.9,527.6 1430.9,543.8 1424.3,543.8  "
   id="polyline382" />
	<polyline
   class="st31"
   points="1424.3,527.6 1430.9,527.6 1430.9,531.1 1424.3,531.1  "
   id="polyline384" />
	<polyline
   class="st31"
   points="1424.3,540.3 1430.9,540.3 1430.9,543.8 1424.3,543.8  "
   id="polyline386" />
</g>
<g
   id="g422"
   transform="translate(-510.9,0.2000003)">
	<polyline
   class="st22"
   points="1404.6,352.2 1444.3,352.2 1444.3,361.2 1404.6,361.2  "
   id="polyline390" />
	<polygon
   class="st29"
   points="1438.5,352.2 1440.5,361.2 1438.5,361.2 1436.5,352.2 "
   id="polygon392" />
	<polygon
   class="st29"
   points="1434.5,352.2 1436.5,361.2 1434.5,361.2 1432.5,352.2 "
   id="polygon394" />
	<polygon
   class="st29"
   points="1430.5,352.2 1432.5,361.2 1430.5,361.2 1428.5,352.2 "
   id="polygon396" />
	<polyline
   class="st29"
   points="1426.5,352.2 1428.5,361.2 1426.5,361.2  "
   id="polyline398" />
	<polyline
   class="st30"
   points="1424.3,348.6 1430.9,348.6 1430.9,364.8 1424.3,364.8  "
   id="polyline400" />
	<polyline
   class="st31"
   points="1424.3,348.6 1430.9,348.6 1430.9,352.2 1424.3,352.2  "
   id="polyline402" />
	<polyline
   class="st31"
   points="1424.3,361.3 1430.9,361.3 1430.9,364.8 1424.3,364.8  "
   id="polyline404" />
	<polyline
   class="st22"
   points="1404.6,285.7 1444.3,285.7 1444.3,294.7 1404.6,294.7  "
   id="polyline406" />
	<polygon
   class="st29"
   points="1438.5,285.7 1440.5,294.7 1438.5,294.7 1436.5,285.7 "
   id="polygon408" />
	<polygon
   class="st29"
   points="1434.5,285.7 1436.5,294.7 1434.5,294.7 1432.5,285.7 "
   id="polygon410" />
	<polygon
   class="st29"
   points="1430.5,285.7 1432.5,294.7 1430.5,294.7 1428.5,285.7 "
   id="polygon412" />
	<polyline
   class="st29"
   points="1426.5,285.7 1428.5,294.7 1426.5,294.7  "
   id="polyline414" />
	<polyline
   class="st30"
   points="1424.3,282.1 1430.9,282.1 1430.9,298.4 1424.3,298.4  "
   id="polyline416" />
	<polyline
   class="st31"
   points="1424.3,282.1 1430.9,282.1 1430.9,285.7 1424.3,285.7  "
   id="polyline418" />
	<polyline
   class="st31"
   points="1424.3,294.8 1430.9,294.8 1430.9,298.4 1424.3,298.4  "
   id="polyline420" />
</g>
<g
   id="g426"
   transform="translate(-510.9,0.2000003)">
	<rect
   x="618.5"
   y="184.60001"
   class="st32"
   width="717.70001"
   height="12.6"
   id="rect424" />
</g>
<rect
   x="829.90002"
   y="220.8"
   class="st33"
   width="83.5"
   height="517.90002"
   id="rect428" />
<rect
   x="22.1"
   y="220.8"
   class="st33"
   width="83.5"
   height="517.90002"
   id="rect430" />
<polygon
   class="st10"
   points="1372.3,206 1368.6,207.5 1366,210.2 1364.7,214.7 1366.7,211.1 1369,208.5 "
   id="polygon432"
   transform="translate(-510.9,0.2000003)" />
<g
   id="g436"
   transform="translate(-510.9,0.2000003)">
	<polygon
   class="st10"
   points="1409,268 1405.4,269.5 1402.8,272.3 1401.5,276.7 1403.4,273.1 1405.8,270.6 "
   id="polygon434" />
</g>
<g
   id="g442"
   transform="translate(-510.9,0.2000003)">
	<circle
   class="st15"
   cx="1410"
   cy="622"
   r="7.6999998"
   id="circle438" />
	<path
   class="st10"
   d="m 1413.9,618.2 -3.6,1.5 -2.5,2.7 -1.3,4.5 1.9,-3.6 v 0 c 1.6,-1.7 3.3,-3.2 5.2,-4.7 z"
   id="path440" />
</g>
<g
   id="g448"
   transform="translate(-510.9,0.2000003)">
	<circle
   class="st15"
   cx="1410"
   cy="272.39999"
   r="7.6999998"
   id="circle444" />
	<path
   class="st10"
   d="m 1413.9,268.5 -3.6,1.5 -2.5,2.7 -1.3,4.5 1.9,-3.6 v 0 c 1.6,-1.7 3.3,-3.2 5.2,-4.7 z"
   id="path446" />
</g>
<g
   id="g454"
   transform="translate(-510.9,0.2000003)">
	<circle
   class="st15"
   cx="551.29999"
   cy="271.89999"
   r="7.6999998"
   id="circle450" />
	<polygon
   class="st10"
   points="555.2,268 551.6,269.5 549,272.3 547.7,276.7 549.6,273.1 552,270.6 "
   id="polygon452" />
</g>
<g
   id="g460"
   transform="translate(-510.9,0.2000003)">
	<circle
   class="st15"
   cx="551.29999"
   cy="602.20001"
   r="7.6999998"
   id="circle456" />
	<path
   class="st10"
   d="m 555.2,598.3 -3.6,1.5 -2.5,2.7 -1.3,4.5 1.9,-3.6 v 0 c 1.6,-1.7 3.3,-3.2 5.2,-4.7 z"
   id="path458" />
</g>
<path
   class="st15"
   d="M 21.4,299.8"
   id="path462" />

<rect
   x="112.39999"
   y="697.40002"
   class="st1"
   width="69.099998"
   height="59.799999"
   id="rect466" />
<polygon
   class="st22"
   points="629.4,720.8 687.6,720.8 685.6,726.2 632,726.2 "
   id="polygon468"
   transform="translate(-510.9,0.2000003)" />
<polygon
   class="st22"
   points="629.4,711.6 687.6,711.6 685.6,717 632,717 "
   id="polygon470"
   transform="translate(-510.9,0.2000003)" />
<polygon
   class="st22"
   points="629.4,729.9 687.6,729.9 685.6,735.3 632,735.3 "
   id="polygon472"
   transform="translate(-510.9,0.2000003)" />
<polygon
   class="st22"
   points="629.4,739.1 687.6,739.1 685.6,744.5 632,744.5 "
   id="polygon474"
   transform="translate(-510.9,0.2000003)" />
<rect
   x="752.29993"
   y="697.40002"
   class="st1"
   width="69.099998"
   height="59.799999"
   id="rect476" />
<polygon
   class="st22"
   points="1269.2,720.8 1327.5,720.8 1325.4,726.2 1271.8,726.2 "
   id="polygon478"
   transform="translate(-510.9,0.2000003)" />
<polygon
   class="st22"
   points="1269.2,711.6 1327.5,711.6 1325.4,717 1271.8,717 "
   id="polygon480"
   transform="translate(-510.9,0.2000003)" />
<polygon
   class="st22"
   points="1269.2,729.9 1327.5,729.9 1325.4,735.3 1271.8,735.3 "
   id="polygon482"
   transform="translate(-510.9,0.2000003)" />
<polygon
   class="st22"
   points="1269.2,739.1 1327.5,739.1 1325.4,744.5 1271.8,744.5 "
   id="polygon484"
   transform="translate(-510.9,0.2000003)" />
<g
   id="g492"
   transform="translate(-510.9,0.2000003)">
		<g
   id="g490">
			<polygon
   class="st13"
   points="1384.1,703.3 569.3,703.3 570.6,195.2 1385.4,195.2 "
   id="polygon486" />
			<polygon
   class="st34"
   points="1384.1,703.3 569.3,703.3 570.6,195.2 1385.4,195.2 "
   id="polygon488" />
		</g>
	</g><g
   id="g498"
   transform="translate(-510.9,0.2000003)">
		<circle
   class="st15"
   cx="586"
   cy="209.89999"
   r="7.6999998"
   id="circle494" />
		<polygon
   class="st10"
   points="583.7,210.2 582.5,214.7 584.4,211.1 586.7,208.5 590,206 586.4,207.5 "
   id="polygon496" />
	</g><g
   id="g504"
   transform="translate(-510.9,0.2000003)">
		<circle
   class="st15"
   cx="584.79999"
   cy="675.70001"
   r="7.6999998"
   id="circle500" />
		<polygon
   class="st10"
   points="582.6,676 581.3,680.5 583.2,676.9 585.6,674.3 588.7,671.9 585.1,673.3 "
   id="polygon502" />
	</g><circle
   class="st15"
   cx="857.5"
   cy="210.09999"
   r="7.6999998"
   id="circle506" /><g
   id="g512"
   transform="translate(-510.9,0.2000003)">
		<circle
   class="st15"
   cx="1367.1"
   cy="675.70001"
   r="7.6999998"
   id="circle508" />
		<polygon
   class="st10"
   points="1364.9,676 1363.6,680.5 1365.5,676.9 1367.9,674.3 1371,671.9 1367.4,673.3 "
   id="polygon510" />
	</g><g
   id="g540"
   transform="translate(-510.9,0.2000003)">
		<g
   id="g518">
			<path
   class="st35"
   d="m 976.8,677.3 c -7.6,0 -15.3,-0.1 -23,-0.3 l -330.3,-9 c -13.1,-0.4 -23.4,-10.9 -23.4,-24 l 1.2,-400.7 c 0,-13.1 10.2,-23.6 23.3,-24 L 958,209.2 c 7.2,-0.2 14.4,-0.3 21.5,-0.3 7.2,0 14.4,0.2 21.5,0.3 l 330,10.1 c 13,0.4 23.2,10.9 23.2,24 L 1353,644 c 0.1,13.2 -10.2,23.7 -23.2,24 l -330.3,9 c -7.4,0.2 -15.2,0.3 -22.7,0.3 z"
   id="path514" />
			<path
   class="st36"
   d="m 979.5,211.5 c 7.2,0 14.3,0.2 21.5,0.3 l 330,10.1 c 11.5,0.4 20.6,9.8 20.6,21.3 l -1.2,400.7 v 0 0 c 0,5.6 -2.1,10.8 -5.9,14.9 -3.8,4 -9.1,6.3 -14.6,6.5 l -330.3,9 c -7.6,0.2 -15.3,0.3 -22.9,0.3 -7.6,0 -15.3,-0.1 -22.9,-0.3 l -330.3,-9 c -5.6,-0.2 -10.8,-2.5 -14.7,-6.5 -3.9,-4 -6.1,-9.3 -6.1,-14.9 l 1.2,-400.7 c 0,-11.6 9.1,-20.9 20.7,-21.3 L 958,211.8 c 7.2,-0.2 14.4,-0.3 21.5,-0.3 m 0,-5.4 c -7.2,0 -14.5,0.1 -21.6,0.4 l -333.4,10.1 c -14.5,0.5 -25.9,12.2 -25.9,26.7 L 597.4,644 c 0,14.5 11.5,26.3 26,26.7 l 330.3,9 c 7.7,0.2 15.4,0.3 23,0.3 7.7,0 15.4,-0.1 23.1,-0.3 l 330.3,-9 c 14.5,-0.4 25.9,-12.2 25.9,-26.7 l 1.2,-400.7 c 0,-14.5 -11.5,-26.2 -25.9,-26.7 l -330,-10.1 c -7.3,-0.2 -14.5,-0.4 -21.8,-0.4 z"
   id="path516" />
		</g>
		<g
   id="g528">
			<g
   class="st37"
   id="g522">
				<path
   class="st38"
   d="M 976.8,652.1"
   id="path520" />
			</g>
			<g
   id="g526">
				<path
   class="st39"
   d="M 976.8,652.1"
   id="path524" />
			</g>
		</g>
		<g
   id="g538">
			<g
   class="st37"
   id="g532">
				<path
   class="st38"
   d="M 977.9,269.4"
   id="path530" />
			</g>
			<g
   id="g536">
				<path
   class="st39"
   d="M 977.9,269.4"
   id="path534" />
			</g>
		</g>
	</g>
<polyline
   class="st40"
   points="692.4,728.2 730.4,728.2 745.1,713.5 787.3,713.5 811.9,727 865.4,727 "
   id="polyline544"
   transform="translate(-510.9,0.2000003)" />
<polyline
   class="st40"
   points="1263.2,728.2 1225.2,728.2 1210.5,713.5 1168.3,713.5 1143.6,727 812.9,727 "
   id="polyline546"
   transform="translate(-510.9,0.2000003)" />



<rect
   x="659.90002"
   y="268.90002"
   class="st45"
   width="145"
   height="16.799999"
   id="rect554" />

<rect
   x="785.59998"
   y="265.60001"
   class="st45"
   width="42.799999"
   height="26"
   id="rect558" />









</svg>
