<?xml version="1.0" encoding="UTF-8" standalone="no"?>
<!-- Generator: Adobe Illustrator 26.0.3, SVG Export Plug-In . SVG Version: 6.00 Build 0)  -->

<svg
   version="1.1"
   id="Layer_1"
   x="0px"
   y="0px"
   viewBox="0 0 1988.2931 867.08101"
   xml:space="preserve"
   sodipodi:docname="main_hud2.svg"
   inkscape:version="1.1 (c68e22c387, 2021-05-23)"
   width="1988.2931"
   height="867.08099"
   xmlns:inkscape="http://www.inkscape.org/namespaces/inkscape"
   xmlns:sodipodi="http://sodipodi.sourceforge.net/DTD/sodipodi-0.dtd"
   xmlns:xlink="http://www.w3.org/1999/xlink"
   xmlns="http://www.w3.org/2000/svg"
   xmlns:svg="http://www.w3.org/2000/svg"><defs
   id="defs1443">
	
	
	
	
	
	
	
</defs><sodipodi:namedview
   id="namedview1441"
   pagecolor="#ffffff"
   bordercolor="#666666"
   borderopacity="1.0"
   inkscape:pageshadow="2"
   inkscape:pageopacity="0.0"
   inkscape:pagecheckerboard="0"
   showgrid="false"
   inkscape:zoom="0.52820769"
   inkscape:cx="1062.0822"
   inkscape:cy="171.33412"
   inkscape:window-width="1842"
   inkscape:window-height="1057"
   inkscape:window-x="-8"
   inkscape:window-y="-8"
   inkscape:window-maximized="1"
   inkscape:current-layer="Layer_1" />
<style
   type="text/css"
   id="style2">
	.st0{fill:#AEAEAF;}
	.st1{fill:#686868;}
	.st2{fill:#9C9B9B;}
	.st3{fill:#BBBBBB;}
	.st4{fill:none;stroke:#4C4A36;stroke-width:9;stroke-miterlimit:10;}
	.st5{fill:none;stroke:#303F2B;stroke-width:7;stroke-miterlimit:10;}
	.st6{fill:#727272;stroke:#5B5B5B;stroke-width:2.9529;stroke-miterlimit:10;}
	.st7{fill:#727272;stroke:#5B5B5B;stroke-width:2.8058;stroke-miterlimit:10;}
	.st8{fill:none;stroke:#303F2B;stroke-width:11;stroke-miterlimit:10;}
	.st9{fill:#222321;}
	.st10{fill:#E1E1E1;}
	.st11{fill:#CCCBCB;}
	.st12{fill:#705E51;stroke:#5B5B5B;stroke-width:0.7418;stroke-miterlimit:10;}
	.st13{fill:#9D5D26;}
	.st14{fill:#54463C;}
	.st15{fill:#66605C;}
	.st16{fill:#4F403A;}
	.st17{fill:#B79F2A;}
	.st18{fill:#8C811E;}
	.st19{fill:#FCE249;}
	.st20{fill:#4F4F4F;}
	.st21{fill:#706051;}
	.st22{fill:none;}
	.st23{opacity:0.21;fill:#F2EEEB;stroke:#5B5B5B;stroke-width:2.3433;stroke-miterlimit:10;enable-background:new    ;}
	.st24{fill:#606060;}
	.st25{fill:#939393;}
	.st26{fill:#8E3333;}
	
		.st27{opacity:0.4;clip-path:url(#SVGID_00000103255583515261960690000006802469646082664634_);fill:#FFFFFF;enable-background:new    ;}
	
		.st28{opacity:0.4;clip-path:url(#SVGID_00000168832800528848874350000016062070685563962248_);fill:#FFFFFF;enable-background:new    ;}
	.st29{fill:none;stroke:#B79F2A;stroke-width:5;stroke-miterlimit:10;}
	.st30{fill:#FFF0E3;}
	.st31{fill:#AA9281;}
	.st32{fill:none;stroke:#686868;stroke-width:2;stroke-miterlimit:10;}
	.st33{fill:#5B5B5B;}
	.st34{fill:#C6B17B;}
	.st35{fill:#6D9942;}
	.st36{fill:none;stroke:#4C4A36;stroke-width:11;stroke-miterlimit:10;}
	.st37{fill:#303F2B;}
	.st38{fill:#459B8C;stroke:#5B5B5B;stroke-width:3.9441;stroke-miterlimit:10;}
	.st39{opacity:0.24;fill:#FFFFFF;stroke:#5B5B5B;stroke-width:3.9441;stroke-miterlimit:10;enable-background:new    ;}
	
		.st40{opacity:0.26;clip-path:url(#SVGID_00000077322962360602615670000014597413080982114433_);fill:#FFFFFF;enable-background:new    ;}
	
		.st41{opacity:0.26;clip-path:url(#SVGID_00000124870939682112230490000012822757375629603250_);fill:#FFFFFF;enable-background:new    ;}
	.st42{fill:#D6CA3A;stroke:#5B5B5B;stroke-width:2.6351;stroke-miterlimit:10;}
	.st43{opacity:0.24;fill:#FFFFFF;stroke:#5B5B5B;stroke-width:2.6351;stroke-miterlimit:10;enable-background:new    ;}
	
		.st44{opacity:0.26;clip-path:url(#SVGID_00000183944011929801351530000003150705938745576892_);fill:#FFFFFF;enable-background:new    ;}
	
		.st45{opacity:0.26;clip-path:url(#SVGID_00000010312133556616510060000015334912340534593431_);fill:#FFFFFF;enable-background:new    ;}
	.st46{fill:#5B5B5B;stroke:#727272;stroke-width:2.5004;stroke-miterlimit:10;}
	.st47{fill:#727272;}
	.st48{fill:#705E51;stroke:#5B5B5B;stroke-width:0.7882;stroke-miterlimit:10;}
	.st49{fill:#705E51;stroke:#5B5B5B;stroke-width:0.8616;stroke-miterlimit:10;}
	.st50{fill:#AFAFAF;}
	.st51{fill:#FFFFFF;}
	.st52{opacity:0.4;fill:#5B5B5B;enable-background:new    ;}
	.st53{fill:#705E51;stroke:#5B5B5B;stroke-width:1.0442;stroke-miterlimit:10;}
	.st54{fill:#705E51;stroke:#5B5B5B;stroke-width:1.02;stroke-miterlimit:10;}
	.st55{fill:#FF1212;}
	.st56{fill:#FF5F5F;}
	.st57{fill:#C10000;}
	.st58{fill:#636363;}
	.st59{fill:#828282;}
	.st60{filter:url(#Adobe_OpacityMaskFilter);}
	.st61{opacity:0.4;mask:url(#SVGID_00000117645512281132989650000002989001110171081645_);}
	.st62{fill:#EAACAC;}
	.st63{fill:#FFA9A9;}
	.st64{fill:#FFA1A1;}
	.st65{fill:#A3A3A3;}
	.st66{opacity:0.21;fill:#A3A3A3;enable-background:new    ;}
	.st67{fill:#8E8E8E;}
	.st68{opacity:0.53;fill:#686868;enable-background:new    ;}
	.st69{clip-path:url(#SVGID_00000025419564108497532790000001491090569685826217_);fill:#CECECE;}
	.st70{clip-path:url(#SVGID_00000065052059285576662600000008195683659350581130_);fill:#CECECE;}
	.st71{clip-path:url(#SVGID_00000083089636215826008930000001639266545777434780_);fill:#CECECE;}
	.st72{clip-path:url(#SVGID_00000060015055082325562730000013363092913047065773_);fill:#CECECE;}
	.st73{clip-path:url(#SVGID_00000123420404461601347380000014554800724171944866_);fill:#CECECE;}
	.st74{clip-path:url(#SVGID_00000064313212145804114830000013282404550050964409_);fill:#CECECE;}
	.st75{fill:#3A3A3A;}
	.st76{fill:none;stroke:#5B5B5B;stroke-width:8.1322;stroke-miterlimit:10;}
	.st77{fill:#3C4C41;}
	.st78{fill:none;stroke:#5B5B5B;stroke-width:2.4926;stroke-miterlimit:10;}
	.st79{fill:#66605C;stroke:#5B5B5B;stroke-width:1.809;stroke-miterlimit:10;}
	.st80{fill:#3C4C41;stroke:#2F3D33;stroke-width:3;stroke-miterlimit:10;}
	.st81{fill:#66605C;stroke:#5B5B5B;stroke-width:1.1673;stroke-miterlimit:10;}
	.st82{fill:#A0323A;}
	.st83{fill:#3FB25A;}
	.st84{fill:#705E51;stroke:#5B5B5B;stroke-width:0.4444;stroke-miterlimit:10;}
	.st85{fill:#232222;}
	.st86{fill:#494542;}
	.st87{fill:#756D67;}
	.st88{fill:#302D2B;}
	.st89{fill:#3C4C41;stroke:#66605C;stroke-width:2;stroke-miterlimit:10;}
	.st90{fill:#3C4C41;stroke:#A4FFFF;stroke-width:0.9868;stroke-miterlimit:10;}
	.st91{fill:none;stroke:#A4FFFF;stroke-width:0.9868;stroke-miterlimit:10;}
	.st92{opacity:8.000000e-02;}
	.st93{fill:#2F3D33;}
</style>
<polyline
   class="st0"
   points="10.5,708 45.2,708 45.2,698.1 10.5,698.1 "
   id="polyline4"
   transform="translate(-9.4777998,-7.7954998)" />
<polygon
   class="st1"
   points="22.3,698.1 20.4,708 22.3,708 24.1,698.1 "
   id="polygon6"
   transform="translate(-9.4777998,-7.7954998)" />
<polygon
   class="st1"
   points="26,698.1 24.1,708 26,708 27.9,698.1 "
   id="polygon8"
   transform="translate(-9.4777998,-7.7954998)" />
<polygon
   class="st1"
   points="25.6,698.1 23.4,708 25.6,708 27.8,698.1 "
   id="polygon10"
   transform="translate(-9.4777998,-7.7954998)" />
<polyline
   class="st2"
   points="23.6,711.9 23.6,694.1 16.3,694.1 16.3,711.9 "
   id="polyline12"
   transform="translate(-9.4777998,-7.7954998)" />
<rect
   x="6.8221993"
   y="686.3045"
   class="st3"
   width="7.3000002"
   height="3.8"
   id="rect14" />
<polyline
   class="st3"
   points="23.6,711.9 23.6,708.1 16.3,708.1 16.3,711.9 "
   id="polyline16"
   transform="translate(-9.4777998,-7.7954998)" />
<polyline
   class="st0"
   points="10.5,534.2 45.2,534.2 45.2,524.3 10.5,524.3 "
   id="polyline18"
   transform="translate(-9.4777998,-7.7954998)" />
<polygon
   class="st1"
   points="22.3,524.3 20.4,534.2 22.3,534.2 24.1,524.3 "
   id="polygon20"
   transform="translate(-9.4777998,-7.7954998)" />
<polygon
   class="st1"
   points="26,524.3 24.1,534.2 26,534.2 27.9,524.3 "
   id="polygon22"
   transform="translate(-9.4777998,-7.7954998)" />
<polygon
   class="st1"
   points="25.6,524.3 23.4,534.2 25.6,534.2 27.8,524.3 "
   id="polygon24"
   transform="translate(-9.4777998,-7.7954998)" />
<polyline
   class="st2"
   points="23.6,538.2 23.6,520.4 16.3,520.4 16.3,538.2 "
   id="polyline26"
   transform="translate(-9.4777998,-7.7954998)" />
<rect
   x="6.8221993"
   y="512.60455"
   class="st3"
   width="7.3000002"
   height="3.8"
   id="rect28" />
<polyline
   class="st3"
   points="23.6,538.2 23.6,534.3 16.3,534.3 16.3,538.2 "
   id="polyline30"
   transform="translate(-9.4777998,-7.7954998)" />
<polyline
   class="st0"
   points="10.5,355.5 45.2,355.5 45.2,345.7 10.5,345.7 "
   id="polyline32"
   transform="translate(-9.4777998,-7.7954998)" />
<polygon
   class="st1"
   points="22.3,345.7 20.4,355.5 22.3,355.5 24.1,345.7 "
   id="polygon34"
   transform="translate(-9.4777998,-7.7954998)" />
<polygon
   class="st1"
   points="26,345.7 24.1,355.5 26,355.5 27.9,345.7 "
   id="polygon36"
   transform="translate(-9.4777998,-7.7954998)" />
<polygon
   class="st1"
   points="25.6,345.7 23.4,355.5 25.6,355.5 27.8,345.7 "
   id="polygon38"
   transform="translate(-9.4777998,-7.7954998)" />
<polyline
   class="st2"
   points="23.6,359.5 23.6,341.7 16.3,341.7 16.3,359.5 "
   id="polyline40"
   transform="translate(-9.4777998,-7.7954998)" />
<rect
   x="6.8221993"
   y="333.90451"
   class="st3"
   width="7.3000002"
   height="3.8"
   id="rect42" />
<polyline
   class="st3"
   points="23.6,359.5 23.6,355.7 16.3,355.7 16.3,359.5 "
   id="polyline44"
   transform="translate(-9.4777998,-7.7954998)" />
<polyline
   class="st0"
   points="10.5,446.3 45.2,446.3 45.2,436.4 10.5,436.4 "
   id="polyline46"
   transform="translate(-9.4777998,-7.7954998)" />
<polygon
   class="st1"
   points="22.3,436.4 20.4,446.3 22.3,446.3 24.1,436.4 "
   id="polygon48"
   transform="translate(-9.4777998,-7.7954998)" />
<polygon
   class="st1"
   points="26,436.4 24.1,446.3 26,446.3 27.9,436.4 "
   id="polygon50"
   transform="translate(-9.4777998,-7.7954998)" />
<polygon
   class="st1"
   points="25.6,436.4 23.4,446.3 25.6,446.3 27.8,436.4 "
   id="polygon52"
   transform="translate(-9.4777998,-7.7954998)" />
<polyline
   class="st2"
   points="23.6,450.2 23.6,432.5 16.3,432.5 16.3,450.2 "
   id="polyline54"
   transform="translate(-9.4777998,-7.7954998)" />
<rect
   x="6.8221993"
   y="424.7045"
   class="st3"
   width="7.3000002"
   height="3.8"
   id="rect56" />
<polyline
   class="st3"
   points="23.6,450.2 23.6,446.4 16.3,446.4 16.3,450.2 "
   id="polyline58"
   transform="translate(-9.4777998,-7.7954998)" />
<path
   class="st4"
   d="m 1589.6222,119.4045 c 0,0 17.1,-9.7 23,-9.4 9.5,0.5 33.7,-4 28.9,30.6 -3.7,26.1 -104.6,56.7 -77.1,60.3 27.5,3.6 17.7,17.8 23.1,26.3"
   id="path60" />
<path
   class="st5"
   d="m 1454.1222,77.4045 c 0,0 52.9,0.2 13.3,0 -39.6,-0.2 47.3,-3.4 56.5,-26.5 10.4,-26 48.9,-20.8 22.4,17.8"
   id="path62" />
<rect
   x="15.9222"
   y="178.7045"
   class="st6"
   width="1938.6"
   height="686.90002"
   id="rect64" />
<polygon
   class="st7"
   points="1063.1,68.3 872.3,68.3 433.1,68.3 374.5,108.5 329.2,186.7 433.1,208.7 872.3,208.7 1063.1,208.7 1502.3,208.7 1606.2,186.7 1560.9,108.5 1502.3,68.3 "
   id="polygon66"
   transform="translate(-9.4777998,-7.7954998)" />
<path
   class="st8"
   d="m 392.5222,128.8045 c 0,0 0.5,-24.9 -39.1,-25.2 -39.6,-0.3 -51.6,-0.9 -42.3,-23.9 10.4,-26 52.4,-25.4 74.8,5.4"
   id="path68" />
<path
   class="st9"
   d="m 372.1222,171.1045 v -16.7 c 0,-1.5 1,-2.6 2.2,-2.6 h 38.8 c 1.2,0 2.2,1.2 2.2,2.6 v 16.7 z"
   id="path70" />
<rect
   x="380.2222"
   y="136.8045"
   class="st9"
   width="26.9"
   height="21.5"
   id="rect72" />
<rect
   x="383.32217"
   y="128.8045"
   class="st9"
   width="20.9"
   height="12.3"
   id="rect74" />
<polyline
   class="st9"
   points="414.1,151.6 422.4,151.6 422.4,154.7 414.1,154.7 414.1,152.2 "
   id="polyline76"
   transform="translate(-9.4777998,-7.7954998)" />
<path
   class="st9"
   d="m 318.8222,197.6045 -8.9,-14.1 c -0.8,-1.2 -0.6,-2.8 0.5,-3.4 l 32.8,-20.7 c 1,-0.7 2.5,-0.2 3.3,1.1 l 8.9,14.1 z"
   id="path78" />
<rect
   x="172.11046"
   y="303.06354"
   transform="rotate(-32.288392)"
   class="st9"
   width="26.900951"
   height="21.500761"
   id="rect80"
   style="stroke-width:1.00004" />
<rect
   x="175.17523"
   y="295.0296"
   transform="rotate(-32.288392)"
   class="st9"
   width="20.90074"
   height="12.300436"
   id="rect82"
   style="stroke-width:1.00004" />
<path
   class="st9"
   d="m 1524.6222,80.6045 5.1,-7.2 c 0.4,-0.6 1.2,-0.8 1.8,-0.5 l 16.7,11.8 c 0.5,0.4 0.6,1.2 0.2,1.8 l -5.1,7.2 z"
   id="path84" />
<rect
   x="819.35651"
   y="1296.7833"
   transform="rotate(-54.815999)"
   class="st9"
   width="11.299919"
   height="14.199899"
   id="rect86"
   style="stroke-width:0.999993" />
<rect
   x="828.33765"
   y="1298.4004"
   transform="rotate(-54.815999)"
   class="st9"
   width="6.4999537"
   height="10.999922"
   id="rect88"
   style="stroke-width:0.999993" />
<path
   class="st9"
   d="m 1564.8222,120.9045 7.6,-4.4 c 0.7,-0.4 1.5,-0.2 1.8,0.3 l 10.3,17.6 c 0.3,0.6 0,1.3 -0.6,1.7 l -7.6,4.4 z"
   id="path90" />
<rect
   x="1298.467"
   y="895.6391"
   transform="rotate(-30.1855)"
   class="st9"
   width="11.299973"
   height="14.199965"
   id="rect92"
   style="stroke-width:0.999998" />
<rect
   x="1307.6066"
   y="897.19952"
   transform="rotate(-30.1855)"
   class="st9"
   width="6.4999843"
   height="10.999973"
   id="rect94"
   style="stroke-width:0.999998" />
<polyline
   class="st9"
   points="341.2,164.9 348.2,160.5 349.8,163.1 342.8,167.5 341.5,165.4 "
   id="polyline96"
   transform="translate(-9.4777998,-7.7954998)" />
<g
   id="g214"
   transform="translate(-9.4777998,-7.7954998)">
	<polyline
   class="st10"
   points="1825.3,870.2 1825.3,787.8 1772,787.8 1772,870.2  "
   id="polyline98" />
	<polyline
   class="st11"
   points="1668.8,872.2 1668.8,806.1 1896,806.1 1896,872.2  "
   id="polyline100" />
	<path
   class="st0"
   d="m 1896,872.2 v -66.1 h -16.2 v 17.1 c 0,0 -68.3,11.4 -68.3,48.4"
   id="path102" />
	<polyline
   class="st12"
   points="1872.3,322.5 1872.3,853.5 1974.1,853.5 1974.1,322.5  "
   id="polyline104" />
	<polyline
   class="st0"
   points="1845.5,872.3 1845.5,854.2 1974.7,854.2 1974.7,872.3  "
   id="polyline106" />
	<path
   class="st1"
   d="m 1853.5,868.8 v -8 c 0,-1.7 1.4,-3 3,-3 v 0 c 1.7,0 3,1.4 3,3 v 8"
   id="path108" />
	<path
   class="st1"
   d="m 1871.3,868.8 v -8 c 0,-1.7 1.4,-3 3,-3 v 0 c 1.7,0 3,1.4 3,3 v 8"
   id="path110" />
	<path
   class="st1"
   d="m 1889.1,868.8 v -8 c 0,-1.7 1.4,-3 3,-3 v 0 c 1.7,0 3,1.4 3,3 v 8"
   id="path112" />
	<path
   class="st1"
   d="m 1906.9,868.8 v -8 c 0,-1.7 1.4,-3 3,-3 v 0 c 1.7,0 3,1.4 3,3 v 8"
   id="path114" />
	<path
   class="st1"
   d="m 1924.6,868.8 v -8 c 0,-1.7 1.4,-3 3,-3 v 0 c 1.7,0 3,1.4 3,3 v 8"
   id="path116" />
	<path
   class="st1"
   d="m 1942.4,868.8 v -8 c 0,-1.7 1.4,-3 3,-3 v 0 c 1.7,0 3,1.4 3,3 v 8"
   id="path118" />
	<path
   class="st1"
   d="m 1960.2,868.8 v -8 c 0,-1.7 1.4,-3 3,-3 v 0 c 1.7,0 3,1.4 3,3 v 8"
   id="path120" />
	<g
   id="g150">
		<g
   id="g124">
			<rect
   x="1848.8"
   y="745.09998"
   class="st13"
   width="8.1999998"
   height="42.700001"
   id="rect122" />
		</g>
		<g
   id="g128">
			<rect
   x="1882.2"
   y="745.09998"
   class="st14"
   width="8.1999998"
   height="42.700001"
   id="rect126" />
		</g>
		<g
   id="g132">
			<rect
   x="1898.9"
   y="745.09998"
   class="st14"
   width="8.1999998"
   height="42.700001"
   id="rect130" />
		</g>
		<g
   id="g136">
			<rect
   x="1915.6"
   y="745.09998"
   class="st14"
   width="8.1999998"
   height="42.700001"
   id="rect134" />
		</g>
		<g
   id="g140">
			<rect
   x="1932.3"
   y="745.09998"
   class="st14"
   width="8.1999998"
   height="42.700001"
   id="rect138" />
		</g>
		<g
   id="g144">
			<rect
   x="1948.9"
   y="745.09998"
   class="st14"
   width="8.1999998"
   height="42.700001"
   id="rect142" />
		</g>
		<g
   id="g148">
			<rect
   x="1965.6"
   y="745.09998"
   class="st14"
   width="8.1999998"
   height="42.700001"
   id="rect146" />
		</g>
	</g>
	<g
   id="g154">
		<rect
   x="1772"
   y="787.79999"
   class="st11"
   width="53.299999"
   height="18.6"
   id="rect152" />
	</g>
	<g
   id="g158">
		<rect
   x="1690.3"
   y="745.09998"
   class="st10"
   width="216.8"
   height="42.700001"
   id="rect156" />
	</g>
	<g
   id="g212">
		<g
   id="g162">
			<rect
   x="1695"
   y="748.5"
   class="st0"
   width="7.5999999"
   height="36"
   id="rect160" />
		</g>
		<g
   id="g166">
			<rect
   x="1711.7"
   y="748.5"
   class="st0"
   width="7.5999999"
   height="36"
   id="rect164" />
		</g>
		<g
   id="g170">
			<rect
   x="1728.3"
   y="748.5"
   class="st0"
   width="7.5999999"
   height="36"
   id="rect168" />
		</g>
		<g
   id="g174">
			<rect
   x="1744.9"
   y="748.5"
   class="st0"
   width="7.5999999"
   height="36"
   id="rect172" />
		</g>
		<g
   id="g178">
			<rect
   x="1761.6"
   y="748.5"
   class="st0"
   width="7.5999999"
   height="36"
   id="rect176" />
		</g>
		<g
   id="g182">
			<rect
   x="1778.2"
   y="748.5"
   class="st0"
   width="7.5999999"
   height="36"
   id="rect180" />
		</g>
		<g
   id="g186">
			<rect
   x="1794.9"
   y="748.5"
   class="st0"
   width="7.5999999"
   height="36"
   id="rect184" />
		</g>
		<g
   id="g190">
			<rect
   x="1811.5"
   y="748.5"
   class="st0"
   width="7.5999999"
   height="36"
   id="rect188" />
		</g>
		<g
   id="g194">
			<rect
   x="1828.1"
   y="748.5"
   class="st0"
   width="7.5999999"
   height="36"
   id="rect192" />
		</g>
		<g
   id="g198">
			<rect
   x="1844.8"
   y="748.5"
   class="st0"
   width="7.5999999"
   height="36"
   id="rect196" />
		</g>
		<g
   id="g202">
			<rect
   x="1861.4"
   y="748.5"
   class="st0"
   width="7.5999999"
   height="36"
   id="rect200" />
		</g>
		<g
   id="g206">
			<rect
   x="1878.1"
   y="748.5"
   class="st0"
   width="7.5999999"
   height="36"
   id="rect204" />
		</g>
		<g
   id="g210">
			<rect
   x="1894.7"
   y="748.5"
   class="st0"
   width="7.5999999"
   height="36"
   id="rect208" />
		</g>
	</g>
</g>
<g
   id="g282"
   transform="translate(-9.4777998,-7.7954998)">
	<polyline
   class="st0"
   points="1781.5,402.6 1781.5,351 1793.2,351 1793.2,402.6  "
   id="polyline216" />
	<polygon
   class="st1"
   points="1781.5,358.6 1793.2,356 1793.2,358.6 1781.5,361.2 "
   id="polygon218" />
	<polygon
   class="st1"
   points="1781.5,363.8 1793.2,361.2 1793.2,363.8 1781.5,366.4 "
   id="polygon220" />
	<polygon
   class="st1"
   points="1781.5,369 1793.2,366.4 1793.2,369 1781.5,371.6 "
   id="polygon222" />
	<polyline
   class="st1"
   points="1781.5,374.2 1793.2,371.6 1793.2,374.2  "
   id="polyline224" />
	<polyline
   class="st2"
   points="1776.9,377 1776.9,368.4 1797.9,368.4 1797.9,377  "
   id="polyline226" />
	<polyline
   class="st3"
   points="1776.9,377 1776.9,368.4 1781.4,368.4 1781.4,377  "
   id="polyline228" />
	<polyline
   class="st3"
   points="1793.4,377 1793.4,368.4 1797.9,368.4 1797.9,377  "
   id="polyline230" />
	<polyline
   class="st0"
   points="1695.1,402.6 1695.1,351 1706.8,351 1706.8,402.6  "
   id="polyline232" />
	<polygon
   class="st1"
   points="1695.1,358.6 1706.8,356 1706.8,358.6 1695.1,361.2 "
   id="polygon234" />
	<polygon
   class="st1"
   points="1695.1,363.8 1706.8,361.2 1706.8,363.8 1695.1,366.4 "
   id="polygon236" />
	<polygon
   class="st1"
   points="1695.1,369 1706.8,366.4 1706.8,369 1695.1,371.6 "
   id="polygon238" />
	<polyline
   class="st1"
   points="1695.1,374.2 1706.8,371.6 1706.8,374.2  "
   id="polyline240" />
	<polyline
   class="st2"
   points="1690.5,377 1690.5,368.4 1711.5,368.4 1711.5,377  "
   id="polyline242" />
	<polyline
   class="st3"
   points="1690.5,377 1690.5,368.4 1695,368.4 1695,377  "
   id="polyline244" />
	<polyline
   class="st3"
   points="1707,377 1707,368.4 1711.5,368.4 1711.5,377  "
   id="polyline246" />
	<polyline
   class="st0"
   points="1706.8,456.3 1706.8,507.8 1695.1,507.8 1695.1,456.3  "
   id="polyline248" />
	<polygon
   class="st1"
   points="1706.8,500.3 1695.1,502.9 1695.1,500.3 1706.8,497.7 "
   id="polygon250" />
	<polygon
   class="st1"
   points="1706.8,495.1 1695.1,497.7 1695.1,495.1 1706.8,492.5 "
   id="polygon252" />
	<polygon
   class="st1"
   points="1706.8,489.9 1695.1,492.5 1695.1,489.9 1706.8,487.3 "
   id="polygon254" />
	<polyline
   class="st1"
   points="1706.8,484.7 1695.1,487.3 1695.1,484.7  "
   id="polyline256" />
	<polyline
   class="st2"
   points="1711.5,481.9 1711.5,490.5 1690.5,490.5 1690.5,481.9  "
   id="polyline258" />
	<polyline
   class="st3"
   points="1711.5,481.9 1711.5,490.5 1707,490.5 1707,481.9  "
   id="polyline260" />
	<polyline
   class="st3"
   points="1695,481.9 1695,490.5 1690.5,490.5 1690.5,481.9  "
   id="polyline262" />
	<polyline
   class="st0"
   points="1793.2,456.3 1793.2,507.8 1781.5,507.8 1781.5,456.3  "
   id="polyline264" />
	<polygon
   class="st1"
   points="1793.2,500.3 1781.5,502.9 1781.5,500.3 1793.2,497.7 "
   id="polygon266" />
	<polygon
   class="st1"
   points="1793.2,495.1 1781.5,497.7 1781.5,495.1 1793.2,492.5 "
   id="polygon268" />
	<polygon
   class="st1"
   points="1793.2,489.9 1781.5,492.5 1781.5,489.9 1793.2,487.3 "
   id="polygon270" />
	<polyline
   class="st1"
   points="1793.2,484.7 1781.5,487.3 1781.5,484.7  "
   id="polyline272" />
	<polyline
   class="st2"
   points="1797.9,481.9 1797.9,490.5 1776.9,490.5 1776.9,481.9  "
   id="polyline274" />
	<polyline
   class="st3"
   points="1797.9,481.9 1797.9,490.5 1793.4,490.5 1793.4,481.9  "
   id="polyline276" />
	<polyline
   class="st3"
   points="1781.4,481.9 1781.4,490.5 1776.9,490.5 1776.9,481.9  "
   id="polyline278" />
	<rect
   x="1670.3"
   y="377"
   class="st15"
   width="149.39999"
   height="105.1"
   id="rect280" />
</g>
<g
   id="g350"
   transform="translate(-9.4777998,-7.7954998)">
	<polyline
   class="st0"
   points="1781.5,590.3 1781.5,538.7 1793.2,538.7 1793.2,590.3  "
   id="polyline284" />
	<polygon
   class="st1"
   points="1781.5,546.3 1793.2,543.6 1793.2,546.3 1781.5,548.9 "
   id="polygon286" />
	<polygon
   class="st1"
   points="1781.5,551.5 1793.2,548.9 1793.2,551.5 1781.5,554.1 "
   id="polygon288" />
	<polygon
   class="st1"
   points="1781.5,556.7 1793.2,554.1 1793.2,556.7 1781.5,559.3 "
   id="polygon290" />
	<polyline
   class="st1"
   points="1781.5,561.9 1793.2,559.3 1793.2,561.9  "
   id="polyline292" />
	<polyline
   class="st2"
   points="1776.9,564.7 1776.9,556.1 1797.9,556.1 1797.9,564.7  "
   id="polyline294" />
	<polyline
   class="st3"
   points="1776.9,564.7 1776.9,556.1 1781.4,556.1 1781.4,564.7  "
   id="polyline296" />
	<polyline
   class="st3"
   points="1793.4,564.7 1793.4,556.1 1797.9,556.1 1797.9,564.7  "
   id="polyline298" />
	<polyline
   class="st0"
   points="1695.1,590.3 1695.1,538.7 1706.8,538.7 1706.8,590.3  "
   id="polyline300" />
	<polygon
   class="st1"
   points="1695.1,546.3 1706.8,543.6 1706.8,546.3 1695.1,548.9 "
   id="polygon302" />
	<polygon
   class="st1"
   points="1695.1,551.5 1706.8,548.9 1706.8,551.5 1695.1,554.1 "
   id="polygon304" />
	<polygon
   class="st1"
   points="1695.1,556.7 1706.8,554.1 1706.8,556.7 1695.1,559.3 "
   id="polygon306" />
	<polyline
   class="st1"
   points="1695.1,561.9 1706.8,559.3 1706.8,561.9  "
   id="polyline308" />
	<polyline
   class="st2"
   points="1690.5,564.7 1690.5,556.1 1711.5,556.1 1711.5,564.7  "
   id="polyline310" />
	<polyline
   class="st3"
   points="1690.5,564.7 1690.5,556.1 1695,556.1 1695,564.7  "
   id="polyline312" />
	<polyline
   class="st3"
   points="1707,564.7 1707,556.1 1711.5,556.1 1711.5,564.7  "
   id="polyline314" />
	<polyline
   class="st0"
   points="1706.8,644 1706.8,695.5 1695.1,695.5 1695.1,644  "
   id="polyline316" />
	<polygon
   class="st1"
   points="1706.8,688 1695.1,690.6 1695.1,688 1706.8,685.4 "
   id="polygon318" />
	<polygon
   class="st1"
   points="1706.8,682.8 1695.1,685.4 1695.1,682.8 1706.8,680.2 "
   id="polygon320" />
	<polygon
   class="st1"
   points="1706.8,677.6 1695.1,680.2 1695.1,677.6 1706.8,675 "
   id="polygon322" />
	<polyline
   class="st1"
   points="1706.8,672.4 1695.1,675 1695.1,672.4  "
   id="polyline324" />
	<polyline
   class="st2"
   points="1711.5,669.5 1711.5,678.1 1690.5,678.1 1690.5,669.5  "
   id="polyline326" />
	<polyline
   class="st3"
   points="1711.5,669.5 1711.5,678.1 1707,678.1 1707,669.5  "
   id="polyline328" />
	<polyline
   class="st3"
   points="1695,669.5 1695,678.1 1690.5,678.1 1690.5,669.5  "
   id="polyline330" />
	<polyline
   class="st0"
   points="1793.2,644 1793.2,695.5 1781.5,695.5 1781.5,644  "
   id="polyline332" />
	<polygon
   class="st1"
   points="1793.2,688 1781.5,690.6 1781.5,688 1793.2,685.4 "
   id="polygon334" />
	<polygon
   class="st1"
   points="1793.2,682.8 1781.5,685.4 1781.5,682.8 1793.2,680.2 "
   id="polygon336" />
	<polygon
   class="st1"
   points="1793.2,677.6 1781.5,680.2 1781.5,677.6 1793.2,675 "
   id="polygon338" />
	<polyline
   class="st1"
   points="1793.2,672.4 1781.5,675 1781.5,672.4  "
   id="polyline340" />
	<polyline
   class="st2"
   points="1797.9,669.5 1797.9,678.1 1776.9,678.1 1776.9,669.5  "
   id="polyline342" />
	<polyline
   class="st3"
   points="1797.9,669.5 1797.9,678.1 1793.4,678.1 1793.4,669.5  "
   id="polyline344" />
	<polyline
   class="st3"
   points="1781.4,669.5 1781.4,678.1 1776.9,678.1 1776.9,669.5  "
   id="polyline346" />
	<rect
   x="1670.3"
   y="564.70001"
   class="st15"
   width="149.39999"
   height="105.1"
   id="rect348" />
</g>
<polyline
   class="st12"
   points="1997.4,299.7 1997.4,315.7 1848.7,315.7 1848.7,299.7 "
   id="polyline352"
   transform="translate(-9.4777998,-7.7954998)" />
<polyline
   class="st0"
   points="1871,323 1871,315.7 1975,315.7 1975,323 "
   id="polyline354"
   transform="translate(-9.4777998,-7.7954998)" />
<path
   class="st1"
   d="m 1863.7222,312.9045 v -2.6 c 0,-0.5 0.4,-1 1,-1 v 0 c 0.5,0 1,0.4 1,1 v 2.6"
   id="path356" />
<path
   class="st1"
   d="m 1869.5222,312.9045 v -2.6 c 0,-0.5 0.4,-1 1,-1 v 0 c 0.5,0 1,0.4 1,1 v 2.6"
   id="path358" />
<path
   class="st1"
   d="m 1875.2222,312.9045 v -2.6 c 0,-0.5 0.4,-1 1,-1 v 0 c 0.5,0 1,0.4 1,1 v 2.6"
   id="path360" />
<path
   class="st1"
   d="m 1881.0222,312.9045 v -2.6 c 0,-0.5 0.4,-1 1,-1 v 0 c 0.5,0 1,0.4 1,1 v 2.6"
   id="path362" />
<path
   class="st1"
   d="m 1886.7222,312.9045 v -2.6 c 0,-0.5 0.4,-1 1,-1 v 0 c 0.5,0 1,0.4 1,1 v 2.6"
   id="path364" />
<path
   class="st1"
   d="m 1892.4222,312.9045 v -2.6 c 0,-0.5 0.4,-1 1,-1 v 0 c 0.5,0 1,0.4 1,1 v 2.6"
   id="path366" />
<path
   class="st1"
   d="m 1898.2222,312.9045 v -2.6 c 0,-0.5 0.4,-1 1,-1 v 0 c 0.5,0 1,0.4 1,1 v 2.6"
   id="path368" />
<path
   class="st1"
   d="m 1903.9222,312.9045 v -2.6 c 0,-0.5 0.4,-1 1,-1 v 0 c 0.5,0 1,0.4 1,1 v 2.6"
   id="path370" />
<path
   class="st1"
   d="m 1909.7222,312.9045 v -2.6 c 0,-0.5 0.4,-1 1,-1 v 0 c 0.5,0 1,0.4 1,1 v 2.6"
   id="path372" />
<path
   class="st1"
   d="m 1915.4222,312.9045 v -2.6 c 0,-0.5 0.4,-1 1,-1 v 0 c 0.5,0 1,0.4 1,1 v 2.6"
   id="path374" />
<path
   class="st1"
   d="m 1921.1222,312.9045 v -2.6 c 0,-0.5 0.4,-1 1,-1 v 0 c 0.5,0 1,0.4 1,1 v 2.6"
   id="path376" />
<path
   class="st1"
   d="m 1926.9222,312.9045 v -2.6 c 0,-0.5 0.4,-1 1,-1 v 0 c 0.5,0 1,0.4 1,1 v 2.6"
   id="path378" />
<path
   class="st1"
   d="m 1932.6222,312.9045 v -2.6 c 0,-0.5 0.4,-1 1,-1 v 0 c 0.5,0 1,0.4 1,1 v 2.6"
   id="path380" />
<path
   class="st1"
   d="m 1938.4222,312.9045 v -2.6 c 0,-0.5 0.4,-1 1,-1 v 0 c 0.5,0 1,0.4 1,1 v 2.6"
   id="path382" />
<path
   class="st1"
   d="m 1944.1222,312.9045 v -2.6 c 0,-0.5 0.4,-1 1,-1 v 0 c 0.5,0 1,0.4 1,1 v 2.6"
   id="path384" />
<path
   class="st1"
   d="m 1949.9222,312.9045 v -2.6 c 0,-0.5 0.4,-1 1,-1 v 0 c 0.5,0 1,0.4 1,1 v 2.6"
   id="path386" />
<path
   class="st1"
   d="m 1955.6222,312.9045 v -2.6 c 0,-0.5 0.4,-1 1,-1 v 0 c 0.5,0 1,0.4 1,1 v 2.6"
   id="path388" />
<path
   class="st1"
   d="m 1961.3222,312.9045 v -2.6 c 0,-0.5 0.4,-1 1,-1 v 0 c 0.5,0 1,0.4 1,1 v 2.6"
   id="path390" />
<path
   class="st16"
   d="m 1955.4222,399.6045 v 280.3 c 0,23.2 -18.8,42 -42,42 v 0 c -23.2,0 -42,-18.8 -42,-42 v -280.3 c 0,-23.2 18.8,-42 42,-42 v 0 c 23.2,0 42,18.8 42,42 z"
   id="path392" />
<g
   id="g412"
   transform="translate(-9.4777998,-7.7954998)">
	<g
   id="g402">
		<g
   id="g396">
			<path
   class="st17"
   d="m 1906,469.3 6.6,-1.6 h 10.2 l 9,-0.8 10.4,0.6 v 235.8 c 0,0 0.4,4.8 0,4.9 -0.4,0.1 -11,2.7 -11.6,2.8 -0.5,0 -19.6,-1.7 -19.9,-1.7 -0.3,0 -8.6,-4 -8.6,-4 l 3.8,-102.7 -0.6,-133.4"
   id="path394" />
		</g>
		<g
   id="g400">
			<path
   class="st18"
   d="m 1906,469.3 6.6,-1.6 h 10.2 l 9,-0.8 10.4,0.6 v 235.8 c 0,0 0.4,4.8 0,4.9 -0.4,0.1 -11,2.7 -11.6,2.8 -0.5,0 -19.6,-1.7 -19.9,-1.7 -0.3,0 -8.6,-4 -8.6,-4 l 3.8,-102.7 -0.6,-133.4"
   id="path398" />
		</g>
	</g>
	<path
   class="st19"
   d="m 1923.9,550.3 c 0,0 -0.4,5.5 -4.1,9.2 -3.7,3.7 -4.1,7.1 -0.8,9.9 3.3,2.8 7.7,-3.4 10.2,4 2.5,7.4 -28.1,33 -19.4,42.5 8.7,9.4 18.8,8.9 19.5,14.7 0.7,5.8 9.5,4.1 8.5,0.7 -1,-3.4 -7.4,-8.8 -5.5,-12.2 1.9,-3.4 9.6,-11.5 -0.8,-13.5 -10.4,-2 -15.3,0.9 -10.3,-4.7 5,-5.6 -2.1,-11.5 6.3,-15.2 8.4,-3.7 14.7,-7.5 7.7,-11.6 -7,-4.1 -7.6,-2.3 -7,-4.6 0.6,-2.3 -5.8,-8.9 -2.6,-11.5 3.1,-2.5 7.5,-9 -1.7,-7.7 z"
   id="path404" />
	<path
   class="st19"
   d="m 1931.2,500 c 0,0 -9,-0.1 -11.9,2.5 -2.9,2.6 -5.9,4.8 -2.8,9.7 3.1,4.9 2.8,4.1 0.7,6.6 -2,2.4 -2,6.6 0,6.9 2,0.3 1.8,2.8 5.9,-2.1 4.1,-4.9 3.6,-2.2 8,-5.7 4.5,-3.6 9.8,-10.5 0.1,-17.9 z"
   id="path406" />
	<path
   class="st19"
   d="m 1931.1,676 c 2.4,-4.3 -15.2,-5.8 -17.9,-1.4 -0.6,1 -0.8,2 -0.4,3.2 1.7,4.4 12.4,9 10.8,10.9 -1.6,1.9 -2.2,6.6 3.2,6.4 5.4,-0.2 4.4,-0.4 7.7,-0.9 3.3,-0.5 2.2,-9.6 -1.7,-10.1 -3.9,-0.6 -5.3,-5.8 -3.3,-6.4 0.5,-0.3 1.2,-0.9 1.6,-1.7 z"
   id="path408" />
	<path
   class="st19"
   d="m 1921.1,664.7 c 0,0 -0.4,2.4 1.8,2.5 2.2,0.1 13.2,1.5 10.7,-1.2 -2.5,-2.8 -6.6,-2.2 -12.5,-1.3 z"
   id="path410" />
</g>
<path
   class="st20"
   d="m 1946.9222,392.8045 v 293.7 c 0,10 -12.5,25.7 -27.9,25.7 h -10.6 c -15.4,0 -27.9,-15.7 -27.9,-25.7 v -293.7 c 0,-10 12.5,-25.4 27.9,-25.4 h 10.6 c 15.4,0 27.9,15.4 27.9,25.4 z m -52.6,293.7 c 0,5 6.3,9.2 14.1,9.2 h 10.6 c 7.8,0 14.1,-4.1 14.1,-9.2 v -293.7 c 0,-5 -6.3,-9.2 -14.1,-9.2 h -10.6 c -7.8,0 -14.1,4.1 -14.1,9.2 z"
   id="path414" />
<path
   class="st21"
   d="m 1934.0222,394.5045 v 289.6 c 0,7.6 -9.5,13.8 -21.2,13.8 -11.7,0 -21.2,-6.2 -21.2,-13.8 v -289.6 c 0,-7.6 9.5,-13.8 21.2,-13.8 11.7,0 21.2,6.2 21.2,13.8 z m -34.2,289.6 c 0,4.7 5.8,8.5 13,8.5 7.2,0 13,-3.8 13,-8.5 v -289.6 c 0,-4.7 -5.8,-8.5 -13,-8.5 -7.2,0 -13,3.8 -13,8.5 z"
   id="path416" />
<path
   class="st22"
   d="m 1946.9222,423.7045 v 295.7 c 0,10 -12.5,18.2 -27.9,18.2 h -10.6 c -15.4,0 -27.9,-8.2 -27.9,-18.2 v -295.7 c 0,-10 12.5,-18.2 27.9,-18.2 h 10.6 c 15.4,0 27.9,8.1 27.9,18.2 z m -52.6,295.7 c 0,5.1 6.3,9.2 14.1,9.2 h 10.6 c 7.8,0 14.1,-4.1 14.1,-9.2 v -295.7 c 0,-5.1 -6.3,-9.2 -14.1,-9.2 h -10.6 c -7.8,0 -14.1,4.1 -14.1,9.2 z"
   id="path418" />
<path
   class="st23"
   d="m 1925.9222,683.1045 v -287.5 c 0,-5.3 -4.3,-9.5 -9.5,-9.5 h -7.2 c -5.3,0 -9.5,4.3 -9.5,9.5 v 287.5 c 0,5.3 4.3,9.5 9.5,9.5 h 7.2 c 5.2,0 9.5,-4.3 9.5,-9.5 z"
   id="path420" />
<g
   id="g426"
   transform="translate(-9.4777998,-7.7954998)">
	<circle
   class="st24"
   cx="1895.6"
   cy="416.60001"
   r="4.1999998"
   id="circle422" />
	<polygon
   class="st25"
   points="1895.8,417.8 1898.3,418.5 1896.3,417.5 1894.8,416.1 1893.5,414.4 1894.3,416.4 "
   id="polygon424" />
</g>
<g
   id="g432"
   transform="translate(-9.4777998,-7.7954998)">
	<circle
   class="st24"
   cx="1951.5"
   cy="416.60001"
   r="4.1999998"
   id="circle428" />
	<polygon
   class="st25"
   points="1951.7,417.8 1954.1,418.5 1952.1,417.5 1950.7,416.1 1949.4,414.4 1950.2,416.4 "
   id="polygon430" />
</g>
<g
   id="g438"
   transform="translate(-9.4777998,-7.7954998)">
	<circle
   class="st24"
   cx="1895.6"
   cy="678"
   r="4.1999998"
   id="circle434" />
	<polygon
   class="st25"
   points="1895.8,679.2 1898.3,679.9 1896.3,678.9 1894.8,677.6 1893.5,675.8 1894.3,677.8 "
   id="polygon436" />
</g>
<g
   id="g444"
   transform="translate(-9.4777998,-7.7954998)">
	<circle
   class="st24"
   cx="1951.5"
   cy="678"
   r="4.1999998"
   id="circle440" />
	<polygon
   class="st25"
   points="1951.7,679.2 1954.1,679.9 1952.1,678.9 1950.7,677.6 1949.4,675.8 1950.2,677.8 "
   id="polygon442" />
</g>
<g
   id="g450"
   transform="translate(-9.4777998,-7.7954998)">
	<circle
   class="st24"
   cx="1895.6"
   cy="545.90002"
   r="4.1999998"
   id="circle446" />
	<polygon
   class="st25"
   points="1895.8,547.1 1898.3,547.8 1896.3,546.8 1894.8,545.4 1893.5,543.7 1894.3,545.7 "
   id="polygon448" />
</g>
<g
   id="g456"
   transform="translate(-9.4777998,-7.7954998)">
	<circle
   class="st24"
   cx="1951.5"
   cy="545.90002"
   r="4.1999998"
   id="circle452" />
	<polygon
   class="st25"
   points="1951.7,547.1 1954.1,547.8 1952.1,546.8 1950.7,545.4 1949.4,543.7 1950.2,545.7 "
   id="polygon454" />
</g>
<g
   id="g462"
   transform="translate(-9.4777998,-7.7954998)">
	<circle
   class="st24"
   cx="1922.8"
   cy="382.39999"
   r="4.1999998"
   id="circle458" />
	<polygon
   class="st25"
   points="1923,383.6 1925.5,384.4 1923.5,383.3 1922.1,382 1920.7,380.2 1921.5,382.2 "
   id="polygon460" />
</g>
<g
   id="g468"
   transform="translate(-9.4777998,-7.7954998)">
	<circle
   class="st24"
   cx="1922.8"
   cy="712.70001"
   r="4.1999998"
   id="circle464" />
	<polygon
   class="st25"
   points="1923,714 1925.5,714.7 1923.5,713.6 1922.1,712.3 1920.7,710.6 1921.5,712.6 "
   id="polygon466" />
</g>
<rect
   x="1905.1222"
   y="344.8045"
   class="st16"
   width="16.5"
   height="15"
   id="rect470" />
<path
   class="st16"
   d="m 1920.1222,343.9045 v 12.3 c 0,0.7 -0.6,1.3 -1.3,1.3 h -10.9 c -0.7,0 -1.3,-0.6 -1.3,-1.3 v -12.4 c 0,-0.7 0.6,-1.3 1.3,-1.3 h 10.9 c 0.7,0.1 1.3,0.6 1.3,1.4 z"
   id="path472" />
<rect
   x="1908.4222"
   y="338.3045"
   class="st16"
   width="10"
   height="15"
   id="rect474" />
<rect
   x="1899.2222"
   y="343.90451"
   class="st26"
   width="2.7"
   height="12.6"
   id="rect476" />
<rect
   x="1901.8223"
   y="349.3045"
   class="st26"
   width="3.3"
   height="1.7"
   id="rect478" />
<rect
   x="1901.8223"
   y="349.3045"
   class="st20"
   width="0.80000001"
   height="1.7"
   id="rect480" />
<g
   id="g502"
   transform="translate(-9.4777998,-7.7954998)">
	<g
   id="g490">
		<defs
   id="defs483">
			<path
   id="SVGID_1_"
   d="M 1936,690.9 V 403.4 c 0,-5.3 -4.3,-9.5 -9.5,-9.5 h -7.2 c -5.3,0 -9.5,4.3 -9.5,9.5 v 287.5 c 0,5.3 4.3,9.5 9.5,9.5 h 7.2 c 5.3,0 9.5,-4.3 9.5,-9.5 z" />
		</defs>
		<clipPath
   id="SVGID_00000013900294235466442160000007339919275083127218_">
			<use
   xlink:href="#SVGID_1_"
   style="overflow:visible"
   id="use485"
   x="0"
   y="0"
   width="100%"
   height="100%" />
		</clipPath>
		
			<polyline
   style="opacity:0.4;fill:#ffffff;enable-background:new"
   points="    1796.2,559.8 1996.6,617.6 1988.9,629 1788.5,571.2   "
   clip-path="url(#SVGID_00000013900294235466442160000007339919275083127218_)"
   id="polyline488" />
	</g>
	<g
   id="g500">
		<defs
   id="defs493">
			<path
   id="SVGID_00000145764424922820442050000004738247112734353794_"
   d="M 1936,690.9 V 403.4 c 0,-5.3 -4.3,-9.5 -9.5,-9.5 h -7.2 c -5.3,0 -9.5,4.3 -9.5,9.5 v 287.5 c 0,5.3 4.3,9.5 9.5,9.5 h 7.2 c 5.3,0 9.5,-4.3 9.5,-9.5 z" />
		</defs>
		<clipPath
   id="SVGID_00000083077356686410646760000013501568751944546215_">
			<use
   xlink:href="#SVGID_00000145764424922820442050000004738247112734353794_"
   style="overflow:visible"
   id="use495"
   x="0"
   y="0"
   width="100%"
   height="100%" />
		</clipPath>
		
			<polyline
   style="opacity:0.4;fill:#ffffff;enable-background:new"
   points="    1810.9,535.3 2011.4,593 1997.4,613.6 1797,555.9   "
   clip-path="url(#SVGID_00000083077356686410646760000013501568751944546215_)"
   id="polyline498" />
	</g>
</g>
<path
   class="st29"
   d="m 1913.3222,338.3045 c 0,0 0.2,-17.7 -17.6,-16.4 -21,1.6 -73.5,26.5 -79.6,0 -6.1,-26.5 5.4,-114.6 47.1,-116 41.7,-1.5 39.8,-0.1 45.6,0.7"
   id="path504" />
<g
   id="g510"
   transform="translate(-9.4777998,-7.7954998)">
	<polygon
   class="st14"
   points="1859.5,299.7 1886.1,299.7 1886.1,243.9 1876.1,243.9 "
   id="polygon506" />
	<polygon
   class="st14"
   points="1986.6,299.7 1959.9,299.7 1959.9,243.9 1969.9,243.9 "
   id="polygon508" />
</g>
<path
   class="st12"
   d="m 1935.3222,220.5045 v -6.9 c 0,-11.6 -8.7,-21.7 -20.3,-22.5 -12.7,-0.8 -23.2,9.2 -23.2,21.7 v 7.6 c 0,3.7 -2.3,7.2 -5.8,8.4 -10,3.5 -17.1,13 -17.1,24.2 v 39 h 89.3 v -39 c 0,-11.2 -7.1,-20.7 -17.1,-24.2 -3.6,-1.1 -5.8,-4.6 -5.8,-8.3 z"
   id="path512" />
<rect
   x="1907.0222"
   y="236.10449"
   class="st30"
   width="13.1"
   height="55.799999"
   id="rect514" />
<polygon
   class="st14"
   points="1929.6,299.7 1929.6,243.9 1946,299.7 "
   id="polygon516"
   transform="translate(-9.4777998,-7.7954998)" />
<circle
   class="st31"
   cx="1942.4222"
   cy="242.60449"
   r="6.4000001"
   id="circle518" />
<polygon
   class="st14"
   points="1950.2,247.3 1953.7,247.3 1955.5,250.4 1953.7,253.4 1950.2,253.4 1948.4,250.4 "
   id="polygon520"
   transform="translate(-9.4777998,-7.7954998)" />
<circle
   class="st31"
   cx="1942.4222"
   cy="277.00449"
   r="6.4000001"
   id="circle522" />
<polygon
   class="st14"
   points="1950.2,281.8 1953.7,281.8 1955.5,284.8 1953.7,287.9 1950.2,287.9 1948.4,284.8 "
   id="polygon524"
   transform="translate(-9.4777998,-7.7954998)" />
<path
   class="st31"
   d="m 1891.1222,242.6045 c 0,3.6 -2.9,6.4 -6.4,6.4 -3.6,0 -6.4,-2.9 -6.4,-6.4 0,-3.6 2.9,-6.4 6.4,-6.4 3.5,-0.1 6.4,2.8 6.4,6.4 z"
   id="path526" />
<polygon
   class="st14"
   points="1892.3,247.3 1895.9,247.3 1897.6,250.4 1895.9,253.4 1892.3,253.4 1890.6,250.4 "
   id="polygon528"
   transform="translate(-9.4777998,-7.7954998)" />
<path
   class="st31"
   d="m 1891.1222,277.0045 c 0,3.6 -2.9,6.4 -6.4,6.4 -3.6,0 -6.4,-2.9 -6.4,-6.4 0,-3.5 2.9,-6.4 6.4,-6.4 3.5,0 6.4,2.9 6.4,6.4 z"
   id="path530" />
<polygon
   class="st14"
   points="1892.3,281.8 1895.9,281.8 1897.6,284.8 1895.9,287.9 1892.3,287.9 1890.6,284.8 "
   id="polygon532"
   transform="translate(-9.4777998,-7.7954998)" />
<g
   id="g558"
   transform="translate(-9.4777998,-7.7954998)">
	<rect
   x="1678.5"
   y="384"
   class="st1"
   width="130.89999"
   height="3.4000001"
   id="rect534" />
	<rect
   x="1678.5"
   y="469.89999"
   class="st1"
   width="130.89999"
   height="3.4000001"
   id="rect536" />
	<rect
   x="1678.5"
   y="385.70001"
   class="st1"
   width="3.4000001"
   height="87.599998"
   id="rect538" />
	<rect
   x="1805.9"
   y="384"
   class="st1"
   width="3.4000001"
   height="89.300003"
   id="rect540" />
	<g
   id="g556">
		<rect
   x="1686.8"
   y="391.39999"
   class="st0"
   width="114.3"
   height="5.4000001"
   id="rect542" />
		<rect
   x="1686.8"
   y="402.89999"
   class="st0"
   width="114.3"
   height="5.4000001"
   id="rect544" />
		<rect
   x="1686.8"
   y="414.39999"
   class="st0"
   width="114.3"
   height="5.4000001"
   id="rect546" />
		<rect
   x="1686.8"
   y="425.89999"
   class="st0"
   width="114.3"
   height="5.4000001"
   id="rect548" />
		<rect
   x="1686.8"
   y="437.39999"
   class="st0"
   width="114.3"
   height="5.4000001"
   id="rect550" />
		<rect
   x="1686.8"
   y="448.89999"
   class="st0"
   width="114.3"
   height="5.4000001"
   id="rect552" />
		<rect
   x="1686.8"
   y="460.39999"
   class="st0"
   width="114.3"
   height="5.4000001"
   id="rect554" />
	</g>
</g>
<g
   id="g584"
   transform="translate(-9.4777998,-7.7954998)">
	<rect
   x="1678.5"
   y="571.5"
   class="st1"
   width="130.89999"
   height="3.4000001"
   id="rect560" />
	<rect
   x="1678.5"
   y="657.40002"
   class="st1"
   width="130.89999"
   height="3.4000001"
   id="rect562" />
	<rect
   x="1678.5"
   y="573.20001"
   class="st1"
   width="3.4000001"
   height="87.599998"
   id="rect564" />
	<rect
   x="1805.9"
   y="571.5"
   class="st1"
   width="3.4000001"
   height="89.300003"
   id="rect566" />
	<g
   id="g582">
		<rect
   x="1686.8"
   y="579"
   class="st0"
   width="114.3"
   height="5.4000001"
   id="rect568" />
		<rect
   x="1686.8"
   y="590.5"
   class="st0"
   width="114.3"
   height="5.4000001"
   id="rect570" />
		<rect
   x="1686.8"
   y="602"
   class="st0"
   width="114.3"
   height="5.4000001"
   id="rect572" />
		<rect
   x="1686.8"
   y="613.5"
   class="st0"
   width="114.3"
   height="5.4000001"
   id="rect574" />
		<rect
   x="1686.8"
   y="624.90002"
   class="st0"
   width="114.3"
   height="5.4000001"
   id="rect576" />
		<rect
   x="1686.8"
   y="636.40002"
   class="st0"
   width="114.3"
   height="5.4000001"
   id="rect578" />
		<rect
   x="1686.8"
   y="647.90002"
   class="st0"
   width="114.3"
   height="5.4000001"
   id="rect580" />
	</g>
</g>
<polyline
   class="st32"
   points="1749.8,731.4 1749.8,717.2 1729,706 1680.2,706 1680.2,690.6 1649.1,690.6 "
   id="polyline586"
   transform="translate(-9.4777998,-7.7954998)" />
<circle
   class="st1"
   cx="1740.3223"
   cy="724.8045"
   r="3.5999999"
   id="circle588" />
<circle
   class="st1"
   cx="1731.9222"
   cy="484.7045"
   r="3.5999999"
   id="circle590" />
<circle
   class="st1"
   cx="1777.9222"
   cy="514.3045"
   r="3.5999999"
   id="circle592" />
<polyline
   class="st32"
   points="1741.7,491.4 1741.7,554.1 1726.5,554.1 1726.5,526.5 1688.9,526.5 1680.3,535.1 1680.3,553   1649.1,553 "
   id="polyline594"
   transform="translate(-9.4777998,-7.7954998)" />
<polyline
   class="st32"
   points="1803.7,736.7 1803.7,699.5 1826.4,676.8 1826.4,551.6 1809.7,535 1809.7,516.5 1827.6,498.7   1827.6,364.5 1811.1,348 1733.7,348 1733.7,217.5 1700.2,185.8 "
   id="polyline596"
   transform="translate(-9.4777998,-7.7954998)" />
<rect
   x="1684.8223"
   y="177.3045"
   class="st33"
   width="12.6"
   height="2.9000001"
   id="rect598" />
<line
   class="st32"
   x1="1799.9222"
   y1="514.3045"
   x2="1777.9222"
   y2="514.3045"
   id="line600" />
<rect
   x="42.6222"
   y="723.00452"
   class="st16"
   width="94.099998"
   height="2.5"
   id="rect602" />
<rect
   x="42.6222"
   y="846.50452"
   class="st16"
   width="94.099998"
   height="2.5"
   id="rect604" />
<rect
   x="42.6222"
   y="723.00452"
   class="st16"
   width="2.5"
   height="126"
   id="rect606" />
<rect
   x="134.3222"
   y="723.00452"
   class="st16"
   width="2.5"
   height="126"
   id="rect608" />
<path
   class="st10"
   d="m 125.0222,786.0045 c 0,4 -3.3,7.3 -7.3,7.3 -4,0 -7.3,-3.3 -7.3,-7.3 0,-4 3.3,-7.3 7.3,-7.3 4.1,0 7.3,3.3 7.3,7.3 z"
   id="path610" />
<g
   id="g614"
   transform="translate(-9.4777998,-7.7954998)">
	<path
   class="st1"
   d="m 127.2,799 c -2.9,0 -5.2,-2.3 -5.2,-5.2 0,-2.9 2.3,-5.2 5.2,-5.2 2.9,0 5.2,2.3 5.2,5.2 0,2.9 -2.3,5.2 -5.2,5.2 z m 0,-9.6 c -2.5,0 -4.5,2 -4.5,4.5 0,2.5 2,4.5 4.5,4.5 2.5,0 4.4,-2 4.4,-4.5 0.1,-2.5 -1.9,-4.5 -4.4,-4.5 z"
   id="path612" />
</g>
<rect
   x="117.0222"
   y="783.40454"
   class="st1"
   width="1.4"
   height="5.3000002"
   id="rect616" />
<g
   id="g620"
   transform="translate(-9.4777998,-7.7954998)">
	<polygon
   class="st34"
   points="95.4,789.2 113.3,785 89.2,821.4 99.1,793.8 85,800.3 97.7,766.2 111,766.2 "
   id="polygon618" />
</g>
<g
   id="g634"
   transform="translate(-9.4777998,-7.7954998)">
	<g
   id="g626">
		<path
   class="st10"
   d="m 53.3,772.2 v 0 c 1.2,0 2.2,-1 2.2,-2.3 V 749 c 0,-1.2 -1,-2.3 -2.2,-2.3 v 0 c -1.2,0 -2.2,1 -2.2,2.3 v 21 c 0,1.2 1,2.2 2.2,2.2 z"
   id="path622" />
		<rect
   x="51.099998"
   y="758.90002"
   class="st1"
   width="4.5"
   height="1.2"
   id="rect624" />
	</g>
	<g
   id="g632">
		<path
   class="st10"
   d="m 53.3,840.8 v 0 c 1.2,0 2.2,-1 2.2,-2.3 v -20.9 c 0,-1.2 -1,-2.3 -2.2,-2.3 v 0 c -1.2,0 -2.2,1 -2.2,2.3 v 20.9 c 0,1.3 1,2.3 2.2,2.3 z"
   id="path628" />
		<rect
   x="51.099998"
   y="827.5"
   class="st1"
   width="4.5"
   height="1.2"
   id="rect630" />
	</g>
</g>
<path
   class="st16"
   d="m 1627.7222,240.5045 h -1324 v 0 c 0,-38.3 31.1,-69.4 69.4,-69.4 h 1185.2 c 38.3,0 69.4,31.1 69.4,69.4 z"
   id="path636" />
<g
   id="g642"
   transform="translate(-9.4777998,-7.7954998)">
	<circle
   class="st24"
   cx="350.89999"
   cy="201"
   r="5.9000001"
   id="circle638" />
	<polygon
   class="st25"
   points="349.2,201.2 348.2,204.6 349.6,201.9 351.4,199.9 353.9,198 351.1,199.1 "
   id="polygon640" />
</g>
<g
   id="g648"
   transform="translate(-9.4777998,-7.7954998)">
	<circle
   class="st24"
   cx="433.89999"
   cy="188.3"
   r="5.9000001"
   id="circle644" />
	<polygon
   class="st25"
   points="432.2,188.6 431.2,192 432.6,189.2 434.5,187.3 436.9,185.3 434.1,186.5 "
   id="polygon646" />
</g>
<g
   id="g654"
   transform="translate(-9.4777998,-7.7954998)">
	<circle
   class="st24"
   cx="587.79999"
   cy="188.3"
   r="5.9000001"
   id="circle650" />
	<polygon
   class="st25"
   points="586,188.6 585.1,192 586.5,189.2 588.3,187.3 590.8,185.3 588,186.5 "
   id="polygon652" />
</g>
<g
   id="g660"
   transform="translate(-9.4777998,-7.7954998)">
	<circle
   class="st24"
   cx="741.59998"
   cy="188.3"
   r="5.9000001"
   id="circle656" />
	<polygon
   class="st25"
   points="739.9,188.6 738.9,192 740.4,189.2 742.2,187.3 744.6,185.3 741.9,186.5 "
   id="polygon658" />
</g>
<g
   id="g666"
   transform="translate(-9.4777998,-7.7954998)">
	<circle
   class="st24"
   cx="895.5"
   cy="188.3"
   r="5.9000001"
   id="circle662" />
	<polygon
   class="st25"
   points="893.8,188.6 892.8,192 894.3,189.2 896.1,187.3 898.5,185.3 895.8,186.5 "
   id="polygon664" />
</g>
<g
   id="g672"
   transform="translate(-9.4777998,-7.7954998)">
	<circle
   class="st24"
   cx="1049.4"
   cy="188.3"
   r="5.9000001"
   id="circle668" />
	<polygon
   class="st25"
   points="1047.7,188.6 1046.7,192 1048.2,189.2 1050,187.3 1052.4,185.3 1049.6,186.5 "
   id="polygon670" />
</g>
<g
   id="g678"
   transform="translate(-9.4777998,-7.7954998)">
	<circle
   class="st24"
   cx="1203.3"
   cy="188.3"
   r="5.9000001"
   id="circle674" />
	<polygon
   class="st25"
   points="1201.6,188.6 1200.6,192 1202,189.2 1203.9,187.3 1206.3,185.3 1203.5,186.5 "
   id="polygon676" />
</g>
<g
   id="g684"
   transform="translate(-9.4777998,-7.7954998)">
	<circle
   class="st24"
   cx="1357.2"
   cy="188.3"
   r="5.9000001"
   id="circle680" />
	<polygon
   class="st25"
   points="1355.5,188.6 1354.5,192 1355.9,189.2 1357.7,187.3 1360.2,185.3 1357.4,186.5 "
   id="polygon682" />
</g>
<g
   id="g690"
   transform="translate(-9.4777998,-7.7954998)">
	<circle
   class="st24"
   cx="1511"
   cy="188.3"
   r="5.9000001"
   id="circle686" />
	<polygon
   class="st25"
   points="1509.3,188.6 1508.3,192 1509.8,189.2 1511.6,187.3 1514,185.3 1511.3,186.5 "
   id="polygon688" />
</g>
<g
   id="g696"
   transform="translate(-9.4777998,-7.7954998)">
	<circle
   class="st24"
   cx="1595.1"
   cy="201"
   r="5.9000001"
   id="circle692" />
	<polygon
   class="st25"
   points="1593.3,201.2 1592.3,204.6 1593.8,201.9 1595.6,199.9 1598.1,198 1595.3,199.1 "
   id="polygon694" />
</g>
<path
   class="st21"
   d="m 1558.5222,226.4045 h -1177.3 c -9.6,0 -17.5,-7.8 -17.5,-17.5 v 0 c 0,-9.6 7.8,-17.5 17.5,-17.5 h 1177.3 c 9.6,0 17.5,7.8 17.5,17.5 v 0 c -0.1,9.7 -7.9,17.5 -17.5,17.5 z"
   id="path698" />
<path
   class="st35"
   d="m 1562.2222,214.2045 h -1178.6 c -3.7,0 -6.6,-3 -6.6,-6.6 v 0 c 0,-3.7 3,-6.6 6.6,-6.6 h 1178.6 c 3.7,0 6.6,3 6.6,6.6 v 0 c 0,3.6 -2.9,6.6 -6.6,6.6 z"
   id="path700" />
<path
   class="st36"
   d="m 314.3222,150.3045 c 0,0 -13.4,-21.5 -11.7,-18.8 9.1,14.8 24.5,-51.6 49.7,-43.9 25.2,7.7 7.4,-49.4 34.9,-45.7 27.5,3.6 17.7,17.8 23.1,26.3"
   id="path702" />
<path
   class="st37"
   d="m 361.3222,59.5045 c 0,0 6.3,1.5 14.9,7.9 1.1,0.8 -2.9,12 -2.9,12 0,0 -11.8,-8.4 -15.2,-9.6 -3.4,-1.2 3.2,-10.3 3.2,-10.3"
   id="path704" />
<circle
   class="st38"
   cx="1723.0222"
   cy="243.0045"
   r="28.9"
   id="circle706" />
<circle
   class="st39"
   cx="1723.3223"
   cy="243.0045"
   r="28.9"
   id="circle708" />
<g
   id="g730"
   transform="translate(-9.4777998,-7.7954998)">
	<g
   id="g718">
		<defs
   id="defs711">
			
				<circle
   id="SVGID_00000029046170847829363280000007404376402569411748_"
   transform="matrix(0.2743,-0.9616,0.9616,0.2743,1011.7867,1848.131)"
   cx="1730.4"
   cy="253.7"
   r="26.9" />
		</defs>
		<clipPath
   id="SVGID_00000160904857703853844600000009515263152958047666_">
			<use
   xlink:href="#SVGID_00000029046170847829363280000007404376402569411748_"
   style="overflow:visible"
   id="use713"
   x="0"
   y="0"
   width="100%"
   height="100%" />
		</clipPath>
		
			<rect
   x="1685.6"
   y="238.8"
   transform="matrix(0.2743,-0.9616,0.9616,0.2743,1014.8519,1832.1603)"
   style="opacity:0.26;fill:#ffffff;enable-background:new"
   width="71.5"
   height="9.6999998"
   clip-path="url(#SVGID_00000160904857703853844600000009515263152958047666_)"
   id="rect716" />
	</g>
	<g
   id="g728">
		<defs
   id="defs721">
			
				<circle
   id="SVGID_00000102542856903687321530000017351004339079546286_"
   transform="matrix(0.2743,-0.9616,0.9616,0.2743,1014.6622,1847.4587)"
   cx="1731.4"
   cy="251.39999"
   r="26.9" />
		</defs>
		<clipPath
   id="SVGID_00000147189771491831032610000002393799562391296699_">
			<use
   xlink:href="#SVGID_00000102542856903687321530000017351004339079546286_"
   style="overflow:visible"
   id="use723"
   x="0"
   y="0"
   width="100%"
   height="100%" />
		</clipPath>
		
			<rect
   x="1694.1"
   y="243.5"
   transform="matrix(0.2743,-0.9616,0.9616,0.2743,1018.698,1842.0258)"
   style="opacity:0.26;fill:#ffffff;enable-background:new"
   width="71.5"
   height="5.1999998"
   clip-path="url(#SVGID_00000147189771491831032610000002393799562391296699_)"
   id="rect726" />
	</g>
</g>
<circle
   class="st42"
   cx="1723.0222"
   cy="302.90451"
   r="19.299999"
   id="circle732" />
<circle
   class="st43"
   cx="1723.0222"
   cy="302.90451"
   r="19.299999"
   id="circle734" />
<g
   id="g756"
   transform="translate(-9.4777998,-7.7954998)">
	<g
   id="g744">
		<defs
   id="defs737">
			
				<circle
   id="SVGID_00000129188517015993649710000017184347399088725158_"
   transform="matrix(0.2743,-0.9616,0.9616,0.2743,955.6152,1891.5991)"
   cx="1731.1"
   cy="312.60001"
   r="17.9" />
		</defs>
		<clipPath
   id="SVGID_00000023242859802272482720000016545310362836199604_">
			<use
   xlink:href="#SVGID_00000129188517015993649710000017184347399088725158_"
   style="overflow:visible"
   id="use739"
   x="0"
   y="0"
   width="100%"
   height="100%" />
		</clipPath>
		
			<rect
   x="1701.2"
   y="302.79999"
   transform="matrix(0.2743,-0.9616,0.9616,0.2743,957.5765,1880.9623)"
   style="opacity:0.26;fill:#ffffff;enable-background:new"
   width="47.799999"
   height="6.5"
   clip-path="url(#SVGID_00000023242859802272482720000016545310362836199604_)"
   id="rect742" />
	</g>
	<g
   id="g754">
		<defs
   id="defs747">
			
				<circle
   id="SVGID_00000078747372111969183320000015903389875212877477_"
   transform="matrix(0.2743,-0.9616,0.9616,0.2743,957.5363,1891.15)"
   cx="1731.8"
   cy="311.10001"
   r="17.9" />
		</defs>
		<clipPath
   id="SVGID_00000067228254538970234430000008103309940445544604_">
			<use
   xlink:href="#SVGID_00000078747372111969183320000015903389875212877477_"
   style="overflow:visible"
   id="use749"
   x="0"
   y="0"
   width="100%"
   height="100%" />
		</clipPath>
		
			<rect
   x="1706.8"
   y="305.79999"
   transform="matrix(0.2743,-0.9616,0.9616,0.2743,960.1302,1887.5007)"
   style="opacity:0.26;fill:#ffffff;enable-background:new"
   width="47.799999"
   height="3.5"
   clip-path="url(#SVGID_00000067228254538970234430000008103309940445544604_)"
   id="rect752" />
	</g>
</g>
<g
   id="g762"
   transform="translate(-9.4777998,-7.7954998)">
	<path
   class="st46"
   d="m 1751.5,213.6 c 0,3 -2.4,5.4 -5.4,5.4 -3,0 -5.4,-2.4 -5.4,-5.4 0,-3 2.4,-5.4 5.4,-5.4 3,0 5.4,2.4 5.4,5.4 z"
   id="path758" />
	<polygon
   class="st47"
   points="1744.6,211.1 1747.6,211.1 1749,213.6 1747.6,216.2 1744.6,216.2 1743.1,213.6 "
   id="polygon760" />
</g>
<g
   id="g768"
   transform="translate(-9.4777998,-7.7954998)">
	<path
   class="st46"
   d="m 1722.3,213.6 c 0,3 -2.4,5.4 -5.4,5.4 -3,0 -5.4,-2.4 -5.4,-5.4 0,-3 2.4,-5.4 5.4,-5.4 2.9,0 5.4,2.4 5.4,5.4 z"
   id="path764" />
	<polygon
   class="st47"
   points="1715.4,211.1 1718.4,211.1 1719.8,213.6 1718.4,216.2 1715.4,216.2 1713.9,213.6 "
   id="polygon766" />
</g>
<g
   id="g774"
   transform="translate(-9.4777998,-7.7954998)">
	<path
   class="st46"
   d="m 1763.9,287.4 c 0,3 -2.4,5.4 -5.4,5.4 -3,0 -5.4,-2.4 -5.4,-5.4 0,-3 2.4,-5.4 5.4,-5.4 3,0 5.4,2.5 5.4,5.4 z"
   id="path770" />
	<polygon
   class="st47"
   points="1757,284.9 1760,284.9 1761.5,287.4 1760,290 1757,290 1755.6,287.4 "
   id="polygon772" />
</g>
<g
   id="g780"
   transform="translate(-9.4777998,-7.7954998)">
	<path
   class="st46"
   d="m 1711,287.4 c 0,3 -2.4,5.4 -5.4,5.4 -3,0 -5.4,-2.4 -5.4,-5.4 0,-3 2.4,-5.4 5.4,-5.4 3,0 5.4,2.5 5.4,5.4 z"
   id="path776" />
	<polygon
   class="st47"
   points="1704.1,284.9 1707.1,284.9 1708.5,287.4 1707.1,290 1704.1,290 1702.7,287.4 "
   id="polygon778" />
</g>
<g
   id="g918"
   transform="translate(-9.4777998,-7.7954998)">
	<g
   id="g784">
		<path
   class="st1"
   d="m 202.3,495.7 c -30.9,0 -56,-25.1 -56,-56 0,-30.9 25.1,-56 56,-56 30.9,0 56,25.1 56,56 0,30.9 -25.1,56 -56,56 z"
   id="path782" />
	</g>
	<g
   id="g788">
		<polygon
   class="st1"
   points="265.1,437.9 265.1,437 253.8,432.5 253.8,437.9 253.8,441.4 253.8,446.8 265.1,442.3 265.1,441.4 "
   id="polygon786" />
	</g>
	<g
   id="g792">
		<polygon
   class="st1"
   points="262.7,422.3 262.5,421.4 250.4,419.9 251.8,425.1 252.6,428.5 254,433.7 263.8,426.6 263.6,425.7 "
   id="polygon790" />
	</g>
	<g
   id="g796">
		<polygon
   class="st1"
   points="256.5,407.8 256.1,407 244,408.6 246.6,413.2 248.3,416.4 250.9,421 258.6,411.7 258.2,410.9 "
   id="polygon794" />
	</g>
	<g
   id="g800">
		<polygon
   class="st1"
   points="246.9,395.3 246.3,394.7 235,399.2 238.6,403 241.1,405.6 244.7,409.5 249.9,398.5 249.3,397.9 "
   id="polygon798" />
	</g>
	<g
   id="g804">
		<polygon
   class="st1"
   points="234.4,385.6 233.7,385.1 223.9,392.3 228.4,395.1 231.4,397 235.9,399.9 238.2,388 237.4,387.5 "
   id="polygon802" />
	</g>
	<g
   id="g808">
		<polygon
   class="st1"
   points="220,379.3 219.2,379 211.4,388.4 216.5,390 219.9,391.1 225,392.8 224.2,380.7 223.4,380.4 "
   id="polygon806" />
	</g>
	<g
   id="g812">
		<polygon
   class="st1"
   points="204.4,376.8 203.6,376.7 198.4,387.7 203.7,388.1 207.3,388.3 212.6,388.6 208.8,377.1 208,377 "
   id="polygon810" />
	</g>
	<g
   id="g816">
		<polygon
   class="st1"
   points="188.7,378.2 187.9,378.4 185.6,390.3 190.8,389.3 194.3,388.7 199.6,387.7 193.1,377.4 192.2,377.5 "
   id="polygon814" />
	</g>
	<g
   id="g820">
		<polygon
   class="st1"
   points="173.9,383.5 173.1,383.9 173.9,396 178.7,393.7 181.9,392.2 186.7,389.9 177.9,381.6 177.1,382 "
   id="polygon818" />
	</g>
	<g
   id="g824">
		<polygon
   class="st1"
   points="160.8,392.3 160.1,392.9 163.9,404.4 168,401 170.7,398.8 174.9,395.4 164.2,389.5 163.5,390.1 "
   id="polygon822" />
	</g>
	<g
   id="g828">
		<polygon
   class="st1"
   points="150.3,404.1 149.8,404.8 156.3,415.1 159.5,410.8 161.6,407.9 164.7,403.6 152.9,400.5 152.4,401.3 "
   id="polygon826" />
	</g>
	<g
   id="g832">
		<polygon
   class="st1"
   points="143.1,418.1 142.8,419 151.7,427.3 153.6,422.3 155,419 156.9,414 144.8,414 144.4,414.8 "
   id="polygon830" />
	</g>
	<g
   id="g836">
		<polygon
   class="st1"
   points="139.6,433.5 139.5,434.4 150.2,440.2 150.9,434.9 151.3,431.4 152,426.1 140.2,429.1 140.1,430 "
   id="polygon834" />
	</g>
	<g
   id="g840">
		<polygon
   class="st1"
   points="140.1,449.3 140.2,450.2 152,453.2 151.3,447.9 150.9,444.3 150.2,439 139.5,444.9 139.6,445.8 "
   id="polygon838" />
	</g>
	<g
   id="g844">
		<polygon
   class="st1"
   points="144.4,464.4 144.8,465.3 156.9,465.3 155,460.3 153.6,457 151.7,452 142.8,460.3 143.1,461.1 "
   id="polygon842" />
	</g>
	<g
   id="g848">
		<polygon
   class="st1"
   points="152.4,478 152.9,478.7 164.7,475.7 161.6,471.4 159.5,468.5 156.3,464.2 149.8,474.5 150.3,475.2 "
   id="polygon846" />
	</g>
	<g
   id="g852">
		<polygon
   class="st1"
   points="163.5,489.2 164.2,489.8 174.9,483.9 170.7,480.5 168,478.3 163.9,474.8 160.1,486.4 160.8,487 "
   id="polygon850" />
	</g>
	<g
   id="g856">
		<polygon
   class="st1"
   points="177.1,497.3 177.9,497.7 186.7,489.3 181.9,487.1 178.7,485.6 173.9,483.3 173.1,495.4 173.9,495.8 "
   id="polygon854" />
	</g>
	<g
   id="g860">
		<polygon
   class="st1"
   points="192.2,501.7 193.1,501.9 199.6,491.6 194.3,490.6 190.8,490 185.6,489 187.9,500.9 188.7,501.1 "
   id="polygon858" />
	</g>
	<g
   id="g864">
		<polygon
   class="st1"
   points="208,502.3 208.8,502.2 212.6,490.7 207.3,491 203.7,491.2 198.4,491.6 203.6,502.6 204.4,502.5 "
   id="polygon862" />
	</g>
	<g
   id="g868">
		<polygon
   class="st1"
   points="223.4,498.9 224.2,498.6 225,486.5 219.9,488.1 216.5,489.2 211.4,490.9 219.2,500.3 220,500 "
   id="polygon866" />
	</g>
	<g
   id="g872">
		<polygon
   class="st1"
   points="237.4,491.8 238.2,491.3 235.9,479.4 231.4,482.2 228.4,484.1 223.9,487 233.7,494.2 234.4,493.7 "
   id="polygon870" />
	</g>
	<g
   id="g876">
		<polygon
   class="st1"
   points="249.3,481.4 249.9,480.8 244.7,469.8 241.1,473.7 238.6,476.2 235,480.1 246.3,484.6 246.9,484 "
   id="polygon874" />
	</g>
	<g
   id="g880">
		<polygon
   class="st1"
   points="258.2,468.4 258.6,467.6 250.9,458.3 248.3,462.9 246.6,466 244,470.7 256.1,472.3 256.5,471.5 "
   id="polygon878" />
	</g>
	<g
   id="g884">
		<polygon
   class="st1"
   points="263.6,453.6 263.8,452.7 254,445.6 252.6,450.8 251.8,454.2 250.4,459.4 262.5,457.8 262.7,457 "
   id="polygon882" />
	</g>
	<g
   id="g888">
		<path
   class="st0"
   d="m 202.3,481.3 c -23,0 -41.7,-18.7 -41.7,-41.7 0,-23 18.7,-41.7 41.7,-41.7 23,0 41.7,18.7 41.7,41.7 -0.1,23.1 -18.7,41.7 -41.7,41.7 z"
   id="path886" />
	</g>
	<g
   id="g892">
		<rect
   x="22.700001"
   y="338.20001"
   class="st48"
   width="89"
   height="203"
   id="rect890" />
	</g>
	<g
   id="g896">
		<rect
   x="33.299999"
   y="541.09998"
   class="st14"
   width="60"
   height="22.799999"
   id="rect894" />
	</g>
	<g
   id="g900">
		<rect
   x="122.2"
   y="462.89999"
   class="st14"
   width="24"
   height="18.4"
   id="rect898" />
	</g>
	<g
   id="g904">
		<rect
   x="122.2"
   y="398"
   class="st14"
   width="24"
   height="18.4"
   id="rect902" />
	</g>
	<g
   id="g908">
		<rect
   x="23.6"
   y="315.39999"
   class="st14"
   width="69.800003"
   height="22.799999"
   id="rect906" />
	</g>
	<g
   id="g912">
		<path
   class="st12"
   d="m 225.5,439.6 c 0,-12.9 -10.4,-23.3 -23.3,-23.3 h -90.6 v 46.6 h 90.6 c 12.9,0 23.3,-10.4 23.3,-23.3 z"
   id="path910" />
	</g>
	<g
   id="g916">
		<path
   class="st1"
   d="m 202.3,451.4 c -6.5,0 -11.8,-5.3 -11.8,-11.8 0,-6.5 5.3,-11.8 11.8,-11.8 6.5,0 11.8,5.3 11.8,11.8 -0.1,6.6 -5.3,11.8 -11.8,11.8 z"
   id="path914" />
	</g>
</g>
<path
   class="st49"
   d="M 4.5222002,199.2045 H 240.6222 v -23 c 0,-1.2 -3.7,-2.1 -8.4,-2.1 h -219.3 c -4.5999998,0 -8.3999998,1 -8.3999998,2.1 z"
   id="path920" />
<path
   class="st1"
   d="m 180.9222,176.0045 c 0,0.5 0.4,1 1,1 0.5,0 1,-0.4 1,-1 0,-0.5 -0.4,-1 -1,-1 -0.5,0 -1,0.5 -1,1 z"
   id="path922" />
<path
   class="st1"
   d="m 209.3222,176.0045 c 0,0.5 0.4,1 1,1 0.5,0 1,-0.4 1,-1 0,-0.5 -0.4,-1 -1,-1 -0.6,0 -1,0.5 -1,1 z"
   id="path924" />
<circle
   class="st1"
   cx="237.62221"
   cy="176.0045"
   r="1"
   id="circle926" />
<path
   class="st1"
   d="m 96.9222,176.0045 c 0,0.5 0.4,1 1,1 0.5,0 1,-0.4 1,-1 0,-0.5 -0.4,-1 -1,-1 -0.5,0 -1,0.5 -1,1 z"
   id="path928" />
<path
   class="st1"
   d="m 125.3222,176.0045 c 0,0.5 0.4,1 1,1 0.5,0 1,-0.4 1,-1 0,-0.5 -0.4,-1 -1,-1 -0.6,0 -1,0.5 -1,1 z"
   id="path930" />
<circle
   class="st1"
   cx="153.62221"
   cy="176.0045"
   r="1"
   id="circle932" />
<path
   class="st1"
   d="m 8.9222002,176.0045 c 0,0.5 0.4,1 1,1 0.4999998,0 0.9999998,-0.4 0.9999998,-1 0,-0.5 -0.4,-1 -0.9999998,-1 -0.5,0 -1,0.5 -1,1 z"
   id="path934" />
<path
   class="st1"
   d="m 37.3222,176.0045 c 0,0.5 0.4,1 1,1 0.5,0 1,-0.4 1,-1 0,-0.5 -0.4,-1 -1,-1 -0.6,0 -1,0.5 -1,1 z"
   id="path936" />
<circle
   class="st1"
   cx="65.6222"
   cy="176.0045"
   r="1"
   id="circle938" />
<rect
   x="0.22220001"
   y="195.8045"
   class="st11"
   width="244.60001"
   height="3.4000001"
   id="rect940" />
<g
   id="g948"
   transform="translate(-9.4777998,-7.7954998)">
	<rect
   x="237.60001"
   y="190.39999"
   class="st11"
   width="3.5"
   height="13.2"
   id="rect942" />
	<rect
   x="218"
   y="190.39999"
   class="st11"
   width="3.5"
   height="13.2"
   id="rect944" />
	<rect
   x="198.5"
   y="190.39999"
   class="st11"
   width="3.5"
   height="13.2"
   id="rect946" />
</g>
<polygon
   class="st14"
   points="237.6,203.6 237.6,190.4 234.1,203.6 "
   id="polygon950"
   transform="translate(-9.4777998,-7.7954998)" />
<polygon
   class="st14"
   points="218,203.6 218,190.4 214.5,203.6 "
   id="polygon952"
   transform="translate(-9.4777998,-7.7954998)" />
<polygon
   class="st14"
   points="198.5,203.6 198.5,190.4 195,203.6 "
   id="polygon954"
   transform="translate(-9.4777998,-7.7954998)" />
<g
   id="g962"
   transform="translate(-9.4777998,-7.7954998)">
	<rect
   x="177.89999"
   y="190.39999"
   class="st11"
   width="3.5"
   height="13.2"
   id="rect956" />
	<rect
   x="158.3"
   y="190.39999"
   class="st11"
   width="3.5"
   height="13.2"
   id="rect958" />
	<rect
   x="138.8"
   y="190.39999"
   class="st11"
   width="3.5"
   height="13.2"
   id="rect960" />
</g>
<polygon
   class="st14"
   points="177.9,203.6 177.9,190.4 174.4,203.6 "
   id="polygon964"
   transform="translate(-9.4777998,-7.7954998)" />
<polygon
   class="st14"
   points="158.3,203.6 158.3,190.4 154.9,203.6 "
   id="polygon966"
   transform="translate(-9.4777998,-7.7954998)" />
<polygon
   class="st14"
   points="138.8,203.6 138.8,190.4 135.3,203.6 "
   id="polygon968"
   transform="translate(-9.4777998,-7.7954998)" />
<g
   id="g976"
   transform="translate(-9.4777998,-7.7954998)">
	<rect
   x="117"
   y="190.39999"
   class="st11"
   width="3.5"
   height="13.2"
   id="rect970" />
	<rect
   x="97.400002"
   y="190.39999"
   class="st11"
   width="3.5"
   height="13.2"
   id="rect972" />
	<rect
   x="77.900002"
   y="190.39999"
   class="st11"
   width="3.5"
   height="13.2"
   id="rect974" />
</g>
<polygon
   class="st14"
   points="117,203.6 117,190.4 113.5,203.6 "
   id="polygon978"
   transform="translate(-9.4777998,-7.7954998)" />
<polygon
   class="st14"
   points="97.4,203.6 97.4,190.4 93.9,203.6 "
   id="polygon980"
   transform="translate(-9.4777998,-7.7954998)" />
<polygon
   class="st14"
   points="77.9,203.6 77.9,190.4 74.4,203.6 "
   id="polygon982"
   transform="translate(-9.4777998,-7.7954998)" />
<g
   id="g990"
   transform="translate(-9.4777998,-7.7954998)">
	<rect
   x="60.400002"
   y="190.39999"
   class="st11"
   width="3.5"
   height="13.2"
   id="rect984" />
	<rect
   x="40.799999"
   y="190.39999"
   class="st11"
   width="3.5"
   height="13.2"
   id="rect986" />
	<rect
   x="21.200001"
   y="190.39999"
   class="st11"
   width="3.5"
   height="13.2"
   id="rect988" />
</g>
<polygon
   class="st14"
   points="60.4,203.6 60.4,190.4 56.9,203.6 "
   id="polygon992"
   transform="translate(-9.4777998,-7.7954998)" />
<polygon
   class="st14"
   points="40.8,203.6 40.8,190.4 37.3,203.6 "
   id="polygon994"
   transform="translate(-9.4777998,-7.7954998)" />
<polygon
   class="st14"
   points="21.2,203.6 21.2,190.4 17.7,203.6 "
   id="polygon996"
   transform="translate(-9.4777998,-7.7954998)" />
<polygon
   class="st14"
   points="18.5,203.6 22.8,203.6 22.8,190.4 21.3,190.4 "
   id="polygon998"
   transform="translate(-9.4777998,-7.7954998)" />
<polygon
   class="st14"
   points="254.4,203.6 250.1,203.6 250.1,190.4 251.6,190.4 "
   id="polygon1000"
   transform="translate(-9.4777998,-7.7954998)" />
<polyline
   class="st32"
   points="46.5,302.2 143.1,302.2 143.1,329.8 166.1,352.9 "
   id="polyline1002"
   transform="translate(-9.4777998,-7.7954998)" />
<circle
   class="st1"
   cx="35.222202"
   cy="294.40451"
   r="3.5999999"
   id="circle1004" />
<circle
   class="st1"
   cx="158.0222"
   cy="346.10449"
   r="3.5999999"
   id="circle1006" />
<circle
   class="st1"
   cx="123.62221"
   cy="578.50452"
   r="3.5999999"
   id="circle1008" />
<circle
   class="st1"
   cx="140.12221"
   cy="549.90454"
   r="3.5999999"
   id="circle1010" />
<polygon
   class="st50"
   points="100.4,350.6 42.5,350.6 44,348.5 98.9,348.5 "
   id="polygon1012"
   transform="translate(-9.4777998,-7.7954998)" />
<polygon
   class="st50"
   points="100.4,353.8 42.5,353.8 44,351.8 98.9,351.8 "
   id="polygon1014"
   transform="translate(-9.4777998,-7.7954998)" />
<polygon
   class="st50"
   points="100.4,357.2 42.5,357.2 44,355.1 98.9,355.1 "
   id="polygon1016"
   transform="translate(-9.4777998,-7.7954998)" />
<polygon
   class="st50"
   points="100.4,360.6 42.5,360.6 44,358.5 98.9,358.5 "
   id="polygon1018"
   transform="translate(-9.4777998,-7.7954998)" />
<polygon
   class="st50"
   points="100.4,363.8 42.5,363.8 44,361.7 98.9,361.7 "
   id="polygon1020"
   transform="translate(-9.4777998,-7.7954998)" />
<polygon
   class="st50"
   points="100.4,367.2 42.5,367.2 44,365.1 98.9,365.1 "
   id="polygon1022"
   transform="translate(-9.4777998,-7.7954998)" />
<polygon
   class="st50"
   points="100.4,514.4 42.5,514.4 44,512.3 98.9,512.3 "
   id="polygon1024"
   transform="translate(-9.4777998,-7.7954998)" />
<polygon
   class="st50"
   points="100.4,517.6 42.5,517.6 44,515.5 98.9,515.5 "
   id="polygon1026"
   transform="translate(-9.4777998,-7.7954998)" />
<polygon
   class="st50"
   points="100.4,521 42.5,521 44,518.9 98.9,518.9 "
   id="polygon1028"
   transform="translate(-9.4777998,-7.7954998)" />
<polygon
   class="st50"
   points="100.4,524.2 42.5,524.2 44,522.1 98.9,522.1 "
   id="polygon1030"
   transform="translate(-9.4777998,-7.7954998)" />
<polygon
   class="st50"
   points="100.4,527.4 42.5,527.4 44,525.3 98.9,525.3 "
   id="polygon1032"
   transform="translate(-9.4777998,-7.7954998)" />
<polygon
   class="st50"
   points="100.4,530.8 42.5,530.8 44,528.7 98.9,528.7 "
   id="polygon1034"
   transform="translate(-9.4777998,-7.7954998)" />
<rect
   x="44.322201"
   y="369.2045"
   class="st1"
   width="35.299999"
   height="35.299999"
   id="rect1036" />
<rect
   x="47.6222"
   y="372.60449"
   class="st51"
   width="28.6"
   height="28.6"
   id="rect1038" />
<polygon
   class="st1"
   points="72.4,411 74.8,389.3 68.1,410.1 "
   id="polygon1040"
   transform="translate(-9.4777998,-7.7954998)" />
<rect
   x="44.322201"
   y="413.60449"
   class="st1"
   width="35.299999"
   height="35.299999"
   id="rect1042" />
<rect
   x="47.6222"
   y="416.90451"
   class="st51"
   width="28.6"
   height="28.6"
   id="rect1044" />
<polygon
   class="st1"
   points="69.8,456.7 85.3,441.3 67,453.3 "
   id="polygon1046"
   transform="translate(-9.4777998,-7.7954998)" />
<rect
   x="44.322201"
   y="456.90451"
   class="st1"
   width="35.299999"
   height="35.299999"
   id="rect1048" />
<rect
   x="47.6222"
   y="460.2045"
   class="st51"
   width="28.6"
   height="28.6"
   id="rect1050" />
<polygon
   class="st1"
   points="74.8,497.6 66.1,477.6 70.6,498.9 "
   id="polygon1052"
   transform="translate(-9.4777998,-7.7954998)" />
<rect
   x="1964.6222"
   y="307.90451"
   class="st52"
   width="8.3000002"
   height="556.5"
   id="rect1054" />
<polyline
   class="st0"
   points="162.4,587.3 162.4,630.8 172.3,630.8 172.3,587.3 "
   id="polyline1056"
   transform="translate(-9.4777998,-7.7954998)" />
<g
   id="g1074"
   transform="translate(-9.4777998,-7.7954998)">
	<polygon
   class="st1"
   points="172.3,593.6 162.4,591.4 162.4,593.6 172.3,595.8 "
   id="polygon1058" />
	<polygon
   class="st1"
   points="172.3,598 162.4,595.8 162.4,598 172.3,600.2 "
   id="polygon1060" />
	<polygon
   class="st1"
   points="172.3,602.4 162.4,600.2 162.4,602.4 172.3,604.6 "
   id="polygon1062" />
	<polygon
   class="st1"
   points="172.3,606.8 162.4,604.6 162.4,606.8 172.3,609 "
   id="polygon1064" />
	<polygon
   class="st1"
   points="172.3,611.2 162.4,609 162.4,611.2 172.3,613.4 "
   id="polygon1066" />
	<polygon
   class="st1"
   points="172.3,615.6 162.4,613.4 162.4,615.6 172.3,617.8 "
   id="polygon1068" />
	<polygon
   class="st1"
   points="172.3,620 162.4,617.8 162.4,620 172.3,622.2 "
   id="polygon1070" />
	<polygon
   class="st1"
   points="172.3,624.4 162.4,622.2 162.4,624.4 172.3,626.6 "
   id="polygon1072" />
</g>
<polyline
   class="st2"
   points="158.4,609.2 176.2,609.2 176.2,601.9 158.4,601.9 "
   id="polyline1076"
   transform="translate(-9.4777998,-7.7954998)" />
<rect
   x="162.9222"
   y="594.10455"
   class="st3"
   width="3.8"
   height="7.3000002"
   id="rect1078" />
<polyline
   class="st3"
   points="158.4,609.2 162.3,609.2 162.3,601.9 158.4,601.9 "
   id="polyline1080"
   transform="translate(-9.4777998,-7.7954998)" />
<polyline
   class="st53"
   points="201.4,713.9 23.4,713.9 23.4,691.4 201.4,691.4 "
   id="polyline1082"
   transform="translate(-9.4777998,-7.7954998)" />
<polyline
   class="st0"
   points="172.3,757.4 172.3,713.9 162.4,713.9 162.4,757.4 "
   id="polyline1084"
   transform="translate(-9.4777998,-7.7954998)" />
<g
   id="g1102"
   transform="translate(-9.4777998,-7.7954998)">
	<polygon
   class="st1"
   points="172.3,720.2 162.4,718 162.4,720.2 172.3,722.4 "
   id="polygon1086" />
	<polygon
   class="st1"
   points="172.3,724.6 162.4,722.4 162.4,724.6 172.3,726.8 "
   id="polygon1088" />
	<polygon
   class="st1"
   points="172.3,729 162.4,726.8 162.4,729 172.3,731.2 "
   id="polygon1090" />
	<polygon
   class="st1"
   points="172.3,733.4 162.4,731.2 162.4,733.4 172.3,735.6 "
   id="polygon1092" />
	<polygon
   class="st1"
   points="172.3,737.8 162.4,735.6 162.4,737.8 172.3,740 "
   id="polygon1094" />
	<polygon
   class="st1"
   points="172.3,742.2 162.4,740 162.4,742.2 172.3,744.4 "
   id="polygon1096" />
	<polygon
   class="st1"
   points="172.3,746.6 162.4,744.4 162.4,746.6 172.3,748.8 "
   id="polygon1098" />
	<polygon
   class="st1"
   points="172.3,751 162.4,748.8 162.4,751 172.3,753.2 "
   id="polygon1100" />
</g>
<polyline
   class="st14"
   points="157.8,719.4 176.8,719.4 176.8,713.9 157.8,713.9 "
   id="polyline1104"
   transform="translate(-9.4777998,-7.7954998)" />
<polyline
   class="st14"
   points="157.8,761.2 176.8,761.2 176.8,755.7 157.8,755.7 "
   id="polyline1106"
   transform="translate(-9.4777998,-7.7954998)" />
<path
   class="st54"
   d="m 148.1222,601.4045 h 19.4 c 1.8,0 3.3,1.5 3.3,3.3 v 78.9 h -26.1"
   id="path1108" />
<polyline
   class="st14"
   points="154.3,686.5 180.4,686.5 180.4,691.4 154.3,691.4 "
   id="polyline1110"
   transform="translate(-9.4777998,-7.7954998)" />
<rect
   x="191.12221"
   y="683.20453"
   class="st33"
   width="0.89999998"
   height="22.9"
   id="rect1112" />
<g
   id="g1124"
   transform="translate(-9.4777998,-7.7954998)">
	<g
   id="g1118">
		<g
   id="g1116">
			<polygon
   class="st55"
   points="98.7,702.1 109.1,698.1 110,696.7 93.5,687.5 80.2,689.4 77,694.8 77.2,695.5 88.2,704.6 "
   id="polygon1114" />
		</g>
	</g>
	<polygon
   class="st56"
   points="77,695.3 80.4,689.3 93.6,688.8 88.2,704.6 "
   id="polygon1120" />
	<polyline
   class="st57"
   points="88.2,704.6 96.3,699 105,694.9 109.1,698.1 98.7,702.1  "
   id="polyline1122" />
</g>
<g
   id="g1136"
   transform="translate(-9.4777998,-7.7954998)">
	<g
   id="g1130">
		<g
   id="g1128">
			<polygon
   class="st55"
   points="137.1,649.7 131.8,641.2 130.5,640.7 125,656.8 128.9,668.3 134.3,670.2 134.8,669.9 141.1,658.6 "
   id="polygon1126" />
		</g>
	</g>
	<polygon
   class="st57"
   points="134.7,670.1 127.5,672.2 126.2,656.5 141.1,658.6 "
   id="polygon1132" />
	<polyline
   class="st56"
   points="141.1,658.6 134.8,652.4 129.7,645.3 131.8,641.2 137.1,649.7  "
   id="polyline1134" />
</g>
<g
   id="g1142"
   transform="translate(-9.4777998,-7.7954998)">
	<g
   id="g1140">
		<polygon
   class="st55"
   points="49.5,664.2 53.6,674.6 54.9,675.4 64.2,659 62.3,645.6 56.8,642.5 56.2,642.7 47,653.7 "
   id="polygon1138" />
	</g>
</g>
<path
   class="st58"
   d="m 125.0222,611.3045 2,10.5 -1.1,4.7 -2,5.7 v 2.2 l -2.5,1.7 -0.9,1.5 v 2.3 l 0.4,2.2 -1,2 -0.1,2.1 0.6,2.4 -0.6,2.2 c 0,0 0.5,0.7 1,1 0.5,0.3 0.5,0.6 0.5,0.6 0,0 -0.6,1.4 -0.6,1.7 -0.1,0.3 -1,1.2 -1,1.2 l 2.4,4.2 2.6,8.1 -1.3,7.2 0.5,11.1 -4,6.5 -7,-6.3 -13.7,-29.1 20.6,-43.3 z"
   id="path1144" />
<polygon
   class="st59"
   points="66.8,624.9 81.3,631.5 92.5,631.2 101,624.4 109.2,625.5 129.4,625.2 134.5,619.1 105.1,616.9 94.6,618.3 77.5,619.4 61.2,619.3 54.6,624.8 "
   id="polygon1146"
   transform="translate(-9.4777998,-7.7954998)" />
<polygon
   class="st56"
   points="56.4,642.5 62.3,645.9 62.8,659 47,653.7 "
   id="polygon1148"
   transform="translate(-9.4777998,-7.7954998)" />
<polygon
   class="st1"
   points="67,699.2 80.4,700.2 85.3,694.1 97.5,695.3 101.7,701.6 110.6,700.9 119.8,700 125.9,701.1 129.4,700.1 129.5,692.9 128.6,681.6 127.3,679.1 126.9,669.3 128,667 122.9,660.4 125.1,640.2 128.9,634.8 129.8,627.9 129.4,625.2 123.6,625.2 109.2,625.5 101,624.4 92.5,631.2 81.3,631.5 66.8,624.9 54.6,624.8 52.5,635 53.8,641.8 57,644.6 60.7,659.4 58,668.9 51.7,676.7 53.1,685.9 53,696.7 53.4,699 55.6,700.1 "
   id="polygon1150"
   transform="translate(-9.4777998,-7.7954998)" />
<polyline
   class="st57"
   points="47,653.7 52.6,661.7 56.7,670.5 53.6,674.6 49.5,664.2 "
   id="polyline1152"
   transform="translate(-9.4777998,-7.7954998)" />
<g
   id="g1172"
   transform="translate(-9.4777998,-7.7954998)">
	<g
   id="g1170">
		<g
   id="g1156">
			<path
   class="st55"
   d="m 96,649.9 c -0.2,-1.2 -0.7,-11.5 -0.7,-11.5 l -2.7,-7.3 -1.1,-2.5 0.7,-4 c 0,0 -1.1,-2.6 -1.1,-2.8 0,-0.2 2.6,-3.6 2.6,-3.6 l -6.1,0.4 -2.9,2.3 v 1.6 l -1.9,2.7 c 0,0 0.3,1.7 0.3,1.8 0,0.1 -0.6,3.9 -0.6,3.9 l -0.5,0.5 9.4,7.8 2,10.9 -4.3,3.4 -0.1,4.2 -6.7,9.4 9.6,-7.2 -0.8,-4.7 2.6,-3 3.5,9.1 v 9.6 c 0.1,-1.1 1.9,-8.8 2.2,-9.3 0.1,-0.3 -3.3,-10.5 -3.4,-11.7 z"
   id="path1154" />
		</g>
		<defs
   id="defs1161">
			<filter
   id="Adobe_OpacityMaskFilter"
   filterUnits="userSpaceOnUse"
   x="82"
   y="618.20001"
   width="17.4"
   height="52.700001">
				<feColorMatrix
   type="matrix"
   values="1 0 0 0 0  0 1 0 0 0  0 0 1 0 0  0 0 0 1 0"
   id="feColorMatrix1158" />
			</filter>
		</defs>
		
			<mask
   maskUnits="userSpaceOnUse"
   x="82"
   y="618.2"
   width="17.4"
   height="52.7"
   id="SVGID_00000117645512281132989650000002989001110171081645_">
			<g
   class="st60"
   id="g1163">
			</g>
		</mask>
		<g
   class="st61"
   mask="url(#SVGID_00000117645512281132989650000002989001110171081645_)"
   id="g1168">
			<path
   class="st62"
   d="m 96,649.9 c -0.2,-1.2 -0.7,-11.5 -0.7,-11.5 l -2.7,-7.3 -1.1,-2.5 0.7,-4 c 0,0 -1.1,-2.6 -1.1,-2.8 0,-0.2 2.6,-3.6 2.6,-3.6 l -6.1,0.4 -2.9,2.3 v 1.6 l -1.9,2.7 c 0,0 0.3,1.7 0.3,1.8 0,0.1 -0.6,3.9 -0.6,3.9 l -0.5,0.5 9.4,7.8 2,10.9 -4.3,3.4 -0.1,4.2 -6.7,9.4 9.6,-7.2 -0.8,-4.7 2.6,-3 3.5,9.1 v 9.6 c 0.1,-1.1 1.9,-8.8 2.2,-9.3 0.1,-0.3 -3.3,-10.5 -3.4,-11.7 z"
   id="path1166" />
		</g>
	</g>
</g>
<polygon
   class="st63"
   points="93.3,650.3 89,653.7 92.9,649.9 91,639.6 81.8,631.6 91.4,639.2 "
   id="polygon1174"
   transform="translate(-9.4777998,-7.7954998)" />
<polygon
   class="st63"
   points="96.9,670.6 97.1,661.5 97.1,671 "
   id="polygon1176"
   transform="translate(-9.4777998,-7.7954998)" />
<polygon
   class="st63"
   points="61.2,659.2 58.5,669.1 51.6,676.8 57.7,668.6 60.3,659.2 57,644.6 53.8,641.8 57.5,644.1 "
   id="polygon1178"
   transform="translate(-9.4777998,-7.7954998)" />
<path
   class="st63"
   d="m 119.5222,642.9045 c 0,-0.1 1.4,-0.9 1.4,-0.9 l -1,2 z"
   id="path1180" />
<polyline
   class="st63"
   points="129.8,656.3 129.8,656.4 128.9,657.7 129.2,658.5 "
   id="polyline1182"
   transform="translate(-9.4777998,-7.7954998)" />
<polygon
   class="st63"
   points="134.2,675.3 131.2,667.3 129.1,663 131.6,667.2 "
   id="polygon1184"
   transform="translate(-9.4777998,-7.7954998)" />
<polygon
   class="st63"
   points="97.5,694.5 101.7,701.6 97.3,695.3 85.3,694.1 80.4,700.2 85.2,693.2 "
   id="polygon1186"
   transform="translate(-9.4777998,-7.7954998)" />
<polygon
   class="st64"
   points="92.1,624.7 91.5,621.9 93.6,618.3 91.1,621.9 "
   id="polygon1188"
   transform="translate(-9.4777998,-7.7954998)" />
<polygon
   class="st65"
   points="91.7,681.7 91.2,689.5 90.1,682.6 70.6,677.1 66.4,667.4 71.6,675.1 "
   id="polygon1190"
   transform="translate(-9.4777998,-7.7954998)" />
<polygon
   class="st66"
   points="70.6,677.1 90.1,682.6 91.2,689.5 85.2,693.2 80.4,700.2 67,699.2 55.6,700.1 53.4,699 52.9,696.2 53.1,685.4 66.4,667.4 "
   id="polygon1192"
   transform="translate(-9.4777998,-7.7954998)" />
<polygon
   class="st65"
   points="122.9,660.4 111.1,641.8 108.5,633.9 110,641.5 "
   id="polygon1194"
   transform="translate(-9.4777998,-7.7954998)" />
<polygon
   class="st66"
   points="122.9,660.4 111.1,641.8 108.5,633.9 125.1,640.2 "
   id="polygon1196"
   transform="translate(-9.4777998,-7.7954998)" />
<path
   class="st65"
   d="m 62.2222,597.5045 c 0,-1.7 -0.1,-7.4 0,-13.8 -10.9,-1.3 -29,-2 -47.2,-1.8 -5,0.1 -8.9999998,-3.9 -9.1999998,-8.8 l -0.6,-21.5 c -0.1,-5.3 4,-9.6 9.2999998,-9.7 6.9,-0.1 16.8,0 27.1,0.3 37.7,1.3 48.9,6 55.7,13.6 4.5,5.1 6.5,11.8 5.5,18.4 -0.7,4.5 -0.8,15.8 -0.7,22.4 z"
   id="path1198" />
<polygon
   class="st67"
   points="131.2,601.9 50.5,601.9 40.9,633.7 145.1,633.7 "
   id="polygon1200"
   transform="translate(-9.4777998,-7.7954998)" />
<rect
   x="62.1222"
   y="592.10455"
   class="st68"
   width="40"
   height="2"
   id="rect1202" />
<g
   id="g1264"
   transform="translate(-9.4777998,-7.7954998)">
	<g
   id="g1212">
		<defs
   id="defs1205">
			<path
   id="SVGID_00000067231925238765522020000001516958123585881474_"
   d="m 71.7,605.3 c 0,-1.7 -0.1,-7.4 0,-13.8 C 59,590 36.6,589.2 15.5,589.8 l -1.1,-40 c 0.7,0 18.1,-0.5 36.7,0.2 37.7,1.3 48.9,6 55.7,13.6 4.5,5.1 6.5,11.8 5.5,18.4 -0.7,4.5 -0.8,15.8 -0.7,22.4 z" />
		</defs>
		<clipPath
   id="SVGID_00000004536093702753339640000007812404758233975692_">
			<use
   xlink:href="#SVGID_00000067231925238765522020000001516958123585881474_"
   style="overflow:visible"
   id="use1207"
   x="0"
   y="0"
   width="100%"
   height="100%" />
		</clipPath>
		<polygon
   style="fill:#cecece"
   points="111.1,593.2 71.2,593.9 71.1,597.2 111.2,596.9 "
   clip-path="url(#SVGID_00000004536093702753339640000007812404758233975692_)"
   id="polygon1210" />
	</g>
	<g
   id="g1222">
		<defs
   id="defs1215">
			<path
   id="SVGID_00000109008772600731982410000013487889977595685010_"
   d="m 71.7,605.3 c 0,-1.7 -0.1,-7.4 0,-13.8 C 59,590 36.6,589.2 15.5,589.8 l -1.1,-40 c 0.7,0 18.1,-0.5 36.7,0.2 37.7,1.3 48.9,6 55.7,13.6 4.5,5.1 6.5,11.8 5.5,18.4 -0.7,4.5 -0.8,15.8 -0.7,22.4 z" />
		</defs>
		<clipPath
   id="SVGID_00000033356575997293890000000001760663362529321132_">
			<use
   xlink:href="#SVGID_00000109008772600731982410000013487889977595685010_"
   style="overflow:visible"
   id="use1217"
   x="0"
   y="0"
   width="100%"
   height="100%" />
		</clipPath>
		<polygon
   style="fill:#cecece"
   points="111.4,583.5 67.7,591.1 71.2,591.5 111.4,588.1 "
   clip-path="url(#SVGID_00000033356575997293890000000001760663362529321132_)"
   id="polygon1220" />
	</g>
	<g
   id="g1232">
		<defs
   id="defs1225">
			<path
   id="SVGID_00000005231978772123226200000008852728620820236442_"
   d="m 71.7,605.3 c 0,-1.7 -0.1,-7.4 0,-13.8 C 59,590 36.6,589.2 15.5,589.8 l -1.1,-40 c 0.7,0 18.1,-0.5 36.7,0.2 37.7,1.3 48.9,6 55.7,13.6 4.5,5.1 6.5,11.8 5.5,18.4 -0.7,4.5 -0.8,15.8 -0.7,22.4 z" />
		</defs>
		<clipPath
   id="SVGID_00000035511313681697831170000002356906457564987790_">
			<use
   xlink:href="#SVGID_00000005231978772123226200000008852728620820236442_"
   style="overflow:visible"
   id="use1227"
   x="0"
   y="0"
   width="100%"
   height="100%" />
		</clipPath>
		<path
   style="fill:#cecece"
   d="m 65.6,590.9 47,-13.2 c 0,0 -0.3,-4.8 -1.2,-6.1 -0.8,-1.2 -54.9,18.7 -54.9,18.7 z"
   clip-path="url(#SVGID_00000035511313681697831170000002356906457564987790_)"
   id="path1230" />
	</g>
	<g
   id="g1242">
		<defs
   id="defs1235">
			<path
   id="SVGID_00000060723229905296350840000017624943775143907773_"
   d="m 71.7,605.3 c 0,-1.7 -0.1,-7.4 0,-13.8 C 59,590 36.6,589.2 15.5,589.8 l -1.1,-40 c 0.7,0 18.1,-0.5 36.7,0.2 37.7,1.3 48.9,6 55.7,13.6 4.5,5.1 6.5,11.8 5.5,18.4 -0.7,4.5 -0.8,15.8 -0.7,22.4 z" />
		</defs>
		<clipPath
   id="SVGID_00000093879662855370203480000007319469757373771660_">
			<use
   xlink:href="#SVGID_00000060723229905296350840000017624943775143907773_"
   style="overflow:visible"
   id="use1237"
   x="0"
   y="0"
   width="100%"
   height="100%" />
		</clipPath>
		<path
   style="fill:#cecece"
   d="m 50.6,590 3.9,0.2 h 0.2 l 55.5,-22.5 c 0,0 -3.7,-6.9 -6.6,-7.5 -2.9,-0.6 -56.3,29.8 -56.3,29.8"
   clip-path="url(#SVGID_00000093879662855370203480000007319469757373771660_)"
   id="path1240" />
	</g>
	<g
   id="g1252">
		<defs
   id="defs1245">
			<path
   id="SVGID_00000101077359177855082650000004922812062475976601_"
   d="m 71.7,605.3 c 0,-1.7 -0.1,-7.4 0,-13.8 C 59,590 36.6,589.2 15.5,589.8 l -1.1,-40 c 0.7,0 18.1,-0.5 36.7,0.2 37.7,1.3 48.9,6 55.7,13.6 4.5,5.1 6.5,11.8 5.5,18.4 -0.7,4.5 -0.8,15.8 -0.7,22.4 z" />
		</defs>
		<clipPath
   id="SVGID_00000183956203766286308720000006620842880790095781_">
			<use
   xlink:href="#SVGID_00000101077359177855082650000004922812062475976601_"
   style="overflow:visible"
   id="use1247"
   x="0"
   y="0"
   width="100%"
   height="100%" />
		</clipPath>
		<path
   style="fill:#cecece"
   d="m 89.9,554 -44.5,35.6 h -5.1 c 0,0 35.2,-38.1 35.4,-38 0.2,0 14.2,2.4 14.2,2.4 z"
   clip-path="url(#SVGID_00000183956203766286308720000006620842880790095781_)"
   id="path1250" />
	</g>
	<g
   id="g1262">
		<defs
   id="defs1255">
			<path
   id="SVGID_00000170977628632203341120000008043871169800753830_"
   d="m 71.7,605.3 c 0,-1.7 -0.1,-7.4 0,-13.8 C 59,590 36.6,589.2 15.5,589.8 l -1.1,-40 c 0.7,0 18.1,-0.5 36.7,0.2 37.7,1.3 48.9,6 55.7,13.6 4.5,5.1 6.5,11.8 5.5,18.4 -0.7,4.5 -0.8,15.8 -0.7,22.4 z" />
		</defs>
		<clipPath
   id="SVGID_00000050659099902670668250000012342994976513673384_">
			<use
   xlink:href="#SVGID_00000170977628632203341120000008043871169800753830_"
   style="overflow:visible"
   id="use1257"
   x="0"
   y="0"
   width="100%"
   height="100%" />
		</clipPath>
		<polygon
   style="fill:#cecece"
   points="45.3,549.8 32.3,589.8 37.8,589.7 62.8,550.4 "
   clip-path="url(#SVGID_00000050659099902670668250000012342994976513673384_)"
   id="polygon1260" />
	</g>
</g>
<polyline
   class="st32"
   points="133.7,586.3 133.7,541.1 153.1,521.7 223.9,521.7 250.9,494.7 279.7,494.7 "
   id="polyline1266"
   transform="translate(-9.4777998,-7.7954998)" />
<polyline
   class="st32"
   points="150.9,557.7 206.7,557.7 239,590.1 239,756.8 190.4,805.4 190.4,867.2 "
   id="polyline1268"
   transform="translate(-9.4777998,-7.7954998)" />
<g
   id="g1272"
   transform="translate(-9.4777998,-7.7954998)">
	<path
   class="st75"
   d="m 255.9,690 c -28.7,0 -59.4,-18.3 -59.4,-69.8 0,-57.7 61.2,-65 61.8,-65 l 1,9.5 c -2.2,0.2 -53.2,6.5 -53.2,55.5 0,55.9 38.1,60.2 49.8,60.2 z"
   id="path1270" />
</g>
<path
   class="st16"
   d="m 266.6222,607.4045 c -19.1,0 -34.6,-15.5 -34.6,-34.6 v -41.4 c 0,-19.1 15.5,-34.6 34.6,-34.6"
   id="path1274" />
<g
   id="g1278"
   transform="translate(-9.4777998,-7.7954998)">
	<path
   class="st75"
   d="m 255.9,810.1 c -28.7,0 -59.4,-18.3 -59.4,-69.8 0,-57.7 61.2,-65 61.8,-65 l 1,9.5 c -2.2,0.2 -53.2,6.5 -53.2,55.5 0,55.9 38.1,60.2 49.8,60.2 z"
   id="path1276" />
</g>
<path
   class="st16"
   d="m 266.6222,732.7045 c -19.1,0 -34.6,-15.5 -34.6,-34.6 v -41.4 c 0,-19.1 15.5,-34.6 34.6,-34.6"
   id="path1280" />
<path
   class="st16"
   d="m 267.1222,857.5045 c -19.1,0 -34.6,-15.5 -34.6,-34.6 v -41.4 c 0,-19.1 15.5,-34.6 34.6,-34.6"
   id="path1282" />
<g
   id="g1320"
   transform="translate(-9.4777998,-7.7954998)">
	<g
   id="g1290">
		<g
   id="g1288">
			<rect
   x="280.29999"
   y="220.3"
   class="st15"
   width="1372.5"
   height="642.70001"
   id="rect1284" />
			<rect
   x="280.29999"
   y="220.3"
   class="st76"
   width="1372.5"
   height="642.70001"
   id="rect1286" />
		</g>
	</g>
	<g
   id="g1296">
		<circle
   class="st47"
   cx="306.29999"
   cy="245.10001"
   r="12.9"
   id="circle1292" />
		<polygon
   class="st25"
   points="302.6,245.6 300.4,253.2 303.6,247.1 307.6,242.8 313,238.6 306.8,241 "
   id="polygon1294" />
	</g>
	<g
   id="g1302">
		<circle
   class="st47"
   cx="306.29999"
   cy="816.5"
   r="12.9"
   id="circle1298" />
		<polygon
   class="st25"
   points="302.6,817.1 300.4,824.6 303.6,818.5 307.6,814.2 313,810 306.8,812.5 "
   id="polygon1300" />
	</g>
	<g
   id="g1308">
		<circle
   class="st47"
   cx="1624.1"
   cy="245.10001"
   r="12.9"
   id="circle1304" />
		<polygon
   class="st25"
   points="1620.3,245.6 1618.1,253.2 1621.3,247.1 1625.3,242.8 1630.7,238.6 1624.6,241 "
   id="polygon1306" />
	</g>
	<g
   id="g1314">
		<circle
   class="st47"
   cx="1624.1"
   cy="816.5"
   r="12.9"
   id="circle1310" />
		<polygon
   class="st25"
   points="1620.3,817.1 1618.1,824.6 1621.3,818.5 1625.3,814.2 1630.7,810 1624.6,812.5 "
   id="polygon1312" />
	</g>
	<g
   id="g1318">
		<path
   class="st77"
   d="m 1561.6,808.1 -556.2,15.1 c -25.9,0.7 -51.8,0.7 -77.6,0 L 371.6,808.1 c -24.4,-0.7 -43.8,-20.6 -43.8,-45 V 301.3 c 0,-24.3 19.3,-44.2 43.6,-45 l 561.6,-17 c 24.3,-0.7 48.6,-0.7 72.9,0 l 555.9,17 c 24.3,0.7 43.6,20.7 43.6,45 v 461.9 c -0.1,24.3 -19.5,44.3 -43.8,44.9 z"
   id="path1316" />
	</g>
</g>
<polyline
   class="st78"
   points="436.9,120.2 652.2,120.2 667.4,135.5 827.2,135.5 861.1,101.6 1037.1,101.6 1037.1,135.5   1195.9,135.5 1220.7,110.7 1382.7,110.7 1382.7,152.5 1409.1,179 "
   id="polyline1322"
   transform="translate(-9.4777998,-7.7954998)" />
<g
   id="g1328"
   transform="translate(-9.4777998,-7.7954998)">
	<rect
   x="474.39999"
   y="8.6999998"
   class="st79"
   width="149.60001"
   height="149.60001"
   id="rect1324" />
	<path
   class="st80"
   d="m 611.5,150.9 -62.5,1.9 c -0.1,0 -0.2,0 -0.3,0 l -62.5,-1.9 c -2.7,-0.1 -4.8,-2.3 -4.8,-5 V 20.7 c 0,-2.7 2.1,-4.9 4.8,-5 l 62.9,-1.6 62.4,1.6 c 2.7,0.1 4.8,2.3 4.8,5 V 146 c 0.1,2.6 -2.1,4.8 -4.8,4.9 z"
   id="path1326" />
</g>
<g
   id="g1334"
   transform="translate(4.5222002,-7.7954998)">
	<rect
   x="874.59998"
   y="61.599998"
   class="st81"
   width="96.5"
   height="96.5"
   id="rect1330" />
	<path
   class="st80"
   d="m 962.6,152.8 -39.8,1.2 c -0.1,0 -0.1,0 -0.2,0 l -39.8,-1.2 c -1.7,-0.1 -3.1,-1.5 -3.1,-3.2 V 69.9 c 0,-1.7 1.4,-3.1 3.1,-3.2 l 40.1,-1 39.7,1 c 1.7,0 3.1,1.4 3.1,3.2 v 79.8 c -0.1,1.7 -1.4,3.1 -3.1,3.1 z"
   id="path1332" />
</g>
<g
   id="g1340"
   transform="translate(0.5222002,-7.7954998)">
	<rect
   x="1061.4"
   y="61.599998"
   class="st81"
   width="96.5"
   height="96.5"
   id="rect1336" />
	<path
   class="st80"
   d="m 1149.4,152.8 -39.8,1.2 c -0.1,0 -0.1,0 -0.2,0 l -39.8,-1.2 c -1.7,-0.1 -3.1,-1.5 -3.1,-3.2 V 69.9 c 0,-1.7 1.4,-3.1 3.1,-3.2 l 40.1,-1 39.7,1 c 1.7,0 3.1,1.4 3.1,3.2 v 79.8 c 0,1.7 -1.4,3.1 -3.1,3.1 z"
   id="path1338" />
</g>
<g
   id="g1346"
   transform="translate(-5.4777998,-7.7954998)">
	<rect
   x="1248.3"
   y="61.599998"
   class="st81"
   width="96.5"
   height="96.5"
   id="rect1342" />
	<path
   class="st80"
   d="m 1336.3,152.8 -39.8,1.2 c -0.1,0 -0.1,0 -0.2,0 l -39.8,-1.2 c -1.7,-0.1 -3.1,-1.5 -3.1,-3.2 V 69.9 c 0,-1.7 1.4,-3.1 3.1,-3.2 l 40.1,-1 39.7,1 c 1.7,0 3.1,1.4 3.1,3.2 v 79.8 c -0.1,1.7 -1.4,3.1 -3.1,3.1 z"
   id="path1344" />
</g>
<circle
   class="st33"
   cx="424.7222"
   cy="112.4045"
   r="7.8000002"
   id="circle1348" />
<circle
   class="st33"
   cx="649.8222"
   cy="82.504501"
   r="7.8000002"
   id="circle1350" />
<polygon
   class="st0"
   points="1493.7,142.1 1551.9,142.1 1549.9,147.5 1496.3,147.5 "
   id="polygon1352"
   transform="translate(-9.4777998,-7.7954998)" />
<polygon
   class="st0"
   points="1493.7,132.9 1551.9,132.9 1549.9,138.3 1496.3,138.3 "
   id="polygon1354"
   transform="translate(-9.4777998,-7.7954998)" />
<polygon
   class="st0"
   points="1493.7,151.3 1551.9,151.3 1549.9,156.7 1496.3,156.7 "
   id="polygon1356"
   transform="translate(-9.4777998,-7.7954998)" />
<polygon
   class="st0"
   points="1493.7,160.5 1551.9,160.5 1549.9,165.9 1496.3,165.9 "
   id="polygon1358"
   transform="translate(-9.4777998,-7.7954998)" />
<polyline
   class="st78"
   points="664.3,96.3 675,107 749.1,107 "
   id="polyline1360"
   transform="translate(-9.4777998,-7.7954998)" />
<g
   id="g1366"
   transform="translate(8.5222002,-7.7954998)">
	<rect
   x="687.70001"
   y="61.599998"
   class="st81"
   width="96.5"
   height="96.5"
   id="rect1362" />
	<path
   class="st80"
   d="m 775.7,152.8 -39.8,1.2 c -0.1,0 -0.1,0 -0.2,0 l -39.8,-1.2 c -1.7,-0.1 -3.1,-1.5 -3.1,-3.2 V 69.9 c 0,-1.7 1.4,-3.1 3.1,-3.2 l 40.1,-1 39.7,1 c 1.7,0 3.1,1.4 3.1,3.2 v 79.8 c 0,1.7 -1.4,3.1 -3.1,3.1 z"
   id="path1364" />
</g>
<path
   class="st82"
   d="m 1025.2222,57.9045 h -34.9 c -0.6,0 -1.2,-0.5 -1.2,-1.2 v -2.2 c 0,-0.6 0.5,-1.2 1.2,-1.2 h 34.9 c 0.6,0 1.2,0.5 1.2,1.2 v 2.2 c 0,0.6 -0.5,1.2 -1.2,1.2 z"
   id="path1368" />
<rect
   x="985.62219"
   y="56.1045"
   class="st33"
   width="44.400002"
   height="3.5999999"
   id="rect1370" />
<path
   class="st83"
   d="m 845.6222,57.9045 h -34.9 c -0.6,0 -1.2,-0.5 -1.2,-1.2 v -2.2 c 0,-0.6 0.5,-1.2 1.2,-1.2 h 34.9 c 0.6,0 1.2,0.5 1.2,1.2 v 2.2 c -0.1,0.6 -0.6,1.2 -1.2,1.2 z"
   id="path1372" />
<rect
   x="805.92224"
   y="56.1045"
   class="st33"
   width="44.400002"
   height="3.5999999"
   id="rect1374" />
<rect
   x="0.22220001"
   y="199.9045"
   class="st84"
   width="244.60001"
   height="14"
   id="rect1376" />
<rect
   x="63.1222"
   y="224.8045"
   class="st85"
   width="73"
   height="58.299999"
   id="rect1378" />
<path
   class="st86"
   d="m 146.2222,278.7045 h -93.2 c -5.5,0 -9.9,-4.4 -9.9,-9.9 v -11.2 c 0,-5.5 4.4,-9.9 9.9,-9.9 h 93.2 c 5.5,0 9.9,4.4 9.9,9.9 v 11.2 c 0,5.5 -4.4,9.9 -9.9,9.9 z"
   id="path1380" />
<rect
   x="187.4222"
   y="224.8045"
   class="st85"
   width="42.700001"
   height="121.3"
   id="rect1382" />
<path
   class="st86"
   d="m 237.7222,321.5045 h -57.7 c -4.4,0 -8,-3.6 -8,-8 v -15 c 0,-4.4 3.6,-8 8,-8 h 57.7 c 4.4,0 8,3.6 8,8 v 15 c 0,4.4 -3.6,8 -8,8 z"
   id="path1384" />
<rect
   x="119.4222"
   y="239.60449"
   class="st87"
   width="6"
   height="8.1000004"
   id="rect1386" />
<rect
   x="72.822205"
   y="239.60449"
   class="st87"
   width="6"
   height="8.1000004"
   id="rect1388" />
<rect
   x="79.922203"
   y="239.60449"
   class="st87"
   width="2.8"
   height="8.1000004"
   id="rect1390" />
<rect
   x="193.2222"
   y="272.90451"
   class="st87"
   width="6"
   height="17.6"
   id="rect1392" />
<rect
   x="200.4222"
   y="272.90451"
   class="st87"
   width="2.8"
   height="17.6"
   id="rect1394" />
<rect
   x="115.5222"
   y="239.60449"
   class="st87"
   width="2.8"
   height="8.1000004"
   id="rect1396" />
<rect
   x="219.62221"
   y="272.90451"
   class="st87"
   width="6"
   height="17.6"
   id="rect1398" />
<rect
   x="215.7222"
   y="272.90451"
   class="st87"
   width="2.8"
   height="17.6"
   id="rect1400" />
<rect
   x="63.1222"
   y="224.8045"
   width="73"
   height="4.8000002"
   id="rect1402" />
<rect
   x="187.4222"
   y="224.8045"
   width="42.700001"
   height="4.8000002"
   id="rect1404" />
<rect
   x="191.12221"
   y="267.90451"
   class="st88"
   width="36.299999"
   height="6.8000002"
   id="rect1406" />
<rect
   x="67.722198"
   y="235.2045"
   class="st88"
   width="63.200001"
   height="6.8000002"
   id="rect1408" />




<path
   class="st93"
   d="m 960.0222,238.2045 c 12.1,0 24.3,0.2 36.4,0.6 l 555.9,17 c 9.9,0.3 19.2,4.4 26.1,11.5 6.9,7.1 10.7,16.5 10.7,26.4 v 461.9 c 0,10 -3.8,19.4 -10.8,26.5 -6.9,7.1 -16.2,11.2 -26.2,11.5 l -556.2,15.1 c -12.8,0.3 -25.8,0.5 -38.6,0.5 -12.8,0 -25.8,-0.2 -38.6,-0.5 l -556.2,-15.1 c -9.9,-0.3 -19.2,-4.3 -26.2,-11.5 -6.9,-7.1 -10.8,-16.5 -10.8,-26.5 v -461.8 c 0,-9.9 3.8,-19.3 10.7,-26.4 6.9,-7.1 16.2,-11.2 26.1,-11.5 l 561.6,-17 c 12,-0.5 24.1,-0.7 36.1,-0.7 m 0,-7 c -12.1,0 -24.2,0.2 -36.3,0.5 l -561.6,17 c -24.3,0.7 -43.6,20.6 -43.6,45 v 461.9 c 0,24.4 19.4,44.3 43.8,45 l 556.2,15.1 c 12.9,0.4 25.9,0.5 38.8,0.5 12.9,0 25.9,-0.2 38.8,-0.5 l 556.2,-15.1 c 24.4,-0.7 43.8,-20.6 43.8,-45 v -461.9 c 0,-24.3 -19.3,-44.2 -43.6,-45 l -555.9,-17 c -12.2,-0.3 -24.4,-0.5 -36.6,-0.5 z"
   id="path1438" />
</svg>
