<?xml version="1.0" encoding="UTF-8" standalone="no"?>
<!-- Generator: Adobe Illustrator 26.4.1, SVG Export Plug-In . SVG Version: 6.00 Build 0)  -->

<svg
   version="1.1"
   id="Layer_1"
   x="0px"
   y="0px"
   viewBox="0 0 279.36921 74.134598"
   xml:space="preserve"
   sodipodi:docname="toprightHUD_up.svg"
   width="279.3692"
   height="74.134598"
   inkscape:version="1.1 (c68e22c387, 2021-05-23)"
   xmlns:inkscape="http://www.inkscape.org/namespaces/inkscape"
   xmlns:sodipodi="http://sodipodi.sourceforge.net/DTD/sodipodi-0.dtd"
   xmlns="http://www.w3.org/2000/svg"
   xmlns:svg="http://www.w3.org/2000/svg"><defs
   id="defs61">
	
	
	
	
	
	
	
	
	
	
	
	
	
	
</defs><sodipodi:namedview
   id="namedview59"
   pagecolor="#ffffff"
   bordercolor="#666666"
   borderopacity="1.0"
   inkscape:pageshadow="2"
   inkscape:pageopacity="0.0"
   inkscape:pagecheckerboard="0"
   showgrid="false"
   inkscape:zoom="3.7866858"
   inkscape:cx="170.72977"
   inkscape:cy="54.005008"
   inkscape:window-width="1847"
   inkscape:window-height="1057"
   inkscape:window-x="-8"
   inkscape:window-y="-8"
   inkscape:window-maximized="1"
   inkscape:current-layer="Layer_1" />
<style
   type="text/css"
   id="style2">
	.st0{fill:#727272;stroke:#5B5B5B;stroke-width:1.0692;stroke-miterlimit:10;}
	.st1{fill:#3C4C41;stroke:#2F3D33;stroke-width:3;stroke-miterlimit:10;}
	.st2{fill:#66605C;}
	.st3{fill:#939393;}
	.st4{opacity:3.000000e-02;fill:#FFFFFF;}
</style>
<rect
   x="0.53460002"
   y="0.53460002"
   class="st0"
   width="278.29999"
   height="73"
   id="rect4" /><path
   class="st1"
   d="m 247.9346,66.8346 -89.5,2.4 c -15.9,0.4 -31.8,0.4 -47.7,0 l -84.2,-2.4 c -6.9,0 -12.6,-2.4 -12.6,-5.3 v -49.7 c 0,-2.9 5.6,-5.3 12.6,-5.3 l 91.5,-2.3 c 15.1,-0.4 30.2,-0.4 45.3,0 l 84.6,2.3 c 6.9,0 12.6,2.4 12.6,5.3 v 49.6 c -0.1,3 -5.7,5.4 -12.6,5.4 z"
   id="path6" /><g
   id="g12"
   transform="translate(0.03460002,0.03460002)">
		<circle
   class="st2"
   cx="7.5"
   cy="6"
   id="ellipse8"
   r="2.2" />
		<polygon
   class="st3"
   points="7.1,6.3 7.7,5.6 8.7,4.9 7.6,5.3 6.9,6.1 6.5,7.4 "
   id="polygon10" />
	</g><g
   id="g18"
   transform="translate(0.03460002,0.03460002)">
		<circle
   class="st2"
   cx="7.5"
   cy="66.800003"
   id="ellipse14"
   r="2.2" />
		<polygon
   class="st3"
   points="7.1,67.1 7.7,66.4 8.7,65.7 7.6,66.1 6.9,66.9 6.5,68.1 "
   id="polygon16" />
	</g><g
   id="g24"
   transform="translate(0.03460002,0.03460002)">
		<circle
   class="st2"
   cx="271.5"
   cy="6"
   id="ellipse20"
   r="2.2" />
		<polygon
   class="st3"
   points="271.1,6.3 271.8,5.6 272.7,4.9 271.6,5.3 270.9,6.1 270.5,7.4 "
   id="polygon22" />
	</g><g
   id="g30"
   transform="translate(0.03460002,0.03460002)">
		<circle
   class="st2"
   cx="271.5"
   cy="66.800003"
   id="ellipse26"
   r="2.2" />
		<polygon
   class="st3"
   points="271.1,67.1 271.8,66.4 272.7,65.7 271.6,66.1 270.9,66.9 270.5,68.1 "
   id="polygon28" />
	</g><polygon
   class="st4"
   points="48.4,0 68,0 74.8,74.1 54.2,74.1 "
   id="polygon32"
   transform="translate(0.03460002,0.03460002)" /><polygon
   class="st4"
   points="31.4,0 42.6,0 49.3,74.1 37.5,74.1 "
   id="polygon34"
   transform="translate(0.03460002,0.03460002)" />
</svg>
