<?xml version="1.0" encoding="UTF-8" standalone="no"?>
<!-- Generator: Adobe Illustrator 26.0.3, SVG Export Plug-In . SVG Version: 6.00 Build 0)  -->

<svg
   version="1.1"
   id="Layer_1"
   x="0px"
   y="0px"
   viewBox="0 0 1414.1051 917.03717"
   xml:space="preserve"
   sodipodi:docname="shop_hud2.svg"
   width="1414.1051"
   height="917.03717"
   inkscape:version="1.1 (c68e22c387, 2021-05-23)"
   xmlns:inkscape="http://www.inkscape.org/namespaces/inkscape"
   xmlns:sodipodi="http://sodipodi.sourceforge.net/DTD/sodipodi-0.dtd"
   xmlns="http://www.w3.org/2000/svg"
   xmlns:svg="http://www.w3.org/2000/svg"><defs
   id="defs769">
	
	
	
	
	
	
</defs><sodipodi:namedview
   id="namedview767"
   pagecolor="#ffffff"
   bordercolor="#666666"
   borderopacity="1.0"
   inkscape:pageshadow="2"
   inkscape:pageopacity="0.0"
   inkscape:pagecheckerboard="0"
   showgrid="false"
   inkscape:zoom="0.55104167"
   inkscape:cx="733.1569"
   inkscape:cy="469.11153"
   inkscape:window-width="1842"
   inkscape:window-height="1057"
   inkscape:window-x="-8"
   inkscape:window-y="-8"
   inkscape:window-maximized="1"
   inkscape:current-layer="Layer_1" />
<style
   type="text/css"
   id="style2">
	.st0{fill:#662F14;}
	.st1{fill:#592612;}
	.st2{fill:#A56832;}
	.st3{opacity:0.56;fill:#CE7F42;enable-background:new    ;}
	.st4{fill:#CE7F42;}
	.st5{fill:#89431B;}
	.st6{opacity:0.13;fill:#DFA164;enable-background:new    ;}
	.st7{fill:#BF7441;}
	.st8{fill:#AEAEAF;}
	.st9{fill:#686868;}
	.st10{fill:#9C9B9B;}
	.st11{fill:#BBBBBB;}
	.st12{fill:#918E89;stroke:#625552;stroke-width:1.8596;stroke-miterlimit:10;}
	.st13{fill:#918E89;stroke:#625552;stroke-width:3.7902;stroke-miterlimit:10;}
	.st14{fill:#918E89;stroke:#625552;stroke-width:2.5798;stroke-miterlimit:10;}
	.st15{fill:#66605C;}
	.st16{fill:none;}
	.st17{fill:#353331;}
	.st18{fill:#37F4F0;}
	.st19{fill:#939393;}
	.st20{fill:#727272;}
	.st21{fill:#37F4F0;stroke:#30AAA4;stroke-width:1.5479;stroke-miterlimit:10;}
	.st22{fill:#4F403A;}
	.st23{fill:#F934F3;stroke:#CE20CA;stroke-width:1.5479;stroke-miterlimit:10;}
	.st24{fill:#66605C;stroke:#5B5B5B;stroke-width:1.9794;stroke-miterlimit:10;}
	.st25{font-family:'Digitalix';}
	.st26{font-size:7px;}
	.st27{fill:#459B8C;stroke:#5B5B5B;stroke-width:3;stroke-miterlimit:10;}
	.st28{fill:#1E1E1E;}
	.st29{fill:#E2B90E;}
	.st30{fill:#AA8B0B;}
	.st31{fill:#B2B2B2;}
	.st32{fill:#6D6D6D;}
	.st33{fill:#FFFFFF;}
	.st34{fill:#999999;}
	.st35{fill:#30AAA4;}
	.st36{fill:#CE20CA;}
	.st37{fill:none;stroke:#5B5B5B;stroke-width:6.2743;stroke-miterlimit:10;}
	.st38{fill:#3C4C41;}
	.st39{fill:#2F3D33;}
	.st40{opacity:0.6;}
	.st41{fill:none;stroke:#FFFFFF;stroke-width:0.7715;stroke-miterlimit:10;}
	.st42{fill:none;stroke:#A4FFFF;stroke-width:0.7715;stroke-miterlimit:10;}
	.st43{fill:#353535;}
	.st44{fill:#F934F3;}
	.st45{fill:none;stroke:#625552;stroke-width:2;stroke-miterlimit:10;}
	.st46{fill:#625552;}
	.st47{opacity:0.16;}
</style>
<g
   id="g60"
   transform="translate(-250.89493,0.7)">
	<path
   class="st0"
   d="m 1665,337.6 c 0,-7.6 -6.3,-13.9 -14,-13.5 -2.7,0.1 -5.3,0 -8.1,0.4 -118,15.7 -225.6,34.4 -343.6,50.1 4.4,-19.4 -1.3,-24.5 -1,-35.3 l -14.1,-7.3 -135.5,75.6 2.4,13.6 c 62.6,12.8 44,13.9 -18.8,11.8 l -40.7,6.4 0.1,10.8 c 0,4.1 3.4,7.5 6.9,9.6 l 64.3,35.8 21.4,3.7 -1.6,-9.1 3.5,27.6 105.6,66.2 v -49.3 c 48,6.4 96.1,12.8 144.1,19.1 6.8,0.9 13.8,0.8 20.6,-0.3 5.2,-0.8 10.2,-1.5 14.8,-1.8 26.7,-2 77,4.2 99.3,20 23.8,3.2 47.6,6.3 71.4,9.5 12.1,1.6 21.9,-10.7 21.9,-23 l 1,-73.4 c 0,-8.7 -22,-34.9 -22,-34.9 0,0 11.2,0.7 12.8,0.3 3.3,-0.9 3.2,-2.1 2.2,-4.3 -5.1,-11.4 -1.4,-24.5 2,-32.8 2.5,-6 3.2,-12.7 2,-19.1 l -0.5,-2.5 c -0.9,-4.9 -4.7,-8.9 -9.6,-10 l -9,-2.1 -52.6,0.5 63.7,-3 c 6.4,-1.2 11.1,-6.8 11.1,-13.3 z"
   id="path4" />
	<path
   class="st1"
   d="m 1456.5,553.3 c 5.2,-0.8 10.2,-1.5 14.8,-1.8 26.7,-2 77,4.2 99.3,20 23.8,3.2 47.6,6.3 71.4,9.5 3.5,0.5 6.8,-0.2 9.8,-1.8 0.6,-0.6 0.9,-0.9 0.9,-0.9 l -9.9,-31.2 c 0,0 -308.1,-85.8 -361.6,-51.8 l 10.6,39.1 c 48,6.4 96.1,12.8 144.1,19.1 6.9,1 13.8,0.9 20.6,-0.2 z"
   id="path6" />
	<path
   class="st2"
   d="m 1642.8,324.6 c -120.6,14.3 -241.2,28.6 -361.7,42.8 4.2,-16.7 2.6,-26.3 2.9,-35.7 l -135.4,75.6 c 60.1,11 42.3,12 -18.1,10.1 l -39.1,21.8 73.9,41.2 66.2,14.2 -49,-4.6 101.6,56.7 v -42.3 c 49.7,5.9 99.3,11.8 149,17.6 8.2,-1.4 16.4,-2.6 23.6,-3.1 25.7,-1.7 74,3.6 95.5,17.2 30.2,3.6 60.5,7.2 90.7,10.7 V 449 c -8.8,-2.3 -15.6,-4.2 -15.6,-4.2 l 15.6,-0.6 V 433 c -3.2,-0.7 -5.6,-2.2 -6.8,-4.8 -7.8,-15.6 5.8,-35.1 5.8,-35.1 0,0 1,-9.2 1,-14.2 l -56.5,-2.4 56.5,-9.3 z"
   id="path8" />
	<g
   id="g56">
		<path
   class="st3"
   d="m 1526.6,471.9 c -243.1,-17.5 -48.5,-24.8 -396.4,-10.8 l 10.7,6 c 31.9,-1.7 71.5,-0.8 120.4,5.2 139.6,1.3 267.4,4.8 381.4,10.5 v -15.4 c -38.9,0.6 -51,9.1 -116.1,4.5 z"
   id="path10" />
		<path
   class="st3"
   d="m 1507.4,385.3 c -37.7,1.4 -163.8,-6.9 -182.4,-6.9 -18.5,0 -53.2,7.6 -84.4,8.3 -28.2,0.6 -26.7,-5.3 -41.2,-7.6 l -13.3,7.4 c 5.3,0.8 11,1.9 17,3 21.7,4 46.4,8.5 66.1,4.3 78,-16.8 289.4,1.2 368.5,7.2 1.1,-2.4 2.2,-4.4 3,-5.7 -42.8,-4.5 -108.9,-10.9 -133.3,-10 z"
   id="path12" />
		<path
   class="st3"
   d="m 1550.7,335.6 c -37.8,4.5 -75.6,9 -113.4,13.4 56.4,10.9 67.7,14.1 113.4,-13.4 z"
   id="path14" />
		<path
   class="st3"
   d="m 1229.1,362.5 c 19.4,-1.8 37.1,-4.5 54.2,-7 0.4,-3.2 0.6,-6.1 0.6,-8.8 -11.1,1.7 -22.7,3.4 -35.2,4.8 z"
   id="path16" />
		<path
   class="st4"
   d="m 1575.2,332.7 c -1.5,0.2 -3.1,0.4 -4.6,0.5 -68.2,44.9 -73.8,35.8 -168.5,20 -2.5,0.3 -5.1,0.6 -7.6,0.9 2.2,0.3 4.5,0.7 6.8,1.1 97.6,16.2 101.6,25.5 173.9,-22.5 z"
   id="path18" />
		<path
   class="st4"
   d="m 1224.6,365 c 21,-1.8 40,-4.7 58.4,-7.4 0.1,-0.7 0.2,-1.4 0.3,-2.1 -17.2,2.5 -34.9,5.2 -54.2,7 z"
   id="path20" />
		<path
   class="st4"
   d="m 1555.6,335 c -1.7,0.2 -3.3,0.4 -5,0.6 -45.6,27.6 -56.9,24.3 -113.4,13.4 -2.3,0.3 -4.6,0.5 -6.8,0.8 64.6,12.3 73.9,16.8 125.2,-14.8 z"
   id="path22" />
		<path
   class="st4"
   d="m 1248.8,351.5 c 12.5,-1.4 24.1,-3.1 35.2,-4.8 0,-0.7 0,-1.4 0,-2.1 -9.7,1.4 -19.8,2.9 -30.5,4.3 z"
   id="path24" />
		<path
   class="st4"
   d="m 1278.2,439.1 c 6.3,-0.9 16.3,-2.3 18.5,-8.3 2.4,-6.9 -6.6,-11.3 -13.2,-13.9 -0.3,-0.1 -5.9,-1.9 -6.1,-2 l -4.1,-1.1 c -24.1,-6.8 -70.4,-9.7 -117.3,-10.4 l -6.6,3.7 c 47.3,1.2 95.3,4.6 126.8,12.2 0.3,0.1 5.6,1.8 5.8,1.9 50.2,20.4 -83.3,16.8 -178.9,11.8 l -5.6,3.1 c 63.1,4.4 144.5,7.9 180.7,3 z m -2.1,-19.9 z"
   id="path26" />
		<path
   class="st4"
   d="m 1283.5,416.9 v 0 z"
   id="path28" />
		<path
   class="st4"
   d="M 1283.5,416.9 Z"
   id="path30" />
		<path
   class="st4"
   d="m 1306.1,402.7 c -29,1.2 -84.1,-3.1 -134.5,-8.1 l -6.7,3.8 c 43.5,5.2 89.7,9.5 120.8,10.2 16.1,0.6 25.7,-0.5 26.1,-0.5 -0.2,0 8.1,-1.7 55.3,-0.9 38.4,0.9 172.1,6.7 267.8,1.3 0.4,-1.3 0.8,-2.6 1.2,-3.8 -111.5,4.4 -281.9,-6.8 -330,-2 z"
   id="path32" />
		<path
   class="st4"
   d="m 1507.7,415 c -8.7,0.3 -25.3,0.4 -27.6,8.7 -1,3.2 1,6.9 3.6,8.8 2,0.5 2.3,10.2 110.8,15.8 13.7,0.6 30.4,1.1 48.3,1.5 v -0.3 c -8.8,-2.3 -15.6,-4.2 -15.6,-4.2 l 13.1,-0.5 c -70.6,-2.8 -150.6,-8.2 -154.1,-18.9 -2.2,-9.2 83.9,-3.9 149,1.3 -0.6,-1.6 -1.1,-3.2 -1.3,-4.8 -40.8,-4.5 -90.8,-8.7 -126.2,-7.4 z"
   id="path34" />
		<path
   class="st4"
   d="m 1511.3,487 c -0.6,0 -233.2,-3.9 -250.6,-4.2 -38.9,-5.4 -74.2,-8.1 -106.1,-8.1 l 3.8,2.1 c 28.2,0.2 61.9,2.5 102.1,8 91.9,1.6 151.5,2.6 189.5,3.2 v 0 c 44.5,0.7 126,2.1 192.8,3.2 v -2.1 z"
   id="path36" />
		<path
   class="st4"
   d="m 1141,467.1 3.2,1.8 c 34.6,-1.7 73.4,0.1 116.7,5.4 v 0 l 1.3,0.1 v -0.1 c 139.3,1.3 266.9,4.8 380.6,10.5 v -2.1 c -114,-5.7 -241.9,-9.2 -381.4,-10.5 -48.9,-5.9 -88.6,-6.9 -120.4,-5.1 z"
   id="path38" />
		<path
   class="st4"
   d="m 1588.9,462 c -28.9,3.2 -90.2,-4.4 -149.5,-11.8 -98.9,-12.3 -105.4,-15.8 -321.6,3.9 l 2.3,1.3 c 78.4,-7.2 199.1,-15.8 239.5,-12.2 69.2,6.1 185.9,25.8 229.6,20.9 16.7,-2.5 34.4,-3.6 53.7,-3 V 459 c -19.5,-0.6 -37.3,0.4 -54,3 z"
   id="path40" />
		<path
   class="st4"
   d="m 1526.7,469.8 c -245.2,-17.6 -45.4,-24.7 -399.9,-10.6 l 3.4,1.9 c 347.9,-14 153.3,-6.7 396.4,10.8 65.1,4.6 77.2,-3.9 116.2,-4.5 v -2.1 c -39,0.6 -51.4,9.1 -116.1,4.5 z"
   id="path42" />
		<path
   class="st4"
   d="m 1215.3,508.3 c -0.1,0 -0.2,0 -0.3,0.1 l 9,5 c 15.4,-2.9 36,-4.7 60.1,-5.6 v -3.2 c 7.5,0.9 15.1,1.8 22.6,2.7 98.5,-1.2 240.2,9.6 336.2,18.3 v -5.1 c -117.2,-13.7 -344.2,-33.9 -427.6,-12.2 z"
   id="path44" />
		<path
   class="st4"
   d="m 1284,546.9 v -0.5 c -0.3,0 -0.6,0 -0.9,0 z"
   id="path46" />
		<path
   class="st4"
   d="m 1277,543 c 2.4,0 4.8,0 7.1,0 v -2.1 c -3.5,0 -7,0 -10.7,0.1 z"
   id="path48" />
		<path
   class="st4"
   d="m 1433,522.3 c 1.3,-0.2 2.7,-0.5 4,-0.7 -8.3,-0.9 -23.7,-2.5 -39.9,-3.6 11.9,1.5 23.9,2.9 35.9,4.3 z"
   id="path50" />
		<path
   class="st4"
   d="m 1269.2,393.8 c -19.7,4.2 -44.3,-0.3 -66.1,-4.3 -6,-1.1 -11.7,-2.2 -17,-3 l -1.4,0.8 c 24,3.5 58.7,13.1 85.4,7.3 77.4,-16.6 287.9,1.3 367.2,7.3 0.1,-0.3 0.3,-0.6 0.4,-0.9 -79.1,-6 -290.5,-24 -368.5,-7.2 z"
   id="path52" />
		<path
   class="st4"
   d="m 1507.3,384.4 c -37.6,1.4 -163.2,-6.9 -182.3,-6.9 -19.1,0 -53.4,7.6 -84.5,8.3 -26.9,0.6 -25.4,-5.1 -39.7,-7.5 l -1.4,0.8 c 14.5,2.3 13,8.3 41.2,7.6 31.2,-0.7 65.9,-8.3 84.4,-8.3 18.7,0 144.7,8.3 182.4,6.9 24.4,-0.9 90.5,5.5 133.3,10 0.2,-0.4 0.4,-0.7 0.6,-0.9 -42.8,-4.6 -109,-10.9 -134,-10 z"
   id="path54" />
	</g>
	<path
   class="st0"
   d="m 1185,416 c 72.5,-15.6 136.5,-21.1 150.8,-23.1 43.7,-5.5 181.8,-28.3 253.4,-15.8 l -0.1,0.4 c -55.4,-5.1 -216.3,11.6 -253.2,16.7 -39,5.6 -53.7,10 -150.9,22.2 z"
   id="path58" />
</g>
<g
   id="g114"
   transform="translate(-250.89493,0.7)">
	<path
   class="st5"
   d="m 1103.3,835.4 c -12.2,0 -22.1,-9.6 -22.2,-21.4 l -0.2,-64.2 c 0,-5.2 1.9,-10.2 5.3,-14 -3.1,-3.7 -4.9,-8.4 -4.9,-13.5 l -0.1,-61.6 c 0,-2.7 1.1,-9.5 2.1,-12 -1.2,-2.7 -2.4,-6.3 -2.4,-9.3 v -53.3 c 0,-11.8 -0.8,-21.6 11.5,-21.6 l 550.8,0.3 c 12.2,0 17.1,9.4 17.1,21.3 V 643 c 0,3.6 -1,7.2 -2.7,10.3 1.7,3.1 2.7,6.6 2.7,10.2 l 0.3,65.3 c 0,2.1 -0.3,4.1 -0.8,6 0.5,1.9 0.8,3.8 0.8,5.8 v 73.3 c 0,11.8 -9.9,21.5 -22.2,21.5 z"
   id="path62" />
	<path
   class="st0"
   d="m 1659.7,734.7 v 0 c 0.6,-2 0.8,-3.9 0.8,-5.9 l -0.3,-65.2 c 0,-3.6 -1,-7.1 -2.7,-10.2 0,-0.1 0.1,-0.2 0.1,-0.3 0,-0.1 -0.1,-0.2 -0.1,-0.3 1.8,-3.1 2.7,-6.7 2.7,-10.3 v -56.4 c 0,-11.8 -4.9,-21.3 -17.1,-21.3 H 1604 c 0,0.4 0,0.7 0,1.1 V 623 c 0,3.7 -1,7.2 -2.7,10.3 1.7,3.1 2.7,6.6 2.7,10.2 l 0.3,65.5 c 0,2.1 -0.3,4.1 -0.8,6 0.5,1.9 0.8,3.8 0.8,5.8 v 73.5 c 0,11.9 -9.9,21.5 -22.2,21.5 h -500.9 c 0.9,9.4 8.1,17 17.3,18.9 h 0.1 c 0.1,0 0.3,0.1 0.4,0.1 h 0.1 c 0.1,0 0.3,0 0.4,0.1 h 0.1 c 0.1,0 0.3,0 0.4,0.1 0.1,0 0.1,0 0.2,0 0.1,0 0.2,0 0.3,0 0.1,0 0.1,0 0.2,0 0.1,0 0.2,0 0.3,0 0.1,0 0.2,0 0.3,0 0.1,0 0.2,0 0.3,0 0.1,0 0.2,0 0.3,0 0.1,0 0.2,0 0.3,0 0.1,0 0.2,0 0.3,0 0.1,0 0.1,0 0.2,0 0.2,0 0.4,0 0.6,0 h 535.1 c 0.2,0 0.4,0 0.6,0 12,-0.3 21.6,-9.8 21.6,-21.5 v -73.2 c 0,-2 -0.3,-3.9 -0.8,-5.8 -0.1,0.3 -0.1,0.2 -0.1,0.2 z"
   id="path64" />
	<path
   class="st2"
   d="m 1084,745.5 0.2,68.5 c 0,3.4 2.8,6.2 6.2,6.2 h 553.1 c 3.5,0 6.2,-2.8 6.2,-6.2 v -78.2 c 0,-3.5 -2.8,-6.2 -6.2,-6.2 H 1388 c -0.3,0 -0.6,0 -0.8,0.1 l -32.4,4.3 c -0.5,0.1 -1.1,0.1 -1.6,0 l -33.5,-4.4 c -0.3,0 -0.5,-0.1 -0.8,-0.1 h -210.8 c -1.1,0 -2.1,0.3 -3,0.8 l -17.6,9.7 c -2.2,1.1 -3.5,3.2 -3.5,5.5 z"
   id="path66" />
	<path
   class="st4"
   d="m 1211.5,737.8 c 22.8,-6 63.6,-8 112.1,-7.7 l -4.1,-0.5 v 0 0 c -0.3,0 -0.5,-0.1 -0.8,-0.1 h -66.6 c -16.8,1.2 -30.9,3.2 -41.3,5.9 -53.6,14.1 -98.2,12 -126.5,7.7 -0.1,0.2 -0.1,0.4 -0.2,0.6 v 0 c -0.1,0.2 -0.1,0.4 -0.1,0.6 v 0 c 0,0.1 0,0.2 0,0.2 v 0 c 0,0.1 0,0.2 0,0.3 v 0 c 0,0.1 0,0.2 0,0.2 0,0 0,0 0,0.1 0,0.1 0,0.2 0,0.3 v 0.1 c 28.6,4.5 73.5,6.5 127.5,-7.7 z"
   id="path68" />
	<path
   class="st4"
   d="m 1388,729.6 c -0.3,0 -0.6,0 -0.8,0.1 l -12.1,1.6 c 97.5,3.3 210.3,12.9 274.9,18.9 v -2.5 c -60.2,-5.6 -162,-14.3 -254.4,-18.1 z"
   id="path70" />
	<path
   class="st4"
   d="m 1354.7,734 c -0.5,0.1 -1.1,0.1 -1.6,0 l -11,-1.4 c -45.3,-0.1 -83,2.1 -104.7,7.8 -75.6,19.8 -133.1,7.7 -152.6,2.3 v 0 c -0.1,0.2 -0.2,0.4 -0.3,0.6 v 0 c -0.1,0.2 -0.1,0.4 -0.2,0.6 v 0 c 0,0.1 -0.1,0.2 -0.1,0.3 v 0 c 0,0.1 0,0.2 -0.1,0.3 v 0 c 0,0.1 0,0.2 -0.1,0.3 v 0 c 0,0.1 0,0.2 0,0.3 v 0 c 19.7,5.5 77.7,17.7 153.9,-2.2 67.4,-17.7 291,-0.9 412,9.9 v -2.5 c -76.2,-6.8 -192.9,-16 -285.9,-17.4 z"
   id="path72" />
	<path
   class="st0"
   d="m 1383.7,729.5 c -19.3,-7 -63.5,-0.9 -66.3,-0.9 -58.7,0.3 -151.9,-0.1 -210.8,1.4 33.2,0.8 218.9,4.1 218.7,4.1 30.2,3.2 29.3,2.3 31.6,2.1 -0.2,0 31.3,-2.7 31.1,-2.7 73.1,-0.1 183.8,-1.9 257.5,-3.7 -52.7,-1.4 -262,-0.3 -261.8,-0.3 z"
   id="path74" />
	<path
   class="st2"
   d="m 1643.4,564.6 h -553.1 c -3.5,0 -6.2,2.8 -6.2,6.2 v 62 c 0,3.3 2.5,6 5.7,6.2 l 63.3,5.2 c 0.2,0 0.3,0 0.5,0 H 1628 c 0.9,0 1.9,-0.2 2.7,-0.6 5.4,-2.6 10.7,-4.3 15.4,-6.5 2.2,-1 3.6,-3.2 3.6,-5.7 v -60.8 c -0.1,-3.2 -2.9,-6 -6.3,-6 z"
   id="path76" />
	<path
   class="st0"
   d="m 1628.9,644.4 c -71.7,2.4 -131.2,1.4 -201.9,0.5 -65.3,-0.6 -178.3,4 -336.5,-0.5 V 644 c 162.2,-4.7 268.3,0.1 336.5,-0.5 67.8,-0.9 130,-1.9 201.9,0.5 z"
   id="path78" />
	<path
   class="st2"
   d="m 1084.3,650.4 0.1,65.8 c 0,2.5 1.5,4.8 3.8,5.7 l 17,7.2 c 0.8,0.3 1.6,0.5 2.4,0.5 h 212.9 c 0.2,0 0.5,0 0.7,0 2.9,-0.3 23.6,-2.7 30.7,-2.7 8,0 30.7,2.4 33.7,2.7 0.2,0 0.4,0 0.7,0 h 257.3 c 3.5,0 6.3,-2.8 6.2,-6.3 l -0.3,-69.7 c 0,-2.9 -2,-5.4 -4.9,-6.1 l -14.4,-3.2 c -0.4,-0.1 -0.9,-0.1 -1.4,-0.1 h -538.4 c -3.3,0 -6.1,2.8 -6.1,6.2 z"
   id="path80" />
	<g
   id="g108">
		<path
   class="st4"
   d="m 1214.1,591.9 c 67.6,-7.1 118.3,-20.3 177.4,-10.3 34.6,5.8 61.5,14.1 90.8,12.3 23,-2.4 33.9,-6 69.7,-29.3 h -15.2 c -3.4,2.2 -6,3.8 -8.3,5 -1.9,0.8 -20.8,13.3 -46.8,15.1 -25.9,1.6 -53.1,-7 -88.5,-13.1 -69.5,-12.1 -128.9,7.1 -202.5,11 -34.1,-0.3 -70.7,-4.1 -106.8,-9.7 v 9.4 c 47,8.7 96.3,13.9 130.2,9.6 z"
   id="path82" />
		<path
   class="st4"
   d="M 1432.3,603.8 Z"
   id="path84" />
		<path
   class="st4"
   d="m 1373.7,594.5 c 25.6,1.3 45.7,5.1 58.7,9.3 1.2,0.3 19,5.5 19.2,5.6 60.6,15 133.3,-5.6 198,-28.6 v -4.7 c -64.8,23.4 -137.1,44.3 -197.1,29.6 -72.4,-21.6 -91.8,-17.3 -198.2,-3.5 -6.6,0.7 -13.2,1.7 -19.8,2.3 -0.2,0 -65.6,7.5 -150.5,-5.8 v 2.9 c 140.2,23.5 207.3,-9.5 289.7,-7.1 z"
   id="path86" />
		<path
   class="st4"
   d="m 1432.3,603.9 v 0 c 0,-0.1 0,-0.1 0,0 0,-0.1 0,-0.1 0,0 z"
   id="path88" />
		<path
   class="st4"
   d="m 1285.1,648.5 c -22.8,-17 -136.3,-19.4 -201.1,-19.3 v 3.7 c 0,0.5 0.1,0.9 0.1,1.4 69,0 189,2.6 199.4,19.5 -7.9,10.1 -128.9,5.2 -199.2,1.4 v 5.1 c 84.2,4.7 230,10 200.8,-11.8 z"
   id="path90" />
		<path
   class="st4"
   d="m 1307.1,631.5 c 30.4,-4.7 233.7,9.5 342.5,0.7 0,-0.2 0,-0.4 0,-0.6 v -4.3 c -107.4,8.5 -313.5,-5.3 -343.3,-0.7 -36.4,5.6 -211,-15.1 -222.4,-16.5 v 5 c 17.3,2 186.3,22 223.2,16.4 z"
   id="path92" />
		<path
   class="st4"
   d="m 1470.7,648.8 c -8.9,16.5 99.9,22.8 179,25.1 v -5 c -81.7,-2.6 -166.2,-8.3 -174.3,-18 10.5,-7.9 116.4,0.3 174.3,5.5 v -2.7 c 0,-0.8 -0.2,-1.6 -0.5,-2.4 -60.6,-5.6 -172.3,-14.1 -178.5,-2.5 z"
   id="path94" />
		<path
   class="st4"
   d="m 1226.8,703.3 c 41.9,5.2 -42.2,2.9 423,10.6 v -5.4 c -130.1,-7 -266.1,-10.3 -393.9,-11.5 -6,-0.8 -40.5,-5.4 -56.9,-5.7 -27.6,-0.6 -67.5,-2.1 -114.6,8 v 5.7 h 0.1 c 72.9,-11.8 138.2,-1.8 142.3,-1.7 z"
   id="path96" />
		<path
   class="st4"
   d="m 1472,691 c 129,13.2 86.6,-2.5 163,-0.3 4.9,0.2 9.8,0.4 14.7,0.7 v -5.5 c -14.4,-1.4 -26.6,-2.1 -35.2,-2.1 -60.5,0.5 -19,10.4 -141.5,-2.6 -50.5,-5.7 -116.1,-15.7 -148.6,-15.6 -74.4,3.7 -159.8,7.5 -240,16.4 v 4 c 321.1,-12.8 214.9,-12.7 387.6,5 z"
   id="path98" />
		<path
   class="st4"
   d="m 1461.3,783.4 c 0.8,-0.2 14,-2.9 14.2,-2.9 45.6,-7.5 123.6,9.2 174.4,23.2 v -2.8 c -42.1,-12 -95.6,-24.1 -135.9,-26.2 -32.2,-1.8 -44.9,2.9 -48.9,3.3 -51.7,10.2 -90.7,-7.8 -142.4,-13.2 -35.8,-4 -168.4,1.2 -238.6,6.8 v 4.1 c 62.3,-2.9 148.4,-6.5 199.6,-7.2 73.9,-1.3 124.4,26.3 177.6,14.9 z m -0.1,0 z"
   id="path100" />
		<path
   class="st4"
   d="m 1484.8,761.3 c 11.6,-0.9 13,-2.3 13.4,-3.6 0.1,-0.4 0.3,-1.3 -0.7,-2.2 -10,-8.9 -63.4,-11.1 -66.3,-11.3 -9.6,-1.1 -91.6,-10.5 -98.5,-0.5 -11.9,17.1 124.4,19.8 152.1,17.6 z m -53.9,-14.7 c 11.8,0.5 55.3,3.2 64.7,10.4 -11,6.1 -154.6,1.1 -160.8,-10.8 -5.4,-10.1 83.8,-1 96.1,0.4 z"
   id="path102" />
		<path
   class="st4"
   d="m 1180.8,800.7 c 15,2.9 36.7,15.2 57.9,19.6 h 26.5 c 2,-0.6 4,-1.3 5.9,-2.2 27.3,-12.8 81.4,-14.5 130.7,-14.5 23.1,0 85.1,8.3 141.6,16.7 h 16.7 c -60.4,-9.1 -132.7,-19.1 -158.2,-19.1 -49.6,0 -104,1.7 -131.8,14.7 -27.6,12.9 -65.6,-13.2 -88.8,-17.6 -15,-2.9 -64,3.4 -97,8.2 v 2.5 c 32.8,-4.8 81.9,-11.1 96.5,-8.3 z"
   id="path104" />
		<path
   class="st4"
   d="m 1196.3,785.1 c 27.6,3.8 8.2,32.8 95.7,7.1 31.9,-9.4 26.1,-8.5 81.3,-2.3 43.8,4.9 103.8,11.7 127.7,9.8 23.1,-1.9 85.4,11.1 126.8,20.6 h 15.9 c 1.1,0 2,-0.3 2.9,-0.7 -38.7,-9.2 -118.2,-27 -145.9,-24.8 -36.2,2.9 -157.7,-14.6 -176.4,-14.6 -18.8,0 -52,16.1 -81.9,17.5 -29.4,1.4 -22.5,-14.4 -45.4,-17.5 -12.9,-1.8 -69.1,2.9 -112.8,7 v 5 c 43.6,-4.1 99.7,-8.8 112.1,-7.1 z"
   id="path106" />
	</g>
	<path
   class="st0"
   d="m 1628.9,644 c -71.9,-2.4 -134.1,-1.4 -201.9,-0.5 -68.1,0.6 -174.3,-4.1 -336.5,0.5 v 0.2 l 539.9,0.1 z"
   id="path110" />
	<path
   class="st6"
   d="m 1619.6,608.3 c 0,-15.3 -6.6,-30 -18.8,-43.6 h -510.5 c -3.5,0 -6.2,2.8 -6.2,6.2 v 62 c 0,3.3 2.5,6 5.7,6.2 l 61.1,5.1 h -60.2 c -3.5,0 -6.3,2.8 -6.2,6.3 l 0.1,65.8 c 0,2.1 1.1,4.1 2.8,5.2 53.7,13.2 117.4,20.9 185.8,20.9 191.2,-0.1 346.4,-60.1 346.4,-134.1 z M 1352,726.9 c 6.6,0 28.1,2 35.2,2.8 0,0 0,0 -0.1,0 -33.7,4.4 -32.6,4.5 -34.1,4.4 l -33.5,-4.4 c 3.9,-0.1 23.8,-2.8 32.5,-2.8 z"
   id="path112" />
</g>
<g
   id="g166"
   transform="translate(-250.89493,0.7)">
	<path
   class="st5"
   d="m 289.4,602.4 c -12.2,0 -22.1,-9.6 -22.2,-21.4 L 267,516.8 c 0,-5.2 1.9,-10.2 5.3,-14 -3.1,-3.7 -4.9,-8.4 -4.9,-13.5 l -0.1,-61.6 c 0,-2.7 1.1,-9.5 2.1,-12 -1.2,-2.7 -2.4,-6.3 -2.4,-9.3 v -53.3 c 0,-11.8 -0.8,-21.6 11.5,-21.6 l 550.8,0.3 c 12.2,0 17.1,9.4 17.1,21.3 V 410 c 0,3.6 -1,7.2 -2.7,10.3 1.7,3.1 2.7,6.6 2.7,10.2 l 0.3,65.3 c 0,2.1 -0.3,4.1 -0.8,6 0.5,1.9 0.8,3.8 0.8,5.8 v 73.3 c 0,11.8 -9.9,21.5 -22.2,21.5 z"
   id="path116" />
	<path
   class="st0"
   d="m 845.9,501.7 v -0.1 c 0.6,-1.9 0.8,-3.8 0.8,-5.8 l -0.3,-65.2 c 0,-3.6 -1,-7.1 -2.7,-10.2 0,-0.1 0.1,-0.2 0.1,-0.3 0,-0.1 -0.1,-0.2 -0.1,-0.3 1.8,-3.1 2.7,-6.7 2.7,-10.3 v -56.4 c 0,-11.8 -4.9,-21.3 -17.1,-21.3 h -39.1 c 0,0.4 0,0.7 0,1.1 V 390 c 0,3.7 -1,7.2 -2.7,10.3 1.7,3.1 2.7,6.6 2.7,10.2 l 0.3,65.5 c 0,2.1 -0.3,4.1 -0.8,6 0.5,1.9 0.8,3.8 0.8,5.8 v 73.5 c 0,11.9 -9.9,21.5 -22.2,21.5 H 267.4 c 0.9,9.4 8.1,17 17.3,18.9 h 0.1 c 0.1,0 0.3,0.1 0.4,0.1 h 0.1 c 0.1,0 0.3,0 0.4,0.1 h 0.1 c 0.1,0 0.3,0 0.4,0.1 0.1,0 0.1,0 0.2,0 0.1,0 0.2,0 0.3,0 0.1,0 0.1,0 0.2,0 0.1,0 0.2,0 0.3,0 0.1,0 0.2,0 0.3,0 0.1,0 0.2,0 0.3,0 0.1,0 0.2,0 0.3,0 0.1,0 0.2,0 0.3,0 0.1,0 0.2,0 0.3,0 0.1,0 0.1,0 0.2,0 0.2,0 0.4,0 0.6,0 h 535.1 c 0.2,0 0.4,0 0.6,0 12,-0.3 21.6,-9.8 21.6,-21.5 v -73.2 c 0,-2 -0.3,-3.9 -0.8,-5.8 -0.1,0.3 -0.1,0.2 -0.1,0.2 z"
   id="path118" />
	<path
   class="st2"
   d="m 270.2,512.5 0.2,68.5 c 0,3.4 2.8,6.2 6.2,6.2 h 553.1 c 3.5,0 6.2,-2.8 6.2,-6.2 v -78.2 c 0,-3.5 -2.8,-6.2 -6.2,-6.2 H 574.1 c -0.3,0 -0.6,0 -0.8,0.1 l -32.4,4.3 c -0.5,0.1 -1.1,0.1 -1.6,0 l -33.5,-4.4 c -0.3,0 -0.5,-0.1 -0.8,-0.1 H 294.1 c -1.1,0 -2.1,0.3 -3,0.8 l -17.6,9.7 c -2.1,1.1 -3.3,3.2 -3.3,5.5 z"
   id="path120" />
	<path
   class="st4"
   d="m 397.7,504.8 c 22.8,-6 63.6,-8 112.1,-7.7 l -4.1,-0.5 v 0 0 c -0.3,0 -0.5,-0.1 -0.8,-0.1 h -66.6 c -16.8,1.2 -30.9,3.2 -41.3,5.9 -53.6,14.1 -98.2,12 -126.5,7.7 -0.1,0.2 -0.1,0.4 -0.2,0.6 v 0 c -0.1,0.2 -0.1,0.4 -0.1,0.6 v 0 c 0,0.1 0,0.2 0,0.2 v 0 c 0,0.1 0,0.2 0,0.3 v 0 c 0,0.1 0,0.2 0,0.2 0,0 0,0 0,0.1 0,0.1 0,0.2 0,0.3 v 0.1 c 28.6,4.5 73.5,6.5 127.5,-7.7 z"
   id="path122" />
	<path
   class="st4"
   d="m 574.1,496.6 c -0.3,0 -0.6,0 -0.8,0.1 l -12.1,1.6 c 97.5,3.3 210.3,12.9 274.9,18.9 v -2.5 c -60.2,-5.6 -162,-14.3 -254.4,-18.1 z"
   id="path124" />
	<path
   class="st4"
   d="m 540.9,501 c -0.5,0.1 -1.1,0.1 -1.6,0 l -11,-1.4 c -45.3,-0.1 -83,2.1 -104.7,7.8 -75.6,19.8 -133.1,7.7 -152.6,2.3 v 0 c -0.1,0.2 -0.2,0.4 -0.3,0.6 v 0 c -0.1,0.2 -0.1,0.4 -0.2,0.6 v 0 c 0,0.1 -0.1,0.2 -0.1,0.3 v 0 c 0,0.1 0,0.2 -0.1,0.3 v 0 c 0,0.1 0,0.2 -0.1,0.3 v 0 c 0,0.1 0,0.2 0,0.3 v 0 c 19.7,5.5 77.7,17.7 153.9,-2.2 67.4,-17.7 291,-0.9 412,9.9 v -2.5 c -76.2,-6.8 -192.9,-16 -285.9,-17.4 z"
   id="path126" />
	<path
   class="st0"
   d="m 569.9,496.5 c -19.3,-7 -63.5,-0.9 -66.3,-0.9 -58.7,0.3 -151.9,-0.1 -210.8,1.4 33.2,0.8 218.9,4.1 218.7,4.1 30.2,3.2 29.3,2.3 31.6,2.1 -0.2,0 31.3,-2.7 31.1,-2.7 73.1,-0.1 183.8,-1.9 257.5,-3.7 -52.7,-1.4 -262,-0.3 -261.8,-0.3 z"
   id="path128" />
	<path
   class="st2"
   d="M 829.5,331.6 H 276.4 c -3.5,0 -6.2,2.8 -6.2,6.2 v 62 c 0,3.3 2.5,6 5.7,6.2 l 63.3,5.2 c 0.2,0 0.3,0 0.5,0 H 814 c 0.9,0 1.9,-0.2 2.7,-0.6 5.4,-2.6 10.7,-4.3 15.4,-6.5 2.2,-1 3.6,-3.2 3.6,-5.7 v -60.8 c 0.1,-3.2 -2.7,-6 -6.2,-6 z"
   id="path130" />
	<path
   class="st0"
   d="m 815.1,411.4 c -71.7,2.4 -131.2,1.4 -201.9,0.5 -65.3,-0.6 -178.3,4 -336.5,-0.5 V 411 c 162.2,-4.7 268.3,0.1 336.5,-0.5 67.8,-0.9 130,-1.9 201.9,0.5 z"
   id="path132" />
	<path
   class="st2"
   d="m 270.5,417.4 0.1,65.8 c 0,2.5 1.5,4.8 3.8,5.7 l 17,7.2 c 0.8,0.3 1.6,0.5 2.4,0.5 h 212.9 c 0.2,0 0.5,0 0.7,0 2.9,-0.3 23.6,-2.7 30.7,-2.7 8,0 30.7,2.4 33.7,2.7 0.2,0 0.4,0 0.7,0 h 257.3 c 3.5,0 6.3,-2.8 6.2,-6.3 l -0.3,-69.7 c 0,-2.9 -2,-5.4 -4.9,-6.1 l -14.4,-3.2 c -0.4,-0.1 -0.9,-0.1 -1.4,-0.1 H 276.7 c -3.4,0 -6.2,2.8 -6.2,6.2 z"
   id="path134" />
	<g
   id="g162">
		<path
   class="st4"
   d="m 400.3,358.9 c 67.6,-7.1 118.3,-20.3 177.4,-10.3 34.6,5.8 61.5,14.1 90.8,12.3 23,-2.4 33.9,-6 69.7,-29.3 H 723 c -3.4,2.2 -6,3.8 -8.3,5 -1.9,0.8 -20.8,13.3 -46.8,15.1 -25.9,1.6 -53.1,-7 -88.5,-13.1 -69.5,-12.1 -128.9,7.1 -202.5,11 -34.1,-0.3 -70.7,-4.1 -106.8,-9.7 v 9.4 c 46.9,8.6 96.3,13.9 130.2,9.6 z"
   id="path136" />
		<path
   class="st4"
   d="m 618.5,370.8 c -0.1,0 -0.1,0 0,0 z"
   id="path138" />
		<path
   class="st4"
   d="m 559.8,361.5 c 25.6,1.3 45.7,5.1 58.7,9.3 1.2,0.3 19,5.5 19.2,5.6 60.6,15 133.3,-5.6 198,-28.6 v -4.7 c -64.8,23.4 -137.1,44.3 -197.1,29.6 -72.4,-21.6 -91.8,-17.3 -198.2,-3.5 -6.6,0.7 -13.2,1.7 -19.8,2.3 -0.2,0 -65.6,7.5 -150.5,-5.8 v 2.9 c 140.2,23.4 207.4,-9.5 289.7,-7.1 z"
   id="path140" />
		<path
   class="st4"
   d="m 618.5,370.8 v 0 z"
   id="path142" />
		<path
   class="st4"
   d="M 471.3,415.5 C 448.5,398.5 335,396.1 270.2,396.2 v 3.7 c 0,0.5 0.1,0.9 0.1,1.4 69,0 189,2.6 199.4,19.5 -7.9,10.1 -128.9,5.2 -199.2,1.4 v 5.1 c 84.1,4.7 230,10 200.8,-11.8 z"
   id="path144" />
		<path
   class="st4"
   d="m 493.3,398.5 c 30.4,-4.7 233.7,9.5 342.5,0.7 0,-0.2 0,-0.4 0,-0.6 v -4.3 c -107.4,8.5 -313.5,-5.3 -343.3,-0.7 -36.4,5.6 -211,-15.1 -222.4,-16.5 v 5 c 17.2,2 186.2,22 223.2,16.4 z"
   id="path146" />
		<path
   class="st4"
   d="m 656.8,415.8 c -8.9,16.5 99.9,22.8 179,25.1 v -5 c -81.7,-2.6 -166.2,-8.3 -174.3,-18 10.5,-7.9 116.4,0.3 174.3,5.5 v -2.7 c 0,-0.8 -0.2,-1.6 -0.5,-2.4 -60.6,-5.6 -172.3,-14.1 -178.5,-2.5 z"
   id="path148" />
		<path
   class="st4"
   d="m 413,470.2 c 41.9,5.2 -42.2,2.9 423,10.6 v -5.4 c -130.1,-7 -266.1,-10.3 -393.9,-11.5 -6,-0.8 -40.5,-5.4 -56.9,-5.7 -27.6,-0.6 -67.5,-2.1 -114.6,8 v 5.7 h 0.1 c 72.9,-11.7 138.2,-1.7 142.3,-1.7 z"
   id="path150" />
		<path
   class="st4"
   d="m 658.2,458 c 129,13.2 86.6,-2.5 163,-0.3 4.9,0.2 9.8,0.4 14.7,0.7 v -5.5 c -14.4,-1.4 -26.6,-2.1 -35.2,-2.1 -60.5,0.5 -19,10.4 -141.5,-2.6 -50.5,-5.7 -116.1,-15.7 -148.6,-15.6 -74.4,3.7 -159.8,7.5 -240,16.4 v 4 c 321.1,-12.8 214.8,-12.7 387.6,5 z"
   id="path152" />
		<path
   class="st4"
   d="m 647.4,550.4 c 0.8,-0.2 14,-2.9 14.2,-2.9 45.6,-7.5 123.6,9.2 174.4,23.2 v -2.8 c -42.1,-12 -95.6,-24.1 -135.9,-26.2 -32.2,-1.8 -44.9,2.9 -48.9,3.3 -51.7,10.2 -90.7,-7.8 -142.4,-13.2 -35.8,-4 -168.4,1.2 -238.6,6.8 v 4.1 c 62.3,-2.9 148.4,-6.5 199.6,-7.2 74,-1.3 124.4,26.3 177.6,14.9 z m 0,0 z"
   id="path154" />
		<path
   class="st4"
   d="m 671,528.3 c 11.6,-0.9 13,-2.3 13.4,-3.6 0.1,-0.4 0.3,-1.3 -0.7,-2.2 -10,-8.9 -63.4,-11.1 -66.3,-11.3 -9.6,-1.1 -91.6,-10.5 -98.5,-0.5 -11.9,17.1 124.4,19.8 152.1,17.6 z m -54,-14.7 c 11.8,0.5 55.3,3.2 64.7,10.4 -11,6.1 -154.6,1.1 -160.8,-10.8 -5.4,-10.1 83.9,-1 96.1,0.4 z"
   id="path156" />
		<path
   class="st4"
   d="m 367,567.7 c 15,2.9 36.7,15.2 57.9,19.6 h 26.5 c 2,-0.6 4,-1.3 5.9,-2.2 27.3,-12.8 81.4,-14.5 130.7,-14.5 23.1,0 85.1,8.3 141.6,16.7 h 16.7 c -60.4,-9.1 -132.7,-19.1 -158.2,-19.1 -49.6,0 -104,1.7 -131.8,14.7 -27.6,12.9 -65.6,-13.2 -88.8,-17.6 -15,-2.9 -64,3.4 -97,8.2 v 2.5 c 32.8,-4.8 81.9,-11.1 96.5,-8.3 z"
   id="path158" />
		<path
   class="st4"
   d="m 382.5,552.1 c 27.6,3.8 8.2,32.8 95.7,7.1 31.9,-9.4 26.1,-8.5 81.3,-2.3 43.8,4.9 103.8,11.7 127.7,9.8 23.1,-1.9 85.4,11.1 126.8,20.6 h 15.9 c 1.1,0 2,-0.3 2.9,-0.7 -38.7,-9.2 -118.2,-27 -145.9,-24.8 -36.2,2.9 -157.7,-14.6 -176.4,-14.6 -18.8,0 -52,16.1 -81.9,17.5 -29.4,1.4 -22.5,-14.4 -45.4,-17.5 -12.9,-1.8 -69.1,2.9 -112.8,7 v 5 c 43.5,-4.1 99.7,-8.8 112.1,-7.1 z"
   id="path160" />
	</g>
	<path
   class="st0"
   d="m 815.1,411 c -71.9,-2.4 -134.1,-1.4 -201.9,-0.5 -68.1,0.6 -174.3,-4.1 -336.5,0.5 v 0.2 l 539.9,0.1 z"
   id="path164" />
</g>
<g
   id="g202"
   transform="translate(-250.89493,0.7)">
	<path
   class="st0"
   d="m 293.8,823 c 0.4,-3 20.8,4.1 17.9,4.2 l -34.9,1.4 c -2.4,0.1 -4.4,-1.8 -4.7,-4.3 L 260.2,694.7 c -0.3,-2.7 15.5,-16.5 15.5,-16.5 1.5,-0.2 33,0 33,0 1.5,-2.9 -39.3,-5.2 -42.1,-5.4 -8.7,-0.5 -8.7,-15.1 -9.5,-21.4 -1.9,-14.2 -4,-30 -6.2,-46.6 -0.3,-2.8 12.8,-13.1 15.5,-13.2 l 167.1,-6.3 c 1.4,-0.1 2.7,0.5 3.6,1.6 l 18.3,22.2 c 3.4,4.2 17.6,6.3 15.5,1.2 L 463,595.4 c -1.3,-3.2 6,-12.5 9.2,-12.6 l 304.7,-13.4 c 2.9,-0.1 5.1,2.6 4.7,5.6 l -6.8,59 c 0,0 -0.8,10.8 -5.9,10.7 l -46.1,6 c -1.3,0.2 -2.4,0.9 -3.1,2 l -2.3,3.5 c -2.3,3.4 0.2,8.1 4.1,7.8 l 43.2,-3.7 c 2.9,-0.3 5.3,2.5 4.9,5.6 l -10.8,79.8 -7.8,13.1 c -22.8,2.7 -40.1,4.2 -42.1,4.5 l 1,11 c -2,0.3 -3.5,1.9 -3.8,4 -0.5,3 1.7,5.7 4.5,5.7 h 38 c 3.9,0 -2.4,50.2 -2.4,50.2 0,0 -8.6,23.7 -16,29.5 l -80.7,1.8 c -0.6,0 -1.2,-0.1 -1.8,-0.4 l -8.2,-3.8 c -0.6,-0.3 -1.1,-0.4 -1.7,-0.4 -134.3,-2.4 -122.8,-4.8 -124.5,-3.7 -8.8,6 -9,7.6 -10.7,7.6 l -221.4,0.8 c -2.3,0 -4.2,-1.8 -4.5,-4.3 l -0.9,-7.6 c -0.6,-2.8 18,-30.7 18,-30.7 z"
   id="path168" />
	<path
   class="st2"
   d="m 331,812.3 0.7,-4.7 c 0.4,-2.8 -1.8,-5.2 -4.5,-5.1 l -33.9,1.3 c -2.3,0.1 -4.3,-1.6 -4.6,-3.9 L 273.6,682.6 c -0.3,-2.5 1.4,-4.7 3.9,-5 l 25.6,-2.9 c 1.4,-0.2 2.7,-1 3.4,-2.3 l 0.7,-1.2 c 1.5,-2.8 -0.3,-6.1 -3.4,-6.5 l -29.6,-3.5 c -2,-0.2 -3.6,-1.8 -3.9,-3.8 l -7.8,-60.8 c -0.3,-2.6 1.6,-4.9 4.2,-5 l 178.5,-7.7 c 1.3,-0.1 2.6,0.5 3.5,1.5 l 17.7,20 c 3.3,3.8 9.4,0 7.4,-4.7 l -5.1,-11.9 c -1.2,-2.8 0.8,-6 3.9,-6.2 l 305.9,-13.2 c 2.8,-0.1 5,2.3 4.6,5.1 l -8.5,59.2 c -0.3,2 -1.9,3.5 -3.8,3.8 l -44.7,5.5 c -1.2,0.1 -2.7,0.7 -3.4,1.7 l -1.9,3.2 c -2.2,3.1 0.2,7.3 3.9,7 l 41.9,-3.4 c 2.8,-0.2 5.1,2.2 4.7,5 l -12.6,87.9 c -0.3,1.9 -1.8,3.5 -3.7,3.8 l -41.6,6.3 c -1.9,0.3 -3.4,1.8 -3.7,3.7 v 0 c -0.5,2.7 1.6,5.2 4.4,5.2 H 751 c 2.7,0 4.8,2.4 4.4,5.1 l -9.3,64.8 c -0.3,2.2 -2.2,3.8 -4.4,3.8 h -86.9 c -0.6,0 -1.2,-0.1 -1.8,-0.4 l -7.9,-3.5 c -0.5,-0.2 -1.1,-0.4 -1.7,-0.4 l -122.1,-2 c -0.9,0 -1.7,0.2 -2.4,0.7 l -7.8,4.9 c -0.7,0.4 -1.5,0.7 -2.4,0.7 H 297.4 c -2.2,0 -4.1,-1.7 -4.4,-3.9 l -0.9,-6.8 c -0.3,-2.4 1.3,-4.5 3.7,-4.9 l 31.6,-5.4 c 1.8,-0.5 3.3,-2 3.6,-3.8 z"
   id="path170" />
	<g
   id="g200">
		<path
   class="st4"
   d="m 646,587.9 c -27.4,-2.9 -51.7,-6.7 -74.8,-9.6 l 61.2,-2.6 c 34.2,3.5 75.2,4.1 140.7,-6.1 l 5.6,-0.2 c 2.8,-0.1 5,2.3 4.6,5.1 l -0.4,2.6 c -0.1,0 -0.1,0 -0.2,0 -39.9,7.7 -96.4,16 -136.7,10.8 z"
   id="path172" />
		<path
   class="st4"
   d="m 361.9,587.4 71.8,-3.1 c -3,0.6 -6.1,1.2 -9.3,1.7 -25.5,4.5 -42.6,6.2 -62.5,1.4 z"
   id="path174" />
		<path
   class="st4"
   d="M 565.9,596.4 C 539.1,593 504.6,588.7 476.6,591 l -6.5,0.6 -1.2,-2.8 c -0.1,-0.3 -0.2,-0.5 -0.2,-0.8 24.4,-2.5 51.8,-0.9 97.7,5.1 25.8,3.2 19.5,3.1 69.2,8.4 33.7,3.4 92.2,1 144.8,-7.5 l -0.4,3 c -99.2,16.9 -165.3,5.7 -214.1,-0.6 z"
   id="path176" />
		<path
   class="st4"
   d="m 263.1,593.8 c 0.7,-1.3 2.1,-2.2 3.7,-2.3 l 2.6,-0.1 c 47.3,13.3 95.9,20.7 138.3,10.4 17.3,-5.2 31.4,-9.1 45.4,-11.5 l 2.9,3.2 c -46.4,6.7 -71.2,35.4 -192.9,0.3 z"
   id="path178" />
		<path
   class="st4"
   d="m 576.5,646.5 c 22,-16.5 134.5,-18.8 199,-18.7 l -0.9,6 c -0.3,2 -1.9,3.5 -3.8,3.8 l -44.7,5.5 c -1.2,0.1 -2.7,0.7 -3.4,1.7 l -1.9,3.2 c -2.2,3.1 0.2,7.3 3.9,7 l 41.9,-3.4 c 1.9,-0.2 3.6,0.9 4.4,2.5 -79.3,4.1 -216.9,9.2 -194.5,-7.6 z"
   id="path180" />
		<path
   class="st4"
   d="m 553.4,625.1 c -25.3,-3.9 -175.6,5.5 -286.8,3.2 l -2.1,-16.6 512.5,-3.2 c 0,0 -185.4,22.4 -223.6,16.6 z"
   id="path182" />
		<path
   class="st4"
   d="m 386.8,648.4 c -6,7.3 -46.3,12 -92.9,15 l -19.6,-2.3 c -2,-0.2 -3.6,-1.8 -3.9,-3.8 l -1.6,-12.2 c 60.6,-4.3 126.4,-6.9 118,3.3 z"
   id="path184" />
		<path
   class="st4"
   d="m 661.1,687.4 c 25.7,-0.6 62.1,-1.9 105.1,6.1 l -0.9,6.1 c -16.2,-2.2 -32.3,-3.5 -46.5,-4 -41.2,-0.7 -61.4,-0.1 -113.9,7.7 -38.6,0.7 -204.1,3.4 -327.9,5.5 l -1,-7.5 c 111.2,-4.9 224,-7.3 328.2,-8.2 6,-0.9 40.6,-5.4 56.9,-5.7 z"
   id="path186" />
		<path
   class="st7"
   d="m 530.2,661.6 c 12.1,-0.4 143.8,5.9 238.3,15.7 l -0.6,4.4 C 457,669.2 561.7,669.3 388.1,687 c -26.1,2.7 -76.4,7.5 -102.2,3.9 -0.1,0 -7,-1.3 -11.5,-2 l -0.8,-6.4 c -0.1,-0.4 0,-0.8 0,-1.2 4.5,0.5 8.9,1.1 13.4,1.8 47.7,5.3 192,-20.4 243.2,-21.5 z"
   id="path188" />
		<path
   class="st4"
   d="m 652.2,713.9 c -0.2,0 9.6,2.4 33.3,7.6 -0.2,0 31.1,6.8 75.3,9.4 l -1.8,12.6 c -32.4,2.8 -71.1,0.4 -111.7,-10.2 -61.8,-15 -237.6,-4.4 -366.3,6.4 L 279.6,729 c 134.7,-18.5 302.1,-31.6 372.6,-15.1 z"
   id="path190" />
		<path
   class="st7"
   d="m 385.5,772.2 c 0.1,0 15.9,3.5 28.3,4.6 l 9.4,0.4 c 37.6,0.6 74.4,-12.2 114.2,-16.4 31.1,-3.4 143.1,0 217.8,5.2 0.3,0.7 0.4,1.5 0.3,2.3 l -0.4,2.5 c -204.3,-9.4 -212.8,-6.9 -255.2,1.2 -45.6,8.7 -62.1,12.2 -96.2,8.2 -10.8,-1 -21.4,-7.1 -57.3,-5.3 -18.4,0.9 -39,3.6 -60,7.4 l -0.5,-3.6 c 36.1,-6.8 72.9,-10.8 99.6,-6.5 z"
   id="path192" />
		<path
   class="st4"
   d="M 385.5,772.2 Z"
   id="path194" />
		<path
   class="st4"
   d="m 361.4,759.7 c 9.9,-8.8 65.6,-11 65.6,-11 0,0 104.7,-12.4 97.4,1.5 -7.2,13.9 -172.9,18.3 -163,9.5 z"
   id="path196" />
		<path
   class="st4"
   d="m 359.3,793.3 c 36.5,2.9 158.3,-14.6 176.6,-14.6 18.2,0 51.6,16.1 81.8,17.5 30.2,1.5 24.5,-14.6 45.8,-17.5 10.5,-1.4 51.2,1.6 89.8,5 l -7.1,49.5 c -0.3,2.2 -2.2,3.8 -4.4,3.8 h -86.9 c -0.6,0 -1.2,-0.1 -1.8,-0.4 l -7.9,-3.5 c -0.5,-0.2 -1.1,-0.4 -1.7,-0.4 l -122.1,-2 c -0.9,0 -1.7,0.2 -2.4,0.7 l -7.8,4.9 c -0.7,0.4 -1.5,0.7 -2.4,0.7 H 297.4 c -2.2,0 -4.1,-1.7 -4.4,-3.9 l -0.9,-6.8 c -0.3,-2.4 1.3,-4.5 3.7,-4.9 l 31.6,-5.4 c 1.9,-0.3 3.3,-1.8 3.6,-3.7 l 0.7,-4.7 c 0.4,-2.8 -1.8,-5.2 -4.5,-5.1 l -33.9,1.3 c -1.6,0.1 -3,-0.7 -3.8,-2 28.6,-5.5 56,-9.6 69.8,-8.5 z"
   id="path198" />
	</g>
</g>
<g
   id="g236"
   transform="translate(-250.89493,0.7)">
	<polyline
   class="st8"
   points="377.9,382.2 326.4,382.2 326.4,370.5 377.9,370.5  "
   id="polyline204" />
	<polygon
   class="st9"
   points="333.9,382.2 331.3,370.5 333.9,370.5 336.5,382.2 "
   id="polygon206" />
	<polygon
   class="st9"
   points="339.1,382.2 336.5,370.5 339.1,370.5 341.7,382.2 "
   id="polygon208" />
	<polygon
   class="st9"
   points="344.3,382.2 341.7,370.5 344.3,370.5 346.9,382.2 "
   id="polygon210" />
	<polyline
   class="st9"
   points="349.5,382.2 346.9,370.5 349.5,370.5  "
   id="polyline212" />
	<polyline
   class="st10"
   points="352.3,386.9 343.8,386.9 343.8,365.8 352.3,365.8  "
   id="polyline214" />
	<polyline
   class="st11"
   points="352.3,386.9 343.8,386.9 343.8,382.3 352.3,382.3  "
   id="polyline216" />
	<polyline
   class="st11"
   points="352.3,370.4 343.8,370.4 343.8,365.8 352.3,365.8  "
   id="polyline218" />
	<polyline
   class="st8"
   points="377.9,468.6 326.4,468.6 326.4,456.9 377.9,456.9  "
   id="polyline220" />
	<polygon
   class="st9"
   points="333.9,468.6 331.3,456.9 333.9,456.9 336.5,468.6 "
   id="polygon222" />
	<polygon
   class="st9"
   points="339.1,468.6 336.5,456.9 339.1,456.9 341.7,468.6 "
   id="polygon224" />
	<polygon
   class="st9"
   points="344.3,468.6 341.7,456.9 344.3,456.9 346.9,468.6 "
   id="polygon226" />
	<polyline
   class="st9"
   points="349.5,468.6 346.9,456.9 349.5,456.9  "
   id="polyline228" />
	<polyline
   class="st10"
   points="352.3,473.3 343.8,473.3 343.8,452.2 352.3,452.2  "
   id="polyline230" />
	<polyline
   class="st11"
   points="352.3,473.3 343.8,473.3 343.8,468.7 352.3,468.7  "
   id="polyline232" />
	<polyline
   class="st11"
   points="352.3,456.8 343.8,456.8 343.8,452.2 352.3,452.2  "
   id="polyline234" />
</g>
<g
   id="g270"
   transform="translate(-250.89493,0.7)">
	<polyline
   class="st8"
   points="377.9,701.2 326.4,701.2 326.4,689.5 377.9,689.5  "
   id="polyline238" />
	<polygon
   class="st9"
   points="333.9,701.2 331.3,689.5 333.9,689.5 336.5,701.2 "
   id="polygon240" />
	<polygon
   class="st9"
   points="339.1,701.2 336.5,689.5 339.1,689.5 341.7,701.2 "
   id="polygon242" />
	<polygon
   class="st9"
   points="344.3,701.2 341.7,689.5 344.3,689.5 346.9,701.2 "
   id="polygon244" />
	<polyline
   class="st9"
   points="349.5,701.2 346.9,689.5 349.5,689.5  "
   id="polyline246" />
	<polyline
   class="st10"
   points="352.3,705.9 343.8,705.9 343.8,684.8 352.3,684.8  "
   id="polyline248" />
	<polyline
   class="st11"
   points="352.3,705.9 343.8,705.9 343.8,701.3 352.3,701.3  "
   id="polyline250" />
	<polyline
   class="st11"
   points="352.3,689.4 343.8,689.4 343.8,684.8 352.3,684.8  "
   id="polyline252" />
	<polyline
   class="st8"
   points="377.9,787.6 326.4,787.6 326.4,775.9 377.9,775.9  "
   id="polyline254" />
	<polygon
   class="st9"
   points="333.9,787.6 331.3,775.9 333.9,775.9 336.5,787.6 "
   id="polygon256" />
	<polygon
   class="st9"
   points="339.1,787.6 336.5,775.9 339.1,775.9 341.7,787.6 "
   id="polygon258" />
	<polygon
   class="st9"
   points="344.3,787.6 341.7,775.9 344.3,775.9 346.9,787.6 "
   id="polygon260" />
	<polyline
   class="st9"
   points="349.5,787.6 346.9,775.9 349.5,775.9  "
   id="polyline262" />
	<polyline
   class="st10"
   points="352.3,792.3 343.8,792.3 343.8,771.2 352.3,771.2  "
   id="polyline264" />
	<polyline
   class="st11"
   points="352.3,792.3 343.8,792.3 343.8,787.7 352.3,787.7  "
   id="polyline266" />
	<polyline
   class="st11"
   points="352.3,775.8 343.8,775.8 343.8,771.2 352.3,771.2  "
   id="polyline268" />
</g>
<g
   id="g304"
   transform="translate(-250.89493,0.7)">
	<polyline
   class="st8"
   points="1548.6,775.9 1600.2,775.9 1600.2,787.6 1548.6,787.6  "
   id="polyline272" />
	<polygon
   class="st9"
   points="1592.6,775.9 1595.2,787.6 1592.6,787.6 1590,775.9 "
   id="polygon274" />
	<polygon
   class="st9"
   points="1587.4,775.9 1590,787.6 1587.4,787.6 1584.8,775.9 "
   id="polygon276" />
	<polygon
   class="st9"
   points="1582.2,775.9 1584.8,787.6 1582.2,787.6 1579.6,775.9 "
   id="polygon278" />
	<polyline
   class="st9"
   points="1577,775.9 1579.6,787.6 1577,787.6  "
   id="polyline280" />
	<polyline
   class="st10"
   points="1574.2,771.2 1582.8,771.2 1582.8,792.3 1574.2,792.3  "
   id="polyline282" />
	<polyline
   class="st11"
   points="1574.2,771.2 1582.8,771.2 1582.8,775.8 1574.2,775.8  "
   id="polyline284" />
	<polyline
   class="st11"
   points="1574.2,787.7 1582.8,787.7 1582.8,792.3 1574.2,792.3  "
   id="polyline286" />
	<polyline
   class="st8"
   points="1548.6,689.5 1600.2,689.5 1600.2,701.2 1548.6,701.2  "
   id="polyline288" />
	<polygon
   class="st9"
   points="1592.6,689.5 1595.2,701.2 1592.6,701.2 1590,689.5 "
   id="polygon290" />
	<polygon
   class="st9"
   points="1587.4,689.5 1590,701.2 1587.4,701.2 1584.8,689.5 "
   id="polygon292" />
	<polygon
   class="st9"
   points="1582.2,689.5 1584.8,701.2 1582.2,701.2 1579.6,689.5 "
   id="polygon294" />
	<polyline
   class="st9"
   points="1577,689.5 1579.6,701.2 1577,701.2  "
   id="polyline296" />
	<polyline
   class="st10"
   points="1574.2,684.8 1582.8,684.8 1582.8,705.9 1574.2,705.9  "
   id="polyline298" />
	<polyline
   class="st11"
   points="1574.2,684.8 1582.8,684.8 1582.8,689.4 1574.2,689.4  "
   id="polyline300" />
	<polyline
   class="st11"
   points="1574.2,701.3 1582.8,701.3 1582.8,705.9 1574.2,705.9  "
   id="polyline302" />
</g>
<g
   id="g338"
   transform="translate(-250.89493,0.7)">
	<polyline
   class="st8"
   points="1548.6,456.9 1600.2,456.9 1600.2,468.6 1548.6,468.6  "
   id="polyline306" />
	<polygon
   class="st9"
   points="1592.6,456.9 1595.2,468.6 1592.6,468.6 1590,456.9 "
   id="polygon308" />
	<polygon
   class="st9"
   points="1587.4,456.9 1590,468.6 1587.4,468.6 1584.8,456.9 "
   id="polygon310" />
	<polygon
   class="st9"
   points="1582.2,456.9 1584.8,468.6 1582.2,468.6 1579.6,456.9 "
   id="polygon312" />
	<polyline
   class="st9"
   points="1577,456.9 1579.6,468.6 1577,468.6  "
   id="polyline314" />
	<polyline
   class="st10"
   points="1574.2,452.2 1582.8,452.2 1582.8,473.3 1574.2,473.3  "
   id="polyline316" />
	<polyline
   class="st11"
   points="1574.2,452.2 1582.8,452.2 1582.8,456.8 1574.2,456.8  "
   id="polyline318" />
	<polyline
   class="st11"
   points="1574.2,468.7 1582.8,468.7 1582.8,473.3 1574.2,473.3  "
   id="polyline320" />
	<polyline
   class="st8"
   points="1548.6,370.5 1600.2,370.5 1600.2,382.2 1548.6,382.2  "
   id="polyline322" />
	<polygon
   class="st9"
   points="1592.6,370.5 1595.2,382.2 1592.6,382.2 1590,370.5 "
   id="polygon324" />
	<polygon
   class="st9"
   points="1587.4,370.5 1590,382.2 1587.4,382.2 1584.8,370.5 "
   id="polygon326" />
	<polygon
   class="st9"
   points="1582.2,370.5 1584.8,382.2 1582.2,382.2 1579.6,370.5 "
   id="polygon328" />
	<polyline
   class="st9"
   points="1577,370.5 1579.6,382.2 1577,382.2  "
   id="polyline330" />
	<polyline
   class="st10"
   points="1574.2,365.8 1582.8,365.8 1582.8,386.9 1574.2,386.9  "
   id="polyline332" />
	<polyline
   class="st11"
   points="1574.2,365.8 1582.8,365.8 1582.8,370.4 1574.2,370.4  "
   id="polyline334" />
	<polyline
   class="st11"
   points="1574.2,382.3 1582.8,382.3 1582.8,386.9 1574.2,386.9  "
   id="polyline336" />
</g>
<g
   id="g342"
   transform="translate(-250.89493,0.7)">
	<rect
   x="466.20001"
   y="239"
   class="st12"
   width="932.70001"
   height="16.4"
   id="rect340" />
</g>
<rect
   x="1214.8051"
   y="286.5"
   class="st13"
   width="108.5"
   height="586.5"
   id="rect344" />
<rect
   x="103.20508"
   y="286.5"
   class="st14"
   width="50.299999"
   height="586.5"
   id="rect346" />
<path
   class="st9"
   d="m 1047.6051,104.4 -9.3,-1.7 c -0.7,-0.1 -1.2,-0.9 -1.1,-1.6 v 0 c 0.1,-0.7 0.9,-1.2 1.6,-1.1 l 9.3,1.7 c 0.7,0.1 1.2,0.9 1.1,1.6 v 0 c -0.1,0.8 -0.8,1.3 -1.6,1.1 z"
   id="path348" />
<path
   class="st15"
   d="m 1057.3051,128 h -27.4 v -15.6 c 0,-7.6 6.1,-13.7 13.7,-13.7 v 0 c 7.6,0 13.7,6.1 13.7,13.7 z"
   id="path350" />
<g
   id="g370"
   transform="translate(-250.89493,0.7)">
	<path
   class="st16"
   d="m 1310.2,178.8 v 0 c -4.2,3.8 -9.7,5.8 -15.3,5.8 h -3.1 c -2.7,0 -5.3,-0.5 -7.7,-1.3 -0.4,9.9 8.9,17.9 19.1,15.1 5,-1.3 9.1,-5.4 10.4,-10.4 1.1,-4.1 0.5,-8.1 -1.3,-11.3 -0.7,0.7 -1.4,1.4 -2.1,2.1 z"
   id="path352" />
	<path
   class="st16"
   d="m 1298.6,168.9 c -0.9,0 -1.9,0.1 -2.9,0.4 h 0.4 c 0.9,-0.1 1.7,-0.2 2.5,-0.4 z"
   id="path354" />
	<path
   class="st8"
   d="m 1295.7,169.2 c 1,-0.2 1.9,-0.3 2.9,-0.4 2.1,-0.6 3.9,-2.1 4.9,-4.2 l 1.6,-3.4 c 0.4,-0.8 0.7,-1.7 0.9,-2.6 -3.8,-1 -7.9,-1.2 -12.1,-0.4 -6.2,1.2 -11.7,4.8 -15.5,9.7 1.2,0.7 2.7,1.2 4.2,1.2 z"
   id="path356" />
	<path
   class="st8"
   d="m 1317.6,165.4 c -0.7,4.2 -2.6,8 -5.3,11.2 1.8,3.2 2.4,7.2 1.3,11.3 -1.3,5 -5.4,9.1 -10.4,10.4 -10.3,2.7 -19.5,-5.2 -19.1,-15.1 -3.9,-1.4 -7.3,-3.8 -10,-7 -0.3,0.9 -0.5,1.9 -0.7,2.9 -2.2,12.6 4.6,23.9 15,28.6 2.7,1.2 4.4,4 4.4,7.1 V 239 h 12.5 v -24.4 c 0,-3.1 1.9,-5.7 4.7,-7 9,-4.1 15.2,-13.2 15.2,-23.7 0,-7.2 -2.9,-13.7 -7.6,-18.5 z"
   id="path358" />
	<path
   class="st15"
   d="m 1276.3,166.3 -5.1,-5.9 c -0.9,-1 -2.6,-0.2 -2.3,1.1 l 1.5,8.2 c 0.4,1.9 1.2,3.7 2.5,5.3 l 1,1.2 c 0,0.1 0.1,0.1 0.1,0.2 0.9,-3 2.4,-5.9 4.3,-8.4 -0.7,-0.5 -1.4,-1.1 -2,-1.7 z"
   id="path360" />
	<path
   class="st15"
   d="m 1317.8,164.1 0.9,-8.3 c 0.5,-4.6 -0.3,-9.2 -2.5,-13.3 l -8,-15.4 h -27.4 V 138 c 0,1.5 1.2,2.8 2.7,2.8 l 9.9,0.2 c 2,0 3.9,1 5.2,2.5 l 4.7,5.6 c 2.3,2.7 3.1,6.2 2.5,9.6 4.5,1.2 8.5,3.6 11.6,6.8 0.2,-0.5 0.3,-0.9 0.4,-1.4 z"
   id="path362" />
	<path
   class="st15"
   d="m 1298.6,168.9 c -0.8,0.2 -1.6,0.4 -2.4,0.4 h -0.4 c -0.2,0.1 -0.5,0.1 -0.7,0.2 -5,1.3 -9.1,5.4 -10.4,10.4 -0.3,1.2 -0.5,2.3 -0.5,3.5 2.5,0.9 5.1,1.3 7.7,1.3 h 3.1 c 5.7,0 11.1,-2.1 15.3,-5.8 v 0 c 0.7,-0.7 1.4,-1.4 2.1,-2.1 -2.8,-4.9 -8,-8.1 -13.8,-7.9 z"
   id="path364" />
	<path
   class="st15"
   d="m 1303.4,164.7 c -1,2.1 -2.8,3.5 -4.9,4.2 5.9,-0.2 11,3 13.7,7.8 2.8,-3.2 4.6,-7.1 5.3,-11.2 -3.2,-3.2 -7.2,-5.6 -11.6,-6.8 -0.2,0.9 -0.5,1.7 -0.9,2.6 z"
   id="path366" />
	<path
   class="st8"
   d="m 1284,183.3 c 0,-1.1 0.2,-2.3 0.5,-3.5 1.3,-5 5.4,-9.1 10.4,-10.4 0.2,-0.1 0.5,-0.1 0.7,-0.2 l -13.2,-0.1 c -1.5,0 -2.9,-0.4 -4.2,-1.2 -1.9,2.5 -3.4,5.3 -4.3,8.4 2.8,3.2 6.3,5.6 10.1,7 z"
   id="path368" />
</g>
<g
   id="g390"
   transform="translate(-250.89493,0.7)">
	<path
   class="st16"
   d="m 565.3,178.8 v 0 c 4.2,3.8 9.7,5.8 15.3,5.8 h 3.1 c 2.7,0 5.3,-0.5 7.7,-1.3 0.4,9.9 -8.9,17.9 -19.1,15.1 -5,-1.3 -9.1,-5.4 -10.4,-10.4 -1.1,-4.1 -0.5,-8.1 1.3,-11.3 0.6,0.7 1.3,1.4 2.1,2.1 z"
   id="path372" />
	<path
   class="st16"
   d="m 576.9,168.9 c 0.9,0 1.9,0.1 2.9,0.4 h -0.4 c -1,-0.1 -1.8,-0.2 -2.5,-0.4 z"
   id="path374" />
	<path
   class="st8"
   d="m 579.7,169.2 c -1,-0.2 -1.9,-0.3 -2.9,-0.4 -2.1,-0.6 -3.9,-2.1 -4.9,-4.2 l -1.6,-3.4 c -0.4,-0.8 -0.7,-1.7 -0.9,-2.6 3.8,-1 7.9,-1.2 12.1,-0.4 6.2,1.2 11.7,4.8 15.5,9.7 -1.2,0.7 -2.7,1.2 -4.2,1.2 z"
   id="path376" />
	<path
   class="st8"
   d="m 557.9,165.4 c 0.7,4.2 2.6,8 5.3,11.2 -1.8,3.2 -2.4,7.2 -1.3,11.3 1.3,5 5.4,9.1 10.4,10.4 10.3,2.7 19.5,-5.2 19.1,-15.1 3.9,-1.4 7.3,-3.8 10,-7 0.3,0.9 0.5,1.9 0.7,2.9 2.2,12.6 -4.6,23.9 -15,28.6 -2.7,1.2 -4.4,4 -4.4,7.1 V 239 h -12.5 v -24.4 c 0,-3.1 -1.9,-5.7 -4.7,-7 -9,-4.1 -15.2,-13.2 -15.2,-23.7 -0.1,-7.2 2.8,-13.7 7.6,-18.5 z"
   id="path378" />
	<path
   class="st15"
   d="m 599.1,166.3 5.1,-5.9 c 0.9,-1 2.6,-0.2 2.3,1.1 l -1.5,8.2 c -0.4,1.9 -1.2,3.7 -2.5,5.3 l -1,1.2 c 0,0.1 -0.1,0.1 -0.1,0.2 -0.9,-3 -2.4,-5.9 -4.3,-8.4 0.7,-0.5 1.4,-1.1 2,-1.7 z"
   id="path380" />
	<path
   class="st15"
   d="m 557.7,164.1 -0.9,-8.3 c -0.5,-4.6 0.3,-9.2 2.5,-13.3 l 8,-15.4 h 27.4 V 138 c 0,1.5 -1.2,2.8 -2.7,2.8 l -9.9,0.2 c -2,0 -3.9,1 -5.2,2.5 l -4.7,5.6 c -2.3,2.7 -3.1,6.2 -2.5,9.6 -4.5,1.2 -8.5,3.6 -11.6,6.8 -0.3,-0.5 -0.4,-0.9 -0.4,-1.4 z"
   id="path382" />
	<path
   class="st15"
   d="m 576.9,168.9 c 0.8,0.2 1.6,0.4 2.4,0.4 h 0.4 c 0.2,0.1 0.5,0.1 0.7,0.2 5,1.3 9.1,5.4 10.4,10.4 0.3,1.2 0.5,2.3 0.5,3.5 -2.5,0.9 -5.1,1.3 -7.7,1.3 h -3.1 c -5.7,0 -11.1,-2.1 -15.3,-5.8 v 0 c -0.7,-0.7 -1.4,-1.4 -2.1,-2.1 2.7,-4.9 7.9,-8.1 13.8,-7.9 z"
   id="path384" />
	<path
   class="st15"
   d="m 572,164.7 c 1,2.1 2.8,3.5 4.9,4.2 -5.9,-0.2 -11,3 -13.7,7.8 -2.8,-3.2 -4.6,-7.1 -5.3,-11.2 3.2,-3.2 7.2,-5.6 11.6,-6.8 0.2,0.9 0.5,1.7 0.9,2.6 z"
   id="path386" />
	<path
   class="st8"
   d="m 591.4,183.3 c 0,-1.1 -0.2,-2.3 -0.5,-3.5 -1.3,-5 -5.4,-9.1 -10.4,-10.4 -0.2,-0.1 -0.5,-0.1 -0.7,-0.2 l 13.2,-0.1 c 1.5,0 2.9,-0.4 4.2,-1.2 1.9,2.5 3.4,5.3 4.3,8.4 -2.8,3.2 -6.2,5.6 -10.1,7 z"
   id="path388" />
</g>
<rect
   x="369.5051"
   y="219.2"
   class="st17"
   width="125.9"
   height="20.5"
   id="rect392" />
<rect
   x="395.5051"
   y="202.89999"
   class="st17"
   width="71.5"
   height="16.299999"
   id="rect394" />
<g
   id="g404"
   transform="translate(-250.89493,0.7)">
	<path
   class="st15"
   d="m 583,109 c 3.8,-0.3 7.3,-1.7 10.6,-3.5 -2.3,-4.4 -6.9,-7.5 -12.2,-7.5 -3.5,0 -6.7,1.4 -9.2,3.6 2.9,3.2 6.2,7.7 10.8,7.4 z"
   id="path396" />
	<path
   class="st15"
   d="m 580.1,120.8 c -5,-0.4 -9,-3.5 -12.4,-6.9 v 13.4 h 27.4 v -9.5 c -4.7,2.1 -9.9,3.5 -15,3 z"
   id="path398" />
	<path
   class="st18"
   d="m 673.6,135.4 c -5.3,-12.4 -12.6,-22.2 -24,-29.8 -10.3,-6.9 -24,-15.8 -36.8,-11.4 -6.9,2.4 -12.8,7.7 -19.3,11.3 1,1.9 1.5,4 1.5,6.2 v 6.1 c 0.7,-0.3 1.4,-0.6 2.1,-1 7.8,-3.9 17.5,-14.7 27,-11.4 6.3,2.2 12.6,6 18.2,9.6 5.7,3.6 10.8,8 14.5,13.7 7.6,11.9 11.7,26 14.7,39.6 2.9,13.3 5,27.9 2.8,41.4 -1.2,7.5 10.3,10.7 11.5,3.2 4.1,-25.4 -2.2,-54.1 -12.2,-77.5 z"
   id="path400" />
	<path
   class="st15"
   d="m 593.5,105.5 c -3.3,1.8 -6.8,3.2 -10.6,3.5 -4.6,0.3 -7.9,-4.2 -10.8,-7.4 -2.8,2.5 -4.5,6.1 -4.5,10.2 v 2.2 c 3.5,3.4 7.5,6.5 12.4,6.9 5.2,0.4 10.3,-0.9 15,-3 v -6.1 c 0.1,-2.3 -0.5,-4.4 -1.5,-6.3 z"
   id="path402" />
</g>
<rect
   x="416.60507"
   y="192.2"
   class="st17"
   width="26.9"
   height="26.9"
   id="rect406" />
<polygon
   class="st19"
   points="1437.7,272.3 1436,278.2 1438.5,273.5 1441.6,270.1 1445.8,266.9 1441,268.8 "
   id="polygon408"
   transform="translate(-250.89493,0.7)" />
<g
   id="g412"
   transform="translate(-250.89493,0.7)">
	<polygon
   class="st19"
   points="1485.5,353 1483.8,358.8 1486.3,354.1 1489.4,350.8 1493.5,347.5 1488.8,349.4 "
   id="polygon410" />
</g>
<g
   id="g418"
   transform="translate(-250.89493,0.7)">
	<circle
   class="st20"
   cx="1555.6"
   cy="807.5"
   r="10"
   id="circle414" />
	<path
   class="st19"
   d="m 1560.7,802.5 -4.7,1.9 -3.3,3.5 -1.7,5.8 2.5,-4.7 v 0 c 2.1,-2.2 4.3,-4.2 6.7,-6.1 z"
   id="path416" />
</g>
<g
   id="g424"
   transform="translate(-250.89493,0.7)">
	<circle
   class="st20"
   cx="1555.6"
   cy="353.20001"
   r="10"
   id="circle420" />
	<path
   class="st19"
   d="m 1560.7,348.1 -4.7,1.9 -3.3,3.5 -1.7,5.8 2.5,-4.7 v 0 c 2.1,-2.2 4.3,-4.2 6.7,-6.1 z"
   id="path422" />
</g>
<g
   id="g430"
   transform="translate(-250.89493,0.7)">
	<circle
   class="st20"
   cx="378.79999"
   cy="352.5"
   r="10"
   id="circle426" />
	<polygon
   class="st19"
   points="375.9,353 374.2,358.8 376.7,354.1 379.8,350.8 383.9,347.5 379.2,349.4 "
   id="polygon428" />
</g>
<g
   id="g436"
   transform="translate(-250.89493,0.7)">
	<circle
   class="st20"
   cx="378.79999"
   cy="781.79999"
   r="10"
   id="circle432" />
	<path
   class="st19"
   d="m 383.9,776.7 -4.7,1.9 -3.3,3.5 -1.7,5.8 2.5,-4.7 v 0 c 2.1,-2.2 4.3,-4.2 6.7,-6.1 z"
   id="path434" />
</g>
<path
   class="st20"
   d="M 103.20507,389.2"
   id="path438" />
<g
   id="g444"
   transform="translate(-250.89493,0.7)">
	<g
   id="g442">
		<path
   class="st21"
   d="m 385.4,573 c -20.3,0 -42,-13 -42,-49.4 0,-40.8 43.3,-45.9 43.7,-46 l 0.7,6.7 c -1.5,0.2 -37.6,4.6 -37.6,39.2 0,39.5 27,42.6 35.2,42.6 z"
   id="path440" />
	</g>
</g>
<path
   class="st22"
   d="m 148.80507,520.8 c -13.5,0 -24.5,-11 -24.5,-24.5 V 467 c 0,-13.5 11,-24.5 24.5,-24.5"
   id="path446" />
<g
   id="g450"
   transform="translate(-250.89493,0.7)">
	<path
   class="st21"
   d="m 385.4,657.9 c -20.3,0 -42,-13 -42,-49.4 0,-40.8 43.3,-45.9 43.7,-46 l 0.7,6.7 c -1.5,0.2 -37.6,4.6 -37.6,39.2 0,39.5 27,42.6 35.2,42.6 z"
   id="path448" />
</g>
<path
   class="st22"
   d="m 148.80507,609.4 c -13.5,0 -24.5,-11 -24.5,-24.5 v -29.3 c 0,-13.5 11,-24.5 24.5,-24.5"
   id="path452" />
<path
   class="st22"
   d="m 149.20507,697.7 c -13.5,0 -24.5,-11 -24.5,-24.5 v -29.3 c 0,-13.5 11,-24.5 24.5,-24.5"
   id="path454" />
<g
   id="g458"
   transform="translate(-250.89493,0.7)">
	<path
   class="st23"
   d="m 1481.1,432.4 c 20.3,0 42,13 42,49.4 0,40.8 -43.3,45.9 -43.7,46 l -0.7,-6.7 c 1.5,-0.2 37.6,-4.6 37.6,-39.2 0,-39.5 -27,-42.6 -35.2,-42.6 z"
   id="path456" />
</g>
<path
   class="st22"
   d="m 1215.9051,485.9 c 13.5,0 24.5,11 24.5,24.5 v 29.3 c 0,13.5 -11,24.5 -24.5,24.5"
   id="path460" />
<polyline
   class="st24"
   points="1471.8,681 1471.8,610.1 1564,610.1 1564,777.8 1471.8,777.8 1471.8,681 "
   id="polyline462"
   transform="translate(-250.89493,0.7)" />
<g
   id="g466"
   transform="translate(-250.89493,0.7)">
	<path
   class="st23"
   d="m 1481.1,347.4 c 20.3,0 42,13 42,49.4 0,40.8 -43.3,45.9 -43.7,46 l -0.7,-6.7 c 1.5,-0.2 37.6,-4.6 37.6,-39.2 0,-39.5 -27,-42.6 -35.2,-42.6 z"
   id="path464" />
</g>
<path
   class="st22"
   d="m 1215.9051,397.3 c 13.5,0 24.5,11 24.5,24.5 v 29.3 c 0,13.5 -11,24.5 -24.5,24.5"
   id="path468" />
<path
   class="st22"
   d="m 1215.6051,309.1 c 13.5,0 24.5,11 24.5,24.5 v 29.3 c 0,13.5 -11,24.5 -24.5,24.5"
   id="path470" />
<rect
   x="1242.8051"
   y="624.10004"
   class="st16"
   width="68.599998"
   height="18.6"
   id="rect472" />
<text
   class="st11 st25 st26"
   id="text474"
   x="1242.8395"
   y="629.52008">DEPOSIT</text>
<path
   class="st27"
   d="m 1303.0051,683.2 h -72.5 c -3.3,0 -6,-2.7 -6,-6 v -32.1 c 0,-3.3 2.7,-6 6,-6 h 72.5 c 3.3,0 6,2.7 6,6 v 32.1 c 0,3.3 -2.7,6 -6,6 z"
   id="path476"
   style="fill:#3c4c41;fill-opacity:1" />
<g
   id="g530"
   transform="translate(-250.89493,0.7)">
	<polygon
   class="st9"
   points="1537,748.2 1537,733 1531.5,753.1 1537.3,765.5 1537.9,765.5 1545.7,765.5 1546.2,765.5 1552.1,753.1 1546.5,733 1546.5,748.2 "
   id="polygon478" />
	<rect
   x="1536.9"
   y="699.59998"
   class="st28"
   width="9.5"
   height="58.099998"
   id="rect480" />
	<g
   id="g526">
		<path
   class="st29"
   d="m 1545.9,764.1 -5.7,-0.5 c -0.6,-0.1 -1.1,-0.6 -1,-1.3 l 3.1,-33.4 c 0.1,-0.6 0.6,-1.1 1.3,-1 l 5.7,0.5 c 0.6,0.1 1.1,0.6 1,1.3 l -3.1,33.4 c -0.1,0.6 -0.7,1.1 -1.3,1 z"
   id="path482" />
		
			<rect
   x="1545.8"
   y="727.5"
   transform="matrix(0.09303359,-0.9957,0.9957,0.09303359,674.3729,2202.2996)"
   class="st30"
   width="0.5"
   height="6.9000001"
   id="rect484" />
		
			<rect
   x="1545.9"
   y="726"
   transform="matrix(0.09303359,-0.9957,0.9957,0.09303359,676.0469,2201.0227)"
   class="st30"
   width="0.5"
   height="6.9000001"
   id="rect486" />
		
			<rect
   x="1545.4"
   y="730.70001"
   transform="matrix(0.09303359,-0.9957,0.9957,0.09303359,670.9044,2204.8247)"
   class="st30"
   width="0.5"
   height="6.9000001"
   id="rect488" />
		
			<rect
   x="1545.6"
   y="729.09998"
   transform="matrix(0.09303359,-0.9957,0.9957,0.09303359,672.6826,2203.4839)"
   class="st30"
   width="0.5"
   height="6.9000001"
   id="rect490" />
		
			<rect
   x="1545.2"
   y="733.59998"
   transform="matrix(0.09303359,-0.9957,0.9957,0.09303359,667.7778,2207.2449)"
   class="st30"
   width="0.5"
   height="6.9000001"
   id="rect492" />
		
			<rect
   x="1545.3"
   y="732.09998"
   transform="matrix(0.09303359,-0.9957,0.9957,0.09303359,669.4588,2205.978)"
   class="st30"
   width="0.5"
   height="6.9000001"
   id="rect494" />
		
			<rect
   x="1545"
   y="736.70001"
   transform="matrix(0.09303359,-0.9957,0.9957,0.09303359,664.5265,2209.8213)"
   class="st30"
   width="0.5"
   height="6.9000001"
   id="rect496" />
		
			<rect
   x="1545"
   y="735.09998"
   transform="matrix(0.09303359,-0.9957,0.9957,0.09303359,666.1265,2208.4473)"
   class="st30"
   width="0.5"
   height="6.9000001"
   id="rect498" />
		
			<rect
   x="1544.6"
   y="739.90002"
   transform="matrix(0.09303359,-0.9957,0.9957,0.09303359,661.0578,2212.3467)"
   class="st30"
   width="0.5"
   height="6.9000001"
   id="rect500" />
		
			<rect
   x="1544.8"
   y="738.29999"
   transform="matrix(0.09303359,-0.9957,0.9957,0.09303359,662.7385,2211.0801)"
   class="st30"
   width="0.5"
   height="6.9000001"
   id="rect502" />
		
			<rect
   x="1544.3"
   y="742.79999"
   transform="matrix(0.09303359,-0.9957,0.9957,0.09303359,657.857,2214.6694)"
   class="st30"
   width="0.5"
   height="6.9000001"
   id="rect504" />
		
			<rect
   x="1544.4"
   y="741.20001"
   transform="matrix(0.09303359,-0.9957,0.9957,0.09303359,659.5309,2213.3921)"
   class="st30"
   width="0.5"
   height="6.9000001"
   id="rect506" />
		
			<rect
   x="1544"
   y="745.90002"
   transform="matrix(0.09303359,-0.9957,0.9957,0.09303359,654.4052,2217.1982)"
   class="st30"
   width="0.5"
   height="6.9000001"
   id="rect508" />
		
			<rect
   x="1544.2"
   y="744.29999"
   transform="matrix(0.09303359,-0.9957,0.9957,0.09303359,656.2572,2215.9551)"
   class="st30"
   width="0.5"
   height="6.9000001"
   id="rect510" />
		
			<rect
   x="1543.7"
   y="749"
   transform="matrix(0.09303359,-0.9957,0.9957,0.09303359,651.1146,2219.7573)"
   class="st30"
   width="0.5"
   height="6.9000001"
   id="rect512" />
		
			<rect
   x="1544"
   y="747.5"
   transform="matrix(0.09303359,-0.9957,0.9957,0.09303359,652.8694,2218.5879)"
   class="st30"
   width="0.5"
   height="6.9000001"
   id="rect514" />
		
			<rect
   x="1543.5"
   y="752.09998"
   transform="matrix(0.09303359,-0.9957,0.9957,0.09303359,647.783,2222.3323)"
   class="st30"
   width="0.5"
   height="6.9000001"
   id="rect516" />
		
			<rect
   x="1543.5"
   y="750.5"
   transform="matrix(0.09303359,-0.9957,0.9957,0.09303359,649.4801,2220.884)"
   class="st30"
   width="0.5"
   height="6.9000001"
   id="rect518" />
		
			<rect
   x="1543.1"
   y="755.5"
   transform="matrix(0.09303359,-0.9957,0.9957,0.09303359,644.1618,2224.9634)"
   class="st30"
   width="0.5"
   height="6.9000001"
   id="rect520" />
		
			<rect
   x="1543.3"
   y="753.90002"
   transform="matrix(0.09303359,-0.9957,0.9957,0.09303359,645.9167,2223.7939)"
   class="st30"
   width="0.5"
   height="6.9000001"
   id="rect522" />
		
			<rect
   x="1543"
   y="757.09998"
   transform="matrix(0.09303359,-0.9957,0.9957,0.09303359,642.4481,2226.3186)"
   class="st30"
   width="0.5"
   height="6.9000001"
   id="rect524" />
	</g>
	<polygon
   class="st31"
   points="1539.7,757.4 1543.9,757.4 1548.4,752.9 1552.1,752.9 1546.2,765.5 1537.3,765.5 1531.5,753.1 1535.3,753.1 "
   id="polygon528" />
</g>
<rect
   x="1226.1051"
   y="701.40002"
   class="st32"
   width="12.7"
   height="12.7"
   id="rect532" />
<rect
   x="1241.8051"
   y="701.40002"
   class="st32"
   width="12.7"
   height="12.7"
   id="rect534" />
<rect
   x="1257.3051"
   y="701.40002"
   class="st32"
   width="12.7"
   height="12.7"
   id="rect536" />
<rect
   x="1226.1051"
   y="717.5"
   class="st32"
   width="12.7"
   height="12.7"
   id="rect538" />
<rect
   x="1241.8051"
   y="717.5"
   class="st32"
   width="12.7"
   height="12.7"
   id="rect540" />
<rect
   x="1226.1051"
   y="733"
   class="st32"
   width="12.7"
   height="12.7"
   id="rect542" />
<rect
   x="1241.8051"
   y="733"
   class="st32"
   width="12.7"
   height="12.7"
   id="rect544" />
<rect
   x="1257.3051"
   y="733"
   class="st32"
   width="12.7"
   height="12.7"
   id="rect546" />
<g
   id="g564"
   transform="translate(-250.89493,0.7)">
	<path
   class="st33"
   d="m 1487.4,657.6 h 0.7 v 0.7 h -0.7 z m 0,0.7 h 0.7 v 0.7 h -0.7 z m 0,2 h 0.7 v 0.7 h -0.7 z m 0,0.7 h 0.7 v 0.7 h -0.7 z m 0,0.7 h 0.7 v 0.7 h -0.7 z m 0,0.7 h 0.7 v 0.7 h -0.7 z m 0,0.7 h 0.7 v 0.7 h -0.7 z m 0,0.6 h 0.7 v 0.7 h -0.7 z m 0.7,-6.1 h 0.7 v 0.7 h -0.7 z m 0,0.7 h 0.7 v 0.7 h -0.7 z m 0,2 h 0.7 v 0.7 h -0.7 z m 0,0.7 h 0.7 v 0.7 h -0.7 z m 0,0.7 h 0.7 v 0.7 h -0.7 z m 0,0.7 h 0.7 v 0.7 h -0.7 z m 0,0.7 h 0.7 v 0.7 h -0.7 z m 0,0.6 h 0.7 v 0.7 h -0.7 z m 0.7,-6.1 h 0.7 v 0.7 h -0.7 z m 0,0.7 h 0.7 v 0.7 h -0.7 z m 0,2 h 0.7 v 0.7 h -0.7 z m 0,0.7 h 0.7 v 0.7 h -0.7 z m 0,2.1 h 0.7 v 0.7 h -0.7 z m 0,0.6 h 0.7 v 0.7 h -0.7 z m 0.6,-6.1 h 0.7 v 0.7 h -0.7 z m 0,0.7 h 0.7 v 0.7 h -0.7 z m 0,2 h 0.7 v 0.7 h -0.7 z m 0,0.7 h 0.7 v 0.7 h -0.7 z m 0,2.1 h 0.7 v 0.7 h -0.7 z m 0,0.6 h 0.7 v 0.7 h -0.7 z m 0.7,-6.1 h 0.7 v 0.7 h -0.7 z m 0,0.7 h 0.7 v 0.7 h -0.7 z m 0,2 h 0.7 v 0.7 h -0.7 z m 0,0.7 h 0.7 v 0.7 h -0.7 z m 0,2.1 h 0.7 v 0.7 h -0.7 z m 0,0.6 h 0.7 v 0.7 h -0.7 z m 0.7,-6.1 h 0.7 v 0.7 h -0.7 z m 0,0.7 h 0.7 v 0.7 h -0.7 z m 0,2 h 0.7 v 0.7 h -0.7 z m 0,0.7 h 0.7 v 0.7 h -0.7 z m 0,2.1 h 0.7 v 0.7 h -0.7 z m 0,0.6 h 0.7 v 0.7 h -0.7 z m 0.7,-6.1 h 0.7 v 0.7 h -0.7 z m 0,0.7 h 0.7 v 0.7 h -0.7 z m 0,2 h 0.7 v 0.7 h -0.7 z m 0,0.7 h 0.7 v 0.7 h -0.7 z m 0,2.1 h 0.7 v 0.7 h -0.7 z m 0,0.6 h 0.7 v 0.7 h -0.7 z m 0.7,-6.1 h 0.7 v 0.7 h -0.7 z m 0,0.7 h 0.7 v 0.7 h -0.7 z m 0,2 h 0.7 v 0.7 h -0.7 z m 0,0.7 h 0.7 v 0.7 h -0.7 z m 0,2.1 h 0.7 v 0.7 h -0.7 z m 0,0.6 h 0.7 v 0.7 h -0.7 z m 0.7,-6.1 h 0.7 v 0.7 h -0.7 z m 0,0.7 h 0.7 v 0.7 h -0.7 z m 0,0.7 h 0.7 v 0.7 h -0.7 z m 0,0.6 h 0.7 v 0.7 h -0.7 z m 0,0.7 h 0.7 v 0.7 h -0.7 z m 0,0.7 h 0.7 v 0.7 h -0.7 z m 0,2.1 h 0.7 v 0.7 h -0.7 z m 0,0.6 h 0.7 v 0.7 h -0.7 z m 0.7,-6.1 h 0.7 v 0.7 h -0.7 z m 0,0.7 h 0.7 v 0.7 h -0.7 z m 0,0.7 h 0.7 v 0.7 h -0.7 z m 0,0.6 h 0.7 v 0.7 h -0.7 z m 0,0.7 h 0.7 v 0.7 h -0.7 z m 0,0.7 h 0.7 v 0.7 h -0.7 z m 0,2.1 h 0.7 v 0.7 h -0.7 z m 0,0.6 h 0.7 v 0.7 h -0.7 z"
   id="path548" />
	<path
   class="st33"
   d="m 1495.1,657.6 h 0.7 v 0.7 h -0.7 z m 0,0.7 h 0.7 v 0.7 h -0.7 z m 0,0.7 h 0.7 v 0.7 h -0.7 z m 0,0.6 h 0.7 v 0.7 h -0.7 z m 0,0.7 h 0.7 v 0.7 h -0.7 z m 0,0.7 h 0.7 v 0.7 h -0.7 z m 0,2.1 h 0.7 v 0.7 h -0.7 z m 0,0.6 h 0.7 v 0.7 h -0.7 z m 0.7,-6.1 h 0.7 v 0.7 h -0.7 z m 0,0.7 h 0.7 v 0.7 h -0.7 z m 0,0.7 h 0.7 v 0.7 h -0.7 z m 0,0.6 h 0.7 v 0.7 h -0.7 z m 0,0.7 h 0.7 v 0.7 h -0.7 z m 0,0.7 h 0.7 v 0.7 h -0.7 z m 0,2.1 h 0.7 v 0.7 h -0.7 z m 0,0.6 h 0.7 v 0.7 h -0.7 z m 0.7,-6.1 h 0.7 v 0.7 h -0.7 z m 0,0.7 h 0.7 v 0.7 h -0.7 z m 0,2 h 0.7 v 0.7 h -0.7 z m 0,0.7 h 0.7 v 0.7 h -0.7 z m 0,2.1 h 0.7 v 0.7 h -0.7 z m 0,0.6 h 0.7 v 0.7 h -0.7 z m 0.6,-6.1 h 0.7 v 0.7 h -0.7 z m 0,0.7 h 0.7 v 0.7 h -0.7 z m 0,2 h 0.7 v 0.7 h -0.7 z m 0,0.7 h 0.7 v 0.7 h -0.7 z m 0,2.1 h 0.7 v 0.7 h -0.7 z m 0,0.6 h 0.7 v 0.7 h -0.7 z m 0.7,-6.1 h 0.7 v 0.7 h -0.7 z m 0,0.7 h 0.7 v 0.7 h -0.7 z m 0,2 h 0.7 v 0.7 h -0.7 z m 0,0.7 h 0.7 v 0.7 h -0.7 z m 0,2.1 h 0.7 v 0.7 h -0.7 z m 0,0.6 h 0.7 v 0.7 h -0.7 z m 0.7,-6.1 h 0.7 v 0.7 h -0.7 z m 0,0.7 h 0.7 v 0.7 h -0.7 z m 0,2 h 0.7 v 0.7 h -0.7 z m 0,0.7 h 0.7 v 0.7 h -0.7 z m 0,2.1 h 0.7 v 0.7 h -0.7 z m 0,0.6 h 0.7 v 0.7 h -0.7 z m 0.7,-6.1 h 0.7 v 0.7 h -0.7 z m 0,0.7 h 0.7 v 0.7 h -0.7 z m 0,2 h 0.7 v 0.7 h -0.7 z m 0,0.7 h 0.7 v 0.7 h -0.7 z m 0,2.1 h 0.7 v 0.7 h -0.7 z m 0,0.6 h 0.7 v 0.7 h -0.7 z m 0.7,-6.1 h 0.7 v 0.7 h -0.7 z m 0,0.7 h 0.7 v 0.7 h -0.7 z m 0,2 h 0.7 v 0.7 h -0.7 z m 0,0.7 h 0.7 v 0.7 h -0.7 z m 0,2.1 h 0.7 v 0.7 h -0.7 z m 0,0.6 h 0.7 v 0.7 h -0.7 z m 0.7,-6.1 h 0.7 v 0.7 h -0.7 z m 0,0.7 h 0.7 v 0.7 h -0.7 z m 0,2 h 0.7 v 0.7 h -0.7 z m 0,0.7 h 0.7 v 0.7 h -0.7 z m 0,0.7 h 0.7 v 0.7 h -0.7 z m 0,0.7 h 0.7 v 0.7 h -0.7 z m 0,0.7 h 0.7 v 0.7 h -0.7 z m 0,0.6 h 0.7 v 0.7 h -0.7 z m 0.6,-6.1 h 0.7 v 0.7 h -0.7 z m 0,0.7 h 0.7 v 0.7 h -0.7 z m 0,2 h 0.7 v 0.7 h -0.7 z m 0,0.7 h 0.7 v 0.7 h -0.7 z m 0,0.7 h 0.7 v 0.7 h -0.7 z m 0,0.7 h 0.7 v 0.7 h -0.7 z m 0,0.7 h 0.7 v 0.7 h -0.7 z m 0,0.6 h 0.7 v 0.7 h -0.7 z"
   id="path550" />
	<path
   class="st33"
   d="m 1502.8,657.6 h 0.7 v 0.7 h -0.7 z m 0,0.7 h 0.7 v 0.7 h -0.7 z m 0,0.7 h 0.7 v 0.7 h -0.7 z m 0,0.6 h 0.7 v 0.7 h -0.7 z m 0,0.7 h 0.7 v 0.7 h -0.7 z m 0,0.7 h 0.7 v 0.7 h -0.7 z m 0,0.7 h 0.7 v 0.7 h -0.7 z m 0,0.7 h 0.7 v 0.7 h -0.7 z m 0,0.7 h 0.7 v 0.7 h -0.7 z m 0,0.6 h 0.7 v 0.7 h -0.7 z m 0.7,-6.1 h 0.7 v 0.7 h -0.7 z m 0,0.7 h 0.7 v 0.7 h -0.7 z m 0,0.7 h 0.7 v 0.7 h -0.7 z m 0,0.6 h 0.7 v 0.7 h -0.7 z m 0,0.7 h 0.7 v 0.7 h -0.7 z m 0,0.7 h 0.7 v 0.7 h -0.7 z m 0,0.7 h 0.7 v 0.7 h -0.7 z m 0,0.7 h 0.7 v 0.7 h -0.7 z m 0,0.7 h 0.7 v 0.7 h -0.7 z m 0,0.6 h 0.7 v 0.7 h -0.7 z m 0.7,-6.1 h 0.7 v 0.7 h -0.7 z m 0,0.7 h 0.7 v 0.7 h -0.7 z m 0,4.8 h 0.7 v 0.7 h -0.7 z m 0,0.6 h 0.7 v 0.7 h -0.7 z m 0.6,-6.1 h 0.7 v 0.7 h -0.7 z m 0,0.7 h 0.7 v 0.7 h -0.7 z m 0,4.8 h 0.7 v 0.7 h -0.7 z m 0,0.6 h 0.7 v 0.7 h -0.7 z m 0.7,-6.1 h 0.7 v 0.7 h -0.7 z m 0,0.7 h 0.7 v 0.7 h -0.7 z m 0,4.8 h 0.7 v 0.7 h -0.7 z m 0,0.6 h 0.7 v 0.7 h -0.7 z m 0.7,-6.1 h 0.7 v 0.7 h -0.7 z m 0,0.7 h 0.7 v 0.7 h -0.7 z m 0,4.8 h 0.7 v 0.7 h -0.7 z m 0,0.6 h 0.7 v 0.7 h -0.7 z m 0.7,-6.1 h 0.7 v 0.7 h -0.7 z m 0,0.7 h 0.7 v 0.7 h -0.7 z m 0,4.8 h 0.7 v 0.7 h -0.7 z m 0,0.6 h 0.7 v 0.7 h -0.7 z m 0.7,-6.1 h 0.7 v 0.7 h -0.7 z m 0,0.7 h 0.7 v 0.7 h -0.7 z m 0,4.8 h 0.7 v 0.7 h -0.7 z m 0,0.6 h 0.7 v 0.7 h -0.7 z m 0.7,-6.1 h 0.7 v 0.7 h -0.7 z m 0,0.7 h 0.7 v 0.7 h -0.7 z m 0,0.7 h 0.7 v 0.7 h -0.7 z m 0,0.6 h 0.7 v 0.7 h -0.7 z m 0,0.7 h 0.7 v 0.7 h -0.7 z m 0,0.7 h 0.7 v 0.7 h -0.7 z m 0,0.7 h 0.7 v 0.7 h -0.7 z m 0,0.7 h 0.7 v 0.7 h -0.7 z m 0,0.7 h 0.7 v 0.7 h -0.7 z m 0,0.6 h 0.7 v 0.7 h -0.7 z m 0.6,-6.1 h 0.7 v 0.7 h -0.7 z m 0,0.7 h 0.7 v 0.7 h -0.7 z m 0,0.7 h 0.7 v 0.7 h -0.7 z m 0,0.6 h 0.7 v 0.7 h -0.7 z m 0,0.7 h 0.7 v 0.7 h -0.7 z m 0,0.7 h 0.7 v 0.7 h -0.7 z m 0,0.7 h 0.7 v 0.7 h -0.7 z m 0,0.7 h 0.7 v 0.7 h -0.7 z m 0,0.7 h 0.7 v 0.7 h -0.7 z m 0,0.6 h 0.7 v 0.7 h -0.7 z"
   id="path552" />
	<path
   class="st33"
   d="m 1510.5,657.6 h 0.7 v 0.7 h -0.7 z m 0,0.7 h 0.7 v 0.7 h -0.7 z m 0,0.7 h 0.7 v 0.7 h -0.7 z m 0,0.6 h 0.7 v 0.7 h -0.7 z m 0,0.7 h 0.7 v 0.7 h -0.7 z m 0,0.7 h 0.7 v 0.7 h -0.7 z m 0.7,-3.4 h 0.7 v 0.7 h -0.7 z m 0,0.7 h 0.7 v 0.7 h -0.7 z m 0,0.7 h 0.7 v 0.7 h -0.7 z m 0,0.6 h 0.7 v 0.7 h -0.7 z m 0,0.7 h 0.7 v 0.7 h -0.7 z m 0,0.7 h 0.7 v 0.7 h -0.7 z m 0.7,-0.7 h 0.7 v 0.7 h -0.7 z m 0,0.7 h 0.7 v 0.7 h -0.7 z m 0.6,-0.7 h 0.7 v 0.7 h -0.7 z m 0,0.7 h 0.7 v 0.7 h -0.7 z m 0.7,-0.7 h 0.7 v 0.7 h -0.7 z m 0,0.7 h 0.7 v 0.7 h -0.7 z m 0.7,-0.7 h 0.7 v 0.7 h -0.7 z m 0,0.7 h 0.7 v 0.7 h -0.7 z m 0.7,-0.7 h 0.7 v 0.7 h -0.7 z m 0,0.7 h 0.7 v 0.7 h -0.7 z m 0.7,-0.7 h 0.7 v 0.7 h -0.7 z m 0,0.7 h 0.7 v 0.7 h -0.7 z m 0.7,-3.4 h 0.7 v 0.7 h -0.7 z m 0,0.7 h 0.7 v 0.7 h -0.7 z m 0,0.7 h 0.7 v 0.7 h -0.7 z m 0,0.6 h 0.7 v 0.7 h -0.7 z m 0,0.7 h 0.7 v 0.7 h -0.7 z m 0,0.7 h 0.7 v 0.7 h -0.7 z m 0,0.7 h 0.7 v 0.7 h -0.7 z m 0,0.7 h 0.7 v 0.7 h -0.7 z m 0,0.7 h 0.7 v 0.7 h -0.7 z m 0,0.6 h 0.7 v 0.7 h -0.7 z m 0.6,-6.1 h 0.7 v 0.7 h -0.7 z m 0,0.7 h 0.7 v 0.7 h -0.7 z m 0,0.7 h 0.7 v 0.7 h -0.7 z m 0,0.6 h 0.7 v 0.7 h -0.7 z m 0,0.7 h 0.7 v 0.7 h -0.7 z m 0,0.7 h 0.7 v 0.7 h -0.7 z m 0,0.7 h 0.7 v 0.7 h -0.7 z m 0,0.7 h 0.7 v 0.7 h -0.7 z m 0,0.7 h 0.7 v 0.7 h -0.7 z m 0,0.6 h 0.7 v 0.7 h -0.7 z"
   id="path554" />
	<path
   class="st33"
   d="m 1518.2,657.6 h 0.7 v 0.7 h -0.7 z m 0,0.7 h 0.7 v 0.7 h -0.7 z m 0,4.8 h 0.7 v 0.7 h -0.7 z m 0,0.6 h 0.7 v 0.7 h -0.7 z m 0.7,-6.1 h 0.7 v 0.7 h -0.7 z m 0,0.7 h 0.7 v 0.7 h -0.7 z m 0,4.8 h 0.7 v 0.7 h -0.7 z m 0,0.6 h 0.7 v 0.7 h -0.7 z m 0.7,-6.1 h 0.7 v 0.7 h -0.7 z m 0,0.7 h 0.7 v 0.7 h -0.7 z m 0,4.8 h 0.7 v 0.7 h -0.7 z m 0,0.6 h 0.7 v 0.7 h -0.7 z m 0.6,-6.1 h 0.7 v 0.7 h -0.7 z m 0,0.7 h 0.7 v 0.7 h -0.7 z m 0,4.8 h 0.7 v 0.7 h -0.7 z m 0,0.6 h 0.7 v 0.7 h -0.7 z m 0.7,-6.1 h 0.7 v 0.7 h -0.7 z m 0,0.7 h 0.7 v 0.7 h -0.7 z m 0,0.7 h 0.7 v 0.7 h -0.7 z m 0,0.6 h 0.7 v 0.7 h -0.7 z m 0,0.7 h 0.7 v 0.7 h -0.7 z m 0,0.7 h 0.7 v 0.7 h -0.7 z m 0,0.7 h 0.7 v 0.7 h -0.7 z m 0,0.7 h 0.7 v 0.7 h -0.7 z m 0,0.7 h 0.7 v 0.7 h -0.7 z m 0,0.6 h 0.7 v 0.7 h -0.7 z m 0.7,-6.1 h 0.7 v 0.7 h -0.7 z m 0,0.7 h 0.7 v 0.7 h -0.7 z m 0,0.7 h 0.7 v 0.7 h -0.7 z m 0,0.6 h 0.7 v 0.7 h -0.7 z m 0,0.7 h 0.7 v 0.7 h -0.7 z m 0,0.7 h 0.7 v 0.7 h -0.7 z m 0,0.7 h 0.7 v 0.7 h -0.7 z m 0,0.7 h 0.7 v 0.7 h -0.7 z m 0,0.7 h 0.7 v 0.7 h -0.7 z m 0,0.6 h 0.7 v 0.7 h -0.7 z m 0.7,-0.6 h 0.7 v 0.7 h -0.7 z m 0,0.6 h 0.7 v 0.7 h -0.7 z m 0.7,-0.6 h 0.7 v 0.7 h -0.7 z m 0,0.6 h 0.7 v 0.7 h -0.7 z m 0.7,-0.6 h 0.7 v 0.7 h -0.7 z m 0,0.6 h 0.7 v 0.7 h -0.7 z m 0.6,-0.6 h 0.7 v 0.7 h -0.7 z m 0,0.6 h 0.7 v 0.7 h -0.7 z"
   id="path556" />
	<path
   class="st33"
   d="m 1525.9,657.6 h 0.7 v 0.7 h -0.7 z m 0,0.7 h 0.7 v 0.7 h -0.7 z m 0,0.7 h 0.7 v 0.7 h -0.7 z m 0,0.6 h 0.7 v 0.7 h -0.7 z m 0,0.7 h 0.7 v 0.7 h -0.7 z m 0,0.7 h 0.7 v 0.7 h -0.7 z m 0.7,-3.4 h 0.7 v 0.7 h -0.7 z m 0,0.7 h 0.7 v 0.7 h -0.7 z m 0,0.7 h 0.7 v 0.7 h -0.7 z m 0,0.6 h 0.7 v 0.7 h -0.7 z m 0,0.7 h 0.7 v 0.7 h -0.7 z m 0,0.7 h 0.7 v 0.7 h -0.7 z m 0.7,-3.4 h 0.7 v 0.7 h -0.7 z m 0,0.7 h 0.7 v 0.7 h -0.7 z m 0,2 h 0.7 v 0.7 h -0.7 z m 0,0.7 h 0.7 v 0.7 h -0.7 z m 0.6,-3.4 h 0.7 v 0.7 h -0.7 z m 0,0.7 h 0.7 v 0.7 h -0.7 z m 0,2 h 0.7 v 0.7 h -0.7 z m 0,0.7 h 0.7 v 0.7 h -0.7 z m 0.7,-3.4 h 0.7 v 0.7 h -0.7 z m 0,0.7 h 0.7 v 0.7 h -0.7 z m 0,2 h 0.7 v 0.7 h -0.7 z m 0,0.7 h 0.7 v 0.7 h -0.7 z m 0.7,-3.4 h 0.7 v 0.7 h -0.7 z m 0,0.7 h 0.7 v 0.7 h -0.7 z m 0,2 h 0.7 v 0.7 h -0.7 z m 0,0.7 h 0.7 v 0.7 h -0.7 z m 0.7,-3.4 h 0.7 v 0.7 h -0.7 z m 0,0.7 h 0.7 v 0.7 h -0.7 z m 0,2 h 0.7 v 0.7 h -0.7 z m 0,0.7 h 0.7 v 0.7 h -0.7 z m 0.7,-3.4 h 0.7 v 0.7 h -0.7 z m 0,0.7 h 0.7 v 0.7 h -0.7 z m 0,2 h 0.7 v 0.7 h -0.7 z m 0,0.7 h 0.7 v 0.7 h -0.7 z m 0.7,-3.4 h 0.7 v 0.7 h -0.7 z m 0,0.7 h 0.7 v 0.7 h -0.7 z m 0,0.7 h 0.7 v 0.7 h -0.7 z m 0,0.6 h 0.7 v 0.7 h -0.7 z m 0,0.7 h 0.7 v 0.7 h -0.7 z m 0,0.7 h 0.7 v 0.7 h -0.7 z m 0,0.7 h 0.7 v 0.7 h -0.7 z m 0,0.7 h 0.7 v 0.7 h -0.7 z m 0,0.7 h 0.7 v 0.7 h -0.7 z m 0,0.6 h 0.7 v 0.7 h -0.7 z m 0.6,-6.1 h 0.7 v 0.7 h -0.7 z m 0,0.7 h 0.7 v 0.7 h -0.7 z m 0,0.7 h 0.7 v 0.7 h -0.7 z m 0,0.6 h 0.7 v 0.7 h -0.7 z m 0,0.7 h 0.7 v 0.7 h -0.7 z m 0,0.7 h 0.7 v 0.7 h -0.7 z m 0,0.7 h 0.7 v 0.7 h -0.7 z m 0,0.7 h 0.7 v 0.7 h -0.7 z m 0,0.7 h 0.7 v 0.7 h -0.7 z m 0,0.6 h 0.7 v 0.7 h -0.7 z"
   id="path558" />
	<path
   class="st33"
   d="m 1533.6,657.6 h 0.7 v 0.7 h -0.7 z m 0,0.7 h 0.7 v 0.7 h -0.7 z m 0,0.7 h 0.7 v 0.7 h -0.7 z m 0,0.6 h 0.7 v 0.7 h -0.7 z m 0,0.7 h 0.7 v 0.7 h -0.7 z m 0,0.7 h 0.7 v 0.7 h -0.7 z m 0.7,-3.4 h 0.7 v 0.7 h -0.7 z m 0,0.7 h 0.7 v 0.7 h -0.7 z m 0,0.7 h 0.7 v 0.7 h -0.7 z m 0,0.6 h 0.7 v 0.7 h -0.7 z m 0,0.7 h 0.7 v 0.7 h -0.7 z m 0,0.7 h 0.7 v 0.7 h -0.7 z m 0.6,-3.4 h 0.7 v 0.7 h -0.7 z m 0,0.7 h 0.7 v 0.7 h -0.7 z m 0,2 h 0.7 v 0.7 h -0.7 z m 0,0.7 h 0.7 v 0.7 h -0.7 z m 0.7,-3.4 h 0.7 v 0.7 h -0.7 z m 0,0.7 h 0.7 v 0.7 h -0.7 z m 0,2 h 0.7 v 0.7 h -0.7 z m 0,0.7 h 0.7 v 0.7 h -0.7 z m 0.7,-3.4 h 0.7 v 0.7 h -0.7 z m 0,0.7 h 0.7 v 0.7 h -0.7 z m 0,2 h 0.7 v 0.7 h -0.7 z m 0,0.7 h 0.7 v 0.7 h -0.7 z m 0.7,-3.4 h 0.7 v 0.7 h -0.7 z m 0,0.7 h 0.7 v 0.7 h -0.7 z m 0,2 h 0.7 v 0.7 h -0.7 z m 0,0.7 h 0.7 v 0.7 h -0.7 z m 0.7,-3.4 h 0.7 v 0.7 h -0.7 z m 0,0.7 h 0.7 v 0.7 h -0.7 z m 0,2 h 0.7 v 0.7 h -0.7 z m 0,0.7 h 0.7 v 0.7 h -0.7 z m 0.7,-3.4 h 0.7 v 0.7 h -0.7 z m 0,0.7 h 0.7 v 0.7 h -0.7 z m 0,2 h 0.7 v 0.7 h -0.7 z m 0,0.7 h 0.7 v 0.7 h -0.7 z m 0.7,-3.4 h 0.7 v 0.7 h -0.7 z m 0,0.7 h 0.7 v 0.7 h -0.7 z m 0,0.7 h 0.7 v 0.7 h -0.7 z m 0,0.6 h 0.7 v 0.7 h -0.7 z m 0,0.7 h 0.7 v 0.7 h -0.7 z m 0,0.7 h 0.7 v 0.7 h -0.7 z m 0,0.7 h 0.7 v 0.7 h -0.7 z m 0,0.7 h 0.7 v 0.7 h -0.7 z m 0,0.7 h 0.7 v 0.7 h -0.7 z m 0,0.6 h 0.7 v 0.7 h -0.7 z m 0.6,-6.1 h 0.7 v 0.7 h -0.7 z m 0,0.7 h 0.7 v 0.7 h -0.7 z m 0,0.7 h 0.7 v 0.7 h -0.7 z m 0,0.6 h 0.7 v 0.7 h -0.7 z m 0,0.7 h 0.7 v 0.7 h -0.7 z m 0,0.7 h 0.7 v 0.7 h -0.7 z m 0,0.7 h 0.7 v 0.7 h -0.7 z m 0,0.7 h 0.7 v 0.7 h -0.7 z m 0,0.7 h 0.7 v 0.7 h -0.7 z m 0,0.6 h 0.7 v 0.7 h -0.7 z"
   id="path560" />
	<path
   class="st33"
   d="m 1541.3,657.6 h 0.7 v 0.7 h -0.7 z m 0,0.7 h 0.7 v 0.7 h -0.7 z m 0,0.7 h 0.7 v 0.7 h -0.7 z m 0,0.6 h 0.7 v 0.7 h -0.7 z m 0,0.7 h 0.7 v 0.7 h -0.7 z m 0,0.7 h 0.7 v 0.7 h -0.7 z m 0.7,-3.4 h 0.7 v 0.7 h -0.7 z m 0,0.7 h 0.7 v 0.7 h -0.7 z m 0,0.7 h 0.7 v 0.7 h -0.7 z m 0,0.6 h 0.7 v 0.7 h -0.7 z m 0,0.7 h 0.7 v 0.7 h -0.7 z m 0,0.7 h 0.7 v 0.7 h -0.7 z m 0.6,-0.7 h 0.7 v 0.7 h -0.7 z m 0,0.7 h 0.7 v 0.7 h -0.7 z m 0.7,-0.7 h 0.7 v 0.7 h -0.7 z m 0,0.7 h 0.7 v 0.7 h -0.7 z m 0.7,-0.7 h 0.7 v 0.7 h -0.7 z m 0,0.7 h 0.7 v 0.7 h -0.7 z m 0.7,-0.7 h 0.7 v 0.7 h -0.7 z m 0,0.7 h 0.7 v 0.7 h -0.7 z m 0.7,-0.7 h 0.7 v 0.7 h -0.7 z m 0,0.7 h 0.7 v 0.7 h -0.7 z m 0.7,-0.7 h 0.7 v 0.7 h -0.7 z m 0,0.7 h 0.7 v 0.7 h -0.7 z m 0.6,-3.4 h 0.7 v 0.7 h -0.7 z m 0,0.7 h 0.7 v 0.7 h -0.7 z m 0,0.7 h 0.7 v 0.7 h -0.7 z m 0,0.6 h 0.7 v 0.7 h -0.7 z m 0,0.7 h 0.7 v 0.7 h -0.7 z m 0,0.7 h 0.7 v 0.7 h -0.7 z m 0,0.7 h 0.7 v 0.7 h -0.7 z m 0,0.7 h 0.7 v 0.7 h -0.7 z m 0,0.7 h 0.7 v 0.7 h -0.7 z m 0,0.6 h 0.7 v 0.7 h -0.7 z m 0.7,-6.1 h 0.7 v 0.7 h -0.7 z m 0,0.7 h 0.7 v 0.7 h -0.7 z m 0,0.7 h 0.7 v 0.7 h -0.7 z m 0,0.6 h 0.7 v 0.7 h -0.7 z m 0,0.7 h 0.7 v 0.7 h -0.7 z m 0,0.7 h 0.7 v 0.7 h -0.7 z m 0,0.7 h 0.7 v 0.7 h -0.7 z m 0,0.7 h 0.7 v 0.7 h -0.7 z m 0,0.7 h 0.7 v 0.7 h -0.7 z m 0,0.6 h 0.7 v 0.7 h -0.7 z"
   id="path562" />
</g>
<rect
   x="1226.1051"
   y="700.10004"
   class="st34"
   width="12.7"
   height="12.7"
   id="rect566" />
<rect
   x="1241.8051"
   y="700.10004"
   class="st34"
   width="12.7"
   height="12.7"
   id="rect568" />
<rect
   x="1257.3051"
   y="700.10004"
   class="st34"
   width="12.7"
   height="12.7"
   id="rect570" />
<rect
   x="1226.1051"
   y="716.20001"
   class="st34"
   width="12.7"
   height="12.7"
   id="rect572" />
<rect
   x="1241.8051"
   y="716.20001"
   class="st34"
   width="12.7"
   height="12.7"
   id="rect574" />
<rect
   x="1226.1051"
   y="731.70001"
   class="st34"
   width="12.7"
   height="12.7"
   id="rect576" />
<rect
   x="1241.8051"
   y="731.70001"
   class="st34"
   width="12.7"
   height="12.7"
   id="rect578" />
<rect
   x="1257.3051"
   y="731.70001"
   class="st34"
   width="12.7"
   height="12.7"
   id="rect580" />
<rect
   x="1257.3051"
   y="717.5"
   class="st32"
   width="12.7"
   height="12.7"
   id="rect582" />
<rect
   x="1241.8051"
   y="749.29999"
   class="st32"
   width="12.7"
   height="12.7"
   id="rect584" />
<g
   id="g588"
   transform="translate(-250.89493,0.7)">
	<path
   class="st33"
   d="m 1481.2,703.6 h 0.4 v 0.4 h -0.4 z m 0,0.4 h 0.4 v 0.4 h -0.4 z m 0,2.8 h 0.4 v 0.4 h -0.4 z m 0,0.3 h 0.4 v 0.4 h -0.4 z m 0.4,-3.5 h 0.4 v 0.4 h -0.4 z m 0,0.4 h 0.4 v 0.4 h -0.4 z m 0,2.8 h 0.4 v 0.4 h -0.4 z m 0,0.3 h 0.4 v 0.4 h -0.4 z m 0.4,-3.5 h 0.4 v 0.4 h -0.4 z m 0,0.4 h 0.4 v 0.4 h -0.4 z m 0,2.8 h 0.4 v 0.4 h -0.4 z m 0,0.3 h 0.4 v 0.4 h -0.4 z m 0.4,-3.5 h 0.4 v 0.4 h -0.4 z m 0,0.4 h 0.4 v 0.4 h -0.4 z m 0,2.8 h 0.4 v 0.4 h -0.4 z m 0,0.3 h 0.4 v 0.4 h -0.4 z m 0.4,-3.5 h 0.4 v 0.4 h -0.4 z m 0,0.4 h 0.4 v 0.4 h -0.4 z m 0,0.4 h 0.4 v 0.4 h -0.4 z m 0,0.4 h 0.4 v 0.4 h -0.4 z m 0,0.4 h 0.4 v 0.4 h -0.4 z m 0,0.4 h 0.4 v 0.4 h -0.4 z m 0,0.4 h 0.4 v 0.4 h -0.4 z m 0,0.4 h 0.4 v 0.4 h -0.4 z m 0,0.4 h 0.4 v 0.4 h -0.4 z m 0,0.3 h 0.4 v 0.4 h -0.4 z m 0.3,-3.5 h 0.4 v 0.4 h -0.4 z m 0,0.4 h 0.4 v 0.4 h -0.4 z m 0,0.4 h 0.4 v 0.4 h -0.4 z m 0,0.4 h 0.4 v 0.4 h -0.4 z m 0,0.4 h 0.4 v 0.4 h -0.4 z m 0,0.4 h 0.4 v 0.4 h -0.4 z m 0,0.4 h 0.4 v 0.4 h -0.4 z m 0,0.4 h 0.4 v 0.4 h -0.4 z m 0,0.4 h 0.4 v 0.4 h -0.4 z m 0,0.3 h 0.4 v 0.4 h -0.4 z m 0.4,-0.3 h 0.4 v 0.4 h -0.4 z m 0,0.3 h 0.4 v 0.4 h -0.4 z m 0.4,-0.3 h 0.4 v 0.4 h -0.4 z m 0,0.3 h 0.4 v 0.4 h -0.4 z m 0.4,-0.3 h 0.4 v 0.4 h -0.4 z m 0,0.3 h 0.4 v 0.4 h -0.4 z m 0.4,-0.3 h 0.4 v 0.4 h -0.4 z m 0,0.3 h 0.4 v 0.4 h -0.4 z"
   id="path586" />
</g>
<g
   id="g592"
   transform="translate(-250.89493,0.7)">
	<path
   class="st33"
   d="m 1497.1,703.6 h 0.4 v 0.4 h -0.4 z m 0,0.4 h 0.4 v 0.4 h -0.4 z m 0,1.2 h 0.4 v 0.4 h -0.4 z m 0,0.4 h 0.4 v 0.4 h -0.4 z m 0,0.4 h 0.4 v 0.4 h -0.4 z m 0,0.4 h 0.4 v 0.4 h -0.4 z m 0,0.4 h 0.4 v 0.4 h -0.4 z m 0,0.3 h 0.4 v 0.4 h -0.4 z m 0.4,-3.5 h 0.4 v 0.4 h -0.4 z m 0,0.4 h 0.4 v 0.4 h -0.4 z m 0,1.2 h 0.4 v 0.4 h -0.4 z m 0,0.4 h 0.4 v 0.4 h -0.4 z m 0,0.4 h 0.4 v 0.4 h -0.4 z m 0,0.4 h 0.4 v 0.4 h -0.4 z m 0,0.4 h 0.4 v 0.4 h -0.4 z m 0,0.3 h 0.4 v 0.4 h -0.4 z m 0.4,-3.5 h 0.4 v 0.4 h -0.4 z m 0,0.4 h 0.4 v 0.4 h -0.4 z m 0,1.2 h 0.4 v 0.4 h -0.4 z m 0,0.4 h 0.4 v 0.4 h -0.4 z m 0,1.2 h 0.4 v 0.4 h -0.4 z m 0,0.3 h 0.4 v 0.4 h -0.4 z m 0.4,-3.5 h 0.4 v 0.4 h -0.4 z m 0,0.4 h 0.4 v 0.4 h -0.4 z m 0,1.2 h 0.4 v 0.4 h -0.4 z m 0,0.4 h 0.4 v 0.4 h -0.4 z m 0,1.2 h 0.4 v 0.4 h -0.4 z m 0,0.3 h 0.4 v 0.4 h -0.4 z m 0.4,-3.5 h 0.4 v 0.4 h -0.4 z m 0,0.4 h 0.4 v 0.4 h -0.4 z m 0,1.2 h 0.4 v 0.4 h -0.4 z m 0,0.4 h 0.4 v 0.4 h -0.4 z m 0,1.2 h 0.4 v 0.4 h -0.4 z m 0,0.3 h 0.4 v 0.4 h -0.4 z m 0.4,-3.5 h 0.4 v 0.4 h -0.4 z m 0,0.4 h 0.4 v 0.4 h -0.4 z m 0,1.2 h 0.4 v 0.4 h -0.4 z m 0,0.4 h 0.4 v 0.4 h -0.4 z m 0,1.2 h 0.4 v 0.4 h -0.4 z m 0,0.3 h 0.4 v 0.4 h -0.4 z m 0.3,-3.5 h 0.4 v 0.4 h -0.4 z m 0,0.4 h 0.4 v 0.4 h -0.4 z m 0,1.2 h 0.4 v 0.4 h -0.4 z m 0,0.4 h 0.4 v 0.4 h -0.4 z m 0,1.2 h 0.4 v 0.4 h -0.4 z m 0,0.3 h 0.4 v 0.4 h -0.4 z m 0.4,-3.5 h 0.4 v 0.4 h -0.4 z m 0,0.4 h 0.4 v 0.4 h -0.4 z m 0,1.2 h 0.4 v 0.4 h -0.4 z m 0,0.4 h 0.4 v 0.4 h -0.4 z m 0,1.2 h 0.4 v 0.4 h -0.4 z m 0,0.3 h 0.4 v 0.4 h -0.4 z m 0.4,-3.5 h 0.4 v 0.4 h -0.4 z m 0,0.4 h 0.4 v 0.4 h -0.4 z m 0,0.4 h 0.4 v 0.4 h -0.4 z m 0,0.4 h 0.4 v 0.4 h -0.4 z m 0,0.4 h 0.4 v 0.4 h -0.4 z m 0,0.4 h 0.4 v 0.4 h -0.4 z m 0,1.2 h 0.4 v 0.4 h -0.4 z m 0,0.3 h 0.4 v 0.4 h -0.4 z m 0.4,-3.5 h 0.4 v 0.4 h -0.4 z m 0,0.4 h 0.4 v 0.4 h -0.4 z m 0,0.4 h 0.4 v 0.4 h -0.4 z m 0,0.4 h 0.4 v 0.4 h -0.4 z m 0,0.4 h 0.4 v 0.4 h -0.4 z m 0,0.4 h 0.4 v 0.4 h -0.4 z m 0,1.2 h 0.4 v 0.4 h -0.4 z m 0,0.3 h 0.4 v 0.4 h -0.4 z"
   id="path590" />
</g>
<g
   id="g596"
   transform="translate(-250.89493,0.7)">
	<path
   class="st33"
   d="m 1512.5,703.6 h 0.4 v 0.4 h -0.4 z m 0,0.4 h 0.4 v 0.4 h -0.4 z m 0,2.8 h 0.4 v 0.4 h -0.4 z m 0,0.3 h 0.4 v 0.4 h -0.4 z m 0.3,-3.5 h 0.4 v 0.4 h -0.4 z m 0,0.4 h 0.4 v 0.4 h -0.4 z m 0,2.8 h 0.4 v 0.4 h -0.4 z m 0,0.3 h 0.4 v 0.4 h -0.4 z m 0.4,-3.5 h 0.4 v 0.4 h -0.4 z m 0,0.4 h 0.4 v 0.4 h -0.4 z m 0,2.8 h 0.4 v 0.4 h -0.4 z m 0,0.3 h 0.4 v 0.4 h -0.4 z m 0.4,-3.5 h 0.4 v 0.4 h -0.4 z m 0,0.4 h 0.4 v 0.4 h -0.4 z m 0,2.8 h 0.4 v 0.4 h -0.4 z m 0,0.3 h 0.4 v 0.4 h -0.4 z m 0.4,-3.5 h 0.4 v 0.4 h -0.4 z m 0,0.4 h 0.4 v 0.4 h -0.4 z m 0,1.2 h 0.4 v 0.4 h -0.4 z m 0,0.4 h 0.4 v 0.4 h -0.4 z m 0,1.2 h 0.4 v 0.4 h -0.4 z m 0,0.3 h 0.4 v 0.4 h -0.4 z m 0.4,-3.5 h 0.4 v 0.4 h -0.4 z m 0,0.4 h 0.4 v 0.4 h -0.4 z m 0,1.2 h 0.4 v 0.4 h -0.4 z m 0,0.4 h 0.4 v 0.4 h -0.4 z m 0,1.2 h 0.4 v 0.4 h -0.4 z m 0,0.3 h 0.4 v 0.4 h -0.4 z m 0.4,-3.5 h 0.4 v 0.4 h -0.4 z m 0,0.4 h 0.4 v 0.4 h -0.4 z m 0,1.2 h 0.4 v 0.4 h -0.4 z m 0,0.4 h 0.4 v 0.4 h -0.4 z m 0,1.2 h 0.4 v 0.4 h -0.4 z m 0,0.3 h 0.4 v 0.4 h -0.4 z m 0.4,-3.5 h 0.4 v 0.4 h -0.4 z m 0,0.4 h 0.4 v 0.4 h -0.4 z m 0,1.2 h 0.4 v 0.4 h -0.4 z m 0,0.4 h 0.4 v 0.4 h -0.4 z m 0,1.2 h 0.4 v 0.4 h -0.4 z m 0,0.3 h 0.4 v 0.4 h -0.4 z m 0.4,-3.5 h 0.4 v 0.4 h -0.4 z m 0,0.4 h 0.4 v 0.4 h -0.4 z m 0,0.4 h 0.4 v 0.4 h -0.4 z m 0,0.4 h 0.4 v 0.4 h -0.4 z m 0,0.4 h 0.4 v 0.4 h -0.4 z m 0,0.4 h 0.4 v 0.4 h -0.4 z m 0,0.4 h 0.4 v 0.4 h -0.4 z m 0,0.4 h 0.4 v 0.4 h -0.4 z m 0,0.4 h 0.4 v 0.4 h -0.4 z m 0,0.3 h 0.4 v 0.4 h -0.4 z m 0.4,-3.5 h 0.4 v 0.4 h -0.4 z m 0,0.4 h 0.4 v 0.4 h -0.4 z m 0,0.4 h 0.4 v 0.4 h -0.4 z m 0,0.4 h 0.4 v 0.4 h -0.4 z m 0,0.4 h 0.4 v 0.4 h -0.4 z m 0,0.4 h 0.4 v 0.4 h -0.4 z m 0,0.4 h 0.4 v 0.4 h -0.4 z m 0,0.4 h 0.4 v 0.4 h -0.4 z m 0,0.4 h 0.4 v 0.4 h -0.4 z m 0,0.3 h 0.4 v 0.4 h -0.4 z"
   id="path594" />
</g>
<g
   id="g600"
   transform="translate(-250.89493,0.7)">
	<path
   class="st33"
   d="m 1481.2,719.8 h 0.4 v 0.4 h -0.4 z m 0,0.4 h 0.4 v 0.4 h -0.4 z m 0,0.4 h 0.4 v 0.4 h -0.4 z m 0,0.4 h 0.4 v 0.4 h -0.4 z m 0,0.4 h 0.4 v 0.4 h -0.4 z m 0,0.4 h 0.4 v 0.4 h -0.4 z m 0.4,-2 h 0.4 v 0.4 h -0.4 z m 0,0.4 h 0.4 v 0.4 h -0.4 z m 0,0.4 h 0.4 v 0.4 h -0.4 z m 0,0.4 h 0.4 v 0.4 h -0.4 z m 0,0.4 h 0.4 v 0.4 h -0.4 z m 0,0.4 h 0.4 v 0.4 h -0.4 z m 0.4,-0.4 h 0.4 v 0.4 h -0.4 z m 0,0.4 h 0.4 v 0.4 h -0.4 z m 0.4,-0.4 h 0.4 v 0.4 h -0.4 z m 0,0.4 h 0.4 v 0.4 h -0.4 z m 0.4,-0.4 h 0.4 v 0.4 h -0.4 z m 0,0.4 h 0.4 v 0.4 h -0.4 z m 0.3,-0.4 h 0.4 v 0.4 h -0.4 z m 0,0.4 h 0.4 v 0.4 h -0.4 z m 0.4,-0.4 h 0.4 v 0.4 h -0.4 z m 0,0.4 h 0.4 v 0.4 h -0.4 z m 0.4,-0.4 h 0.4 v 0.4 h -0.4 z m 0,0.4 h 0.4 v 0.4 h -0.4 z m 0.4,-2 h 0.4 v 0.4 h -0.4 z m 0,0.4 h 0.4 v 0.4 h -0.4 z m 0,0.4 h 0.4 v 0.4 h -0.4 z m 0,0.4 h 0.4 v 0.4 h -0.4 z m 0,0.4 h 0.4 v 0.4 h -0.4 z m 0,0.4 h 0.4 v 0.4 h -0.4 z m 0,0.4 h 0.4 v 0.4 h -0.4 z m 0,0.4 h 0.4 v 0.4 h -0.4 z m 0,0.4 h 0.4 v 0.4 h -0.4 z m 0,0.4 h 0.4 v 0.4 h -0.4 z m 0.4,-3.6 h 0.4 v 0.4 h -0.4 z m 0,0.4 h 0.4 v 0.4 h -0.4 z m 0,0.4 h 0.4 v 0.4 h -0.4 z m 0,0.4 h 0.4 v 0.4 h -0.4 z m 0,0.4 h 0.4 v 0.4 h -0.4 z m 0,0.4 h 0.4 v 0.4 h -0.4 z m 0,0.4 h 0.4 v 0.4 h -0.4 z m 0,0.4 h 0.4 v 0.4 h -0.4 z m 0,0.4 h 0.4 v 0.4 h -0.4 z m 0,0.4 h 0.4 v 0.4 h -0.4 z"
   id="path598" />
</g>
<g
   id="g604"
   transform="translate(-250.89493,0.7)">
	<path
   class="st33"
   d="m 1497.1,719.8 h 0.4 v 0.4 h -0.4 z m 0,0.4 h 0.4 v 0.4 h -0.4 z m 0,0.4 h 0.4 v 0.4 h -0.4 z m 0,0.4 h 0.4 v 0.4 h -0.4 z m 0,0.4 h 0.4 v 0.4 h -0.4 z m 0,0.4 h 0.4 v 0.4 h -0.4 z m 0,1.2 h 0.4 v 0.4 h -0.4 z m 0,0.4 h 0.4 v 0.4 h -0.4 z m 0.4,-3.6 h 0.4 v 0.4 h -0.4 z m 0,0.4 h 0.4 v 0.4 h -0.4 z m 0,0.4 h 0.4 v 0.4 h -0.4 z m 0,0.4 h 0.4 v 0.4 h -0.4 z m 0,0.4 h 0.4 v 0.4 h -0.4 z m 0,0.4 h 0.4 v 0.4 h -0.4 z m 0,1.2 h 0.4 v 0.4 h -0.4 z m 0,0.4 h 0.4 v 0.4 h -0.4 z m 0.4,-3.6 h 0.4 v 0.4 h -0.4 z m 0,0.4 h 0.4 v 0.4 h -0.4 z m 0,1.2 h 0.4 v 0.4 h -0.4 z m 0,0.4 h 0.4 v 0.4 h -0.4 z m 0,1.2 h 0.4 v 0.4 h -0.4 z m 0,0.4 h 0.4 v 0.4 h -0.4 z m 0.4,-3.6 h 0.4 v 0.4 h -0.4 z m 0,0.4 h 0.4 v 0.4 h -0.4 z m 0,1.2 h 0.4 v 0.4 h -0.4 z m 0,0.4 h 0.4 v 0.4 h -0.4 z m 0,1.2 h 0.4 v 0.4 h -0.4 z m 0,0.4 h 0.4 v 0.4 h -0.4 z m 0.4,-3.6 h 0.4 v 0.4 h -0.4 z m 0,0.4 h 0.4 v 0.4 h -0.4 z m 0,1.2 h 0.4 v 0.4 h -0.4 z m 0,0.4 h 0.4 v 0.4 h -0.4 z m 0,1.2 h 0.4 v 0.4 h -0.4 z m 0,0.4 h 0.4 v 0.4 h -0.4 z m 0.4,-3.6 h 0.4 v 0.4 h -0.4 z m 0,0.4 h 0.4 v 0.4 h -0.4 z m 0,1.2 h 0.4 v 0.4 h -0.4 z m 0,0.4 h 0.4 v 0.4 h -0.4 z m 0,1.2 h 0.4 v 0.4 h -0.4 z m 0,0.4 h 0.4 v 0.4 h -0.4 z m 0.3,-3.6 h 0.4 v 0.4 h -0.4 z m 0,0.4 h 0.4 v 0.4 h -0.4 z m 0,1.2 h 0.4 v 0.4 h -0.4 z m 0,0.4 h 0.4 v 0.4 h -0.4 z m 0,1.2 h 0.4 v 0.4 h -0.4 z m 0,0.4 h 0.4 v 0.4 h -0.4 z m 0.4,-3.6 h 0.4 v 0.4 h -0.4 z m 0,0.4 h 0.4 v 0.4 h -0.4 z m 0,1.2 h 0.4 v 0.4 h -0.4 z m 0,0.4 h 0.4 v 0.4 h -0.4 z m 0,1.2 h 0.4 v 0.4 h -0.4 z m 0,0.4 h 0.4 v 0.4 h -0.4 z m 0.4,-3.6 h 0.4 v 0.4 h -0.4 z m 0,0.4 h 0.4 v 0.4 h -0.4 z m 0,1.2 h 0.4 v 0.4 h -0.4 z m 0,0.4 h 0.4 v 0.4 h -0.4 z m 0,0.4 h 0.4 v 0.4 h -0.4 z m 0,0.4 h 0.4 v 0.4 h -0.4 z m 0,0.4 h 0.4 v 0.4 h -0.4 z m 0,0.4 h 0.4 v 0.4 h -0.4 z m 0.4,-3.6 h 0.4 v 0.4 h -0.4 z m 0,0.4 h 0.4 v 0.4 h -0.4 z m 0,1.2 h 0.4 v 0.4 h -0.4 z m 0,0.4 h 0.4 v 0.4 h -0.4 z m 0,0.4 h 0.4 v 0.4 h -0.4 z m 0,0.4 h 0.4 v 0.4 h -0.4 z m 0,0.4 h 0.4 v 0.4 h -0.4 z m 0,0.4 h 0.4 v 0.4 h -0.4 z"
   id="path602" />
</g>
<g
   id="g608"
   transform="translate(-250.89493,0.7)">
	<path
   class="st33"
   d="m 1481.2,735.6 h 0.4 v 0.4 h -0.4 z m 0,0.4 h 0.4 v 0.4 h -0.4 z m 0.4,-0.4 h 0.4 v 0.4 h -0.4 z m 0,0.4 h 0.4 v 0.4 h -0.4 z m 0.4,-0.4 h 0.4 v 0.4 h -0.4 z m 0,0.4 h 0.4 v 0.4 h -0.4 z m 0.4,-0.4 h 0.4 v 0.4 h -0.4 z m 0,0.4 h 0.4 v 0.4 h -0.4 z m 0.4,-0.4 h 0.4 v 0.4 h -0.4 z m 0,0.4 h 0.4 v 0.4 h -0.4 z m 0.3,-0.4 h 0.4 v 0.4 h -0.4 z m 0,0.4 h 0.4 v 0.4 h -0.4 z m 0.4,-0.4 h 0.4 v 0.4 h -0.4 z m 0,0.4 h 0.4 v 0.4 h -0.4 z m 0.4,-0.4 h 0.4 v 0.4 h -0.4 z m 0,0.4 h 0.4 v 0.4 h -0.4 z m 0.4,-0.4 h 0.4 v 0.4 h -0.4 z m 0,0.4 h 0.4 v 0.4 h -0.4 z m 0,0.4 h 0.4 v 0.4 h -0.4 z m 0,0.4 h 0.4 v 0.4 h -0.4 z m 0,0.4 h 0.4 v 0.4 h -0.4 z m 0,0.3 h 0.4 v 0.4 h -0.4 z m 0,0.4 h 0.4 v 0.4 h -0.4 z m 0,0.4 h 0.4 v 0.4 h -0.4 z m 0,0.4 h 0.4 v 0.4 h -0.4 z m 0,0.4 h 0.4 v 0.4 h -0.4 z m 0.4,-3.5 h 0.4 v 0.4 h -0.4 z m 0,0.4 h 0.4 v 0.4 h -0.4 z m 0,0.4 h 0.4 v 0.4 h -0.4 z m 0,0.4 h 0.4 v 0.4 h -0.4 z m 0,0.4 h 0.4 v 0.4 h -0.4 z m 0,0.3 h 0.4 v 0.4 h -0.4 z m 0,0.4 h 0.4 v 0.4 h -0.4 z m 0,0.4 h 0.4 v 0.4 h -0.4 z m 0,0.4 h 0.4 v 0.4 h -0.4 z m 0,0.4 h 0.4 v 0.4 h -0.4 z"
   id="path606" />
</g>
<g
   id="g612"
   transform="translate(-250.89493,0.7)">
	<path
   class="st33"
   d="m 1497.1,735.6 h 0.4 v 0.4 h -0.4 z m 0,0.4 h 0.4 v 0.4 h -0.4 z m 0,0.4 h 0.4 v 0.4 h -0.4 z m 0,0.4 h 0.4 v 0.4 h -0.4 z m 0,0.4 h 0.4 v 0.4 h -0.4 z m 0,0.3 h 0.4 v 0.4 h -0.4 z m 0,0.4 h 0.4 v 0.4 h -0.4 z m 0,0.4 h 0.4 v 0.4 h -0.4 z m 0,0.4 h 0.4 v 0.4 h -0.4 z m 0,0.4 h 0.4 v 0.4 h -0.4 z m 0.4,-3.5 h 0.4 v 0.4 h -0.4 z m 0,0.4 h 0.4 v 0.4 h -0.4 z m 0,0.4 h 0.4 v 0.4 h -0.4 z m 0,0.4 h 0.4 v 0.4 h -0.4 z m 0,0.4 h 0.4 v 0.4 h -0.4 z m 0,0.3 h 0.4 v 0.4 h -0.4 z m 0,0.4 h 0.4 v 0.4 h -0.4 z m 0,0.4 h 0.4 v 0.4 h -0.4 z m 0,0.4 h 0.4 v 0.4 h -0.4 z m 0,0.4 h 0.4 v 0.4 h -0.4 z m 0.4,-3.5 h 0.4 v 0.4 h -0.4 z m 0,0.4 h 0.4 v 0.4 h -0.4 z m 0,1.2 h 0.4 v 0.4 h -0.4 z m 0,0.3 h 0.4 v 0.4 h -0.4 z m 0,1.2 h 0.4 v 0.4 h -0.4 z m 0,0.4 h 0.4 v 0.4 h -0.4 z m 0.4,-3.5 h 0.4 v 0.4 h -0.4 z m 0,0.4 h 0.4 v 0.4 h -0.4 z m 0,1.2 h 0.4 v 0.4 h -0.4 z m 0,0.3 h 0.4 v 0.4 h -0.4 z m 0,1.2 h 0.4 v 0.4 h -0.4 z m 0,0.4 h 0.4 v 0.4 h -0.4 z m 0.4,-3.5 h 0.4 v 0.4 h -0.4 z m 0,0.4 h 0.4 v 0.4 h -0.4 z m 0,1.2 h 0.4 v 0.4 h -0.4 z m 0,0.3 h 0.4 v 0.4 h -0.4 z m 0,1.2 h 0.4 v 0.4 h -0.4 z m 0,0.4 h 0.4 v 0.4 h -0.4 z m 0.4,-3.5 h 0.4 v 0.4 h -0.4 z m 0,0.4 h 0.4 v 0.4 h -0.4 z m 0,1.2 h 0.4 v 0.4 h -0.4 z m 0,0.3 h 0.4 v 0.4 h -0.4 z m 0,1.2 h 0.4 v 0.4 h -0.4 z m 0,0.4 h 0.4 v 0.4 h -0.4 z m 0.3,-3.5 h 0.4 v 0.4 h -0.4 z m 0,0.4 h 0.4 v 0.4 h -0.4 z m 0,1.2 h 0.4 v 0.4 h -0.4 z m 0,0.3 h 0.4 v 0.4 h -0.4 z m 0,1.2 h 0.4 v 0.4 h -0.4 z m 0,0.4 h 0.4 v 0.4 h -0.4 z m 0.4,-3.5 h 0.4 v 0.4 h -0.4 z m 0,0.4 h 0.4 v 0.4 h -0.4 z m 0,1.2 h 0.4 v 0.4 h -0.4 z m 0,0.3 h 0.4 v 0.4 h -0.4 z m 0,1.2 h 0.4 v 0.4 h -0.4 z m 0,0.4 h 0.4 v 0.4 h -0.4 z m 0.4,-3.5 h 0.4 v 0.4 h -0.4 z m 0,0.4 h 0.4 v 0.4 h -0.4 z m 0,0.4 h 0.4 v 0.4 h -0.4 z m 0,0.4 h 0.4 v 0.4 h -0.4 z m 0,0.4 h 0.4 v 0.4 h -0.4 z m 0,0.3 h 0.4 v 0.4 h -0.4 z m 0,0.4 h 0.4 v 0.4 h -0.4 z m 0,0.4 h 0.4 v 0.4 h -0.4 z m 0,0.4 h 0.4 v 0.4 h -0.4 z m 0,0.4 h 0.4 v 0.4 h -0.4 z m 0.4,-3.5 h 0.4 v 0.4 h -0.4 z m 0,0.4 h 0.4 v 0.4 h -0.4 z m 0,0.4 h 0.4 v 0.4 h -0.4 z m 0,0.4 h 0.4 v 0.4 h -0.4 z m 0,0.4 h 0.4 v 0.4 h -0.4 z m 0,0.3 h 0.4 v 0.4 h -0.4 z m 0,0.4 h 0.4 v 0.4 h -0.4 z m 0,0.4 h 0.4 v 0.4 h -0.4 z m 0,0.4 h 0.4 v 0.4 h -0.4 z m 0,0.4 h 0.4 v 0.4 h -0.4 z"
   id="path610" />
</g>
<g
   id="g616"
   transform="translate(-250.89493,0.7)">
	<path
   class="st33"
   d="m 1512.5,735.6 h 0.4 v 0.4 h -0.4 z m 0,0.4 h 0.4 v 0.4 h -0.4 z m 0,0.4 h 0.4 v 0.4 h -0.4 z m 0,0.4 h 0.4 v 0.4 h -0.4 z m 0,0.4 h 0.4 v 0.4 h -0.4 z m 0,0.3 h 0.4 v 0.4 h -0.4 z m 0.3,-1.9 h 0.4 v 0.4 h -0.4 z m 0,0.4 h 0.4 v 0.4 h -0.4 z m 0,0.4 h 0.4 v 0.4 h -0.4 z m 0,0.4 h 0.4 v 0.4 h -0.4 z m 0,0.4 h 0.4 v 0.4 h -0.4 z m 0,0.3 h 0.4 v 0.4 h -0.4 z m 0.4,-1.9 h 0.4 v 0.4 h -0.4 z m 0,0.4 h 0.4 v 0.4 h -0.4 z m 0,1.2 h 0.4 v 0.4 h -0.4 z m 0,0.3 h 0.4 v 0.4 h -0.4 z m 0.4,-1.9 h 0.4 v 0.4 h -0.4 z m 0,0.4 h 0.4 v 0.4 h -0.4 z m 0,1.2 h 0.4 v 0.4 h -0.4 z m 0,0.3 h 0.4 v 0.4 h -0.4 z m 0.4,-1.9 h 0.4 v 0.4 h -0.4 z m 0,0.4 h 0.4 v 0.4 h -0.4 z m 0,1.2 h 0.4 v 0.4 h -0.4 z m 0,0.3 h 0.4 v 0.4 h -0.4 z m 0.4,-1.9 h 0.4 v 0.4 h -0.4 z m 0,0.4 h 0.4 v 0.4 h -0.4 z m 0,1.2 h 0.4 v 0.4 h -0.4 z m 0,0.3 h 0.4 v 0.4 h -0.4 z m 0.4,-1.9 h 0.4 v 0.4 h -0.4 z m 0,0.4 h 0.4 v 0.4 h -0.4 z m 0,1.2 h 0.4 v 0.4 h -0.4 z m 0,0.3 h 0.4 v 0.4 h -0.4 z m 0.4,-1.9 h 0.4 v 0.4 h -0.4 z m 0,0.4 h 0.4 v 0.4 h -0.4 z m 0,1.2 h 0.4 v 0.4 h -0.4 z m 0,0.3 h 0.4 v 0.4 h -0.4 z m 0.4,-1.9 h 0.4 v 0.4 h -0.4 z m 0,0.4 h 0.4 v 0.4 h -0.4 z m 0,0.4 h 0.4 v 0.4 h -0.4 z m 0,0.4 h 0.4 v 0.4 h -0.4 z m 0,0.4 h 0.4 v 0.4 h -0.4 z m 0,0.3 h 0.4 v 0.4 h -0.4 z m 0,0.4 h 0.4 v 0.4 h -0.4 z m 0,0.4 h 0.4 v 0.4 h -0.4 z m 0,0.4 h 0.4 v 0.4 h -0.4 z m 0,0.4 h 0.4 v 0.4 h -0.4 z m 0.4,-3.5 h 0.4 v 0.4 h -0.4 z m 0,0.4 h 0.4 v 0.4 h -0.4 z m 0,0.4 h 0.4 v 0.4 h -0.4 z m 0,0.4 h 0.4 v 0.4 h -0.4 z m 0,0.4 h 0.4 v 0.4 h -0.4 z m 0,0.3 h 0.4 v 0.4 h -0.4 z m 0,0.4 h 0.4 v 0.4 h -0.4 z m 0,0.4 h 0.4 v 0.4 h -0.4 z m 0,0.4 h 0.4 v 0.4 h -0.4 z m 0,0.4 h 0.4 v 0.4 h -0.4 z"
   id="path614" />
</g>
<rect
   x="1257.3051"
   y="716.20001"
   class="st34"
   width="12.7"
   height="12.7"
   id="rect618" />
<g
   id="g622"
   transform="translate(-250.89493,0.7)">
	<path
   class="st33"
   d="m 1512.5,719.8 h 0.4 v 0.4 h -0.4 z m 0,0.4 h 0.4 v 0.4 h -0.4 z m 0,0.4 h 0.4 v 0.4 h -0.4 z m 0,0.4 h 0.4 v 0.4 h -0.4 z m 0,0.4 h 0.4 v 0.4 h -0.4 z m 0,0.4 h 0.4 v 0.4 h -0.4 z m 0,0.4 h 0.4 v 0.4 h -0.4 z m 0,0.4 h 0.4 v 0.4 h -0.4 z m 0,0.4 h 0.4 v 0.4 h -0.4 z m 0,0.4 h 0.4 v 0.4 h -0.4 z m 0.3,-3.6 h 0.4 v 0.4 h -0.4 z m 0,0.4 h 0.4 v 0.4 h -0.4 z m 0,0.4 h 0.4 v 0.4 h -0.4 z m 0,0.4 h 0.4 v 0.4 h -0.4 z m 0,0.4 h 0.4 v 0.4 h -0.4 z m 0,0.4 h 0.4 v 0.4 h -0.4 z m 0,0.4 h 0.4 v 0.4 h -0.4 z m 0,0.4 h 0.4 v 0.4 h -0.4 z m 0,0.4 h 0.4 v 0.4 h -0.4 z m 0,0.4 h 0.4 v 0.4 h -0.4 z m 0.4,-2 h 0.4 v 0.4 h -0.4 z m 0,0.4 h 0.4 v 0.4 h -0.4 z m 0,1.2 h 0.4 v 0.4 h -0.4 z m 0,0.4 h 0.4 v 0.4 h -0.4 z m 0.4,-2 h 0.4 v 0.4 h -0.4 z m 0,0.4 h 0.4 v 0.4 h -0.4 z m 0,1.2 h 0.4 v 0.4 h -0.4 z m 0,0.4 h 0.4 v 0.4 h -0.4 z m 0.4,-2 h 0.4 v 0.4 h -0.4 z m 0,0.4 h 0.4 v 0.4 h -0.4 z m 0,1.2 h 0.4 v 0.4 h -0.4 z m 0,0.4 h 0.4 v 0.4 h -0.4 z m 0.4,-2 h 0.4 v 0.4 h -0.4 z m 0,0.4 h 0.4 v 0.4 h -0.4 z m 0,1.2 h 0.4 v 0.4 h -0.4 z m 0,0.4 h 0.4 v 0.4 h -0.4 z m 0.4,-2 h 0.4 v 0.4 h -0.4 z m 0,0.4 h 0.4 v 0.4 h -0.4 z m 0,1.2 h 0.4 v 0.4 h -0.4 z m 0,0.4 h 0.4 v 0.4 h -0.4 z m 0.4,-2 h 0.4 v 0.4 h -0.4 z m 0,0.4 h 0.4 v 0.4 h -0.4 z m 0,1.2 h 0.4 v 0.4 h -0.4 z m 0,0.4 h 0.4 v 0.4 h -0.4 z m 0.4,-2 h 0.4 v 0.4 h -0.4 z m 0,0.4 h 0.4 v 0.4 h -0.4 z m 0,0.4 h 0.4 v 0.4 h -0.4 z m 0,0.4 h 0.4 v 0.4 h -0.4 z m 0,0.4 h 0.4 v 0.4 h -0.4 z m 0,0.4 h 0.4 v 0.4 h -0.4 z m 0.4,-2 h 0.4 v 0.4 h -0.4 z m 0,0.4 h 0.4 v 0.4 h -0.4 z m 0,0.4 h 0.4 v 0.4 h -0.4 z m 0,0.4 h 0.4 v 0.4 h -0.4 z m 0,0.4 h 0.4 v 0.4 h -0.4 z m 0,0.4 h 0.4 v 0.4 h -0.4 z"
   id="path620" />
</g>
<rect
   x="1241.8051"
   y="747.90002"
   class="st34"
   width="12.7"
   height="12.7"
   id="rect624" />
<g
   id="g628"
   transform="translate(-250.89493,0.7)">
	<path
   class="st33"
   d="m 1497.1,751.8 h 0.4 v 0.4 h -0.4 z m 0,0.4 h 0.4 v 0.4 h -0.4 z m 0,0.4 h 0.4 v 0.4 h -0.4 z m 0,0.4 h 0.4 v 0.4 h -0.4 z m 0,0.4 h 0.4 v 0.4 h -0.4 z m 0,0.4 h 0.4 v 0.4 h -0.4 z m 0,0.4 h 0.4 v 0.4 h -0.4 z m 0,0.3 h 0.4 v 0.4 h -0.4 z m 0,0.4 h 0.4 v 0.4 h -0.4 z m 0,0.4 h 0.4 v 0.4 h -0.4 z m 0.4,-3.5 h 0.4 v 0.4 h -0.4 z m 0,0.4 h 0.4 v 0.4 h -0.4 z m 0,0.4 h 0.4 v 0.4 h -0.4 z m 0,0.4 h 0.4 v 0.4 h -0.4 z m 0,0.4 h 0.4 v 0.4 h -0.4 z m 0,0.4 h 0.4 v 0.4 h -0.4 z m 0,0.4 h 0.4 v 0.4 h -0.4 z m 0,0.3 h 0.4 v 0.4 h -0.4 z m 0,0.4 h 0.4 v 0.4 h -0.4 z m 0,0.4 h 0.4 v 0.4 h -0.4 z m 0.4,-3.5 h 0.4 v 0.4 h -0.4 z m 0,0.4 h 0.4 v 0.4 h -0.4 z m 0,2.7 h 0.4 v 0.4 h -0.4 z m 0,0.4 h 0.4 v 0.4 h -0.4 z m 0.4,-3.5 h 0.4 v 0.4 h -0.4 z m 0,0.4 h 0.4 v 0.4 h -0.4 z m 0,2.7 h 0.4 v 0.4 h -0.4 z m 0,0.4 h 0.4 v 0.4 h -0.4 z m 0.4,-3.5 h 0.4 v 0.4 h -0.4 z m 0,0.4 h 0.4 v 0.4 h -0.4 z m 0,2.7 h 0.4 v 0.4 h -0.4 z m 0,0.4 h 0.4 v 0.4 h -0.4 z m 0.4,-3.5 h 0.4 v 0.4 h -0.4 z m 0,0.4 h 0.4 v 0.4 h -0.4 z m 0,2.7 h 0.4 v 0.4 h -0.4 z m 0,0.4 h 0.4 v 0.4 h -0.4 z m 0.3,-3.5 h 0.4 v 0.4 h -0.4 z m 0,0.4 h 0.4 v 0.4 h -0.4 z m 0,2.7 h 0.4 v 0.4 h -0.4 z m 0,0.4 h 0.4 v 0.4 h -0.4 z m 0.4,-3.5 h 0.4 v 0.4 h -0.4 z m 0,0.4 h 0.4 v 0.4 h -0.4 z m 0,2.7 h 0.4 v 0.4 h -0.4 z m 0,0.4 h 0.4 v 0.4 h -0.4 z m 0.4,-3.5 h 0.4 v 0.4 h -0.4 z m 0,0.4 h 0.4 v 0.4 h -0.4 z m 0,0.4 h 0.4 v 0.4 h -0.4 z m 0,0.4 h 0.4 v 0.4 h -0.4 z m 0,0.4 h 0.4 v 0.4 h -0.4 z m 0,0.4 h 0.4 v 0.4 h -0.4 z m 0,0.4 h 0.4 v 0.4 h -0.4 z m 0,0.3 h 0.4 v 0.4 h -0.4 z m 0,0.4 h 0.4 v 0.4 h -0.4 z m 0,0.4 h 0.4 v 0.4 h -0.4 z m 0.4,-3.5 h 0.4 v 0.4 h -0.4 z m 0,0.4 h 0.4 v 0.4 h -0.4 z m 0,0.4 h 0.4 v 0.4 h -0.4 z m 0,0.4 h 0.4 v 0.4 h -0.4 z m 0,0.4 h 0.4 v 0.4 h -0.4 z m 0,0.4 h 0.4 v 0.4 h -0.4 z m 0,0.4 h 0.4 v 0.4 h -0.4 z m 0,0.3 h 0.4 v 0.4 h -0.4 z m 0,0.4 h 0.4 v 0.4 h -0.4 z m 0,0.4 h 0.4 v 0.4 h -0.4 z"
   id="path626" />
</g>
<g
   id="g634"
   transform="translate(-250.89493,0.7)">
	<g
   id="g632">
		<path
   class="st35"
   d="m 1497.6,601.1 c 2.4,-5 4.1,-11.4 2.7,-16.9 -1.5,-5.7 -7.5,-8 -12.7,-9.1 -4.9,-1 -10.6,-1.9 -14.3,2.4 -0.5,0.6 -1.3,1.6 -1.7,2 0.1,-0.1 -0.2,0.2 -0.3,0.1 0,0 0,0 -0.1,0 -0.2,0 -0.1,0 0.5,-0.1 -0.1,0 -0.3,0 -0.4,0 -1.3,0.1 -2.7,0.1 -4,0 -0.9,0 -1.8,-0.1 -2.7,-0.2 -0.5,0 -0.9,-0.1 -1.4,-0.1 -0.2,0 -1.5,-0.2 -0.7,-0.1 -0.8,-0.1 -1.5,-0.2 -2.3,-0.4 -0.2,-0.1 -0.6,-0.2 -0.8,-0.2 -0.4,0 0.7,0.3 0.4,0.2 -0.3,-0.2 -0.4,-0.4 0.3,0.2 -2.9,-2.7 -7.2,1.6 -4.3,4.3 2,1.9 5.6,2 8.2,2.2 2.6,0.3 5.3,0.5 8,0.2 2.1,-0.2 3.7,-1.4 5.1,-3.1 1.3,-1.6 2,-2.3 3.8,-2.3 2.1,-0.1 4.1,0.4 6.2,0.9 2,0.5 4.2,1 5.9,2.4 1.9,1.5 1.8,4.1 1.6,6.4 -0.2,2.8 -1,5.5 -2.2,8 -0.7,1.5 -0.4,3.3 1.1,4.2 1.3,0.9 3.4,0.5 4.1,-1 z"
   id="path630" />
	</g>
</g>
<g
   id="g640"
   transform="translate(-250.89493,0.7)">
	<g
   id="g638">
		<path
   class="st36"
   d="m 1544.9,598.6 c -1.1,-7.2 0,-14.5 -2,-21.6 -0.9,-3.2 -2.3,-6.1 -4.4,-8.7 -2.2,-2.6 -5.2,-4.4 -8.4,-5.8 -13.7,-6.1 -29.1,-5.6 -43.4,-2 -4,1 -7.9,2.2 -11.7,3.5 -1.9,0.7 -3.8,1.4 -5.7,2.1 -1.7,0.6 -3.7,1.3 -5.5,1 -1.6,-0.2 -3.3,0.4 -3.8,2.1 -0.4,1.4 0.5,3.6 2.1,3.8 3.9,0.5 7.3,-0.5 10.9,-1.8 3.4,-1.3 6.8,-2.4 10.3,-3.5 6.7,-2 13.7,-3.5 20.7,-3.8 6.8,-0.3 13.5,0.5 20,2.7 2.8,1 5.8,2.2 8.1,4 2.1,1.6 3.5,4 4.4,6.4 2.5,7.3 1.2,15.4 2.4,23.1 0.3,1.6 2.3,2.5 3.8,2.1 1.8,-0.3 2.4,-1.9 2.2,-3.6 z"
   id="path636" />
	</g>
</g>
<g
   id="g648"
   transform="translate(-250.89493,0.7)">
		<g
   id="g646">
			<polygon
   class="st15"
   points="1461.2,913.2 402.3,913.2 403.9,252.8 1462.8,252.8 "
   id="polygon642" />
			<polygon
   class="st37"
   points="1461.2,913.2 402.3,913.2 403.9,252.8 1462.8,252.8 "
   id="polygon644" />
		</g>
	</g><g
   id="g654"
   transform="translate(-250.89493,0.7)">
		<circle
   class="st20"
   cx="424"
   cy="271.89999"
   r="10"
   id="circle650" />
		<polygon
   class="st19"
   points="421.9,273.5 424.9,270.1 429.1,266.9 424.4,268.8 421,272.3 419.4,278.2 "
   id="polygon652" />
	</g><g
   id="g660"
   transform="translate(-250.89493,0.7)">
		<circle
   class="st20"
   cx="422.39999"
   cy="877.29999"
   r="10"
   id="circle656" />
		<polygon
   class="st19"
   points="420.3,878.8 423.4,875.5 427.5,872.3 422.8,874.2 419.5,877.7 417.8,883.5 "
   id="polygon658" />
	</g><circle
   class="st20"
   cx="1189.8051"
   cy="272.60001"
   r="10"
   id="circle662" /><g
   id="g668"
   transform="translate(-250.89493,0.7)">
		<circle
   class="st20"
   cx="1439.1"
   cy="877.29999"
   r="10"
   id="circle664" />
		<polygon
   class="st19"
   points="1437,878.8 1440.1,875.5 1444.2,872.3 1439.5,874.2 1436.2,877.7 1434.5,883.5 "
   id="polygon666" />
	</g><g
   id="g696"
   transform="translate(-250.89493,0.7)">
		<g
   id="g674">
			<path
   class="st38"
   d="m 931.8,879.4 c -9.9,0 -19.9,-0.1 -29.9,-0.4 L 472.7,867.3 c -17,-0.5 -30.4,-14.2 -30.4,-31.2 l 1.5,-520.8 c 0,-17 13.3,-30.7 30.3,-31.2 L 907.4,271 c 9.3,-0.3 18.7,-0.4 28,-0.4 9.3,0 18.7,0.2 28,0.4 l 428.9,13.1 c 16.9,0.5 30.2,14.2 30.2,31.2 l -1.5,520.8 c 0.1,17.1 -13.2,30.8 -30.2,31.2 L 961.6,879 c -9.9,0.2 -20,0.4 -29.8,0.4 z"
   id="path670" />
			<path
   class="st39"
   d="m 935.4,274 c 9.3,0 18.6,0.2 27.9,0.4 l 428.9,13.1 c 15,0.5 26.8,12.7 26.8,27.7 l -1.5,520.8 v 0 0 c 0,7.3 -2.7,14.1 -7.7,19.3 -5,5.2 -11.8,8.2 -19,8.4 l -429.2,11.7 c -9.9,0.2 -19.9,0.4 -29.8,0.4 -9.9,0 -19.9,-0.1 -29.8,-0.4 L 472.8,863.7 c -7.3,-0.2 -14,-3.2 -19.1,-8.4 -5.1,-5.2 -7.9,-12.1 -7.9,-19.3 l 1.5,-520.8 c 0,-15.1 11.8,-27.2 26.9,-27.7 l 433.3,-13.1 c 9.3,-0.2 18.6,-0.4 27.9,-0.4 m 0,-7 c -9.4,0 -18.8,0.1 -28.1,0.5 L 474,280.6 c -18.8,0.6 -33.7,15.9 -33.7,34.7 l -1.5,520.8 c 0,18.8 15,34.2 33.8,34.7 l 429.2,11.7 c 10,0.2 20,0.4 29.9,0.4 10,0 20,-0.1 30,-0.4 l 429.2,-11.7 c 18.8,-0.5 33.7,-15.9 33.6,-34.7 l 1.5,-520.8 c 0,-18.8 -14.9,-34.1 -33.6,-34.7 L 963.5,267.5 c -9.3,-0.3 -18.7,-0.5 -28.1,-0.5 z"
   id="path672" />
		</g>
		<g
   id="g684">
			<g
   class="st40"
   id="g678">
				<path
   class="st41"
   d="M 931.8,846.6"
   id="path676" />
			</g>
			<g
   id="g682">
				<path
   class="st42"
   d="M 931.8,846.6"
   id="path680" />
			</g>
		</g>
		<g
   id="g694">
			<g
   class="st40"
   id="g688">
				<path
   class="st41"
   d="M 933.3,349.3"
   id="path686" />
			</g>
			<g
   id="g692">
				<path
   class="st42"
   d="M 933.3,349.3"
   id="path690" />
			</g>
		</g>
	</g>
<rect
   x="1236.8051"
   y="600.70001"
   class="st43"
   width="15.4"
   height="9.1000004"
   id="rect700" />
<rect
   x="1282.6051"
   y="600.70001"
   class="st43"
   width="15.4"
   height="9.1000004"
   id="rect702" />
<path
   class="st16"
   d="m 351.70507,33.1 c 0.2,-0.6 0.6,-1.1 1.1,-1.4 1.2,-1.6 2.2,-3.5 3.2,-5.5 3.4,-7.7 5.5,-17.7 3.2,-26.2 h -24.6 v 43.4 c 6.6,-1.9 12.6,-4.9 17.1,-10.3 z"
   id="path704" />
<path
   class="st16"
   d="m 321.60507,57.8 c 0.9,0.9 1.9,1.9 3,2.6 0,0 0,0 0.1,0 v -3 c -1,0.1 -2,0.2 -3.1,0.4 z"
   id="path706" />
<path
   class="st16"
   d="m 334.50507,63.4 c 2,0 4,-0.3 5.9,-0.9 6.7,-2.1 10.9,-7.7 12.4,-14 -5.5,3.7 -11.8,5.9 -18.2,7.3 v 7.6 c 0,0 -0.1,0 -0.1,0 z"
   id="path708" />
<rect
   x="1038.3051"
   y="1.1920929e-08"
   class="st17"
   width="9.8000002"
   height="105.5"
   id="rect710" />
<path
   class="st17"
   d="m 334.50507,0 h -9.8 v 45.5 c 3.4,-0.5 6.7,-1.2 9.8,-2.1 z"
   id="path712" />
<path
   class="st17"
   d="m 333.00507,56.1 c -2.6,0.5 -5.5,0.9 -8.3,1.3 v 3 c 2.9,2 6.3,3 9.8,3 v -7.6 c -0.5,0.1 -1,0.2 -1.5,0.3 z"
   id="path714" />
<path
   class="st17"
   d="m 324.70507,105.5 h 9.8 V 68.3 c -3.4,0 -6.8,-0.7 -9.8,-2.2 z"
   id="path716" />
<path
   class="st44"
   d="m 351.70507,33.1 c 0.4,-0.5 0.8,-0.9 1.1,-1.4 -0.5,0.3 -1,0.9 -1.1,1.4 z"
   id="path718" />
<path
   class="st44"
   d="m 355.70507,46.2 c -1,0.8 -2,1.5 -3,2.2 -1.5,6.3 -5.6,11.9 -12.4,14 -1.9,0.6 -3.9,0.9 -5.9,0.9 v 5 c 0.9,0 1.8,-0.1 2.8,-0.2 6.3,-0.8 12,-3.9 15.9,-9 3.3,-4.4 5.1,-9.9 5.2,-15.4 -0.8,0.9 -1.6,1.8 -2.6,2.5 z"
   id="path720" />
<path
   class="st16"
   d="m 288.70507,86.2 c 3.5,3.5 8.5,4.7 13.4,5.5 -0.2,-0.3 -0.3,-0.6 -0.5,-1 -2.7,-4.6 -7.3,-7.6 -11.2,-11.1 -1.4,-1.2 -2.7,-2.5 -3.8,-4 -1.3,3.7 -0.9,7.6 2.1,10.6 z"
   id="path722" />
<path
   class="st18"
   d="m 310.10507,107.6 c 1.8,1.7 3.5,3.8 5.1,5.5 0.5,0.5 1,1 1.5,1.5 v -2.2 c 0,-4 1.8,-7.6 4.5,-10.2 -0.2,-0.2 -0.4,-0.5 -0.7,-0.7 -3.7,-3.8 -7.7,-7.7 -12.9,-8.9 0.4,1.4 0.8,2.9 1,4.4 0.6,3.3 0.7,7.1 1.5,10.6 z"
   id="path724" />
<path
   class="st18"
   d="m 317.50507,53.5 c 1.4,1.3 2.7,2.8 4.1,4.2 1,-0.1 2,-0.2 3.1,-0.4 V 45.5 c -1.8,0.3 -3.7,0.6 -5.5,0.8 -3.5,0.5 -7.2,1 -10.8,1.7 0.1,0 0.3,0.1 0.4,0.1 3.3,1.2 6.2,3.1 8.7,5.4 z"
   id="path726" />
<path
   class="st18"
   d="m 334.50507,43.4 v 12.4 c 6.5,-1.4 12.8,-3.7 18.2,-7.3 1.1,-4.6 0.7,-9.6 -1.1,-14 -0.2,-0.4 -0.2,-0.9 0,-1.3 -4.4,5.3 -10.4,8.3 -17.1,10.2 z"
   id="path728" />
<path
   class="st18"
   d="m 355.90507,26.2 c -0.9,2.1 -2,3.9 -3.2,5.5 0.2,-0.1 0.4,-0.2 0.6,-0.3 1.4,-0.4 2.5,0.5 3.1,1.7 1.1,2.8 1.8,5.8 1.9,8.8 0,0.6 0,1.2 0,1.9 5.1,-5.2 8.4,-11.9 10.7,-18.8 2.5,-7.7 3.6,-16.7 2.2,-25 h -12.1 c 2.3,8.4 0.2,18.4 -3.2,26.2 z"
   id="path730" />
<path
   class="st18"
   d="m 333.00507,56.1 c 0.5,-0.1 1,-0.2 1.5,-0.3 V 43.4 c -3.2,0.9 -6.5,1.6 -9.8,2.1 v 11.9 c 2.9,-0.4 5.7,-0.8 8.3,-1.3 z"
   id="path732" />
<path
   class="st18"
   d="m 356.50507,33.1 c -0.5,-1.2 -1.7,-2.1 -3.1,-1.7 -0.2,0.1 -0.4,0.2 -0.6,0.3 -0.4,0.5 -0.7,1 -1.1,1.4 -0.1,0.4 -0.2,0.9 0,1.3 1.8,4.4 2.1,9.4 1.1,14 1,-0.7 2,-1.4 3,-2.2 0.9,-0.8 1.8,-1.6 2.6,-2.4 0,-0.6 0,-1.2 0,-1.9 -0.2,-3 -0.8,-6 -1.9,-8.8 z"
   id="path734" />
<path
   class="st18"
   d="m 304.90507,52.1 c -5.7,-1.3 -11.8,0.3 -15.3,5.1 -1.5,2.1 -2.5,4.6 -2.6,7.2 0,2.3 0.7,4.4 1.9,6.3 0.6,-0.8 1.2,-1.6 1.9,-2.3 6.4,-6.4 15.5,-8.6 24.7,-9.9 -0.9,-0.9 -1.8,-1.8 -2.8,-2.6 -2.2,-1.8 -5,-3.1 -7.8,-3.8 z"
   id="path736" />
<path
   class="st18"
   d="m 288.70507,86.2 c -3,-3 -3.3,-6.9 -2.2,-10.5 -2.3,-2.8 -4,-6.1 -4.3,-9.9 -0.2,-2.1 0.1,-4.2 0.7,-6.1 -0.8,0.8 -1.6,1.6 -2.4,2.6 -9.4,11.4 -8.7,28 4.4,36.1 5.8,3.6 12.3,4.4 18.8,5.7 0.3,0.1 0.6,0.1 0.9,0.2 -0.5,-4.3 -0.7,-8.7 -2.6,-12.5 -4.8,-0.9 -9.9,-2.1 -13.3,-5.6 z"
   id="path738" />
<path
   class="st44"
   d="m 305.20507,108.1 c 0.6,3.2 1.7,6.2 3.8,8.7 2.1,2.7 5.1,4.5 8.4,5.7 6.4,2.4 13.9,2.3 20.5,0.5 6.6,-1.8 12.1,-5.7 17.1,-10.3 4.6,-4.1 9,-8.8 14.8,-11.3 6.5,-2.8 14,-2.1 20.8,-0.9 6,1.1 12,2.8 17.2,6 5.3,3.3 9,8.1 10.6,14.1 2,7.5 1.8,15.5 1.1,23.1 -0.7,7.9 -2,15.8 -2.7,23.7 -0.7,7.1 -0.9,14.6 2.9,21 3.1,5.2 8,9 12.2,13.3 1.9,2 3.6,4.1 4.9,6.6 1.4,2.8 5.7,0.3 4.3,-2.5 -2.8,-5.5 -7.6,-9.4 -11.8,-13.6 -1.9,-1.9 -3.8,-3.9 -5.2,-6.3 -1.7,-2.9 -2.4,-6.2 -2.6,-9.5 -0.4,-7.7 1.1,-15.4 2,-23 1,-8 1.9,-16.1 1.3,-24.2 -0.5,-7.3 -2.1,-14.5 -6.7,-20.3 -3.8,-4.8 -9.3,-8 -15,-10.2 -6.2,-2.4 -13,-3.6 -19.6,-4.1 -7.2,-0.5 -14.2,0.8 -20.3,4.7 -5.4,3.5 -9.7,8.3 -14.6,12.4 -5.1,4.2 -11.3,7 -18,7.5 -6,0.4 -13.5,-0.5 -17.6,-5.4 -1.5,-1.8 -2.3,-4 -2.9,-6.3 -1.6,-1.5 -3.4,-2.8 -5.4,-3.5 0.1,1.5 0.2,2.8 0.5,4.1 z"
   id="path740" />
<path
   class="st44"
   d="m 289.90507,50.1 c -3.2,2.3 -5.8,5.7 -7,9.5 6.9,-6.7 16.1,-9.8 25.5,-11.6 -6,-2.1 -13.2,-1.7 -18.5,2.1 z"
   id="path742" />
<path
   class="st44"
   d="m 324.60507,60.4 c -1.1,-0.8 -2.1,-1.7 -3,-2.6 -2,0.2 -4,0.5 -6.1,0.8 1.6,1.6 3.1,3.3 4.8,4.7 1.3,1.1 2.8,2.1 4.4,2.8 l -0.1,-5.7 c 0.1,0 0.1,0 0,0 z"
   id="path744" />
<path
   class="st44"
   d="m 290.30507,79.6 c 3.9,3.5 8.5,6.5 11.2,11.1 0.2,0.3 0.4,0.6 0.5,1 1.6,0.3 3.1,0.5 4.6,0.7 0.4,0.1 0.7,0.1 1.1,0.2 -0.5,-1.5 -1.1,-3 -1.9,-4.4 -1.4,-2.4 -3.3,-4.5 -5.3,-6.3 -3.7,-3.4 -8.3,-6.4 -11.2,-10.6 -0.1,-0.2 -0.3,-0.4 -0.4,-0.6 -1.1,1.5 -1.9,3.2 -2.5,4.9 1.2,1.5 2.5,2.8 3.9,4 z"
   id="path746" />
<path
   class="st18"
   d="m 317.50507,53.5 c -2.6,-2.4 -5.5,-4.2 -8.7,-5.4 -0.1,0 -0.3,-0.1 -0.4,-0.1 -9.4,1.8 -18.7,5 -25.5,11.6 -0.6,2 -0.9,4 -0.7,6.1 0.3,3.8 2,7 4.3,9.9 0.5,-1.7 1.4,-3.4 2.5,-4.9 -1.2,-1.9 -1.9,-4 -1.9,-6.3 0.1,-2.6 1.1,-5.1 2.6,-7.2 3.5,-4.8 9.6,-6.4 15.3,-5.1 2.9,0.7 5.6,2 7.9,3.8 1,0.8 1.9,1.7 2.8,2.6 2,-0.3 4.1,-0.5 6.1,-0.8 -1.5,-1.3 -2.8,-2.8 -4.3,-4.2 z"
   id="path748" />
<path
   class="st44"
   d="m 302.00507,91.7 c 1.9,3.8 2.1,8.2 2.6,12.5 2,0.6 3.8,1.9 5.4,3.5 -0.8,-3.5 -0.9,-7.3 -1.4,-10.6 -0.2,-1.5 -0.5,-3 -1,-4.4 -0.4,-0.1 -0.7,-0.2 -1.1,-0.2 -1.4,-0.4 -2.9,-0.6 -4.5,-0.8 z"
   id="path750" />
<path
   class="st17"
   d="m 324.70507,60.4 v 5.7 c 3,1.5 6.4,2.3 9.8,2.2 v -5 c -3.5,0.1 -6.9,-0.8 -9.8,-2.9 z"
   id="path752" />
<polyline
   class="st45"
   points="1464.2,856.3 1510.5,828.2 1512.5,803.7 "
   id="polyline754"
   transform="translate(-250.89493,0.7)" />
<circle
   class="st46"
   cx="1262.0051"
   cy="801.5"
   r="4.9000001"
   id="circle756" />
<path
   class="st45"
   d="m 1258.4051,300.5 c 0,1.5 0,29 0,29 l 45.7,45.7 v 40.3 l -18.9,18.9 v 25.8 l 15.7,15.7 v 72 l 24.2,24.2"
   id="path758" />
<circle
   class="st46"
   cx="1258.5051"
   cy="298.30002"
   r="3.7"
   id="circle760" />
<path
   class="st22"
   d="M 49.605071,764.1"
   id="path762" />
<g
   class="st47"
   id="g764"
   transform="translate(-250.89493,0.7)">
</g>
</svg>
