<?xml version="1.0" encoding="UTF-8" standalone="no"?>
<!-- Generator: Adobe Illustrator 26.4.1, SVG Export Plug-In . SVG Version: 6.00 Build 0)  -->

<svg
   version="1.1"
   id="Layer_1"
   x="0px"
   y="0px"
   viewBox="0 0 279.36921 27.569201"
   xml:space="preserve"
   sodipodi:docname="soundtrack.svg"
   width="279.3692"
   height="27.569201"
   inkscape:version="1.1 (c68e22c387, 2021-05-23)"
   xmlns:inkscape="http://www.inkscape.org/namespaces/inkscape"
   xmlns:sodipodi="http://sodipodi.sourceforge.net/DTD/sodipodi-0.dtd"
   xmlns="http://www.w3.org/2000/svg"
   xmlns:svg="http://www.w3.org/2000/svg"><defs
   id="defs61">
	
	
	
	
	
	
	
	
	
	
	
	
	
	
</defs><sodipodi:namedview
   id="namedview59"
   pagecolor="#ffffff"
   bordercolor="#666666"
   borderopacity="1.0"
   inkscape:pageshadow="2"
   inkscape:pageopacity="0.0"
   inkscape:pagecheckerboard="0"
   showgrid="false"
   inkscape:zoom="3.7866858"
   inkscape:cx="141.9447"
   inkscape:cy="-26.540359"
   inkscape:window-width="1847"
   inkscape:window-height="1057"
   inkscape:window-x="-8"
   inkscape:window-y="-8"
   inkscape:window-maximized="1"
   inkscape:current-layer="Layer_1" />
<style
   type="text/css"
   id="style2">
	.st0{fill:#727272;stroke:#5B5B5B;stroke-width:1.0692;stroke-miterlimit:10;}
	.st1{fill:#3C4C41;stroke:#2F3D33;stroke-width:3;stroke-miterlimit:10;}
	.st2{fill:#66605C;}
	.st3{fill:#939393;}
	.st4{opacity:3.000000e-02;fill:#FFFFFF;}
</style>
<rect
   x="0.53460002"
   y="0.53460002"
   class="st0"
   width="278.29999"
   height="26.5"
   id="rect36" /><path
   class="st1"
   d="m 247.9346,23.0346 -89.5,0.8 c -15.9,0.1 -31.8,0.1 -47.7,0 l -84.2,-0.8 c -6.9,0 -12.6,-0.8 -12.6,-1.7 v -15.9 c 0,-0.9 5.6,-1.7 12.6,-1.7 l 91.4,-0.7 c 15.1,-0.1 30.2,-0.1 45.3,0 l 84.6,0.7 c 6.9,0 12.6,0.8 12.6,1.7 v 15.9 c 0,0.9 -5.6,1.7 -12.5,1.7 z"
   id="path38" /><g
   id="g44"
   transform="translate(0.03460002,-80.4654)">
		<circle
   class="st2"
   cx="7.5"
   cy="93.900002"
   id="ellipse40"
   r="2.2" />
		<polygon
   class="st3"
   points="7.1,94.2 7.7,93.5 8.7,92.8 7.6,93.2 6.9,94 6.5,95.2 "
   id="polygon42" />
	</g><g
   id="g50"
   transform="translate(0.03460002,-80.4654)">
		<circle
   class="st2"
   cx="271.5"
   cy="95.199997"
   id="ellipse46"
   r="2.2" />
		<polygon
   class="st3"
   points="271.1,95.5 271.8,94.8 272.7,94.1 271.6,94.5 270.9,95.3 270.5,96.6 "
   id="polygon48" />
	</g><polygon
   class="st4"
   points="55,83.8 74.6,83.8 81.4,104.6 60.8,104.6 "
   id="polygon52"
   transform="translate(0.03460002,-80.4654)" /><polygon
   class="st4"
   points="38,83.8 49.2,83.8 55.9,104.6 44.1,104.6 "
   id="polygon54"
   transform="translate(0.03460002,-80.4654)" />
</svg>
