<?xml version="1.0" encoding="UTF-8" standalone="no"?>
<!-- Generator: Adobe Illustrator 26.4.1, SVG Export Plug-In . SVG Version: 6.00 Build 0)  -->

<svg
   version="1.1"
   id="Layer_1"
   x="0px"
   y="0px"
   viewBox="0 0 389.3 108"
   style="enable-background:new 0 0 389.3 108;"
   xml:space="preserve"
   sodipodi:docname="vitals_console_rear.svg"
   inkscape:version="1.1 (c68e22c387, 2021-05-23)"
   xmlns:inkscape="http://www.inkscape.org/namespaces/inkscape"
   xmlns:sodipodi="http://sodipodi.sourceforge.net/DTD/sodipodi-0.dtd"
   xmlns="http://www.w3.org/2000/svg"
   xmlns:svg="http://www.w3.org/2000/svg"><defs
   id="defs479">
	
	
	
	
	
	
	
	
	
	
	
	
	
	
	

	
	
	
	
	
	
	
	
	
	
	
	
	
	
	

	
	
	
	
	
	
	
	
	
	
	
	
	
	
	
</defs><sodipodi:namedview
   id="namedview477"
   pagecolor="#ffffff"
   bordercolor="#666666"
   borderopacity="1.0"
   inkscape:pageshadow="2"
   inkscape:pageopacity="0.0"
   inkscape:pagecheckerboard="0"
   showgrid="false"
   inkscape:zoom="2.7176985"
   inkscape:cx="194.46602"
   inkscape:cy="53.905906"
   inkscape:window-width="1847"
   inkscape:window-height="1057"
   inkscape:window-x="-8"
   inkscape:window-y="-8"
   inkscape:window-maximized="1"
   inkscape:current-layer="Layer_1" />
<style
   type="text/css"
   id="style2">
	.st0{fill:#727272;stroke:#5B5B5B;stroke-width:1.7598;stroke-miterlimit:10;}
	.st1{fill:#3C4C41;stroke:#2F3D33;stroke-width:3.5634;stroke-miterlimit:10;}
	.st2{fill:#4F4F4F;}
	.st3{fill:#706051;}
	.st4{opacity:0.36;}
	.st5{clip-path:url(#SVGID_00000043443131378008431870000002063177518472185001_);fill:#FFFFFF;}
	.st6{fill:#606060;}
	.st7{fill:#939393;}
	.st8{clip-path:url(#SVGID_00000165922130843141801870000000444062087601813687_);fill:#FFFFFF;}
	.st9{fill:#3A3838;}
	.st10{clip-path:url(#SVGID_00000142896872948937615230000005072722838911722403_);fill:#FFFFFF;}
	.st11{fill:#727272;stroke:#5B5B5B;stroke-width:1.0692;stroke-miterlimit:10;}
	.st12{fill:#3C4C41;stroke:#2F3D33;stroke-width:1.1018;stroke-miterlimit:10;}
	.st13{fill:#3C4C41;stroke:#2F3D33;stroke-width:2.4971;stroke-miterlimit:10;}
	.st14{fill:#66605C;}
	.st15{opacity:3.000000e-02;fill:#FFFFFF;}
	.st16{fill:#727272;}
	.st17{fill:#A4FFFF;}
	.st18{fill:none;stroke:#561C1C;stroke-width:0.584;stroke-miterlimit:10;}
	.st19{fill:#3C4C41;stroke:#2F3D33;stroke-width:0.8347;stroke-miterlimit:10;}
	.st20{fill:none;stroke:#561C1C;stroke-width:0.3593;stroke-miterlimit:10;}
</style>
<path
   class="st0"
   d="M 373.9,69.4 H 157.8 c -8.5,0 -15.4,-6.9 -15.4,-15.4 v 0 c 0,-8.5 6.9,-15.4 15.4,-15.4 h 216.1 c 8.5,0 15.4,6.9 15.4,15.4 v 0 c 0,8.5 -6.9,15.4 -15.4,15.4 z"
   id="path4" /><path
   class="st1"
   d="M 367.7,63.3 H 155.4 c -5,0 -9,-4 -9,-9 v -0.6 c 0,-5 4,-9 9,-9 h 212.3 c 5,0 9,4 9,9 v 0.6 c -0.1,5 -4.1,9 -9,9 z"
   id="path6" />
<path
   class="st0"
   d="M 373.9,106.5 H 157.8 c -8.5,0 -15.4,-6.9 -15.4,-15.4 v 0 c 0,-8.5 6.9,-15.4 15.4,-15.4 h 216.1 c 8.5,0 15.4,6.9 15.4,15.4 v 0 c 0,8.5 -6.9,15.4 -15.4,15.4 z"
   id="path86" /><path
   class="st1"
   d="M 367.7,100.4 H 155.4 c -5,0 -9,-4 -9,-9 v -0.6 c 0,-5 4,-9 9,-9 h 212.3 c 5,0 9,4 9,9 v 0.6 c -0.1,5 -4.1,9 -9,9 z"
   id="path88" /><g
   id="g164">
		<circle
   class="st6"
   cx="380.79999"
   cy="90.699997"
   r="1.5"
   id="circle160" />
		<polygon
   class="st7"
   points="380.4,90.8 380.1,91.7 380.5,91 381,90.4 381.6,89.9 380.9,90.2 "
   id="polygon162" />
	</g>
<polygon
   class="st9"
   points="148.5,82.3 105.4,84.7 105.9,34.1 148.5,3.7 "
   id="polygon168" />
<path
   class="st0"
   d="M 372.3,32.3 H 156.2 c -8.5,0 -15.4,-6.9 -15.4,-15.4 v 0 c 0,-8.5 6.9,-15.4 15.4,-15.4 h 216.1 c 8.5,0 15.4,6.9 15.4,15.4 v 0 c -0.1,8.5 -6.9,15.4 -15.4,15.4 z"
   id="path170" /><path
   class="st1"
   d="M 366,26.2 H 153.7 c -5,0 -9,-4 -9,-9 v -0.6 c 0,-5 4,-9 9,-9 H 366 c 5,0 9,4 9,9 v 0.6 c 0,5 -4,9 -9,9 z"
   id="path172" />


<g
   id="g268">
	
	
</g>
<rect
   x="-0.3"
   y="39.7"
   class="st11"
   width="111.9"
   height="68.4"
   id="rect270" />
<path
   class="st13"
   d="M95.5,100.6l-33,2.1c-5.9,0.4-11.7,0.4-17.6,0l-31.1-2c-2.6,0-4.6-2-4.6-4.6V53.1c0-2.5,2.1-4.6,4.6-4.6  l33.7-2c5.6-0.3,11.2-0.3,16.7,0l31.2,2c2.6,0,4.6,2,4.6,4.6V96C100.1,98.5,98,100.6,95.5,100.6z"
   id="path272" />
<g
   id="g278">
	<ellipse
   class="st14"
   cx="6.8"
   cy="46.2"
   rx="3.4"
   ry="3.1"
   id="ellipse274" />
	<polygon
   class="st7"
   points="8.6,44.7 7,45.3 5.8,46.4 5.3,48.2 6.1,46.7 7.2,45.7  "
   id="polygon276" />
</g>
<g
   id="g284">
	<ellipse
   class="st14"
   cx="5.3"
   cy="102.6"
   rx="3.4"
   ry="3.1"
   id="ellipse280" />
	<polygon
   class="st7"
   points="7.1,101 5.5,101.6 4.3,102.7 3.8,104.5 4.6,103.1 5.7,102  "
   id="polygon282" />
</g>
<g
   id="g290">
	<ellipse
   class="st14"
   cx="105.2"
   cy="45.3"
   rx="3.4"
   ry="3.1"
   id="ellipse286" />
	<polygon
   class="st7"
   points="106.9,43.7 105.3,44.4 104.2,45.5 103.6,47.3 104.4,45.8 105.5,44.8  "
   id="polygon288" />
</g>
<g
   id="g296">
	<ellipse
   class="st14"
   cx="105.3"
   cy="100.2"
   rx="3.4"
   ry="3.1"
   id="ellipse292" />
	<polygon
   class="st7"
   points="107.1,98.6 105.5,99.2 104.3,100.3 103.8,102.2 104.6,100.7 105.7,99.6  "
   id="polygon294" />
</g>


<rect
   x="2.6"
   y="36.9"
   class="st9"
   width="103.3"
   height="2.4"
   id="rect302" />
<g
   id="g334">
	<path
   class="st16"
   d="M28.9,36.8c0-0.5-0.1-26.8-0.1-26.8h17.2v26.8H28.9"
   id="path304" />
	<path
   class="st17"
   d="M46.1,10L44,8.1H30.6L28.9,10l0,0c5.6,0.8,11.3,0.9,16.9,0L46.1,10z"
   id="path306" />
	<path
   class="st7"
   d="M44,8.1L44,8.1c-4.5,0.6-9,0.6-13.4,0l0,0V5.6H44V8.1z"
   id="path308" />
	<path
   class="st16"
   d="M32.1,1.8l-1.5,3.8l2.7,0.3c2.7,0.3,5.4,0.3,8.2,0L44,5.6l-1.3-4.4L42.3,1c-3.3-1.4-6.8-1.4-10,0.2l0,0L32,2"
   id="path310" />
	<polyline
   class="st7"
   points="31,10.4 31.1,10.3 32,8.3 32.8,8.3 32,10.4  "
   id="polyline312" />
	<polygon
   class="st7"
   points="34.7,10.6 34.9,8.5 35.7,8.5 35.7,10.6  "
   id="polygon314" />
	<polyline
   class="st7"
   points="44,10.4 44,10.3 43,8.3 42.3,8.3 43.1,10.4  "
   id="polyline316" />
	<polygon
   class="st7"
   points="40.5,10.5 40.2,8.5 39.3,8.5 39.4,10.6  "
   id="polygon318" />
	<polygon
   class="st7"
   points="28.9,36.8 27.2,36.8 27.2,32 28.9,29.7  "
   id="polygon320" />
	<polygon
   class="st7"
   points="46.1,36.8 47.7,36.8 47.7,32 46.1,29.7  "
   id="polygon322" />
	<g
   id="g332">
		<path
   class="st18"
   d="M35.3,18.5"
   id="path324" />
		<path
   class="st18"
   d="M39.3,18.5"
   id="path326" />
		<path
   class="st18"
   d="M37.3,21"
   id="path328" />
		<path
   class="st18"
   d="M37.3,16.1"
   id="path330" />
	</g>
</g>
<rect
   x="30.6"
   y="12.5"
   class="st19"
   width="13.8"
   height="22"
   id="rect336" />
<g
   id="g368">
	<path
   class="st16"
   d="M6.9,36.8C6.9,36.3,6.9,10,6.9,10h17.2v26.8H6.9"
   id="path338" />
	<path
   class="st17"
   d="M24.1,10L22,8.1H8.6L6.9,10l0,0c5.6,0.8,11.3,0.9,16.9,0L24.1,10z"
   id="path340" />
	<path
   class="st7"
   d="M22,8.1L22,8.1c-4.5,0.6-9,0.6-13.4,0l0,0V5.6H22V8.1z"
   id="path342" />
	<path
   class="st16"
   d="M10.1,1.8L8.6,5.6l2.7,0.3c2.7,0.3,5.4,0.3,8.2,0L22,5.6l-1.3-4.4L20.3,1c-3.3-1.4-6.8-1.4-10,0.2l0,0L10,2"
   id="path344" />
	<polyline
   class="st7"
   points="9.1,10.4 9.1,10.3 10,8.3 10.8,8.3 10,10.4  "
   id="polyline346" />
	<polygon
   class="st7"
   points="12.7,10.6 12.9,8.5 13.8,8.5 13.7,10.6  "
   id="polygon348" />
	<polyline
   class="st7"
   points="22,10.4 22,10.3 21.1,8.3 20.3,8.3 21.1,10.4  "
   id="polyline350" />
	<polygon
   class="st7"
   points="18.5,10.5 18.3,8.5 17.4,8.5 17.4,10.6  "
   id="polygon352" />
	<polygon
   class="st7"
   points="6.9,36.8 5.3,36.8 5.3,32 6.9,29.7  "
   id="polygon354" />
	<polygon
   class="st7"
   points="24.1,36.8 25.8,36.8 25.8,32 24.1,29.7  "
   id="polygon356" />
	<g
   id="g366">
		<path
   class="st18"
   d="M13.3,18.5"
   id="path358" />
		<path
   class="st18"
   d="M17.3,18.5"
   id="path360" />
		<path
   class="st18"
   d="M15.3,21"
   id="path362" />
		<path
   class="st18"
   d="M15.3,16.1"
   id="path364" />
	</g>
</g>
<rect
   x="8.6"
   y="12.5"
   class="st19"
   width="13.8"
   height="22"
   id="rect370" />
<g
   id="g402">
	<path
   class="st16"
   d="M85.2,36.7c0-0.5-0.1-26.8-0.1-26.8h17.2v26.8H85.2"
   id="path372" />
	<path
   class="st17"
   d="M102.3,9.9L100.3,8H86.8l-1.7,1.9l0,0c5.6,0.8,11.3,0.9,16.9,0L102.3,9.9z"
   id="path374" />
	<path
   class="st7"
   d="M100.3,8L100.3,8c-4.5,0.6-9,0.6-13.4,0v0V5.5h13.4V8z"
   id="path376" />
	<path
   class="st16"
   d="M88.4,1.7l-1.5,3.8l2.7,0.3C92.3,6,95,6,97.7,5.7l2.6-0.2L99,1.1l-0.4-0.2c-3.3-1.4-6.8-1.4-10,0.2l0,0   l-0.3,0.8"
   id="path378" />
	<polyline
   class="st7"
   points="87.3,10.3 87.3,10.2 88.3,8.2 89,8.2 88.2,10.3  "
   id="polyline380" />
	<polygon
   class="st7"
   points="91,10.5 91.2,8.4 92,8.4 92,10.5  "
   id="polygon382" />
	<polyline
   class="st7"
   points="100.3,10.3 100.3,10.2 99.3,8.2 98.6,8.2 99.4,10.3  "
   id="polyline384" />
	<polygon
   class="st7"
   points="96.8,10.4 96.5,8.4 95.6,8.4 95.7,10.5  "
   id="polygon386" />
	<polygon
   class="st7"
   points="85.2,36.7 83.5,36.7 83.5,31.9 85.2,29.6  "
   id="polygon388" />
	<polygon
   class="st7"
   points="102.3,36.7 104,36.7 104,31.9 102.3,29.6  "
   id="polygon390" />
	<g
   id="g400">
		<path
   class="st18"
   d="M91.5,18.4"
   id="path392" />
		<path
   class="st18"
   d="M95.6,18.4"
   id="path394" />
		<path
   class="st18"
   d="M93.6,20.9"
   id="path396" />
		<path
   class="st18"
   d="M93.6,16"
   id="path398" />
	</g>
</g>
<rect
   x="86.8"
   y="12.4"
   class="st19"
   width="13.8"
   height="22"
   id="rect404" />
<g
   id="g436">
	<path
   class="st16"
   d="M63.2,36.7c0-0.5-0.1-26.8-0.1-26.8h17.2v26.8H63.2"
   id="path406" />
	<path
   class="st17"
   d="M80.4,9.9L78.3,8H64.9l-1.7,1.9l0,0c5.6,0.8,11.3,0.9,16.9,0L80.4,9.9z"
   id="path408" />
	<path
   class="st7"
   d="M78.3,8L78.3,8c-4.5,0.6-9,0.6-13.4,0l0,0V5.5h13.4V8z"
   id="path410" />
	<path
   class="st16"
   d="M66.4,1.7l-1.5,3.8l2.7,0.3C70.3,6,73,6,75.7,5.7l2.6-0.2L77,1.1l-0.4-0.2c-3.3-1.4-6.8-1.4-10,0.2l0,0   l-0.3,0.8"
   id="path412" />
	<polyline
   class="st7"
   points="65.3,10.3 65.4,10.2 66.3,8.2 67,8.2 66.3,10.3  "
   id="polyline414" />
	<polygon
   class="st7"
   points="69,10.5 69.2,8.4 70,8.4 70,10.5  "
   id="polygon416" />
	<polyline
   class="st7"
   points="78.3,10.3 78.3,10.2 77.3,8.2 76.6,8.2 77.4,10.3  "
   id="polyline418" />
	<polygon
   class="st7"
   points="74.8,10.4 74.5,8.4 73.6,8.4 73.7,10.5  "
   id="polygon420" />
	<polygon
   class="st7"
   points="63.2,36.7 61.5,36.7 61.5,31.9 63.2,29.6  "
   id="polygon422" />
	<polygon
   class="st7"
   points="80.4,36.7 82,36.7 82,31.9 80.4,29.6  "
   id="polygon424" />
	<g
   id="g434">
		<path
   class="st18"
   d="M69.6,18.4"
   id="path426" />
		<path
   class="st18"
   d="M73.6,18.4"
   id="path428" />
		<path
   class="st18"
   d="M71.6,20.9"
   id="path430" />
		<path
   class="st18"
   d="M71.6,16"
   id="path432" />
	</g>
</g>
<g
   id="g468">
	<path
   class="st16"
   d="M50.5,36.7c0-0.4,0-21.3,0-21.3h8.2v21.3H50.5"
   id="path438" />
	<path
   class="st17"
   d="M58.6,15.4l-1-1.5h-6.4l-0.8,1.5l0,0c2.7,0.7,5.4,0.7,8,0L58.6,15.4z"
   id="path440" />
	<path
   class="st7"
   d="M57.7,14.1L57.7,14.1c-2.1,0.3-4.3,0.3-6.4,0h0v-1h6.4V14.1z"
   id="path442" />
	<path
   class="st16"
   d="M52,11.6l-0.7,1.5l1.3,0.1c1.3,0.1,2.6,0.1,3.9,0l1.2-0.1L57,11.4l-0.2-0.1c-1.6-0.6-3.2-0.5-4.8,0.1v0   L52,11.6"
   id="path444" />
	<polyline
   class="st7"
   points="51.5,15.7 51.5,15.7 51.9,14 52.3,14.1 51.9,15.8  "
   id="polyline446" />
	<polygon
   class="st7"
   points="53.2,15.9 53.3,14.2 53.7,14.3 53.7,15.9  "
   id="polygon448" />
	<polyline
   class="st7"
   points="57.7,15.7 57.6,15.7 57.2,14 56.8,14.1 57.2,15.8  "
   id="polyline450" />
	<polygon
   class="st7"
   points="56,15.9 55.9,14.2 55.4,14.2 55.5,15.9  "
   id="polygon452" />
	<polygon
   class="st7"
   points="50.5,36.7 49.7,36.7 49.7,33.4 50.4,31.8  "
   id="polygon454" />
	<polygon
   class="st7"
   points="58.6,36.7 59.4,36.7 59.4,33.4 58.6,31.8  "
   id="polygon456" />
	<g
   id="g466">
		<path
   class="st20"
   d="M53.5,22.2"
   id="path458" />
		<path
   class="st20"
   d="M55.4,22.2"
   id="path460" />
		<path
   class="st20"
   d="M54.5,24.1"
   id="path462" />
		<path
   class="st20"
   d="M54.5,20.3"
   id="path464" />
	</g>
</g>
<rect
   x="64.8"
   y="12.4"
   class="st19"
   width="13.8"
   height="22"
   id="rect470" />
<rect
   x="53.6"
   y="19.4"
   class="st17"
   width="1.6"
   height="2.1"
   id="rect472" />
<rect
   x="53.6"
   y="24.9"
   class="st17"
   width="1.6"
   height="2.1"
   id="rect474" />
</svg>
