<?xml version="1.0" encoding="utf-8"?>
<!-- Generator: Adobe Illustrator 26.4.1, SVG Export Plug-In . SVG Version: 6.00 Build 0)  -->
<svg version="1.1" id="Layer_1" xmlns="http://www.w3.org/2000/svg" xmlns:xlink="http://www.w3.org/1999/xlink" x="0px" y="0px"
	 viewBox="0 0 389.3 108" style="enable-background:new 0 0 389.3 108;" xml:space="preserve">
<style type="text/css">
	.st0{fill:#727272;stroke:#5B5B5B;stroke-width:1.7598;stroke-miterlimit:10;}
	.st1{fill:#3C4C41;stroke:#2F3D33;stroke-width:3.5634;stroke-miterlimit:10;}
	.st2{fill:#4F4F4F;}
	.st3{fill:#706051;}
	.st4{opacity:0.36;}
	.st5{clip-path:url(#SVGID_00000043443131378008431870000002063177518472185001_);fill:#FFFFFF;}
	.st6{fill:#606060;}
	.st7{fill:#939393;}
	.st8{clip-path:url(#SVGID_00000165922130843141801870000000444062087601813687_);fill:#FFFFFF;}
	.st9{fill:#3A3838;}
	.st10{clip-path:url(#SVGID_00000142896872948937615230000005072722838911722403_);fill:#FFFFFF;}
	.st11{fill:#727272;stroke:#5B5B5B;stroke-width:1.0692;stroke-miterlimit:10;}
	.st12{fill:#3C4C41;stroke:#2F3D33;stroke-width:1.1018;stroke-miterlimit:10;}
	.st13{fill:#3C4C41;stroke:#2F3D33;stroke-width:2.4971;stroke-miterlimit:10;}
	.st14{fill:#66605C;}
	.st15{opacity:3.000000e-02;fill:#FFFFFF;}
	.st16{fill:#727272;}
	.st17{fill:#A4FFFF;}
	.st18{fill:none;stroke:#561C1C;stroke-width:0.584;stroke-miterlimit:10;}
	.st19{fill:#3C4C41;stroke:#2F3D33;stroke-width:0.8347;stroke-miterlimit:10;}
	.st20{fill:none;stroke:#561C1C;stroke-width:0.3593;stroke-miterlimit:10;}
</style>
<g>
	<path class="st0" d="M373.9,69.4H157.8c-8.5,0-15.4-6.9-15.4-15.4v0c0-8.5,6.9-15.4,15.4-15.4h216.1c8.5,0,15.4,6.9,15.4,15.4v0
		C389.3,62.5,382.4,69.4,373.9,69.4z"/>
	<path class="st1" d="M367.7,63.3H155.4c-5,0-9-4-9-9v-0.6c0-5,4-9,9-9h212.3c5,0,9,4,9,9v0.6C376.6,59.3,372.6,63.3,367.7,63.3z"/>
	<path class="st2" d="M370.7,66.4H160.9c-7.1,0-12.9-4.7-12.9-10.4v-4c0-5.8,5.8-10.4,12.9-10.4h209.8c7.1,0,12.9,4.7,12.9,10.4v4
		C383.6,61.7,377.8,66.4,370.7,66.4z M160.9,46.7c-3.6,0-6.5,2.4-6.5,5.3v4c0,2.9,2.9,5.3,6.5,5.3h209.8c3.6,0,6.5-2.4,6.5-5.3v-4
		c0-2.9-2.9-5.3-6.5-5.3H160.9z"/>
	<path class="st3" d="M368.7,61.5H161.6c-5.4,0-8.1-3.5-8.1-7.9s4.4-7.9,9.8-7.9h205.5c5.4,0,9.8,3.5,9.8,7.9S374.1,61.5,368.7,61.5
		z M159.9,48.8c-3.3,0-2.7,2.2-2.7,4.9s0.2,4.9,3.5,4.9h208c3.3,0,6-2.2,6-4.9s-2.7-4.9-6-4.9H159.9z"/>
	<g class="st4">
		<defs>
			<path id="SVGID_1_" class="st4" d="M361.8,66.4H152c-7.1,0-12.9-4.7-12.9-10.4v-4c0-5.8,5.8-10.4,12.9-10.4h209.8
				c7.1,0,12.9,4.7,12.9,10.4v4C374.8,61.7,369,66.4,361.8,66.4z M152,46.7c-3.6,0-6.5,2.4-6.5,5.3v4c0,2.9,2.9,5.3,6.5,5.3h209.8
				c3.6,0,6.5-2.4,6.5-5.3v-4c0-2.9-2.9-5.3-6.5-5.3H152z"/>
		</defs>
		<clipPath id="SVGID_00000093158297109497905900000010871397924439217287_">
			<use xlink:href="#SVGID_1_"  style="overflow:visible;"/>
		</clipPath>
		<polygon style="clip-path:url(#SVGID_00000093158297109497905900000010871397924439217287_);fill:#FFFFFF;" points="229.8,81.4 
			221.7,78.5 262.7,3.7 270.8,6.6 		"/>
		<polygon style="clip-path:url(#SVGID_00000093158297109497905900000010871397924439217287_);fill:#FFFFFF;" points="247.2,86.9 
			232.6,81.7 273.6,6.9 288.2,12.1 		"/>
	</g>
	<g>
		<circle class="st6" cx="165.5" cy="43.7" r="1.5"/>
		<polygon class="st7" points="166.3,42.9 165.6,43.2 165,43.8 164.8,44.7 165.2,43.9 165.6,43.4 		"/>
	</g>
	<g>
		<circle class="st6" cx="165.5" cy="64.1" r="1.5"/>
		<polygon class="st7" points="166.3,63.3 165.6,63.6 165,64.1 164.8,65 165.2,64.3 165.6,63.8 		"/>
	</g>
	<g>
		<circle class="st6" cx="368.4" cy="43.7" r="1.5"/>
		<polygon class="st7" points="369.2,42.9 368.4,43.2 367.9,43.8 367.7,44.7 368.1,43.9 368.5,43.4 		"/>
	</g>
	<g>
		<circle class="st6" cx="368.4" cy="64.1" r="1.5"/>
		<polygon class="st7" points="369.2,63.3 368.4,63.6 367.9,64.1 367.7,65 368.1,64.3 368.5,63.8 		"/>
	</g>
	<g>
		<circle class="st6" cx="309.3" cy="43.7" r="1.5"/>
		<polygon class="st7" points="310,42.9 309.3,43.2 308.8,43.8 308.5,44.7 308.9,43.9 309.4,43.4 		"/>
	</g>
	<g>
		<circle class="st6" cx="309.3" cy="64.1" r="1.5"/>
		<polygon class="st7" points="310,63.3 309.3,63.6 308.8,64.1 308.5,65 308.9,64.3 309.4,63.8 		"/>
	</g>
	<g>
		<circle class="st6" cx="216.4" cy="43.7" r="1.5"/>
		<polygon class="st7" points="217.2,42.9 216.5,43.2 216,43.8 215.7,44.7 216.1,43.9 216.6,43.4 		"/>
	</g>
	<g>
		<circle class="st6" cx="216.4" cy="64.1" r="1.5"/>
		<polygon class="st7" points="217.2,63.3 216.5,63.6 216,64.1 215.7,65 216.1,64.3 216.6,63.8 		"/>
	</g>
	<g>
		<circle class="st6" cx="150.3" cy="53.6" r="1.5"/>
		<polygon class="st7" points="151.1,52.9 150.3,53.1 149.8,53.7 149.6,54.6 149.9,53.9 150.4,53.4 		"/>
	</g>
	<g>
		<circle class="st6" cx="380.8" cy="53.6" r="1.5"/>
		<polygon class="st7" points="381.6,52.9 380.9,53.1 380.4,53.7 380.1,54.6 380.5,53.9 381,53.4 		"/>
	</g>
</g>
<g>
	<path class="st0" d="M373.9,106.5H157.8c-8.5,0-15.4-6.9-15.4-15.4v0c0-8.5,6.9-15.4,15.4-15.4h216.1c8.5,0,15.4,6.9,15.4,15.4v0
		C389.3,99.6,382.4,106.5,373.9,106.5z"/>
	<path class="st1" d="M367.7,100.4H155.4c-5,0-9-4-9-9v-0.6c0-5,4-9,9-9h212.3c5,0,9,4,9,9v0.6C376.6,96.4,372.6,100.4,367.7,100.4z
		"/>
	<path class="st2" d="M370.7,103.5H160.9c-7.1,0-12.9-4.7-12.9-10.4v-4c0-5.8,5.8-10.4,12.9-10.4h209.8c7.1,0,12.9,4.7,12.9,10.4v4
		C383.6,98.8,377.8,103.5,370.7,103.5z M160.9,83.8c-3.6,0-6.5,2.4-6.5,5.3v4c0,2.9,2.9,5.3,6.5,5.3h209.8c3.6,0,6.5-2.4,6.5-5.3v-4
		c0-2.9-2.9-5.3-6.5-5.3H160.9z"/>
	<path class="st3" d="M368.7,98.6H161.6c-5.4,0-8.1-3.5-8.1-7.9c0-4.4,4.4-7.9,9.8-7.9h205.5c5.4,0,9.8,3.5,9.8,7.9
		C378.5,95.1,374.1,98.6,368.7,98.6z M159.9,85.9c-3.3,0-2.7,2.2-2.7,4.9c0,2.7,0.2,4.9,3.5,4.9h208c3.3,0,6-2.2,6-4.9
		c0-2.7-2.7-4.9-6-4.9H159.9z"/>
	<g class="st4">
		<defs>
			<path id="SVGID_00000009572781432094790090000008781343183918906018_" class="st4" d="M361.8,103.5H152
				c-7.1,0-12.9-4.7-12.9-10.4v-4c0-5.8,5.8-10.4,12.9-10.4h209.8c7.1,0,12.9,4.7,12.9,10.4v4C374.8,98.8,369,103.5,361.8,103.5z
				 M152,83.8c-3.6,0-6.5,2.4-6.5,5.3v4c0,2.9,2.9,5.3,6.5,5.3h209.8c3.6,0,6.5-2.4,6.5-5.3v-4c0-2.9-2.9-5.3-6.5-5.3H152z"/>
		</defs>
		<clipPath id="SVGID_00000012459027257385243720000007845587113375555722_">
			<use xlink:href="#SVGID_00000009572781432094790090000008781343183918906018_"  style="overflow:visible;"/>
		</clipPath>
		<polygon style="clip-path:url(#SVGID_00000012459027257385243720000007845587113375555722_);fill:#FFFFFF;" points="229.8,118.5 
			221.7,115.6 262.7,40.8 270.8,43.7 		"/>
		<polygon style="clip-path:url(#SVGID_00000012459027257385243720000007845587113375555722_);fill:#FFFFFF;" points="247.2,124 
			232.6,118.8 273.6,44 288.2,49.2 		"/>
	</g>
	<g>
		<circle class="st6" cx="165.5" cy="80.8" r="1.5"/>
		<polygon class="st7" points="166.3,80 165.6,80.3 165,80.9 164.8,81.8 165.2,81 165.6,80.5 		"/>
	</g>
	<g>
		<circle class="st6" cx="165.5" cy="101.2" r="1.5"/>
		<polygon class="st7" points="166.3,100.4 165.6,100.7 165,101.2 164.8,102.1 165.2,101.4 165.6,100.9 		"/>
	</g>
	<g>
		<circle class="st6" cx="368.4" cy="80.8" r="1.5"/>
		<polygon class="st7" points="369.2,80 368.4,80.3 367.9,80.9 367.7,81.8 368.1,81 368.5,80.5 		"/>
	</g>
	<g>
		<circle class="st6" cx="368.4" cy="101.2" r="1.5"/>
		<polygon class="st7" points="369.2,100.4 368.4,100.7 367.9,101.2 367.7,102.1 368.1,101.4 368.5,100.9 		"/>
	</g>
	<g>
		<circle class="st6" cx="309.3" cy="80.8" r="1.5"/>
		<polygon class="st7" points="310,80 309.3,80.3 308.8,80.9 308.5,81.8 308.9,81 309.4,80.5 		"/>
	</g>
	<g>
		<circle class="st6" cx="309.3" cy="101.2" r="1.5"/>
		<polygon class="st7" points="310,100.4 309.3,100.7 308.8,101.2 308.5,102.1 308.9,101.4 309.4,100.9 		"/>
	</g>
	<g>
		<circle class="st6" cx="216.4" cy="80.8" r="1.5"/>
		<polygon class="st7" points="217.2,80 216.5,80.3 216,80.9 215.7,81.8 216.1,81 216.6,80.5 		"/>
	</g>
	<g>
		<circle class="st6" cx="216.4" cy="101.2" r="1.5"/>
		<polygon class="st7" points="217.2,100.4 216.5,100.7 216,101.2 215.7,102.1 216.1,101.4 216.6,100.9 		"/>
	</g>
	<g>
		<circle class="st6" cx="150.3" cy="90.7" r="1.5"/>
		<polygon class="st7" points="151.1,89.9 150.3,90.2 149.8,90.8 149.6,91.7 149.9,91 150.4,90.4 		"/>
	</g>
	<g>
		<circle class="st6" cx="380.8" cy="90.7" r="1.5"/>
		<polygon class="st7" points="381.6,89.9 380.9,90.2 380.4,90.8 380.1,91.7 380.5,91 381,90.4 		"/>
	</g>
</g>
<polygon class="st9" points="148.5,82.3 105.4,84.7 105.9,34.1 148.5,3.7 "/>
<g>
	<path class="st0" d="M372.3,32.3H156.2c-8.5,0-15.4-6.9-15.4-15.4v0c0-8.5,6.9-15.4,15.4-15.4h216.1c8.5,0,15.4,6.9,15.4,15.4v0
		C387.6,25.4,380.8,32.3,372.3,32.3z"/>
	<path class="st1" d="M366,26.2H153.7c-5,0-9-4-9-9v-0.6c0-5,4-9,9-9H366c5,0,9,4,9,9v0.6C375,22.2,371,26.2,366,26.2z"/>
	<path class="st2" d="M369.1,29.3H159.3c-7.1,0-12.9-4.7-12.9-10.4v-4c0-5.8,5.8-10.4,12.9-10.4h209.8c7.1,0,12.9,4.7,12.9,10.4v4
		C382,24.6,376.2,29.3,369.1,29.3z M159.3,9.6c-3.6,0-6.5,2.4-6.5,5.3v4c0,2.9,2.9,5.3,6.5,5.3h209.8c3.6,0,6.5-2.4,6.5-5.3v-4
		c0-2.9-2.9-5.3-6.5-5.3H159.3z"/>
	<path class="st3" d="M367.1,24.4H160c-5.4,0-8.1-3.5-8.1-7.9s4.4-7.9,9.8-7.9h205.5c5.4,0,9.8,3.5,9.8,7.9S372.5,24.4,367.1,24.4z
		 M158.3,11.7c-3.3,0-2.7,2.2-2.7,4.9s0.2,4.9,3.5,4.9h208c3.3,0,6-2.2,6-4.9s-2.7-4.9-6-4.9H158.3z"/>
	<g class="st4">
		<defs>
			<path id="SVGID_00000173130334238657279170000004597752745559357883_" class="st4" d="M360.2,29.3H150.4
				c-7.1,0-12.9-4.7-12.9-10.4v-4c0-5.8,5.8-10.4,12.9-10.4h209.8c7.1,0,12.9,4.7,12.9,10.4v4C373.2,24.6,367.4,29.3,360.2,29.3z
				 M150.4,9.6c-3.6,0-6.5,2.4-6.5,5.3v4c0,2.9,2.9,5.3,6.5,5.3h209.8c3.6,0,6.5-2.4,6.5-5.3v-4c0-2.9-2.9-5.3-6.5-5.3H150.4z"/>
		</defs>
		<clipPath id="SVGID_00000165926919016148431780000008069790171134740666_">
			<use xlink:href="#SVGID_00000173130334238657279170000004597752745559357883_"  style="overflow:visible;"/>
		</clipPath>
		<polygon style="clip-path:url(#SVGID_00000165926919016148431780000008069790171134740666_);fill:#FFFFFF;" points="228.2,44.3 
			220.1,41.4 261.1,-33.4 269.2,-30.5 		"/>
		<polygon style="clip-path:url(#SVGID_00000165926919016148431780000008069790171134740666_);fill:#FFFFFF;" points="245.6,49.8 
			231,44.6 272,-30.2 286.6,-25 		"/>
	</g>
	<g>
		<circle class="st6" cx="163.9" cy="6.6" r="1.5"/>
		<polygon class="st7" points="164.7,5.8 164,6.1 163.4,6.7 163.2,7.6 163.6,6.9 164,6.3 		"/>
	</g>
	<g>
		<circle class="st6" cx="163.9" cy="27" r="1.5"/>
		<polygon class="st7" points="164.7,26.2 164,26.5 163.4,27 163.2,27.9 163.6,27.2 164,26.7 		"/>
	</g>
	<g>
		<circle class="st6" cx="366.8" cy="6.6" r="1.5"/>
		<polygon class="st7" points="367.6,5.8 366.8,6.1 366.3,6.7 366.1,7.6 366.4,6.9 366.9,6.3 		"/>
	</g>
	<g>
		<circle class="st6" cx="366.8" cy="27" r="1.5"/>
		<polygon class="st7" points="367.6,26.2 366.8,26.5 366.3,27 366.1,27.9 366.4,27.2 366.9,26.7 		"/>
	</g>
	<g>
		<circle class="st6" cx="307.6" cy="6.6" r="1.5"/>
		<polygon class="st7" points="308.4,5.8 307.7,6.1 307.2,6.7 306.9,7.6 307.3,6.9 307.8,6.3 		"/>
	</g>
	<g>
		<circle class="st6" cx="307.6" cy="27" r="1.5"/>
		<polygon class="st7" points="308.4,26.2 307.7,26.5 307.2,27 306.9,27.9 307.3,27.2 307.8,26.7 		"/>
	</g>
	<g>
		<circle class="st6" cx="214.8" cy="6.6" r="1.5"/>
		<polygon class="st7" points="215.6,5.8 214.9,6.1 214.3,6.7 214.1,7.6 214.5,6.9 214.9,6.3 		"/>
	</g>
	<g>
		<circle class="st6" cx="214.8" cy="27" r="1.5"/>
		<polygon class="st7" points="215.6,26.2 214.9,26.5 214.3,27 214.1,27.9 214.5,27.2 214.9,26.7 		"/>
	</g>
	<g>
		<circle class="st6" cx="148.7" cy="16.5" r="1.5"/>
		<polygon class="st7" points="149.5,15.8 148.7,16.1 148.2,16.6 148,17.5 148.3,16.8 148.8,16.3 		"/>
	</g>
	<g>
		<circle class="st6" cx="379.2" cy="16.5" r="1.5"/>
		<polygon class="st7" points="380,15.8 379.3,16.1 378.8,16.6 378.5,17.5 378.9,16.8 379.4,16.3 		"/>
	</g>
</g>
<g>
	<rect x="111.9" y="-0.1" class="st11" width="47.8" height="34"/>
	<path class="st12" d="M152.2,28.8l-13.1,1c-2.3,0.2-4.7,0.2-7,0l-12.4-1c-1,0-1.8-1-1.8-2.2V6.2c0-1.2,0.8-2.2,1.8-2.2l13.4-1
		c2.2-0.2,4.4-0.2,6.7,0L152.2,4c1,0,1.8,1,1.8,2.2v20.5C154.1,27.9,153.2,28.8,152.2,28.8z"/>
</g>
<g>
	<rect x="111.9" y="37" class="st11" width="47.8" height="34"/>
	<path class="st12" d="M152.2,65.9l-13.1,1c-2.3,0.2-4.7,0.2-7,0l-12.4-1c-1,0-1.8-1-1.8-2.2V43.3c0-1.2,0.8-2.2,1.8-2.2l13.4-1
		c2.2-0.2,4.4-0.2,6.7,0l12.4,0.9c1,0,1.8,1,1.8,2.2v20.5C154.1,65,153.2,65.9,152.2,65.9z"/>
</g>
<g>
	<rect x="111.9" y="74.1" class="st11" width="47.8" height="34"/>
	<path class="st12" d="M152.2,103l-13.1,1c-2.3,0.2-4.7,0.2-7,0l-12.4-1c-1,0-1.8-1-1.8-2.2V80.4c0-1.2,0.8-2.2,1.8-2.2l13.4-1
		c2.2-0.2,4.4-0.2,6.7,0l12.4,0.9c1,0,1.8,1,1.8,2.2v20.5C154.1,102.1,153.2,103,152.2,103z"/>
</g>
<rect x="-0.3" y="39.7" class="st11" width="111.9" height="68.4"/>
<path class="st13" d="M95.5,100.6l-33,2.1c-5.9,0.4-11.7,0.4-17.6,0l-31.1-2c-2.6,0-4.6-2-4.6-4.6V53.1c0-2.5,2.1-4.6,4.6-4.6
	l33.7-2c5.6-0.3,11.2-0.3,16.7,0l31.2,2c2.6,0,4.6,2,4.6,4.6V96C100.1,98.5,98,100.6,95.5,100.6z"/>
<g>
	<ellipse class="st14" cx="6.8" cy="46.2" rx="3.4" ry="3.1"/>
	<polygon class="st7" points="8.6,44.7 7,45.3 5.8,46.4 5.3,48.2 6.1,46.7 7.2,45.7 	"/>
</g>
<g>
	<ellipse class="st14" cx="5.3" cy="102.6" rx="3.4" ry="3.1"/>
	<polygon class="st7" points="7.1,101 5.5,101.6 4.3,102.7 3.8,104.5 4.6,103.1 5.7,102 	"/>
</g>
<g>
	<ellipse class="st14" cx="105.2" cy="45.3" rx="3.4" ry="3.1"/>
	<polygon class="st7" points="106.9,43.7 105.3,44.4 104.2,45.5 103.6,47.3 104.4,45.8 105.5,44.8 	"/>
</g>
<g>
	<ellipse class="st14" cx="105.3" cy="100.2" rx="3.4" ry="3.1"/>
	<polygon class="st7" points="107.1,98.6 105.5,99.2 104.3,100.3 103.8,102.2 104.6,100.7 105.7,99.6 	"/>
</g>
<polygon class="st15" points="48,47.3 77.6,47.3 87.8,101.5 56.8,101.5 "/>
<polygon class="st15" points="27.6,48.1 44.5,48.1 54.5,102.3 36.8,102.3 "/>
<rect x="2.6" y="36.9" class="st9" width="103.3" height="2.4"/>
<g>
	<path class="st16" d="M28.9,36.8c0-0.5-0.1-26.8-0.1-26.8h17.2v26.8H28.9"/>
	<path class="st17" d="M46.1,10L44,8.1H30.6L28.9,10l0,0c5.6,0.8,11.3,0.9,16.9,0L46.1,10z"/>
	<path class="st7" d="M44,8.1L44,8.1c-4.5,0.6-9,0.6-13.4,0l0,0V5.6H44V8.1z"/>
	<path class="st16" d="M32.1,1.8l-1.5,3.8l2.7,0.3c2.7,0.3,5.4,0.3,8.2,0L44,5.6l-1.3-4.4L42.3,1c-3.3-1.4-6.8-1.4-10,0.2l0,0L32,2"
		/>
	<polyline class="st7" points="31,10.4 31.1,10.3 32,8.3 32.8,8.3 32,10.4 	"/>
	<polygon class="st7" points="34.7,10.6 34.9,8.5 35.7,8.5 35.7,10.6 	"/>
	<polyline class="st7" points="44,10.4 44,10.3 43,8.3 42.3,8.3 43.1,10.4 	"/>
	<polygon class="st7" points="40.5,10.5 40.2,8.5 39.3,8.5 39.4,10.6 	"/>
	<polygon class="st7" points="28.9,36.8 27.2,36.8 27.2,32 28.9,29.7 	"/>
	<polygon class="st7" points="46.1,36.8 47.7,36.8 47.7,32 46.1,29.7 	"/>
	<g>
		<path class="st18" d="M35.3,18.5"/>
		<path class="st18" d="M39.3,18.5"/>
		<path class="st18" d="M37.3,21"/>
		<path class="st18" d="M37.3,16.1"/>
	</g>
</g>
<rect x="30.6" y="12.5" class="st19" width="13.8" height="22"/>
<g>
	<path class="st16" d="M6.9,36.8C6.9,36.3,6.9,10,6.9,10h17.2v26.8H6.9"/>
	<path class="st17" d="M24.1,10L22,8.1H8.6L6.9,10l0,0c5.6,0.8,11.3,0.9,16.9,0L24.1,10z"/>
	<path class="st7" d="M22,8.1L22,8.1c-4.5,0.6-9,0.6-13.4,0l0,0V5.6H22V8.1z"/>
	<path class="st16" d="M10.1,1.8L8.6,5.6l2.7,0.3c2.7,0.3,5.4,0.3,8.2,0L22,5.6l-1.3-4.4L20.3,1c-3.3-1.4-6.8-1.4-10,0.2l0,0L10,2"
		/>
	<polyline class="st7" points="9.1,10.4 9.1,10.3 10,8.3 10.8,8.3 10,10.4 	"/>
	<polygon class="st7" points="12.7,10.6 12.9,8.5 13.8,8.5 13.7,10.6 	"/>
	<polyline class="st7" points="22,10.4 22,10.3 21.1,8.3 20.3,8.3 21.1,10.4 	"/>
	<polygon class="st7" points="18.5,10.5 18.3,8.5 17.4,8.5 17.4,10.6 	"/>
	<polygon class="st7" points="6.9,36.8 5.3,36.8 5.3,32 6.9,29.7 	"/>
	<polygon class="st7" points="24.1,36.8 25.8,36.8 25.8,32 24.1,29.7 	"/>
	<g>
		<path class="st18" d="M13.3,18.5"/>
		<path class="st18" d="M17.3,18.5"/>
		<path class="st18" d="M15.3,21"/>
		<path class="st18" d="M15.3,16.1"/>
	</g>
</g>
<rect x="8.6" y="12.5" class="st19" width="13.8" height="22"/>
<g>
	<path class="st16" d="M85.2,36.7c0-0.5-0.1-26.8-0.1-26.8h17.2v26.8H85.2"/>
	<path class="st17" d="M102.3,9.9L100.3,8H86.8l-1.7,1.9l0,0c5.6,0.8,11.3,0.9,16.9,0L102.3,9.9z"/>
	<path class="st7" d="M100.3,8L100.3,8c-4.5,0.6-9,0.6-13.4,0v0V5.5h13.4V8z"/>
	<path class="st16" d="M88.4,1.7l-1.5,3.8l2.7,0.3C92.3,6,95,6,97.7,5.7l2.6-0.2L99,1.1l-0.4-0.2c-3.3-1.4-6.8-1.4-10,0.2l0,0
		l-0.3,0.8"/>
	<polyline class="st7" points="87.3,10.3 87.3,10.2 88.3,8.2 89,8.2 88.2,10.3 	"/>
	<polygon class="st7" points="91,10.5 91.2,8.4 92,8.4 92,10.5 	"/>
	<polyline class="st7" points="100.3,10.3 100.3,10.2 99.3,8.2 98.6,8.2 99.4,10.3 	"/>
	<polygon class="st7" points="96.8,10.4 96.5,8.4 95.6,8.4 95.7,10.5 	"/>
	<polygon class="st7" points="85.2,36.7 83.5,36.7 83.5,31.9 85.2,29.6 	"/>
	<polygon class="st7" points="102.3,36.7 104,36.7 104,31.9 102.3,29.6 	"/>
	<g>
		<path class="st18" d="M91.5,18.4"/>
		<path class="st18" d="M95.6,18.4"/>
		<path class="st18" d="M93.6,20.9"/>
		<path class="st18" d="M93.6,16"/>
	</g>
</g>
<rect x="86.8" y="12.4" class="st19" width="13.8" height="22"/>
<g>
	<path class="st16" d="M63.2,36.7c0-0.5-0.1-26.8-0.1-26.8h17.2v26.8H63.2"/>
	<path class="st17" d="M80.4,9.9L78.3,8H64.9l-1.7,1.9l0,0c5.6,0.8,11.3,0.9,16.9,0L80.4,9.9z"/>
	<path class="st7" d="M78.3,8L78.3,8c-4.5,0.6-9,0.6-13.4,0l0,0V5.5h13.4V8z"/>
	<path class="st16" d="M66.4,1.7l-1.5,3.8l2.7,0.3C70.3,6,73,6,75.7,5.7l2.6-0.2L77,1.1l-0.4-0.2c-3.3-1.4-6.8-1.4-10,0.2l0,0
		l-0.3,0.8"/>
	<polyline class="st7" points="65.3,10.3 65.4,10.2 66.3,8.2 67,8.2 66.3,10.3 	"/>
	<polygon class="st7" points="69,10.5 69.2,8.4 70,8.4 70,10.5 	"/>
	<polyline class="st7" points="78.3,10.3 78.3,10.2 77.3,8.2 76.6,8.2 77.4,10.3 	"/>
	<polygon class="st7" points="74.8,10.4 74.5,8.4 73.6,8.4 73.7,10.5 	"/>
	<polygon class="st7" points="63.2,36.7 61.5,36.7 61.5,31.9 63.2,29.6 	"/>
	<polygon class="st7" points="80.4,36.7 82,36.7 82,31.9 80.4,29.6 	"/>
	<g>
		<path class="st18" d="M69.6,18.4"/>
		<path class="st18" d="M73.6,18.4"/>
		<path class="st18" d="M71.6,20.9"/>
		<path class="st18" d="M71.6,16"/>
	</g>
</g>
<g>
	<path class="st16" d="M50.5,36.7c0-0.4,0-21.3,0-21.3h8.2v21.3H50.5"/>
	<path class="st17" d="M58.6,15.4l-1-1.5h-6.4l-0.8,1.5l0,0c2.7,0.7,5.4,0.7,8,0L58.6,15.4z"/>
	<path class="st7" d="M57.7,14.1L57.7,14.1c-2.1,0.3-4.3,0.3-6.4,0h0v-1h6.4V14.1z"/>
	<path class="st16" d="M52,11.6l-0.7,1.5l1.3,0.1c1.3,0.1,2.6,0.1,3.9,0l1.2-0.1L57,11.4l-0.2-0.1c-1.6-0.6-3.2-0.5-4.8,0.1v0
		L52,11.6"/>
	<polyline class="st7" points="51.5,15.7 51.5,15.7 51.9,14 52.3,14.1 51.9,15.8 	"/>
	<polygon class="st7" points="53.2,15.9 53.3,14.2 53.7,14.3 53.7,15.9 	"/>
	<polyline class="st7" points="57.7,15.7 57.6,15.7 57.2,14 56.8,14.1 57.2,15.8 	"/>
	<polygon class="st7" points="56,15.9 55.9,14.2 55.4,14.2 55.5,15.9 	"/>
	<polygon class="st7" points="50.5,36.7 49.7,36.7 49.7,33.4 50.4,31.8 	"/>
	<polygon class="st7" points="58.6,36.7 59.4,36.7 59.4,33.4 58.6,31.8 	"/>
	<g>
		<path class="st20" d="M53.5,22.2"/>
		<path class="st20" d="M55.4,22.2"/>
		<path class="st20" d="M54.5,24.1"/>
		<path class="st20" d="M54.5,20.3"/>
	</g>
</g>
<rect x="64.8" y="12.4" class="st19" width="13.8" height="22"/>
<rect x="53.6" y="19.4" class="st17" width="1.6" height="2.1"/>
<rect x="53.6" y="24.9" class="st17" width="1.6" height="2.1"/>
</svg>
