<?xml version="1.0" encoding="UTF-8" standalone="no"?>
<!-- Generator: Adobe Illustrator 26.2.1, SVG Export Plug-In . SVG Version: 6.00 Build 0)  -->

<svg
   version="1.1"
   id="Layer_1"
   x="0px"
   y="0px"
   viewBox="0 0 128 128"
   style="enable-background:new 0 0 128 128;"
   xml:space="preserve"
   sodipodi:docname="active_frens.svg"
   inkscape:version="1.1 (c68e22c387, 2021-05-23)"
   xmlns:inkscape="http://www.inkscape.org/namespaces/inkscape"
   xmlns:sodipodi="http://sodipodi.sourceforge.net/DTD/sodipodi-0.dtd"
   xmlns="http://www.w3.org/2000/svg"
   xmlns:svg="http://www.w3.org/2000/svg"><defs
   id="defs35">
	

		
		
		
		
		
		
		
		
		
	</defs><sodipodi:namedview
   id="namedview33"
   pagecolor="#ffffff"
   bordercolor="#666666"
   borderopacity="1.0"
   inkscape:pageshadow="2"
   inkscape:pageopacity="0.0"
   inkscape:pagecheckerboard="0"
   showgrid="false"
   inkscape:zoom="12.886092"
   inkscape:cx="72.248436"
   inkscape:cy="12.144877"
   inkscape:window-width="1842"
   inkscape:window-height="1057"
   inkscape:window-x="-8"
   inkscape:window-y="-8"
   inkscape:window-maximized="1"
   inkscape:current-layer="Layer_1" />
<style
   type="text/css"
   id="style2">
	.st0{fill:#FFFFFF;}
</style>
<path
   class="st0"
   d="M1417.3,407.4l-4.8,2.6l-3.4,6.6l-0.8-9.9l-6.3-5.7l-2.8,8.3l2.7,7.9l-4.4-4.8l-6.6-0.4l2.3,6.4l5.2,3.4  l-0.6,0.6l2.2,3.7l5.5-0.1l3.3,0.1c0.1,0,0.2,0,0.3,0l0,0l2.4-1.6l1.9-2.4l-1-2.2l3.8-4.9L1417.3,407.4z"
   id="path4" />
<polyline
   class="st0"
   points="1078.8,412.1 1079.1,411.9 1078.7,410.9 "
   id="polyline6" />
<path
   class="st0"
   d="M579.7,624.5l-3.2-16.8c-0.3-1.5-2-2.7-4-2.7h-6c-2,0-3.7,1.1-4,2.7l-3.2,16.8h-2.4v5.2h24.9v-5.2H579.7z   M570.8,623.3h-2.1v-2.2h2.1V623.3z M570.8,619h-2.1v-10.7h2.1V619z"
   id="path8" />
<path
   class="st0"
   d="M 57.9,17.7 H 86.6 V 10.5 H 29.1 v 7.2 h 14.4 z"
   id="path10"
   sodipodi:nodetypes="ccccccc" /><path
   class="st0"
   d="M 102.3,122.8 V 15.7 H 23.9 V 122.8 H 63.1 Z M 44.8,12.6 H 50 V 5.4 H 39.6 v 7.2 h 2.6 z"
   id="path12"
   sodipodi:nodetypes="ccccccccccccc" /><path
   class="st0"
   d="M 55.2,13.6 H 76.3 V 0 H 49.9 v 13.6 h 2.7 z M 97,42.2 h 5.2 V 31.7 H 97 V 37 Z"
   id="path14"
   sodipodi:nodetypes="ccccccccccccc" /><path
   class="st0"
   d="m 104.9,20.9 h -2.6 V 122.8 H 97 v 5.2 h 10.4 V 20.9 Z M 76.1,12.6 H 86.5 V 5.4 H 76.1 V 8 Z"
   id="path16"
   sodipodi:nodetypes="cccccccccccccc" /><path
   class="st0"
   d="M 86.6,17.7 H 97 V 10.5 H 86.6 v 2.6 z M 23.9,122.8 V 20.9 H 18.7 V 128 h 10.4 v -5.2 h -2.6 z"
   id="path18"
   sodipodi:nodetypes="cccccccccccccc" /><path
   class="st0"
   d="M 42.2,117.6 H 29.1 v 5.2 h 13.1 v -2.6 z"
   id="path20" /><path
   class="st0"
   d="m 50,122.8 h -7.8 v 5.2 h 13.1 v -5.2 h -2.6 z m 47,-5.2 H 84 v 5.2 h 13 v -2.6 z"
   id="path22" /><path
   class="st0"
   d="M 70.9,117.6 H 55.2 v 5.2 h 15.7 v -2.6 z"
   id="path24" /><path
   class="st0"
   d="M 78.8,122.8 H 71 v 5.2 h 13 v -5.2 h -2.6 z"
   id="path26" />
</svg>
