<?xml version="1.0" encoding="utf-8"?>
<!-- Generator: Adobe Illustrator 26.2.1, SVG Export Plug-In . SVG Version: 6.00 Build 0)  -->
<svg version="1.1" id="Layer_1" xmlns="http://www.w3.org/2000/svg" xmlns:xlink="http://www.w3.org/1999/xlink" x="0px" y="0px"
	 viewBox="0 0 128 128" style="enable-background:new 0 0 128 128;" xml:space="preserve">
<style type="text/css">
	.st0{fill:#FFFFFF;}
</style>
<path class="st0" d="M128,32.2l-0.9-16l-2-9.6c0.2-0.2-3.2-1.8-3.2-1.8L121,5.7l-0.7,2.7l-1.9,1.4l0.3-3.4l-1.8-3L108,2l0-0.1
	c0,0-5.4-0.8-5.5-0.8l-2.8-0.5l-7,0.4l-5.5-0.2c-0.1,0-4.3-0.2-8.6-0.4l-2.2,4.5l2.5,5.6L77.8,19l13.1,34.2c0,0-3.6,22.5-3.3,22.5
	c0.3,0,1.4,17.9,1.4,17.9l-4.7,10.9l0.9-9.8L74,77.4L60.6,64.1l-4.1-26.3L41.2,24.4l-8-15.8L22,0l-5.3,0.7L9.4,0.2L3,3.3l0,0.1l0,0
	L0.8,17.3l0.1,5.2l0,0l2.9,6.6l-1.1,6.3L1,45.2v3.2l2.4,6.9l-0.1,0.2l-1.9,8.3l0,0L0,70v12.6l0.6,12.5v0l0,0l0.3,6.8l3.3,11.9l0.3,6
	l3.8,4.9l6.1,1.9l0.2,0.1l9.1,1.3l16.4-1.3l6.8-0.5l24.4,1.9l21.1-1.9l15.8,1.9l12.4-2.8c0,0,1-6.7,1.1-7c0.1-0.3,1.7-4.4,1.7-4.4
	l-3.3-12.5l2.5-4.7l3,1.8l1.3-1.5l-0.8-17.9c-0.1-2.6-0.2-4.8-0.2-5l1.3-12.4v0c0-0.2,0-0.3,0-0.3L127.3,46L128,32.2z"/>
</svg>
