<?xml version="1.0" encoding="utf-8"?>
<!-- Generator: Adobe Illustrator 26.2.1, SVG Export Plug-In . SVG Version: 6.00 Build 0)  -->
<svg version="1.1" id="Layer_1" xmlns="http://www.w3.org/2000/svg" xmlns:xlink="http://www.w3.org/1999/xlink" x="0px" y="0px"
	 viewBox="0 0 128 128" style="enable-background:new 0 0 128 128;" xml:space="preserve">
<style type="text/css">
	.st0{fill:#FFFFFF;}
</style>
<path class="st0" d="M1417.3,407.4l-4.8,2.6l-3.4,6.6l-0.8-9.9l-6.3-5.7l-2.8,8.3l2.7,7.9l-4.4-4.8l-6.6-0.4l2.3,6.4l5.2,3.4
	l-0.6,0.6l2.2,3.7l5.5-0.1l3.3,0.1c0.1,0,0.2,0,0.3,0l0,0l2.4-1.6l1.9-2.4l-1-2.2l3.8-4.9L1417.3,407.4z"/>
<path class="st0" d="M128,32.3l-23.1,13.4L88.3,79.6l-3.7-50.3L54.2,0L40.6,42.3l12.9,40.4L32.1,58.3L0,56l11.2,32.8l25.2,17.3
	l-2.9,2.9l10.7,18.7l26.4-0.4l16,0.4c0.7,0,1.1,0,1.3,0l0.1,0l11.5-8.1l8.9-12.2l-5-11.4l18.4-25L128,32.3z"/>
<path class="st0" d="M33.8,127.7c0-0.2-2.2-11.6-2.2-11.6l-11.8-7.6l-8.4,9.6L9.9,128L33.8,127.7z"/>
</svg>
