<?xml version="1.0" encoding="UTF-8" standalone="no"?>
<!-- Created with Inkscape (http://www.inkscape.org/) -->

<svg
   width="472"
   height="472"
   viewBox="0 0 124.88334 124.88333"
   version="1.1"
   id="svg5"
   inkscape:version="1.1 (c68e22c387, 2021-05-23)"
   sodipodi:docname="deathGhost.svg"
   xmlns:inkscape="http://www.inkscape.org/namespaces/inkscape"
   xmlns:sodipodi="http://sodipodi.sourceforge.net/DTD/sodipodi-0.dtd"
   xmlns="http://www.w3.org/2000/svg"
   xmlns:svg="http://www.w3.org/2000/svg">
  <sodipodi:namedview
     id="namedview7"
     pagecolor="#ffffff"
     bordercolor="#666666"
     borderopacity="1.0"
     inkscape:pageshadow="2"
     inkscape:pageopacity="0.0"
     inkscape:pagecheckerboard="0"
     inkscape:document-units="mm"
     showgrid="false"
     inkscape:zoom="1.0985947"
     inkscape:cx="158.38416"
     inkscape:cy="144.27523"
     inkscape:window-width="1857"
     inkscape:window-height="1057"
     inkscape:window-x="-8"
     inkscape:window-y="-8"
     inkscape:window-maximized="1"
     inkscape:current-layer="layer1"
     showguides="true"
     inkscape:guide-bbox="true"
     units="px">
    <sodipodi:guide
       position="-74.418936,110.07022"
       orientation="1,0"
       id="guide1011" />
    <sodipodi:guide
       position="62.136203,90.925175"
       orientation="1,0"
       id="guide825" />
  </sodipodi:namedview>
  <defs
     id="defs2" />
  <g
     inkscape:label="Layer 1"
     inkscape:groupmode="layer"
     id="layer1"
     transform="translate(-42.47882,-39.018488)">
    <path
       style="fill:#ffffff;stroke:#000000;stroke-width:0.264583px;stroke-linecap:butt;stroke-linejoin:miter;stroke-opacity:1"
       d="m 105.98891,41.667706 17.09956,4.094245 15.41363,12.523575 7.94766,19.989551 0.96335,37.570723 -0.72252,42.62832 -20.80414,-8.87113 -20.62006,12.4837 -21.161671,-12.48417 -19.780814,8.63076 -0.240838,-49.61262 -0.240837,-36.125695 6.984301,-14.931953 11.319385,-8.429329 12.041899,-6.502626 z"
       id="path1496" />
    <path
       style="fill:#000000;stroke-width:0.264583"
       d="m 60.470503,122.09664 c 5.11e-4,-28.632627 0.09182,-42.495382 0.290648,-44.128575 1.554521,-12.768781 8.994528,-24.663954 19.816938,-31.683565 14.9364,-9.688016 33.747021,-9.688016 48.683441,0 10.91218,7.077838 18.38804,19.123712 19.83234,31.955919 0.21039,1.869249 0.2746,14.718054 0.22031,44.088731 l -0.0766,41.45067 -5.68854,-3.45714 c -3.1287,-1.90144 -8.3827,-5.09123 -11.67557,-7.08842 l -5.98702,-3.63127 -10.15257,6.08612 c -5.58394,3.34737 -10.34521,6.14044 -10.58059,6.20683 -0.24505,0.0691 -4.83474,-2.53226 -10.738291,-6.08636 l -10.31028,-6.20706 -11.354457,6.86163 c -6.244949,3.77391 -11.562812,6.97823 -11.817473,7.12073 -0.440112,0.24627 -0.462984,-1.80644 -0.462276,-41.48824 z m 54.914327,27.04434 c 5.73002,-3.41974 10.47412,-6.21771 10.54245,-6.21771 0.0683,0 3.97189,2.33498 8.67456,5.18884 4.70267,2.85387 8.64235,5.24384 8.75485,5.31105 0.11249,0.0672 0.16741,-16.94222 0.12205,-37.79874 -0.0769,-35.335785 -0.11474,-38.056218 -0.55555,-39.905314 -1.29011,-5.411692 -3.56672,-10.58846 -6.43038,-14.621967 -2.10708,-2.967861 -6.59855,-7.400467 -9.49683,-9.372378 C 115.293,43.762394 100.8673,42.595585 88.322589,48.596692 77.354109,53.843766 69.858535,63.340395 66.9152,75.719106 c -0.439173,1.847019 -0.477542,4.608761 -0.554313,39.898504 l -0.08248,37.91413 0.601406,-0.32113 c 0.330772,-0.17663 4.330805,-2.57293 8.888961,-5.32513 4.558155,-2.7522 8.427685,-4.94458 8.598955,-4.87197 0.17127,0.0726 4.83578,2.87522 10.36557,6.22801 5.529791,3.35279 10.094491,6.10075 10.143731,6.10658 0.0493,0.006 4.77775,-2.78738 10.5078,-6.20712 z M 86.398926,119.37535 v -2.91042 c 0,0 11.035208,-12.7 18.520864,-12.7 7.48566,0 18.5209,12.7 18.5209,12.7 v 2.91042 2.91042 c 0,0 -11.03524,-12.7 -18.5209,-12.7 -7.485656,0 -18.520864,12.7 -18.520864,12.7 z m -2.784967,-28.574994 -3.83026,-3.837104 -3.830258,-3.837101 2.047098,-2.0471 2.0471,-2.047097 3.8371,3.830259 3.8371,3.830256 3.83711,-3.830256 3.8371,-3.830259 2.0471,2.047097 2.047104,2.0471 -3.830264,3.837101 -3.83026,3.837104 -4.10789,4.107886 z m 34.395931,0 -3.83028,-3.837104 -3.83028,-3.837101 2.04711,-2.0471 2.04711,-2.047097 3.83712,3.830259 3.83711,3.830256 3.8371,-3.830256 3.8371,-3.830259 2.0471,2.047097 2.0471,2.0471 -3.83026,3.837101 -3.83026,3.837104 -4.10788,4.107886 z"
       id="path836"
       sodipodi:nodetypes="scsssscsscssscsssssssscsssssscsssscscczccczcccccccccccccccccccccccccccccccc" />
    <rect
       style="fill:#000000;stroke:#000000;stroke-width:0.0515241"
       id="rect1372"
       width="12.036687"
       height="12.036687"
       x="123.42266"
       y="-62.086452"
       transform="matrix(0.56484936,0.82519404,-0.56484936,0.82519404,0,0)" />
  </g>
</svg>
