<svg id="Layer_1" data-name="Layer 1" xmlns="http://www.w3.org/2000/svg" viewBox="0 0 424.95 54.46"><defs><style>.cls-1{fill:#515151;}.cls-2{fill:#636363;}.cls-3{fill:#aaa;}</style></defs><polygon class="cls-1" points="422.23 16.47 352.08 7.98 124.91 5.15 31.54 3.74 7.37 17.48 0 41.73 6.71 48.2 93.45 51.23 126.4 48 283.93 52.24 368.56 48 404.25 52.24 422.23 16.47"/><polyline class="cls-2" points="31.54 3.74 30.97 0 5.51 14.96 7.37 17.48"/><polyline class="cls-2" points="30.97 0 206.22 3.74 212.84 2.32 348.27 3.74 352.97 8.09 213.59 6.26 33.84 5.56 30.97 3.74"/><polyline class="cls-3" points="422.23 16.47 424.95 14.18 348.27 3.74 352.97 8.93 422.23 17.01"/><polygon class="cls-3" points="6.71 48.2 93.45 51.23 126.4 48 283.93 52.24 368.56 48 404.25 52.24 406.81 54.46 397.32 54.46 371.61 50.22 285.73 54.46 126.21 51.23 98.25 53.25 91.01 54.46 1.51 50.22 6.71 48.2"/></svg>