<svg id="Layer_1" data-name="Layer 1" xmlns="http://www.w3.org/2000/svg" viewBox="0 0 27.7 14.94"><defs><style>.cls-1{fill:#4f4f4f;}.cls-2{fill:#828282;}.cls-3{fill:#424242;}.cls-4,.cls-5{fill:#cecece;}.cls-4{opacity:0.44;}</style></defs><polygon class="cls-1" points="27.7 0.6 18.49 12.11 13.71 14.94 0.19 3.5 0 2.04 1.01 1.4 7.16 1.48 13.09 8.83 15.65 9 20.86 1.45 23.1 0.73 24.58 0 27.7 0.6"/><polygon class="cls-2" points="25.47 2.79 17.66 12.54 13.62 14.94 0.71 2.79 7.16 2.79 13.09 10.14 15.87 9.84 21.57 2.04 25.47 2.79"/><polygon class="cls-3" points="13.09 10.14 13.09 8.83 15.65 9 15.87 9.84 13.09 10.14"/><polygon class="cls-4" points="21.57 2.04 24.58 0 27.7 0.6 25.47 2.79 21.57 2.04"/><polygon class="cls-5" points="13.09 11.46 7.16 4.1 7.16 2.79 13.09 10.14 13.09 11.46"/></svg>