<?xml version="1.0" encoding="utf-8"?>
<!-- Generator: Adobe Illustrator 26.2.1, SVG Export Plug-In . SVG Version: 6.00 Build 0)  -->
<svg version="1.1" id="Layer_1" xmlns="http://www.w3.org/2000/svg" xmlns:xlink="http://www.w3.org/1999/xlink" x="0px" y="0px"
	 viewBox="0 0 128 128" style="enable-background:new 0 0 128 128;" xml:space="preserve">
<style type="text/css">
	.st0{fill:#FFFFFF;}
</style>
<path class="st0" d="M1417.3,407.4l-4.8,2.6l-3.4,6.6l-0.8-9.9l-6.3-5.7l-2.8,8.3l2.7,7.9l-4.4-4.8l-6.6-0.4l2.3,6.4l5.2,3.4
	l-0.6,0.6l2.2,3.7l5.5-0.1l3.3,0.1c0.1,0,0.2,0,0.3,0l0,0l2.4-1.6l1.9-2.4l-1-2.2l3.8-4.9L1417.3,407.4z"/>
<polyline class="st0" points="1078.8,412.1 1079.1,411.9 1078.7,410.9 "/>
<path class="st0" d="M103.9,1.2c-0.7-0.8-1.8-1-2.8-0.5L75.5,13.6c-0.8,0.4-1.3,1.3-1.3,2.2l-2.6,1.5L71.5,17l-2.8,1.4l0.2,0.5
	l-0.1,0l-4.8,2.4l-0.2-0.5L61,22.2l0.2,0.5l-2.3,1.2l-0.2-0.5l-2.8,1.4l0.2,0.5L52.8,27l-0.2-0.5l-2.1,1.1l0.2,0.5L48,29.4l-0.2-0.5
	l-2.8,1.4l0.2,0.5L42.9,32l-0.2-0.5l-2.8,1.4l0.2,0.5l-4.6,2.3l-0.2-0.5l-2.8,1.4l0.2,0.5l-2.8,1.4c-0.7-0.8-1.8-1-2.8-0.5L1.5,50.9
	c-1,0.5-1.4,1.6-1.2,2.6l-0.1,0l0.3,0.5l1.9,3.9l0.1,0.2c0.6,1.2,2,1.6,3.1,1l25.6-12.9c1.2-0.6,1.6-2,1-3.1l-0.1-0.2l2.7-1.4
	L45,44.4l4.3,8.4l4.1,2.3l0.4,0.9L51.9,57c-1.2-2.2-3.8-3.1-6.1-2.3l-0.7-0.3l-0.2,0.1c-0.7-0.5-1.4-1-2.4-0.9c-0.5,0-1,0.2-1.5,0.2
	c-0.4,0-0.9,0-1.3-0.1c-0.4-0.1-0.8-0.2-1-0.5c0-0.1-0.1-0.2,0-0.3c0-0.1,0.1-0.3,0.1-0.4c0.2-0.3,0.5-0.6,0.9-0.8
	c0.4-0.2,0.8-0.4,1.1-0.7l0.1,0.2l0.2-0.1l0.1,0.1l0.4-0.2l-0.1-0.1l0.1-0.1l0.1,0.1l0.4-0.2L42,50.9l1.5-0.7l0.3,0.6l0.7-0.4
	l0.2,0.4l0.7-0.4l-0.2-0.4l0.4-0.2l-0.3-0.6l0.8-0.4l0.2,0.3l1-0.5L46,46.4l-1,0.5l1,1.9l-0.8-1.5l-0.8,0.4L44.1,47l-0.4,0.2
	l-0.2-0.4l-0.7,0.4l0.2,0.4l-0.7,0.3l0.3,0.6l-1.5,0.7l-0.1-0.1l-0.4,0.2l0.1,0.1l-0.1,0.1l-0.1-0.1l-0.4,0.2l0.1,0.1l-0.2,0.1
	l0.1,0.2c0,0,0,0,0,0c-0.5,0.3-1,0.5-1.5,0.9c-0.5,0.3-0.9,0.7-1.1,1.2c-0.5,1-0.2,2.2,0.9,2.8c1,0.5,2.2,0.5,3.3,0.4
	c0.5-0.1,1-0.2,1.4-0.1c0.1,0,0.2,0.1,0.3,0.2l-0.2,0.1L43,56.1c-2.1,1.4-2.9,4.1-1.8,6.4c-0.4,0.4-0.4,1.1-0.2,1.6l0.7,1.4
	c0.2,0.5,0.8,0.7,1.2,0.6l0,0l0.2,0.4l0.8,1.5l3.4,6.7l2.5,4.9l-0.1,0.1c-0.3,0.2-0.5,0.6-0.3,0.9L50,82c0.1,0.3,0.4,0.4,0.7,0.2
	L51,82l0.2,0.4l0.4,0.7c1.3,2.5,4.3,3.5,6.8,2.2l1.8-0.9c2.5-1.3,3.5-4.3,2.2-6.8L62.1,77l-0.2-0.4l1.8-0.9l-1.2-2.4l-1.8,0.9
	l-2.5-4.9L56,65l1.8-0.9l-2.2-4.3l0,0l11.7,23.1l7,4.2l0.8,1.5l3.2,3c-0.4,0.4-0.5,1-0.1,1.3c0.3,0.2,0.7,0.3,1.1,0.2
	c-0.5,0.4-0.7,1.1-0.3,1.4c0.3,0.3,0.9,0.3,1.4,0c0,0,0.1-0.1,0.1-0.1l-0.3,0.2l-0.1,0.1c-0.2,0.1-0.3,0.3-0.4,0.5
	c-0.1,0.1-0.1,0.2-0.1,0.3c0,0.2,0,0.3,0.1,0.5c0,0.1,0.1,0.2,0.2,0.2c0.2,0.1,0.4,0.2,0.7,0.2c0.1,0,0.3,0,0.4-0.1l0,0
	c-0.5,0.4-0.7,1.1-0.3,1.4c0.3,0.3,0.8,0.3,1.3,0.1L81.7,98c-0.5,0.4-0.7,1.1-0.3,1.4c0.2,0.2,0.6,0.3,1,0.2c-0.5,0.4-0.6,1-0.2,1.4
	c0.3,0.3,0.9,0.3,1.4,0c0.1-0.1,0.2-0.1,0.3-0.2l0.2-0.2l0,0l-0.9,0.6c-0.5,0.4-0.7,1.1-0.3,1.4c0.3,0.2,0.7,0.3,1.1,0.2
	c-0.2,0.1-0.3,0.3-0.4,0.5c-0.1,0.1-0.1,0.2-0.1,0.3c0,0.2,0,0.3,0.1,0.5c0,0.1,0.1,0.2,0.2,0.2c0.2,0.1,0.4,0.2,0.7,0.2
	c0.2,0,0.4,0,0.5-0.1l0,0c0.1,0,0.1,0,0.2-0.1c0.1-0.1,0.2-0.1,0.3-0.2l0.2-0.2l5.3,10.5l0.3,0.6l11.7,12.8l-3.3-17l-0.3-0.6
	l-5.9-11.8l0.7-0.5l0.1-0.1c0.6-0.4,0.7-1.1,0.3-1.4c-0.3-0.2-0.7-0.3-1.1-0.2c0.6-0.4,0.7-1.1,0.3-1.4c-0.4-0.3-1.2-0.3-1.7,0.2
	l-3.4,2.5l-0.1,0.1l4.2-3c0.6-0.4,0.7-1.1,0.3-1.4c-0.3-0.2-0.6-0.3-1-0.2c0.5-0.4,0.6-1.1,0.2-1.4c-0.3-0.3-0.8-0.3-1.2-0.1
	l0.1-0.1c0.6-0.4,0.7-1.1,0.3-1.4c-0.3-0.2-0.7-0.3-1.1-0.1l0,0c0.6-0.4,0.7-1.1,0.3-1.4c-0.3-0.3-0.8-0.3-1.2-0.1
	c-0.2,0.1-0.3,0.1-0.5,0.3l0.6-0.4c0.6-0.4,0.7-1.1,0.3-1.4c-0.3-0.2-0.7-0.3-1.1-0.1l0,0c0.6-0.4,0.7-1.1,0.3-1.4
	c-0.2-0.2-0.5-0.2-0.8-0.2l-0.3-2.6l-0.8-1.5l0.7-8.1l-3.6-7.2l1.6-0.8l0.2,0.4l0.4,0.7c1.3,2.5,4.3,3.5,6.8,2.2l1.8-0.9
	c2.5-1.3,3.5-4.3,2.2-6.8l-0.4-0.7l-0.2-0.4l0.3-0.2c0.3-0.1,0.4-0.4,0.2-0.7l-0.7-1.3c-0.2-0.3-0.6-0.5-0.9-0.3l-0.1,0.1l-2.5-4.9
	l-3.4-6.7l-0.8-1.5l-0.2-0.4l0.2-0.1c0.3-0.2,0.5-0.6,0.3-0.9l-1.2-2.4c-0.2-0.4-0.7-0.6-1.2-0.4l0,0c-1.2-2.2-3.8-3.1-6.1-2.3
	l-0.7-0.3L79.5,37c-0.2-0.2-0.4-0.3-0.6-0.5c0,0,0,0,0-0.1c0,0,0,0,0-0.1c0,0,0-0.1,0-0.1c0.1,0,0.1-0.1,0.1-0.1
	c0.4-0.2,0.8-0.5,1.1-0.9c0.3-0.4,0.4-0.8,0.5-1.3c0.1-0.9,0.1-2-0.6-2.7c-0.7-0.7-1.6-0.5-2.5-0.2L77.4,31l-0.2,0.1L77.1,31
	l-0.4,0.2l0.1,0.1l-0.1,0.1l-0.1-0.1l-0.4,0.2l0.1,0.1l-1.5,0.7l-0.3-0.6L73.9,32l-0.2-0.4L72.9,32l0.2,0.4l-0.4,0.2l0.3,0.6
	l-0.8,0.4l-0.2-0.3l-1,0.5l1.2,2.4l1-0.5l-1-1.9l0.8,1.5l0.8-0.4l0.3,0.6l0.4-0.2l0.2,0.4l0.7-0.4l-0.2-0.4l0.7-0.3l-0.3-0.6
	l1.5-0.7l0.1,0.1l0.4-0.2L77.5,33l0.1-0.1l0.1,0.1l0.4-0.2L78,32.8l0.2-0.1l-0.1-0.2c0.2-0.1,0.4-0.2,0.6-0.2c0,0,0.1,0,0.1,0
	c0.1,0,0.1,0.1,0.1,0.1c0.1,0.1,0.1,0.2,0.1,0.3c0.1,0.6,0.1,1.3-0.2,1.8c0,0.1-0.2,0.2-0.2,0.2c-0.2,0.1-0.4,0.2-0.6,0.3
	c-0.4,0.3-0.6,0.6-0.6,1.1c0,0.4,0.1,0.9,0.4,1.2c0.1,0.1,0.2,0.2,0.3,0.3l-0.2,0.1l-0.3,0.8c-2.1,1.4-2.9,4-1.8,6.3l-1.6,0.8
	l-0.4-0.9l0.6-4.7l-2-4.1l-3.3-6.5c-0.7-1.4-1.8-2.3-3.2-2.8l0.3-1l5.4-2.7l-2.5,6.7l1,2l3.7-9.8l2.5-1.2l0.1,0.2
	c0.6,1.2,2,1.6,3.1,1l25.6-12.9c1.2-0.6,1.6-2,1-3.1l-0.1-0.2l-1.9-3.9L103.9,1.2L103.9,1.2z M34.3,41.3l4.8-2.4l1.1,0.4
	c-0.3,1.2-0.2,2.6,0.4,3.8l0.1,0.1L34.3,41.3z M78.1,61.4l-1.5,0.7l-4.3-8.5l1.5-0.7l2,4L78.1,61.4z"/>
</svg>
