<?xml version="1.0" encoding="UTF-8" standalone="no"?>
<!-- Generator: Adobe Illustrator 26.4.1, SVG Export Plug-In . SVG Version: 6.00 Build 0)  -->

<svg
   version="1.1"
   id="Layer_1"
   x="0px"
   y="0px"
   viewBox="0 0 33.9 33.9"
   style="enable-background:new 0 0 33.9 33.9;"
   xml:space="preserve"
   sodipodi:docname="gear.svg"
   inkscape:version="1.1 (c68e22c387, 2021-05-23)"
   xmlns:inkscape="http://www.inkscape.org/namespaces/inkscape"
   xmlns:sodipodi="http://sodipodi.sourceforge.net/DTD/sodipodi-0.dtd"
   xmlns="http://www.w3.org/2000/svg"
   xmlns:svg="http://www.w3.org/2000/svg"><defs
   id="defs15">
	
</defs><sodipodi:namedview
   id="namedview13"
   pagecolor="#ffffff"
   bordercolor="#666666"
   borderopacity="1.0"
   inkscape:pageshadow="2"
   inkscape:pageopacity="0.0"
   inkscape:pagecheckerboard="0"
   showgrid="false"
   inkscape:zoom="25.722713"
   inkscape:cx="16.930563"
   inkscape:cy="16.969439"
   inkscape:window-width="1847"
   inkscape:window-height="1057"
   inkscape:window-x="-8"
   inkscape:window-y="-8"
   inkscape:window-maximized="1"
   inkscape:current-layer="Layer_1" />
<style
   type="text/css"
   id="style2">
	.st0{fill:#B4E2EC;}
</style>
<g
   id="g8">
		<path
   class="st0"
   d="m 16.9,20.6 c -2.1,0 -3.6,-1.7 -3.6,-3.7 0,-2.1 1.7,-3.6 3.8,-3.6 2,0 3.6,1.7 3.6,3.7 -0.1,2.1 -1.7,3.6 -3.8,3.6 z"
   id="path4" />
		<path
   class="st0"
   d="m 30.3,20.9 c 1.2,-0.4 2.4,-0.8 3.6,-1.2 0,-1.9 0,-3.7 0,-5.5 -0.8,-0.3 -1.5,-0.5 -2.3,-0.7 -1.8,-0.5 -1.8,-0.5 -2.4,-2.3 -0.1,-0.3 -0.1,-0.6 0,-0.9 0.5,-1 1,-1.9 1.5,-2.9 C 30.9,7 30.9,6.8 30.6,6.5 29.5,5.4 28.4,4.4 27.4,3.3 27.2,3 27,3.1 26.7,3.2 26.1,3.5 25.4,3.8 24.9,4.2 23.6,5 22.6,5 21.5,4.2 21.3,4.1 21,3.8 20.9,3.6 20.5,2.5 20.2,1.5 19.9,0.4 19.8,0.1 19.7,0 19.3,0 17.7,0 16.1,0 14.6,0 14.4,0 14.2,0.2 14.1,0.4 13.9,1 13.6,1.6 13.5,2.3 13.3,3.6 12.6,4.6 11.2,4.8 10.9,4.9 10.5,4.9 10.3,4.7 9.3,4.2 8.3,3.7 7.4,3.2 7.1,3 6.8,3.1 6.6,3.3 5.5,4.4 4.5,5.5 3.4,6.5 3.1,6.8 3,7 3.2,7.4 c 0.5,1 1,1.9 1.5,2.9 0.1,0.2 0.1,0.6 0,0.9 -0.1,0.4 -0.3,0.9 -0.5,1.3 -0.1,0.2 -0.4,0.5 -0.7,0.6 -1,0.4 -2.1,0.7 -3.1,1 -0.2,0 -0.4,0.1 -0.4,0.5 0,1.6 0,3.2 0,4.7 0,0.3 0.1,0.5 0.4,0.5 0.6,0.2 1.2,0.5 1.9,0.6 1.3,0.2 2.2,0.9 2.5,2.2 0,0 0,0.1 0,0.1 0,0.3 0.1,0.6 0,0.8 -0.5,1 -1,2 -1.6,3 -0.2,0.3 -0.1,0.5 0.1,0.7 0.8,0.8 1.6,1.6 2.4,2.4 0.4,0.4 0.8,1 1.2,1.1 0.5,0.1 1,-0.4 1.5,-0.7 1.3,-0.7 2.5,-1.6 4,-0.5 0.2,0.2 0.5,0.4 0.6,0.7 0.4,1.2 0.8,2.3 1.2,3.5 1.8,0 3.6,0 5.5,0 0.3,-0.8 0.6,-1.6 0.7,-2.4 0.2,-1.3 0.8,-2.1 2.1,-2.4 0.1,0 0.1,-0.1 0.2,-0.1 0.3,0 0.6,-0.1 0.8,0.1 1,0.5 2,1 3,1.5 0.3,0.2 0.5,0.1 0.8,-0.1 1,-1 2,-2 3,-3 0.4,-0.4 0.6,-0.7 0.2,-1.3 -0.3,-0.4 -0.5,-1 -0.8,-1.5 -0.8,-1.1 -0.9,-2.2 -0.1,-3.3 0.2,0 0.5,-0.2 0.7,-0.3 z m -13.4,5.8 c -5.4,0 -9.8,-4.4 -9.8,-9.8 0,-5.4 4.4,-9.8 9.8,-9.8 5.4,0 9.8,4.4 9.8,9.8 0,5.4 -4.4,9.8 -9.8,9.8 z"
   id="path6" />
	</g>
</svg>
