<?xml version="1.0" encoding="UTF-8" standalone="no"?>
<!-- Generator: Adobe Illustrator 26.1.0, SVG Export Plug-In . SVG Version: 6.00 Build 0)  -->

<svg
   version="1.1"
   id="Layer_1"
   x="0px"
   y="0px"
   viewBox="0 0 170.92523 170.943"
   xml:space="preserve"
   sodipodi:docname="ggems_icon2.svg"
   width="170.92523"
   height="170.94299"
   inkscape:version="1.1 (c68e22c387, 2021-05-23)"
   xmlns:inkscape="http://www.inkscape.org/namespaces/inkscape"
   xmlns:sodipodi="http://sodipodi.sourceforge.net/DTD/sodipodi-0.dtd"
   xmlns="http://www.w3.org/2000/svg"
   xmlns:svg="http://www.w3.org/2000/svg"><defs
   id="defs11" /><sodipodi:namedview
   id="namedview9"
   pagecolor="#ffffff"
   bordercolor="#666666"
   borderopacity="1.0"
   inkscape:pageshadow="2"
   inkscape:pageopacity="0.0"
   inkscape:pagecheckerboard="0"
   showgrid="false"
   inkscape:zoom="2.567338"
   inkscape:cx="-9.7377128"
   inkscape:cy="83.160067"
   inkscape:window-width="1842"
   inkscape:window-height="1057"
   inkscape:window-x="-8"
   inkscape:window-y="-8"
   inkscape:window-maximized="1"
   inkscape:current-layer="Layer_1" />
<path
   d="m 56.262612,5.1914606 c -44.4,16.1000004 -67.2,65.2000004 -51.0999996,109.4999994 16.0999996,44.3 65.1999996,67.2 109.4999976,51.1 44.4,-16.1 67.2,-65.2 51.1,-109.499999 -16.1,-44.3 -65.2,-67.3 -109.499998,-51.1000004 z m 27.3,109.6999994 19.599998,0.3 0.7,-11.5 -16.599998,-1.1 1.4,-22.799999 39.199998,2.3 -0.9,51.899999 -50.199998,11.4 -30,-47.199999 -5.4,-49.6 42.8,-26.3 32.799998,30.3 -15.1,21.4 -19.899998,-11.8 -11.6,18.2 z"
   id="path2"
   style="fill:#a4ffff;fill-opacity:1" />
<circle
   cx="57.862617"
   cy="90.69146"
   r="4.9000001"
   id="circle4"
   style="fill:#a4ffff;fill-opacity:1" />

</svg>
