<?xml version="1.0" encoding="UTF-8" standalone="no"?>
<!-- Generator: Adobe Illustrator 26.1.0, SVG Export Plug-In . SVG Version: 6.00 Build 0)  -->

<svg
   version="1.1"
   id="Layer_1"
   x="0px"
   y="0px"
   viewBox="0 0 85.699996 123.1"
   xml:space="preserve"
   sodipodi:docname="ggems_icon.svg"
   width="85.699997"
   height="123.1"
   inkscape:version="1.1 (c68e22c387, 2021-05-23)"
   xmlns:inkscape="http://www.inkscape.org/namespaces/inkscape"
   xmlns:sodipodi="http://sodipodi.sourceforge.net/DTD/sodipodi-0.dtd"
   xmlns="http://www.w3.org/2000/svg"
   xmlns:svg="http://www.w3.org/2000/svg"><defs
   id="defs11" /><sodipodi:namedview
   id="namedview9"
   pagecolor="#ffffff"
   bordercolor="#666666"
   borderopacity="1.0"
   inkscape:pageshadow="2"
   inkscape:pageopacity="0.0"
   inkscape:pagecheckerboard="0"
   showgrid="false"
   inkscape:zoom="2.567338"
   inkscape:cx="144.3129"
   inkscape:cy="80.433507"
   inkscape:window-width="1271"
   inkscape:window-height="1041"
   inkscape:window-x="2347"
   inkscape:window-y="108"
   inkscape:window-maximized="0"
   inkscape:current-layer="Layer_1" />


<path
   d="m 46.599998,57.7 -1.8,22.799999 16.6,1.4 -0.9,11.4 -19.6,-0.7 L 28.4,57.9 l 11.999998,-18 19.6,12.2 15.5,-21.1 -32.2,-31 L 0,25.5 l 4.3,49.8 29,47.8 50.499998,-10.4 1.9,-51.9 z M 16,73.8 c -2.7,0 -4.9,-2.2 -4.9,-4.9 0,-2.7 2.2,-4.9 4.9,-4.9 2.7,0 4.9,2.2 4.9,4.9 0,2.7 -2.2,4.9 -4.9,4.9 z"
   id="path6"
   style="fill:#b4e2ec;fill-opacity:1" />
</svg>
