<?xml version="1.0" encoding="UTF-8" standalone="no"?>
<!-- Generator: Adobe Illustrator 26.0.2, SVG Export Plug-In . SVG Version: 6.00 Build 0)  -->

<svg
   version="1.1"
   id="Layer_1"
   x="0px"
   y="0px"
   viewBox="0 0 346.70002 94.8"
   xml:space="preserve"
   sodipodi:docname="green_button.svg"
   width="346.70001"
   height="94.800003"
   inkscape:version="1.1 (c68e22c387, 2021-05-23)"
   xmlns:inkscape="http://www.inkscape.org/namespaces/inkscape"
   xmlns:sodipodi="http://sodipodi.sourceforge.net/DTD/sodipodi-0.dtd"
   xmlns:xlink="http://www.w3.org/1999/xlink"
   xmlns="http://www.w3.org/2000/svg"
   xmlns:svg="http://www.w3.org/2000/svg"><defs
   id="defs93"><linearGradient
   inkscape:collect="always"
   id="linearGradient1027"><stop
     style="stop-color:#000000;stop-opacity:1;"
     offset="0"
     id="stop1023" /><stop
     style="stop-color:#000000;stop-opacity:0;"
     offset="1"
     id="stop1025" /></linearGradient>
	
	
	
	
	
	
	
	
	
	
	
	
	
	
	
	
	
<linearGradient
   inkscape:collect="always"
   xlink:href="#linearGradient1027"
   id="linearGradient1029"
   x1="34.5"
   y1="101.4"
   x2="365.20001"
   y2="101.4"
   gradientUnits="userSpaceOnUse" /></defs><sodipodi:namedview
   id="namedview91"
   pagecolor="#ffffff"
   bordercolor="#666666"
   borderopacity="1.0"
   inkscape:pageshadow="2"
   inkscape:pageopacity="0.0"
   inkscape:pagecheckerboard="0"
   showgrid="false"
   inkscape:zoom="2.645"
   inkscape:cx="143.85633"
   inkscape:cy="45.557656"
   inkscape:window-width="1842"
   inkscape:window-height="1057"
   inkscape:window-x="-8"
   inkscape:window-y="-8"
   inkscape:window-maximized="1"
   inkscape:current-layer="Layer_1" />
<style
   type="text/css"
   id="style2">
	.st0{fill:#162817;}
	.st1{fill:none;}
	.st2{fill:#686868;}
	.st3{fill:#4DBA2F;}
	.st4{fill:#56CC2F;}
	.st5{opacity:0.4;}
	.st6{fill:#FFFFFF;}
	.st7{fill:#429E20;}
	.st8{fill:#75EA49;}
	.st9{opacity:0.52;}
	.st10{filter:url(#Adobe_OpacityMaskFilter);}
	.st11{opacity:0.4;mask:url(#SVGID_00000047045369145652806950000007021903013526502016_);}
</style>

<g
   id="g29"
   transform="translate(-27.4,-54.3)">
		<g
   id="g27">
			<path
   class="st3"
   d="m 32.9,56.1 -2.8,1.8 -1.8,2.6 v 6.2 c 0,0 0.6,26.2 0.6,26.3 0,0.1 -0.6,5.9 -0.6,5.9 l -0.9,0.5 v 1.5 l 0.9,1.3 0.3,7.4 0.1,10.4 -0.5,17.8 0.4,5.3 2.6,4.1 1.1,1 3,0.3 35.3,-0.7 33.2,-0.7 c 0,0 13,-1.1 13.3,-1.2 0.3,-0.1 29.9,-1.6 29.9,-1.6 l 1.8,3.3 6.7,0.2 32.8,-0.1 4,-0.7 39,0.3 h 32.2 c 0,0 5.3,-1.6 5.5,-1.6 0.2,0 28,1.3 28,1.3 l 13,-0.4 10.7,2.3 20.5,-1.8 19.4,-0.4 10.6,0.8 1.6,-3.5 1.2,-1.8 -0.7,-46.9 0.7,-3.2 -1.3,-1.3 0.8,-21.7 -1,-7 -4.7,-5.3 -27.4,-0.8 -3.2,0.4 -48.9,-0.4 h -39.7 l -1.4,1.3 -2,-0.9 -43.9,0.4 -12.1,-2.5 -18,2.9 -80,-1.2 -3.8,0.8 -26.6,-2.5 -15.9,2.5 z"
   id="path25" />
		</g>
	</g><g
   id="g39"
   transform="translate(-27.4,-54.3)">
		<g
   id="g33">
			<path
   class="st4"
   d="m 39.8,65.2 -3.2,1.3 -1.2,2.3 v 5 c 0,0 0.6,20.9 0.6,21 0,0.1 -0.6,4.7 -0.6,4.7 l -0.9,0.4 v 1.2 l 0.9,1 0.3,6 0.1,8.3 -0.4,14.1 0.4,4.3 2.5,3.3 1.1,0.8 2.8,0.2 33.7,-0.6 31.7,-0.6 c 0,0 12.4,-0.9 12.7,-1 0.1,0 9,-0.4 16.8,-0.8 6.2,-0.3 11.6,-0.5 11.6,-0.5 l 1.7,2.7 6.4,0.2 h 31.3 l 3.9,-0.6 37.2,0.2 h 30.7 c 0,0 5.1,-1.3 5.3,-1.3 0.2,0 26.6,1.1 26.6,1.1 l 12.4,-0.3 10.3,1.9 19.5,-1.5 18.5,-0.3 10.1,0.6 1.5,-2.8 1.1,-1.4 -0.7,-37.5 0.7,-2.6 -1.3,-1 0.7,-17.3 -0.9,-5.6 -4.5,-4.3 -26.1,-0.7 -3.1,0.3 -46.7,-0.3 h -37.9 l -1.3,1 -1.9,-0.7 -41.9,0.3 -11.6,-2 -17.2,2.3 -76.2,-0.9 -3.6,0.7 -7.9,-0.6 -17.5,-1.4 -15.1,1.9 z"
   id="path31" />
		</g>
		<g
   class="st5"
   id="g37">
			<path
   class="st6"
   d="m 39.8,65.2 -3.2,1.3 -1.2,2.3 v 5 c 0,0 0.6,20.9 0.6,21 0,0.1 -0.6,4.7 -0.6,4.7 l -0.9,0.4 v 1.2 l 0.9,1 0.3,6 0.1,8.3 -0.4,14.1 0.4,4.3 2.5,3.3 1.1,0.8 2.8,0.2 33.7,-0.6 31.7,-0.6 c 0,0 12.4,-0.9 12.7,-1 0.1,0 9,-0.4 16.8,-0.8 6.2,-0.3 11.6,-0.5 11.6,-0.5 l 1.7,2.7 6.4,0.2 h 31.3 l 3.9,-0.6 37.2,0.2 h 30.7 c 0,0 5.1,-1.3 5.3,-1.3 0.2,0 26.6,1.1 26.6,1.1 l 12.4,-0.3 10.3,1.9 19.5,-1.5 18.5,-0.3 10.1,0.6 1.5,-2.8 1.1,-1.4 -0.7,-37.5 0.7,-2.6 -1.3,-1 0.7,-17.3 -0.9,-5.6 -4.5,-4.3 -26.1,-0.7 -3.1,0.3 -46.7,-0.3 h -37.9 l -1.3,1 -1.9,-0.7 -41.9,0.3 -11.6,-2 -17.2,2.3 -76.2,-0.9 -3.6,0.7 -7.9,-0.6 -17.5,-1.4 -15.1,1.9 z"
   id="path35" />
		</g>
	</g><polygon
   class="st7"
   points="39.8,65.2 32.9,56.1 30.1,57.9 28.3,60.5 35.4,68.8 36.6,66.5 "
   id="polygon41"
   transform="translate(-27.4,-54.3)" /><polygon
   class="st7"
   points="34.5,99.9 28.3,99 27.4,99.5 27.4,100.9 28.3,102.3 34.5,101.1 "
   id="polygon43"
   transform="translate(-27.4,-54.3)" /><polygon
   class="st7"
   points="150.6,138.7 148.9,147.7 147.1,144.3 148.7,135.8 "
   id="polygon45"
   transform="translate(-27.4,-54.3)" /><polyline
   class="st7"
   points="192.6,147.1 192.4,138 188.3,138.6 188.5,147.8 192.4,147.1  "
   id="polyline47"
   transform="translate(-27.4,-54.3)" /><path
   class="st7"
   d="m 161.5,9.7 c 0.1,-0.5 0.3,-9.5 0.3,-9.5 l 12.1,2.5 -0.4,9 z"
   id="path49" /><polyline
   class="st7"
   points="245.1,56.5 242.3,65.6 244.2,66.3 245.5,65.2 247.1,57.4 245.4,56.5  "
   id="polyline51"
   transform="translate(-27.4,-54.3)" /><polygon
   class="st7"
   points="365.3,94.1 364.6,96.7 373.4,95.6 374.1,92.3 372.6,91 "
   id="polygon53"
   transform="translate(-27.4,-54.3)" /><path
   class="st7"
   d="m 340.3,2.7 -8.4,9 4.5,4.3 c 0,0 9.6,-0.2 9.6,-0.4 0,-0.2 -1,-7.5 -1,-7.5 z"
   id="path55" /><path
   class="st7"
   d="m 293.4,94.8 c 0,-0.5 -6.3,-9.5 -6.3,-9.5 l -4.5,7.2 10.4,2.3"
   id="path57" /><polygon
   class="st7"
   points="263.4,147.4 259.5,138.2 265.1,137 269,145.8 "
   id="polygon59"
   transform="translate(-27.4,-54.3)" /><polygon
   class="st7"
   points="365.3,134.2 374.1,142.4 372.8,144.2 371.2,147.7 362.6,138.4 363.8,135.6 "
   id="polygon61"
   transform="translate(-27.4,-54.3)" /><polygon
   class="st7"
   points="35.7,134.9 28.7,143.2 31.3,147.3 32.5,148.3 39.3,139.1 38.3,138.1 "
   id="polygon63"
   transform="translate(-27.4,-54.3)" /><path
   class="st8"
   d="m 56.3,12 53.4,70 -12.3,0.7 -56.2,-72.9 7.2,0.6 6.9,0.5 c 0.1,0 1,1.1 1,1.1 z"
   id="path65" /><polygon
   class="st8"
   points="106,138 55.6,65.3 58,65 110.2,137.8 "
   id="polygon67"
   transform="translate(-27.4,-54.3)" /><g
   class="st9"
   id="g87"
   transform="translate(-27,-53.9)"
   style="fill:#9ae082;fill-opacity:1">
		<g
   id="g71"
   style="fill:#9ae082;fill-opacity:1">
			<path
   class="st4"
   d="m 39.8,65 -3.2,1.2 -1.2,2.3 v 5 c 0,0 0.6,20.9 0.6,21 0,0.1 -0.6,4.7 -0.6,4.7 l -0.9,0.4 v 1.2 l 0.9,1 0.3,6 0.1,8.3 -0.4,14.1 0.4,4.3 2.5,3.3 1.1,0.8 2.8,0.2 33.7,-0.6 31.7,-0.6 c 0,0 12.4,-0.9 12.7,-1 0.1,0 9,-0.4 16.8,-0.8 6.2,-0.3 11.6,-0.5 11.6,-0.5 l 1.7,2.7 6.4,0.2 h 31.3 l 3.9,-0.6 37.2,0.2 h 30.7 c 0,0 5.1,-1.3 5.3,-1.3 0.2,0 26.6,1.1 26.6,1.1 l 12.4,-0.3 10.3,1.9 19.5,-1.5 18.5,-0.3 10.1,0.6 1.5,-2.8 1.1,-1.4 -0.7,-37.4 0.7,-2.6 -1.3,-1 0.7,-17.3 -0.9,-5.6 -4.5,-4.3 -26,-0.6 -3.1,0.3 -46.7,-0.3 h -37.9 l -1.3,1 -1.9,-0.7 -41.9,0.3 -11.6,-2 -17.2,2.3 L 95.3,65 91.7,65.7 83.8,65.1 66.3,63.7 51.2,65.6 Z"
   id="path69"
   style="fill:#9ae082;fill-opacity:1" />
		</g>
		<defs
   id="defs76"
   style="fill:url(#linearGradient1029);fill-opacity:1">
			<filter
   id="Adobe_OpacityMaskFilter"
   filterUnits="userSpaceOnUse"
   x="34.5"
   y="63.599998"
   width="330.79999"
   height="75.699997"
   style="fill:url(#linearGradient1029);fill-opacity:1">
				<feColorMatrix
   type="matrix"
   values="1 0 0 0 0  0 1 0 0 0  0 0 1 0 0  0 0 0 1 0"
   id="feColorMatrix73"
   style="fill:url(#linearGradient1029);fill-opacity:1" />
			</filter>
		</defs>
		
			<mask
   maskUnits="userSpaceOnUse"
   x="34.5"
   y="63.6"
   width="330.8"
   height="75.7"
   id="SVGID_00000047045369145652806950000007021903013526502016_"
   style="fill:url(#linearGradient1029);fill-opacity:1">
			<g
   class="st10"
   id="g80"
   style="fill:url(#linearGradient1029);fill-opacity:1">
				
					<image
   style="overflow:visible;fill:url(#linearGradient1029);fill-opacity:1;enable-background:new"
   width="336"
   height="80"
   xlink:href="1F6909DB.jpg"
   transform="matrix(1.0019,0,0,1.0019,31.6144,61.5246)"
   id="image78">
				</image>
			</g>
		</mask>
		<g
   class="st11"
   mask="url(#SVGID_00000047045369145652806950000007021903013526502016_)"
   id="g85"
   style="fill:#9ae082;fill-opacity:1">
			<path
   class="st6"
   d="m 39.8,65 -3.2,1.2 -1.2,2.3 v 5 c 0,0 0.6,20.9 0.6,21 0,0.1 -0.6,4.7 -0.6,4.7 l -0.9,0.4 v 1.2 l 0.9,1 0.3,6 0.1,8.3 -0.4,14.1 0.4,4.3 2.5,3.3 1.1,0.8 2.8,0.2 33.7,-0.6 31.7,-0.6 c 0,0 12.4,-0.9 12.7,-1 0.1,0 9,-0.4 16.8,-0.8 6.2,-0.3 11.6,-0.5 11.6,-0.5 l 1.7,2.7 6.4,0.2 h 31.3 l 3.9,-0.6 37.2,0.2 h 30.7 c 0,0 5.1,-1.3 5.3,-1.3 0.2,0 26.6,1.1 26.6,1.1 l 12.4,-0.3 10.3,1.9 19.5,-1.5 18.5,-0.3 10.1,0.6 1.5,-2.8 1.1,-1.4 -0.7,-37.4 0.7,-2.6 -1.3,-1 0.7,-17.3 -0.9,-5.6 -4.5,-4.3 -26,-0.6 -3.1,0.3 -46.7,-0.3 h -37.9 l -1.3,1 -1.9,-0.7 -41.9,0.3 -11.6,-2 -17.2,2.3 L 95.3,65 91.7,65.7 83.8,65.1 66.3,63.7 51.2,65.6 Z"
   id="path83"
   style="fill:#9ae082;fill-opacity:1" />
		</g>
	</g>
</svg>
