<svg id="Layer_1" data-name="Layer 1" xmlns="http://www.w3.org/2000/svg" viewBox="0 0 63.99 73.27"><defs><style>.cls-1{fill:#4f4f4f;}.cls-2{fill:#828282;}.cls-3{fill:#636363;}.cls-4{fill:#cecece;}.cls-5{fill:#424242;}</style></defs><polygon class="cls-1" points="23.27 0 49.86 8.31 63.99 23.27 63.99 44.59 58.17 59.46 28.26 73.27 8.31 64.73 0 48.74 0 17.45 23.27 0"/><polygon class="cls-2" points="24.2 5.57 47.95 12.99 60.57 26.35 60.57 43.05 55.37 55.37 28.66 67.7 10.84 60.08 3.42 46.76 3.42 21.15 24.2 5.57"/><polygon class="cls-3" points="47.95 12.99 49.86 8.31 63.99 23.27 60.57 26.35 47.95 12.99"/><polygon class="cls-3" points="55.37 55.37 58.17 59.46 28.26 73.27 28.66 67.7 55.37 55.37"/><polygon class="cls-3" points="0 17.45 3.42 21.15 3.42 46.76 0 48.74 0 17.45"/><polygon class="cls-4" points="24.2 5.91 4.78 21.65 4.78 46.26 11.71 59.58 10.84 60.08 3.42 46.76 3.42 21.15 24.2 5.57 24.2 5.91"/><rect class="cls-5" x="12.84" y="28.92" width="39.5" height="3.97" rx="1.87"/><rect class="cls-5" x="12.84" y="35.46" width="25.23" height="3.97" rx="1.87"/><rect class="cls-5" x="12.84" y="41.48" width="12.61" height="3.97" rx="1.87"/></svg>