<svg
   id="Layer_1"
   data-name="Layer 1"
   viewBox="0 0 63.99 73.27"
   version="1.1"
   xmlns="http://www.w3.org/2000/svg">
   
  <defs>
    <style
       id="style2">.cls-1{fill:#4f4f4f;}.cls-2{fill:#828282;}.cls-3{fill:#636363;}.cls-4{fill:#cecece;}.cls-5{fill:#424242;}</style>
  </defs>
  <polygon
     class="cls-1"
     points="23.27 0 49.86 8.31 63.99 23.27 63.99 44.59 58.17 59.46 28.26 73.27 8.31 64.73 0 48.74 0 17.45 23.27 0"
     id="polygon6" />
  <polygon
     class="cls-2"
     points="24.2 5.57 47.95 12.99 60.57 26.35 60.57 43.05 55.37 55.37 28.66 67.7 10.84 60.08 3.42 46.76 3.42 21.15 24.2 5.57"
     id="polygon8" />
  <polygon
     class="cls-3"
     points="47.95 12.99 49.86 8.31 63.99 23.27 60.57 26.35 47.95 12.99"
     id="polygon10" />
  <polygon
     class="cls-3"
     points="55.37 55.37 58.17 59.46 28.26 73.27 28.66 67.7 55.37 55.37"
     id="polygon12" />
  <polygon
     class="cls-3"
     points="0 17.45 3.42 21.15 3.42 46.76 0 48.74 0 17.45"
     id="polygon14" />
  <polygon
     class="cls-4"
     points="24.2 5.91 4.78 21.65 4.78 46.26 11.71 59.58 10.84 60.08 3.42 46.76 3.42 21.15 24.2 5.57 24.2 5.91"
     id="polygon16" />
  <path
     style="color:#000000;fill:#424242;-inkscape-stroke:none"
     d="m 14.71,28.92 h 35.76 c 1.03598,0 1.87,0.83402 1.87,1.87 v 0.23 c 0,1.03598 -0.83402,1.87 -1.87,1.87 H 14.71 c -1.03598,0 -1.87,-0.83402 -1.87,-1.87 v -0.23 c 0,-1.03598 0.83402,-1.87 1.87,-1.87 z"
     id="rect18" />
  <path
     style="color:#000000;fill:#424242;-inkscape-stroke:none"
     d="M 14.71,35.459999 H 36.2 c 1.03598,0 1.87,0.83402 1.87,1.87 v 0.23 c 0,1.03598 -0.83402,1.87 -1.87,1.87 H 14.71 c -1.03598,0 -1.87,-0.83402 -1.87,-1.87 v -0.23 c 0,-1.03598 0.83402,-1.87 1.87,-1.87 z"
     id="rect20" />
  <path
     style="color:#000000;fill:#424242;-inkscape-stroke:none"
     d="m 14.71,41.48 h 8.87 c 1.03598,0 1.87,0.83402 1.87,1.87 v 0.23 c 0,1.03598 -0.83402,1.87 -1.87,1.87 h -8.87 c -1.03598,0 -1.87,-0.83402 -1.87,-1.87 v -0.23 c 0,-1.03598 0.83402,-1.87 1.87,-1.87 z"
     id="rect22" />
</svg>
