<?xml version="1.0" encoding="UTF-8" standalone="no"?>
<!-- Generator: Adobe Illustrator 26.0.2, SVG Export Plug-In . SVG Version: 6.00 Build 0)  -->

<svg version="1.1" id="Layer_1" xmlns="http://www.w3.org/2000/svg" xmlns:xlink="http://www.w3.org/1999/xlink" x="0px" y="0px"
	 viewBox="0 0 400 400" style="enable-background:new 0 0 400 400;" xml:space="preserve">
<style
   type="text/css"
   id="style2">
	.st0{fill:#636363;}
	.st1{fill:#828282;}
	.st2{fill:#4F4F4F;}
	.st3{fill:#CECECE;}
</style>
<g
   id="g26"
   transform="translate(-62)">
	<polygon
   class="st0"
   points="91.4,40.2 69.3,86 69.1,137.9 71,140.6 71,157.8 69.1,161.2 69,195.5 62.1,265 69.7,339.2 91.2,381.7 189.5,380.9 269.2,372.1 272,372.4 272.7,371.4 287.3,372.5 289.2,374.1 334.3,378.5 338.5,289.8 328.1,137.9 334.3,63.8 332.7,60.1 327.7,46.2 317.9,38.3 316.2,35.9 262.1,18.1 159.1,21.5 "
   id="polygon4" />
	<polygon
   class="st1"
   points="95.5,44.5 77.3,87.8 74.2,192.9 71,255.7 77.7,326.3 98.3,366.9 189.3,370.1 266,364.5 327.7,367.9 331.7,283.1 321.8,137.9 327.7,46.2 239.1,23.4 171.1,29.5 "
   id="polygon6" />
	<polygon
   class="st2"
   points="99.4,146.7 94.2,151.5 89.2,154.4 75.3,155.6 71,158.1 71,140.6 75.9,136.3 91.5,142.1 95.1,145.1 "
   id="polygon8" />
	<polygon
   class="st2"
   points="327.7,46.2 317.9,38.3 314.3,42.7 315.3,51.8 309.3,64.5 320.5,56.7 326.9,58.4 332.7,60.1 "
   id="polygon10" />
	<polygon
   class="st2"
   points="271.5,359.7 274.5,362.9 273.9,364.9 272.7,371.4 287.3,372.5 284.7,365.5 282.8,360.8 276.3,355.1 273.5,352.2 "
   id="polygon12" />
	<polygon
   class="st2"
   points="77.3,87.8 95.5,44.5 91.4,40.2 69.3,86 "
   id="polygon14" />
	<polygon
   class="st2"
   points="189.5,380.9 91.2,381.7 98.3,366.9 189.3,370.1 "
   id="polygon16" />
	<polygon
   class="st3"
   points="262.1,18.1 238.5,23.4 314.3,42.7 317.9,38.3 316.2,35.9 "
   id="polygon18" />
	<polygon
   class="st3"
   points="95.5,44.5 95.1,45.5 171.3,30.1 238.1,24.3 313.6,43.3 314.3,42.7 238.5,23.4 171.1,29.5 "
   id="polygon20" />
	<polygon
   class="st3"
   points="95.1,145.1 99.4,146.7 95.3,144.4 92,141.7 75.9,134.6 75.9,136.3 91.5,142.1 "
   id="polygon22" />
	<path
   class="st3"
   d="m 273.5,352.2 -3,7.8 3,3.3 -0.9,0.8 c 0,0 -6.7,0.4 -6.6,0.4 0.1,0 7.5,-12.3 7.5,-12.3 z"
   id="path24" />
</g>
</svg>
