<?xml version="1.0" encoding="utf-8"?>
<!-- Generator: Adobe Illustrator 26.2.0, SVG Export Plug-In . SVG Version: 6.00 Build 0)  -->
<svg version="1.1" id="Layer_1" xmlns="http://www.w3.org/2000/svg" xmlns:xlink="http://www.w3.org/1999/xlink" x="0px" y="0px"
	 viewBox="0 0 276.4 364.5" style="enable-background:new 0 0 276.4 364.5;" xml:space="preserve">
<style type="text/css">
	.st0{fill:#636363;}
	.st1{fill:#828282;}
	.st2{fill:#4F4F4F;}
	.st3{fill:#CECECE;}
	.st4{fill:#4F403A;}
	.st5{fill:#705E51;stroke:#5B5B5B;stroke-width:0.6595;stroke-miterlimit:10;}
	.st6{fill:#4F4F4F;stroke:#4F4F4F;stroke-width:0.3884;stroke-miterlimit:10;}
	.st7{fill:#775742;}
	.st8{opacity:0.46;fill:#33302D;enable-background:new    ;}
	.st9{fill:none;stroke:#5B5B5B;stroke-width:0.6656;stroke-miterlimit:10;}
	.st10{fill:#E1E1E1;}
	.st11{fill:#686868;}
	.st12{fill:#C6B17B;}
	.st13{fill:#727272;stroke:#5B5B5B;stroke-width:1.3312;stroke-miterlimit:10;}
	.st14{fill:#AEAEAF;}
	.st15{fill:#9C9B9B;}
	.st16{fill:#BBBBBB;}
	.st17{fill:#66605C;}
	.st18{fill:#232222;}
	.st19{fill:#494542;}
	.st20{fill:#756D67;}
	.st21{fill:#302D2B;}
	.st22{fill:#5B5B5B;}
	.st23{fill:#B79F2A;}
	.st24{fill:#66605C;stroke:#5B5B5B;stroke-width:3.328;stroke-miterlimit:10;}
	.st25{fill:#3C4C41;stroke:#2F3D33;stroke-width:1.9968;stroke-miterlimit:10;}
	.st26{fill:#66605C;stroke:#5B5B5B;stroke-width:2.601;stroke-miterlimit:10;}
	.st27{fill:#3C4C41;stroke:#2F3D33;stroke-width:1.5606;stroke-miterlimit:10;}
	.st28{fill:#727272;stroke:#191919;stroke-width:2.6717;stroke-miterlimit:10;}
	.st29{fill:#727272;stroke:#191919;stroke-width:1.3359;stroke-miterlimit:10;}
</style>
<g>
	<polygon class="st0" points="265.6,28.1 255.8,20.2 254.1,17.8 200,0 97,3.4 29.3,22.1 7.2,67.9 7,119.8 8.9,122.5 8.9,139.7 
		7,143.1 6.9,177.4 0,246.9 7.6,321.1 29.1,363.6 127.4,362.8 207.1,354 209.9,354.3 210.6,353.3 225.2,354.4 227.1,356 
		272.2,360.4 276.4,271.7 266,119.8 272.2,45.7 270.6,42 	"/>
	<polygon class="st1" points="265.6,28.1 177,5.3 109,11.4 33.4,26.4 15.2,69.7 12.1,174.8 8.9,237.6 15.6,308.2 36.2,348.8 
		127.2,352 203.9,346.4 265.6,349.8 269.6,265 259.7,119.8 	"/>
	<polygon class="st2" points="8.9,122.5 13.8,118.2 29.4,124 33,127 37.3,128.6 32.1,133.4 27.1,136.3 13.2,137.5 8.9,140 	"/>
	<polygon class="st2" points="255.8,20.2 252.2,24.6 253.2,33.7 247.2,46.4 258.4,38.6 264.8,40.3 270.6,42 265.6,28.1 	"/>
	<polygon class="st2" points="222.6,347.4 220.7,342.7 214.2,337 211.4,334.1 209.4,341.6 212.4,344.8 211.8,346.8 210.6,353.3 
		225.2,354.4 	"/>
	<polygon class="st2" points="33.4,26.4 29.3,22.1 7.2,67.9 15.2,69.7 	"/>
	<polygon class="st2" points="29.1,363.6 36.2,348.8 127.2,352 127.4,362.8 	"/>
	<polygon class="st3" points="254.1,17.8 200,0 176.4,5.3 252.2,24.6 255.8,20.2 	"/>
	<polygon class="st3" points="33,27.4 109.2,12 176,6.2 251.5,25.2 252.2,24.6 176.4,5.3 109,11.4 33.4,26.4 	"/>
	<polygon class="st3" points="13.8,116.5 13.8,118.2 29.4,124 33,127 37.3,128.6 33.2,126.3 29.9,123.6 	"/>
	<path class="st3" d="M211.4,334.1l-3,7.8l3,3.3l-0.9,0.8c0,0-6.7,0.4-6.6,0.4S211.4,334.1,211.4,334.1z"/>
</g>
<g>
	<polygon class="st0" points="265.6,28.1 255.7,20.2 254,17.8 200,0 97,3.4 29.3,22.1 7.2,67.9 7.1,119.7 8.9,122.5 8.9,139.7 
		7,143.1 6.9,177.4 0,246.9 7.6,321.1 29.1,363.6 127.4,362.8 207.1,354 209.8,354.2 210.5,353.3 225.2,354.4 227.1,355.9 
		272.2,360.4 276.3,271.7 266,119.8 272.2,45.7 270.5,42 	"/>
	<polygon class="st1" points="265.6,28.1 177,5.3 108.9,11.4 33.4,26.4 15.2,69.7 12.1,174.8 8.9,237.6 15.6,308.2 36.2,348.8 
		127.2,352 203.9,346.3 265.6,349.7 269.5,265 259.7,119.7 	"/>
	<polygon class="st2" points="8.9,122.5 13.8,118.2 29.4,124 33,126.9 37.3,128.6 32.1,133.4 27.1,136.3 13.2,137.5 8.9,140 	"/>
	<polygon class="st2" points="255.7,20.2 252.2,24.6 253.2,33.7 247.2,46.4 258.4,38.6 264.8,40.3 270.5,42 265.6,28.1 	"/>
	<polygon class="st2" points="222.6,347.4 220.7,342.6 214.2,337 211.4,334 209.3,341.6 212.4,344.7 211.7,346.8 210.5,353.3 
		225.2,354.4 	"/>
	<polygon class="st2" points="33.4,26.4 29.3,22.1 7.2,67.9 15.2,69.7 	"/>
	<polygon class="st2" points="29.1,363.6 36.2,348.8 127.2,352 127.4,362.8 	"/>
	<polygon class="st3" points="254,17.8 200,0 176.4,5.3 252.2,24.6 255.7,20.2 	"/>
	<polygon class="st3" points="33,27.4 109.2,12 176,6.2 251.4,25.2 252.2,24.6 176.4,5.3 108.9,11.4 33.4,26.4 	"/>
	<polygon class="st3" points="13.8,116.5 13.8,118.2 29.4,124 33,126.9 37.3,128.6 33.2,126.3 29.9,123.6 	"/>
	<path class="st3" d="M211.4,334l-3,7.8l3,3.3l-0.9,0.8c0,0-6.7,0.4-6.6,0.4S211.4,334,211.4,334z"/>
</g>
<polygon class="st4" points="53.1,15.3 59.6,21.6 59.6,329.1 71.6,329.1 71.6,18.5 65.2,12.4 61.8,9.1 50.5,13.5 48.6,15.3 
	48.6,16.6 "/>
<polygon class="st4" points="219.9,6.6 212.3,15.5 212.3,329.1 224.3,329.1 224.3,18.4 228.6,9.4 230.4,10 231.7,7.1 229.2,5.7 
	222.1,4.8 "/>
<rect x="44.1" y="336.9" class="st5" width="204.7" height="26.7"/>
<rect x="48.3" y="325.7" class="st6" width="34.4" height="11.4"/>
<line class="st7" x1="56" y1="337.5" x2="56" y2="328.7"/>
<line class="st7" x1="45.8" y1="337.2" x2="49.1" y2="328.4"/>
<polygon class="st7" points="83.3,328.1 82.7,328.1 82.7,336.9 86.6,336.9 "/>
<polygon class="st7" points="47.5,328.1 48.1,328.1 48.1,336.9 44.1,336.9 "/>
<path class="st8" d="M56.1,337.5h3.8l-3.8-8.8C56.1,328.7,56.1,337.4,56.1,337.5z"/>
<g>
	<rect x="72.4" y="328.6" class="st7" width="2" height="8.8"/>
	<rect x="54.2" y="328.6" class="st7" width="2" height="8.8"/>
	<path class="st8" d="M74.4,337.5h3.8l-3.8-8.8C74.4,328.6,74.4,337.4,74.4,337.5z"/>
</g>
<rect x="200.2" y="325.7" class="st6" width="34.4" height="11.4"/>
<polygon class="st7" points="235.2,328.1 234.6,328.1 234.6,336.9 238.5,336.9 "/>
<polygon class="st7" points="199.4,328.1 200,328.1 200,336.9 196,336.9 "/>
<g>
	<rect x="224.3" y="328.6" class="st7" width="2" height="8.8"/>
	<rect x="206" y="328.6" class="st7" width="2" height="8.8"/>
	<path class="st8" d="M226.3,337.5h3.8l-3.8-8.8C226.3,328.6,226.3,337.4,226.3,337.5z"/>
</g>
<path class="st8" d="M208,337.5h3.8l-3.8-8.8C208,328.7,208,337.4,208,337.5z"/>
<rect x="48.5" y="341.5" class="st6" width="14.3" height="0.4"/>
<rect x="48.5" y="360.3" class="st6" width="14.3" height="0.4"/>
<rect x="48.5" y="341.5" class="st6" width="0.4" height="19.2"/>
<rect x="62.5" y="341.5" class="st6" width="0.4" height="19.2"/>
<polyline class="st9" points="78.8,363.9 84.7,358 238,358 241.2,361.2 "/>
<path class="st10" d="M61.1,351.1c0,0.6-0.5,1.1-1.1,1.1s-1.1-0.5-1.1-1.1s0.5-1.1,1.1-1.1C60.6,350,61.1,350.5,61.1,351.1z"/>
<g>
	<path class="st11" d="M60,351.9c-0.4,0-0.8-0.4-0.8-0.8c0-0.4,0.4-0.8,0.8-0.8c0.4,0,0.8,0.4,0.8,0.8
		C60.8,351.5,60.4,351.9,60,351.9z M60,350.4c-0.4,0-0.7,0.3-0.7,0.7c0,0.4,0.3,0.7,0.7,0.7s0.7-0.3,0.7-0.7
		C60.6,350.7,60.3,350.4,60,350.4z"/>
</g>
<rect x="59.9" y="350.7" class="st11" width="0.2" height="0.8"/>
<g>
	<polygon class="st12" points="55.5,346.9 57.5,346.9 55.1,350.4 57.8,349.7 54.2,355.3 55.7,351.1 53.5,352.1 	"/>
</g>
<g>
	<g>
		<path class="st10" d="M48.7,347.8L48.7,347.8c0.2,0,0.3-0.2,0.3-0.4v-3.2c0-0.2-0.2-0.4-0.3-0.4l0,0c-0.2,0-0.3,0.2-0.3,0.4v3.2
			C48.4,347.6,48.5,347.8,48.7,347.8z"/>
		<rect x="48.4" y="345.7" class="st11" width="0.7" height="0.2"/>
	</g>
	<g>
		<path class="st10" d="M48.7,358.2L48.7,358.2c0.2,0,0.3-0.2,0.3-0.4v-3.2c0-0.2-0.2-0.4-0.3-0.4l0,0c-0.2,0-0.3,0.2-0.3,0.4v3.2
			C48.4,358.1,48.5,358.2,48.7,358.2z"/>
		<rect x="48.4" y="356.2" class="st11" width="0.7" height="0.2"/>
	</g>
</g>
<polygon class="st13" points="235.9,342.8 164.8,342.8 158.6,336.6 124.1,336.6 124.1,363.9 212.5,363.9 228,348.4 249.6,348.4 
	249.6,343 "/>
<g>
	<polyline class="st14" points="143.8,347.5 143.8,340.9 145.3,340.9 145.3,347.5 	"/>
	<polygon class="st11" points="145.3,341.9 143.8,342.2 143.8,341.9 145.3,341.5 	"/>
	<polygon class="st11" points="145.3,342.5 143.8,342.9 143.8,342.5 145.3,342.2 	"/>
	<polygon class="st11" points="145.3,343.2 143.8,343.5 143.8,343.2 145.3,342.9 	"/>
	<polyline class="st11" points="143.8,343.9 145.3,343.5 145.3,343.9 	"/>
	<polyline class="st15" points="143.2,344.2 143.2,343.1 145.9,343.1 145.9,344.2 	"/>
	<polyline class="st16" points="143.2,344.2 143.2,343.1 143.8,343.1 143.8,344.2 	"/>
	<polyline class="st16" points="145.3,344.2 145.3,343.1 145.9,343.1 145.9,344.2 	"/>
	<polyline class="st14" points="132.8,347.5 132.8,340.9 134.3,340.9 134.3,347.5 	"/>
	<polygon class="st11" points="134.3,341.9 132.8,342.2 132.8,341.9 134.3,341.5 	"/>
	<polygon class="st11" points="134.3,342.5 132.8,342.9 132.8,342.5 134.3,342.2 	"/>
	<polygon class="st11" points="134.3,343.2 132.8,343.5 132.8,343.2 134.3,342.9 	"/>
	<polyline class="st11" points="132.8,343.9 134.3,343.5 134.3,343.9 	"/>
	<polyline class="st15" points="132.2,344.2 132.2,343.1 134.9,343.1 134.9,344.2 	"/>
	<polyline class="st16" points="132.2,344.2 132.2,343.1 132.8,343.1 132.8,344.2 	"/>
	<polyline class="st16" points="134.3,344.2 134.3,343.1 134.9,343.1 134.9,344.2 	"/>
	<polyline class="st14" points="134.3,354.3 134.3,360.9 132.8,360.9 132.8,354.3 	"/>
	<polygon class="st11" points="132.8,359.9 134.3,359.6 134.3,359.9 132.8,360.3 	"/>
	<polygon class="st11" points="132.8,359.3 134.3,358.9 134.3,359.3 132.8,359.6 	"/>
	<polygon class="st11" points="132.8,358.6 134.3,358.3 134.3,358.6 132.8,358.9 	"/>
	<polyline class="st11" points="134.3,357.9 132.8,358.3 132.8,357.9 	"/>
	<polyline class="st15" points="134.9,357.6 134.9,358.7 132.2,358.7 132.2,357.6 	"/>
	<polyline class="st16" points="134.9,357.6 134.9,358.7 134.3,358.7 134.3,357.6 	"/>
	<polyline class="st16" points="132.8,357.6 132.8,358.7 132.2,358.7 132.2,357.6 	"/>
	<polyline class="st14" points="145.3,354.3 145.3,360.9 143.8,360.9 143.8,354.3 	"/>
	<polygon class="st11" points="143.8,359.9 145.3,359.6 145.3,359.9 143.8,360.3 	"/>
	<polygon class="st11" points="143.8,359.3 145.3,358.9 145.3,359.3 143.8,359.6 	"/>
	<polygon class="st11" points="143.8,358.6 145.3,358.3 145.3,358.6 143.8,358.9 	"/>
	<polyline class="st11" points="145.3,357.9 143.8,358.3 143.8,357.9 	"/>
	<polyline class="st15" points="145.9,357.6 145.9,358.7 143.2,358.7 143.2,357.6 	"/>
	<polyline class="st16" points="145.9,357.6 145.9,358.7 145.3,358.7 145.3,357.6 	"/>
	<polyline class="st16" points="143.8,357.6 143.8,358.7 143.2,358.7 143.2,357.6 	"/>
	<rect x="129.6" y="344.2" class="st17" width="19" height="13.4"/>
</g>
<g>
	<rect x="130.7" y="345.1" class="st11" width="16.7" height="0.4"/>
	<rect x="130.7" y="356" class="st11" width="16.7" height="0.4"/>
	<rect x="130.7" y="345.3" class="st11" width="0.4" height="11.2"/>
	<rect x="146.9" y="345.1" class="st11" width="0.4" height="11.4"/>
	<g>
		<rect x="131.7" y="346" class="st14" width="14.6" height="0.7"/>
		<rect x="131.7" y="347.5" class="st14" width="14.6" height="0.7"/>
		<rect x="131.7" y="349" class="st14" width="14.6" height="0.7"/>
		<rect x="131.7" y="350.4" class="st14" width="14.6" height="0.7"/>
		<rect x="131.7" y="351.9" class="st14" width="14.6" height="0.7"/>
		<rect x="131.7" y="353.4" class="st14" width="14.6" height="0.7"/>
		<rect x="131.7" y="354.8" class="st14" width="14.6" height="0.7"/>
	</g>
</g>
<rect x="162.8" y="349.7" class="st18" width="10.1" height="8.1"/>
<path class="st19" d="M174.3,357.1h-12.9c-0.8,0-1.4-0.6-1.4-1.4v-1.6c0-0.8,0.6-1.4,1.4-1.4h12.9c0.8,0,1.4,0.6,1.4,1.4v1.6
	C175.7,356.5,175.1,357.1,174.3,357.1z"/>
<rect x="170.6" y="351.7" class="st20" width="0.8" height="1.1"/>
<rect x="164.2" y="351.7" class="st20" width="0.8" height="1.1"/>
<rect x="165.1" y="351.7" class="st20" width="0.4" height="1.1"/>
<rect x="170.1" y="351.7" class="st20" width="0.4" height="1.1"/>
<rect x="162.8" y="349.7" width="10.1" height="0.7"/>
<rect x="163.4" y="351.1" class="st21" width="8.8" height="0.9"/>
<rect x="182.1" y="349.7" class="st18" width="10.1" height="8.1"/>
<path class="st19" d="M193.6,355.4h-12.9c-0.8,0-1.4-0.6-1.4-1.4v-1.6c0-0.8,0.6-1.4,1.4-1.4h12.9c0.8,0,1.4,0.6,1.4,1.4v1.6
	C195,354.8,194.4,355.4,193.6,355.4z"/>
<line class="st20" x1="184.4" y1="351.7" x2="184.8" y2="351.7"/>
<line class="st20" x1="184.8" y1="352.8" x2="184.4" y2="352.8"/>
<rect x="182.1" y="349.7" width="10.1" height="0.7"/>
<polyline class="st9" points="218.1,350.9 208.9,350.9 198.7,361 156.3,361 156.3,337 "/>
<circle class="st22" cx="218.7" cy="350.9" r="0.9"/>
<circle class="st22" cx="119.3" cy="354.3" r="0.9"/>
<circle class="st22" cx="241.2" cy="361.2" r="0.9"/>
<polyline class="st9" points="119.3,354.3 107.1,354.3 96.1,343.3 74.4,343.3 74.4,337.2 "/>
<g>
	<g>
		<path class="st23" d="M133.9,332.3c-0.3-2.5,1.7-4.3,4-4.8c3-0.7,6.1,0.5,8.9,1.6c4.8,1.8,10.7,3.6,15.2-0.1
			c2-1.7,2.8-4.3,3.1-6.8c0.4-2.9,0.2-5.9-0.8-8.7c-1.9-5.2-6.4-8.8-11.1-11.6c-10-5.8-21.7-7.5-33-8.4c-12.2-1-24.4-1.5-36-5.8
			c-5.7-2.1-11.2-5.1-16.2-8.6c-2.5-1.8-4.9-3.7-7.1-5.8c-2.3-2.1-4.3-4.5-5.2-7.5c-0.6-2.1-3.8-1.2-3.2,0.9
			c1.4,5.3,6,9.2,10.1,12.5c4.3,3.4,8.9,6.3,13.8,8.7c5,2.4,10.2,4.3,15.5,5.6c6.1,1.5,12.4,2.1,18.7,2.6
			c11.6,0.9,23.5,1.4,34.5,5.6c5,1.9,10.2,4.7,13.7,8.8c1.9,2.2,2.9,4.8,3.2,7.7c0.2,2.4,0.1,5.6-1.4,7.6c-1.6,2.1-4.7,2.4-7.1,1.9
			c-3.4-0.7-6.4-2.4-9.8-3.2c-3-0.7-6.4-0.8-9.2,0.9c-2.3,1.5-4.1,4.1-3.8,6.9C130.8,334.4,134.1,334.4,133.9,332.3L133.9,332.3z"/>
	</g>
</g>
<g>
	<g>
		<path class="st23" d="M156,235.9c-3-9.2-13-12.1-21.6-13.6c-4.9-0.9-9.8-1.5-14.7-2c-4.3-0.5-8.8-1.2-12.6-3.3
			c-2-1.1-4.3-2.6-5-4.9c-0.7-2.5,0.2-5.3,1.5-7.5c1.1-1.8-1.8-3.5-2.9-1.7c-2.4,4-3.2,9.5-0.1,13.3c2.9,3.4,7.6,5.2,11.8,6.2
			c4.6,1.1,9.3,1.3,14,2c5.1,0.7,10.4,1.5,15.3,3.1c4.7,1.5,9.4,4.5,11,9.4C153.5,238.8,156.7,238,156,235.9L156,235.9z"/>
	</g>
</g>
<rect x="36.4" y="66" class="st24" width="210.8" height="145.8"/>
<path class="st25" d="M228.8,205H54.8c-5.9,0-10.6-4.8-10.6-10.6v-111c0-5.9,4.8-10.6,10.6-10.6h174.1c5.9,0,10.6,4.8,10.6,10.6v111
	C239.5,200.2,234.7,205,228.8,205z"/>
<rect x="36.4" y="230.4" class="st26" width="210.8" height="89"/>
<path class="st27" d="M231.1,315.3H52.4c-4.6,0-8.3-3.7-8.3-8.3v-64.2c0-4.6,3.7-8.3,8.3-8.3h178.7c4.6,0,8.3,3.7,8.3,8.3V307
	C239.5,311.6,235.7,315.3,231.1,315.3z"/>
<polygon class="st6" points="141,335.7 124,335.7 128.1,331.9 137,331.9 "/>
<g>
	<path class="st28" d="M111.3,28.1"/>
	<path class="st28" d="M121.9,35.9"/>
	<path class="st29" d="M90.7,12.6"/>
	<path class="st29" d="M121.9,35.9"/>
</g>
</svg>
