<?xml version="1.0" encoding="utf-8"?>
<!-- Generator: Adobe Illustrator 26.0.2, SVG Export Plug-In . SVG Version: 6.00 Build 0)  -->
<svg version="1.1" id="Layer_1" xmlns="http://www.w3.org/2000/svg" xmlns:xlink="http://www.w3.org/1999/xlink" x="0px" y="0px"
	 viewBox="0 0 128 128" style="enable-background:new 0 0 128 128;" xml:space="preserve">
<style type="text/css">
	.st0{fill:#4F4F4F;}
	.st1{fill:#828282;}
	.st2{fill:#AFAFAF;}
	.st3{fill:#C435C1;}
	.st4{fill:#E589E5;}
	.st5{fill:#96238E;}
</style>
<g>
	<path class="st0" d="M109.9,71.5l-0.3-0.7l0.6-1.3l0.1-1l-0.3-1.5l0.3-1.2l-0.1-2.2l-0.5-0.2L110,63l0.1-0.5c0,0-0.4-1.3-0.4-1.4
		c0-0.1,0.1-1.2,0.1-1.2l0.3-0.8L110,57l-0.3-0.9l-0.1-1l-0.6-1.3l-0.7-0.9l-0.1-0.8l-0.2-1.2l-0.5-1.7l-0.9-1.4l-1-1.8l-1.6-2.6
		l-0.9-1.5l-0.7-1.7l-1.4-1.6l-0.9-2c0,0-2.1-1.8-2.1-1.8s-1-1.3-1-1.3l-1.5-2l-1-0.5l-1.4-0.2l-1.4-1.3L89.2,28h-0.9L88,27.3
		l-1.2-0.9l-1.5-1.2L84,24.8L83.4,25l-1.6-1l-1.1-0.9l-1.1-0.8h-1.9l-1.6-0.6l-1.7-0.1l-1.7-0.3l-1.9-0.2l-1.7-0.5l-2.3-0.1
		l-1.5-0.5l-1.6,0.1l-1.2,1l-1-0.8l-2.4,0l-3.5,0.3l-1.5-0.3L52,21l-5.3,2.1L43,24.9l-2.3,0.6L40,26.1l-3,2.7l-1.8,1.3l-1.5,0.7
		l-0.5,0.9l-2.3,2.8l-1.9,1.2l-0.6,1.1c0,0-1.9,2.6-1.9,2.6c0,0.1-1.3,1.3-1.3,1.3L24.7,42l-1.6,3.8l-1.8,1.2l0.1,1.2l-1.2,4.6
		c0,0-0.7,1.7-0.7,1.9c0,0.2-0.2,1.5-0.2,1.6c0,0.1-0.3,2.2-0.3,2.2l-0.5,3.1l-0.4,1.5c0,0,0.2,1.4,0.2,1.4c0,0.1,0.4,6.2,0.4,6.2
		l1.1,4l0.7,3.7l1.2,3.5l0.3,2.2l4.3,6.5l2.3,3.7l2.1,3.4l2.7,1.7l2.1,1.5l3.3,3.2l6.6,3.1l4.1,1.3l2.6,0.5l0.6-0.4l0.4,0.7l0.9,0.2
		l1.7,0.2l0.9,0.4l3.9,0.5l1.8-0.2l0.6,0l1.8,0.5l2.1,0.1l0.7-0.5l2.2,0l1.8-0.4l1.7-0.3v-0.2l0.8,0.1l3.3-1l1.6-0.6l1.6-0.3
		l2.3-0.9l1.3-0.7l2-0.6l1.8-1l0.4-0.1l0.4-0.4l0.6,0.1l5.2-3.3l2-1v-0.6l0.3-0.5l0.9-0.7l1-0.4l0.7-0.8l0.1-0.5l0.6-0.4
		c0,0,0.2-0.4,0.2-0.5c0-0.1,0.7-0.9,0.7-0.9l1.7-1.8l0.3-1l0.5-0.7l0.3-0.7l0.1-0.4l1.2-1l0.2-0.7l0.8-0.5l0.5-1l2.4-5.5L109,80
		l1-4.8c0,0,0.6-1.1,0.6-1.1C110.6,74,109.9,71.5,109.9,71.5z M64.4,105.7c-22,0-39.8-17.8-39.8-39.8S42.4,26,64.4,26
		s39.8,17.8,39.8,39.8S86.4,105.7,64.4,105.7z"/>
	<path class="st1" d="M109.4,67.9l-0.1-0.5l-0.1-0.9c0,0,0.1-0.4,0.1-0.4c0,0,0-0.4,0-0.4l0-0.4l0.1-0.2l0.3-0.8l-0.2-0.2l-0.2-0.1
		l-0.3,0l-0.3,0l-0.4-0.3l-0.1-0.1l0.3,0l0.2-0.2l0.4-0.1l0.2-0.2l0.1-0.3l-0.1-0.4l-0.1-0.3l0-0.5l0-1.1l-0.1-0.3l-0.1-0.3l0.5-0.7
		l0.1-0.4l-0.2-0.6l-0.1-0.6l-0.3-0.7l-0.1-0.5l0.1-0.5l-0.3-0.4l-0.1-0.4l-0.1-0.4l-0.8-0.3l0.1-0.3l-0.1-0.3l-0.3-0.3l-0.4-0.5
		l0.1-0.2l0-0.4l0.2-0.6l-0.4-1l0-1l-0.5-0.5l-0.3-0.2l-0.1,0l-0.4-0.3l0.3-0.2l0.1-0.4l-0.1-0.4l-0.3-0.5l-0.5-0.8
		c0,0-0.1-0.5-0.1-0.5c0,0-0.2-0.3-0.2-0.3c0,0-0.1-0.3-0.1-0.3l-0.1-0.3l-0.4-0.2l-0.2-0.3l-0.2-0.2l-0.2-0.3l0-0.2l0-0.3l-0.3,0
		l-0.1,0.1l-0.2,0.3l0.1,0.2l-0.1,0l-0.1-0.1l0-0.2l0.1-0.2l0.2-0.4l0-0.3l-0.4-0.8l-0.2-0.3l-0.3-0.5l-0.2-0.2l0.2-0.4l-0.2-0.3
		l-1.3-1.8l-0.4-0.8l-1.2-1.7L97.1,35l-1.3-1.6L95,32.1c-0.1-0.1-0.3-0.2-0.4-0.4c0,0.1-0.1,0.2-0.1,0.2l-0.9-0.3c0,0-0.9-0.2-1-0.3
		c-0.1-0.1-1.6-1.3-1.6-1.3l-1.4-0.9l-0.9-0.4l-0.4,0.2L87.7,29l0.1-0.6l-0.1-0.5l-0.5-0.4l-1.4-0.7L84.6,26l-0.7-0.2L83.4,26
		l-0.8-0.5L82,24.9l-1.2-0.7l-1.4-0.8l-1.3,0.2l-0.9-0.2l-0.9-0.5l-1.4-0.1L73,22.3l-0.9,0.2l-0.8-0.3l-1.4-0.5l-3.2-0.1L65.9,21
		l-1.5,0.2l-1.5,0.7l0.7,0.4l-0.2,0.8l-0.9-0.5L61.8,22l-0.4-0.8l-1.2,0.4l-1-0.1c0,0-2.2,0.3-2.4,0.3c-0.1,0.1-1.1,0.2-1.2,0.2
		c-0.1,0-1.5-0.1-1.5-0.1l0-0.3c-6.9,1.7-13.2,4.9-18.5,9.3l-0.6,0.8l-0.2,0.5l0.1,0.3h-0.4h-0.3l-0.4,0.3l-0.5,0.2
		c-0.2,0.2-0.3,0.3-0.5,0.5l-0.2,0.4L32.6,34l-0.3,0.4l-0.9,0.6c0,0-0.3,0.2-0.3,0.2c0,0-0.3,0.3-0.3,0.3l-0.2,0.3L30.4,36
		c-0.2,0.3-0.5,0.6-0.7,0.9l0,0.1c0,0,0,0,0,0l0,0.3l0,0.2l0.2,0.1l0.2,0.2l0.1,0.5l0.4,0.3L30,38.4l-0.3-0.2l-0.3,0L29.2,38l-0.2,0
		l-0.2,0.1c0,0,0,0-0.1,0.1l-0.2,0.3l-0.1,0.3L28,39.1l-0.3,0.4l-0.1,0.3l-0.1,0.3l-0.3,0.3l-0.3,0.2c0,0,0,0,0,0.1l-0.3,0.5
		l-0.3,0.5L26,42.5l-0.3,0.4l-0.4,0.3c0,0,0,0,0,0.1l-0.1,0.5L25,44.1l-0.2,0.3L24.6,45l-0.3,0.1l-0.1,0.3v0.5l-0.1,0.6l0.1,0.3
		l-0.5,0.1l-0.5,0.3c-0.4,0.8-0.7,1.6-1,2.4l0.1,0.3l0.1,0.1l0.1,0.5l-0.3-0.1l-0.3,0.2L21.7,51c0,0,0,0.1,0,0.1l-0.1,0.5l-0.1,0.9
		c0,0-0.3,0.4-0.3,0.4c0,0,0,0.3,0,0.3c0,0-0.1,0.3-0.1,0.3L20.9,54l-0.1,0.3l0,0.3l0,0.3l-0.1,0.4l-0.2,0.1l-0.1,0.3l0.1,0.1l0.1,0
		l0.4-0.1l0.1-0.2l0.2-0.1l-0.1,0.2l0,0.2l-0.1,0.2L20.8,56l-0.4,0.1l-0.2,0.2c-0.1,0.6-0.3,1.3-0.4,1.9v0.2l0,0.3l0,0.4l-0.2,2.2
		l-0.2,0.8c-0.1,1.2-0.2,2.3-0.2,3.5l0.1,1l0,1c0,0.2,0,0.4,0,0.5c0,0.1,0.5,0.8,0.5,0.9c0,0.1,0.1,2,0.1,2l0.3,1.7l0.3,0.9l0.4,0.2
		l0.5,0.3L21,74.6L20.7,75v0.6l0.4,1.5l0.4,1.4l0.4,0.7l0.4,0.2l0.2,0.9v0.8l0.3,1.4l0.4,1.6c0,0,0,0,0,0l1,0.8l0.5,0.8l0.2,1
		l0.9,1.1l1,1.6l0.8,0.5l0.3,0.8l0.6,1.4l2.1,2.4l0.2,1.1l1.2,1l1.5,0.6l-0.2-0.8l0.8-0.4l0.2,0.9v0.9l-0.4,0.8l1.1,0.6l0.6,0.8
		c0,0,1.8,1.4,1.9,1.5c0.1,0.1,0.9,0.7,1,0.8c0.1,0.1,0.9,1.1,1,1.1c0.8,0.5,1.5,1,2.3,1.5l2.9,0.6l0.5,0l0.2-0.2l0.2,0.4l0.1,0.3
		l0.4,0.2l0.4,0.4L47,107l0.4,0l0.4,0l0.5,0.1l0.9,0.5c0,0,0.3,0.2,0.3,0.2c0,0,0.4,0.1,0.4,0.1l0.3,0.1l0.2,0.2l1.2,0.3l0.3-0.1
		l0.2-0.1l0-0.3l0.1-0.3l0.4-0.3l0.1-0.5l0.1,0.4l-0.1,0.3l0.1,0.3l0,0.4l0.1,0.2l0.2,0.2l0.4,0l0.3,0l0.5,0.1l0.5,0.1l0.4,0l0.3,0
		l0.4,0.2l0.3,0.2l0.7,0l0.6,0.1l0.8-0.1l0.5,0.1l0.4,0.3l0.5-0.1l0.4,0l0.4,0.1l0.6-0.1l0.2,0.2l0.3,0l0.4-0.2l0.6-0.2l0.2-0.2
		l0.3,0.4l0.5,0.3l0.9,0.3l1.1,0l0.6-0.3l0.3-0.2l0-0.1l0.4-0.3l0.1,0.3l0.3,0.2l0.4,0l0.6-0.2l0.9-0.3c0,0,0.5,0.1,0.5,0.1
		c0,0,0.3-0.1,0.3-0.1c0,0,0.3,0,0.3,0l0.3,0l0.3,0l0.3-0.1l0.2-0.1l0.4-0.1l0.2,0.1l0.3-0.1l0.1-0.1l0-0.1l-0.3-0.3l-0.2,0
		l-0.2-0.1l0.3,0l0.2-0.1l0.2,0.1l0.1,0.2l0.3,0.3l0.3,0.1l0.9-0.2l0.4-0.1l0.5-0.1l0.2-0.1l0.3-0.1l0.3-0.1l2.1-0.7l0.9-0.1l2-0.6
		l2.1-1.1l1.9-0.8l2.9-1l0,0l-0.1-0.3l0.1-0.4l0.1-0.2l0.2,0.3l0.3,0.1l0.2,0.2c1-0.5,1.9-1,2.8-1.6l0.1-0.1l0.1,0
		c1.6-0.9,3-2,4.4-3l-0.1-0.5l0.3,0l0.2-0.2l0.2-0.4l0.3-0.6l0.2,0l0.3-0.2l0.6-0.1l0.7-0.8l0.8-0.4c0,0,0.1-0.1,0.1-0.1l0.2-0.6
		l0-0.4l-0.1-0.1l0.1-0.5l0.3,0.2l0.4-0.1l0.3-0.3l0.3-0.5l0.5-0.8c0,0,0.4-0.3,0.4-0.3c0,0,0.2-0.3,0.2-0.3c0,0,0.2-0.2,0.2-0.2
		l0.2-0.2l0-0.5l0.1-0.3l0.1-0.2l0.2-0.3l0.2-0.1l0.1-0.2l0-0.2l-0.1-0.1l-0.4,0l-0.1,0.2l-0.2,0.1l0.2-0.2l0-0.2l0.2-0.1l0.2,0
		l0.4,0l0.2-0.1l0.5-0.8l0.2-0.4l0.3-0.5l0.1-0.3l0.4,0l0.1-0.3l1-2l0.3-0.4c1.3-3.2,2.3-6.6,3-10.4l-0.4-3l-0.2-0.5l-0.3-0.1
		l0.3-0.3l0.2-0.2l0.1-0.5l0.2-0.5l0-0.6l-0.1-0.4L109.4,67.9z M64.8,103.9c-21,0-38.1-17.1-38.1-38.1s17.1-38.1,38.1-38.1
		s38.1,17.1,38.1,38.1S85.8,103.9,64.8,103.9z"/>
	<polygon class="st2" points="30.5,38.5 35.4,37.3 37,34.6 41.9,31.9 46,30.4 46.3,28.4 45.4,30.1 41.5,31.3 36.7,33.9 34.9,36.8 	
		"/>
	<polyline class="st2" points="63.3,23.1 63.9,24.3 68.2,25.2 72.2,28.4 75.6,29.3 74,26 71.1,23.3 72.1,22.5 69.9,21.6 66.8,21.6 
		65.9,21 64.4,21.2 62.9,21.9 63.6,22.3 63.3,23.1 	"/>
	<path class="st2" d="M108.3,63.5l-1.1-0.2c0,0-0.6,1.5-0.6,1.6c0,0.1-3.7,2.4-3.7,2.4s-0.2,5.4-1.1,7.8l0.9,1.1l3.2-0.6l3,2.1
		l0.7-3.2l-0.3-3.1l-0.2-0.5l-0.3-0.1l0.6-0.4l0.1-0.5l0.2-0.5l0-0.6l-0.1-0.4l-0.2-0.3l-0.2-1.4l0.1-0.4l0-0.8l0.4-1.1l-0.2-0.2
		l-0.1-0.2l-0.1,0l-0.3,0L108.3,63.5z"/>
</g>
<g>
	<image style="overflow:visible;" width="131" height="124" xlink:href="6A21693.png"  transform="matrix(1 0 0 1 -3.5908 1.4092)">
	</image>
	<g>
		<g>
			<polygon class="st3" points="22.1,56.6 19,59 15.1,61.3 16.1,63.8 18.4,66.8 20.8,69.7 21.4,65.9 22.2,64.2 21.5,63 22.2,62.3 
				22,61 22.3,59.4 22.2,57.7 			"/>
			<polygon class="st4" points="19.4,55.6 18.4,57.6 15.1,61.3 19,59 22.1,56.6 21.5,56.4 20.5,56.4 20,55.5 			"/>
			<polygon class="st5" points="15.1,61.3 21.9,64.7 21.4,65.9 21.3,67.2 21.4,68.6 20.8,69.7 16.1,63.8 			"/>
			<polygon class="st3" points="20.9,68.9 20,70.1 18.7,71.3 19.3,72.2 20.5,73.1 21.6,73.9 21.5,72.4 21.6,71.8 21.3,71.4 21.5,71 
				21.3,70.6 21.3,69.9 21,69.3 			"/>
			<polygon class="st4" points="19.8,68.8 19.6,69.6 18.7,71.3 20,70.1 20.9,68.9 20.7,68.9 20.3,69 20,68.7 			"/>
			<polygon class="st5" points="18.7,71.3 21.6,72 21.5,72.4 21.6,73 21.7,73.5 21.6,73.9 19.3,72.2 			"/>
			<polygon class="st3" points="21.5,67.6 20.9,68.4 20.1,69.1 20.5,69.6 21.2,70.2 21.9,70.7 21.8,69.8 21.9,69.4 21.7,69.1 
				21.8,68.9 21.7,68.6 21.7,68.2 21.5,67.9 			"/>
			<polygon class="st4" points="20.8,67.5 20.7,68.1 20.1,69.1 20.9,68.4 21.5,67.6 21.3,67.6 21.1,67.6 20.9,67.5 			"/>
			<polygon class="st5" points="20.1,69.1 21.9,69.5 21.8,69.8 21.9,70.1 22,70.4 21.9,70.7 20.5,69.6 			"/>
			<polygon class="st3" points="36.9,100.7 37.1,102.6 37.1,104.8 38.4,105 40.2,104.8 42,104.5 40.6,103.3 40.1,102.6 39.4,102.6 
				39.3,102.1 38.7,101.9 38.1,101.3 37.4,101 			"/>
			<polygon class="st4" points="35.8,101.6 36.4,102.5 37.1,104.8 37.1,102.6 36.9,100.7 36.7,101 36.4,101.3 35.9,101.3 			"/>
			<polygon class="st5" points="37.1,104.8 40.2,102.8 40.6,103.3 41.1,103.7 41.7,104 42,104.5 38.4,105 			"/>
			<polygon class="st3" points="41.7,104.3 42,105 42.2,105.8 42.7,105.7 43.3,105.5 44,105.2 43.3,104.9 43.1,104.7 42.8,104.7 
				42.7,104.6 42.5,104.6 42.2,104.4 41.9,104.3 			"/>
			<polygon class="st4" points="41.4,104.7 41.7,105 42.2,105.8 42,105 41.7,104.3 41.7,104.4 41.6,104.6 41.4,104.6 			"/>
			<polygon class="st5" points="42.2,105.8 43.2,104.8 43.3,104.9 43.6,105 43.8,105.1 44,105.2 42.7,105.7 			"/>
			<polygon class="st3" points="41.3,103.7 41.5,104.2 41.6,104.7 41.9,104.6 42.3,104.5 42.7,104.3 42.3,104.1 42.2,104 42,104 
				41.9,103.9 41.8,103.9 41.6,103.8 41.4,103.8 			"/>
			<polygon class="st4" points="41.1,104 41.3,104.2 41.6,104.7 41.5,104.2 41.3,103.7 41.3,103.8 41.2,103.9 41.1,103.9 			"/>
			<polygon class="st5" points="41.6,104.7 42.2,104 42.3,104.1 42.5,104.2 42.6,104.2 42.7,104.3 41.9,104.6 			"/>
			<polygon class="st3" points="105.1,49.2 106.1,47.6 107.4,45.8 106.4,44.9 104.8,44 103.3,43.2 103.7,45 103.7,45.9 104.2,46.3 
				104,46.7 104.4,47.3 104.5,48 104.9,48.8 			"/>
			<polygon class="st4" points="106.5,49.2 106.6,48.1 107.4,45.8 106.1,47.6 105.1,49.2 105.4,49.2 105.9,49 106.3,49.3 			"/>
			<polygon class="st5" points="107.4,45.8 103.7,45.6 103.7,45 103.5,44.4 103.2,43.8 103.3,43.2 106.4,44.9 			"/>
			<polygon class="st3" points="103.3,43.5 103.5,42.8 103.9,42.1 103.4,41.8 102.8,41.6 102.1,41.4 102.4,42.1 102.5,42.4 
				102.7,42.5 102.7,42.7 102.9,42.9 103,43.2 103.2,43.4 			"/>
			<polygon class="st4" points="103.9,43.4 103.8,43 103.9,42.1 103.5,42.8 103.3,43.5 103.5,43.5 103.6,43.4 103.8,43.5 			"/>
			<polygon class="st5" points="103.9,42.1 102.5,42.3 102.4,42.1 102.3,41.9 102.1,41.7 102.1,41.4 103.4,41.8 			"/>
			<polygon class="st3" points="103.3,44.2 103.5,43.8 103.7,43.3 103.4,43.1 103,43 102.6,42.9 102.8,43.3 102.8,43.5 103,43.6 
				103,43.7 103.1,43.8 103.1,44 103.3,44.1 			"/>
			<polygon class="st4" points="103.7,44.1 103.6,43.9 103.7,43.3 103.5,43.8 103.3,44.2 103.4,44.2 103.5,44.1 103.6,44.2 			"/>
			<polygon class="st5" points="103.7,43.3 102.8,43.5 102.8,43.3 102.7,43.2 102.6,43.1 102.6,42.9 103.4,43.1 			"/>
			<polygon class="st3" points="87.8,101.6 91,102.7 94.4,104.5 95.7,102.6 96.8,99.5 97.8,96.5 94.8,97.8 93.2,98 92.7,99 
				91.8,98.9 91,99.7 89.7,100.1 88.5,101 			"/>
			<polygon class="st4" points="88.3,104 90.3,103.8 94.4,104.5 91,102.7 87.8,101.6 88,102.1 88.4,102.9 88,103.6 			"/>
			<polygon class="st5" points="94.4,104.5 93.7,98 94.8,97.8 95.8,97.2 96.7,96.6 97.8,96.5 95.7,102.6 			"/>
			<polygon class="st3" points="97.2,96.7 98.5,96.9 99.9,97.2 100.2,96.4 100.3,95.1 100.4,93.9 99.4,94.7 98.9,94.9 98.8,95.3 
				98.4,95.4 98.2,95.7 97.7,96 97.4,96.5 			"/>
			<polygon class="st4" points="97.6,97.6 98.3,97.3 99.9,97.2 98.5,96.9 97.2,96.7 97.3,96.9 97.5,97.2 97.4,97.5 			"/>
			<polygon class="st5" points="99.9,97.2 99,94.8 99.4,94.7 99.7,94.4 100,94 100.4,93.9 100.2,96.4 			"/>
			<polygon class="st3" points="96,96.9 96.8,97 97.7,97.2 97.9,96.7 97.9,96 98,95.2 97.4,95.7 97,95.8 97,96.1 96.8,96.1 
				96.6,96.3 96.3,96.5 96.1,96.8 			"/>
			<polygon class="st4" points="96.2,97.5 96.7,97.3 97.7,97.2 96.8,97 96,96.9 96.1,97.1 96.2,97.2 96.1,97.4 			"/>
			<polygon class="st5" points="97.7,97.2 97.1,95.8 97.4,95.7 97.6,95.5 97.8,95.3 98,95.2 97.9,96.7 			"/>
			<polygon class="st3" points="85.9,31.5 84.6,26.7 83.8,20.9 80.3,20.9 75.6,22.3 71,23.6 75.3,26.2 76.9,27.9 78.6,27.7 
				79.2,28.9 80.8,29.2 82.5,30.5 84.6,31.1 			"/>
			<polygon class="st4" points="88.5,28.8 86.5,26.7 83.8,20.9 84.6,26.7 85.9,31.5 86.4,30.8 87,29.7 88.3,29.5 			"/>
			<polygon class="st5" points="83.8,20.9 76.4,27.4 75.3,26.2 73.7,25.5 72.1,24.9 71,23.6 80.3,20.9 			"/>
			<polygon class="st3" points="71.9,24.2 70.9,22.5 70.1,20.4 68.8,20.7 67.2,21.7 65.6,22.6 67.4,23.2 68.2,23.7 68.8,23.4 
				69.1,23.8 69.8,23.8 70.5,24.1 71.4,24.1 			"/>
			<polygon class="st4" points="72.6,22.9 71.7,22.3 70.1,20.4 70.9,22.5 71.9,24.2 72,23.9 72.1,23.4 72.6,23.2 			"/>
			<polygon class="st5" points="70.1,20.4 67.9,23.5 67.4,23.2 66.8,23 66.1,22.9 65.6,22.6 68.8,20.7 			"/>
			<polygon class="st3" points="73.2,25.4 72.6,24.4 72.1,23.1 71.3,23.3 70.3,23.9 69.3,24.5 70.4,24.8 70.9,25.1 71.2,25 
				71.5,25.2 71.8,25.2 72.3,25.4 72.8,25.4 			"/>
			<polygon class="st4" points="73.6,24.7 73,24.3 72.1,23.1 72.6,24.4 73.2,25.4 73.2,25.3 73.3,25 73.6,24.9 			"/>
			<polygon class="st5" points="72.1,23.1 70.7,25 70.4,24.8 70,24.7 69.6,24.7 69.3,24.5 71.3,23.3 			"/>
			<polygon class="st5" points="104.7,76 104.9,77.9 103.8,80.2 103.5,84.4 100.6,86.6 99.6,89.9 97.6,90.6 99.2,89.7 100.1,86.6 
				101.5,85.2 103.1,84.3 102.2,83.2 103.1,83.2 103,81.9 103.2,80 104.3,78 			"/>
		</g>
	</g>
</g>
</svg>
