<svg id="Layer_1" data-name="Layer 1" xmlns="http://www.w3.org/2000/svg" viewBox="0 0 633.82 433.51"><defs><style>.cls-1{fill:#636363;}.cls-2{fill:#828282;}.cls-3,.cls-7{fill:#cecece;}.cls-4{fill:#4f4f4f;}.cls-5{fill:#aaa;}.cls-6{fill:#333;}.cls-7{opacity:0.53;}</style></defs><path class="cls-1" d="M119.88,41.68l-28,25.66L68,157.83,79.24,303.42l5.89,81.83,15.78,35.21,30-7.37,73,13.94,192.64,12.7,11.82-1.22,6.18,2.45H535.78l53.42-4.65s49.93-32.68,49.93-42.05-23.65-208.34-23.65-208.34l9.53-132s-58.77-27.26-64.76-25.38S445.17,7.45,440.8,7.45s-267,5-267,5Z" transform="translate(-5.31 -7.45)"/><polygon class="cls-2" points="173.63 15.98 122.89 48.43 107.72 51.92 76.27 140.53 73.93 288.46 82.26 339.42 99.81 349.47 99.81 359.96 93.37 373.44 102.23 397.9 138.18 397.9 197.09 410.89 250.01 413.38 389.9 423.37 389.9 414.88 393.81 410.39 396.3 417.88 401.8 421.37 490.17 423.37 574.05 420.37 621.98 387.42 613.99 318.52 599.01 177.47 607.5 52.92 576.04 36.45 537.6 25.46 435.25 7.49 348.23 7.49 329.46 15.9 173.63 15.98"/><polygon class="cls-3" points="173.63 15.98 168.49 4.99 322.41 2.08 329.46 15.9 173.63 15.98"/><polygon class="cls-4" points="348.23 7.49 346.55 1.63 322.41 2.08 329.46 15.9 348.23 7.49"/><polygon class="cls-5" points="435.25 7.49 436.75 0 550.45 20.97 556.71 21.07 576.04 36.45 537.6 25.46 435.25 7.49"/><polygon class="cls-4" points="607.5 52.92 619.7 46.46 610.16 178.47 599.01 177.47 607.5 52.92"/><polygon class="cls-4" points="403.23 431.4 401.8 421.37 396.3 417.88 393.81 410.39 389.9 414.88 389.9 423.37 390.74 432.25 403.23 431.4"/><polygon class="cls-4" points="198.51 419.57 197.09 410.89 246.19 413.2 322.41 427.74 198.51 419.57"/><polygon class="cls-4" points="633.82 386.81 621.98 387.42 574.05 420.37 583.89 428.86 616.82 409.55 632.46 397.24 633.82 386.81"/><path class="cls-4" d="M363.37,439.37" transform="translate(-5.31 -7.45)"/><path class="cls-1" d="M363.37,439.37" transform="translate(-5.31 -7.45)"/><polygon class="cls-4" points="77.34 373.44 83.79 359.96 83.79 349.47 66.24 339.42 56.31 339.42 57.9 362.12 64.07 378.6 77.34 373.44"/><polygon class="cls-4" points="98.19 304.4 36.38 304.4 0 343.03 9.34 412.57 26.72 422.87 73.72 424.8 113.64 401.94 122.33 383.27 122.33 327.26 98.19 304.4"/><polygon class="cls-2" points="49.16 326.72 42.52 331.23 32.41 336.38 24.3 343.58 19.25 347.73 19.36 354.24 20.09 366.24 23.92 383.5 25.34 399.48 63.54 401.41 98.74 367.28 49.16 326.72"/><polygon class="cls-5" points="98.19 304.4 49.16 326.72 61.66 338.63 85.75 356.65 94.42 365.51 98.74 367.28 122.33 327.26 98.19 304.4"/><polygon class="cls-3" points="36.38 304.4 49.16 326.72 98.19 304.4 36.38 304.4"/><polygon class="cls-1" points="73.72 424.8 63.54 401.41 68.5 393.48 81.32 384.17 90.11 375.65 96.67 368.29 98.74 367.28 122.33 383.27 114.62 401.41 73.72 424.8"/><polygon class="cls-1" points="25.34 399.48 9.22 411.73 24.55 421.58 73.72 424.8 63.54 401.41 25.34 399.48"/><path class="cls-3" d="M79,391.72" transform="translate(-5.31 -7.45)"/><polygon class="cls-6" points="134.26 376.81 105.29 375 85.06 382.27 78.79 393.43 80.93 410.26 85.75 417.92 90.5 415.22 120.59 419.39 142.91 414.92 146.97 407.8 146.97 385.79 134.26 376.81"/><path class="cls-3" d="M125.57,416.89" transform="translate(-5.31 -7.45)"/><polygon class="cls-4" points="137.83 375 105.29 375 86.55 384.16 82.36 391.62 84.5 408.45 91.05 417.49 100.2 421.54 124.95 422.3 145.97 413.32 150.54 405.98 150.54 383.98 137.83 375"/><polygon class="cls-2" points="109.83 379.77 104.01 381 99.15 383.92 94.88 386.75 93.15 393.03 94 396.44 95.35 402.32 94.55 408.19 99.48 412.35 119.59 413.11 138.12 399.7 109.83 379.77"/><polygon class="cls-7" points="137.83 375 109.83 379.77 119.93 387.04 131.28 395.53 135.85 399.01 138.12 399.7 150.54 383.98 137.83 375"/><polygon class="cls-3" points="105.29 375 109.83 379.77 137.83 375 105.29 375"/><polygon class="cls-1" points="124.95 422.3 119.59 413.11 122.2 409.99 128.95 406.33 133.58 402.99 137.03 400.1 138.12 399.7 150.54 405.98 146.48 413.11 124.95 422.3"/><polygon class="cls-4" points="99.48 412.35 90.99 417.16 99.06 421.03 124.95 422.3 119.59 413.11 99.48 412.35"/><polygon class="cls-2" points="128.3 422.11 142.28 402.29 152.87 398.65 164.67 408.21 168.16 422.11 128.3 422.11"/><polygon class="cls-3" points="158.96 400.05 155.28 407.12 144.19 408.21 142.28 402.29 152.87 398.65 158.96 400.05"/><polygon class="cls-1" points="155.28 407.12 155.93 422.11 168.16 422.11 164.67 408.21 158.96 400.05 155.28 407.12"/><polygon class="cls-2" points="137.29 422.3 165.25 414.24 190.59 411 210.03 416.65 217.02 422.3 137.29 422.3"/><polygon class="cls-3" points="198.61 413.33 191.25 416.2 169.07 416.65 165.25 414.24 190.31 411.04 198.61 413.33"/><polygon class="cls-1" points="191.25 416.2 192.56 422.3 217.02 422.3 210.03 416.65 198.61 413.33 191.25 416.2"/><path class="cls-6" d="M155.93,406.88h-.08l-9.06,2s-16.19,20.52-16.08,20.71a14.78,14.78,0,0,0,2.9,0s13.36-18.84,13.53-18.95S155.93,406.88,155.93,406.88Z" transform="translate(-5.31 -7.45)"/></svg>