<?xml version="1.0" encoding="UTF-8" standalone="no"?>
<svg
   id="Layer_1"
   data-name="Layer 1"
   viewBox="0 0 591.86 268.63"
   version="1.1"
   sodipodi:docname="Rock_joingameV2.svg"
   inkscape:version="1.1 (c68e22c387, 2021-05-23)"
   xmlns:inkscape="http://www.inkscape.org/namespaces/inkscape"
   xmlns:sodipodi="http://sodipodi.sourceforge.net/DTD/sodipodi-0.dtd"
   xmlns="http://www.w3.org/2000/svg"
   xmlns:svg="http://www.w3.org/2000/svg">
  <sodipodi:namedview
     id="namedview103"
     pagecolor="#ffffff"
     bordercolor="#666666"
     borderopacity="1.0"
     inkscape:pageshadow="2"
     inkscape:pageopacity="0.0"
     inkscape:pagecheckerboard="0"
     showgrid="false"
     inkscape:zoom="1.7875849"
     inkscape:cx="301.24443"
     inkscape:cy="68.528212"
     inkscape:window-width="1920"
     inkscape:window-height="1017"
     inkscape:window-x="1912"
     inkscape:window-y="-8"
     inkscape:window-maximized="1"
     inkscape:current-layer="Layer_1" />
  <defs
     id="defs4">
    <style
       id="style2">.cls-1{fill:#636363;}.cls-2{fill:#828282;}.cls-3{fill:#cecece;}.cls-4{fill:#4f4f4f;}.cls-5{fill:#1c130c;}.cls-6{fill:#4f403a;}.cls-7{fill:#8e8c8a;}.cls-8{fill:#332824;}.cls-9{fill:#939393;}.cls-10{fill:#301e11;}.cls-11{fill:#302020;}.cls-12{fill:#606060;}.cls-13,.cls-14{fill:none;stroke-miterlimit:10;stroke-width:0.49px;}.cls-13{stroke:#1c130c;}.cls-14{stroke:#8e8c8a;}.cls-15{fill:#565656;}</style>
  </defs>
  <path
     class="cls-1"
     d="M129.9,7.63,119.27,19.17l-3.86,16.58L79.7,65.84,18.88,110.25l-5.34,29.34L0,199.29l4,53.88,10.82,1.58,20.57,16.58,195.09-6.62H345.91S427.69,258,428.64,258s25.45.36,25.45.36l36,14.43,56-24.16,7.23-10.1-15-121.28L521.2,74,512,60.45l-4.45-24L484.31,17.36l-60.12-7.7-38.81,4.82L314.16,5.11Z"
     transform="translate(0 -4.15)"
     id="path6" />
  <path
     class="cls-2"
     d="M180.15,13.71H130.76l-10.48,27L89.85,68.88l-71,41.37L21,136.18l-7.08,35.6L12,232.26l24.89,32.45,198.59-8.93,112.39,1.63,101.43-8.12,44.55,15.42,52.25-25.15-8.47-48.69-3.7-74.94L509.07,67.26l-4.7-26.56-31.28-17S319.21,9.66,318.86,9.66,180.15,13.71,180.15,13.71Z"
     transform="translate(0 -4.15)"
     id="path8" />
  <polygon
     class="cls-3"
     points="93.92 63.19 82.34 59.47 115.41 31.24 120.28 35.6 93.92 63.19"
     id="polygon10" />
  <polygon
     class="cls-3"
     points="320.52 4.97 473.09 17.4 485.6 12.71 424.19 4.97 387.77 9.07 317.39 0 320.52 4.97"
     id="polygon12" />
  <polygon
     class="cls-4"
     points="36.89 260.56 35.38 267.18 15.81 251.41 7.79 229.79 12 228.11 36.89 260.56"
     id="polygon14" />
  <polygon
     class="cls-4"
     points="19.55 106.54 21.62 129.41 14.8 159.64 0.67 183.88 10.07 149.05 19.55 106.54"
     id="polygon16" />
  <polygon
     class="cls-4"
     points="449.3 245.14 347.87 253.25 352.81 260.56 452.67 254.18 449.3 245.14"
     id="polygon18" />
  <polygon
     class="cls-4"
     points="342.44 268.63 357.39 228.11 373.04 238.92 387.93 233.15 408.17 264.88 342.44 268.63"
     id="polygon20" />
  <polygon
     class="cls-3"
     points="374.74 223.1 358.01 228.53 373.04 238.92 387.93 233.15 374.74 223.1"
     id="polygon22" />
  <polyline
     class="cls-2"
     points="373.04 238.92 374.74 251.9 371.7 252.85 371.7 255.15 377.59 267.18 342.44 268.63 357.39 228.11"
     id="polyline24" />
  <polygon
     class="cls-4"
     points="384.39 267.49 399.1 244.82 414.49 250.87 429.13 247.64 449.04 265.39 384.39 267.49"
     id="polygon26" />
  <polygon
     class="cls-3"
     points="416.16 242.02 399.7 245.06 414.49 250.87 429.13 247.64 416.16 242.02"
     id="polygon28" />
  <polygon
     class="cls-2"
     points="414.49 250.87 433.01 265.91 384.39 267.49 399.1 244.82 414.49 250.87"
     id="polygon30" />
  <path
     class="cls-5"
     d="M513.4,88.85l5.88,5.82a1.46,1.46,0,0,0,.19.13,2.56,2.56,0,0,0,.6.33c3.75,1.84,19.06,7.78,20.11,7.92.79.1,1.58.18,2.37.22a111.28,111.28,0,0,0,11.26-.12,2.12,2.12,0,0,0,2.22-2.07c.42-3.32.85-6.65,1.27-10,0-.18.05-.31.26-.38a33.06,33.06,0,0,0,4.8-2,.41.41,0,0,1,.48,0L571.35,95a2.07,2.07,0,0,0,3-.17l9.09-9.19a2,2,0,0,0,.3-2.73,93.68,93.68,0,0,0-6.34-8.59.55.55,0,0,1-.09-.7,28.31,28.31,0,0,0,1.82-4.54.69.69,0,0,1,.68-.55c3.18-.37,6.34-.76,9.51-1.15a2.2,2.2,0,0,0,2.19-2,7.27,7.27,0,0,0,.17-1A66.19,66.19,0,0,0,591.37,51a1.93,1.93,0,0,0-.56-1.16c-1.27-3.58-5.25-13.35-7.18-17.43a2.28,2.28,0,0,0-.75-1.58l-.21-.21h0l-3.23-3.21-5.88-5.82a1.46,1.46,0,0,0-.19-.13,2.5,2.5,0,0,0-.6-.32c-3.75-1.85-19.06-7.79-20.11-7.92-.79-.11-1.58-.19-2.37-.23a111.28,111.28,0,0,0-11.26.12,2.13,2.13,0,0,0-2.22,2.07c-.42,3.33-.85,6.65-1.27,10,0,.18,0,.31-.27.38a34.59,34.59,0,0,0-4.79,2,.39.39,0,0,1-.48,0c-2.83-2.08-5.68-4.15-8.52-6.23a2.06,2.06,0,0,0-3,.18l-9.09,9.18a2,2,0,0,0-.3,2.74,96.49,96.49,0,0,0,6.34,8.59.54.54,0,0,1,.09.69,28.35,28.35,0,0,0-1.83,4.54.66.66,0,0,1-.68.55c-3.17.37-6.34.76-9.5,1.15a2.22,2.22,0,0,0-2.2,2,7.48,7.48,0,0,0-.16,1,66.3,66.3,0,0,0,.27,13.36,1.9,1.9,0,0,0,.56,1.16c1.27,3.57,5.25,13.34,7.18,17.43a2.3,2.3,0,0,0,.75,1.58l.21.2h0C511.24,86.72,512.32,87.78,513.4,88.85Zm22.35-41.37a15.06,15.06,0,0,1,21.33,21.27,15.06,15.06,0,0,1-21.33-21.27Z"
     transform="translate(0 -4.15)"
     id="path32" />
  <polygon
     class="cls-6"
     points="470.78 129.96 499.87 31.87 568.96 100.02 470.78 129.96"
     id="polygon34" />
  <polygon
     class="cls-7"
     points="493.16 124.63 478.01 102.04 473.65 116.81 481.32 128.25 493.16 124.63"
     id="polygon36" />
  <polygon
     class="cls-7"
     points="511.94 118.88 484.93 78.61 480.57 93.38 500.1 122.5 511.94 118.88"
     id="polygon38" />
  <polygon
     class="cls-7"
     points="532.18 112.68 492.39 53.35 488.03 68.12 520.35 116.3 532.18 112.68"
     id="polygon40"
     style="fill:#b3b3b3" />
  <polygon
     class="cls-7"
     points="552.43 106.48 503.47 33.48 499.44 29.49 495.49 42.85 540.59 110.11 552.43 106.48"
     id="polygon42"
     style="fill:#b3b3b3" />
  <polygon
     class="cls-7"
     points="571.35 100.69 533.65 63.35 560.84 103.91 571.35 100.69"
     id="polygon44"
     style="fill:#b3b3b3" />
  <polyline
     class="cls-7"
     points="470.82 126.38 469.17 131.97 473.65 130.6"
     id="polyline46" />
  <polygon
     class="cls-8"
     points="533.45 110.85 531.38 111.48 493.16 54.49 494.07 51.42 533.45 110.85"
     id="polygon48" />
  <polygon
     class="cls-8"
     points="553.75 104.59 551.68 105.23 512.16 46.3 514.37 45.17 553.75 104.59"
     id="polygon50" />
  <polyline
     class="cls-9"
     points="526.91 73.29 525.12 70.06 526.09 73.17 526.2 75.93 525.83 79.11 527.02 76.24"
     id="polyline52" />
  <polygon
     class="cls-8"
     points="493.64 122.98 492.32 123.39 478.74 103.13 479.15 101.76 493.64 122.98"
     id="polygon54" />
  <polygon
     class="cls-8"
     points="473.95 129.04 472.8 129.34 471.53 127.43 471.82 126.47 473.95 129.04"
     id="polygon56" />
  <polygon
     class="cls-8"
     points="513.39 116.96 511.12 117.66 485.68 79.73 486.47 77.05 513.39 116.96"
     id="polygon58" />
  <path
     class="cls-10"
     d="M529.33,95.73c4.55-3.39,9.12-6.74,13.67-10.12a.72.72,0,0,1,.9,0,47.48,47.48,0,0,0,7.82,3.22,2,2,0,0,1,1.61,1.92c.64,5,1.37,10,2.08,15.06a3.84,3.84,0,0,0,1.13,2.41,3.22,3.22,0,0,0,2,1c.7.08,1.4.2,2.1.26a138.33,138.33,0,0,0,15.64.26c1.75,0,3.5-.09,5.25-.19a3.52,3.52,0,0,0,3.59-3.38c.59-4.6,1.2-9.2,1.79-13.79L511.87,18l-13.46,1.64A3.66,3.66,0,0,0,494.77,23a12.55,12.55,0,0,0-.27,1.72A108.82,108.82,0,0,0,495,46.86a3.24,3.24,0,0,0,2.44,2.82,6.83,6.83,0,0,0,1.29.23c5.35.56,10.71,1.12,16,2,.34,0,.62.07.76.51a56.63,56.63,0,0,0,3.33,8.11.75.75,0,0,1-.09.91c-.62.8-1.21,1.63-1.8,2.46-2.74,3.76-5.45,7.53-8.21,11.28a3.66,3.66,0,0,0,.34,5.17l15.19,15A3.57,3.57,0,0,0,529.33,95.73Z"
     transform="translate(0 -4.15)"
     id="path60" />
  <path
     class="cls-11"
     d="M530.61,94.44c4.54-3.38,9.11-6.73,13.66-10.11a.71.71,0,0,1,.9-.06A47.27,47.27,0,0,0,553,87.5a2,2,0,0,1,1.61,1.91c.64,5,1.37,10,2.07,15.07a3.86,3.86,0,0,0,1.13,2.4,3.23,3.23,0,0,0,2,1c.71.07,1.41.19,2.11.26a138.18,138.18,0,0,0,15.63.25c1.75,0,3.51-.09,5.26-.18a3.55,3.55,0,0,0,3.59-3.39q.88-6.9,1.79-13.79L513.14,16.73q-6.72.8-13.45,1.63a3.65,3.65,0,0,0-3.64,3.32,11.34,11.34,0,0,0-.28,1.73,110.27,110.27,0,0,0,.45,22.17,3.25,3.25,0,0,0,2.44,2.82,7,7,0,0,0,1.29.22c5.36.57,10.71,1.13,16,2,.34.06.63.07.76.51a56.63,56.63,0,0,0,3.33,8.11.75.75,0,0,1-.08.91c-.63.8-1.21,1.64-1.81,2.46-2.73,3.76-5.45,7.54-8.2,11.28a3.64,3.64,0,0,0,.34,5.17l15.19,15A3.56,3.56,0,0,0,530.61,94.44Z"
     transform="translate(0 -4.15)"
     id="path62" />
  <path
     class="cls-9"
     d="M526.91,77.44"
     transform="translate(0 -4.15)"
     id="path64" />
  <path
     class="cls-9"
     d="M527,80.4"
     transform="translate(0 -4.15)"
     id="path66" />
  <circle
     class="cls-12"
     cx="571.75"
     cy="95.47"
     r="6.07"
     id="circle68" />
  <polygon
     class="cls-9"
     points="571.74 99.84 572.93 96.98 572.82 94.03 571.02 90.8 571.99 93.9 572.1 96.66 571.74 99.84"
     id="polygon70" />
  <circle
     class="cls-12"
     cx="525.81"
     cy="75.54"
     r="6.07"
     id="circle72" />
  <polygon
     class="cls-9"
     points="525.8 79.9 527 77.04 526.89 74.09 525.09 70.86 526.06 73.97 526.17 76.73 525.8 79.9"
     id="polygon74" />
  <circle
     class="cls-12"
     cx="505.2"
     cy="28.48"
     r="6.07"
     id="circle76" />
  <polygon
     class="cls-9"
     points="505.19 32.85 506.39 29.99 506.28 27.04 504.48 23.81 505.45 26.91 505.56 29.68 505.19 32.85"
     id="polygon78" />
  <polyline
     class="cls-13"
     points="570.48 84.57 556.45 70.68 545.53 70.74 530.39 55.75 530.34 44.71 516.39 30.91"
     id="polyline80" />
  <circle
     class="cls-5"
     cx="570.67"
     cy="84.82"
     r="1.03"
     id="circle82" />
  <circle
     class="cls-5"
     cx="516.12"
     cy="30.64"
     r="1.03"
     id="circle84" />
  <polyline
     class="cls-14"
     points="570.51 63.05 567.09 36.22 579.7 23.49"
     id="polyline86" />
  <polyline
     class="cls-14"
     points="576.38 20.2 563.67 33.04 537.18 27.77"
     id="polyline88" />
  <polygon
     class="cls-15"
     points="467.58 76.9 484.58 70.45 491.75 80.66 496.58 85.22 498.5 90.77 502.93 92.21 507.44 98.93 512.44 101.8 510.47 107.98 521.04 107.98 521.04 115.08 533.35 113.71 533.35 116.29 536.08 121.26 520.31 135.58 491.75 138.59 485.51 145.94 463.59 141.18 455.44 112.84 467.58 76.9"
     id="polygon90" />
  <polygon
     class="cls-2"
     points="464.75 76.75 484.58 70.45 489.96 80.67 494.99 85.42 496.99 91.21 501.62 92.72 506.32 99.72 508.54 101 511.54 102.72 509.48 109.17 520.5 109.17 520.5 116.57 533.34 115.14 533.34 117.83 536.08 121.26 519.75 137.95 489.96 141.08 483.45 148.75 460.58 143.79 452.08 114.23 464.75 76.75"
     id="polygon92" />
  <polygon
     class="cls-15"
     points="481.4 71.18 467.55 68.53 461.39 76.13 440.6 73.94 461.71 78.05 468.45 69.9 481.4 71.18"
     id="polygon94" />
  <path
     class="cls-2"
     d="M503,106.61"
     transform="translate(0 -4.15)"
     id="path96" />
  <path
     class="cls-4"
     d="M512.44,106l-.9.92-8.88,2.94.65,3.94-17.63,11.74s-6.9,24.34-6.94,24.83,10.51-21,10.51-21l17-9.14,14.22-6.87.28-1.18-9.63-.28Z"
     transform="translate(0 -4.15)"
     id="path98" />
  <polygon
     class="cls-3"
     points="520.5 109.17 520.24 111.48 489.73 125.65 478.74 146.17 489.25 125.18 520.5 109.17"
     id="polygon100" />
</svg>
