<svg id="Layer_1" data-name="Layer 1" xmlns="http://www.w3.org/2000/svg" xmlns:xlink="http://www.w3.org/1999/xlink" viewBox="0 0 677.57 482.25"><defs><style>.cls-1,.cls-10,.cls-23,.cls-25,.cls-33,.cls-34,.cls-35{fill:none;}.cls-2,.cls-8{fill:#cecece;}.cls-3{fill:#4f4f4f;}.cls-4{fill:#aaa;}.cls-5{fill:#636363;}.cls-6{fill:#828282;}.cls-7{fill:#333;}.cls-20,.cls-30,.cls-37,.cls-8{isolation:isolate;}.cls-8{opacity:0.53;}.cls-13,.cls-9{fill:#705e51;}.cls-11,.cls-13,.cls-20,.cls-9{stroke:#5b5b5b;}.cls-10,.cls-11,.cls-13,.cls-20,.cls-23,.cls-25,.cls-33,.cls-9{stroke-miterlimit:10;}.cls-9{stroke-width:1.1px;}.cls-10,.cls-33,.cls-34,.cls-35{stroke:#999;}.cls-10{stroke-width:0.55px;}.cls-11,.cls-24{fill:#727272;}.cls-11{stroke-width:1.34px;}.cls-12{fill:#4f403a;}.cls-13{stroke-width:0.99px;}.cls-14{fill:#54463c;}.cls-15{fill:#afafaf;}.cls-16{fill:#b79f2a;}.cls-17{fill:#8c811e;}.cls-18{fill:#fce249;}.cls-19{fill:#706051;}.cls-20{fill:#f2eeeb;stroke-width:1.2px;opacity:0.21;}.cls-21{fill:#606060;}.cls-22{fill:#939393;}.cls-23{stroke:#1e281b;stroke-width:4px;}.cls-25{stroke:#54463c;}.cls-26{fill:#6b3f34;}.cls-27{fill:#603e26;}.cls-28{fill:#663c2b;}.cls-29{fill:#f4d8ab;}.cls-31{fill:#ffdc48;}.cls-32{fill:#3a2607;}.cls-33{stroke-width:0.62px;}.cls-34{stroke-miterlimit:10;stroke-width:0.62px;}.cls-35{stroke-miterlimit:10;stroke-width:0.62px;}.cls-36{fill:#775742;}.cls-37{fill:#33302d;}.cls-37,.cls-38{opacity:0.46;}.cls-39{clip-path:url(#clip-path);}.cls-40{fill:#fff;}</style><clipPath id="clip-path" transform="translate(-2.1 -1.65)"><rect class="cls-1" x="476.1" y="431.8" width="157.1" height="13.5" rx="4.9"/></clipPath></defs><polygon class="cls-2" points="200.7 39.55 195.6 28.55 349.5 25.65 356.5 39.45 200.7 39.55"/><polygon class="cls-3" points="375.3 31.05 373.6 25.25 349.5 25.65 356.5 39.45 375.3 31.05"/><polygon class="cls-4" points="462.3 31.05 463.8 23.55 577.5 44.55 583.8 44.65 603.1 60.05 564.7 49.05 462.3 31.05"/><polygon class="cls-3" points="634.6 76.55 646.8 70.05 637.2 202.05 626.1 201.05 634.6 76.55"/><polygon class="cls-3" points="430.3 454.95 428.9 444.95 423.4 441.45 420.9 433.95 417 438.45 417 446.95 417.8 455.85 430.3 454.95"/><polygon class="cls-3" points="225.6 443.15 224.2 434.45 273.3 436.75 349.5 451.35 225.6 443.15"/><polygon class="cls-3" points="660.9 410.45 649 411.05 601.1 443.95 611 452.45 643.9 433.15 659.5 420.85 660.9 410.45"/><path class="cls-3" d="M387.2,457.2" transform="translate(-2.1 -1.65)"/><path class="cls-5" d="M387.2,457.2" transform="translate(-2.1 -1.65)"/><polygon class="cls-3" points="104.4 397.05 110.9 383.55 110.9 373.05 93.3 363.05 83.4 363.05 85 385.75 91.1 402.15 104.4 397.05"/><polygon class="cls-3" points="125.3 327.95 63.4 327.95 27.1 366.65 36.4 436.15 53.8 446.45 100.8 448.35 140.7 425.55 149.4 406.85 149.4 350.85 125.3 327.95"/><polygon class="cls-6" points="76.2 350.35 69.6 354.85 59.5 359.95 51.4 367.15 46.3 371.35 46.4 377.85 47.2 389.85 51 407.05 52.4 423.05 90.6 425.05 125.8 390.85 76.2 350.35"/><polygon class="cls-4" points="125.3 327.95 76.2 350.35 88.7 362.25 112.8 380.25 121.5 389.15 125.8 390.85 149.4 350.85 125.3 327.95"/><polygon class="cls-2" points="63.4 327.95 76.2 350.35 125.3 327.95 63.4 327.95"/><polygon class="cls-5" points="100.8 448.35 90.6 425.05 95.6 417.05 108.4 407.75 117.2 399.25 123.7 391.85 125.8 390.85 149.4 406.85 141.7 425.05 100.8 448.35"/><polygon class="cls-5" points="52.4 423.05 36.3 435.35 51.6 445.15 100.8 448.35 90.6 425.05 52.4 423.05"/><path class="cls-2" d="M102.9,409.5" transform="translate(-2.1 -1.65)"/><polygon class="cls-7" points="161.3 400.45 132.4 398.55 112.1 405.85 105.9 417.05 108 433.85 112.8 441.55 117.6 438.85 147.7 442.95 170 438.55 174 431.35 174 409.35 161.3 400.45"/><path class="cls-2" d="M149.4,434.7" transform="translate(-2.1 -1.65)"/><polygon class="cls-3" points="164.9 398.55 132.4 398.55 113.6 407.75 109.4 415.25 111.6 432.05 118.1 441.05 127.3 445.15 152 445.85 173 436.95 177.6 429.55 177.6 407.55 164.9 398.55"/><polygon class="cls-6" points="136.9 403.35 131.1 404.55 126.2 407.55 121.9 410.35 120.2 416.65 121.1 420.05 122.4 425.95 121.6 431.75 126.5 435.95 146.7 436.75 165.2 423.25 136.9 403.35"/><polygon class="cls-8" points="164.9 398.55 136.9 403.35 147 410.65 158.3 419.15 162.9 422.65 165.2 423.25 177.6 407.55 164.9 398.55"/><polygon class="cls-2" points="132.4 398.55 136.9 403.35 164.9 398.55 132.4 398.55"/><polygon class="cls-5" points="152 445.85 146.7 436.75 149.3 433.55 156 429.95 160.6 426.55 164.1 423.65 165.2 423.25 177.6 429.55 173.5 436.75 152 445.85"/><polygon class="cls-3" points="126.5 435.95 118.1 440.75 126.1 444.65 152 445.85 146.7 436.75 126.5 435.95"/><polygon class="cls-6" points="155.4 445.75 169.3 425.85 179.9 422.25 191.7 431.85 195.2 445.75 155.4 445.75"/><polygon class="cls-2" points="186 423.65 182.3 430.75 171.3 431.85 169.3 425.85 179.9 422.25 186 423.65"/><polygon class="cls-5" points="182.3 430.75 183 445.75 195.2 445.75 191.7 431.85 186 423.65 182.3 430.75"/><polygon class="cls-6" points="164.4 445.85 192.3 437.85 217.7 434.55 237.1 440.25 244.1 445.85 164.4 445.85"/><polygon class="cls-2" points="225.7 436.95 218.3 439.75 196.1 440.25 192.3 437.85 217.4 434.65 225.7 436.95"/><polygon class="cls-5" points="218.3 439.75 219.6 445.85 244.1 445.85 237.1 440.25 225.7 436.95 218.3 439.75"/><path class="cls-7" d="M179.8,424.7h0l-9.1,2s-16.2,20.5-16.1,20.7a14.05,14.05,0,0,0,2.9,0s13.4-18.8,13.5-19S179.8,424.7,179.8,424.7Z" transform="translate(-2.1 -1.65)"/><path class="cls-5" d="M116.6,58.5l-28,25.7-24,90.5L76,320.2,81.9,402l15.8,35.2,30-7.4,73,13.9,192.6,12.7,11.8-1.2,6.2,2.4H532.6L586,453s49.9-32.7,49.9-42.1-23.7-208.3-23.7-208.3l9.5-132s-58.8-27.3-64.8-25.4S441.8,24.1,437.5,24.1s-267,5-267,5Z" transform="translate(-2.1 -1.65)"/><polygon class="cls-6" points="173.6 38.55 122.9 71.05 107.7 74.55 76.2 163.15 73.9 311.05 82.2 362.05 99.8 372.05 99.8 382.55 93.3 396.05 102.2 420.45 138.2 420.45 197.1 433.45 250 435.95 389.9 445.95 389.9 437.45 393.8 432.95 396.3 440.45 401.8 443.95 490.1 445.95 574 442.95 622 410.05 614 341.15 599 200.05 607.5 75.55 576 59.05 537.6 48.05 435.2 30.05 348.2 30.05 329.4 38.45 173.6 38.55"/><polygon class="cls-2" points="173.6 38.55 168.5 27.55 322.4 24.65 329.4 38.45 173.6 38.55"/><polygon class="cls-3" points="348.2 30.05 346.5 24.25 322.4 24.65 329.4 38.45 348.2 30.05"/><polygon class="cls-4" points="435.2 30.05 436.7 22.55 550.4 43.55 556.7 43.65 576 59.05 537.6 48.05 435.2 30.05"/><polygon class="cls-3" points="607.5 75.55 619.7 69.05 610.1 201.05 599 200.05 607.5 75.55"/><polygon class="cls-3" points="403.2 453.95 401.8 443.95 396.3 440.45 393.8 432.95 389.9 437.45 389.9 445.95 390.7 454.85 403.2 453.95"/><polygon class="cls-3" points="198.5 442.15 197.1 433.45 246.2 435.75 322.4 450.35 198.5 442.15"/><polygon class="cls-3" points="633.8 409.35 622 410.05 574 442.95 583.9 451.45 616.8 432.15 632.4 419.85 633.8 409.35"/><path class="cls-3" d="M360.1,456.2" transform="translate(-2.1 -1.65)"/><path class="cls-5" d="M360.1,456.2" transform="translate(-2.1 -1.65)"/><polygon class="cls-3" points="77.3 396.05 83.8 382.55 83.8 372.05 66.2 362.05 56.3 362.05 57.9 384.75 64 401.15 77.3 396.05"/><polygon class="cls-3" points="98.2 326.95 36.4 326.95 0 365.65 9.3 435.15 26.7 445.45 73.7 447.35 113.6 424.55 122.3 405.85 122.3 349.85 98.2 326.95"/><polygon class="cls-6" points="49.1 349.35 42.5 353.85 32.4 358.95 24.3 366.15 19.2 370.35 19.3 376.85 20.1 388.85 23.9 406.05 25.3 422.05 63.5 423.95 98.7 389.85 49.1 349.35"/><polygon class="cls-4" points="98.2 326.95 49.1 349.35 61.6 361.25 85.7 379.25 94.4 388.05 98.7 389.85 122.3 349.85 98.2 326.95"/><polygon class="cls-2" points="36.4 326.95 49.1 349.35 98.2 326.95 36.4 326.95"/><polygon class="cls-5" points="73.7 447.35 63.5 423.95 68.5 416.05 81.3 406.75 90.1 398.25 96.6 390.85 98.7 389.85 122.3 405.85 114.6 423.95 73.7 447.35"/><polygon class="cls-5" points="25.3 422.05 9.2 434.35 24.5 444.15 73.7 447.35 63.5 423.95 25.3 422.05"/><path class="cls-2" d="M75.8,408.5" transform="translate(-2.1 -1.65)"/><polygon class="cls-7" points="134.2 399.45 105.3 397.55 85 404.85 78.8 416.05 80.9 432.85 85.7 440.55 90.5 437.85 120.6 441.95 142.9 437.55 147 430.35 147 408.35 134.2 399.45"/><path class="cls-2" d="M122.3,433.7" transform="translate(-2.1 -1.65)"/><polygon class="cls-3" points="137.8 397.55 105.3 397.55 86.5 406.75 82.3 414.25 84.5 431.05 91 440.05 100.2 444.15 124.9 444.85 145.9 435.95 150.5 428.55 150.5 406.55 137.8 397.55"/><polygon class="cls-6" points="109.8 402.35 104 403.55 99.1 406.55 94.9 409.35 93.1 415.65 94 419.05 95.3 424.95 94.5 430.75 99.5 434.95 119.6 435.65 138.1 422.25 109.8 402.35"/><polygon class="cls-8" points="137.8 397.55 109.8 402.35 119.9 409.65 131.3 418.15 135.8 421.55 138.1 422.25 150.5 406.55 137.8 397.55"/><polygon class="cls-2" points="105.3 397.55 109.8 402.35 137.8 397.55 105.3 397.55"/><polygon class="cls-5" points="124.9 444.85 119.6 435.65 122.2 432.55 128.9 428.95 133.6 425.55 137 422.65 138.1 422.25 150.5 428.55 146.5 435.65 124.9 444.85"/><polygon class="cls-3" points="99.5 434.95 91 439.75 99 443.65 124.9 444.85 119.6 435.65 99.5 434.95"/><polygon class="cls-6" points="128.3 444.65 142.3 424.85 152.9 421.25 164.6 430.85 168.1 444.65 128.3 444.65"/><polygon class="cls-2" points="158.9 422.65 155.3 429.75 144.2 430.85 142.3 424.85 152.9 421.25 158.9 422.65"/><polygon class="cls-5" points="155.3 429.75 155.9 444.65 168.1 444.65 164.6 430.85 158.9 422.65 155.3 429.75"/><polygon class="cls-6" points="137.3 444.85 165.2 436.85 190.6 433.55 210 439.25 217 444.85 137.3 444.85"/><polygon class="cls-2" points="198.6 435.95 191.2 438.75 169.1 439.25 165.2 436.85 190.3 433.65 198.6 435.95"/><polygon class="cls-5" points="191.2 438.75 192.5 444.85 217 444.85 210 439.25 198.6 435.95 191.2 438.75"/><path class="cls-7" d="M152.7,423.7h0l-9.1,2s-16.2,20.5-16.1,20.7a14,14,0,0,0,2.9,0s13.4-18.8,13.5-19S152.7,423.7,152.7,423.7Z" transform="translate(-2.1 -1.65)"/><rect class="cls-9" x="523.1" y="0.55" width="75.5" height="22.2"/><path class="cls-10" d="M482.6,33.9h-.7a1.32,1.32,0,0,1-1.3-1.3V30a1.32,1.32,0,0,1,1.3-1.3h.7a1.32,1.32,0,0,1,1.3,1.3v2.6A1.26,1.26,0,0,1,482.6,33.9Z" transform="translate(-2.1 -1.65)"/><rect class="cls-10" x="480" y="31.85" width="0.4" height="3.4"/><path class="cls-10" d="M482.6,41.7h-.7a1.32,1.32,0,0,1-1.3-1.3V37.8a1.32,1.32,0,0,1,1.3-1.3h.7a1.32,1.32,0,0,1,1.3,1.3v2.6A1.26,1.26,0,0,1,482.6,41.7Z" transform="translate(-2.1 -1.65)"/><rect class="cls-10" x="480" y="39.65" width="0.4" height="3.4"/><path class="cls-10" d="M482.6,49.5h-.7a1.32,1.32,0,0,1-1.3-1.3V45.6a1.32,1.32,0,0,1,1.3-1.3h.7a1.32,1.32,0,0,1,1.3,1.3v2.6A1.26,1.26,0,0,1,482.6,49.5Z" transform="translate(-2.1 -1.65)"/><rect class="cls-10" x="480" y="47.45" width="0.4" height="3.4"/><rect class="cls-11" x="467.8" y="3.75" width="55.3" height="7.8"/><path class="cls-12" d="M621.8,203.7V385.1H647V203.7Zm12.6,177.4a7.9,7.9,0,1,1,7.9-7.9A7.85,7.85,0,0,1,634.4,381.1Zm0-26.3a7.9,7.9,0,1,1,7.9-7.9A7.85,7.85,0,0,1,634.4,354.8Zm0-26.3a7.9,7.9,0,1,1,7.9-7.9A7.85,7.85,0,0,1,634.4,328.5Zm0-26.3a7.9,7.9,0,1,1,7.9-7.9A7.85,7.85,0,0,1,634.4,302.2Zm0-26.3a7.9,7.9,0,1,1,7.9-7.9A7.85,7.85,0,0,1,634.4,275.9Zm0-26.3a7.9,7.9,0,1,1,7.9-7.9A7.85,7.85,0,0,1,634.4,249.6Zm0-26.3a7.9,7.9,0,1,1,7.9-7.9A7.85,7.85,0,0,1,634.4,223.3Z" transform="translate(-2.1 -1.65)"/><polygon class="cls-13" points="511.9 18.25 511.9 62.15 527.9 78.15 536.6 82.25 544.9 86.15 545.6 94.75 550.3 95.05 559 109.25 586.1 136.35 603.1 153.35 603.1 204.45 653.4 204.45 653.4 89.85 633 54.95 633 16.95 511.9 18.25"/><path class="cls-13" d="M616,383.2c2-1.3,44.8,0,44.8,0v72.4H580.3Z" transform="translate(-2.1 -1.65)"/><rect class="cls-14" x="538.3" y="28.35" width="67.8" height="1.4"/><rect class="cls-14" x="538.3" y="48.35" width="67.8" height="1.6"/><rect class="cls-14" x="538.3" y="29.35" width="1.8" height="19.7"/><rect class="cls-14" x="604.4" y="29.05" width="1.8" height="20.1"/><rect class="cls-15" x="542.6" y="30.65" width="59.2" height="1.2"/><rect class="cls-15" x="542.6" y="33.25" width="59.2" height="1.2"/><rect class="cls-15" x="542.6" y="35.85" width="59.2" height="1.2"/><rect class="cls-15" x="542.6" y="38.45" width="59.2" height="1.2"/><rect class="cls-15" x="542.6" y="41.05" width="59.2" height="1.2"/><rect class="cls-15" x="542.6" y="43.55" width="59.2" height="1.2"/><rect class="cls-15" x="542.6" y="46.15" width="59.2" height="1.2"/><rect class="cls-14" x="612.5" y="93.45" width="4.8" height="4.8"/><rect class="cls-14" x="612.5" y="100.35" width="4.8" height="4.8"/><rect class="cls-14" x="612.5" y="107.55" width="4.8" height="4.8"/><rect class="cls-14" x="612.5" y="114.75" width="4.8" height="4.8"/><path class="cls-12" d="M626.2,460.1H482.6a21.47,21.47,0,0,1-21.5-21.5h0a21.47,21.47,0,0,1,21.5-21.5H626.2a21.47,21.47,0,0,1,21.5,21.5h0A21.53,21.53,0,0,1,626.2,460.1Z" transform="translate(-2.1 -1.65)"/><path class="cls-16" d="M594.5,429.9l.8,3.4v5.2l.4,4.6-.3,5.3H474.6a10.45,10.45,0,0,1-2.5,0c0-.2-1.4-5.6-1.4-5.9s.9-10.1.9-10.2,2-4.4,2-4.4l52.6,1.9,68.3-.3" transform="translate(-2.1 -1.65)"/><path class="cls-17" d="M594.5,429.9l.8,3.4v5.2l.4,4.6-.3,5.3H474.6a10.45,10.45,0,0,1-2.5,0c0-.2-1.4-5.6-1.4-5.9s.9-10.1.9-10.2,2-4.4,2-4.4l52.6,1.9,68.3-.3" transform="translate(-2.1 -1.65)"/><path class="cls-18" d="M553,439.1a8.21,8.21,0,0,1-4.7-2.1c-1.9-1.9-3.7-2.1-5.1-.4s1.7,3.9-2,5.2-16.9-14.4-21.8-9.9-4.6,9.7-7.5,10-2.1,4.9-.4,4.4,4.5-3.8,6.3-2.8,5.9,4.9,6.9-.4-.5-7.8,2.4-5.3,5.9-1.1,7.8,3.2,3.8,7.5,5.9,3.9,1.2-3.9,2.3-3.6,4.6-3,5.9-1.3S553.7,443.8,553,439.1Z" transform="translate(-2.1 -1.65)"/><path class="cls-18" d="M578.8,442.8s0-4.6-1.3-6.1-2.5-3-5-1.4-2.1,1.4-3.4.4-3.4-1-3.5,0-1.4.9,1.1,3,1.1,1.8,2.9,4.1S575,447.8,578.8,442.8Z" transform="translate(-2.1 -1.65)"/><path class="cls-18" d="M488.6,442.8c2.2,1.2,2.9-7.8.7-9.2a1.8,1.8,0,0,0-1.6-.2c-2.3.8-4.6,6.3-5.6,5.5s-3.4-1.1-3.3,1.7a14.67,14.67,0,0,0,.5,3.9c.3,1.7,4.9,1.1,5.2-.8s3-2.7,3.3-1.7A2.94,2.94,0,0,0,488.6,442.8Z" transform="translate(-2.1 -1.65)"/><path class="cls-18" d="M494.4,437.6s-1.2-.2-1.3.9-.8,6.7.6,5.5S494.8,440.6,494.4,437.6Z" transform="translate(-2.1 -1.65)"/><path class="cls-3" d="M629.7,455.7H479.3c-5.1,0-13.2-6.4-13.2-14.3V436c0-7.9,8-14.3,13.2-14.3H629.7c5.1,0,13,6.4,13,14.3v5.4C642.7,449.3,634.8,455.7,629.7,455.7Zm-150.4-27c-2.6,0-4.7,3.2-4.7,7.2v5.4c0,4,2.1,7.2,4.7,7.2H629.7c2.6,0,4.7-3.2,4.7-7.2V436c0-4-2.1-7.2-4.7-7.2H479.3Z" transform="translate(-2.1 -1.65)"/><path class="cls-19" d="M628.8,449.1H480.4c-3.9,0-7.1-4.9-7.1-10.9s3.2-10.9,7.1-10.9H628.8c3.9,0,7.1,4.9,7.1,10.9S632.7,449.1,628.8,449.1ZM480.4,431.6c-2.4,0-4.3,3-4.3,6.7s2,6.7,4.3,6.7H628.8c2.4,0,4.3-3,4.3-6.7s-2-6.7-4.3-6.7Z" transform="translate(-2.1 -1.65)"/><path class="cls-1" d="M613.9,455.7H462.4c-5.1,0-9.3-6.4-9.3-14.3V436c0-7.9,4.2-14.3,9.3-14.3H613.9c5.1,0,9.3,6.4,9.3,14.3v5.4C623.2,449.3,619,455.7,613.9,455.7Zm-151.5-27c-2.6,0-4.7,3.2-4.7,7.2v5.4c0,4,2.1,7.2,4.7,7.2H613.9c2.6,0,4.7-3.2,4.7-7.2V436c0-4-2.1-7.2-4.7-7.2H462.4Z" transform="translate(-2.1 -1.65)"/><path class="cls-20" d="M481,445.3H628.3a4.91,4.91,0,0,0,4.9-4.9v-3.7a4.91,4.91,0,0,0-4.9-4.9H481a4.91,4.91,0,0,0-4.9,4.9v3.7A4.91,4.91,0,0,0,481,445.3Z" transform="translate(-2.1 -1.65)"/><circle class="cls-21" cx="619.4" cy="422.95" r="2.2"/><polygon class="cls-22" points="620.5 421.85 619.5 422.25 618.8 423.05 618.4 424.25 619 423.25 619.6 422.55 620.5 421.85"/><circle class="cls-21" cx="619.4" cy="451.55" r="2.2"/><polygon class="cls-22" points="620.5 450.45 619.5 450.85 618.8 451.65 618.4 452.95 619 451.85 619.6 451.15 620.5 450.45"/><circle class="cls-21" cx="485.5" cy="422.95" r="2.2"/><polygon class="cls-22" points="486.6 421.85 485.6 422.25 484.9 423.05 484.5 424.25 485 423.25 485.7 422.55 486.6 421.85"/><circle class="cls-21" cx="485.5" cy="451.55" r="2.2"/><polygon class="cls-22" points="486.6 450.45 485.6 450.85 484.9 451.65 484.5 452.95 485 451.85 485.7 451.15 486.6 450.45"/><circle class="cls-21" cx="553.2" cy="422.95" r="2.2"/><polygon class="cls-22" points="554.3 421.85 553.3 422.25 552.5 423.05 552.2 424.25 552.7 423.25 553.4 422.55 554.3 421.85"/><circle class="cls-21" cx="553.2" cy="451.55" r="2.2"/><polygon class="cls-22" points="554.3 450.45 553.3 450.85 552.5 451.65 552.2 452.95 552.7 451.85 553.4 451.15 554.3 450.45"/><circle class="cls-21" cx="636.9" cy="436.85" r="2.2"/><polygon class="cls-22" points="638 435.75 637 436.15 636.3 436.95 635.9 438.25 636.5 437.15 637.1 436.45 638 435.75"/><circle class="cls-21" cx="467.7" cy="436.85" r="2.2"/><polygon class="cls-22" points="468.8 435.75 467.8 436.15 467.1 436.95 466.7 438.25 467.2 437.15 467.9 436.45 468.8 435.75"/><path class="cls-23" d="M648.6,438.7s27.2,1.8,26.8-12.8c-.5-18.8,14.8-90.1-27.8-90.5" transform="translate(-2.1 -1.65)"/><path class="cls-23" d="M621.1,332.6s-25-.1-11.7-39.1c11.6-33.9,76.4-62.6,53.9-96.6,0,0-1.5-3.3-7.3-3.3" transform="translate(-2.1 -1.65)"/><path class="cls-23" d="M604.7,190.6s-11,0-11.8-12.5c-.4-6.1,2.9-30.5,20.4-39.5s36.8-51.5,34.6-67-2.1-34.3-12.7-34.4" transform="translate(-2.1 -1.65)"/><rect class="cls-12" x="644.5" y="432.65" width="7.7" height="8.4"/><path class="cls-12" d="M654.8,442h-6.3a.68.68,0,0,1-.7-.7v-5.6a.68.68,0,0,1,.7-.7h6.3a.68.68,0,0,1,.7.7v5.6A.84.84,0,0,1,654.8,442Z" transform="translate(-2.1 -1.65)"/><rect class="cls-12" x="647.8" y="434.35" width="7.7" height="5.1"/><rect class="cls-24" x="646.2" y="429.55" width="6.4" height="1.4"/><rect class="cls-24" x="649" y="430.95" width="0.8" height="1.7"/><rect class="cls-3" x="649" y="430.95" width="0.9" height="0.4"/><circle class="cls-24" cx="643.8" cy="195.55" r="3.3"/><polygon class="cls-22" points="645.5 193.85 644 194.45 642.9 195.65 642.3 197.55 643.1 196.05 644.2 194.95 645.5 193.85"/><circle class="cls-24" cx="628.7" cy="195.55" r="3.3"/><polygon class="cls-22" points="630.4 193.85 628.9 194.45 627.8 195.65 627.2 197.55 628 196.05 629.1 194.95 630.4 193.85"/><circle class="cls-24" cx="612.5" cy="195.55" r="3.3"/><polygon class="cls-22" points="614.2 193.85 612.6 194.45 611.6 195.65 611 197.55 611.8 196.05 612.8 194.95 614.2 193.85"/><rect class="cls-24" x="653.9" y="192.25" width="1.1" height="6.6"/><rect class="cls-24" x="601.5" y="192.25" width="1.1" height="6.6"/><circle class="cls-24" cx="643.8" cy="156.75" r="3.3"/><polygon class="cls-22" points="645.5 155.05 644 155.75 642.9 156.85 642.3 158.75 643.1 157.25 644.2 156.15 645.5 155.05"/><circle class="cls-24" cx="628.7" cy="156.75" r="3.3"/><polygon class="cls-22" points="630.4 155.05 628.9 155.75 627.8 156.85 627.2 158.75 628 157.25 629.1 156.15 630.4 155.05"/><circle class="cls-24" cx="612.5" cy="156.75" r="3.3"/><polygon class="cls-22" points="614.2 155.05 612.6 155.75 611.6 156.85 611 158.75 611.8 157.25 612.8 156.15 614.2 155.05"/><rect class="cls-24" x="653.9" y="153.45" width="1.1" height="6.6"/><rect class="cls-24" x="601.5" y="153.45" width="1.1" height="6.6"/><circle class="cls-24" cx="649.1" cy="390.25" r="3.3"/><polygon class="cls-22" points="650.8 388.55 649.3 389.25 648.2 390.35 647.6 392.25 648.4 390.75 649.4 389.65 650.8 388.55"/><circle class="cls-24" cx="634" cy="390.25" r="3.3"/><polygon class="cls-22" points="635.7 388.55 634.2 389.25 633.1 390.35 632.5 392.25 633.3 390.75 634.4 389.65 635.7 388.55"/><circle class="cls-24" cx="617.8" cy="390.25" r="3.3"/><polygon class="cls-22" points="619.5 388.55 617.9 389.25 616.8 390.35 616.3 392.25 617.1 390.75 618.1 389.65 619.5 388.55"/><rect class="cls-24" x="659.2" y="386.95" width="1.1" height="6.6"/><rect class="cls-24" x="607.56" y="390.73" width="6.6" height="1.1" transform="translate(-13.9 761.85) rotate(-63.51)"/><circle class="cls-14" cx="600" cy="123.95" r="2"/><polyline class="cls-25" points="600 123.95 600 103.95 579.3 83.15 579.3 49.05"/><polyline class="cls-25" points="579.3 72.25 622.6 72.25 622.6 79.25 615 79.25 615 90.75"/><polygon class="cls-26" points="561.1 112.15 558.3 109.25 549.8 95.45 545.2 95.15 544.5 86.55 527.5 78.55 520.6 71.65 534.3 69.25 541.2 70.85 555.1 71.05 557.5 84.15 562.1 94.25 561.1 103.15 562.4 105.55 562.8 107.95 561.1 112.15"/><path class="cls-27" d="M525.2,75.9l4,.9,5.9-.2,1.4,2.2,4.4,1.2,2.8-1,1.9,2,3.4-.2.4-1.2.6,1.6V83l1.8,1.3,2-.5-.8,2a8.34,8.34,0,0,1,1.2.8c0,.1-.7,2.8-.7,2.8s2.2,4.9,2.3,5a30.26,30.26,0,0,1,3.2,1.2c0,.1-.9,4.6-.9,4.6a35.39,35.39,0,0,1,1.6,3.4c-.1.1-2.1,2.7-2.1,2.7L551.9,97l-4.6-.3-.7-8.7-17-8Z" transform="translate(-2.1 -1.65)"/><polygon class="cls-28" points="533.2 80.65 535.7 80.35 537.5 81.45 541.9 81.75 542.2 83.15 540.2 82.25 537.5 82.25 535.9 80.95 533.2 80.65"/><polygon class="cls-11" points="494.7 11.45 511.9 24.05 511.9 19.15 500.3 11.45 494.7 11.45"/><path class="cls-29" d="M475.9,79.8h11a1.9,1.9,0,0,0,1.9-1.9V54a1.9,1.9,0,0,0-1.9-1.9h-11A1.9,1.9,0,0,0,474,54V77.9A1.84,1.84,0,0,0,475.9,79.8Z" transform="translate(-2.1 -1.65)"/><image class="cls-30" width="70" height="81" transform="translate(444.75 26.86) scale(0.99)" xlink:href="CECBCBE4.png"/><ellipse class="cls-31" cx="479.2" cy="66.85" rx="5.3" ry="10.8"/><polygon class="cls-32" points="492.8 51.25 490.5 54.85 468.4 54.85 466.5 52.75 466.5 49.15 492.8 49.15 492.8 51.25"/><polygon class="cls-32" points="469.3 77.15 471.1 74.45 487.9 74.45 489.3 76.05 489.3 78.75 469.3 78.75 469.3 77.15"/><polygon class="cls-32" points="469.3 48.75 471.1 46.05 487.9 46.05 489.3 47.65 489.3 50.35 469.3 50.35 469.3 48.75"/><rect class="cls-32" x="478.47" y="53.24" width="1.7" height="21.9"/><rect class="cls-32" x="483.63" y="53.24" width="1.7" height="21.9"/><rect class="cls-32" x="473.1" y="53.24" width="1.7" height="21.9"/><polygon class="cls-32" points="486.6 52.95 488.2 54.45 488.2 73.15 487.4 75.15 488.1 75.65 489.3 73.65 489.3 54.35 487.1 52.35 486.6 52.95"/><polygon class="cls-32" points="472.5 52.95 470.9 54.45 470.9 73.15 471.7 75.15 471.1 75.65 469.9 73.65 469.9 54.35 472 52.35 472.5 52.95"/><path class="cls-10" d="M482.6,9.9h-.7a1.32,1.32,0,0,1-1.3-1.3V6a1.32,1.32,0,0,1,1.3-1.3h.7A1.32,1.32,0,0,1,483.9,6V8.6A1.32,1.32,0,0,1,482.6,9.9Z" transform="translate(-2.1 -1.65)"/><rect class="cls-10" x="480" y="7.75" width="0.4" height="3.4"/><path class="cls-33" d="M485.8,10.6l-.8-.3a1.48,1.48,0,0,1-.8-1.9l1.1-2.8a1.48,1.48,0,0,1,1.9-.8l.8.3a1.48,1.48,0,0,1,.8,1.9l-1.1,2.8A1.52,1.52,0,0,1,485.8,10.6Z" transform="translate(-2.1 -1.65)"/><rect class="cls-34" x="482.99" y="11.62" width="3.9" height="0.5" transform="translate(298.87 459.06) rotate(-69.11)"/><path class="cls-33" d="M489.5,8.4l.8-.3a1.47,1.47,0,0,1,1.9.7l1.2,2.7a1.47,1.47,0,0,1-.7,1.9l-.8.3A1.47,1.47,0,0,1,490,13l-1.2-2.7A1.32,1.32,0,0,1,489.5,8.4Z" transform="translate(-2.1 -1.65)"/><rect class="cls-35" x="489.02" y="5.01" width="0.5" height="3.9" transform="translate(37.77 198.87) rotate(-24.12)"/><path class="cls-10" d="M482.6,17.7h-.7a1.32,1.32,0,0,1-1.3-1.3V13.8a1.32,1.32,0,0,1,1.3-1.3h.7a1.32,1.32,0,0,1,1.3,1.3v2.6A1.32,1.32,0,0,1,482.6,17.7Z" transform="translate(-2.1 -1.65)"/><rect class="cls-10" x="480" y="15.55" width="0.4" height="3.4"/><path class="cls-10" d="M482.6,25.5h-.7a1.32,1.32,0,0,1-1.3-1.3V21.6a1.32,1.32,0,0,1,1.3-1.3h.7a1.32,1.32,0,0,1,1.3,1.3v2.6A1.32,1.32,0,0,1,482.6,25.5Z" transform="translate(-2.1 -1.65)"/><rect class="cls-10" x="480" y="23.35" width="0.4" height="3.4"/><rect class="cls-36" x="590.2" y="3.05" width="2.2" height="13.9"/><polygon class="cls-36" points="603.5 16.95 599.2 16.95 599.2 3.05 599.9 3.05 603.5 16.95"/><path class="cls-37" d="M592.3,4.7l-4.1,13.9h4.1Z" transform="translate(-2.1 -1.65)"/><rect class="cls-36" x="570.4" y="3.35" width="2.2" height="13.9"/><path class="cls-37" d="M572.5,5l-4.1,13.9h4.1Z" transform="translate(-2.1 -1.65)"/><rect class="cls-36" x="554.4" y="3.45" width="2.2" height="13.9"/><path class="cls-37" d="M556.5,5.1,552.4,19h4.1Z" transform="translate(-2.1 -1.65)"/><rect class="cls-36" x="535.1" y="3.65" width="2.2" height="13.9"/><path class="cls-37" d="M537.2,5.3l-4.1,13.9,4.1-.1Z" transform="translate(-2.1 -1.65)"/><g class="cls-38"><g class="cls-39"><polyline class="cls-40" points="510.6 470.75 540.2 368.05 546 371.95 516.4 474.65"/></g><g class="cls-39"><polyline class="cls-40" points="518.5 475.05 548.1 372.45 558.6 379.55 529 482.25"/></g></g></svg>