<svg
   id="Layer_1"
   data-name="Layer 1"
   viewBox="0 0 73.27 63.99"
   version="1.1"
   xmlns="http://www.w3.org/2000/svg">
   <defs>
    <style
       id="style2">.cls-1{fill:#4f4f4f;}.cls-2{fill:#828282;}.cls-3{fill:#636363;}.cls-4{fill:#cecece;}.cls-5{fill:none;stroke:#424242;stroke-miterlimit:10;stroke-width:3.06px;}.cls-6{fill:#424242;}</style>
  </defs>
  <polygon
     class="cls-1"
     points="73.27 23.27 64.96 49.86 50 63.99 28.68 63.99 13.8 58.17 0 28.26 8.54 8.31 24.52 0 55.81 0 73.27 23.27"
     id="polygon6" />
  <polygon
     class="cls-2"
     points="67.7 24.2 60.28 47.95 46.92 60.57 30.22 60.57 17.89 55.37 5.57 28.66 13.19 10.84 26.51 3.42 52.12 3.42 67.7 24.2"
     id="polygon8" />
  <polygon
     class="cls-3"
     points="60.28 47.95 64.96 49.86 50 63.99 46.92 60.57 60.28 47.95"
     id="polygon10" />
  <polygon
     class="cls-3"
     points="17.89 55.37 13.8 58.17 0 28.26 5.57 28.66 17.89 55.37"
     id="polygon12" />
  <polygon
     class="cls-3"
     points="55.81 0 52.12 3.42 26.51 3.42 24.52 0 55.81 0"
     id="polygon14" />
  <polygon
     class="cls-4"
     points="67.36 24.2 51.62 4.78 27 4.78 13.69 11.71 13.19 10.84 26.51 3.42 52.12 3.42 67.7 24.2 67.36 24.2"
     id="polygon16" />
  <path
     style="color:#000000;fill:#424242;stroke-miterlimit:10;-inkscape-stroke:none"
     d="m 33.169922,14.669922 c -7.492943,0 -13.59961,6.106667 -13.59961,13.599609 0,7.492943 6.106667,13.59961 13.59961,13.59961 7.492943,0 13.599609,-6.106667 13.599609,-13.59961 0,-7.492942 -6.106666,-13.599609 -13.599609,-13.599609 z m 0,3.060547 c 5.839197,0 10.541015,4.699865 10.541015,10.539062 0,5.839198 -4.701818,10.541016 -10.541015,10.541016 -5.839198,0 -10.539063,-4.701818 -10.539063,-10.541016 0,-5.839197 4.699865,-10.539062 10.539063,-10.539062 z"
     id="circle18" />
  <path
     style="color:#000000;fill:#424242;-inkscape-stroke:none"
     d="m 47.000001,43.52 h 8.87 c 1.03598,0 1.87,0.83402 1.87,1.87 v 0.23 c 0,1.03598 -0.83402,1.87 -1.87,1.87 h -8.87 c -1.03598,0 -1.87,-0.83402 -1.87,-1.87 v -0.23 c 0,-1.03598 0.83402,-1.87 1.87,-1.87 z"
     id="rect20"
     transform="translate(36.24 -28.06) rotate(39.65)" />
</svg>
