<svg id="Layer_1" data-name="Layer 1" xmlns="http://www.w3.org/2000/svg" viewBox="0 0 73.27 63.99"><defs><style>.cls-1{fill:#4f4f4f;}.cls-2{fill:#828282;}.cls-3{fill:#636363;}.cls-4{fill:#cecece;}.cls-5{fill:none;stroke:#424242;stroke-miterlimit:10;stroke-width:3.06px;}.cls-6{fill:#424242;}</style></defs><polygon class="cls-1" points="73.27 23.27 64.96 49.86 50 63.99 28.68 63.99 13.8 58.17 0 28.26 8.54 8.31 24.52 0 55.81 0 73.27 23.27"/><polygon class="cls-2" points="67.7 24.2 60.28 47.95 46.92 60.57 30.22 60.57 17.89 55.37 5.57 28.66 13.19 10.84 26.51 3.42 52.12 3.42 67.7 24.2"/><polygon class="cls-3" points="60.28 47.95 64.96 49.86 50 63.99 46.92 60.57 60.28 47.95"/><polygon class="cls-3" points="17.89 55.37 13.8 58.17 0 28.26 5.57 28.66 17.89 55.37"/><polygon class="cls-3" points="55.81 0 52.12 3.42 26.51 3.42 24.52 0 55.81 0"/><polygon class="cls-4" points="67.36 24.2 51.62 4.78 27 4.78 13.69 11.71 13.19 10.84 26.51 3.42 52.12 3.42 67.7 24.2 67.36 24.2"/><circle class="cls-5" cx="33.17" cy="28.27" r="12.07"/><rect class="cls-6" x="45.13" y="43.52" width="12.61" height="3.97" rx="1.87" transform="translate(36.24 -28.06) rotate(39.65)"/></svg>