<?xml version="1.0" encoding="utf-8"?>
<!-- Generator: Adobe Illustrator 26.2.1, SVG Export Plug-In . SVG Version: 6.00 Build 0)  -->
<svg version="1.1" id="Layer_1" xmlns="http://www.w3.org/2000/svg" xmlns:xlink="http://www.w3.org/1999/xlink" x="0px" y="0px"
	 viewBox="0 0 22.8 19" style="enable-background:new 0 0 22.8 19;" xml:space="preserve">
<style type="text/css">
	.st0{fill:#FFFFFF;}
</style>
<path class="st0" d="M22.4,17.2l-5.2-3.4c0.8-1.3,1.2-2.9,1.2-4.5c0-5.1-4.1-9.2-9.2-9.2C4.1,0,0,4.1,0,9.2c0,2.5,1,4.8,2.8,6.5
	c1.7,1.7,3.9,2.6,6.3,2.6c0.1,0,0.1,0,0.2,0c2.6,0,5.1-1.1,6.8-3l5.2,3.5c0.2,0.1,0.4,0.2,0.6,0.2c0.3,0,0.7-0.2,0.8-0.5
	C23,18.1,22.8,17.5,22.4,17.2z M9.2,16.3c-1.9,0.1-3.7-0.7-5-2C2.8,12.9,2,11.1,2,9.2C2,5.2,5.2,2,9.2,2c4,0,7.2,3.2,7.2,7.2
	c0,1.5-0.5,3-1.4,4.2C13.6,15.2,11.5,16.3,9.2,16.3z"/>
</svg>
