<?xml version="1.0" encoding="utf-8"?>
<!-- Generator: Adobe Illustrator 26.2.1, SVG Export Plug-In . SVG Version: 6.00 Build 0)  -->
<svg version="1.1" id="Layer_1" xmlns="http://www.w3.org/2000/svg" xmlns:xlink="http://www.w3.org/1999/xlink" x="0px" y="0px"
	 viewBox="0 0 24.2 13.4" style="enable-background:new 0 0 24.2 13.4;" xml:space="preserve">
<style type="text/css">
	.st0{fill:#FFFFFF;}
</style>
<g>
	<path class="st0" d="M6.3,13.4H1.2c-0.7,0-1.2-0.5-1.2-1.2S0.5,11,1.2,11h5.1c0.7,0,1.2,0.5,1.2,1.2S7,13.4,6.3,13.4z"/>
	<path class="st0" d="M13.1,7.9H1.2C0.5,7.9,0,7.4,0,6.7s0.5-1.2,1.2-1.2h11.9c0.7,0,1.2,0.5,1.2,1.2S13.8,7.9,13.1,7.9z"/>
	<path class="st0" d="M23,2.4H1.2C0.5,2.4,0,1.9,0,1.2S0.5,0,1.2,0H23c0.7,0,1.2,0.5,1.2,1.2S23.7,2.4,23,2.4z"/>
</g>
</svg>
