<?xml version="1.0" encoding="utf-8"?>
<!-- Generator: Adobe Illustrator 26.0.2, SVG Export Plug-In . SVG Version: 6.00 Build 0)  -->
<svg version="1.1" xmlns="http://www.w3.org/2000/svg" xmlns:xlink="http://www.w3.org/1999/xlink" x="0px" y="0px"
	 viewBox="0 0 400 200" style="enable-background:new 0 0 400 200;" xml:space="preserve">
<style type="text/css">
	.st0{fill:#231F20;}
	.st1{fill:none;}
	.st2{fill:#686868;}
	.st3{fill:#4DBA2F;}
	.st4{fill:#56CC2F;}
	.st5{filter:url(#Adobe_OpacityMaskFilter);}
	.st6{opacity:0.4;mask:url(#SVGID_1_);}
	.st7{fill:#FFFFFF;}
	.st8{fill:#429E20;}
	.st9{fill:#75EA49;}
	.st10{opacity:0.52;}
	.st11{filter:url(#Adobe_OpacityMaskFilter_00000155844752941876256440000012688368195144271786_);}
	.st12{opacity:0.4;mask:url(#SVGID_00000024686957709303303240000004357914991445156757_);}
</style>
<g id="Layer_1">
	<g>
		<g>
			<rect x="25.7" y="53.2" class="st0" width="350.5" height="100.3"/>
			<rect x="28.3" y="53.8" class="st1" width="348.5" height="98"/>
			<polygon class="st2" points="28.3,64.2 28.3,60.8 29.2,58.3 30.9,55.6 34.9,55.6 34.6,54.1 27.2,53.8 			"/>
			<polygon class="st2" points="374.5,140.1 374.5,143.4 373.6,146 371.9,148.6 367.9,148.6 368.2,150.2 375.6,150.4 			"/>
			<polygon class="st2" points="374.3,70.5 373.6,64.3 372.4,59.2 372.9,57.8 371.3,57.8 367.9,56.4 360.1,55.6 366.5,53.8 
				374.3,53.8 375.6,54.1 			"/>
			<polygon class="st2" points="28.3,138.6 28.3,144.3 32,148.6 32,149.6 24.5,149.6 			"/>
			<polygon class="st2" points="139.7,148.6 146.1,147.5 146.7,145.4 147.4,147.8 149.1,149.1 			"/>
		</g>
	</g>
	<path class="st2" d="M381.4,48.6l-9.6,0.8l-29,1.5l-31.2-1h-47.3l-59.4-1.3l-63.6,1.3H92.4L54.5,49l-25,0.9l-5.2,0.5L22.6,54
		l0.6,10.9L21.3,101l1.3,19.6V136l-1.3,15l2.1,3l2.4,0.3l32.4-1.3l35.4,0.6L116,155l39.1-0.9l35.5,0.9l44.2-1.9l51.3,1.2l46.3,2.6
		l36.5-2.6l9.6-1.1l1.6-6.3l1.3-30l-2.9-38.3l2.9-24.1V48.6z M374.3,148.6h-32.7l-2.7,2h-14l-14.5-2H28.3v-45.2l-0.1-0.1l-2.6-0.5
		l0.9-0.6l0.6-1.6l-0.8-1.1l-0.8-2.3l0.9,0.9h1.3l0.4-0.5v-42h148.5l2.2-0.8l4.8-0.4l1.4-1.3l3.1,0.3l15.5,2.1h170.6V148.6z"/>
</g>
<g id="Layer_2">
	<g>
		
			<image style="overflow:visible;opacity:0.9;" width="370" height="119" xlink:href="F1CD2CAF.png"  transform="matrix(1 0 0 1 15.5567 42.5567)">
		</image>
		<g>
			<path class="st3" d="M33.3,56.3l-2.8,1.8l-1.8,2.6v6.2c0,0,0.6,26.2,0.6,26.3s-0.6,5.9-0.6,5.9l-0.9,0.5v1.5l0.9,1.3l0.3,7.4
				l0.1,10.4L28.6,138l0.4,5.3l2.6,4.1l1.1,1l3,0.3l35.2-0.7l33.1-0.7c0,0,13-1.1,13.3-1.2c0.3-0.1,29.8-1.6,29.8-1.6l1.8,3.3
				l6.7,0.2l32.7-0.1l4-0.7l38.9,0.3h32.1c0,0,5.3-1.6,5.5-1.6s27.9,1.3,27.9,1.3l13-0.4l10.7,2.3l20.5-1.8l19.4-0.4l10.6,0.8
				l1.6-3.5l1.2-1.8l-0.7-46.8l0.7-3.2l-1.3-1.3l0.8-21.7l-1-7l-4.7-5.3l-27.3-0.9l-3.2,0.4l-48.8-0.4h-39.6l-1.4,1.3l-2-0.9
				l-43.8,0.4l-12.1-2.5l-18,2.9l-79.8-1.2l-3.8,0.8l-26.6-2.5L45.2,57L33.3,56.3z"/>
		</g>
	</g>
	<g>
		<g>
			<path class="st4" d="M40.2,65.4L37,66.7L35.8,69v5c0,0,0.6,20.9,0.6,21c0,0.1-0.6,4.7-0.6,4.7l-0.9,0.4v1.2l0.9,1l0.3,6l0.1,8.3
				l-0.4,14.1l0.4,4.3l2.5,3.3l1.1,0.8l2.8,0.2l33.6-0.6l31.6-0.6c0,0,12.4-0.9,12.7-1c0.1,0,9-0.4,16.8-0.8
				c6.2-0.3,11.6-0.5,11.6-0.5l1.7,2.7l6.4,0.2l31.2,0l3.9-0.6l37.1,0.2h30.6c0,0,5.1-1.3,5.3-1.3c0.2,0,26.6,1.1,26.6,1.1l12.4-0.3
				l10.3,1.9l19.5-1.5l18.5-0.3l10.1,0.6l1.5-2.8l1.1-1.4l-0.7-37.4l0.7-2.6l-1.3-1l0.7-17.3l-0.9-5.6l-4.5-4.3L333,65.4l-3.1,0.3
				l-46.6-0.3h-37.8l-1.3,1l-1.9-0.7l-41.8,0.3l-11.6-2l-17.2,2.3l-76.1-0.9L92,66.1l-7.9-0.6l-17.5-1.4l-15.1,1.9L40.2,65.4z"/>
		</g>
		<defs>
			<filter id="Adobe_OpacityMaskFilter" filterUnits="userSpaceOnUse" x="34.9" y="64.2" width="330.2" height="75.6">
				
					<feColorMatrix  type="matrix" values="-1 0 0 0 1  0 -1 0 0 1  0 0 -1 0 1  0 0 0 1 0" color-interpolation-filters="sRGB" result="source"/>
			</filter>
		</defs>
		<mask maskUnits="userSpaceOnUse" x="34.9" y="64.2" width="330.2" height="75.6" id="SVGID_1_">
			<g class="st5">
				<image style="overflow:visible;" width="336" height="80" xlink:href="F1CD2CAD.jpg"  transform="matrix(1 0 0 1 32 62)">
				</image>
			</g>
		</mask>
		<g class="st6">
			<path class="st7" d="M40.2,65.4L37,66.7L35.8,69v5c0,0,0.6,20.9,0.6,21c0,0.1-0.6,4.7-0.6,4.7l-0.9,0.4v1.2l0.9,1l0.3,6l0.1,8.3
				l-0.4,14.1l0.4,4.3l2.5,3.3l1.1,0.8l2.8,0.2l33.6-0.6l31.6-0.6c0,0,12.4-0.9,12.7-1c0.1,0,9-0.4,16.8-0.8
				c6.2-0.3,11.6-0.5,11.6-0.5l1.7,2.7l6.4,0.2l31.2,0l3.9-0.6l37.1,0.2h30.6c0,0,5.1-1.3,5.3-1.3c0.2,0,26.6,1.1,26.6,1.1l12.4-0.3
				l10.3,1.9l19.5-1.5l18.5-0.3l10.1,0.6l1.5-2.8l1.1-1.4l-0.7-37.4l0.7-2.6l-1.3-1l0.7-17.3l-0.9-5.6l-4.5-4.3L333,65.4l-3.1,0.3
				l-46.6-0.3h-37.8l-1.3,1l-1.9-0.7l-41.8,0.3l-11.6-2l-17.2,2.3l-76.1-0.9L92,66.1l-7.9-0.6l-17.5-1.4l-15.1,1.9L40.2,65.4z"/>
		</g>
	</g>
	<polygon class="st8" points="40.2,65.4 33.3,56.3 30.5,58.1 28.7,60.7 35.8,69 37,66.7 	"/>
	<polygon class="st8" points="34.9,100.1 28.7,99.2 27.8,99.7 27.8,101.1 28.7,102.4 34.9,101.3 	"/>
	<polygon class="st8" points="147.3,144.4 148.9,135.9 150.8,138.8 149.1,147.8 	"/>
	<polyline class="st8" points="192.7,147.2 192.5,138.1 188.4,138.7 188.6,147.9 192.5,147.2 	"/>
	<path class="st8" d="M189,64.2c0.1-0.5,0.3-9.5,0.3-9.5l12.1,2.5l-0.4,9L189,64.2z"/>
	<polyline class="st8" points="245.1,56.7 242.3,65.8 244.2,66.5 245.5,65.4 247.1,57.6 245.4,56.7 	"/>
	<polygon class="st8" points="372.4,91.2 365.1,94.3 364.4,96.9 373.1,95.8 373.8,92.5 	"/>
	<path class="st8" d="M367.5,57.2l-8.4,9l4.5,4.3c0,0,9.6-0.2,9.6-0.4c0-0.2-1-7.5-1-7.5L367.5,57.2z"/>
	<path class="st8" d="M320.6,149.2c0-0.5-6.3-9.5-6.3-9.5l-4.5,7.2l10.4,2.3"/>
	<polygon class="st8" points="265.1,137.1 268.9,145.9 263.4,147.5 259.5,138.3 	"/>
	<polygon class="st8" points="365.1,134.3 373.8,142.5 372.6,144.3 371,147.8 362.4,138.5 363.6,135.7 	"/>
	<polygon class="st8" points="36.1,135 29.1,143.3 31.7,147.4 32.9,148.4 39.7,139.2 38.7,138.2 	"/>
	<path class="st9" d="M84,66.5l53.3,69.9l-12.3,0.7L68.9,64.3l7.2,0.6c0,0,6.9,0.5,6.9,0.5C83.1,65.4,84,66.5,84,66.5z"/>
	<polygon class="st9" points="58.3,65.2 110.4,137.9 106.2,138.1 55.9,65.5 	"/>
	<g>
		<path d="M112.3,129.4l-4.7-18.6l12.2-3l1.9,9.4l8.5-2.1l0.5-5.8l-22.9-7.5l3.5-25.5l22.6-5.4l9.8,10.4l-1.4,16L131.3,96l-1.5-8.6
			l-8.1,1.7l-0.8,7.3l22.9,8.1l-4,21L112.3,129.4z"/>
		<path d="M159.7,126.2l-0.4-27.2l-8.9,2L148,86.7l10.3-1.3l-0.5-11.6l13.9-2.2l0.6,12.2l10.1-0.8l1.1,10.9l-11.2,2.8l-0.6,31.9
			L159.7,126.2z"/>
		<path d="M211.1,128.8l-1.1-4.5l-6.4,4.5l-13-3.4l-2.6-13.6l5-8.6l15.3,1.1l-0.6-5.6l-7.5-2l-2.5,4.7l-9.8-3.3l2.9-11.4l19.4-2
			l8.9,11.9l1.5,30.2L211.1,128.8z M208.6,116.8l-0.6-3.9l-7.8-0.8l-1.7,2.8l0.8,3.1l4.2,1.1L208.6,116.8z"/>
		<path d="M226.4,128.5l-1.5-45.7l13,1.7l-0.7,9.5l5.9-8.6l11.4,4.1l2.5,11.1l-9.5,5.5l-2.7-5.7l-7.6,7.8l0.3,18.7L226.4,128.5z"/>
		<path d="M272.8,126.2l-0.4-27.2l-8.9,2l-2.4-14.2l10.3-1.3l-0.5-11.6l13.9-2.2l0.6,12.2l10.1-0.8l1.1,10.9l-11.2,2.8l-0.6,31.9
			L272.8,126.2z"/>
	</g>
	<g class="st10">
		<g>
			<path class="st4" d="M40.2,65.4L37,66.7L35.8,69v5c0,0,0.6,20.9,0.6,21c0,0.1-0.6,4.7-0.6,4.7l-0.9,0.4v1.2l0.9,1l0.3,6l0.1,8.3
				l-0.4,14.1l0.4,4.3l2.5,3.3l1.1,0.8l2.8,0.2l33.6-0.6l31.6-0.6c0,0,12.4-0.9,12.7-1c0.1,0,9-0.4,16.8-0.8
				c6.2-0.3,11.6-0.5,11.6-0.5l1.7,2.7l6.4,0.2l31.2,0l3.9-0.6l37.1,0.2h30.6c0,0,5.1-1.3,5.3-1.3c0.2,0,26.6,1.1,26.6,1.1l12.4-0.3
				l10.3,1.9l19.5-1.5l18.5-0.3l10.1,0.6l1.5-2.8l1.1-1.4l-0.7-37.4l0.7-2.6l-1.3-1l0.7-17.3l-0.9-5.6l-4.5-4.3L333,65.4l-3.1,0.3
				l-46.6-0.3h-37.8l-1.3,1l-1.9-0.7l-41.8,0.3l-11.6-2l-17.2,2.3l-76.1-0.9L92,66.1l-7.9-0.6l-17.5-1.4l-15.1,1.9L40.2,65.4z"/>
		</g>
		<defs>
			
				<filter id="Adobe_OpacityMaskFilter_00000125578127264006764590000009390582008680168117_" filterUnits="userSpaceOnUse" x="34.9" y="64.2" width="330.2" height="75.6">
				
					<feColorMatrix  type="matrix" values="-1 0 0 0 1  0 -1 0 0 1  0 0 -1 0 1  0 0 0 1 0" color-interpolation-filters="sRGB" result="source"/>
			</filter>
		</defs>
		
			<mask maskUnits="userSpaceOnUse" x="34.9" y="64.2" width="330.2" height="75.6" id="SVGID_00000171717246546466323630000012515796599588236686_">
			<g style="filter:url(#Adobe_OpacityMaskFilter_00000125578127264006764590000009390582008680168117_);">
				<image style="overflow:visible;" width="336" height="80" xlink:href="F1CD2CB3.jpg"  transform="matrix(1 0 0 1 32 62)">
				</image>
			</g>
		</mask>
		<g style="opacity:0.4;mask:url(#SVGID_00000171717246546466323630000012515796599588236686_);">
			<path class="st7" d="M40.2,65.4L37,66.7L35.8,69v5c0,0,0.6,20.9,0.6,21c0,0.1-0.6,4.7-0.6,4.7l-0.9,0.4v1.2l0.9,1l0.3,6l0.1,8.3
				l-0.4,14.1l0.4,4.3l2.5,3.3l1.1,0.8l2.8,0.2l33.6-0.6l31.6-0.6c0,0,12.4-0.9,12.7-1c0.1,0,9-0.4,16.8-0.8
				c6.2-0.3,11.6-0.5,11.6-0.5l1.7,2.7l6.4,0.2l31.2,0l3.9-0.6l37.1,0.2h30.6c0,0,5.1-1.3,5.3-1.3c0.2,0,26.6,1.1,26.6,1.1l12.4-0.3
				l10.3,1.9l19.5-1.5l18.5-0.3l10.1,0.6l1.5-2.8l1.1-1.4l-0.7-37.4l0.7-2.6l-1.3-1l0.7-17.3l-0.9-5.6l-4.5-4.3L333,65.4l-3.1,0.3
				l-46.6-0.3h-37.8l-1.3,1l-1.9-0.7l-41.8,0.3l-11.6-2l-17.2,2.3l-76.1-0.9L92,66.1l-7.9-0.6l-17.5-1.4l-15.1,1.9L40.2,65.4z"/>
		</g>
	</g>
</g>
</svg>
