<?xml version="1.0" encoding="utf-8"?>
<!-- Generator: Adobe Illustrator 26.0.2, SVG Export Plug-In . SVG Version: 6.00 Build 0)  -->
<svg version="1.1" id="Layer_1" xmlns="http://www.w3.org/2000/svg" xmlns:xlink="http://www.w3.org/1999/xlink" x="0px" y="0px"
	 viewBox="0 0 128 128" style="enable-background:new 0 0 128 128;" xml:space="preserve">
<style type="text/css">
	.st0{fill:#4F4F4F;}
	.st1{fill:#828282;}
	.st2{fill:#424242;}
	.st3{opacity:0.44;fill:#CECECE;}
	.st4{fill:#CECECE;}
</style>
<g>
	<polygon class="st0" points="35.1,35.9 58.2,54.4 63.9,64.1 40.9,91.3 38,91.7 36.7,89.6 36.8,77.2 51.6,65.3 52,60.2 36.8,49.7 
		35.3,45.2 33.8,42.2 	"/>
	<polygon class="st1" points="39.5,40.4 59.1,56.1 63.9,64.3 39.5,90.2 39.5,77.2 54.3,65.3 53.7,59.7 38,48.3 	"/>
	<polygon class="st2" points="54.3,65.3 51.6,65.3 52,60.2 53.7,59.7 	"/>
	<polygon class="st3" points="38,48.3 33.8,42.2 35.1,35.9 39.5,40.4 	"/>
	<polygon class="st4" points="54.3,65.3 39.5,77.2 36.8,77.2 51.6,65.3 	"/>
	<polygon class="st0" points="65.1,35.9 88.3,54.4 94,64.1 71,91.3 68,91.7 66.7,89.6 66.9,77.2 81.7,65.3 82,60.2 66.8,49.7 
		65.4,45.2 63.9,42.2 	"/>
	<polygon class="st1" points="69.5,40.4 89.2,56.1 94,64.3 69.5,90.2 69.5,77.2 84.3,65.3 83.7,59.7 68,48.3 	"/>
	<polygon class="st2" points="84.3,65.3 81.7,65.3 82,60.2 83.7,59.7 	"/>
	<polygon class="st3" points="68,48.3 63.9,42.2 65.1,35.9 69.5,40.4 	"/>
	<polygon class="st4" points="84.3,65.3 69.5,77.2 66.9,77.2 81.7,65.3 	"/>
</g>
</svg>
