<?xml version="1.0" encoding="UTF-8" standalone="no"?>
<!-- Generator: Adobe Illustrator 26.2.1, SVG Export Plug-In . SVG Version: 6.00 Build 0)  -->

<svg
   version="1.1"
   id="Layer_1"
   x="0px"
   y="0px"
   viewBox="0 0 128 128"
   style="enable-background:new 0 0 128 128;"
   xml:space="preserve"
   sodipodi:docname="top_players_blue.svg"
   inkscape:version="1.1 (c68e22c387, 2021-05-23)"
   xmlns:inkscape="http://www.inkscape.org/namespaces/inkscape"
   xmlns:sodipodi="http://sodipodi.sourceforge.net/DTD/sodipodi-0.dtd"
   xmlns="http://www.w3.org/2000/svg"
   xmlns:svg="http://www.w3.org/2000/svg"><defs
   id="defs13" /><sodipodi:namedview
   id="namedview11"
   pagecolor="#ffffff"
   bordercolor="#666666"
   borderopacity="1.0"
   inkscape:pageshadow="2"
   inkscape:pageopacity="0.0"
   inkscape:pagecheckerboard="0"
   showgrid="false"
   inkscape:zoom="0.88355538"
   inkscape:cx="-152.22589"
   inkscape:cy="143.17156"
   inkscape:window-width="1847"
   inkscape:window-height="1057"
   inkscape:window-x="-8"
   inkscape:window-y="-8"
   inkscape:window-maximized="1"
   inkscape:current-layer="Layer_1" />
<style
   type="text/css"
   id="style2">
	.st0{fill:#FFFFFF;}
</style>
<path
   class="st0"
   d="M1417.3,407.4l-4.8,2.6l-3.4,6.6l-0.8-9.9l-6.3-5.7l-2.8,8.3l2.7,7.9l-4.4-4.8l-6.6-0.4l2.3,6.4l5.2,3.4  l-0.6,0.6l2.2,3.7l5.5-0.1l3.3,0.1c0.1,0,0.2,0,0.3,0l0,0l2.4-1.6l1.9-2.4l-1-2.2l3.8-4.9L1417.3,407.4z"
   id="path4" />
<polyline
   class="st0"
   points="1078.8,412.1 1079.1,411.9 1078.7,410.9 "
   id="polyline6" />
<path
   class="st0"
   d="M72.1,56.3c0.3-0.8,0.5-1.7,0.5-2.7c0-2.3-1.1-4.3-2.9-5.6v-2.5l6.1,0c8.2,0,14.8-4.4,14.8-9.7v-0.3  c0-4.5-4.7-8.3-11-9.4L89,0.2L66.9,0c0,0-0.7,0-2.8,8c-2.5-6.1-2.5-8.1-3-7.8H39.9c0,0,5,11.9,11.6,26.2c-5.6,1.4-9.7,4.9-9.7,9.1  v0.3c0,5.4,6.6,9.8,14.8,9.8l5.2,0c0,0.1,0,0.2,0,0.4v1.5c-2.3,1.2-3.9,3.6-3.9,6.3c0,1,0.2,2,0.6,2.9  c-17.1,3.4-29.9,17.9-29.9,35.4c0,19.9,16.8,36.1,37.5,36.1c20.7,0,37.5-16.2,37.5-36.1C103.5,74,89.9,59.2,72.1,56.3z M86.3,35.5  v0.3c0,3.8-4.7,6.8-10.4,6.8l-6.1,0v-1.5c0-2.2-1.8-4-4-4c-2.2,0-4,1.8-4,4v1.5l-5.2,0c-5.7,0-10.4-3.1-10.4-6.9v-0.3  c0-2.9,2.7-5.3,6.6-6.3c0.6,1.3,1,2.1,1,2.1l22.6-1h2l0.4-1.3C83.1,29.8,86.3,32.4,86.3,35.5z M60.8,54c0-1.1,0.5-2.2,1.2-2.9  c0.5,1.7,2,2.9,3.8,2.9c1.5,0,2.8-0.8,3.5-2c0.3,0.6,0.5,1.3,0.5,2c0,0.7-0.2,1.4-0.5,2c-1.1-0.1-2.1-0.2-3.2-0.2  c-1.6,0-3.1,0.1-4.7,0.3C61,55.5,60.8,54.8,60.8,54z"
   id="path8"
   style="fill:#b4e2ec;fill-opacity:1" />
</svg>
