<?xml version="1.0" encoding="UTF-8" standalone="no"?>
<!-- Generator: Adobe Illustrator 18.0.0, SVG Export Plug-In . SVG Version: 6.00 Build 0)  -->

<svg
   version="1.1"
   id="Capa_1"
   x="0px"
   y="0px"
   viewBox="0 0 335.011 272.14899"
   xml:space="preserve"
   sodipodi:docname="twitter-svgrepo-com.svg"
   width="335.01099"
   height="272.14899"
   inkscape:version="1.1 (c68e22c387, 2021-05-23)"
   xmlns:inkscape="http://www.inkscape.org/namespaces/inkscape"
   xmlns:sodipodi="http://sodipodi.sourceforge.net/DTD/sodipodi-0.dtd"
   xmlns="http://www.w3.org/2000/svg"
   xmlns:svg="http://www.w3.org/2000/svg"><defs
   id="defs41" /><sodipodi:namedview
   id="namedview39"
   pagecolor="#ffffff"
   bordercolor="#666666"
   borderopacity="1.0"
   inkscape:pageshadow="2"
   inkscape:pageopacity="0.0"
   inkscape:pagecheckerboard="0"
   showgrid="false"
   inkscape:zoom="1.9134095"
   inkscape:cx="107.66122"
   inkscape:cy="162.27577"
   inkscape:window-width="1848"
   inkscape:window-height="1057"
   inkscape:window-x="-8"
   inkscape:window-y="-8"
   inkscape:window-maximized="1"
   inkscape:current-layer="Capa_1" />
<g
   id="g6"
   transform="translate(-60.358,-96.041)">
	
	<path
   style="fill:#ffffff"
   d="m 60.377,337.822 c 30.33,19.236 66.308,30.368 104.875,30.368 108.349,0 196.18,-87.841 196.18,-196.18 0,-2.705 -0.057,-5.39 -0.161,-8.067 3.919,-3.084 28.157,-22.511 34.098,-35 0,0 -19.683,8.18 -38.947,10.107 -0.038,0 -0.085,0.009 -0.123,0.009 0,0 0.038,-0.019 0.104,-0.066 1.775,-1.186 26.591,-18.079 29.951,-38.207 0,0 -13.922,7.431 -33.415,13.932 -3.227,1.072 -6.605,2.126 -10.088,3.103 -12.565,-13.41 -30.425,-21.78 -50.25,-21.78 -38.027,0 -68.841,30.805 -68.841,68.803 0,5.362 0.617,10.581 1.784,15.592 -5.314,-0.218 -86.237,-4.755 -141.289,-71.423 0,0 -32.902,44.917 19.607,91.105 0,0 -15.962,-0.636 -29.733,-8.864 0,0 -5.058,54.416 54.407,68.329 0,0 -11.701,4.432 -30.368,1.272 0,0 10.439,43.968 63.271,48.077 0,0 -41.777,37.74 -101.081,28.885 z"
   id="path4" />
</g>
<g
   id="g8"
   transform="translate(-60.358,-96.041)">
</g>
<g
   id="g10"
   transform="translate(-60.358,-96.041)">
</g>
<g
   id="g12"
   transform="translate(-60.358,-96.041)">
</g>
<g
   id="g14"
   transform="translate(-60.358,-96.041)">
</g>
<g
   id="g16"
   transform="translate(-60.358,-96.041)">
</g>
<g
   id="g18"
   transform="translate(-60.358,-96.041)">
</g>
<g
   id="g20"
   transform="translate(-60.358,-96.041)">
</g>
<g
   id="g22"
   transform="translate(-60.358,-96.041)">
</g>
<g
   id="g24"
   transform="translate(-60.358,-96.041)">
</g>
<g
   id="g26"
   transform="translate(-60.358,-96.041)">
</g>
<g
   id="g28"
   transform="translate(-60.358,-96.041)">
</g>
<g
   id="g30"
   transform="translate(-60.358,-96.041)">
</g>
<g
   id="g32"
   transform="translate(-60.358,-96.041)">
</g>
<g
   id="g34"
   transform="translate(-60.358,-96.041)">
</g>
<g
   id="g36"
   transform="translate(-60.358,-96.041)">
</g>
</svg>
