<?xml version="1.0" encoding="UTF-8" standalone="no"?>
<!-- Generator: Adobe Illustrator 27.0.1, SVG Export Plug-In . SVG Version: 6.00 Build 0)  -->

<svg
   version="1.1"
   id="Layer_1"
   x="0px"
   y="0px"
   viewBox="0 0 124.7 104.6"
   style="enable-background:new 0 0 124.7 104.6;"
   xml:space="preserve"
   sodipodi:docname="wallet_connect3.svg"
   inkscape:version="1.1 (c68e22c387, 2021-05-23)"
   xmlns:inkscape="http://www.inkscape.org/namespaces/inkscape"
   xmlns:sodipodi="http://sodipodi.sourceforge.net/DTD/sodipodi-0.dtd"
   xmlns="http://www.w3.org/2000/svg"
   xmlns:svg="http://www.w3.org/2000/svg"><defs
   id="defs19" /><sodipodi:namedview
   id="namedview17"
   pagecolor="#ffffff"
   bordercolor="#666666"
   borderopacity="1.0"
   inkscape:pageshadow="2"
   inkscape:pageopacity="0.0"
   inkscape:pagecheckerboard="0"
   showgrid="false"
   inkscape:zoom="4.2098947"
   inkscape:cx="51.188928"
   inkscape:cy="30.760864"
   inkscape:window-width="1842"
   inkscape:window-height="1057"
   inkscape:window-x="-8"
   inkscape:window-y="-8"
   inkscape:window-maximized="1"
   inkscape:current-layer="Layer_1" />
<style
   type="text/css"
   id="style2">
	.st0{fill:#FFFFFF;}
</style>
<g
   id="g14">
	<g
   id="g6">
		<path
   class="st0"
   d="M34.3,36C15.3,36,0,51.3,0,70.3c0,18.9,15.3,34.3,34.3,34.3s34.3-15.3,34.3-34.3C68.6,51.3,53.2,36,34.3,36z     M34.3,81.1L23.4,92c-1.9,1.9-5.1,1.9-7.1,0l-3.8-3.8c-1.9-1.9-1.9-5.1,0-7.1l10.9-10.9c1.9-1.9,5.1-1.9,7,0L28.7,72    c-1-0.9-2.5-0.9-3.4,0L14.4,83c-1,1-1,2.5,0,3.4l3.8,3.8c1,1,2.5,1,3.4,0l10.9-10.9c0.9-0.9,0.9-2.4,0-3.4l1.8-1.8    C36.3,76,36.3,79.1,34.3,81.1z M42.3,59.3c0.8-0.8,2.2-0.8,3,0c0.8,0.8,0.8,2.2,0,3L30,77.5c-0.8,0.8-2.2,0.8-3,0    c-0.8-0.8-0.8-2.2,0-3L42.3,59.3z M56,59.4L45.1,70.3c-1.9,1.9-5.1,1.9-7,0l1.8-1.8c1,0.9,2.5,0.9,3.4,0l10.9-10.9    c0.9-1,1-2.5,0-3.4l-3.8-3.8c-1-1-2.5-1-3.4,0L36.1,61.3c-0.9,0.9-0.9,2.4,0,3.4l-1.8,1.8c-1.9-2-1.9-5.1,0-7l10.9-10.9    c1.9-1.9,5.1-1.9,7.1,0l3.8,3.8C57.9,54.3,57.9,57.4,56,59.4z"
   id="path4" />
	</g>
	<path
   class="st0"
   d="M116.6,61.7H96c-4.3,0-7.8-3.5-7.8-7.8v-6.6c0-4.3,3.5-7.8,7.8-7.8h20.6c4.3,0,7.8,3.5,7.8,7.8v6.6   C124.4,58.2,120.9,61.7,116.6,61.7z M97.9,52h16.8v-2.7H97.9V52z"
   id="path8" />
	<path
   class="st0"
   d="M108,18.5H24.8l-0.4-3.9l79.9-14.6c1.9-0.3,3.6,1.1,3.6,3V18.5z M46.2,14.7h57.8V4.1L46.2,14.7z"
   id="path10" />
	<path
   class="st0"
   d="M111.9,14.1H24.6c-7.1,0-12.8,5.7-12.8,12.8v13.5c3-2.1,6.2-3.7,9.7-4.9v-8.6c0-1.7,1.4-3.1,3.1-3.1h87.3   c1.7,0,3.1,1.4,3.1,3.1v47.6c0,1.7-1.4,3.1-3.1,3.1H71.4c-0.5,3.4-1.5,6.7-2.9,9.7h43.3c7.1,0,12.8-5.7,12.8-12.8V26.9   C124.7,19.8,118.9,14.1,111.9,14.1z"
   id="path12" />
</g>
</svg>
