<?xml version="1.0" encoding="UTF-8" standalone="no"?>
<!-- Generator: Adobe Illustrator 17.1.0, SVG Export Plug-In . SVG Version: 6.00 Build 0)  -->

<svg
   version="1.1"
   id="Capa_1"
   x="0px"
   y="0px"
   viewBox="0 0 137.83299 98.988995"
   xml:space="preserve"
   sodipodi:docname="youtube-svgrepo-com.svg"
   width="137.83299"
   height="98.988998"
   inkscape:version="1.1 (c68e22c387, 2021-05-23)"
   xmlns:inkscape="http://www.inkscape.org/namespaces/inkscape"
   xmlns:sodipodi="http://sodipodi.sourceforge.net/DTD/sodipodi-0.dtd"
   xmlns="http://www.w3.org/2000/svg"
   xmlns:svg="http://www.w3.org/2000/svg"><defs
   id="defs37" /><sodipodi:namedview
   id="namedview35"
   pagecolor="#ffffff"
   bordercolor="#666666"
   borderopacity="1.0"
   inkscape:pageshadow="2"
   inkscape:pageopacity="0.0"
   inkscape:pagecheckerboard="0"
   showgrid="false"
   inkscape:zoom="2.0187773"
   inkscape:cx="65.881462"
   inkscape:cy="37.894224"
   inkscape:window-width="1848"
   inkscape:window-height="1057"
   inkscape:window-x="-8"
   inkscape:window-y="-8"
   inkscape:window-maximized="1"
   inkscape:current-layer="Capa_1" />
<rect
   style="fill:#000000;stroke:#0000ff;stroke-width:0.982677"
   id="rect1245"
   width="90.15358"
   height="77.274498"
   x="29.315643"
   y="7.9122434" /><path
   d="M 54.538,22.486 93.699,49.494 54.538,76.502 Z m 83.295,7.169 C 137.833,13.277 124.556,0 108.178,0 H 29.655 C 13.277,0 0,13.277 0,29.655 v 39.679 c 0,16.378 13.277,29.655 29.655,29.655 h 78.523 c 16.378,0 29.655,-13.277 29.655,-29.655 z"
   id="path2"
   sodipodi:nodetypes="cccccsssssssss"
   style="fill:#ffffff" />
<g
   id="g4"
   transform="translate(-52.417,-71.839)">
</g>
<g
   id="g6"
   transform="translate(-52.417,-71.839)">
</g>
<g
   id="g8"
   transform="translate(-52.417,-71.839)">
</g>
<g
   id="g10"
   transform="translate(-52.417,-71.839)">
</g>
<g
   id="g12"
   transform="translate(-52.417,-71.839)">
</g>
<g
   id="g14"
   transform="translate(-52.417,-71.839)">
</g>
<g
   id="g16"
   transform="translate(-52.417,-71.839)">
</g>
<g
   id="g18"
   transform="translate(-52.417,-71.839)">
</g>
<g
   id="g20"
   transform="translate(-52.417,-71.839)">
</g>
<g
   id="g22"
   transform="translate(-52.417,-71.839)">
</g>
<g
   id="g24"
   transform="translate(-52.417,-71.839)">
</g>
<g
   id="g26"
   transform="translate(-52.417,-71.839)">
</g>
<g
   id="g28"
   transform="translate(-52.417,-71.839)">
</g>
<g
   id="g30"
   transform="translate(-52.417,-71.839)">
</g>
<g
   id="g32"
   transform="translate(-52.417,-71.839)">
</g>
</svg>
