<?xml version="1.0" encoding="UTF-8"?><svg id="Layer_1" xmlns="http://www.w3.org/2000/svg" viewBox="0 0 200 199.96"><defs><style>.cls-1,.cls-2{fill:#fff;}.cls-3{opacity:.48;}.cls-2{opacity:.61;}.cls-4{fill:#663304;}.cls-5{fill:#6a3805;}.cls-6{fill:#ad8a56;}</style></defs><g><circle class="cls-5" cx="100.05" cy="100.03" r="99.94" transform="translate(-41.43 100.04) rotate(-45)"/><path class="cls-6" d="M0,99.94c0,5.44,.44,10.77,1.28,15.98,14.51,8.21,31.27,12.9,49.13,12.9,55.19,0,99.94-44.74,99.94-99.94,0-5.44-.44-10.77-1.28-15.98C134.56,4.69,117.8,0,99.94,0,44.74,0,0,44.74,0,99.94Z"/><path class="cls-4" d="M99.07,173.43c-39.93,0-72.42-32.49-72.42-72.42S59.13,28.58,99.07,28.58s72.42,32.49,72.42,72.42-32.49,72.42-72.42,72.42Zm0-142.41c-38.59,0-69.99,31.4-69.99,69.99s31.4,69.99,69.99,69.99,69.99-31.4,69.99-69.99S137.66,31.02,99.07,31.02Z"/><path class="cls-4" d="M185.25,47.74c6.52,13.28,10.94,28.5,11.98,44.26,4.01,60.61-46.27,109.88-105.78,104.04-35.86-3.52-63.55-23.43-81.13-52.03,16.27,33.13,50.34,55.93,89.74,55.93,55.19,0,99.94-44.74,99.94-99.94,0-19.16-5.4-37.06-14.75-52.27Z"/></g><path class="cls-2" d="M171.11,107.75c-.72,.22-1.56,.49-2.53,.8-3.77,35.06-33.53,62.45-69.58,62.45-16.1,0-30.95-5.47-42.79-14.65-.62,.62-1.36,1.09-2.06,1.54,12.27,9.55,28.13,15.55,44.85,15.55,37.66,0,68.7-28.9,72.11-65.68Z"/><polygon class="cls-1" points="141.51 45.11 146.94 31.39 152.02 45.3 161.53 50.72 151.83 55.8 146.4 73.24 141.32 55.61 131.81 50.19 141.51 45.11"/><path class="cls-2" d="M50.96,25.03c15.23-10.46,35.79-10.82,49.96-12.25-6.38-2.23-13.24-3.44-20.39-3.44-34.16,0-61.86,27.7-61.86,61.86,0,1.23,.04,2.46,.11,3.67,5.13-15.12,13.73-37.16,32.18-49.83Z"/><polygon class="cls-5" points="100.05 47.74 116.02 80.11 151.74 85.31 125.9 110.5 132 146.08 100.05 129.28 68.09 146.08 74.2 110.5 48.35 85.31 84.07 80.11 100.05 47.74"/><polygon class="cls-6" points="125.9 110.5 151.74 85.31 116.02 80.11 100.05 47.74 100.05 129.28 132 146.08 125.9 110.5"/><polygon class="cls-5" points="132 146.08 99.31 101.87 125.9 110.5 132 146.08"/><polygon class="cls-5" points="116.02 80.11 99.31 101.87 151.74 85.31 116.02 80.11"/><g class="cls-3"><polygon class="cls-6" points="99.31 101.87 84.07 80.11 48.35 85.31 99.31 101.87"/></g><g class="cls-3"><polygon class="cls-6" points="99.31 101.87 74.2 110.5 68.09 146.08 99.31 101.87"/></g></svg>