<?xml version="1.0" encoding="utf-8"?>
<!-- Generator: Adobe Illustrator 26.2.1, SVG Export Plug-In . SVG Version: 6.00 Build 0)  -->
<svg version="1.1" id="Layer_1" xmlns="http://www.w3.org/2000/svg" xmlns:xlink="http://www.w3.org/1999/xlink" x="0px" y="0px"
	 viewBox="0 0 374.9 169.7" style="enable-background:new 0 0 374.9 169.7;" xml:space="preserve">
<style type="text/css">
	.st0{fill:#AFAFB0;}
	.st1{fill:#686969;}
	.st2{fill:#9C9B9B;}
	.st3{fill:#BCBCBB;}
	.st4{fill:none;stroke:#4D4B37;stroke-width:1.5807;stroke-miterlimit:10;}
	.st5{fill:none;stroke:#31402C;stroke-width:1.2294;stroke-miterlimit:10;}
	.st6{fill:#737374;stroke:#5C5C5C;stroke-width:0.5186;stroke-miterlimit:10;}
	.st7{fill:#737374;stroke:#5C5C5C;stroke-width:0.4928;stroke-miterlimit:10;}
	.st8{fill:none;stroke:#31402C;stroke-width:1.932;stroke-miterlimit:10;}
	.st9{fill:#222321;}
	.st10{fill:#E1E2E1;}
	.st11{fill:#CCCBCA;}
	.st12{fill:#705F51;stroke:#5C5C5C;stroke-width:0.1303;stroke-miterlimit:10;}
	.st13{fill:#9E5E26;}
	.st14{fill:#55473D;}
	.st15{fill:#67615D;}
	.st16{fill:#50413B;}
	.st17{fill:#B69F31;}
	.st18{fill:#8C8231;}
	.st19{fill:#FCE249;}
	.st20{fill:#505050;}
	.st21{fill:#706152;}
	.st22{fill:none;}
	.st23{opacity:0.21;fill:#F2EEEB;stroke:#5C5C5C;stroke-width:0.4116;stroke-miterlimit:10;enable-background:new    ;}
	.st24{fill:#606161;}
	.st25{fill:#939393;}
	.st26{fill:#8F3434;}
	
		.st27{opacity:0.4;clip-path:url(#SVGID_00000148621211382063254360000014458611795783835530_);fill:#FFFFFF;enable-background:new    ;}
	
		.st28{opacity:0.4;clip-path:url(#SVGID_00000002363622588970376430000009156936869106226072_);fill:#FFFFFF;enable-background:new    ;}
	.st29{fill:none;stroke:#B69F31;stroke-width:0.8782;stroke-miterlimit:10;}
	.st30{fill:#FFF0E4;}
	.st31{fill:#AA9282;}
	.st32{fill:none;stroke:#686969;stroke-width:0.3513;stroke-miterlimit:10;}
	.st33{fill:#5C5C5C;}
	.st34{fill:#C6B17B;}
	.st35{fill:#6D9941;}
	.st36{fill:none;stroke:#4D4B37;stroke-width:1.932;stroke-miterlimit:10;}
	.st37{fill:#31402C;}
	.st38{fill:#469B8C;stroke:#5C5C5C;stroke-width:0.6927;stroke-miterlimit:10;}
	.st39{opacity:0.24;fill:#FFFFFF;stroke:#5C5C5C;stroke-width:0.6927;stroke-miterlimit:10;enable-background:new    ;}
	
		.st40{opacity:0.26;clip-path:url(#SVGID_00000049915322128071748570000015099214888738959259_);fill:#FFFFFF;enable-background:new    ;}
	
		.st41{opacity:0.26;clip-path:url(#SVGID_00000173151702351771053060000018154174887410847112_);fill:#FFFFFF;enable-background:new    ;}
	.st42{fill:#D6CA38;stroke:#5C5C5C;stroke-width:0.4628;stroke-miterlimit:10;}
	.st43{opacity:0.24;fill:#FFFFFF;stroke:#5C5C5C;stroke-width:0.4628;stroke-miterlimit:10;enable-background:new    ;}
	
		.st44{opacity:0.26;clip-path:url(#SVGID_00000125579660780843374580000012245153815233219473_);fill:#FFFFFF;enable-background:new    ;}
	
		.st45{opacity:0.26;clip-path:url(#SVGID_00000017486668186882332140000000729393098282309522_);fill:#FFFFFF;enable-background:new    ;}
	.st46{fill:#5C5C5C;stroke:#737374;stroke-width:0.4392;stroke-miterlimit:10;}
	.st47{fill:#737374;}
	.st48{fill:#705F51;stroke:#5C5C5C;stroke-width:0.1384;stroke-miterlimit:10;}
	.st49{fill:#705F51;stroke:#5C5C5C;stroke-width:0.1513;stroke-miterlimit:10;}
	.st50{fill:#B0B0B0;}
	.st51{fill:#FFFFFF;}
	.st52{opacity:0.4;fill:#5C5C5C;enable-background:new    ;}
	.st53{fill:#705F51;stroke:#5C5C5C;stroke-width:0.1834;stroke-miterlimit:10;}
	.st54{fill:#705F51;stroke:#5C5C5C;stroke-width:0.1791;stroke-miterlimit:10;}
	.st55{fill:#EE2725;}
	.st56{fill:#F16062;}
	.st57{fill:#C02026;}
	.st58{fill:#646464;}
	.st59{fill:#838383;}
	.st60{opacity:0.4;}
	.st61{fill:#EAACAC;}
	.st62{fill:#F7A8A9;}
	.st63{fill:#F69FA1;}
	.st64{fill:#A3A3A2;}
	.st65{opacity:0.21;fill:#A3A3A2;enable-background:new    ;}
	.st66{fill:#8F8F8F;}
	.st67{opacity:0.53;fill:#686969;enable-background:new    ;}
	.st68{clip-path:url(#SVGID_00000110463406891473962680000004961470632082053254_);fill:#CFCFCE;}
	.st69{clip-path:url(#SVGID_00000044167772591007128150000009392692394498779815_);fill:#CFCFCE;}
	.st70{clip-path:url(#SVGID_00000065047855740583992750000017473186923127482000_);fill:#CFCFCE;}
	.st71{clip-path:url(#SVGID_00000144302921388239155250000015141565760502171819_);fill:#CFCFCE;}
	.st72{clip-path:url(#SVGID_00000181802208552118619650000013835425244333300120_);fill:#CFCFCE;}
	.st73{clip-path:url(#SVGID_00000060731995671897018160000009204817672188420508_);fill:#CFCFCE;}
	.st74{fill:#3A3B3A;}
	.st75{fill:none;stroke:#5C5C5C;stroke-width:1.4283;stroke-miterlimit:10;}
	.st76{fill:#3D4D42;}
	.st77{fill:none;stroke:#5C5C5C;stroke-width:0.4378;stroke-miterlimit:10;}
	.st78{fill:#67615D;stroke:#5C5C5C;stroke-width:0.3177;stroke-miterlimit:10;}
	.st79{fill:#3D4D42;stroke:#303E34;stroke-width:0.5269;stroke-miterlimit:10;}
	.st80{fill:#67615D;stroke:#5C5C5C;stroke-width:0.205;stroke-miterlimit:10;}
	.st81{fill:#A1333B;}
	.st82{fill:#3FB25A;}
	.st83{fill:#705F51;stroke:#5C5C5C;stroke-width:7.805169e-02;stroke-miterlimit:10;}
	.st84{fill:#242323;}
	.st85{fill:#4A4643;}
	.st86{fill:#766E68;}
	.st87{fill:#010101;}
	.st88{fill:#312E2C;}
	.st89{fill:#3D4D42;stroke:#67615D;stroke-width:0.3513;stroke-miterlimit:10;}
	.st90{fill:#303E34;}
	.st91{fill:none;stroke:#FFFFFF;stroke-miterlimit:10;}
</style>
<g>
	<g>
		<polyline class="st0" points="12.3,140.4 18.4,140.4 18.4,138.6 12.3,138.6 		"/>
		<polygon class="st1" points="14.4,140.4 14.7,138.6 14.4,138.6 14.1,140.4 		"/>
		<polygon class="st1" points="15.1,140.4 15.4,138.6 15.1,138.6 14.7,140.4 		"/>
		<polygon class="st1" points="15,140.4 15.4,138.6 15,138.6 14.6,140.4 		"/>
		<polyline class="st2" points="14.6,141.1 14.6,137.9 13.4,137.9 13.4,141.1 		"/>
		<rect x="13.4" y="137.9" class="st3" width="1.3" height="0.7"/>
		<polyline class="st3" points="14.6,141.1 14.6,140.4 13.4,140.4 13.4,141.1 		"/>
		<polyline class="st0" points="12.3,109.9 18.4,109.9 18.4,108.1 12.3,108.1 		"/>
		<polygon class="st1" points="14.4,109.9 14.7,108.1 14.4,108.1 14.1,109.9 		"/>
		<polygon class="st1" points="15.1,109.9 15.4,108.1 15.1,108.1 14.7,109.9 		"/>
		<polygon class="st1" points="15,109.9 15.4,108.1 15,108.1 14.6,109.9 		"/>
		<polyline class="st2" points="14.6,110.6 14.6,107.4 13.4,107.4 13.4,110.6 		"/>
		<rect x="13.4" y="107.4" class="st3" width="1.3" height="0.7"/>
		<polyline class="st3" points="14.6,110.6 14.6,109.9 13.4,109.9 13.4,110.6 		"/>
		<polyline class="st0" points="12.3,78.5 18.4,78.5 18.4,76.8 12.3,76.8 		"/>
		<polygon class="st1" points="14.4,78.5 14.7,76.8 14.4,76.8 14.1,78.5 		"/>
		<polygon class="st1" points="15.1,78.5 15.4,76.8 15.1,76.8 14.7,78.5 		"/>
		<polygon class="st1" points="15,78.5 15.4,76.8 15,76.8 14.6,78.5 		"/>
		<polyline class="st2" points="14.6,79.2 14.6,76.1 13.4,76.1 13.4,79.2 		"/>
		<rect x="13.4" y="76.1" class="st3" width="1.3" height="0.7"/>
		<polyline class="st3" points="14.6,79.2 14.6,78.5 13.4,78.5 13.4,79.2 		"/>
		<polyline class="st0" points="12.3,94.4 18.4,94.4 18.4,92.7 12.3,92.7 		"/>
		<polygon class="st1" points="14.4,94.4 14.7,92.7 14.4,92.7 14.1,94.4 		"/>
		<polygon class="st1" points="15.1,94.4 15.4,92.7 15.1,92.7 14.7,94.4 		"/>
		<polygon class="st1" points="15,94.4 15.4,92.7 15,92.7 14.6,94.4 		"/>
		<polyline class="st2" points="14.6,95.1 14.6,92 13.4,92 13.4,95.1 		"/>
		<rect x="13.4" y="92" class="st3" width="1.3" height="0.7"/>
		<polyline class="st3" points="14.6,95.1 14.6,94.4 13.4,94.4 13.4,95.1 		"/>
		<path class="st4" d="M291.4,38.4c0,0,3-1.7,4-1.7c1.7,0.1,5.9-0.7,5.1,5.4c-0.6,4.6-18.4,10-13.5,10.6c4.8,0.6,3.1,3.1,4.1,4.6"/>
		<path class="st5" d="M267.6,31c0,0,9.3,0,2.3,0c-7,0,8.3-0.6,9.9-4.7c1.8-4.6,8.6-3.7,3.9,3.1"/>
		<rect x="15" y="48.8" class="st6" width="340.5" height="120.6"/>
		<polygon class="st7" points="284.6,35.1 274.4,28 197.2,28 163.7,28 86.6,28 76.3,35.1 68.3,48.8 86.6,52.7 163.7,52.7 
			197.2,52.7 274.4,52.7 292.6,48.8 		"/>
		<path class="st8" d="M81.1,40c0,0,0.1-4.4-6.9-4.4c-7-0.1-9.1-0.2-7.4-4.2c1.8-4.6,9.2-4.5,13.1,0.9"/>
		<path class="st9" d="M77.5,47.5v-2.9c0-0.3,0.2-0.5,0.4-0.5h6.8c0.2,0,0.4,0.2,0.4,0.5v2.9H77.5z"/>
		<rect x="78.9" y="41.4" class="st9" width="4.7" height="3.8"/>
		<rect x="79.5" y="40" class="st9" width="3.7" height="2.2"/>
		<polyline class="st9" points="83.2,42.7 84.7,42.7 84.7,43.2 83.2,43.2 83.2,42.8 		"/>
		<path class="st9" d="M68.2,52.1l-1.6-2.5c-0.1-0.2-0.1-0.5,0.1-0.6l5.8-3.6c0.2-0.1,0.4,0,0.6,0.2l1.6,2.5L68.2,52.1z"/>
		
			<rect x="66.8" y="44.7" transform="matrix(0.8454 -0.5342 0.5342 0.8454 -14.1932 44.146)" class="st9" width="4.7" height="3.8"/>
		
			<rect x="66.1" y="43.6" transform="matrix(0.8454 -0.5342 0.5342 0.8454 -13.3711 43.2276)" class="st9" width="3.7" height="2.2"/>
		<path class="st9" d="M279.9,31.6l0.9-1.3c0.1-0.1,0.2-0.1,0.3-0.1l2.9,2.1c0.1,0.1,0.1,0.2,0,0.3l-0.9,1.3L279.9,31.6z"/>
		
			<rect x="281.8" y="29.7" transform="matrix(0.5762 -0.8173 0.8173 0.5762 94.5683 244.2561)" class="st9" width="2" height="2.5"/>
		<rect x="282.9" y="29" transform="matrix(0.5762 -0.8173 0.8173 0.5762 95.622 244.3977)" class="st9" width="1.1" height="1.9"/>
		<path class="st9" d="M287,38.6l1.3-0.8c0.1-0.1,0.3,0,0.3,0.1l1.8,3.1c0.1,0.1,0,0.2-0.1,0.3l-1.3,0.8L287,38.6z"/>
		<rect x="288.9" y="38" transform="matrix(0.8644 -0.5028 0.5028 0.8644 19.551 151.0756)" class="st9" width="2" height="2.5"/>
		
			<rect x="290.3" y="37.7" transform="matrix(0.8644 -0.5028 0.5028 0.8644 19.9897 151.5079)" class="st9" width="1.1" height="1.9"/>
		<polyline class="st9" points="70.4,45 71.7,44.2 71.9,44.7 70.7,45.5 70.5,45.1 		"/>
		<g>
			<polyline class="st10" points="331.1,168.9 331.1,154.4 321.7,154.4 321.7,168.9 			"/>
			<polyline class="st11" points="303.6,169.2 303.6,157.6 343.5,157.6 343.5,169.2 			"/>
			<path class="st0" d="M343.5,169.2v-11.6h-2.8v3c0,0-12,2-12,8.5"/>
			<polyline class="st12" points="339.3,72.7 339.3,165.9 357.2,165.9 357.2,72.7 			"/>
			<polyline class="st0" points="334.6,169.2 334.6,166.1 357.3,166.1 357.3,169.2 			"/>
			<path class="st1" d="M336,168.6v-1.4c0-0.3,0.2-0.5,0.5-0.5l0,0c0.3,0,0.5,0.2,0.5,0.5v1.4"/>
			<path class="st1" d="M339.2,168.6v-1.4c0-0.3,0.2-0.5,0.5-0.5l0,0c0.3,0,0.5,0.2,0.5,0.5v1.4"/>
			<path class="st1" d="M342.3,168.6v-1.4c0-0.3,0.2-0.5,0.5-0.5l0,0c0.3,0,0.5,0.2,0.5,0.5v1.4"/>
			<path class="st1" d="M345.4,168.6v-1.4c0-0.3,0.2-0.5,0.5-0.5l0,0c0.3,0,0.5,0.2,0.5,0.5v1.4"/>
			<path class="st1" d="M348.5,168.6v-1.4c0-0.3,0.2-0.5,0.5-0.5l0,0c0.3,0,0.5,0.2,0.5,0.5v1.4"/>
			<path class="st1" d="M351.7,168.6v-1.4c0-0.3,0.2-0.5,0.5-0.5l0,0c0.3,0,0.5,0.2,0.5,0.5v1.4"/>
			<path class="st1" d="M354.8,168.6v-1.4c0-0.3,0.2-0.5,0.5-0.5l0,0c0.3,0,0.5,0.2,0.5,0.5v1.4"/>
			<g>
				<g>
					<rect x="335.2" y="146.9" class="st13" width="1.4" height="7.5"/>
				</g>
				<g>
					<rect x="341.1" y="146.9" class="st14" width="1.4" height="7.5"/>
				</g>
				<g>
					<rect x="344" y="146.9" class="st14" width="1.4" height="7.5"/>
				</g>
				<g>
					<rect x="346.9" y="146.9" class="st14" width="1.4" height="7.5"/>
				</g>
				<g>
					<rect x="349.9" y="146.9" class="st14" width="1.4" height="7.5"/>
				</g>
				<g>
					<rect x="352.8" y="146.9" class="st14" width="1.4" height="7.5"/>
				</g>
				<g>
					<rect x="355.7" y="146.9" class="st14" width="1.4" height="7.5"/>
				</g>
			</g>
			<g>
				<rect x="321.7" y="154.4" class="st11" width="9.4" height="3.3"/>
			</g>
			<g>
				<rect x="307.4" y="146.9" class="st10" width="38.1" height="7.5"/>
			</g>
			<g>
				<g>
					<rect x="308.2" y="147.5" class="st0" width="1.3" height="6.3"/>
				</g>
				<g>
					<rect x="311.1" y="147.5" class="st0" width="1.3" height="6.3"/>
				</g>
				<g>
					<rect x="314.1" y="147.5" class="st0" width="1.3" height="6.3"/>
				</g>
				<g>
					<rect x="317" y="147.5" class="st0" width="1.3" height="6.3"/>
				</g>
				<g>
					<rect x="319.9" y="147.5" class="st0" width="1.3" height="6.3"/>
				</g>
				<g>
					<rect x="322.8" y="147.5" class="st0" width="1.3" height="6.3"/>
				</g>
				<g>
					<rect x="325.7" y="147.5" class="st0" width="1.3" height="6.3"/>
				</g>
				<g>
					<rect x="328.7" y="147.5" class="st0" width="1.3" height="6.3"/>
				</g>
				<g>
					<rect x="331.6" y="147.5" class="st0" width="1.3" height="6.3"/>
				</g>
				<g>
					<rect x="334.5" y="147.5" class="st0" width="1.3" height="6.3"/>
				</g>
				<g>
					<rect x="337.4" y="147.5" class="st0" width="1.3" height="6.3"/>
				</g>
				<g>
					<rect x="340.4" y="147.5" class="st0" width="1.3" height="6.3"/>
				</g>
				<g>
					<rect x="343.3" y="147.5" class="st0" width="1.3" height="6.3"/>
				</g>
			</g>
		</g>
		<g>
			<polyline class="st0" points="323.4,86.7 323.4,77.7 325.4,77.7 325.4,86.7 			"/>
			<polygon class="st1" points="325.4,79 323.4,79.5 323.4,79 325.4,78.6 			"/>
			<polygon class="st1" points="325.4,79.9 323.4,80.4 323.4,79.9 325.4,79.5 			"/>
			<polygon class="st1" points="325.4,80.8 323.4,81.3 323.4,80.8 325.4,80.4 			"/>
			<polyline class="st1" points="323.4,81.8 325.4,81.3 325.4,81.8 			"/>
			<polyline class="st2" points="322.6,82.3 322.6,80.7 326.3,80.7 326.3,82.3 			"/>
			<polyline class="st3" points="322.6,82.3 322.6,80.7 323.4,80.7 323.4,82.3 			"/>
			<polyline class="st3" points="325.5,82.3 325.5,80.7 326.3,80.7 326.3,82.3 			"/>
			<polyline class="st0" points="308.2,86.7 308.2,77.7 310.3,77.7 310.3,86.7 			"/>
			<polygon class="st1" points="310.3,79 308.2,79.5 308.2,79 310.3,78.6 			"/>
			<polygon class="st1" points="310.3,79.9 308.2,80.4 308.2,79.9 310.3,79.5 			"/>
			<polygon class="st1" points="310.3,80.8 308.2,81.3 308.2,80.8 310.3,80.4 			"/>
			<polyline class="st1" points="308.2,81.8 310.3,81.3 310.3,81.8 			"/>
			<polyline class="st2" points="307.4,82.3 307.4,80.7 311.1,80.7 311.1,82.3 			"/>
			<polyline class="st3" points="307.4,82.3 307.4,80.7 308.2,80.7 308.2,82.3 			"/>
			<polyline class="st3" points="310.3,82.3 310.3,80.7 311.1,80.7 311.1,82.3 			"/>
			<polyline class="st0" points="310.3,96.2 310.3,105.2 308.2,105.2 308.2,96.2 			"/>
			<polygon class="st1" points="308.2,103.9 310.3,103.5 310.3,103.9 308.2,104.4 			"/>
			<polygon class="st1" points="308.2,103 310.3,102.5 310.3,103 308.2,103.5 			"/>
			<polygon class="st1" points="308.2,102.1 310.3,101.6 310.3,102.1 308.2,102.5 			"/>
			<polyline class="st1" points="310.3,101.2 308.2,101.6 308.2,101.2 			"/>
			<polyline class="st2" points="311.1,100.7 311.1,102.2 307.4,102.2 307.4,100.7 			"/>
			<polyline class="st3" points="311.1,100.7 311.1,102.2 310.3,102.2 310.3,100.7 			"/>
			<polyline class="st3" points="308.2,100.7 308.2,102.2 307.4,102.2 307.4,100.7 			"/>
			<polyline class="st0" points="325.4,96.2 325.4,105.2 323.4,105.2 323.4,96.2 			"/>
			<polygon class="st1" points="323.4,103.9 325.4,103.5 325.4,103.9 323.4,104.4 			"/>
			<polygon class="st1" points="323.4,103 325.4,102.5 325.4,103 323.4,103.5 			"/>
			<polygon class="st1" points="323.4,102.1 325.4,101.6 325.4,102.1 323.4,102.5 			"/>
			<polyline class="st1" points="325.4,101.2 323.4,101.6 323.4,101.2 			"/>
			<polyline class="st2" points="326.3,100.7 326.3,102.2 322.6,102.2 322.6,100.7 			"/>
			<polyline class="st3" points="326.3,100.7 326.3,102.2 325.5,102.2 325.5,100.7 			"/>
			<polyline class="st3" points="323.4,100.7 323.4,102.2 322.6,102.2 322.6,100.7 			"/>
			<rect x="303.9" y="82.3" class="st15" width="26.2" height="18.5"/>
		</g>
		<g>
			<polyline class="st0" points="323.4,119.7 323.4,110.7 325.4,110.7 325.4,119.7 			"/>
			<polygon class="st1" points="325.4,112 323.4,112.4 323.4,112 325.4,111.5 			"/>
			<polygon class="st1" points="325.4,112.9 323.4,113.4 323.4,112.9 325.4,112.4 			"/>
			<polygon class="st1" points="325.4,113.8 323.4,114.3 323.4,113.8 325.4,113.4 			"/>
			<polyline class="st1" points="323.4,114.7 325.4,114.3 325.4,114.7 			"/>
			<polyline class="st2" points="322.6,115.2 322.6,113.7 326.3,113.7 326.3,115.2 			"/>
			<polyline class="st3" points="322.6,115.2 322.6,113.7 323.4,113.7 323.4,115.2 			"/>
			<polyline class="st3" points="325.5,115.2 325.5,113.7 326.3,113.7 326.3,115.2 			"/>
			<polyline class="st0" points="308.2,119.7 308.2,110.7 310.3,110.7 310.3,119.7 			"/>
			<polygon class="st1" points="310.3,112 308.2,112.4 308.2,112 310.3,111.5 			"/>
			<polygon class="st1" points="310.3,112.9 308.2,113.4 308.2,112.9 310.3,112.4 			"/>
			<polygon class="st1" points="310.3,113.8 308.2,114.3 308.2,113.8 310.3,113.4 			"/>
			<polyline class="st1" points="308.2,114.7 310.3,114.3 310.3,114.7 			"/>
			<polyline class="st2" points="307.4,115.2 307.4,113.7 311.1,113.7 311.1,115.2 			"/>
			<polyline class="st3" points="307.4,115.2 307.4,113.7 308.2,113.7 308.2,115.2 			"/>
			<polyline class="st3" points="310.3,115.2 310.3,113.7 311.1,113.7 311.1,115.2 			"/>
			<polyline class="st0" points="310.3,129.1 310.3,138.2 308.2,138.2 308.2,129.1 			"/>
			<polygon class="st1" points="308.2,136.9 310.3,136.4 310.3,136.9 308.2,137.3 			"/>
			<polygon class="st1" points="308.2,136 310.3,135.5 310.3,136 308.2,136.4 			"/>
			<polygon class="st1" points="308.2,135 310.3,134.6 310.3,135 308.2,135.5 			"/>
			<polyline class="st1" points="310.3,134.1 308.2,134.6 308.2,134.1 			"/>
			<polyline class="st2" points="311.1,133.6 311.1,135.1 307.4,135.1 307.4,133.6 			"/>
			<polyline class="st3" points="311.1,133.6 311.1,135.1 310.3,135.1 310.3,133.6 			"/>
			<polyline class="st3" points="308.2,133.6 308.2,135.1 307.4,135.1 307.4,133.6 			"/>
			<polyline class="st0" points="325.4,129.1 325.4,138.2 323.4,138.2 323.4,129.1 			"/>
			<polygon class="st1" points="323.4,136.9 325.4,136.4 325.4,136.9 323.4,137.3 			"/>
			<polygon class="st1" points="323.4,136 325.4,135.5 325.4,136 323.4,136.4 			"/>
			<polygon class="st1" points="323.4,135 325.4,134.6 325.4,135 323.4,135.5 			"/>
			<polyline class="st1" points="325.4,134.1 323.4,134.6 323.4,134.1 			"/>
			<polyline class="st2" points="326.3,133.6 326.3,135.1 322.6,135.1 322.6,133.6 			"/>
			<polyline class="st3" points="326.3,133.6 326.3,135.1 325.5,135.1 325.5,133.6 			"/>
			<polyline class="st3" points="323.4,133.6 323.4,135.1 322.6,135.1 322.6,133.6 			"/>
			<rect x="303.9" y="115.2" class="st15" width="26.2" height="18.5"/>
		</g>
		<polyline class="st12" points="361.3,68.7 361.3,71.5 335.2,71.5 335.2,68.7 		"/>
		<polyline class="st0" points="339.1,72.8 339.1,71.5 357.4,71.5 357.4,72.8 		"/>
		<path class="st1" d="M339.5,72.4v-0.5c0-0.1,0.1-0.2,0.2-0.2l0,0c0.1,0,0.2,0.1,0.2,0.2v0.5"/>
		<path class="st1" d="M340.5,72.4v-0.5c0-0.1,0.1-0.2,0.2-0.2l0,0c0.1,0,0.2,0.1,0.2,0.2v0.5"/>
		<path class="st1" d="M341.5,72.4v-0.5c0-0.1,0.1-0.2,0.2-0.2l0,0c0.1,0,0.2,0.1,0.2,0.2v0.5"/>
		<path class="st1" d="M342.5,72.4v-0.5c0-0.1,0.1-0.2,0.2-0.2l0,0c0.1,0,0.2,0.1,0.2,0.2v0.5"/>
		<path class="st1" d="M343.5,72.4v-0.5c0-0.1,0.1-0.2,0.2-0.2l0,0c0.1,0,0.2,0.1,0.2,0.2v0.5"/>
		<path class="st1" d="M344.5,72.4v-0.5c0-0.1,0.1-0.2,0.2-0.2l0,0c0.1,0,0.2,0.1,0.2,0.2v0.5"/>
		<path class="st1" d="M345.6,72.4v-0.5c0-0.1,0.1-0.2,0.2-0.2l0,0c0.1,0,0.2,0.1,0.2,0.2v0.5"/>
		<path class="st1" d="M346.6,72.4v-0.5c0-0.1,0.1-0.2,0.2-0.2l0,0c0.1,0,0.2,0.1,0.2,0.2v0.5"/>
		<path class="st1" d="M347.6,72.4v-0.5c0-0.1,0.1-0.2,0.2-0.2l0,0c0.1,0,0.2,0.1,0.2,0.2v0.5"/>
		<path class="st1" d="M348.6,72.4v-0.5c0-0.1,0.1-0.2,0.2-0.2l0,0c0.1,0,0.2,0.1,0.2,0.2v0.5"/>
		<path class="st1" d="M349.6,72.4v-0.5c0-0.1,0.1-0.2,0.2-0.2l0,0c0.1,0,0.2,0.1,0.2,0.2v0.5"/>
		<path class="st1" d="M350.6,72.4v-0.5c0-0.1,0.1-0.2,0.2-0.2l0,0c0.1,0,0.2,0.1,0.2,0.2v0.5"/>
		<path class="st1" d="M351.6,72.4v-0.5c0-0.1,0.1-0.2,0.2-0.2l0,0c0.1,0,0.2,0.1,0.2,0.2v0.5"/>
		<path class="st1" d="M352.6,72.4v-0.5c0-0.1,0.1-0.2,0.2-0.2l0,0c0.1,0,0.2,0.1,0.2,0.2v0.5"/>
		<path class="st1" d="M353.6,72.4v-0.5c0-0.1,0.1-0.2,0.2-0.2l0,0c0.1,0,0.2,0.1,0.2,0.2v0.5"/>
		<path class="st1" d="M354.6,72.4v-0.5c0-0.1,0.1-0.2,0.2-0.2l0,0c0.1,0,0.2,0.1,0.2,0.2v0.5"/>
		<path class="st1" d="M355.6,72.4v-0.5c0-0.1,0.1-0.2,0.2-0.2l0,0c0.1,0,0.2,0.1,0.2,0.2v0.5"/>
		<path class="st1" d="M356.6,72.4v-0.5c0-0.1,0.1-0.2,0.2-0.2l0,0c0.1,0,0.2,0.1,0.2,0.2v0.5"/>
		<path class="st16" d="M355.6,87.6v49.2c0,4.1-3.3,7.4-7.4,7.4l0,0c-4.1,0-7.4-3.3-7.4-7.4V87.6c0-4.1,3.3-7.4,7.4-7.4l0,0
			C352.3,80.2,355.6,83.5,355.6,87.6z"/>
		<g>
			<g>
				<g>
					<path class="st17" d="M345.3,98.5l1.2-0.3h1.8l1.6-0.1l1.8,0.1v41.4c0,0,0.1,0.8,0,0.9c-0.1,0-1.9,0.5-2,0.5
						c-0.1,0-3.4-0.3-3.5-0.3c-0.1,0-1.5-0.7-1.5-0.7l0.7-18l-0.1-23.4"/>
				</g>
				<g>
					<path class="st18" d="M345.3,98.5l1.2-0.3h1.8l1.6-0.1l1.8,0.1v41.4c0,0,0.1,0.8,0,0.9c-0.1,0-1.9,0.5-2,0.5
						c-0.1,0-3.4-0.3-3.5-0.3c-0.1,0-1.5-0.7-1.5-0.7l0.7-18l-0.1-23.4"/>
				</g>
			</g>
			<path class="st19" d="M348.4,112.7c0,0-0.1,1-0.7,1.6s-0.7,1.2-0.1,1.7c0.6,0.5,1.4-0.6,1.8,0.7c0.4,1.3-4.9,5.8-3.4,7.5
				c1.5,1.7,3.3,1.6,3.4,2.6c0.1,1,1.7,0.7,1.5,0.1c-0.2-0.6-1.3-1.5-1-2.1s1.7-2-0.1-2.4s-2.7,0.2-1.8-0.8s-0.4-2,1.1-2.7
				s2.6-1.3,1.4-2c-1.2-0.7-1.3-0.4-1.2-0.8s-1-1.6-0.5-2C349.2,113.6,350,112.5,348.4,112.7z"/>
			<path class="st19" d="M349.7,103.9c0,0-1.6,0-2.1,0.4s-1,0.8-0.5,1.7s0.5,0.7,0.1,1.2c-0.4,0.4-0.4,1.2,0,1.2
				c0.4,0.1,0.3,0.5,1-0.4c0.7-0.9,0.6-0.4,1.4-1C350.5,106.4,351.4,105.2,349.7,103.9z"/>
			<path class="st19" d="M349.7,134.8c0.4-0.8-2.7-1-3.1-0.2c-0.1,0.2-0.1,0.4-0.1,0.6c0.3,0.8,2.2,1.6,1.9,1.9
				c-0.3,0.3-0.4,1.2,0.6,1.1s0.8-0.1,1.4-0.2c0.6-0.1,0.4-1.7-0.3-1.8c-0.7-0.1-0.9-1-0.6-1.1C349.5,135,349.6,134.9,349.7,134.8z"
				/>
			<path class="st19" d="M347.9,132.8c0,0-0.1,0.4,0.3,0.4s2.3,0.3,1.9-0.2C349.7,132.5,348.9,132.6,347.9,132.8z"/>
		</g>
		<path class="st20" d="M354.1,86.4V138c0,1.8-2.2,4.5-4.9,4.5h-1.9c-2.7,0-4.9-2.8-4.9-4.5V86.4c0-1.8,2.2-4.5,4.9-4.5h1.9
			C351.9,81.9,354.1,84.6,354.1,86.4z M344.9,138c0,0.9,1.1,1.6,2.5,1.6h1.9c1.4,0,2.5-0.7,2.5-1.6V86.4c0-0.9-1.1-1.6-2.5-1.6h-1.9
			c-1.4,0-2.5,0.7-2.5,1.6V138z"/>
		<path class="st21" d="M351.8,86.7v50.9c0,1.3-1.7,2.4-3.7,2.4s-3.7-1.1-3.7-2.4V86.7c0-1.3,1.7-2.4,3.7-2.4S351.8,85.4,351.8,86.7
			z M345.8,137.6c0,0.8,1,1.5,2.3,1.5s2.3-0.7,2.3-1.5V86.7c0-0.8-1-1.5-2.3-1.5s-2.3,0.7-2.3,1.5V137.6z"/>
		<path class="st22" d="M354.1,91.8v51.9c0,1.8-2.2,3.2-4.9,3.2h-1.9c-2.7,0-4.9-1.4-4.9-3.2V91.8c0-1.8,2.2-3.2,4.9-3.2h1.9
			C351.9,88.6,354.1,90.1,354.1,91.8z M344.9,143.8c0,0.9,1.1,1.6,2.5,1.6h1.9c1.4,0,2.5-0.7,2.5-1.6V91.8c0-0.9-1.1-1.6-2.5-1.6
			h-1.9c-1.4,0-2.5,0.7-2.5,1.6V143.8z"/>
		<path class="st23" d="M350.4,137.4V86.9c0-0.9-0.8-1.7-1.7-1.7h-1.3c-0.9,0-1.7,0.8-1.7,1.7v50.5c0,0.9,0.8,1.7,1.7,1.7h1.3
			C349.7,139.1,350.4,138.3,350.4,137.4z"/>
		<g>
			<circle class="st24" cx="343.4" cy="89.2" r="0.7"/>
			<polygon class="st25" points="343.1,88.8 343.2,89.2 343.5,89.4 343.9,89.5 343.6,89.4 343.3,89.1 			"/>
		</g>
		<g>
			<circle class="st24" cx="353.3" cy="89.2" r="0.7"/>
			<polygon class="st25" points="352.9,88.8 353,89.2 353.3,89.4 353.7,89.5 353.4,89.4 353.1,89.1 			"/>
		</g>
		<g>
			<circle class="st24" cx="343.4" cy="135.1" r="0.7"/>
			<polygon class="st25" points="343.1,134.7 343.2,135.1 343.5,135.3 343.9,135.5 343.6,135.3 343.3,135 			"/>
		</g>
		<g>
			<circle class="st24" cx="353.3" cy="135.1" r="0.7"/>
			<polygon class="st25" points="352.9,134.7 353,135.1 353.3,135.3 353.7,135.5 353.4,135.3 353.1,135 			"/>
		</g>
		<g>
			<circle class="st24" cx="343.4" cy="111.9" r="0.7"/>
			<polygon class="st25" points="343.1,111.5 343.2,111.9 343.5,112.1 343.9,112.3 343.6,112.1 343.3,111.8 			"/>
		</g>
		<g>
			<circle class="st24" cx="353.3" cy="111.9" r="0.7"/>
			<polygon class="st25" points="352.9,111.5 353,111.9 353.3,112.1 353.7,112.3 353.4,112.1 353.1,111.8 			"/>
		</g>
		<g>
			<circle class="st24" cx="348.2" cy="83.2" r="0.7"/>
			<polygon class="st25" points="347.8,82.8 348,83.2 348.2,83.4 348.7,83.6 348.3,83.4 348.1,83.1 			"/>
		</g>
		<g>
			<circle class="st24" cx="348.2" cy="141.2" r="0.7"/>
			<polygon class="st25" points="347.8,140.8 348,141.2 348.2,141.4 348.7,141.6 348.3,141.4 348.1,141.1 			"/>
		</g>
		<rect x="346.8" y="78" class="st16" width="2.9" height="2.6"/>
		<path class="st16" d="M349.4,77.8V80c0,0.1-0.1,0.2-0.2,0.2h-1.9c-0.1,0-0.2-0.1-0.2-0.2v-2.2c0-0.1,0.1-0.2,0.2-0.2h1.9
			C349.3,77.6,349.4,77.7,349.4,77.8z"/>
		<rect x="347.4" y="76.8" class="st16" width="1.8" height="2.6"/>
		<rect x="345.7" y="77.8" class="st26" width="0.5" height="2.2"/>
		<rect x="346.2" y="78.8" class="st26" width="0.6" height="0.3"/>
		<rect x="346.2" y="78.8" class="st20" width="0.1" height="0.3"/>
		<g>
			<g>
				<g>
					<g>
						<defs>
							<path id="SVGID_1_" d="M350.5,137.4V86.9c0-0.9-0.8-1.7-1.7-1.7h-1.3c-0.9,0-1.7,0.8-1.7,1.7v50.5c0,0.9,0.8,1.7,1.7,1.7h1.3
								C349.8,139.1,350.5,138.3,350.5,137.4z"/>
						</defs>
						<clipPath id="SVGID_00000062160327755673514580000005148143910061976754_">
							<use xlink:href="#SVGID_1_"  style="overflow:visible;"/>
						</clipPath>
						
							<polyline style="opacity:0.4;clip-path:url(#SVGID_00000062160327755673514580000005148143910061976754_);fill:#FFFFFF;enable-background:new    ;" points="
							326,114.4 361.2,124.5 359.8,126.5 324.6,116.4 						"/>
					</g>
				</g>
			</g>
			<g>
				<g>
					<g>
						<defs>
							<path id="SVGID_00000054986809994124238210000010545613819607819654_" d="M350.5,137.4V86.9c0-0.9-0.8-1.7-1.7-1.7h-1.3
								c-0.9,0-1.7,0.8-1.7,1.7v50.5c0,0.9,0.8,1.7,1.7,1.7h1.3C349.8,139.1,350.5,138.3,350.5,137.4z"/>
						</defs>
						<clipPath id="SVGID_00000122717543031455136410000013037811526624895371_">
							<use xlink:href="#SVGID_00000054986809994124238210000010545613819607819654_"  style="overflow:visible;"/>
						</clipPath>
						
							<polyline style="opacity:0.4;clip-path:url(#SVGID_00000122717543031455136410000013037811526624895371_);fill:#FFFFFF;enable-background:new    ;" points="
							328.6,110.1 363.8,120.2 361.3,123.8 326.1,113.7 						"/>
					</g>
				</g>
			</g>
		</g>
		<path class="st29" d="M348.2,76.8c0,0,0-3.1-3.1-2.9c-3.7,0.3-12.9,4.7-14,0c-1.1-4.7,0.9-20.1,8.3-20.4c7.3-0.3,7,0,8,0.1"/>
		<g>
			<polygon class="st14" points="341.8,58.9 340,58.9 337.1,68.7 341.8,68.7 			"/>
			<polygon class="st14" points="354.7,58.9 356.5,58.9 359.4,68.7 354.7,68.7 			"/>
		</g>
		<path class="st12" d="M352.1,56.1v-1.2c0-2-1.5-3.8-3.6-4c-2.2-0.1-4.1,1.6-4.1,3.8v1.3c0,0.6-0.4,1.3-1,1.5c-1.8,0.6-3,2.3-3,4.3
			v6.8h15.7v-6.8c0-2-1.2-3.6-3-4.3C352.5,57.4,352.1,56.8,352.1,56.1z"/>
		<rect x="347.1" y="58.9" class="st30" width="2.3" height="9.8"/>
		<polygon class="st14" points="349.4,58.9 352.3,68.7 349.4,68.7 		"/>
		<circle class="st31" cx="353.3" cy="60" r="1.1"/>
		<polygon class="st14" points="353,60.5 352.7,60 353,59.5 353.6,59.5 354,60 353.6,60.5 		"/>
		<circle class="st31" cx="353.3" cy="66.1" r="1.1"/>
		<polygon class="st14" points="353,66.6 352.7,66.1 353,65.5 353.6,65.5 354,66.1 353.6,66.6 		"/>
		<path class="st31" d="M344.3,60c0,0.6-0.5,1.1-1.1,1.1c-0.6,0-1.1-0.5-1.1-1.1c0-0.6,0.5-1.1,1.1-1.1
			C343.8,58.9,344.3,59.4,344.3,60z"/>
		<polygon class="st14" points="342.9,60.5 342.6,60 342.9,59.5 343.5,59.5 343.8,60 343.5,60.5 		"/>
		<path class="st31" d="M344.3,66.1c0,0.6-0.5,1.1-1.1,1.1c-0.6,0-1.1-0.5-1.1-1.1s0.5-1.1,1.1-1.1S344.3,65.4,344.3,66.1z"/>
		<polygon class="st14" points="342.9,66.6 342.6,66.1 342.9,65.5 343.5,65.5 343.8,66.1 343.5,66.6 		"/>
		<g>
			<rect x="305.3" y="83.5" class="st1" width="23" height="0.6"/>
			<rect x="305.3" y="98.6" class="st1" width="23" height="0.6"/>
			<rect x="305.3" y="83.8" class="st1" width="0.6" height="15.4"/>
			<rect x="327.7" y="83.5" class="st1" width="0.6" height="15.7"/>
			<g>
				<rect x="306.8" y="84.8" class="st0" width="20.1" height="0.9"/>
				<rect x="306.8" y="86.8" class="st0" width="20.1" height="0.9"/>
				<rect x="306.8" y="88.8" class="st0" width="20.1" height="0.9"/>
				<rect x="306.8" y="90.8" class="st0" width="20.1" height="0.9"/>
				<rect x="306.8" y="92.9" class="st0" width="20.1" height="0.9"/>
				<rect x="306.8" y="94.9" class="st0" width="20.1" height="0.9"/>
				<rect x="306.8" y="96.9" class="st0" width="20.1" height="0.9"/>
			</g>
		</g>
		<g>
			<rect x="305.3" y="116.4" class="st1" width="23" height="0.6"/>
			<rect x="305.3" y="131.5" class="st1" width="23" height="0.6"/>
			<rect x="305.3" y="116.7" class="st1" width="0.6" height="15.4"/>
			<rect x="327.7" y="116.4" class="st1" width="0.6" height="15.7"/>
			<g>
				<rect x="306.8" y="117.7" class="st0" width="20.1" height="0.9"/>
				<rect x="306.8" y="119.8" class="st0" width="20.1" height="0.9"/>
				<rect x="306.8" y="121.8" class="st0" width="20.1" height="0.9"/>
				<rect x="306.8" y="123.8" class="st0" width="20.1" height="0.9"/>
				<rect x="306.8" y="125.8" class="st0" width="20.1" height="0.9"/>
				<rect x="306.8" y="127.8" class="st0" width="20.1" height="0.9"/>
				<rect x="306.8" y="129.8" class="st0" width="20.1" height="0.9"/>
			</g>
		</g>
		<polyline class="st32" points="317.8,144.5 317.8,142 314.2,140 305.6,140 305.6,137.3 300.1,137.3 		"/>
		<circle class="st1" cx="317.8" cy="144.7" r="0.6"/>
		<circle class="st1" cx="316.4" cy="102.5" r="0.6"/>
		<circle class="st1" cx="324.4" cy="107.7" r="0.6"/>
		<polyline class="st32" points="316.4,102.3 316.4,113.4 313.7,113.4 313.7,108.5 307.1,108.5 305.6,110 305.6,113.2 300.1,113.2 
					"/>
		<polyline class="st32" points="327.3,145.4 327.3,138.9 331.3,134.9 331.3,112.9 328.3,110 328.3,106.8 331.5,103.6 331.5,80.1 
			328.6,77.2 315,77.2 315,54.2 309.1,48.7 		"/>
		<rect x="308.1" y="48.5" class="st33" width="2.2" height="0.5"/>
		<line class="st32" x1="328.3" y1="107.7" x2="324.4" y2="107.7"/>
		<rect x="19.7" y="144.4" class="st16" width="16.5" height="0.4"/>
		<rect x="19.7" y="166.1" class="st16" width="16.5" height="0.4"/>
		<rect x="19.7" y="144.4" class="st16" width="0.4" height="22.1"/>
		<rect x="35.8" y="144.4" class="st16" width="0.4" height="22.1"/>
		<path class="st10" d="M34.1,155.5c0,0.7-0.6,1.3-1.3,1.3c-0.7,0-1.3-0.6-1.3-1.3s0.6-1.3,1.3-1.3
			C33.6,154.2,34.1,154.8,34.1,155.5z"/>
		<g>
			<path class="st1" d="M32.8,156.4c-0.5,0-0.9-0.4-0.9-0.9s0.4-0.9,0.9-0.9s0.9,0.4,0.9,0.9S33.4,156.4,32.8,156.4z M32.8,154.7
				c-0.4,0-0.8,0.4-0.8,0.8c0,0.4,0.4,0.8,0.8,0.8s0.8-0.4,0.8-0.8C33.6,155,33.3,154.7,32.8,154.7z"/>
		</g>
		<rect x="32.7" y="155" class="st1" width="0.2" height="0.9"/>
		<g>
			<polygon class="st34" points="27.7,150.6 30,150.6 27.3,154.6 30.4,153.9 26.2,160.3 27.9,155.5 25.4,156.6 			"/>
		</g>
		<g>
			<g>
				<path class="st10" d="M19.9,151.7L19.9,151.7c0.2,0,0.4-0.2,0.4-0.4v-3.7c0-0.2-0.2-0.4-0.4-0.4l0,0c-0.2,0-0.4,0.2-0.4,0.4v3.7
					C19.5,151.5,19.7,151.7,19.9,151.7z"/>
				<rect x="19.5" y="149.3" class="st1" width="0.8" height="0.2"/>
			</g>
			<g>
				<path class="st10" d="M19.9,163.7L19.9,163.7c0.2,0,0.4-0.2,0.4-0.4v-3.7c0-0.2-0.2-0.4-0.4-0.4l0,0c-0.2,0-0.4,0.2-0.4,0.4v3.7
					C19.5,163.5,19.7,163.7,19.9,163.7z"/>
				<rect x="19.5" y="161.4" class="st1" width="0.8" height="0.2"/>
			</g>
		</g>
		<path class="st16" d="M298.1,59.6H65.5l0,0c0-6.7,5.5-12.2,12.2-12.2h208.2C292.6,47.5,298.1,52.9,298.1,59.6L298.1,59.6z"/>
		<g>
			<circle class="st24" cx="72.1" cy="51.3" r="1"/>
			<polygon class="st25" points="72.7,50.8 72.2,51 71.8,51.4 71.7,52 71.9,51.5 72.2,51.1 			"/>
		</g>
		<g>
			<circle class="st24" cx="86.7" cy="49.1" r="1"/>
			<polygon class="st25" points="87.2,48.6 86.7,48.8 86.4,49.2 86.2,49.8 86.5,49.3 86.8,48.9 			"/>
		</g>
		<g>
			<circle class="st24" cx="113.7" cy="49.1" r="1"/>
			<polygon class="st25" points="114.3,48.6 113.8,48.8 113.4,49.2 113.3,49.8 113.5,49.3 113.8,48.9 			"/>
		</g>
		<g>
			<circle class="st24" cx="140.8" cy="49.1" r="1"/>
			<polygon class="st25" points="141.3,48.6 140.8,48.8 140.5,49.2 140.3,49.8 140.5,49.3 140.9,48.9 			"/>
		</g>
		<g>
			<circle class="st24" cx="167.8" cy="49.1" r="1"/>
			<polygon class="st25" points="168.3,48.6 167.8,48.8 167.5,49.2 167.3,49.8 167.6,49.3 167.9,48.9 			"/>
		</g>
		<g>
			<circle class="st24" cx="194.8" cy="49.1" r="1"/>
			<polygon class="st25" points="195.3,48.6 194.8,48.8 194.5,49.2 194.3,49.8 194.6,49.3 194.9,48.9 			"/>
		</g>
		<g>
			<circle class="st24" cx="221.8" cy="49.1" r="1"/>
			<polygon class="st25" points="222.4,48.6 221.9,48.8 221.5,49.2 221.4,49.8 221.6,49.3 221.9,48.9 			"/>
		</g>
		<g>
			<circle class="st24" cx="248.9" cy="49.1" r="1"/>
			<polygon class="st25" points="249.4,48.6 248.9,48.8 248.6,49.2 248.4,49.8 248.6,49.3 249,48.9 			"/>
		</g>
		<g>
			<circle class="st24" cx="275.9" cy="49.1" r="1"/>
			<polygon class="st25" points="276.4,48.6 275.9,48.8 275.6,49.2 275.4,49.8 275.7,49.3 276,48.9 			"/>
		</g>
		<g>
			<circle class="st24" cx="290.7" cy="51.3" r="1"/>
			<polygon class="st25" points="291.2,50.8 290.7,51 290.3,51.4 290.2,52 290.4,51.5 290.7,51.1 			"/>
		</g>
		<path class="st21" d="M285.9,57.2H79.1c-1.7,0-3.1-1.4-3.1-3.1l0,0c0-1.7,1.4-3.1,3.1-3.1h206.8c1.7,0,3.1,1.4,3.1,3.1l0,0
			C289,55.8,287.6,57.2,285.9,57.2z"/>
		<path class="st35" d="M286.5,55h-207c-0.6,0-1.2-0.5-1.2-1.2l0,0c0-0.6,0.5-1.2,1.2-1.2h207c0.6,0,1.2,0.5,1.2,1.2l0,0
			C287.7,54.5,287.2,55,286.5,55z"/>
		<path class="st36" d="M67.4,43.8c0,0-2.4-3.8-2.1-3.3c1.6,2.6,4.3-9.1,8.7-7.7c4.4,1.4,1.3-8.7,6.1-8c4.8,0.6,3.1,3.1,4.1,4.6"/>
		<path class="st37" d="M75.6,27.9c0,0,1.1,0.3,2.6,1.4c0.2,0.1-0.5,2.1-0.5,2.1s-2.1-1.5-2.7-1.7C74.5,29.5,75.6,27.9,75.6,27.9"/>
		<circle class="st38" cx="314.8" cy="60.1" r="5.1"/>
		<circle class="st39" cx="314.8" cy="60.1" r="5.1"/>
		<g>
			<g>
				<g>
					<g>
						<defs>
							<circle id="SVGID_00000159471642906773488340000014405038614267429530_" cx="312.4" cy="56.5" r="4.7"/>
						</defs>
						<clipPath id="SVGID_00000121969334282221115950000003656954502875655577_">
							<use xlink:href="#SVGID_00000159471642906773488340000014405038614267429530_"  style="overflow:visible;"/>
						</clipPath>
						
							<rect x="306.5" y="58" transform="matrix(0.2743 -0.9616 0.9616 0.2743 170.3976 343.5274)" style="opacity:0.26;clip-path:url(#SVGID_00000121969334282221115950000003656954502875655577_);fill:#FFFFFF;enable-background:new    ;" width="12.6" height="1.7"/>
					</g>
				</g>
			</g>
			<g>
				<g>
					<g>
						<defs>
							<circle id="SVGID_00000040560480500044727600000008526096020259391629_" cx="314.6" cy="58.3" r="4.7"/>
						</defs>
						<clipPath id="SVGID_00000155828451419312828060000002908789846117093788_">
							<use xlink:href="#SVGID_00000040560480500044727600000008526096020259391629_"  style="overflow:visible;"/>
						</clipPath>
						
							<rect x="308" y="58.8" transform="matrix(0.2743 -0.9616 0.9616 0.2743 171.0782 345.2698)" style="opacity:0.26;clip-path:url(#SVGID_00000155828451419312828060000002908789846117093788_);fill:#FFFFFF;enable-background:new    ;" width="12.6" height="0.9"/>
					</g>
				</g>
			</g>
		</g>
		<circle class="st42" cx="314.8" cy="70.6" r="3.4"/>
		<circle class="st43" cx="314.8" cy="70.6" r="3.4"/>
		<g>
			<g>
				<g>
					<g>
						<defs>
							<circle id="SVGID_00000084515163615632838570000000756865381890037899_" cx="313.2" cy="68.2" r="3.1"/>
						</defs>
						<clipPath id="SVGID_00000126324200160825862180000002537658598948103083_">
							<use xlink:href="#SVGID_00000084515163615632838570000000756865381890037899_"  style="overflow:visible;"/>
						</clipPath>
						
							<rect x="309.3" y="69.2" transform="matrix(0.2743 -0.9616 0.9616 0.2743 160.3495 352.1017)" style="opacity:0.26;clip-path:url(#SVGID_00000126324200160825862180000002537658598948103083_);fill:#FFFFFF;enable-background:new    ;" width="8.4" height="1.1"/>
					</g>
				</g>
			</g>
			<g>
				<g>
					<g>
						<defs>
							<circle id="SVGID_00000052783531905608866400000016719543814152562086_" cx="314.6" cy="69.4" r="3.1"/>
						</defs>
						<clipPath id="SVGID_00000011001295733363739550000012359222652847268505_">
							<use xlink:href="#SVGID_00000052783531905608866400000016719543814152562086_"  style="overflow:visible;"/>
						</clipPath>
						
							<rect x="310.3" y="69.8" transform="matrix(0.2743 -0.9616 0.9616 0.2743 160.8064 353.2372)" style="opacity:0.26;clip-path:url(#SVGID_00000011001295733363739550000012359222652847268505_);fill:#FFFFFF;enable-background:new    ;" width="8.4" height="0.6"/>
					</g>
				</g>
			</g>
		</g>
		<g>
			<path class="st46" d="M318.1,53.6c0,0.5-0.4,0.9-0.9,0.9c-0.5,0-0.9-0.4-0.9-0.9s0.4-0.9,0.9-0.9C317.7,52.6,318.1,53,318.1,53.6
				z"/>
			<polygon class="st47" points="316.9,54 316.7,53.6 316.9,53.1 317.4,53.1 317.7,53.6 317.4,54 			"/>
		</g>
		<g>
			<path class="st46" d="M313,53.6c0,0.5-0.4,0.9-0.9,0.9c-0.5,0-0.9-0.4-0.9-0.9s0.4-0.9,0.9-0.9C312.6,52.6,313,53,313,53.6z"/>
			<polygon class="st47" points="311.8,54 311.5,53.6 311.8,53.1 312.3,53.1 312.6,53.6 312.3,54 			"/>
		</g>
		<g>
			<path class="st46" d="M320.3,66.5c0,0.5-0.4,0.9-0.9,0.9c-0.5,0-0.9-0.4-0.9-0.9s0.4-0.9,0.9-0.9C319.9,65.6,320.3,66,320.3,66.5
				z"/>
			<polygon class="st47" points="319.1,67 318.8,66.5 319.1,66.1 319.6,66.1 319.9,66.5 319.6,67 			"/>
		</g>
		<g>
			<path class="st46" d="M311,66.5c0,0.5-0.4,0.9-0.9,0.9c-0.5,0-0.9-0.4-0.9-0.9s0.4-0.9,0.9-0.9C310.6,65.6,311,66,311,66.5z"/>
			<polygon class="st47" points="309.8,67 309.6,66.5 309.8,66.1 310.3,66.1 310.6,66.5 310.3,67 			"/>
		</g>
		<g>
			<g>
				<path class="st1" d="M46,103.1c-5.4,0-9.8-4.4-9.8-9.8c0-5.4,4.4-9.8,9.8-9.8s9.8,4.4,9.8,9.8C55.9,98.7,51.5,103.1,46,103.1z"
					/>
			</g>
			<g>
				<polygon class="st1" points="57.1,93.7 57.1,93.6 57.1,92.9 57.1,92.8 55.1,92 55.1,92.9 55.1,93.6 55.1,94.5 				"/>
			</g>
			<g>
				<polygon class="st1" points="56.8,91 56.8,90.8 56.6,90.2 56.6,90.1 54.5,89.8 54.7,90.7 54.9,91.3 55.1,92.2 				"/>
			</g>
			<g>
				<polygon class="st1" points="55.9,88.3 55.9,88.2 55.6,87.7 55.5,87.5 53.4,87.8 53.8,88.6 54.1,89.2 54.6,90 				"/>
			</g>
			<g>
				<polygon class="st1" points="54.4,86 54.3,85.9 53.9,85.5 53.8,85.4 51.8,86.2 52.4,86.8 52.8,87.3 53.5,88 				"/>
			</g>
			<g>
				<polygon class="st1" points="52.3,84.2 52.2,84.1 51.7,83.8 51.5,83.7 49.8,84.9 50.6,85.4 51.1,85.8 51.9,86.3 				"/>
			</g>
			<g>
				<polygon class="st1" points="49.9,82.9 49.7,82.9 49.1,82.7 49,82.6 47.6,84.3 48.5,84.5 49.1,84.7 50,85 				"/>
			</g>
			<g>
				<polygon class="st1" points="47.2,82.3 47,82.3 46.4,82.2 46.3,82.2 45.3,84.1 46.3,84.2 46.9,84.2 47.8,84.3 				"/>
			</g>
			<g>
				<polygon class="st1" points="44.4,82.3 44.3,82.3 43.6,82.5 43.5,82.5 43.1,84.6 44,84.4 44.6,84.3 45.6,84.1 				"/>
			</g>
			<g>
				<polygon class="st1" points="41.7,83.1 41.6,83.1 41,83.4 40.9,83.5 41,85.6 41.9,85.2 42.5,84.9 43.3,84.5 				"/>
			</g>
			<g>
				<polygon class="st1" points="39.3,84.4 39.2,84.6 38.7,84.9 38.6,85 39.3,87.1 40,86.5 40.5,86.1 41.2,85.5 				"/>
			</g>
			<g>
				<polygon class="st1" points="37.4,86.4 37.3,86.5 36.9,87 36.8,87.1 38,88.9 38.5,88.2 38.9,87.7 39.4,86.9 				"/>
			</g>
			<g>
				<polygon class="st1" points="35.9,88.8 35.9,88.9 35.6,89.5 35.6,89.6 37.1,91.1 37.5,90.2 37.7,89.6 38.1,88.8 				"/>
			</g>
			<g>
				<polygon class="st1" points="35.1,91.4 35.1,91.6 35,92.2 35,92.3 36.9,93.4 37,92.4 37.1,91.8 37.2,90.9 				"/>
			</g>
			<g>
				<polygon class="st1" points="35,94.2 35,94.3 35.1,95 35.1,95.1 37.2,95.6 37.1,94.7 37,94.1 36.9,93.1 				"/>
			</g>
			<g>
				<polygon class="st1" points="35.6,96.9 35.6,97 35.9,97.6 35.9,97.8 38.1,97.8 37.7,96.9 37.5,96.3 37.1,95.4 				"/>
			</g>
			<g>
				<polygon class="st1" points="36.8,99.4 36.9,99.5 37.3,100 37.4,100.1 39.4,99.6 38.9,98.8 38.5,98.3 38,97.6 				"/>
			</g>
			<g>
				<polygon class="st1" points="38.6,101.5 38.7,101.6 39.2,102 39.3,102.1 41.2,101 40.5,100.4 40,100 39.3,99.4 				"/>
			</g>
			<g>
				<polygon class="st1" points="40.9,103 41,103.1 41.6,103.4 41.7,103.5 43.3,102 42.5,101.6 41.9,101.3 41,100.9 				"/>
			</g>
			<g>
				<polygon class="st1" points="43.5,104 43.6,104 44.3,104.2 44.4,104.2 45.6,102.4 44.6,102.2 44,102.1 43.1,101.9 				"/>
			</g>
			<g>
				<polygon class="st1" points="46.3,104.3 46.4,104.3 47,104.3 47.2,104.2 47.8,102.2 46.9,102.3 46.3,102.3 45.3,102.4 				"/>
			</g>
			<g>
				<polygon class="st1" points="49,103.9 49.1,103.9 49.7,103.7 49.9,103.6 50,101.5 49.1,101.8 48.5,102 47.6,102.3 				"/>
			</g>
			<g>
				<polygon class="st1" points="51.5,102.8 51.7,102.7 52.2,102.4 52.3,102.3 51.9,100.2 51.1,100.7 50.6,101.1 49.8,101.6 				"/>
			</g>
			<g>
				<polygon class="st1" points="53.8,101.2 53.9,101 54.3,100.6 54.4,100.5 53.5,98.6 52.8,99.2 52.4,99.7 51.8,100.4 				"/>
			</g>
			<g>
				<polygon class="st1" points="55.5,99 55.6,98.9 55.9,98.3 55.9,98.2 54.6,96.5 54.1,97.3 53.8,97.9 53.4,98.7 				"/>
			</g>
			<g>
				<polygon class="st1" points="56.6,96.4 56.6,96.3 56.8,95.7 56.8,95.5 55.1,94.3 54.9,95.2 54.7,95.8 54.5,96.7 				"/>
			</g>
			<g>
				<path class="st0" d="M46,100.6c-4,0-7.3-3.3-7.3-7.3c0-4,3.3-7.3,7.3-7.3s7.3,3.3,7.3,7.3C53.3,97.3,50.1,100.6,46,100.6z"/>
			</g>
			<g>
				<rect x="14.5" y="75.4" class="st48" width="15.6" height="35.7"/>
			</g>
			<g>
				<rect x="16.4" y="111.1" class="st14" width="10.5" height="4"/>
			</g>
			<g>
				<rect x="32" y="97.3" class="st14" width="4.2" height="3.2"/>
			</g>
			<g>
				<rect x="32" y="85.9" class="st14" width="4.2" height="3.2"/>
			</g>
			<g>
				<rect x="14.6" y="71.4" class="st14" width="12.3" height="4"/>
			</g>
			<g>
				<path class="st12" d="M50.1,93.2c0-2.3-1.8-4.1-4.1-4.1H30.1v8.2H46C48.3,97.3,50.1,95.5,50.1,93.2z"/>
			</g>
			<g>
				<path class="st1" d="M46,95.3c-1.1,0-2.1-0.9-2.1-2.1s0.9-2.1,2.1-2.1s2.1,0.9,2.1,2.1C48.1,94.4,47.2,95.3,46,95.3z"/>
			</g>
		</g>
		<path class="st49" d="M13,52.4h41.5v-4c0-0.2-0.6-0.4-1.5-0.4H14.4c-0.8,0-1.5,0.2-1.5,0.4V52.4z"/>
		<path class="st1" d="M43.9,48.3c0,0.1,0.1,0.2,0.2,0.2c0.1,0,0.2-0.1,0.2-0.2c0-0.1-0.1-0.2-0.2-0.2C44,48.1,43.9,48.2,43.9,48.3z
			"/>
		<path class="st1" d="M48.9,48.3c0,0.1,0.1,0.2,0.2,0.2c0.1,0,0.2-0.1,0.2-0.2c0-0.1-0.1-0.2-0.2-0.2C49,48.1,48.9,48.2,48.9,48.3z
			"/>
		<circle class="st1" cx="53.9" cy="48.3" r="0.2"/>
		<path class="st1" d="M29.2,48.3c0,0.1,0.1,0.2,0.2,0.2c0.1,0,0.2-0.1,0.2-0.2c0-0.1-0.1-0.2-0.2-0.2
			C29.3,48.1,29.2,48.2,29.2,48.3z"/>
		<path class="st1" d="M34.2,48.3c0,0.1,0.1,0.2,0.2,0.2c0.1,0,0.2-0.1,0.2-0.2c0-0.1-0.1-0.2-0.2-0.2S34.2,48.2,34.2,48.3z"/>
		<circle class="st1" cx="39.1" cy="48.3" r="0.2"/>
		<path class="st1" d="M13.7,48.3c0,0.1,0.1,0.2,0.2,0.2c0.1,0,0.2-0.1,0.2-0.2c0-0.1-0.1-0.2-0.2-0.2
			C13.8,48.1,13.7,48.2,13.7,48.3z"/>
		<path class="st1" d="M18.7,48.3c0,0.1,0.1,0.2,0.2,0.2c0.1,0,0.2-0.1,0.2-0.2c0-0.1-0.1-0.2-0.2-0.2
			C18.8,48.1,18.7,48.2,18.7,48.3z"/>
		<circle class="st1" cx="23.7" cy="48.3" r="0.2"/>
		<rect x="12.2" y="51.8" class="st11" width="43" height="0.6"/>
		<g>
			<rect x="52.2" y="49.5" class="st11" width="0.6" height="2.3"/>
			<rect x="48.8" y="49.5" class="st11" width="0.6" height="2.3"/>
			<rect x="45.4" y="49.5" class="st11" width="0.6" height="2.3"/>
		</g>
		<polygon class="st14" points="52.2,49.5 51.6,51.8 52.2,51.8 		"/>
		<polygon class="st14" points="48.8,49.5 48.2,51.8 48.8,51.8 		"/>
		<polygon class="st14" points="45.4,49.5 44.8,51.8 45.4,51.8 		"/>
		<g>
			<rect x="41.7" y="49.5" class="st11" width="0.6" height="2.3"/>
			<rect x="38.3" y="49.5" class="st11" width="0.6" height="2.3"/>
			<rect x="34.9" y="49.5" class="st11" width="0.6" height="2.3"/>
		</g>
		<polygon class="st14" points="41.7,49.5 41.1,51.8 41.7,51.8 		"/>
		<polygon class="st14" points="38.3,49.5 37.7,51.8 38.3,51.8 		"/>
		<polygon class="st14" points="34.9,49.5 34.3,51.8 34.9,51.8 		"/>
		<g>
			<rect x="31.1" y="49.5" class="st11" width="0.6" height="2.3"/>
			<rect x="27.6" y="49.5" class="st11" width="0.6" height="2.3"/>
			<rect x="24.2" y="49.5" class="st11" width="0.6" height="2.3"/>
		</g>
		<polygon class="st14" points="31.1,49.5 30.4,51.8 31.1,51.8 		"/>
		<polygon class="st14" points="27.6,49.5 27,51.8 27.6,51.8 		"/>
		<polygon class="st14" points="24.2,49.5 23.6,51.8 24.2,51.8 		"/>
		<g>
			<rect x="21.1" y="49.5" class="st11" width="0.6" height="2.3"/>
			<rect x="17.7" y="49.5" class="st11" width="0.6" height="2.3"/>
			<rect x="14.2" y="49.5" class="st11" width="0.6" height="2.3"/>
		</g>
		<polygon class="st14" points="21.1,49.5 20.5,51.8 21.1,51.8 		"/>
		<polygon class="st14" points="17.7,49.5 17.1,51.8 17.7,51.8 		"/>
		<polygon class="st14" points="14.2,49.5 13.6,51.8 14.2,51.8 		"/>
		<polygon class="st14" points="14.5,49.5 14.2,49.5 13.8,51.8 14.5,51.8 		"/>
		<polygon class="st14" points="54.4,49.5 54.7,49.5 55.2,51.8 54.4,51.8 		"/>
		<polyline class="st32" points="18.7,69.1 35.6,69.1 35.6,74 39.7,78 		"/>
		<circle class="st1" cx="18.4" cy="69.1" r="0.6"/>
		<circle class="st1" cx="39.9" cy="78.2" r="0.6"/>
		<circle class="st1" cx="33.9" cy="119" r="0.6"/>
		<circle class="st1" cx="36.8" cy="114" r="0.6"/>
		<polygon class="st50" points="18.2,77.2 27.9,77.2 28.1,77.6 18,77.6 		"/>
		<polygon class="st50" points="18.2,77.8 27.9,77.8 28.1,78.2 18,78.2 		"/>
		<polygon class="st50" points="18.2,78.4 27.9,78.4 28.1,78.8 18,78.8 		"/>
		<polygon class="st50" points="18.2,79 27.9,79 28.1,79.4 18,79.4 		"/>
		<polygon class="st50" points="18.2,79.6 27.9,79.6 28.1,79.9 18,79.9 		"/>
		<polygon class="st50" points="18.2,80.2 27.9,80.2 28.1,80.5 18,80.5 		"/>
		<polygon class="st50" points="18.2,106 27.9,106 28.1,106.4 18,106.4 		"/>
		<polygon class="st50" points="18.2,106.6 27.9,106.6 28.1,106.9 18,106.9 		"/>
		<polygon class="st50" points="18.2,107.2 27.9,107.2 28.1,107.5 18,107.5 		"/>
		<polygon class="st50" points="18.2,107.7 27.9,107.7 28.1,108.1 18,108.1 		"/>
		<polygon class="st50" points="18.2,108.3 27.9,108.3 28.1,108.7 18,108.7 		"/>
		<polygon class="st50" points="18.2,108.9 27.9,108.9 28.1,109.3 18,109.3 		"/>
		<rect x="20" y="82.3" class="st1" width="6.2" height="6.2"/>
		<rect x="20.5" y="82.9" class="st51" width="5" height="5"/>
		<polygon class="st1" points="23.6,84.4 22.5,88.1 23.2,88.2 		"/>
		<rect x="20" y="90.1" class="st1" width="6.2" height="6.2"/>
		<rect x="20.5" y="90.6" class="st51" width="5" height="5"/>
		<polygon class="st1" points="25.5,93.5 22.3,95.7 22.8,96.3 		"/>
		<rect x="20" y="97.7" class="st1" width="6.2" height="6.2"/>
		<rect x="20.5" y="98.2" class="st51" width="5" height="5"/>
		<polygon class="st1" points="22.1,99.9 22.9,103.7 23.6,103.4 		"/>
		<rect x="357.2" y="71.5" class="st52" width="1.5" height="97.7"/>
		<polyline class="st0" points="39,119.2 39,126.8 40.8,126.8 40.8,119.2 		"/>
		<g>
			<polygon class="st1" points="39,120.3 40.8,120.7 40.8,120.3 39,119.9 			"/>
			<polygon class="st1" points="39,121.1 40.8,121.5 40.8,121.1 39,120.7 			"/>
			<polygon class="st1" points="39,121.8 40.8,122.2 40.8,121.8 39,121.5 			"/>
			<polygon class="st1" points="39,122.6 40.8,123 40.8,122.6 39,122.2 			"/>
			<polygon class="st1" points="39,123.4 40.8,123.8 40.8,123.4 39,123 			"/>
			<polygon class="st1" points="39,124.2 40.8,124.5 40.8,124.2 39,123.8 			"/>
			<polygon class="st1" points="39,124.9 40.8,125.3 40.8,124.9 39,124.5 			"/>
			<polygon class="st1" points="39,125.7 40.8,126.1 40.8,125.7 39,125.3 			"/>
		</g>
		<polyline class="st2" points="38.3,123 41.4,123 41.4,121.8 38.3,121.8 		"/>
		<rect x="40.8" y="121.8" class="st3" width="0.7" height="1.3"/>
		<polyline class="st3" points="38.3,123 39,123 39,121.8 38.3,121.8 		"/>
		<polyline class="st53" points="45.9,141.4 14.6,141.4 14.6,137.5 45.9,137.5 		"/>
		<polyline class="st0" points="40.8,149.1 40.8,141.4 39,141.4 39,149.1 		"/>
		<g>
			<polygon class="st1" points="39,142.5 40.8,142.9 40.8,142.5 39,142.1 			"/>
			<polygon class="st1" points="39,143.3 40.8,143.7 40.8,143.3 39,142.9 			"/>
			<polygon class="st1" points="39,144.1 40.8,144.5 40.8,144.1 39,143.7 			"/>
			<polygon class="st1" points="39,144.8 40.8,145.2 40.8,144.8 39,144.5 			"/>
			<polygon class="st1" points="39,145.6 40.8,146 40.8,145.6 39,145.2 			"/>
			<polygon class="st1" points="39,146.4 40.8,146.8 40.8,146.4 39,146 			"/>
			<polygon class="st1" points="39,147.2 40.8,147.6 40.8,147.2 39,146.8 			"/>
			<polygon class="st1" points="39,147.9 40.8,148.3 40.8,147.9 39,147.6 			"/>
		</g>
		<polyline class="st14" points="38.2,142.4 41.6,142.4 41.6,141.4 38.2,141.4 		"/>
		<polyline class="st14" points="38.2,149.7 41.6,149.7 41.6,148.8 38.2,148.8 		"/>
		<path class="st54" d="M38.2,123h3.4c0.3,0,0.6,0.3,0.6,0.6v13.9h-4.6"/>
		<polyline class="st14" points="37.6,136.6 42.2,136.6 42.2,137.5 37.6,137.5 		"/>
		<rect x="45.7" y="137.4" class="st33" width="0.2" height="4"/>
		<g>
			<g>
				<g>
					<polygon class="st55" points="24.1,138.2 26,139.8 27.8,139.4 29.7,138.6 29.8,138.4 26.9,136.8 24.6,137.1 24,138.1 					"/>
				</g>
			</g>
			<polygon class="st56" points="26.9,137 26,139.8 24,138.2 24.6,137.1 			"/>
			<polyline class="st57" points="26,139.8 27.4,138.8 28.9,138.1 29.7,138.6 27.8,139.4 			"/>
		</g>
		<g>
			<g>
				<g>
					<polygon class="st55" points="34.2,133.7 35.3,131.7 34.6,130.1 33.7,128.7 33.4,128.6 32.5,131.4 33.1,133.4 34.1,133.7 					
						"/>
				</g>
			</g>
			<polygon class="st57" points="32.7,131.3 35.3,131.7 34.2,133.7 32.9,134.1 			"/>
			<polyline class="st56" points="35.3,131.7 34.2,130.6 33.3,129.4 33.7,128.7 34.6,130.1 			"/>
		</g>
		<g>
			<g>
				<polygon class="st55" points="20.4,128.9 18.8,130.9 19.2,132.7 19.9,134.5 20.1,134.7 21.8,131.8 21.4,129.4 20.5,128.9 				
					"/>
			</g>
		</g>
		<path class="st58" d="M34.1,124.8l0.4,1.8l-0.2,0.8l-0.4,1v0.4l-0.4,0.3l-0.2,0.3v0.4l0.1,0.4l-0.2,0.4l0,0.4l0.1,0.4l-0.1,0.4
			c0,0,0.1,0.1,0.2,0.2c0.1,0.1,0.1,0.1,0.1,0.1s-0.1,0.2-0.1,0.3c0,0.1-0.2,0.2-0.2,0.2l0.4,0.7l0.5,1.4l-0.2,1.3l0.1,1.9l-0.7,1.1
			l-1.2-1.1l-2.4-5.1l3.6-7.6L34.1,124.8z"/>
		<polygon class="st59" points="21.3,124.8 20.1,125.8 22.2,125.8 24.8,127 26.7,126.9 28.2,125.7 29.7,125.9 33.2,125.8 
			34.1,124.8 29,124.4 27.1,124.6 24.1,124.8 		"/>
		<polygon class="st56" points="21.5,131.8 18.8,130.9 20.4,128.9 21.4,129.5 		"/>
		<polygon class="st1" points="19.9,138.8 20.3,139 22.3,138.8 24.6,139 25.5,137.9 27.6,138.2 28.4,139.3 29.9,139.1 31.5,139 
			32.6,139.2 33.2,139 33.2,137.7 33.1,135.8 32.9,135.3 32.8,133.6 33,133.2 32.1,132 32.5,128.5 33.1,127.5 33.3,126.3 
			33.2,125.8 32.2,125.8 29.7,125.9 28.2,125.7 26.7,126.9 24.8,127 22.2,125.8 20.1,125.8 19.7,127.6 20,128.8 20.5,129.3 
			21.2,131.9 20.7,133.5 19.6,134.9 19.8,136.5 19.8,138.4 		"/>
		<polyline class="st57" points="18.8,130.9 19.7,132.3 20.5,133.8 19.9,134.5 19.2,132.7 		"/>
		<g>
			<g>
				<g>
					<path class="st55" d="M27.4,130.2c0-0.2-0.1-2-0.1-2l-0.5-1.3l-0.2-0.4l0.1-0.7c0,0-0.2-0.5-0.2-0.5c0,0,0.5-0.6,0.5-0.6
						l-1.1,0.1l-0.5,0.4v0.3l-0.3,0.5c0,0,0.1,0.3,0.1,0.3c0,0-0.1,0.7-0.1,0.7l-0.1,0.1l1.7,1.4l0.4,1.9l-0.8,0.6l0,0.7l-1.2,1.7
						l1.7-1.3l-0.1-0.8l0.5-0.5l0.6,1.6v1.7c0-0.2,0.3-1.5,0.4-1.6C28,132.2,27.4,130.4,27.4,130.2z"/>
				</g>
				<g class="st60">
					<path class="st61" d="M27.4,130.2c0-0.2-0.1-2-0.1-2l-0.5-1.3l-0.2-0.4l0.1-0.7c0,0-0.2-0.5-0.2-0.5c0,0,0.5-0.6,0.5-0.6
						l-1.1,0.1l-0.5,0.4v0.3l-0.3,0.5c0,0,0.1,0.3,0.1,0.3c0,0-0.1,0.7-0.1,0.7l-0.1,0.1l1.7,1.4l0.4,1.9l-0.8,0.6l0,0.7l-1.2,1.7
						l1.7-1.3l-0.1-0.8l0.5-0.5l0.6,1.6v1.7c0-0.2,0.3-1.5,0.4-1.6C28,132.2,27.4,130.4,27.4,130.2z"/>
				</g>
			</g>
		</g>
		<polygon class="st62" points="24.9,127 26.6,128.3 26.9,130.3 26.1,130.9 26.8,130.2 26.5,128.4 		"/>
		<polygon class="st62" points="27.6,132.2 27.6,133.9 27.5,133.8 		"/>
		<polygon class="st62" points="20,128.8 20.6,129.2 21.3,131.8 20.8,133.6 19.6,134.9 20.6,133.5 21.1,131.8 20.5,129.3 		"/>
		<path class="st62" d="M33.2,130.3c0,0,0.2-0.2,0.2-0.2l-0.2,0.4L33.2,130.3z"/>
		<polyline class="st62" points="33.3,131.3 33.3,131.3 33.1,131.6 33.2,131.7 		"/>
		<polygon class="st62" points="33.2,132.5 33.6,133.2 34.1,134.6 33.5,133.2 		"/>
		<polygon class="st62" points="24.6,139 25.5,137.8 27.6,138 28.4,139.3 27.6,138.2 25.5,137.9 		"/>
		<polygon class="st63" points="26.9,124.6 26.5,125.3 26.7,125.8 26.6,125.3 		"/>
		<polygon class="st64" points="22.2,133.3 23.1,134.6 26.6,135.8 26.5,137.1 26.3,135.9 22.9,135 		"/>
		<polygon class="st65" points="19.8,136.4 22.2,133.3 22.9,135 26.3,135.9 26.5,137.1 25.5,137.8 24.6,139 22.3,138.8 20.3,139 
			19.9,138.8 19.8,138.3 		"/>
		<polygon class="st64" points="29.6,127.4 29.8,128.7 32.1,132 30,128.8 		"/>
		<polygon class="st65" points="29.6,127.4 32.5,128.5 32.1,132 30,128.8 		"/>
		<path class="st64" d="M23.1,122.4c0-0.3,0-1.3,0-2.4c-1.9-0.2-5.1-0.4-8.3-0.3c-0.9,0-1.6-0.7-1.6-1.5l-0.1-3.8
			c0-0.9,0.7-1.7,1.6-1.7c1.2,0,3,0,4.8,0.1c6.6,0.2,8.6,1.1,9.8,2.4c0.8,0.9,1.1,2.1,1,3.2c-0.1,0.8-0.1,2.8-0.1,3.9L23.1,122.4z"
			/>
		<polygon class="st66" points="17.7,127.3 36,127.3 33.5,121.8 19.4,121.8 		"/>
		<rect x="23.1" y="121.4" class="st67" width="7" height="0.4"/>
		<g>
			<g>
				<g>
					<g>
						<defs>
							<path id="SVGID_00000044858538786617996660000003407865389482402737_" d="M23.1,122.4c0-0.3,0-1.3,0-2.4
								c-2.2-0.3-6.2-0.4-9.9-0.3l-0.2-7c0.1,0,3.2-0.1,6.4,0c6.6,0.2,8.6,1.1,9.8,2.4c0.8,0.9,1.1,2.1,1,3.2
								c-0.1,0.8-0.1,2.8-0.1,3.9L23.1,122.4z"/>
						</defs>
						<clipPath id="SVGID_00000088134474454056014390000012693060397187758751_">
							<use xlink:href="#SVGID_00000044858538786617996660000003407865389482402737_"  style="overflow:visible;"/>
						</clipPath>
						<polygon style="clip-path:url(#SVGID_00000088134474454056014390000012693060397187758751_);fill:#CFCFCE;" points="23,120.9 
							30,120.9 30,120.2 23,120.3 						"/>
					</g>
				</g>
			</g>
			<g>
				<g>
					<g>
						<defs>
							<path id="SVGID_00000108274476733608643550000013919445352742593945_" d="M23.1,122.4c0-0.3,0-1.3,0-2.4
								c-2.2-0.3-6.2-0.4-9.9-0.3l-0.2-7c0.1,0,3.2-0.1,6.4,0c6.6,0.2,8.6,1.1,9.8,2.4c0.8,0.9,1.1,2.1,1,3.2
								c-0.1,0.8-0.1,2.8-0.1,3.9L23.1,122.4z"/>
						</defs>
						<clipPath id="SVGID_00000150101702750283119240000008850240609330496897_">
							<use xlink:href="#SVGID_00000108274476733608643550000013919445352742593945_"  style="overflow:visible;"/>
						</clipPath>
						<polygon style="clip-path:url(#SVGID_00000150101702750283119240000008850240609330496897_);fill:#CFCFCE;" points="23,119.9 
							30.1,119.3 30.1,118.5 22.4,119.9 						"/>
					</g>
				</g>
			</g>
			<g>
				<g>
					<g>
						<defs>
							<path id="SVGID_00000008128607419583175430000004734034995924868525_" d="M23.1,122.4c0-0.3,0-1.3,0-2.4
								c-2.2-0.3-6.2-0.4-9.9-0.3l-0.2-7c0.1,0,3.2-0.1,6.4,0c6.6,0.2,8.6,1.1,9.8,2.4c0.8,0.9,1.1,2.1,1,3.2
								c-0.1,0.8-0.1,2.8-0.1,3.9L23.1,122.4z"/>
						</defs>
						<clipPath id="SVGID_00000142880111322996592290000015171601224535380410_">
							<use xlink:href="#SVGID_00000008128607419583175430000004734034995924868525_"  style="overflow:visible;"/>
						</clipPath>
						<path style="clip-path:url(#SVGID_00000142880111322996592290000015171601224535380410_);fill:#CFCFCE;" d="M22,119.8l8.3-2.3
							c0,0-0.1-0.8-0.2-1.1c-0.1-0.2-9.6,3.3-9.6,3.3L22,119.8z"/>
					</g>
				</g>
			</g>
			<g>
				<g>
					<g>
						<defs>
							<path id="SVGID_00000138542330251217944830000005193599064236415416_" d="M23.1,122.4c0-0.3,0-1.3,0-2.4
								c-2.2-0.3-6.2-0.4-9.9-0.3l-0.2-7c0.1,0,3.2-0.1,6.4,0c6.6,0.2,8.6,1.1,9.8,2.4c0.8,0.9,1.1,2.1,1,3.2
								c-0.1,0.8-0.1,2.8-0.1,3.9L23.1,122.4z"/>
						</defs>
						<clipPath id="SVGID_00000095339451788333055730000003651598868140240540_">
							<use xlink:href="#SVGID_00000138542330251217944830000005193599064236415416_"  style="overflow:visible;"/>
						</clipPath>
						<path style="clip-path:url(#SVGID_00000095339451788333055730000003651598868140240540_);fill:#CFCFCE;" d="M19.4,119.7l0.7,0
							h0l9.7-4c0,0-0.6-1.2-1.2-1.3c-0.5-0.1-9.9,5.2-9.9,5.2"/>
					</g>
				</g>
			</g>
			<g>
				<g>
					<g>
						<defs>
							<path id="SVGID_00000129191592637710171170000004931205151782790536_" d="M23.1,122.4c0-0.3,0-1.3,0-2.4
								c-2.2-0.3-6.2-0.4-9.9-0.3l-0.2-7c0.1,0,3.2-0.1,6.4,0c6.6,0.2,8.6,1.1,9.8,2.4c0.8,0.9,1.1,2.1,1,3.2
								c-0.1,0.8-0.1,2.8-0.1,3.9L23.1,122.4z"/>
						</defs>
						<clipPath id="SVGID_00000093174033049731172110000006830403147381840269_">
							<use xlink:href="#SVGID_00000129191592637710171170000004931205151782790536_"  style="overflow:visible;"/>
						</clipPath>
						<path style="clip-path:url(#SVGID_00000093174033049731172110000006830403147381840269_);fill:#CFCFCE;" d="M26.3,113.3
							l-7.8,6.3h-0.9c0,0,6.2-6.7,6.2-6.7C23.8,112.9,26.3,113.3,26.3,113.3z"/>
					</g>
				</g>
			</g>
			<g>
				<g>
					<g>
						<defs>
							<path id="SVGID_00000163782373202936262760000002610131174216909481_" d="M23.1,122.4c0-0.3,0-1.3,0-2.4
								c-2.2-0.3-6.2-0.4-9.9-0.3l-0.2-7c0.1,0,3.2-0.1,6.4,0c6.6,0.2,8.6,1.1,9.8,2.4c0.8,0.9,1.1,2.1,1,3.2
								c-0.1,0.8-0.1,2.8-0.1,3.9L23.1,122.4z"/>
						</defs>
						<clipPath id="SVGID_00000178906073483986549380000004351696942875048890_">
							<use xlink:href="#SVGID_00000163782373202936262760000002610131174216909481_"  style="overflow:visible;"/>
						</clipPath>
						<polygon style="clip-path:url(#SVGID_00000178906073483986549380000004351696942875048890_);fill:#CFCFCE;" points="
							17.1,119.6 21.5,112.7 18.5,112.6 16.2,119.6 						"/>
					</g>
				</g>
			</g>
		</g>
		<polyline class="st32" points="34,119 34,111.1 37.4,107.7 49.8,107.7 54.6,102.9 59.6,102.9 		"/>
		<polyline class="st32" points="37,114 46.8,114 52.5,119.7 52.5,149 43.9,157.5 43.9,168.3 		"/>
		<g>
			<path class="st74" d="M55.4,137.2c-5,0-10.4-3.2-10.4-12.3c0-10.1,10.7-11.4,10.9-11.4l0.2,1.7c-0.4,0-9.3,1.1-9.3,9.7
				c0,9.8,6.7,10.6,8.7,10.6L55.4,137.2L55.4,137.2z"/>
		</g>
		<path class="st16" d="M59,124.1c-3.4,0-6.1-2.7-6.1-6.1v-7.3c0-3.4,2.7-6.1,6.1-6.1"/>
		<g>
			<path class="st74" d="M55.4,158.3c-5,0-10.4-3.2-10.4-12.3c0-10.1,10.7-11.4,10.9-11.4l0.2,1.7c-0.4,0-9.3,1.1-9.3,9.7
				c0,9.8,6.7,10.6,8.7,10.6L55.4,158.3L55.4,158.3z"/>
		</g>
		<path class="st16" d="M59,146.1c-3.4,0-6.1-2.7-6.1-6.1v-7.3c0-3.4,2.7-6.1,6.1-6.1"/>
		<path class="st16" d="M59.1,168c-3.4,0-6.1-2.7-6.1-6.1v-7.3c0-3.4,2.7-6.1,6.1-6.1"/>
		<g>
			<g>
				<g>
					<rect x="59.7" y="54.7" class="st15" width="241.1" height="112.9"/>
					<rect x="59.7" y="54.7" class="st75" width="241.1" height="112.9"/>
				</g>
			</g>
			<g>
				<circle class="st47" cx="64.3" cy="59.1" r="2.3"/>
				<polygon class="st25" points="65.5,57.9 64.4,58.4 63.6,59.2 63.3,60.5 63.8,59.4 64.5,58.7 				"/>
			</g>
			<g>
				<circle class="st47" cx="64.3" cy="159.4" r="2.3"/>
				<polygon class="st25" points="65.5,158.3 64.4,158.7 63.6,159.5 63.3,160.9 63.8,159.8 64.5,159 				"/>
			</g>
			<g>
				<circle class="st47" cx="295.7" cy="59.1" r="2.3"/>
				<polygon class="st25" points="296.9,57.9 295.8,58.4 295.1,59.2 294.7,60.5 295.3,59.4 296,58.7 				"/>
			</g>
			<g>
				<circle class="st47" cx="295.7" cy="159.4" r="2.3"/>
				<polygon class="st25" points="296.9,158.3 295.8,158.7 295.1,159.5 294.7,160.9 295.3,159.8 296,159 				"/>
			</g>
			<g>
				<path class="st76" d="M284.8,158l-97.7,2.7c-4.5,0.1-9.1,0.1-13.6,0L75.8,158c-4.3-0.1-7.7-3.6-7.7-7.9V69
					c0-4.3,3.4-7.8,7.7-7.9l98.6-3c4.3-0.1,8.5-0.1,12.8,0l97.6,3c4.3,0.1,7.7,3.6,7.7,7.9v81.1C292.4,154.4,289,157.9,284.8,158z"
					/>
			</g>
		</g>
		<polyline class="st77" points="87.2,37.2 125.1,37.2 127.7,39.8 155.8,39.8 161.7,33.9 192.7,33.9 192.7,39.8 220.5,39.8 
			224.9,35.5 253.4,35.5 253.4,42.8 258,47.5 		"/>
		<g>
			<rect x="93.8" y="17.6" class="st78" width="26.3" height="26.3"/>
			<path class="st79" d="M117.9,42.5l-11,0.3c0,0,0,0-0.1,0l-11-0.3c-0.5,0-0.8-0.4-0.8-0.9v-22c0-0.5,0.4-0.9,0.8-0.9l11-0.3
				l11,0.3c0.5,0,0.8,0.4,0.8,0.9v22C118.8,42.1,118.4,42.5,117.9,42.5z"/>
		</g>
		<g>
			<rect x="164.1" y="26.9" class="st80" width="16.9" height="16.9"/>
			<path class="st79" d="M179.6,42.9l-7,0.2c0,0,0,0,0,0l-7-0.2c-0.3,0-0.5-0.3-0.5-0.6v-14c0-0.3,0.2-0.5,0.5-0.6l7-0.2l7,0.2
				c0.3,0,0.5,0.2,0.5,0.6v14C180.1,42.6,179.9,42.9,179.6,42.9z"/>
		</g>
		<g>
			<rect x="196.9" y="26.9" class="st80" width="16.9" height="16.9"/>
			<path class="st79" d="M212.4,42.9l-7,0.2c0,0,0,0,0,0l-7-0.2c-0.3,0-0.5-0.3-0.5-0.6v-14c0-0.3,0.2-0.5,0.5-0.6l7-0.2l7,0.2
				c0.3,0,0.5,0.2,0.5,0.6v14C212.9,42.6,212.7,42.9,212.4,42.9z"/>
		</g>
		<g>
			<rect x="229.7" y="26.9" class="st80" width="16.9" height="16.9"/>
			<path class="st79" d="M245.2,42.9l-7,0.2c0,0,0,0,0,0l-7-0.2c-0.3,0-0.5-0.3-0.5-0.6v-14c0-0.3,0.2-0.5,0.5-0.6l7-0.2l7,0.2
				c0.3,0,0.5,0.2,0.5,0.6v14C245.7,42.6,245.5,42.9,245.2,42.9z"/>
		</g>
		<circle class="st33" cx="86.8" cy="37.2" r="1.4"/>
		<circle class="st33" cx="126.3" cy="31.9" r="1.4"/>
		<polygon class="st0" points="282.7,41.9 273.3,41.9 272.8,41 283.1,41 		"/>
		<polygon class="st0" points="282.7,40.3 273.3,40.3 272.8,39.4 283.1,39.4 		"/>
		<polygon class="st0" points="282.7,43.6 273.3,43.6 272.8,42.6 283.1,42.6 		"/>
		<polygon class="st0" points="282.7,45.2 273.3,45.2 272.8,44.2 283.1,44.2 		"/>
		<polyline class="st77" points="127.2,33 129.1,34.8 142.1,34.8 		"/>
		<g>
			<rect x="131.3" y="26.9" class="st80" width="16.9" height="16.9"/>
			<path class="st79" d="M146.7,42.9l-7,0.2c0,0,0,0,0,0l-7-0.2c-0.3,0-0.5-0.3-0.5-0.6v-14c0-0.3,0.2-0.5,0.5-0.6l7-0.2l7,0.2
				c0.3,0,0.5,0.2,0.5,0.6v14C147.3,42.6,147,42.9,146.7,42.9z"/>
		</g>
		<path class="st81" d="M192.2,27.6h-6.1c-0.1,0-0.2-0.1-0.2-0.2V27c0-0.1,0.1-0.2,0.2-0.2h6.1c0.1,0,0.2,0.1,0.2,0.2v0.4
			C192.4,27.5,192.4,27.6,192.2,27.6z"/>
		<rect x="185.3" y="27.3" class="st33" width="7.8" height="0.6"/>
		<path class="st82" d="M160.7,27.6h-6.1c-0.1,0-0.2-0.1-0.2-0.2V27c0-0.1,0.1-0.2,0.2-0.2h6.1c0.1,0,0.2,0.1,0.2,0.2v0.4
			C160.9,27.5,160.8,27.6,160.7,27.6z"/>
		<rect x="153.7" y="27.3" class="st33" width="7.8" height="0.6"/>
		<rect x="12.2" y="52.5" class="st83" width="43" height="2.5"/>
		<rect x="23.3" y="56.9" class="st84" width="12.8" height="10.2"/>
		<path class="st85" d="M37.8,66.4H21.5c-1,0-1.7-0.8-1.7-1.7v-2c0-1,0.8-1.7,1.7-1.7h16.4c1,0,1.7,0.8,1.7,1.7v2
			C39.6,65.6,38.8,66.4,37.8,66.4z"/>
		<rect x="45.1" y="56.9" class="st84" width="7.5" height="21.3"/>
		<path class="st85" d="M53.9,73.9H43.8c-0.8,0-1.4-0.6-1.4-1.4v-2.6c0-0.8,0.6-1.4,1.4-1.4h10.1c0.8,0,1.4,0.6,1.4,1.4v2.6
			C55.3,73.2,54.7,73.9,53.9,73.9z"/>
		<rect x="33.1" y="59.5" class="st86" width="1.1" height="1.4"/>
		<rect x="25" y="59.5" class="st86" width="1.1" height="1.4"/>
		<rect x="26.2" y="59.5" class="st86" width="0.5" height="1.4"/>
		<rect x="46.1" y="65.3" class="st86" width="1.1" height="3.1"/>
		<rect x="47.4" y="65.3" class="st86" width="0.5" height="3.1"/>
		<rect x="32.5" y="59.5" class="st86" width="0.5" height="1.4"/>
		<rect x="50.7" y="65.3" class="st86" width="1.1" height="3.1"/>
		<rect x="50.1" y="65.3" class="st86" width="0.5" height="3.1"/>
		<rect x="23.3" y="56.9" class="st87" width="12.8" height="0.8"/>
		<rect x="45.1" y="56.9" class="st87" width="7.5" height="0.8"/>
		<rect x="45.7" y="64.5" class="st88" width="6.4" height="1.2"/>
		<rect x="24.1" y="58.7" class="st88" width="11.1" height="1.2"/>
		<polygon class="st89" points="269.4,38.7 269.4,37.4 264.6,34.3 259.6,37.6 259.6,38.7 		"/>
		<path class="st90" d="M180.8,59.2c2.1,0,4.3,0,6.4,0.1l97.6,3c1.7,0.1,3.4,0.8,4.6,2s1.9,2.9,1.9,4.6v81.1c0,1.8-0.7,3.4-1.9,4.7
			c-1.2,1.2-2.8,2-4.6,2l-97.7,2.7c-2.2,0.1-4.5,0.1-6.8,0.1s-4.5,0-6.8-0.1l-97.7-2.7c-1.7-0.1-3.4-0.8-4.6-2
			c-1.2-1.2-1.9-2.9-1.9-4.7V69c0-1.7,0.7-3.4,1.9-4.6c1.2-1.2,2.8-2,4.6-2l98.6-3C176.5,59.3,178.7,59.2,180.8,59.2 M180.8,58
			c-2.1,0-4.3,0-6.4,0.1l-98.6,3c-4.3,0.1-7.7,3.6-7.7,7.9v81.1c0,4.3,3.4,7.8,7.7,7.9l97.7,2.7c2.3,0.1,4.5,0.1,6.8,0.1
			s4.5,0,6.8-0.1l97.7-2.7c4.3-0.1,7.7-3.6,7.7-7.9V69c0-4.3-3.4-7.8-7.7-7.9l-97.6-3C185.1,58.1,182.9,58,180.8,58L180.8,58z"/>
	</g>
	<g>
		<defs>
			<polygon id="SVGID_00000138560362134957472780000003085137677129763763_" points="182.3,60.7 77.6,64.2 73.7,69.4 73.7,151.3 
				79,155.8 186,158.1 287.4,155.8 291.7,148.7 291.6,70.8 287.4,66.1 			"/>
		</defs>
		<clipPath id="SVGID_00000013192904763946676710000012994904492820744077_">
			<use xlink:href="#SVGID_00000138560362134957472780000003085137677129763763_"  style="overflow:visible;"/>
		</clipPath>
		<g style="clip-path:url(#SVGID_00000013192904763946676710000012994904492820744077_);">
			
				<image style="overflow:visible;" width="3189" height="1345" xlink:href="E9E1E123.jpg"  transform="matrix(0.1134 0 0 0.1134 6.0054 16.3849)">
			</image>
		</g>
	</g>
	<polyline class="st91" points="73.2,102.3 0.5,102.3 0.5,3.2 	"/>
	<line class="st91" x1="264.5" y1="22.6" x2="264.5" y2="0"/>
	<polyline class="st91" points="282.1,85.3 374.4,85.3 374.4,0 	"/>
	<polyline class="st91" points="246.7,21.6 246.7,10.6 188,10.6 131.3,10.6 131.3,23.5 	"/>
	<line class="st91" x1="187.8" y1="0" x2="187.8" y2="10.6"/>
</g>
</svg>
