<?xml version="1.0" encoding="UTF-8"?><svg id="Layer_1" xmlns="http://www.w3.org/2000/svg" viewBox="0 0 399.89 483.61"><defs><style>.cls-1{fill:#fff;opacity:.06;}</style></defs><path class="cls-1" d="M397.74,56.61c-1.4-1.44-3.32-2.26-5.33-2.28l-63.79-.75c.28-.27,.51-.57,.69-.93,1.68-3.36,5.04-23.52-3.36-31.08C317.56,14,247.55,0,196.3,0S81.49,11.48,73.09,19.88c-8.4,8.4-6.72,12.6-6.72,21.84,0,6.09,4.01,9.63,6.75,11.33,0,.16,0,.33,0,.5l-65.66,.77c-2.01,.02-3.93,.85-5.33,2.28C.74,58.05-.03,59.99,0,62c.04,2.47,1.37,60.96,42.98,96.38,32.06,27.28,54.14,37.45,62.33,40.62,.08,.12,.15,.24,.23,.36,.73,1.16,1.48,2.31,2.23,3.45,.11,.17,.22,.34,.33,.5,.75,1.14,1.51,2.27,2.28,3.39,.11,.16,.22,.32,.33,.48,.78,1.13,1.56,2.25,2.35,3.37,.1,.14,.19,.27,.29,.41,.81,1.14,1.62,2.26,2.44,3.38,.07,.1,.14,.19,.21,.29,.85,1.16,1.71,2.3,2.56,3.43,.02,.03,.05,.06,.07,.09,20.18,26.59,42.14,46.57,47.91,51.65-2.58,.94-4.42,3.41-4.42,6.31,0,3.05,2.03,5.62,4.82,6.44-.44,.83-.7,1.79-.7,2.8,0,3.29,2.67,5.96,5.96,5.96h9.52c.62,6.78,1.6,25.55-4.48,41.08-6.04,15.44-23.88,22.3-30.8,24.43-11.17,1.05-11.2,8.34-11.2,8.34,0,0-15.56-3.27-23.23,18.48h-2.49c-6.21,0-11.24,5.03-11.24,11.24v77.48c0,6.21,5.03,11.24,11.24,11.24h183.33c6.21,0,11.24-5.03,11.24-11.24v-77.48c0-6.21-5.03-11.24-11.24-11.24h-8.37c-7.67-21.75-23.23-18.48-23.23-18.48h0s-.03-7.29-11.2-8.34c-6.92-2.13-24.76-8.98-30.8-24.43-6.08-15.53-5.1-34.31-4.48-41.08h10.36c3.29,0,5.96-2.67,5.96-5.96,0-1.01-.25-1.96-.7-2.8,2.78-.82,4.82-3.39,4.82-6.44s-2.15-5.76-5.04-6.5c7.46-6.59,38.31-34.85,60.69-70.09l.2,.69c1.02-.29,25.56-7.56,65.83-41.84,41.61-35.42,42.95-93.9,42.98-96.38,.03-2.01-.74-3.95-2.14-5.39ZM15.71,69.35l57.94-.68c1.29,25.99,5.52,73.82,19.42,107.36-10.1-5.9-23.74-15.1-40.28-29.18C24.65,122.92,17.51,85.32,15.71,69.35Zm331.38,77.51c-19.1,16.25-34.34,26.01-44.71,31.68,14.76-33.65,19.17-83.28,20.49-109.91l61.29,.72c-1.8,15.98-8.94,53.57-37.07,77.51Z"/></svg>