<?xml version="1.0" encoding="UTF-8"?><svg id="Layer_1" xmlns="http://www.w3.org/2000/svg" viewBox="0 0 200.03 200"><defs><style>.cls-1{fill:#ffce45;}.cls-2,.cls-3{fill:#fff;}.cls-4{fill:#fcab28;}.cls-5{fill:#e8972d;}.cls-6{fill:#d88a19;}.cls-3{opacity:.61;}.cls-7{fill:#f2a12c;}</style></defs><g><ellipse class="cls-4" cx="100.01" cy="100" rx="100" ry="100.01" transform="translate(-.14 199.86) rotate(-89.92)"/><path class="cls-1" d="M.33,100.44c0,5.44,.44,10.78,1.28,15.99,14.52,8.21,31.29,12.91,49.17,12.91,55.23,0,100.01-44.77,100.01-100,0-5.44-.44-10.78-1.28-15.99C134.98,5.13,118.21,.44,100.33,.44,45.1,.44,.33,45.21,.33,100.44Z"/><path class="cls-7" d="M99.03,173.45c-39.96,0-72.48-32.51-72.48-72.47S59.07,28.51,99.03,28.51s72.48,32.51,72.48,72.47-32.51,72.47-72.48,72.47Zm0-142.5c-38.62,0-70.04,31.42-70.04,70.03s31.42,70.03,70.04,70.03,70.04-31.42,70.04-70.03S137.65,30.95,99.03,30.95Z"/><path class="cls-6" d="M185.28,47.68c6.53,13.29,10.94,28.52,11.99,44.29,4.01,60.65-46.3,109.95-105.85,104.11-35.89-3.52-63.59-23.44-81.19-52.06,16.29,33.15,50.38,55.97,89.81,55.97,55.23,0,100.01-44.77,100.01-100,0-19.17-5.4-37.08-14.76-52.3Z"/></g><path class="cls-1" d="M171.2,107.72c-.72,.22-1.56,.49-2.53,.8-3.77,35.08-33.56,62.49-69.63,62.49-16.12,0-30.98-5.47-42.82-14.66-.62,.62-1.36,1.09-2.06,1.54,12.28,9.56,28.15,15.56,44.89,15.56,37.69,0,68.75-28.92,72.16-65.73Z"/><polygon class="cls-2" points="141.5 45.04 146.93 31.32 152.02 45.23 161.54 50.67 151.83 55.75 146.4 73.2 141.31 55.56 131.79 50.13 141.5 45.04"/><path class="cls-3" d="M50.89,24.95c15.24-10.47,35.82-10.83,50-12.26-6.39-2.23-13.25-3.45-20.4-3.45-34.19,0-61.9,27.71-61.9,61.9,0,1.23,.04,2.46,.11,3.67,5.13-15.13,13.74-37.19,32.2-49.87Z"/><polygon class="cls-5" points="69.1 118.28 54.42 100.77 54.42 130.9 99.03 150.58 143.64 130.43 143.64 102.18 127.39 118.9 99.03 90.65 69.1 118.28"/><polygon class="cls-7" points="98.79 53.11 85.02 68.64 98.44 83.94 111.74 69.11 98.79 53.11"/><path class="cls-5" d="M98.44,83.94c.02-.57,.35-30.83,.35-30.83l12.95,16.01-13.3,14.83Z"/><polygon class="cls-7" points="54.67 79.28 46.43 88.57 54.46 97.72 62.41 88.85 54.67 79.28"/><path class="cls-5" d="M54.46,97.72c.01-.34,.21-18.45,.21-18.45l7.75,9.57-7.96,8.87Z"/><polygon class="cls-7" points="143.88 79.28 135.65 88.57 143.67 97.72 151.63 88.85 143.88 79.28"/><path class="cls-5" d="M143.67,97.72c.01-.34,.21-18.45,.21-18.45l7.75,9.57-7.96,8.87Z"/><polygon class="cls-7" points="99.03 90.65 69.1 118.28 54.42 100.77 54.42 130.9 99.03 150.58 99.03 90.65"/></svg>