<?xml version="1.0" encoding="UTF-8" standalone="no"?>
<!-- Generator: Adobe Illustrator 26.1.0, SVG Export Plug-In . SVG Version: 6.00 Build 0)  -->

<svg
   version="1.1"
   id="Layer_1"
   x="0px"
   y="0px"
   viewBox="0 0 1305.5 111.5323"
   xml:space="preserve"
   sodipodi:docname="leaderboard_footer.svg"
   width="1305.5"
   height="111.5323"
   inkscape:version="1.1 (c68e22c387, 2021-05-23)"
   xmlns:inkscape="http://www.inkscape.org/namespaces/inkscape"
   xmlns:sodipodi="http://sodipodi.sourceforge.net/DTD/sodipodi-0.dtd"
   xmlns="http://www.w3.org/2000/svg"
   xmlns:svg="http://www.w3.org/2000/svg"><defs
   id="defs517" /><sodipodi:namedview
   id="namedview515"
   pagecolor="#ffffff"
   bordercolor="#666666"
   borderopacity="1.0"
   inkscape:pageshadow="2"
   inkscape:pageopacity="0.0"
   inkscape:pagecheckerboard="0"
   showgrid="false"
   inkscape:zoom="0.78603269"
   inkscape:cx="655.18904"
   inkscape:cy="51.524575"
   inkscape:window-width="1842"
   inkscape:window-height="1057"
   inkscape:window-x="-8"
   inkscape:window-y="-8"
   inkscape:window-maximized="1"
   inkscape:current-layer="Layer_1" />
<style
   type="text/css"
   id="style2">
	.st0{fill:#636363;}
	.st1{fill:#333333;}
	.st2{fill:#828282;}
	.st3{opacity:0.53;fill:#CECECE;enable-background:new    ;}
	.st4{fill:#CECECE;}
	.st5{fill:#4F4F4F;}
	.st6{fill:#DFE9A6;}
	.st7{fill:#212020;}
	.st8{fill:#171616;}
	.st9{fill:#2D2D2D;}
	.st10{fill:#EC2024;}
	.st11{fill:#3FA948;}
	.st12{fill:#161616;}
	.st13{fill:#364A32;}
	.st14{fill:none;}
	.st15{enable-background:new    ;}
	.st16{fill:#FFFFFF;}
	.st17{fill:#787878;}
	.st18{fill:#AE8030;}
	.st19{fill:#BABABA;}
	.st20{fill:#686868;}
	.st21{fill:#767576;}
	.st22{fill:#9A9A9A;}
	.st23{opacity:0.8;}
	.st24{fill:#705E51;stroke:#5B5B5C;stroke-width:0.1861;stroke-miterlimit:10.0004;}
	.st25{opacity:0.32;fill:#DE923D;enable-background:new    ;}
	.st26{fill:#515252;}
	.st27{fill:#16242C;}
	.st28{fill:#A31D21;}
	.st29{fill:#2C314C;}
	.st30{fill:#4D4E4E;}
	.st31{fill:#C77E2A;}
	.st32{fill:#161A28;}
	.st33{fill:#AEAEAE;}
	.st34{fill:#DE923D;}
	.st35{fill:#161A2B;}
	.st36{fill:#8E2B2F;}
	.st37{fill:#BB3426;}
	.st38{fill:#A42F23;}
	.st39{fill:#705E51;stroke:#5B5B5C;stroke-width:0.1824;stroke-miterlimit:10;}
	.st40{fill:#908D88;stroke:#625552;stroke-width:0.2492;stroke-miterlimit:10;}
</style>
<polygon
   class="st0"
   points="144.6,65.9 114.4,91 131.8,90.6 141.8,94.2 164.3,67 124.3,27.3 "
   id="polygon4"
   transform="translate(-17.2,-9.4)" />
<polygon
   class="st1"
   points="160.4,98.7 110.7,108.5 43.6,99.2 33,105.3 22.2,88.1 17.2,50.7 31.3,25.6 76.5,9.4 141.3,13.6 169.5,33.5 169.5,82.7 "
   id="polygon6"
   transform="translate(-17.2,-9.4)" />
<g
   id="g20"
   transform="translate(-17.2,-9.4)">
	<polygon
   class="st0"
   points="167.3,95 120.3,114.9 65.2,113.5 44.8,104.4 30,84.2 25.4,46.5 34.7,30.1 76.5,9.4 149.1,9.4 177.4,29.6 177.4,78.5 "
   id="polygon8" />
	<polygon
   class="st2"
   points="63.5,92.8 52.4,83.5 54.4,70.4 51.2,57.4 49.5,49.7 53.2,35.7 62.8,29.3 73.6,22.9 86.6,20.2 149.9,64.5 108.5,94.5 "
   id="polygon10" />
	<polygon
   class="st3"
   points="144.7,63 134.6,55.4 109.3,36.5 86.6,20.2 149.1,9.4 177.4,29.6 149.9,64.5 "
   id="polygon12" />
	<polygon
   class="st4"
   points="76.5,9.4 149.1,9.4 86.6,20.2 "
   id="polygon14" />
	<polygon
   class="st5"
   points="149.9,64.5 147.4,65.5 139.5,71.9 129.2,79.5 114.2,87.6 108.5,94.5 120.3,114.9 168.3,94.5 177.4,78.5 "
   id="polygon16" />
	<polygon
   class="st5"
   points="62.5,112.2 44.5,103.6 63.5,92.8 108.5,94.5 120.3,114.9 "
   id="polygon18" />
</g>
<polygon
   class="st2"
   points="182.6,62.3 159,70.4 127.7,114.7 216.8,114.7 208.9,83.7 "
   id="polygon22"
   transform="translate(-17.2,-9.4)" />
<polygon
   class="st4"
   points="163.4,83.7 188,81.2 196.4,65.5 182.6,62.3 159,70.4 "
   id="polygon24"
   transform="translate(-17.2,-9.4)" />
<polygon
   class="st5"
   points="216.8,114.7 189.5,114.7 188,81.2 196.4,65.5 208.9,83.7 "
   id="polygon26"
   transform="translate(-17.2,-9.4)" />
<polygon
   class="st2"
   points="266.7,89.8 210.4,97 147.9,114.9 325.8,114.9 310.3,102.4 "
   id="polygon28"
   transform="translate(-17.2,-9.4)" />
<polygon
   class="st4"
   points="218.8,102.4 268.2,101.4 284.7,95 266.2,89.8 210.4,97 "
   id="polygon30"
   transform="translate(-17.2,-9.4)" />
<polygon
   class="st5"
   points="325.8,114.9 271.2,114.9 268.2,101.4 284.7,95 310.3,102.4 "
   id="polygon32"
   transform="translate(-17.2,-9.4)" />
<path
   class="st1"
   d="m 140.8,63 c -0.5,0.2 -30.3,42.3 -30.3,42.3 0,0 -6.2,0.5 -6.4,0 C 103.9,104.8 140,59 140,59 l 20.4,-4.4 v 0 c 0.1,0 -19.1,8.1 -19.6,8.4 z"
   id="path34" />
<polygon
   class="st2"
   points="1322.7,55.7 1316.1,104.6 1303.9,111.9 1270.9,113.2 1242.7,97.2 1236.6,84 1236.6,44.5 1253.6,28.4 1297.1,28.4 "
   id="polygon36"
   transform="translate(-17.2,-9.4)" />
<polygon
   class="st4"
   points="1299.9,51 1305.7,56 1309.2,59 1309.1,63.5 1308.6,72 1305.9,84.2 1304.9,95.4 1278,96.8 1253.2,72.7 1288.1,44.2 1292.8,47.3 "
   id="polygon38"
   transform="translate(-17.2,-9.4)" />
<polygon
   class="st3"
   points="1279.3,52.6 1262.3,65.2 1256.3,71.5 1253.2,72.7 1236.6,44.5 1253.6,28.4 1288.1,44.2 "
   id="polygon40"
   transform="translate(-17.2,-9.4)" />
<polygon
   class="st5"
   points="1274.5,91.2 1265.5,84.7 1259.3,78.6 1254.6,73.5 1253.2,72.7 1236.6,84 1242.1,96.8 1270.9,113.2 1278,96.8 "
   id="polygon42"
   transform="translate(-17.2,-9.4)" />
<polygon
   class="st0"
   points="1304.2,112.7 1270.9,113.2 1278,96.8 1304.9,95.4 1316.2,104.1 "
   id="polygon44"
   transform="translate(-17.2,-9.4)" />
<polygon
   class="st2"
   points="1267,82.3 1263.6,108 1257.1,111.9 1239.7,112.6 1224.9,104.1 1221.7,97.2 1221.7,76.4 1230.7,67.9 1253.5,67.9 "
   id="polygon46"
   transform="translate(-17.2,-9.4)" />
<polygon
   class="st4"
   points="1255,79.8 1258,82.4 1259.9,84 1259.9,86.4 1259.6,90.9 1258.2,97.3 1257.6,103.2 1243.5,103.9 1230.5,91.2 1248.8,76.2 1251.3,77.9 "
   id="polygon48"
   transform="translate(-17.2,-9.4)" />
<polygon
   class="st3"
   points="1244.2,80.6 1235.2,87.3 1232,90.6 1230.5,91.2 1221.7,76.4 1230.7,67.9 1248.8,76.2 "
   id="polygon50"
   transform="translate(-17.2,-9.4)" />
<polygon
   class="st4"
   points="1230.7,67.9 1253.5,67.9 1248.8,76.2 "
   id="polygon52"
   transform="translate(-17.2,-9.4)" />
<polygon
   class="st5"
   points="1241.7,101 1236.9,97.5 1233.6,94.3 1231.2,91.6 1230.5,91.2 1221.7,97.2 1224.6,103.9 1239.7,112.6 1243.5,103.9 "
   id="polygon54"
   transform="translate(-17.2,-9.4)" />
<polygon
   class="st0"
   points="1257.3,112.3 1239.7,112.6 1243.5,103.9 1257.6,103.2 1263.6,107.7 "
   id="polygon56"
   transform="translate(-17.2,-9.4)" />
<g
   id="g172"
   transform="translate(-17.2,-9.4)">
	<path
   class="st6"
   d="m 347.6,118.7 -59.2,-15.4 c -5.5,-1.4 -8.8,-7 -7.4,-12.6 l 6.8,-26.2 c 1.4,-5.5 7,-8.8 12.6,-7.4 l 59.2,15.4 c 5.5,1.4 8.8,7 7.4,12.6 l -6.8,26.2 c -1.4,5.6 -7,8.8 -12.6,7.4 z"
   id="path58" />
	<path
   class="st7"
   d="m 333.3,116.4 -7.6,-2 c -2.5,-0.6 -3.9,-3.1 -3.3,-5.6 L 332.8,69 c 0.6,-2.5 3.1,-3.9 5.6,-3.3 l 7.6,2 c 2.5,0.6 3.9,3.1 3.3,5.6 L 339,113.1 c -0.6,2.5 -3.2,4 -5.7,3.3 z"
   id="path60" />
	<path
   class="st7"
   d="m 309.5,110.2 -7.6,-2 c -2.5,-0.6 -3.9,-3.1 -3.3,-5.6 L 309,62.7 c 0.6,-2.5 3.1,-3.9 5.6,-3.3 l 7.6,2 c 2.5,0.6 3.9,3.1 3.3,5.6 l -10.4,40 c -0.6,2.5 -3.2,3.9 -5.6,3.2 z"
   id="path62" />
	<path
   class="st7"
   d="m 287.9,104.7 -1.7,-0.5 c -2.5,-0.6 -3.9,-3.1 -3.3,-5.6 l 10.3,-39.8 c 0.6,-2.5 3.1,-3.9 5.6,-3.3 l 1.7,0.5 c 2.5,0.6 3.9,3.1 3.3,5.6 l -10.3,39.8 c -0.5,2.4 -3.1,3.9 -5.6,3.3 z"
   id="path64" />
	<path
   class="st8"
   d="m 285.5,101.8 11.6,-44.5 c 0.3,-1.1 1.5,-1.9 2.6,-1.6 l -3.3,-0.9 c -1.1,-0.3 -2.3,0.4 -2.6,1.6 l -11.6,44.5 c -0.3,1.1 0.4,2.3 1.6,2.6 l 3.3,0.9 c -1.2,-0.2 -1.9,-1.4 -1.6,-2.6 z"
   id="path66" />
	<path
   class="st8"
   d="m 301.1,105.9 11.6,-44.5 c 0.3,-1.1 1.5,-1.9 2.6,-1.6 L 312,59 c -1.1,-0.3 -2.3,0.4 -2.6,1.6 L 297.9,105 c -0.3,1.1 0.4,2.3 1.6,2.6 l 3.3,0.9 c -1.2,-0.3 -2,-1.4 -1.7,-2.6 z"
   id="path68" />
	<path
   class="st8"
   d="m 325,112.1 11.6,-44.5 c 0.3,-1.1 1.5,-1.9 2.6,-1.6 l -3.3,-0.9 c -1.1,-0.3 -2.3,0.4 -2.6,1.6 l -11.5,44.6 c -0.3,1.1 0.4,2.3 1.6,2.6 l 3.3,0.9 c -1.2,-0.4 -2,-1.6 -1.7,-2.7 z"
   id="path70" />
	<path
   class="st7"
   d="m 349.9,120.8 -1.7,-0.5 c -2.5,-0.6 -3.9,-3.1 -3.3,-5.6 l 10.3,-39.8 c 0.6,-2.5 3.1,-3.9 5.6,-3.3 l 1.7,0.5 c 2.5,0.6 3.9,3.1 3.3,5.6 l -10.3,39.8 c -0.6,2.4 -3.1,3.9 -5.6,3.3 z"
   id="path72" />
	<path
   class="st8"
   d="m 347.1,117.8 11.6,-44.5 c 0.3,-1.1 1.5,-1.9 2.6,-1.6 L 358,70.8 c -1.1,-0.3 -2.3,0.4 -2.6,1.6 L 343.8,117 c -0.3,1.1 0.4,2.3 1.6,2.6 l 3.3,0.9 c -1.3,-0.4 -1.9,-1.5 -1.6,-2.7 z"
   id="path74" />
	<path
   class="st9"
   d="m 369,88.1 -0.5,2.3 c -0.6,2.5 -3.1,3.9 -5.6,3.3 l -75,-19.5 c -2.5,-0.6 -3.9,-3.1 -3.3,-5.6 l 0.5,-2.3 c 0.6,-2.5 3.1,-3.9 5.6,-3.3 l 75,19.5 c 2.5,0.7 3.9,3.2 3.3,5.6 z"
   id="path76" />
	<path
   class="st9"
   d="m 364.4,105.7 -0.5,2.3 c -0.6,2.5 -3.1,3.9 -5.6,3.3 l -75,-19.5 c -2.5,-0.6 -3.9,-3.1 -3.2,-5.5 l 0.5,-2.3 c 0.6,-2.5 3.1,-3.9 5.6,-3.3 l 75,19.5 c 2.4,0.5 3.9,3.1 3.2,5.5 z"
   id="path78" />
	<g
   id="g84">
		<g
   id="g82">
			<path
   class="st10"
   d="m 348.3,87.9 c 5.7,0.7 7.6,7.8 13,9.8 2.7,1 6.5,0.2 4.8,-3.5 -0.4,-0.9 -1.9,-0.4 -1.5,0.5 1.5,3.3 -3.3,1.3 -3.5,1.2 -0.7,-0.4 -1.4,-0.7 -2.1,-1.1 -1.7,-1.3 -3,-3.1 -4.3,-4.7 -1.9,-2.3 -3.4,-3.3 -6.4,-3.8 -0.8,-0.1 -1,1.5 0,1.6 z"
   id="path80" />
		</g>
	</g>
	<g
   id="g90">
		<g
   id="g88">
			<path
   class="st11"
   d="m 345.6,97.2 c 5,-2.6 8.3,1.6 12.5,3.5 1.3,0.6 4.9,2.3 6.1,0.6 -0.5,0.8 0.7,1.8 1.2,1 2.3,-3.2 -3.4,-2.1 -4.4,-2.3 -3.3,-0.7 -5.9,-3.2 -8.9,-4.6 -2.7,-1.3 -4.4,-1 -7,0.3 -0.9,0.4 -0.4,1.9 0.5,1.5 z"
   id="path86" />
		</g>
	</g>
	<g
   id="g96">
		<g
   id="g94">
			<path
   class="st11"
   d="m 306,77.4 c -2,-3.1 -6,-3.8 -9.6,-4 -3.1,-0.1 -6,1.1 -9.1,0.8 -1.3,-0.2 -2.9,-0.4 -4.1,-0.8 -1.3,-0.6 -2.7,-1.2 -3.9,-1.8 -1.9,-1.2 -2.3,-2.9 -1.3,-5.3 1,0.1 1.3,-1.5 0.3,-1.5 -1.7,-0.1 -3.3,0.2 -3.8,2.1 -0.6,2.3 2.3,4.9 3.8,6 2.7,1.9 6.3,2.8 9.5,3 5.2,0.3 13.3,-3.3 17,2.5 0.5,0.8 1.7,-0.1 1.2,-1 z"
   id="path92" />
		</g>
	</g>
	<g
   id="g102">
		<g
   id="g100">
			<path
   class="st10"
   d="m 303.1,82.2 c -5.5,0.2 -9.8,-4.4 -15.2,-4.3 -1.5,0 -2.9,0.8 -4.5,1.1 -2.9,0.4 -4.9,-1.1 -7.5,-1.7 -4.5,-1.1 -6.5,5.2 -2.5,7 0.9,0.4 1.6,-1 0.6,-1.4 -0.6,-4 0.5,-5.2 3.2,-3.5 0.4,0.2 0.8,0.3 1.2,0.5 1.1,0.3 1.6,0.7 2.7,0.8 2.1,0.3 3.4,-0.5 5.4,-1 5.4,-1.1 10.9,4.2 16.6,4 1.2,0 1.1,-1.6 0,-1.5 z"
   id="path98" />
		</g>
	</g>
	<rect
   x="315.20001"
   y="63.200001"
   transform="matrix(0.2499,-0.9683,0.9683,0.2499,159.3073,379.9248)"
   width="19.4"
   height="47.799999"
   id="rect104" />
	
		<rect
   x="315.29999"
   y="62.700001"
   transform="matrix(0.2499,-0.9683,0.9683,0.2499,159.9144,379.65)"
   class="st12"
   width="19.4"
   height="47.799999"
   id="rect106" />
	<path
   class="st13"
   d="M 345.2,94.1 303.7,83.4 c -0.8,-0.2 -1.2,-1 -1,-1.7 l 1.9,-7.4 c 0.2,-0.8 1,-1.2 1.7,-1 L 347.7,84 c 0.8,0.2 1.2,1 1,1.7 l -1.9,7.4 c -0.1,0.8 -0.9,1.3 -1.6,1 z"
   id="path108" />
	<rect
   x="303"
   y="83.699997"
   transform="matrix(0.2499,-0.9683,0.9683,0.2499,144.8649,358.9897)"
   width="2.2"
   height="4.5999999"
   id="rect110" />
	<rect
   x="308.60001"
   y="85.099998"
   transform="matrix(0.2499,-0.9683,0.9683,0.2499,147.6871,365.4826)"
   width="2.2"
   height="4.5999999"
   id="rect112" />
	<rect
   x="314"
   y="86.599998"
   transform="matrix(0.2499,-0.9683,0.9683,0.2499,150.3352,371.7555)"
   width="2.2"
   height="4.5999999"
   id="rect114" />
	<rect
   x="319.60001"
   y="88"
   transform="matrix(0.2499,-0.9683,0.9683,0.2499,153.197,378.2879)"
   width="2.2"
   height="4.5999999"
   id="rect116" />
	<rect
   x="302.29999"
   y="86.300003"
   transform="matrix(0.2499,-0.9683,0.9683,0.2499,141.7959,360.2949)"
   width="2.2"
   height="4.5999999"
   id="rect118" />
	<rect
   x="307.89999"
   y="87.800003"
   transform="matrix(0.2499,-0.9683,0.9683,0.2499,144.5784,366.8274)"
   width="2.2"
   height="4.5999999"
   id="rect120" />
	<rect
   x="313.39999"
   y="89.199997"
   transform="matrix(0.2499,-0.9683,0.9683,0.2499,147.3057,373.1004)"
   width="2.2"
   height="4.5999999"
   id="rect122" />
	<rect
   x="319"
   y="90.599998"
   transform="matrix(0.2499,-0.9683,0.9683,0.2499,150.1279,379.5932)"
   width="2.2"
   height="4.5999999"
   id="rect124" />
	<rect
   x="325.79999"
   y="89.599998"
   transform="matrix(0.2499,-0.9683,0.9683,0.2499,156.2537,385.4262)"
   width="2.2"
   height="4.5999999"
   id="rect126" />
	<rect
   x="331.39999"
   y="91"
   transform="matrix(0.2499,-0.9683,0.9683,0.2499,159.0363,391.9586)"
   width="2.2"
   height="4.5999999"
   id="rect128" />
	<rect
   x="336.79999"
   y="92.400002"
   transform="matrix(0.2499,-0.9683,0.9683,0.2499,161.7241,398.1921)"
   width="2.2"
   height="4.5999999"
   id="rect130" />
	<rect
   x="342.39999"
   y="93.800003"
   transform="matrix(0.2499,-0.9683,0.9683,0.2499,164.5856,404.7246)"
   width="2.2"
   height="4.5999999"
   id="rect132" />
	<rect
   x="325.10001"
   y="92.199997"
   transform="matrix(0.2499,-0.9683,0.9683,0.2499,153.1847,386.7316)"
   width="2.2"
   height="4.5999999"
   id="rect134" />
	<rect
   x="330.70001"
   y="93.699997"
   transform="matrix(0.2499,-0.9683,0.9683,0.2499,155.9671,393.2639)"
   width="2.2"
   height="4.5999999"
   id="rect136" />
	<rect
   x="336.10001"
   y="95.099998"
   transform="matrix(0.2499,-0.9683,0.9683,0.2499,158.6945,399.537)"
   width="2.2"
   height="4.5999999"
   id="rect138" />
	<rect
   x="341.70001"
   y="96.5"
   transform="matrix(0.2499,-0.9683,0.9683,0.2499,161.477,406.0693)"
   width="2.2"
   height="4.5999999"
   id="rect140" />
	
		<rect
   x="334.5"
   y="67.800003"
   transform="matrix(0.2499,-0.9683,0.9683,0.2499,169.2384,392.882)"
   class="st14"
   width="7.4000001"
   height="38.799999"
   id="rect142" />
	<g
   class="st15"
   id="g148">
		<path
   class="st16"
   d="m 323.4,86.6 c -0.7,0 -1.4,-0.1 -1.8,-0.3 -0.6,-0.1 -0.9,-0.3 -1.2,-0.6 -0.3,-0.2 -0.5,-0.5 -0.6,-0.8 -0.1,-0.4 -0.1,-0.7 -0.1,-1.1 0.1,-0.4 0.1,-0.9 0.3,-1.5 0.4,-1.3 0.7,-2.1 1.2,-2.5 0.5,-0.4 1.2,-0.5 2.2,-0.3 0.6,0.1 1.2,0.4 1.8,0.8 l -0.3,1.1 c -0.6,-0.3 -1.1,-0.4 -1.5,-0.6 -0.4,-0.1 -0.8,-0.1 -1,-0.1 -0.2,0 -0.4,0.3 -0.5,0.5 -0.2,0.3 -0.3,0.8 -0.6,1.5 -0.1,0.8 -0.2,1.3 -0.1,1.6 0.1,0.4 0.4,0.6 1,0.7 0.6,0.1 1.1,0.2 1.8,0.3 z"
   id="path144" />
		<path
   class="st16"
   d="m 326.8,87.6 0.3,-1 -2.7,-0.7 0.3,-1 2.6,-3.8 1.5,0.4 -2.8,3.7 1.4,0.3 0.5,-1.8 1.4,0.3 -0.5,1.8 0.6,0.2 -0.3,1.1 -0.6,-0.2 -0.3,1 z"
   id="path146" />
	</g>
	
		<rect
   x="279.39999"
   y="62.5"
   transform="matrix(0.2513,-0.9679,0.9679,0.2513,146.7811,321.8846)"
   class="st17"
   width="4.0999999"
   height="7.1999998"
   id="rect150" />
	
		<rect
   x="274.70001"
   y="80.5"
   transform="matrix(0.2513,-0.9679,0.9679,0.2513,125.8067,330.8815)"
   class="st17"
   width="4.0999999"
   height="7.1999998"
   id="rect152" />
	<g
   id="g158">
		<g
   id="g156">
			<path
   class="st18"
   d="m 278,64.8 c -3.1,-5.8 -2.2,-8.9 2.7,-9.3 2.6,0.4 4.7,1.6 6.2,3.8 1.3,1.5 1.9,3.2 2.9,4.9 1.3,2.3 2.7,3.9 5.5,4.3 2.6,0.4 5.1,-0.6 7.2,-2.2 1.3,-1.1 2.2,-2.4 3.2,-3.7 0.3,-0.4 0.6,-0.9 0.8,-1.4 1.1,-3 3.3,-3.7 6.8,-1.8 0.1,0.9 1.6,0.8 1.4,-0.1 -0.6,-3.5 -4,-4.2 -6.8,-2.2 -4.3,3.2 -5.1,11.3 -12.4,10 -4.3,-0.8 -5.7,-6.9 -8.5,-9.8 -3.2,-3.4 -8.1,-4.6 -11.7,-1 -3.2,3.2 -2.1,8.1 2,9.8 1,0.3 1.6,-1 0.7,-1.3 z"
   id="path154" />
		</g>
	</g>
	<g
   id="g164">
		<g
   id="g162">
			<path
   class="st18"
   d="m 307.7,111 c 1.3,1.8 3,4 5.4,3.6 0.6,-0.1 1.2,-0.3 1.6,-0.6 0.5,-0.3 0.7,-0.9 1.1,-1.2 2.5,-2 5.7,-3.1 7.8,0 1.5,2.1 1.6,5.5 4.4,6.6 2.3,0.8 4.2,-0.6 5.8,-2 0.7,-0.7 -0.1,-1.8 -0.8,-1.1 -4.8,4.2 -6.7,-2.6 -8.9,-5.2 -0.9,-1 -2.1,-1.9 -3.5,-2.2 -1.3,-0.2 -2.8,0 -3.9,0.8 -0.6,0.4 -0.9,0.9 -1.4,1.3 -0.4,0.4 -0.6,0.8 -0.9,1.3 -2.8,0.6 -4.7,-0.1 -5.7,-2.1 -0.3,-0.8 -1.5,0 -1,0.8 z"
   id="path160" />
		</g>
	</g>
	<g
   id="g170">
		<g
   id="g168">
			<path
   class="st18"
   d="m 353.4,70.9 c 3.1,-4 10.2,-2 14,-0.2 1.6,0.8 2.9,1.8 4,3.2 1.9,2.7 1.8,5.4 -0.1,8.2 -0.3,0.8 -0.9,1.2 -1,2.1 -0.4,1.8 0.3,3.4 1.1,5.1 1.6,3.3 2.8,5.7 1.9,9.4 -1.1,4.9 -4.2,7.1 -8.8,5.6 -0.8,-0.2 -1,1.1 -0.2,1.3 4.9,1.5 8.9,-0.5 10.1,-5.5 0.9,-3.3 0.7,-6.4 -0.8,-9.6 -1.9,-4.3 -2.5,-3 -0.5,-8.8 0.3,-0.8 0.6,-1.4 0.8,-2.3 2,-9.7 -15.8,-16.9 -21.5,-9.7 -0.6,1 0.4,1.9 1,1.2 z"
   id="path166" />
		</g>
	</g>
</g>
<g
   id="g512"
   transform="translate(-17.2,-9.4)">
	<polygon
   class="st19"
   points="1156.4,92.9 1156.9,91 1166.6,100.5 1164.8,101.1 "
   id="polygon174" />
	<polygon
   class="st19"
   points="1170.6,106.8 1171.2,104.9 1180.8,114.4 1179,115 "
   id="polygon176" />
	<polygon
   class="st19"
   points="1232.9,59.8 1232.4,61.7 1222.7,52.2 1224.5,51.6 "
   id="polygon178" />
	<polygon
   class="st19"
   points="1218.7,45.9 1218.2,47.8 1208.5,38.3 1210.3,37.7 "
   id="polygon180" />
	<g
   id="g202">
		
			<rect
   x="1157.2"
   y="64.900002"
   transform="matrix(0.6993,-0.7148,0.7148,0.6993,306.4049,871.644)"
   class="st19"
   width="64.099998"
   height="13.4"
   id="rect182" />
		<polyline
   class="st20"
   points="1169.2,97.8 1162,93.4 1163.3,92   "
   id="polyline184" />
		
			<rect
   x="1166.5"
   y="87.099998"
   transform="matrix(0.6993,-0.7148,0.7148,0.6993,284.0839,862.8658)"
   class="st21"
   width="2.3"
   height="13.4"
   id="rect186" />
		<polyline
   class="st22"
   points="1172.9,98.7 1168.8,103 1158.1,92.6 1162.3,88.3   "
   id="polyline188" />
		<polygon
   class="st19"
   points="1158.1,92.6 1160.4,94.9 1164.6,90.6 1162.3,88.3 1161.8,88.2 1158.1,92.1 "
   id="polygon190" />
		<polygon
   class="st19"
   points="1173.1,98.9 1170.8,96.6 1166.6,100.9 1169,103.2 1169.4,103.2 1173.1,99.4 "
   id="polygon192" />
		
			<rect
   x="1210.4"
   y="42.099998"
   transform="matrix(0.6993,-0.7148,0.7148,0.6993,329.4096,880.7202)"
   class="st21"
   width="2.3"
   height="13.4"
   id="rect194" />
		<polyline
   class="st22"
   points="1206.2,43.8 1210.4,39.5 1221,49.9 1216.8,54.2   "
   id="polyline196" />
		<polygon
   class="st19"
   points="1221,49.9 1218.7,47.6 1214.5,52 1216.8,54.2 1217.3,54.3 1221.1,50.5 "
   id="polygon198" />
		<polygon
   class="st19"
   points="1206,43.6 1208.3,45.9 1212.5,41.6 1210.2,39.3 1209.8,39.3 1206,43.1 "
   id="polygon200" />
	</g>
	<g
   id="g224">
		
			<rect
   x="1168.1"
   y="75.699997"
   transform="matrix(0.6993,-0.7148,0.7148,0.6993,302.0217,882.6956)"
   class="st19"
   width="64.099998"
   height="13.4"
   id="rect204" />
		<polyline
   class="st20"
   points="1180.1,108.5 1172.9,104 1174.2,102.7   "
   id="polyline206" />
		
			<rect
   x="1177.4"
   y="97.800003"
   transform="matrix(0.6993,-0.7148,0.7148,0.6993,279.722,873.8636)"
   class="st21"
   width="2.3"
   height="13.4"
   id="rect208" />
		<polyline
   class="st22"
   points="1183.9,109.4 1179.7,113.7 1169,103.3 1173.3,99   "
   id="polyline210" />
		<polygon
   class="st19"
   points="1169,103.3 1171.3,105.6 1175.6,101.3 1173.3,99 1172.7,98.9 1169,102.7 "
   id="polygon212" />
		<polygon
   class="st19"
   points="1184.1,109.6 1181.8,107.3 1177.5,111.6 1179.9,113.9 1180.3,113.9 1184.1,110.1 "
   id="polygon214" />
		
			<rect
   x="1221.3"
   y="52.799999"
   transform="matrix(0.6993,-0.7148,0.7148,0.6993,325.0865,891.7056)"
   class="st21"
   width="2.3"
   height="13.4"
   id="rect216" />
		<polyline
   class="st22"
   points="1217.1,54.5 1221.3,50.2 1231.9,60.6 1227.8,64.9   "
   id="polyline218" />
		<polygon
   class="st19"
   points="1231.9,60.6 1229.6,58.3 1225.5,62.6 1227.8,64.9 1228.2,65 1232,61.1 "
   id="polygon220" />
		<polygon
   class="st19"
   points="1216.9,54.3 1219.3,56.6 1223.4,52.3 1221.1,50 1220.7,50 1216.9,53.8 "
   id="polygon222" />
	</g>
	<g
   class="st23"
   id="g270">
		<g
   id="g246">
			
				<rect
   x="1157.2"
   y="65"
   transform="matrix(0.6993,-0.7148,0.7148,0.6993,306.3854,871.6297)"
   class="st9"
   width="64.099998"
   height="13.4"
   id="rect226" />
			<polyline
   class="st9"
   points="1169.2,97.7 1162,93.3 1163.2,92    "
   id="polyline228" />
			
				<rect
   x="1166.5"
   y="87"
   transform="matrix(0.6993,-0.7148,0.7148,0.6993,284.1395,862.819)"
   class="st9"
   width="2.3"
   height="13.4"
   id="rect230" />
			<polyline
   class="st9"
   points="1173,98.7 1168.7,102.9 1158.1,92.5 1162.3,88.3    "
   id="polyline232" />
			<polygon
   class="st9"
   points="1158.1,92.5 1160.4,94.8 1164.6,90.5 1162.3,88.3 1161.8,88.2 1158.1,92 "
   id="polygon234" />
			<polygon
   class="st9"
   points="1173.1,98.9 1170.8,96.6 1166.6,100.9 1168.9,103.2 1169.4,103.2 1173.1,99.4 "
   id="polygon236" />
			
				<rect
   x="1210.3"
   y="42"
   transform="matrix(0.6993,-0.7148,0.7148,0.6993,329.4639,880.6462)"
   class="st9"
   width="2.3"
   height="13.4"
   id="rect238" />
			<polyline
   class="st9"
   points="1206.2,43.7 1210.3,39.4 1221,49.9 1216.8,54.2    "
   id="polyline240" />
			<polygon
   class="st9"
   points="1221,49.9 1218.7,47.6 1214.5,51.9 1216.8,54.2 1217.3,54.2 1221,50.4 "
   id="polygon242" />
			<polygon
   class="st9"
   points="1206,43.6 1208.3,45.9 1212.5,41.6 1210.1,39.3 1209.7,39.3 1206,43.1 "
   id="polygon244" />
		</g>
		<g
   id="g268">
			
				<rect
   x="1168.1"
   y="75.599998"
   transform="matrix(0.6993,-0.7148,0.7148,0.6993,302.0236,882.6274)"
   class="st9"
   width="64.099998"
   height="13.4"
   id="rect248" />
			<polyline
   class="st9"
   points="1180.1,108.4 1172.9,104 1174.2,102.7    "
   id="polyline250" />
			
				<rect
   x="1177.4"
   y="97.699997"
   transform="matrix(0.6993,-0.7148,0.7148,0.6993,279.7777,873.8168)"
   class="st9"
   width="2.3"
   height="13.4"
   id="rect252" />
			<polyline
   class="st9"
   points="1183.8,109.4 1179.6,113.6 1169,103.2 1173.2,99    "
   id="polyline254" />
			<polygon
   class="st9"
   points="1169,103.2 1171.3,105.5 1175.5,101.2 1173.2,99 1172.7,98.9 1168.9,102.7 "
   id="polygon256" />
			<polygon
   class="st9"
   points="1184,109.6 1181.7,107.3 1177.5,111.5 1179.8,113.8 1180.3,113.9 1184.1,110 "
   id="polygon258" />
			
				<rect
   x="1221.2"
   y="52.799999"
   transform="matrix(0.6993,-0.7148,0.7148,0.6993,325.0657,891.6642)"
   class="st9"
   width="2.3"
   height="13.4"
   id="rect260" />
			<polyline
   class="st9"
   points="1217.1,54.4 1221.3,50.2 1231.9,60.6 1227.7,64.8    "
   id="polyline262" />
			<polygon
   class="st9"
   points="1231.9,60.6 1229.6,58.3 1225.4,62.6 1227.7,64.8 1228.2,64.9 1231.9,61.1 "
   id="polygon264" />
			<polygon
   class="st9"
   points="1216.9,54.2 1219.2,56.6 1223.4,52.3 1221.1,50 1220.6,49.9 1216.9,53.8 "
   id="polygon266" />
		</g>
	</g>
	<g
   id="g292">
		
			<rect
   x="1155.2"
   y="63"
   transform="matrix(0.6993,-0.7148,0.7148,0.6993,307.2183,869.6035)"
   class="st19"
   width="64.099998"
   height="13.4"
   id="rect272" />
		<polyline
   class="st20"
   points="1167.1,95.8 1160,91.4 1161.3,90   "
   id="polyline274" />
		
			<rect
   x="1164.4"
   y="85.099998"
   transform="matrix(0.6993,-0.7148,0.7148,0.6993,284.9186,860.7716)"
   class="st21"
   width="2.3"
   height="13.4"
   id="rect276" />
		<polyline
   class="st22"
   points="1170.9,96.7 1166.7,101 1156,90.6 1160.3,86.3   "
   id="polyline278" />
		<polygon
   class="st19"
   points="1156,90.6 1158.4,92.9 1162.6,88.6 1160.3,86.3 1159.8,86.3 1156,90.1 "
   id="polygon280" />
		<polygon
   class="st19"
   points="1171.1,96.9 1168.8,94.6 1164.6,98.9 1166.9,101.1 1167.4,101.2 1171.1,97.4 "
   id="polygon282" />
		
			<rect
   x="1208.3"
   y="40.099998"
   transform="matrix(0.6993,-0.7148,0.7148,0.6993,330.2282,878.6296)"
   class="st21"
   width="2.3"
   height="13.4"
   id="rect284" />
		<polyline
   class="st22"
   points="1204.1,41.8 1208.4,37.5 1219,47.9 1214.8,52.2   "
   id="polyline286" />
		<polygon
   class="st19"
   points="1219,47.9 1216.7,45.7 1212.5,50 1214.8,52.2 1215.3,52.3 1219,48.5 "
   id="polygon288" />
		<polygon
   class="st19"
   points="1204,41.6 1206.3,43.9 1210.5,39.7 1208.2,37.3 1207.7,37.3 1204,41.1 "
   id="polygon290" />
	</g>
	<g
   id="g314">
		
			<rect
   x="1169.4"
   y="76.900002"
   transform="matrix(0.6993,-0.7148,0.7148,0.6993,301.5121,883.9982)"
   class="st19"
   width="64.099998"
   height="13.4"
   id="rect294" />
		<polyline
   class="st20"
   points="1181.4,109.8 1174.3,105.3 1175.5,104   "
   id="polyline296" />
		
			<rect
   x="1178.7"
   y="99"
   transform="matrix(0.6993,-0.7148,0.7148,0.6993,279.2124,875.1663)"
   class="st21"
   width="2.3"
   height="13.4"
   id="rect298" />
		<polyline
   class="st22"
   points="1185.2,110.7 1181,115 1170.4,104.5 1174.5,100.3   "
   id="polyline300" />
		<polygon
   class="st19"
   points="1170.4,104.5 1172.6,106.8 1176.9,102.6 1174.5,100.3 1174.1,100.2 1170.4,104.1 "
   id="polygon302" />
		<polygon
   class="st19"
   points="1185.4,110.9 1183,108.6 1178.8,112.9 1181.2,115.1 1181.7,115.2 1185.4,111.4 "
   id="polygon304" />
		
			<rect
   x="1222.6"
   y="54.099998"
   transform="matrix(0.6993,-0.7148,0.7148,0.6993,324.552,893.046)"
   class="st21"
   width="2.3"
   height="13.4"
   id="rect306" />
		<polyline
   class="st22"
   points="1218.4,55.7 1222.7,51.5 1233.3,61.9 1229.1,66.2   "
   id="polyline308" />
		<polygon
   class="st19"
   points="1233.3,61.9 1231,59.6 1226.8,63.9 1229.1,66.2 1229.5,66.3 1233.3,62.4 "
   id="polygon310" />
		<polygon
   class="st19"
   points="1218.2,55.6 1220.6,57.8 1224.8,53.6 1222.5,51.3 1221.9,51.3 1218.2,55.1 "
   id="polygon312" />
	</g>
	
		<rect
   x="1175.8"
   y="77.099998"
   transform="matrix(0.6993,-0.7148,0.7148,0.6993,286.3607,870.0889)"
   class="st24"
   width="3.0999999"
   height="35.099998"
   id="rect316" />
	
		<rect
   x="1210.4"
   y="40.900002"
   transform="matrix(0.6993,-0.7148,0.7148,0.6993,322.6469,883.9659)"
   class="st24"
   width="3.0999999"
   height="35.099998"
   id="rect318" />
	
		<ellipse
   transform="matrix(0.7003,-0.7139,0.7139,0.7003,290.1401,879.0206)"
   class="st25"
   cx="1191.9"
   cy="94"
   rx="0.1"
   ry="0.40000001"
   id="ellipse320" />
	<path
   class="st25"
   d="m 1190.2,92.3 c 0,-0.1 0.2,0.1 0.3,0.2 0.1,0.1 0.2,0.3 0.2,0.4 0,0.1 -0.2,-0.1 -0.3,-0.2 -0.1,-0.2 -0.3,-0.3 -0.2,-0.4 z"
   id="path322" />
	
		<rect
   x="1190.5"
   y="70.400002"
   transform="matrix(0.6993,-0.7148,0.7148,0.6993,304.6204,876.8922)"
   class="st19"
   width="8.1000004"
   height="12"
   id="rect324" />
	<polygon
   class="st26"
   points="1199.3,75.8 1199.3,76 1199,76.3 1198.5,76.5 1198.3,77 1198,77.2 1195.6,79.5 1195.4,79.6 1195.3,79.9 1194.9,80.3 1194.2,81.2 1194,81.3 1193.9,81.9 1200.3,75.3 1199.6,75.6 "
   id="polygon326" />
	<polygon
   class="st26"
   points="1190,76.7 1190,76.6 1190.4,76.2 1190.8,75.9 1191,75.5 1191.4,75.3 1193.8,73 1193.9,73 1194.1,72.6 1194.5,72.3 1195.2,71.4 1195.5,71.2 1195.5,70.6 1189.1,77.3 1189.8,77 "
   id="polygon328" />
	
		<rect
   x="1193.1"
   y="58.700001"
   transform="matrix(0.6993,-0.7148,0.7148,0.6993,304.7054,876.9302)"
   class="st24"
   width="3.0999999"
   height="35.099998"
   id="rect330" />
	<g
   id="g336">
		<g
   id="g334">
			<path
   class="st27"
   d="m 1190.1,80.9 c -0.9,0.8 -1.6,1.8 -2.4,2.8 -0.6,0.8 -1.2,1.4 -2.1,1.8 -0.4,0.2 -0.1,0.8 0.4,0.6 0.9,-0.4 1.6,-1 2.3,-1.9 0.7,-1 1.5,-2 2.4,-2.8 0.3,-0.4 -0.2,-0.9 -0.6,-0.5 z"
   id="path332" />
		</g>
	</g>
	<g
   id="g342">
		<g
   id="g340">
			<path
   class="st28"
   d="m 1189.3,80 c -1.7,1.6 -3,3.7 -5.1,4.8 -0.4,0.2 -0.1,0.8 0.4,0.6 1,-0.6 1.8,-1.3 2.6,-2.1 0.9,-1 1.7,-1.9 2.6,-2.9 0.4,-0.1 -0.1,-0.7 -0.5,-0.4 z"
   id="path338" />
		</g>
	</g>
	<g
   id="g348">
		<g
   id="g346">
			<path
   class="st27"
   d="m 1185.8,85.3 c -0.3,0 -0.6,0.3 -0.9,0.5 -0.5,0.3 -0.9,0.6 -1.2,1.1 -0.3,0.4 -0.6,0.8 -0.6,1.2 0.1,0.3 0.2,0.5 0.5,0.7 0.4,0.4 0.7,0.7 1,1 0.8,0.8 1.7,1.5 2.6,2.2 0.4,0.3 0.7,-0.4 0.4,-0.6 -0.7,-0.5 -1.4,-1.1 -2,-1.7 -0.3,-0.3 -0.6,-0.6 -0.9,-0.9 -0.2,-0.2 -0.6,-0.6 -0.8,-0.8 h 0.1 c 0,-0.1 0,-0.1 0.1,-0.2 0,-0.1 0.2,-0.3 0.3,-0.4 0.2,-0.3 0.6,-0.7 1,-0.9 0.2,-0.1 0.4,-0.2 0.5,-0.3 0.1,-0.1 0.2,0 0.2,-0.1 0.1,-0.1 0.1,0 0,0 0,0 0.2,0 -0.1,0 0.4,-0.1 0.3,-0.8 -0.2,-0.8 z"
   id="path344" />
		</g>
	</g>
	<g
   id="g354">
		<g
   id="g352">
			<path
   class="st28"
   d="m 1186.5,92.1 c -0.8,-0.6 -1.5,-1.2 -2.1,-1.8 -0.7,-0.6 -1.4,-1.3 -2,-2 -0.3,-0.5 0.2,-1 0.5,-1.4 0.5,-0.6 1.1,-1 1.8,-1.3 0.4,-0.2 0.1,-0.8 -0.4,-0.6 -0.8,0.3 -1.5,0.9 -2,1.5 -0.4,0.5 -1,1.3 -0.6,2 0.2,0.4 0.6,0.8 0.9,1.1 0.4,0.4 0.7,0.7 1.2,1.2 0.8,0.8 1.6,1.4 2.5,2 0.3,0.2 0.6,-0.5 0.2,-0.7 z"
   id="path350" />
		</g>
	</g>
	<g
   id="g368">
		
			<rect
   x="1189.3"
   y="78.599998"
   transform="matrix(0.7003,-0.7139,0.7139,0.7003,299.7145,873.925)"
   class="st29"
   width="2.7"
   height="2.9000001"
   id="rect356" />
		
			<rect
   x="1190.4"
   y="78.599998"
   transform="matrix(0.7003,-0.7139,0.7139,0.7003,300.4711,874.1451)"
   class="st30"
   width="1.8"
   height="1.2"
   id="rect358" />
		<rect
   x="1190.5"
   y="79"
   transform="matrix(0.7003,-0.7139,0.7139,0.7003,300.1292,874.0513)"
   width="0.89999998"
   height="1.2"
   id="rect360" />
		
			<rect
   x="1191.6"
   y="79.900002"
   transform="matrix(0.7003,-0.7139,0.7139,0.7003,300.0638,874.9626)"
   class="st31"
   width="0.89999998"
   height="0.40000001"
   id="rect362" />
		
			<rect
   x="1190.1"
   y="78.5"
   transform="matrix(0.7003,-0.7139,0.7139,0.7003,300.6645,873.4601)"
   class="st31"
   width="0.89999998"
   height="0.40000001"
   id="rect364" />
		
			<rect
   x="1189.9"
   y="78.900002"
   transform="matrix(0.7003,-0.7139,0.7139,0.7003,299.3322,873.7598)"
   class="st32"
   width="0.69999999"
   height="2.9000001"
   id="rect366" />
	</g>
	<g
   id="g384">
		<polyline
   class="st33"
   points="1195.3,95.6 1196.5,96.7 1196.2,96.9 1195.1,95.8   "
   id="polyline370" />
		<polygon
   class="st20"
   points="1196.4,96.6 1196.1,96.9 1196.1,96.8 1196.3,96.5 "
   id="polygon372" />
		<polygon
   class="st20"
   points="1196.2,96.5 1196,96.8 1196,96.7 1196.2,96.4 "
   id="polygon374" />
		<polyline
   class="st20"
   points="1196.1,96.3 1195.9,96.7 1195.9,96.6   "
   id="polyline376" />
		<polyline
   class="st22"
   points="1196.2,96.2 1196.3,96.4 1195.9,96.8 1195.7,96.6   "
   id="polyline378" />
		<polyline
   class="st19"
   points="1196.2,96.2 1196.3,96.4 1196.2,96.5 1196,96.3   "
   id="polyline380" />
		<polyline
   class="st19"
   points="1195.8,96.6 1196,96.7 1195.9,96.8 1195.7,96.6   "
   id="polyline382" />
	</g>
	<g
   id="g400">
		<polyline
   class="st33"
   points="1194.2,96.7 1195.3,97.8 1195.1,98.1 1194,96.9   "
   id="polyline386" />
		<polygon
   class="st20"
   points="1195.2,97.7 1195.1,98 1195,98 1195.2,97.6 "
   id="polygon388" />
		<polygon
   class="st20"
   points="1195.2,97.6 1194.9,97.9 1194.9,97.8 1195.1,97.5 "
   id="polygon390" />
		<polyline
   class="st20"
   points="1195,97.4 1194.8,97.8 1194.8,97.7   "
   id="polyline392" />
		<polyline
   class="st22"
   points="1195.1,97.3 1195.3,97.5 1194.8,97.9 1194.6,97.8   "
   id="polyline394" />
		<polyline
   class="st19"
   points="1195.1,97.3 1195.3,97.5 1195.2,97.6 1195,97.4   "
   id="polyline396" />
		<polyline
   class="st19"
   points="1194.7,97.7 1194.9,97.9 1194.8,97.9 1194.6,97.8   "
   id="polyline398" />
	</g>
	<g
   id="g476">
		<path
   class="st31"
   d="m 1196.8,91.5 1.4,1.3 c 0.2,0.1 0.2,0.4 0,0.5 l -5.7,5.8 c -0.1,0.2 -0.4,0.2 -0.5,0 l -1.4,-1.3 c -0.2,-0.1 -0.2,-0.4 0,-0.5 l 5.7,-5.8 c 0.1,-0.1 0.3,-0.1 0.5,0 z"
   id="path402" />
		<path
   class="st31"
   d="m 1191.7,86.5 1.4,1.3 c 0.2,0.1 0.2,0.4 0,0.5 l -5.7,5.8 c -0.1,0.2 -0.4,0.2 -0.5,0 l -1.4,-1.3 c -0.2,-0.1 -0.2,-0.4 0,-0.5 l 5.7,-5.8 c 0.1,-0.1 0.3,-0.1 0.5,0 z"
   id="path404" />
		<path
   class="st31"
   d="m 1196.8,91.5 1,1 c 0.2,0.1 0.2,0.4 0,0.5 l -5.7,5.8 c -0.1,0.2 -0.4,0.2 -0.5,0 l -1,-1 c -0.2,-0.1 -0.2,-0.4 0,-0.5 l 5.7,-5.8 c 0.1,-0.1 0.3,-0.1 0.5,0 z"
   id="path406" />
		<path
   class="st31"
   d="m 1195.2,90 1,1 c 0.2,0.1 0.2,0.4 0,0.5 l -5.7,5.8 c -0.1,0.2 -0.4,0.2 -0.5,0 l -1,-1 c -0.2,-0.1 -0.2,-0.4 0,-0.5 l 5.7,-5.8 c 0.1,-0.2 0.3,-0.2 0.5,0 z"
   id="path408" />
		<path
   class="st31"
   d="m 1193.6,88.4 1,1 c 0.2,0.1 0.2,0.4 0,0.5 l -5.7,5.8 c -0.1,0.2 -0.4,0.2 -0.5,0 l -1,-1 c -0.2,-0.1 -0.2,-0.4 0,-0.5 l 5.7,-5.8 c 0.1,-0.2 0.3,-0.2 0.5,0 z"
   id="path410" />
		<path
   class="st31"
   d="m 1192,86.8 1,1 c 0.2,0.1 0.2,0.4 0,0.5 l -5.7,5.8 c -0.1,0.2 -0.4,0.2 -0.5,0 l -1,-1 c -0.2,-0.1 -0.2,-0.4 0,-0.5 l 5.7,-5.8 c 0.1,-0.1 0.3,-0.1 0.5,0 z"
   id="path412" />
		<path
   class="st34"
   d="m 1196.8,91.5 1,1 c 0.2,0.1 0.2,0.4 0,0.5 l -5.7,5.8 c -0.1,0.2 -0.4,0.2 -0.5,0 l -1,-1 c -0.2,-0.1 -0.2,-0.4 0,-0.5 l 5.7,-5.8 c 0.1,-0.1 0.3,-0.1 0.5,0 z"
   id="path414" />
		<path
   class="st34"
   d="m 1195.2,90 1,1 c 0.2,0.1 0.2,0.4 0,0.5 l -5.7,5.8 c -0.1,0.2 -0.4,0.2 -0.5,0 l -1,-1 c -0.2,-0.1 -0.2,-0.4 0,-0.5 l 5.7,-5.8 c 0.1,-0.2 0.3,-0.2 0.5,0 z"
   id="path416" />
		<path
   class="st34"
   d="m 1193.6,88.4 1,1 c 0.2,0.1 0.2,0.4 0,0.5 l -5.7,5.8 c -0.1,0.2 -0.4,0.2 -0.5,0 l -1,-1 c -0.2,-0.1 -0.2,-0.4 0,-0.5 l 5.7,-5.8 c 0.1,-0.2 0.3,-0.2 0.5,0 z"
   id="path418" />
		<path
   class="st34"
   d="m 1192,86.8 1,1 c 0.2,0.1 0.2,0.4 0,0.5 l -5.7,5.8 c -0.1,0.2 -0.4,0.2 -0.5,0 l -1,-1 c -0.2,-0.1 -0.2,-0.4 0,-0.5 l 5.7,-5.8 c 0.1,-0.1 0.3,-0.1 0.5,0 z"
   id="path420" />
		
			<rect
   x="1195.2"
   y="92.800003"
   transform="matrix(0.7003,-0.7139,0.7139,0.7003,291.046,881.5914)"
   class="st35"
   width="0.40000001"
   height="2.7"
   id="rect422" />
		
			<rect
   x="1190.1"
   y="87.900002"
   transform="matrix(0.7003,-0.7139,0.7139,0.7003,293.0724,876.4743)"
   class="st35"
   width="0.40000001"
   height="2.7"
   id="rect424" />
		
			<rect
   x="1193.4"
   y="91.400002"
   transform="matrix(0.7003,-0.7139,0.7139,0.7003,291.7146,879.8307)"
   class="st29"
   width="0.40000001"
   height="2.2"
   id="rect426" />
		
			<rect
   x="1191.8"
   y="89.800003"
   transform="matrix(0.7003,-0.7139,0.7139,0.7003,292.3501,878.2137)"
   class="st29"
   width="0.40000001"
   height="2.2"
   id="rect428" />
		
			<rect
   x="1190.2"
   y="88.300003"
   transform="matrix(0.7003,-0.7139,0.7139,0.7003,292.9856,876.5966)"
   class="st29"
   width="0.40000001"
   height="2.2"
   id="rect430" />
		
			<rect
   x="1194.7"
   y="93.400002"
   transform="matrix(0.7003,-0.7139,0.7139,0.7003,290.5273,881.384)"
   class="st36"
   width="0.40000001"
   height="2.7"
   id="rect432" />
		
			<rect
   x="1189.6"
   y="88.400002"
   transform="matrix(0.7003,-0.7139,0.7139,0.7003,292.5537,876.2671)"
   class="st36"
   width="0.40000001"
   height="2.7"
   id="rect434" />
		
			<rect
   x="1194.5"
   y="93.400002"
   transform="matrix(0.7003,-0.7139,0.7139,0.7003,290.5817,881.1867)"
   class="st37"
   width="0.40000001"
   height="2.2"
   id="rect436" />
		
			<rect
   x="1192.9"
   y="91.900002"
   transform="matrix(0.7003,-0.7139,0.7139,0.7003,291.1959,879.6234)"
   class="st37"
   width="0.40000001"
   height="2.2"
   id="rect438" />
		
			<rect
   x="1191.3"
   y="90.300003"
   transform="matrix(0.7003,-0.7139,0.7139,0.7003,291.8313,878.0064)"
   class="st37"
   width="0.40000001"
   height="2.2"
   id="rect440" />
		
			<rect
   x="1189.7"
   y="88.800003"
   transform="matrix(0.7003,-0.7139,0.7139,0.7003,292.4669,876.3894)"
   class="st37"
   width="0.40000001"
   height="2.2"
   id="rect442" />
		
			<rect
   x="1193.8"
   y="94.099998"
   transform="matrix(0.7003,-0.7139,0.7139,0.7003,289.8029,881.0945)"
   class="st36"
   width="0.80000001"
   height="2.7"
   id="rect444" />
		
			<rect
   x="1188.7"
   y="89.099998"
   transform="matrix(0.7003,-0.7139,0.7139,0.7003,291.8293,875.9775)"
   class="st36"
   width="0.80000001"
   height="2.7"
   id="rect446" />
		
			<rect
   x="1193.6"
   y="94.099998"
   transform="matrix(0.7003,-0.7139,0.7139,0.7003,289.8573,880.8972)"
   class="st37"
   width="0.80000001"
   height="2.2"
   id="rect448" />
		
			<rect
   x="1192"
   y="92.599998"
   transform="matrix(0.7003,-0.7139,0.7139,0.7003,290.4715,879.3338)"
   class="st37"
   width="0.80000001"
   height="2.2"
   id="rect450" />
		
			<rect
   x="1190.4"
   y="91.099998"
   transform="matrix(0.7003,-0.7139,0.7139,0.7003,291.1069,877.7168)"
   class="st37"
   width="0.80000001"
   height="2.2"
   id="rect452" />
		
			<rect
   x="1188.8"
   y="89.5"
   transform="matrix(0.7003,-0.7139,0.7139,0.7003,291.7425,876.0997)"
   class="st37"
   width="0.80000001"
   height="2.2"
   id="rect454" />
		<path
   class="st38"
   d="m 1192.7,95 -2.2,2.3 c -0.1,0.2 -0.2,0.4 0,0.5 l 1.4,1.3 c 0.2,0.1 0.4,0.2 0.5,0 l 2.2,-2.3 z"
   id="path456" />
		<path
   class="st36"
   d="m 1187.6,90.1 -2.2,2.3 c -0.1,0.2 -0.2,0.4 0,0.5 l 1.4,1.3 c 0.2,0.1 0.4,0.2 0.5,0 l 2.2,-2.3 z"
   id="path458" />
		<path
   class="st37"
   d="m 1192.7,95 -2.2,2.3 c -0.1,0.2 -0.2,0.4 0,0.5 l 1,1 c 0.2,0.1 0.4,0.2 0.5,0 l 2.2,-2.3 z"
   id="path460" />
		<path
   class="st37"
   d="m 1191.1,93.5 -2.2,2.3 c -0.1,0.2 -0.2,0.4 0,0.5 l 1,1 c 0.2,0.1 0.4,0.2 0.5,0 l 2.2,-2.3 z"
   id="path462" />
		<path
   class="st37"
   d="m 1189.5,92 -2.2,2.3 c -0.1,0.2 -0.2,0.4 0,0.5 l 1,1 c 0.2,0.1 0.4,0.2 0.5,0 l 2.2,-2.3 z"
   id="path464" />
		<path
   class="st37"
   d="m 1188,90.4 -2.3,2.3 c -0.1,0.2 -0.2,0.4 0,0.5 l 1,1 c 0.2,0.1 0.4,0.2 0.5,0 l 2.2,-2.3 z"
   id="path466" />
		<path
   class="st25"
   d="m 1197,91.8 0.5,0.4 c 0.1,0.1 0.1,0.3 0,0.5 l -5.8,6 c -0.1,0.1 -0.3,0.1 -0.5,0 l -0.5,-0.4 c -0.1,-0.1 -0.1,-0.3 0,-0.5 l 5.8,-6 c 0.2,-0.2 0.4,-0.1 0.5,0 z"
   id="path468" />
		<path
   class="st25"
   d="m 1195.4,90.1 0.6,0.6 c 0.1,0.1 0.1,0.3 0,0.5 l -5.8,5.9 c -0.1,0.1 -0.3,0.1 -0.5,0 l -0.6,-0.6 c -0.1,-0.1 -0.1,-0.3 0,-0.5 l 5.8,-5.9 c 0.1,-0.1 0.4,-0.1 0.5,0 z"
   id="path470" />
		<path
   class="st25"
   d="m 1193.8,88.6 0.5,0.5 c 0.1,0.1 0.1,0.3 0,0.5 l -5.8,5.9 c -0.1,0.1 -0.3,0.1 -0.5,0 l -0.6,-0.5 c -0.1,-0.1 -0.1,-0.3 0,-0.5 l 5.8,-5.9 c 0.3,-0.1 0.5,-0.1 0.6,0 z"
   id="path472" />
		<path
   class="st25"
   d="m 1192.3,87.1 0.4,0.4 c 0.1,0.1 0.1,0.3 0,0.4 l -5.8,6 c -0.1,0.1 -0.3,0.1 -0.4,0 l -0.4,-0.4 c -0.1,-0.1 -0.1,-0.3 0,-0.4 l 5.9,-6 c 0,-0.1 0.2,-0.1 0.3,0 z"
   id="path474" />
	</g>
	<path
   class="st39"
   d="m 1185.4,88.9 9.1,8.9 1.7,-1.8 -9.1,-8.9 z m 9.3,7.4 c -0.2,0.2 -0.4,0.2 -0.6,0 -0.2,-0.2 -0.2,-0.4 0,-0.6 0.2,-0.2 0.4,-0.2 0.6,0 0.2,0.2 0.1,0.5 0,0.6 z m -1.5,-1.5 c -0.2,0.2 -0.4,0.2 -0.6,0 -0.2,-0.2 -0.2,-0.4 0,-0.6 0.2,-0.2 0.4,-0.2 0.6,0 0.1,0.2 0.1,0.4 0,0.6 z m -1.6,-1.5 c -0.2,0.2 -0.4,0.2 -0.6,0 -0.2,-0.2 -0.2,-0.4 0,-0.6 0.2,-0.2 0.4,-0.2 0.6,0 0.2,0.2 0.2,0.4 0,0.6 z m -1.5,-1.5 c -0.2,0.2 -0.4,0.2 -0.6,0 -0.2,-0.2 -0.2,-0.4 0,-0.6 0.2,-0.2 0.4,-0.2 0.6,0 0.2,0.1 0.2,0.4 0,0.6 z m -1.6,-1.5 c -0.2,0.2 -0.4,0.2 -0.6,0 -0.2,-0.2 -0.2,-0.4 0,-0.6 0.2,-0.2 0.4,-0.2 0.6,0 0.2,0.1 0.2,0.4 0,0.6 z"
   id="path478" />
	<circle
   class="st19"
   cx="1186.1"
   cy="88.900002"
   r="0.30000001"
   id="circle480" />
	<circle
   class="st19"
   cx="1187.2"
   cy="87.900002"
   r="0.30000001"
   id="circle482" />
	<path
   class="st22"
   d="m 1186.1,88.9 c -0.1,-0.1 -0.2,-0.2 -0.2,-0.2 0,0 0.1,0.1 0.2,0.2 0.1,0.1 0.2,0.2 0.2,0.2 0,0 -0.1,-0.1 -0.2,-0.2 z"
   id="path484" />
	<path
   class="st22"
   d="m 1187.1,87.9 c -0.1,-0.1 -0.2,-0.2 -0.2,-0.2 0,0 0.1,0.1 0.2,0.2 0.1,0.1 0.2,0.2 0.2,0.2 0,0 -0.1,-0.1 -0.2,-0.2 z"
   id="path486" />
	<polygon
   class="st40"
   points="1195.2,102.7 1195.2,101.7 1197.1,99.7 1198.2,99.7 1198.1,98.6 1200.1,96.6 1201.1,96.6 1201.1,95.5 1203.1,93.6 1204.2,93.6 1204.2,92.5 1204.9,91.7 1203.6,90.5 1192.1,102.2 1193.4,103.5 1194.1,102.8 "
   id="polygon488" />
	<polygon
   class="st40"
   points="1211.6,86 1211.6,84.9 1213.5,82.8 1214.6,82.9 1214.6,81.8 1216.5,79.8 1217.6,79.8 1217.6,78.7 1219.5,76.8 1220.6,76.8 1220.6,75.7 1221.4,74.9 1220.1,73.6 1208.5,85.4 1209.8,86.6 1210.5,85.9 "
   id="polygon490" />
	<polygon
   class="st40"
   points="1193.8,50.4 1193.8,51.5 1191.9,53.4 1190.8,53.5 1190.8,54.6 1188.9,56.5 1187.8,56.5 1187.8,57.6 1185.9,59.6 1184.8,59.6 1184.8,60.7 1184.1,61.5 1185.3,62.7 1196.9,50.9 1195.6,49.7 1194.9,50.5 "
   id="polygon492" />
	<polygon
   class="st40"
   points="1177.4,67.3 1177.4,68.4 1175.4,70.3 1174.3,70.3 1174.3,71.4 1172.4,73.4 1171.3,73.4 1171.4,74.5 1169.5,76.4 1168.4,76.5 1168.4,77.5 1167.7,78.3 1168.9,79.5 1180.4,67.8 1179.2,66.5 1178.5,67.2 "
   id="polygon494" />
	<polygon
   class="st26"
   points="1180.1,67.8 1180,68 1179.6,68.4 1179,68.8 1178.8,69.3 1178.2,69.5 1175.3,72.6 1175,72.6 1174.8,73.1 1174.3,73.5 1173.4,74.7 1173.1,74.8 1172.9,75.6 1181.3,67.1 1180.4,67.5 "
   id="polygon496" />
	<polygon
   class="st26"
   points="1175.2,72.7 1175.2,72.9 1174.8,73.3 1174.2,73.7 1173.9,74.2 1173.4,74.5 1170.4,77.5 1170.2,77.5 1170,78.1 1169.5,78.4 1168.6,79.6 1168.3,79.7 1168.1,80.5 1176.4,72 1175.5,72.4 "
   id="polygon498" />
	<polygon
   class="st26"
   points="1192.3,102.3 1192.4,102.2 1192.8,101.7 1193.4,101.4 1193.6,100.8 1194.1,100.6 1197.1,97.5 1197.4,97.5 1197.6,97 1198,96.6 1199,95.5 1199.3,95.3 1199.5,94.5 1191.1,103 1192,102.7 "
   id="polygon500" />
	<polygon
   class="st26"
   points="1197.1,97.4 1197.2,97.2 1197.6,96.8 1198.2,96.4 1198.5,95.9 1198.9,95.7 1202,92.7 1202.2,92.6 1202.3,92.1 1202.9,91.7 1203.8,90.5 1204.1,90.4 1204.2,89.6 1196,98.1 1196.8,97.8 "
   id="polygon502" />
	<polygon
   class="st26"
   points="1208.9,85.4 1209,85.2 1209.3,84.8 1209.9,84.4 1210.2,83.8 1210.7,83.6 1213.7,80.6 1214,80.6 1214.1,80.1 1214.6,79.7 1215.5,78.5 1215.9,78.4 1216,77.6 1207.7,86.1 1208.6,85.7 "
   id="polygon504" />
	<polygon
   class="st26"
   points="1213.7,80.5 1213.7,80.3 1214.2,79.8 1214.8,79.5 1215,78.9 1215.5,78.7 1218.5,75.7 1218.8,75.7 1218.9,75.2 1219.5,74.8 1220.4,73.6 1220.7,73.5 1220.8,72.7 1212.5,81.1 1213.4,80.8 "
   id="polygon506" />
	<polygon
   class="st26"
   points="1196.8,50.7 1196.7,50.9 1196.3,51.4 1195.7,51.7 1195.4,52.3 1194.9,52.5 1191.9,55.5 1191.7,55.6 1191.5,56 1191,56.5 1190.1,57.6 1189.7,57.7 1189.6,58.6 1197.9,50.1 1197.1,50.4 "
   id="polygon508" />
	<polygon
   class="st26"
   points="1191.9,55.7 1191.8,55.8 1191.5,56.3 1190.9,56.7 1190.6,57.2 1190.1,57.4 1187.1,60.4 1186.8,60.4 1186.7,60.9 1186.2,61.4 1185.3,62.6 1184.9,62.6 1184.8,63.5 1193.1,55 1192.2,55.3 "
   id="polygon510" />
</g>
</svg>
