<?xml version="1.0" encoding="UTF-8" standalone="no"?>
<!-- Generator: Adobe Illustrator 26.2.0, SVG Export Plug-In . SVG Version: 6.00 Build 0)  -->

<svg
   version="1.1"
   id="Layer_1"
   x="0px"
   y="0px"
   viewBox="0 0 1081.0062 180.20396"
   xml:space="preserve"
   sodipodi:docname="leaderboard_header2.svg"
   width="1081.0062"
   height="180.20396"
   inkscape:version="1.1 (c68e22c387, 2021-05-23)"
   xmlns:inkscape="http://www.inkscape.org/namespaces/inkscape"
   xmlns:sodipodi="http://sodipodi.sourceforge.net/DTD/sodipodi-0.dtd"
   xmlns:xlink="http://www.w3.org/1999/xlink"
   xmlns="http://www.w3.org/2000/svg"
   xmlns:svg="http://www.w3.org/2000/svg"><defs
   id="defs1023" /><sodipodi:namedview
   id="namedview1021"
   pagecolor="#ffffff"
   bordercolor="#666666"
   borderopacity="1.0"
   inkscape:pageshadow="2"
   inkscape:pageopacity="0.0"
   inkscape:pagecheckerboard="0"
   showgrid="false"
   inkscape:zoom="1.3842519"
   inkscape:cx="1196.314"
   inkscape:cy="84.160981"
   inkscape:window-width="1842"
   inkscape:window-height="1057"
   inkscape:window-x="-8"
   inkscape:window-y="-8"
   inkscape:window-maximized="1"
   inkscape:current-layer="Layer_1" />
<style
   type="text/css"
   id="style2">
	.st0{fill:#4F4F4F;}
	.st1{fill:#4F403A;}
	.st2{fill:#B79F2A;}
	.st3{filter:url(#Adobe_OpacityMaskFilter);}
	.st4{mask:url(#SVGID_1_);}
	.st5{fill:#8C811E;}
	.st6{fill:#FCE249;}
	.st7{opacity:0.21;fill:#F2EEEB;stroke:#5B5B5B;stroke-width:0.6987;stroke-miterlimit:10;}
	.st8{fill:#3D3D3D;}
	.st9{fill:#706051;}
	.st10{opacity:0.36;}
	.st11{fill:#606060;}
	.st12{fill:#939393;}
	.st13{fill:#727272;}
	.st14{fill:#705E51;stroke:#5B5B5B;stroke-width:1.046;stroke-miterlimit:10;}
	.st15{fill:#636363;}
	.st16{fill:#6B3F34;}
	.st17{fill:#603E26;}
	.st18{fill:#4F4F4F;stroke:#4F4F4F;stroke-width:1.0557;stroke-miterlimit:10;}
	.st19{fill:#775742;}
	.st20{opacity:0.46;fill:#33302D;enable-background:new    ;}
	.st21{fill:#54463C;}
	.st22{fill:#AFAFAF;}
	.st23{fill:none;stroke:#54463C;stroke-width:1.0557;stroke-miterlimit:10;}
	.st24{fill:#686868;stroke:#5B5B5B;stroke-width:0.7827;stroke-miterlimit:10;}
	.st25{fill:#705E51;stroke:#5B5B5B;stroke-width:0.6341;stroke-miterlimit:10;}
	.st26{fill:#919191;stroke:#5B5B5B;stroke-width:0.3563;stroke-miterlimit:10;}
	.st27{fill:#6E655C;}
	.st28{fill:#56504A;}
	.st29{fill:#F1A957;stroke:#5B5B5B;stroke-width:0.6139;stroke-miterlimit:10;}
	.st30{fill:#6B6865;}
	.st31{fill:none;stroke:#5B5B5B;stroke-width:0.3837;stroke-miterlimit:10;}
	.st32{fill:#5B5B5B;}
	.st33{fill:#686868;}
	.st34{fill:#561C1C;}
	.st35{fill:#6D6D6D;}
	.st36{fill:none;stroke:#455132;stroke-width:2.1114;stroke-miterlimit:10;}
	.st37{filter:url(#Adobe_OpacityMaskFilter_00000085937093697870157560000007703432792014686392_);}
	.st38{mask:url(#SVGID_00000137099968134223391810000009541137288477626264_);}
	.st39{fill:#919191;stroke:#5B5B5B;stroke-width:0.3775;stroke-miterlimit:10;}
	.st40{fill:#F1A957;stroke:#5B5B5B;stroke-width:0.4065;stroke-miterlimit:10;}
	.st41{fill:#705E51;stroke:#5B5B5B;stroke-width:0.4065;stroke-miterlimit:10;}
	.st42{fill:#705E51;stroke:#5B5B5B;stroke-width:0.5096;stroke-miterlimit:10;}
	.st43{fill:#686868;stroke:#5B5B5B;stroke-width:1.2195;stroke-miterlimit:10;}
	.st44{fill:#8C8173;}
	.st45{fill:#874525;}
	.st46{fill:#BFBFBF;}
	.st47{fill:#7E7168;}
	.st48{fill:#A59989;}
	.st49{fill:none;stroke:#561C1C;stroke-width:1.0682;stroke-miterlimit:10;}
</style>
<rect
   x="453.71484"
   y="58.125813"
   class="st0"
   width="176.89999"
   height="7.1999998"
   id="rect4" />
<g
   id="g112"
   transform="translate(0.01483043,0.02581547)">
	<path
   class="st1"
   d="m 631,67.8 h 88 c 6.7,0 12.1,-5.4 12.1,-12.1 v 0 C 731.1,49 725.7,43.6 719,43.6 h -88 c -6.7,0 -12.1,5.4 -12.1,12.1 v 0 c -0.1,6.6 5.4,12.1 12.1,12.1 z"
   id="path6" />
	<g
   id="g36">
		<g
   id="g26">
			<g
   id="g10">
				<path
   class="st2"
   d="m 650.9,50.8 -0.5,1.9 v 3 l -0.2,2.6 0.2,3 H 723 c 0,0 1.5,0.1 1.5,0 0,-0.1 0.8,-3.2 0.8,-3.3 0,-0.2 -0.5,-5.7 -0.5,-5.7 0,-0.1 -1.2,-2.5 -1.2,-2.5 L 692,50.7 650.9,50.5"
   id="path8" />
			</g>
			<defs
   id="defs15">
				<filter
   id="Adobe_OpacityMaskFilter"
   filterUnits="userSpaceOnUse"
   x="650.09998"
   y="49.599998"
   width="75.199997"
   height="11.6">
					
						<feColorMatrix
   type="matrix"
   values="-1 0 0 0 1  0 -1 0 0 1  0 0 -1 0 1  0 0 0 1 0"
   color-interpolation-filters="sRGB"
   result="source"
   id="feColorMatrix12" />
				</filter>
			</defs>
			<mask
   maskUnits="userSpaceOnUse"
   x="650.1"
   y="49.6"
   width="75.2"
   height="11.6"
   id="SVGID_1_">
				<g
   class="st3"
   id="g19">
					<image
   style="overflow:visible"
   width="80"
   height="16"
   xlink:href="3DE4B4D6.jpg"
   transform="translate(648,47.5455)"
   id="image17">
					</image>
				</g>
			</mask>
			<g
   class="st4"
   mask="url(#SVGID_1_)"
   id="g24">
				<path
   class="st5"
   d="m 650.9,50.8 -0.5,1.9 v 3 l -0.2,2.6 0.2,3 H 723 c 0,0 1.5,0.1 1.5,0 0,-0.1 0.8,-3.2 0.8,-3.3 0,-0.2 -0.5,-5.7 -0.5,-5.7 0,-0.1 -1.2,-2.5 -1.2,-2.5 L 692,50.7 650.9,50.5"
   id="path22" />
			</g>
		</g>
		<path
   class="st6"
   d="m 675.8,55.9 c 0,0 1.7,-0.1 2.8,-1.2 1.1,-1.1 2.2,-1.2 3.1,-0.2 0.9,1 -1,2.2 1.2,2.9 2.3,0.7 10.2,-8.1 13.1,-5.6 2.9,2.5 2.7,5.4 4.5,5.6 1.8,0.2 1.3,2.7 0.2,2.5 -1,-0.3 -2.7,-2.1 -3.8,-1.6 -1,0.6 -3.5,2.8 -4.2,-0.2 -0.6,-3 0.3,-4.4 -1.5,-3 -1.7,1.4 -3.5,-0.6 -4.7,1.8 -1.2,2.4 -2.3,4.2 -3.6,2.2 -1.2,-2 -0.7,-2.2 -1.4,-2 -0.7,0.2 -2.7,-1.7 -3.5,-0.8 -0.6,1 -2.6,2.3 -2.2,-0.4 z"
   id="path28" />
		<path
   class="st6"
   d="m 660.3,58 c 0,0 0,-2.6 0.8,-3.4 0.8,-0.8 1.5,-1.7 3,-0.8 1.5,0.9 1.3,0.8 2,0.2 0.7,-0.6 2,-0.6 2.1,0 0.1,0.6 0.9,0.5 -0.7,1.7 -1.5,1.2 -0.7,1 -1.8,2.3 -1.1,1.3 -3.1,2.8 -5.4,0 z"
   id="path30" />
		<path
   class="st6"
   d="m 714.6,58 c -1.3,0.7 -1.8,-4.4 -0.4,-5.2 0.3,-0.2 0.6,-0.2 1,-0.1 1.4,0.5 2.8,3.6 3.4,3.1 0.6,-0.5 2,-0.6 2,0.9 -0.1,1.6 -0.1,1.3 -0.3,2.2 -0.2,1 -2.9,0.6 -3.1,-0.5 -0.2,-1.1 -1.8,-1.5 -2,-1 -0.2,0.3 -0.4,0.5 -0.6,0.6 z"
   id="path32" />
		<path
   class="st6"
   d="m 711.1,55.1 c 0,0 0.7,-0.1 0.8,0.5 0.1,0.6 0.5,3.8 -0.4,3.1 -0.9,-0.7 -0.7,-1.9 -0.4,-3.6 z"
   id="path34" />
	</g>
	<path
   class="st7"
   d="m 719.3,59.4 h -88.8 c -1.6,0 -2.8,-1.3 -2.8,-2.8 v -1.9 c 0,-1.6 1.3,-2.8 2.8,-2.8 h 88.8 c 1.6,0 2.8,1.3 2.8,2.8 v 1.9 c 0,1.5 -1.3,2.8 -2.8,2.8 z"
   id="path38" />
	<path
   class="st8"
   d="m 621.9,57.3 v -3.1 c 0,-4.4 4.7,-8.1 7.8,-8.1 h 90.5 c 3.1,0 7.9,3.6 7.9,8.1 v 3.1 c 0,4.4 -4.8,8.1 -7.9,8.1 h -90.5 c -3.1,-0.1 -7.8,-3.7 -7.8,-8.1 z m 7.8,-7.2 c -1.6,0 -2.8,1.8 -2.8,4.1 v 3.1 c 0,2.2 1.3,4.1 2.8,4.1 h 90.5 c 1.6,0 2.8,-1.8 2.8,-4.1 v -3.1 c 0,-2.2 -1.3,-4.1 -2.8,-4.1 z"
   id="path40" />
	<path
   class="st9"
   d="m 626,55.5 c 0,-3.4 1.9,-6.1 4.3,-6.1 h 89.3 c 2.3,0 4.3,2.7 4.3,6.1 0,3.4 -1.9,6.1 -4.3,6.1 h -89.3 c -2.4,0 -4.3,-2.8 -4.3,-6.1 z m 4.2,-3.8 c -1.4,0 -2.6,1.7 -2.6,3.8 0,2.1 1.2,3.8 2.6,3.8 h 89.3 c 1.4,0 2.6,-1.7 2.6,-3.8 0,-2.1 -1.2,-3.8 -2.6,-3.8 z"
   id="path42" />
	<g
   class="st10"
   id="g50">
		<defs
   id="defs45">
			<path
   id="SVGID_00000105419054622281386100000015343342098690335896_"
   class="st10"
   d="m 633.6,57.3 v -3.1 c 0,-4.4 2.5,-8.1 5.6,-8.1 h 91.1 c 3.1,0 5.6,3.6 5.6,8.1 v 3.1 c 0,4.4 -2.5,8.1 -5.6,8.1 h -91.1 c -3.1,-0.1 -5.6,-3.7 -5.6,-8.1 z m 5.6,-7.2 c -1.6,0 -2.8,1.8 -2.8,4.1 v 3.1 c 0,2.2 1.3,4.1 2.8,4.1 h 91.1 c 1.6,0 2.8,-1.8 2.8,-4.1 v -3.1 c 0,-2.2 -1.3,-4.1 -2.8,-4.1 z" />
		</defs>
		<clipPath
   id="SVGID_00000167393847170848694870000003319504184132633243_">
			<use
   xlink:href="#SVGID_00000105419054622281386100000015343342098690335896_"
   style="overflow:visible"
   id="use47"
   x="0"
   y="0"
   width="100%"
   height="100%" />
		</clipPath>
	</g>
	<g
   id="g56">
		<ellipse
   class="st11"
   cx="634.59998"
   cy="47.799999"
   rx="1.3"
   ry="1.2"
   id="ellipse52" />
		<polygon
   class="st12"
   points="635,47.8 635.2,48.5 634.9,47.9 634.5,47.5 634,47.1 634.6,47.4 "
   id="polygon54" />
	</g>
	<g
   id="g62">
		<ellipse
   class="st11"
   cx="634.59998"
   cy="63.900002"
   rx="1.3"
   ry="1.2"
   id="ellipse58" />
		<polygon
   class="st12"
   points="635,63.9 635.2,64.6 634.9,64.1 634.5,63.7 634,63.3 634.6,63.5 "
   id="polygon60" />
	</g>
	<g
   id="g68">
		<ellipse
   class="st11"
   cx="715.20001"
   cy="47.799999"
   rx="1.3"
   ry="1.2"
   id="ellipse64" />
		<polygon
   class="st12"
   points="715.6,47.8 715.8,48.5 715.5,47.9 715.1,47.5 714.5,47.1 715.1,47.4 "
   id="polygon66" />
	</g>
	<g
   id="g74">
		<ellipse
   class="st11"
   cx="715.20001"
   cy="63.900002"
   rx="1.3"
   ry="1.2"
   id="ellipse70" />
		<polygon
   class="st12"
   points="715.6,63.9 715.8,64.6 715.5,64.1 715.1,63.7 714.5,63.3 715.1,63.5 "
   id="polygon72" />
	</g>
	<g
   id="g80">
		<ellipse
   class="st11"
   cx="674.5"
   cy="47.799999"
   rx="1.3"
   ry="1.2"
   id="ellipse76" />
		<polygon
   class="st12"
   points="674.9,47.8 675.1,48.5 674.8,47.9 674.4,47.5 673.8,47.1 674.4,47.4 "
   id="polygon78" />
	</g>
	<g
   id="g86">
		<ellipse
   class="st11"
   cx="674.5"
   cy="63.900002"
   rx="1.3"
   ry="1.2"
   id="ellipse82" />
		<polygon
   class="st12"
   points="674.9,63.9 675.1,64.6 674.8,64.1 674.4,63.7 673.8,63.3 674.4,63.5 "
   id="polygon84" />
	</g>
	<g
   id="g92">
		<ellipse
   class="st11"
   cx="624.09998"
   cy="55.599998"
   rx="1.3"
   ry="1.2"
   id="ellipse88" />
		<polygon
   class="st12"
   points="624.5,55.7 624.7,56.4 624.4,55.8 624,55.4 623.4,55 624,55.2 "
   id="polygon90" />
	</g>
	<g
   id="g98">
		<ellipse
   class="st11"
   cx="725.90002"
   cy="55.599998"
   rx="1.3"
   ry="1.2"
   id="ellipse94" />
		<polygon
   class="st12"
   points="726.3,55.7 726.5,56.4 726.2,55.8 725.8,55.4 725.2,55 725.9,55.2 "
   id="polygon96" />
	</g>
	
		<rect
   x="614.90002"
   y="53.299999"
   transform="rotate(180,617.23365,55.6254)"
   class="st1"
   width="4.5999999"
   height="4.6999998"
   id="rect100" />
	<path
   class="st1"
   d="m 614.6,57.6 h 3.8 c 0.2,0 0.4,-0.2 0.4,-0.4 v -3.1 c 0,-0.2 -0.2,-0.4 -0.4,-0.4 h -3.8 c -0.2,0 -0.4,0.2 -0.4,0.4 v 3.1 c 0,0.2 0.2,0.4 0.4,0.4 z"
   id="path102" />
	
		<rect
   x="612.90002"
   y="54.200001"
   transform="rotate(180,615.222,55.6254)"
   class="st1"
   width="4.5999999"
   height="2.9000001"
   id="rect104" />
	
		<rect
   x="614.59998"
   y="51.5"
   transform="rotate(180,616.5695,51.90675)"
   class="st13"
   width="3.9000001"
   height="0.80000001"
   id="rect106" />
	
		<rect
   x="616.29999"
   y="52.299999"
   transform="rotate(180,616.5695,52.7712)"
   class="st13"
   width="0.5"
   height="1"
   id="rect108" />
	
		<rect
   x="616.29999"
   y="52.299999"
   transform="rotate(180,616.56865,52.4114)"
   class="st0"
   width="0.5"
   height="0.2"
   id="rect110" />
</g>
<g
   id="g266"
   transform="translate(0.01483043,0.02581547)">
	<polygon
   class="st14"
   points="947.4,64.3 944,58 920.5,58.2 917.3,64.5 "
   id="polygon114" />
	<polygon
   class="st14"
   points="603.5,88.9 597.2,92.3 597.2,115.8 603.5,119 "
   id="polygon116" />
	<g
   id="g262">
		<polygon
   class="st15"
   points="603.3,114.6 1001,100.4 618.6,99.3 "
   id="polygon118" />
		<path
   class="st14"
   d="M 1008.4,122.1 H 869.1 603.9 V 85.3 l 151.4,-0.7 68.3,-18.5 c 0,1.1 132.8,-1.1 133.3,-1.1 1.6,0 32.7,-32.2 32.7,-32.2 l 48.9,45 z"
   id="path120" />
		<g
   id="g126">
			<circle
   class="st13"
   cx="997.09998"
   cy="111.6"
   r="6.1999998"
   id="circle122" />
			<polygon
   class="st12"
   points="1000.1,115.5 999,111.8 996.9,109.6 994,108.4 996.5,110.4 998.5,112.5 "
   id="polygon124" />
		</g>
		<g
   id="g132">
			<circle
   class="st13"
   cx="620.70001"
   cy="111.6"
   r="6.1999998"
   id="circle128" />
			<polygon
   class="st12"
   points="623.5,115.5 622.5,111.8 620.4,109.6 617.4,108.4 620,110.4 621.9,112.5 "
   id="polygon130" />
		</g>
		<g
   id="g138">
			<circle
   class="st13"
   cx="808.90002"
   cy="111.6"
   r="6.1999998"
   id="circle134" />
			<polygon
   class="st12"
   points="811.8,115.5 810.7,111.8 808.7,109.6 805.7,108.4 808.3,110.4 810.2,112.5 "
   id="polygon136" />
		</g>
		<g
   id="g144">
			<circle
   class="st13"
   cx="708.70001"
   cy="111.6"
   r="6.1999998"
   id="circle140" />
			<polygon
   class="st12"
   points="711.7,115.5 710.6,111.8 708.5,109.6 705.6,108.4 708.1,110.4 710.1,112.5 "
   id="polygon142" />
		</g>
		<g
   id="g150">
			<circle
   class="st13"
   cx="906.79999"
   cy="111.6"
   r="6.1999998"
   id="circle146" />
			<polygon
   class="st12"
   points="909.6,115.5 908.6,111.8 906.6,109.6 903.6,108.4 906.1,110.4 908,112.5 "
   id="polygon148" />
		</g>
		<rect
   x="899.79999"
   y="122.4"
   class="st13"
   width="13.8"
   height="3.8"
   id="rect152" />
		<rect
   x="990.20001"
   y="122.4"
   class="st13"
   width="13.8"
   height="3.8"
   id="rect154" />
		<rect
   x="701.29999"
   y="122.4"
   class="st13"
   width="13.8"
   height="3.8"
   id="rect156" />
		<rect
   x="613.70001"
   y="122.3"
   class="st13"
   width="13.8"
   height="3.8"
   id="rect158" />
		<rect
   x="801.29999"
   y="122.4"
   class="st13"
   width="13.8"
   height="3.8"
   id="rect160" />
		<polygon
   class="st16"
   points="943.6,65.1 953.4,64.7 963.6,58.8 973.5,48.7 985.6,56.9 992.6,59.8 1003,70.1 992.9,71.9 973.4,68.6 967.6,75.7 963.4,73.1 947.6,80 940.9,81.7 939.8,74.7 938,69.8 "
   id="polygon162" />
		<path
   class="st17"
   d="m 992.8,71.8 -19.5,-3.3 -5.8,7.1 -4.2,-2.5 -10.6,4.6 c 0,0 0,-3.5 -0.1,-3.6 -0.1,-0.1 3.4,-2 3.4,-2 0,0 1.8,-4.4 1.9,-4.5 0.1,-0.1 3.4,1.1 3.5,1 0.1,-0.1 5,-3 5,-3 0,0 1.2,-2.7 1.2,-2.9 0,-0.2 1.5,0 1.5,0 l 0.5,-2.2 1.4,1.5 h 2.4 l 1.1,-1.6 1.5,-1.1 -0.3,1.3 2.9,2.2 2.9,-0.6 1.9,2.5 4.5,1.6 2.5,-1.1 5.1,3.8 4,1.6 z"
   id="path164" />
		<rect
   x="619.70001"
   y="58.099998"
   class="st18"
   width="110.7"
   height="26.1"
   id="rect166" />
		<g
   id="g176">
			<rect
   x="629"
   y="65.099998"
   class="st19"
   width="3.2"
   height="20.299999"
   id="rect168" />
			<polygon
   class="st19"
   points="619.2,84.6 612.9,84.6 618.1,64.4 619.2,64.4 "
   id="polygon170" />
			<polygon
   class="st19"
   points="731.2,84 737.4,84 732.2,63.7 731.2,63.7 "
   id="polygon172" />
			<path
   class="st20"
   d="m 632.2,85.4 h 6 l -6,-20.3 c 0,0 0,20.1 0,20.3 z"
   id="path174" />
		</g>
		<g
   id="g182">
			<rect
   x="657.90002"
   y="65"
   class="st19"
   width="3.2"
   height="20.299999"
   id="rect178" />
			<path
   class="st20"
   d="m 661.1,85.3 h 6 l -6,-20.3 c 0,0 0,20.1 0,20.3 z"
   id="path180" />
		</g>
		<g
   id="g188">
			<rect
   x="681.5"
   y="64.800003"
   class="st19"
   width="3.2"
   height="20.299999"
   id="rect184" />
			<path
   class="st20"
   d="m 684.7,85.1 h 6 l -6,-20.3 c 0,0 0,20.1 0,20.3 z"
   id="path186" />
		</g>
		<g
   id="g194">
			<rect
   x="709.79999"
   y="64.599998"
   class="st19"
   width="3.2"
   height="20.299999"
   id="rect190" />
			<path
   class="st20"
   d="m 712.9,84.9 6,0.1 -6,-20.4 c 0,0 0,20 0,20.3 z"
   id="path192" />
		</g>
		<g
   id="g220">
			<rect
   x="880.20001"
   y="76"
   class="st21"
   width="41.200001"
   height="0.80000001"
   id="rect196" />
			<rect
   x="880.20001"
   y="88.099998"
   class="st21"
   width="41.200001"
   height="1"
   id="rect198" />
			<rect
   x="920.29999"
   y="76.599998"
   class="st21"
   width="1.1"
   height="11.9"
   id="rect200" />
			<rect
   x="880.20001"
   y="76.400002"
   class="st21"
   width="1.1"
   height="12.2"
   id="rect202" />
			<g
   id="g218">
				<rect
   x="882.70001"
   y="77.400002"
   class="st22"
   width="36"
   height="0.69999999"
   id="rect204" />
				<rect
   x="882.70001"
   y="78.900002"
   class="st22"
   width="36"
   height="0.69999999"
   id="rect206" />
				<rect
   x="882.70001"
   y="80.5"
   class="st22"
   width="36"
   height="0.69999999"
   id="rect208" />
				<rect
   x="882.70001"
   y="82.099998"
   class="st22"
   width="36"
   height="0.69999999"
   id="rect210" />
				<rect
   x="882.70001"
   y="83.699997"
   class="st22"
   width="36"
   height="0.69999999"
   id="rect212" />
				<rect
   x="882.70001"
   y="85.300003"
   class="st22"
   width="36"
   height="0.69999999"
   id="rect214" />
				<rect
   x="882.70001"
   y="86.800003"
   class="st22"
   width="36"
   height="0.69999999"
   id="rect216" />
			</g>
		</g>
		<g
   id="g246">
			<rect
   x="829.70001"
   y="76"
   class="st21"
   width="41.200001"
   height="0.80000001"
   id="rect222" />
			<rect
   x="829.70001"
   y="88.099998"
   class="st21"
   width="41.200001"
   height="1"
   id="rect224" />
			<rect
   x="869.79999"
   y="76.599998"
   class="st21"
   width="1.1"
   height="11.9"
   id="rect226" />
			<rect
   x="829.70001"
   y="76.400002"
   class="st21"
   width="1.1"
   height="12.2"
   id="rect228" />
			<g
   id="g244">
				<rect
   x="832.29999"
   y="77.400002"
   class="st22"
   width="36"
   height="0.69999999"
   id="rect230" />
				<rect
   x="832.29999"
   y="78.900002"
   class="st22"
   width="36"
   height="0.69999999"
   id="rect232" />
				<rect
   x="832.29999"
   y="80.5"
   class="st22"
   width="36"
   height="0.69999999"
   id="rect234" />
				<rect
   x="832.29999"
   y="82.099998"
   class="st22"
   width="36"
   height="0.69999999"
   id="rect236" />
				<rect
   x="832.29999"
   y="83.699997"
   class="st22"
   width="36"
   height="0.69999999"
   id="rect238" />
				<rect
   x="832.29999"
   y="85.300003"
   class="st22"
   width="36"
   height="0.69999999"
   id="rect240" />
				<rect
   x="832.29999"
   y="86.800003"
   class="st22"
   width="36"
   height="0.69999999"
   id="rect242" />
			</g>
		</g>
		<polyline
   class="st23"
   points="777.9,85.1 795.9,85.1 811.8,101 928.2,101 933.4,95.8 987.6,95.8 1003.6,83.3   "
   id="polyline248" />
		<circle
   class="st21"
   cx="1004.1"
   cy="82.5"
   r="1.5"
   id="circle250" />
		<circle
   class="st21"
   cx="877.70001"
   cy="109.9"
   r="1.5"
   id="circle252" />
		<circle
   class="st21"
   cx="777.59998"
   cy="85.300003"
   r="1.5"
   id="circle254" />
		<polyline
   class="st23"
   points="848.2,101 857.2,109.9 876.7,109.9   "
   id="polyline256" />
		<polyline
   class="st23"
   points="888.2,76.4 883.1,71.2 866.8,71.2 862.4,76.4   "
   id="polyline258" />
		<line
   class="st23"
   x1="875.29999"
   y1="100.7"
   x2="875.29999"
   y2="71.199997"
   id="line260" />
	</g>
	<polygon
   class="st14"
   points="815.9,67.6 811,62.4 788.3,68.5 786.8,75.4 "
   id="polygon264" />
</g>
<g
   id="g428"
   transform="translate(0.01483043,0.02581547)">
	<g
   id="g270">
		<path
   class="st0"
   d="m 1005.8,112 v 24.7 l 30.9,14 h 9.6 V 126 Z m 23.7,24.1 c 0,-3.1 2.5,-5.7 5.7,-5.7 3.1,0 5.7,2.5 5.7,5.7 0,3.1 -2.5,5.7 -5.7,5.7 -3.2,0 -5.7,-2.5 -5.7,-5.7 z m -15.6,-7.4 c 0,-3.1 2.5,-5.7 5.7,-5.7 3.1,0 5.7,2.5 5.7,5.7 0,3.1 -2.5,5.7 -5.7,5.7 -3.2,0 -5.7,-2.5 -5.7,-5.7 z"
   id="path268" />
	</g>
	<path
   class="st24"
   d="m 1049.5,129.3 h 21.1 c 5.5,0 10,-4.5 10,-10 V 44.5 c 0,-10.2 -8.3,-18.5 -18.5,-18.5 h -6.2 c -10.2,0 -18.5,8.3 -18.5,18.5 v 72.7 c 0,6.7 5.4,12.1 12.1,12.1 z"
   id="path272" />
	
		<rect
   x="1046.7"
   y="41.5"
   transform="rotate(180,1063.7566,43.8958)"
   class="st0"
   width="34.200001"
   height="4.8000002"
   id="rect274" />
	
		<rect
   x="1046.7"
   y="110.6"
   transform="rotate(180,1063.7566,113.05645)"
   class="st0"
   width="34.200001"
   height="4.8000002"
   id="rect276" />
	
		<rect
   x="1046.7"
   y="79.300003"
   transform="rotate(180,1063.7566,81.6997)"
   class="st0"
   width="34.200001"
   height="4.8000002"
   id="rect278" />
	<polygon
   class="st0"
   points="1039.3,54 989.6,32.8 1005.8,121.1 1039.3,121.1 "
   id="polygon280" />
	<g
   id="g302">
		<polygon
   class="st25"
   points="1026.3,29.5 1052.4,29.5 1055.1,46.3 1055.7,46.3 1063.5,54.2 1063.5,121.1 1015.2,121.1 1015.2,57.3 1017.1,51.7 1026.3,46.6 "
   id="polygon282" />
		<polygon
   class="st26"
   points="1042.6,180 1061.1,180 1067.7,158.5 1036,158.5 "
   id="polygon284" />
		
			<rect
   x="1043.5"
   y="62.700001"
   transform="rotate(180,1053.6728,82.0554)"
   class="st27"
   width="20.4"
   height="38.799999"
   id="rect286" />
		<polygon
   class="st28"
   points="1043.5,101.5 1038.4,101.5 1038.4,59.5 1043.5,62.7 "
   id="polygon288" />
		<g
   id="g294">
			<path
   class="st25"
   d="m 1039.6,151.4 -7.9,-1.5 v -41.3 -2.6 0 -0.4 0 c 0.2,-2.3 2.2,-4.1 4.5,-4.1 h 31.1 c 2.4,0 4.3,1.8 4.5,4.1 v 0 0.4 0 43.8 l -7.9,1.5 c -8,1.7 -16.2,1.7 -24.3,0.1 z"
   id="path290" />
			<path
   class="st29"
   d="m 1039.6,159.3 -3.6,-0.7 0.1,-0.6 v 0 l -4.4,-7 v -1.1 l 7.9,1.5 c 8.1,1.6 16.3,1.6 24.4,0 l 7.9,-1.5 v 1.1 l -4.4,7 0.3,0.6 -3.7,0.7 c -8.2,1.6 -16.4,1.6 -24.5,0 z"
   id="path292" />
		</g>
		<polygon
   class="st30"
   points="1063.9,62.7 1043.5,62.7 1038.4,59.5 1063.9,59.5 "
   id="polygon296" />
		<path
   class="st29"
   d="m 1031.7,114 7.9,1 c 8.1,1 16.3,1 24.4,0 l 7.9,-1 v -5 l -7.9,1 c -8.1,1 -16.3,1 -24.4,0 l -7.9,-1 z"
   id="path298" />
		<path
   class="st29"
   d="m 1031.7,135.5 7.9,1 c 8.1,1 16.3,1 24.4,0 l 7.9,-1 v -4.9 l -7.9,1 c -8.1,1 -16.3,1 -24.4,0 l -7.9,-1 z"
   id="path300" />
	</g>
	<path
   class="st26"
   d="m 1031.3,7.4 c 0.4,-1.8 2,-3.2 3.9,-3.2 h 8.7 c 1.9,0 3.5,1.3 3.9,3.2 l 3.2,15.6 -3,3 v 3.5 h -17.1 V 26 l -2.8,-3 z"
   id="path304" />
	<g
   id="g310">
		<circle
   class="st13"
   cx="1018.7"
   cy="55.700001"
   r="1.7"
   id="circle306" />
		<polygon
   class="st12"
   points="1018.2,55.7 1017.9,56.7 1018.4,55.9 1018.9,55.4 1019.6,54.8 1018.8,55.2 "
   id="polygon308" />
	</g>
	<g
   id="g316">
		<circle
   class="st13"
   cx="1060"
   cy="55.700001"
   r="1.7"
   id="circle312" />
		<polygon
   class="st12"
   points="1059.5,55.7 1059.2,56.7 1059.7,55.9 1060.2,55.4 1060.9,54.8 1060.1,55.2 "
   id="polygon314" />
	</g>
	<g
   id="g322">
		<circle
   class="st13"
   cx="1017.9"
   cy="117.8"
   r="1.7"
   id="circle318" />
		<polygon
   class="st12"
   points="1017.5,117.9 1017.2,118.9 1017.6,118.1 1018.1,117.5 1018.8,117 1018,117.3 "
   id="polygon320" />
	</g>
	<g
   id="g328">
		<circle
   class="st13"
   cx="1060"
   cy="96.300003"
   r="1.7"
   id="circle324" />
		<polygon
   class="st12"
   points="1059.5,96.4 1059.2,97.4 1059.7,96.6 1060.2,96 1060.9,95.5 1060.1,95.8 "
   id="polygon326" />
	</g>
	<g
   id="g334">
		<path
   class="st13"
   d="m 1061.7,67 c 0,0.9 -0.7,1.7 -1.7,1.7 -0.9,0 -1.7,-0.7 -1.7,-1.7 0,-0.9 0.7,-1.7 1.7,-1.7 0.9,0.1 1.7,0.8 1.7,1.7 z"
   id="path330" />
		<polygon
   class="st12"
   points="1059.5,67.1 1059.2,68.1 1059.7,67.3 1060.2,66.7 1060.9,66.2 1060.1,66.5 "
   id="polygon332" />
	</g>
	<g
   id="g340">
		<circle
   class="st13"
   cx="1047.4"
   cy="96.300003"
   r="1.7"
   id="circle336" />
		<polygon
   class="st12"
   points="1047,96.4 1046.7,97.4 1047.1,96.6 1047.6,96 1048.3,95.5 1047.5,95.8 "
   id="polygon338" />
	</g>
	<g
   id="g346">
		<path
   class="st13"
   d="m 1049.1,67 c 0,0.9 -0.7,1.7 -1.7,1.7 -0.9,0 -1.7,-0.7 -1.7,-1.7 0,-0.9 0.7,-1.7 1.7,-1.7 1,0.1 1.7,0.8 1.7,1.7 z"
   id="path342" />
		<polygon
   class="st12"
   points="1047,67.1 1046.7,68.1 1047.1,67.3 1047.6,66.7 1048.3,66.2 1047.5,66.5 "
   id="polygon344" />
	</g>
	<polyline
   class="st31"
   points="1043.1,29.5 1043.1,40.2 1035.4,47.9 1035.4,54.8 1026,64.2 1026,69.2 1035.7,69.2 1035.7,94.7    1026,94.9 1026,103.7 1021.6,109.8 1021.6,121.1  "
   id="polyline348" />
	<g
   id="g374">
		<rect
   x="1018.4"
   y="71.099998"
   class="st21"
   width="16.200001"
   height="0.60000002"
   id="rect350" />
		<rect
   x="1018.4"
   y="80.099998"
   class="st21"
   width="16.200001"
   height="0.69999999"
   id="rect352" />
		<rect
   x="1034.3"
   y="71.5"
   class="st21"
   width="0.2"
   height="8.8999996"
   id="rect354" />
		<rect
   x="1018.4"
   y="71.300003"
   class="st21"
   width="0.2"
   height="9.1000004"
   id="rect356" />
		<g
   id="g372">
			<rect
   x="1018.8"
   y="72.099998"
   class="st22"
   width="15.3"
   height="0.60000002"
   id="rect358" />
			<rect
   x="1018.8"
   y="73.300003"
   class="st22"
   width="15.3"
   height="0.60000002"
   id="rect360" />
			<rect
   x="1018.8"
   y="74.400002"
   class="st22"
   width="15.3"
   height="0.60000002"
   id="rect362" />
			<rect
   x="1018.8"
   y="75.599998"
   class="st22"
   width="15.3"
   height="0.60000002"
   id="rect364" />
			<rect
   x="1018.8"
   y="76.800003"
   class="st22"
   width="15.3"
   height="0.60000002"
   id="rect366" />
			<rect
   x="1018.8"
   y="78"
   class="st22"
   width="15.3"
   height="0.60000002"
   id="rect368" />
			<rect
   x="1018.8"
   y="79.099998"
   class="st22"
   width="15.3"
   height="0.60000002"
   id="rect370" />
		</g>
	</g>
	<g
   id="g400">
		<rect
   x="1018.4"
   y="83.300003"
   class="st21"
   width="16.200001"
   height="0.60000002"
   id="rect376" />
		<rect
   x="1018.4"
   y="92.300003"
   class="st21"
   width="16.200001"
   height="0.69999999"
   id="rect378" />
		<rect
   x="1034.3"
   y="83.800003"
   class="st21"
   width="0.2"
   height="8.8999996"
   id="rect380" />
		<rect
   x="1018.4"
   y="83.599998"
   class="st21"
   width="0.2"
   height="9.1000004"
   id="rect382" />
		<g
   id="g398">
			<rect
   x="1018.8"
   y="84.300003"
   class="st22"
   width="15.3"
   height="0.60000002"
   id="rect384" />
			<rect
   x="1018.8"
   y="85.5"
   class="st22"
   width="15.3"
   height="0.60000002"
   id="rect386" />
			<rect
   x="1018.8"
   y="86.699997"
   class="st22"
   width="15.3"
   height="0.60000002"
   id="rect388" />
			<rect
   x="1018.8"
   y="87.900002"
   class="st22"
   width="15.3"
   height="0.60000002"
   id="rect390" />
			<rect
   x="1018.8"
   y="89"
   class="st22"
   width="15.3"
   height="0.60000002"
   id="rect392" />
			<rect
   x="1018.8"
   y="90.199997"
   class="st22"
   width="15.3"
   height="0.60000002"
   id="rect394" />
			<rect
   x="1018.8"
   y="91.400002"
   class="st22"
   width="15.3"
   height="0.60000002"
   id="rect396" />
		</g>
	</g>
	
		<rect
   x="1064.9"
   y="26.200001"
   transform="matrix(-0.8236,-0.5671,0.5671,-0.8236,1940.4044,660.5667)"
   class="st32"
   width="16.1"
   height="4.8000002"
   id="rect402" />
	
		<rect
   x="1065.5"
   y="27.200001"
   transform="matrix(-0.8236,-0.5671,0.5671,-0.8236,1938.9934,661.7115)"
   class="st33"
   width="13.8"
   height="4.4000001"
   id="rect404" />
	<g
   id="g426">
		<path
   class="st34"
   d="m 1069.3,24.6 8.8,6.1 0.8,-1.2 c 0.2,-0.2 0.1,-0.5 -0.1,-0.7 l -8,-5.5 c -0.2,-0.1 -0.5,-0.1 -0.6,0.1 z"
   id="path406" />
		
			<rect
   x="1077.6"
   y="29.1"
   transform="matrix(-0.8228,-0.5683,0.5683,-0.8228,1947.8173,666.7165)"
   class="st35"
   width="0.40000001"
   height="1.2"
   id="rect408" />
		
			<rect
   x="1070"
   y="23.799999"
   transform="matrix(-0.8228,-0.5683,0.5683,-0.8228,1936.877,652.7402)"
   class="st35"
   width="0.40000001"
   height="1.2"
   id="rect410" />
		
			<rect
   x="1070.9"
   y="24.5"
   transform="matrix(0.8228,0.5683,-0.5683,0.8228,204.0468,-604.2784)"
   class="st35"
   width="0.40000001"
   height="1.2"
   id="rect412" />
		
			<rect
   x="1071.9"
   y="25.200001"
   transform="matrix(-0.8228,-0.5683,0.5683,-0.8228,1939.6121,656.2343)"
   class="st35"
   width="0.40000001"
   height="1.2"
   id="rect414" />
		
			<rect
   x="1072.9"
   y="25.799999"
   transform="matrix(0.8228,0.5683,-0.5683,0.8228,205.1361,-605.1311)"
   class="st35"
   width="0.40000001"
   height="1.2"
   id="rect416" />
		
			<rect
   x="1073.8"
   y="26.5"
   transform="matrix(-0.8228,-0.5683,0.5683,-0.8228,1942.347,659.7283)"
   class="st35"
   width="0.40000001"
   height="1.2"
   id="rect418" />
		
			<rect
   x="1075.7"
   y="27.799999"
   transform="matrix(0.8228,0.5683,-0.5683,0.8228,206.7701,-606.4102)"
   class="st35"
   width="0.40000001"
   height="1.2"
   id="rect420" />
		
			<rect
   x="1074.8"
   y="27.1"
   transform="matrix(-0.8228,-0.5683,0.5683,-0.8228,1943.7146,661.4754)"
   class="st35"
   width="0.40000001"
   height="1.2"
   id="rect422" />
		
			<rect
   x="1076.7"
   y="28.5"
   transform="matrix(0.8228,0.5683,-0.5683,0.8228,207.3147,-606.8365)"
   class="st35"
   width="0.40000001"
   height="1.2"
   id="rect424" />
	</g>
</g>
<polyline
   class="st36"
   points="612.9,55.6 609.8,55.6 607,58.4 607,84.6 "
   id="polyline430"
   transform="translate(0.01483043,0.02581547)" />
<rect
   x="-84.925301"
   y="604.69971"
   transform="rotate(-90)"
   class="st1"
   width="4.5999999"
   height="4.6999998"
   id="rect432" />
<path
   class="st1"
   d="m 609.01483,79.925815 v 3.8 c 0,0.2 -0.2,0.4 -0.4,0.4 h -3.1 c -0.2,0 -0.4,-0.2 -0.4,-0.4 v -3.8 c 0,-0.2 0.2,-0.4 0.4,-0.4 h 3.1 c 0.2,0 0.4,0.2 0.4,0.4 z"
   id="path434" />
<rect
   x="-82.913704"
   y="605.61145"
   transform="rotate(-90)"
   class="st1"
   width="4.5999999"
   height="2.9000001"
   id="rect436" />
<g
   id="g544"
   transform="translate(0.01483043,0.02581547)">
	<path
   class="st1"
   d="m 450.3,67 h -88.1 c -6.7,0 -12.1,-5.4 -12.1,-12.1 v 0 c 0,-6.7 5.4,-12.1 12.1,-12.1 h 88.1 c 6.7,0 12.1,5.4 12.1,12.1 v 0 C 462.5,61.6 457,67 450.3,67 Z"
   id="path438" />
	<g
   id="g468">
		<g
   id="g458">
			<g
   id="g442">
				<path
   class="st2"
   d="m 430.4,50 0.5,1.9 v 3 l 0.2,2.6 -0.2,3 h -72.7 c 0,0 -1.5,0.1 -1.5,0 0,-0.1 -0.8,-3.2 -0.8,-3.3 0,-0.2 0.5,-5.7 0.5,-5.7 0,-0.1 1.2,-2.5 1.2,-2.5 l 31.6,1.1 41.1,-0.2"
   id="path440" />
			</g>
			<defs
   id="defs447">
				
					<filter
   id="Adobe_OpacityMaskFilter_00000102506513070938913720000002964438917309320332_"
   filterUnits="userSpaceOnUse"
   x="356"
   y="48.900002"
   width="75.199997"
   height="11.6">
					
						<feColorMatrix
   type="matrix"
   values="-1 0 0 0 1  0 -1 0 0 1  0 0 -1 0 1  0 0 0 1 0"
   color-interpolation-filters="sRGB"
   result="source"
   id="feColorMatrix444" />
				</filter>
			</defs>
			
				<mask
   maskUnits="userSpaceOnUse"
   x="356"
   y="48.9"
   width="75.2"
   height="11.6"
   id="SVGID_00000103955152810930869720000014223055528955634854_">
				<g
   style="filter:url(#Adobe_OpacityMaskFilter_00000102506513070938913720000002964438917309320332_)"
   id="g451">
					<image
   style="overflow:visible"
   width="81"
   height="16"
   xlink:href="3DE4B4DA.jpg"
   transform="translate(353,46.5455)"
   id="image449">
					</image>
				</g>
			</mask>
			<g
   mask="url(#SVGID_00000103955152810930869720000014223055528955634854_)"
   id="g456">
				<path
   class="st5"
   d="m 430.4,50 0.5,1.9 v 3 l 0.2,2.6 -0.2,3 h -72.7 c 0,0 -1.5,0.1 -1.5,0 0,-0.1 -0.8,-3.2 -0.8,-3.3 0,-0.2 0.5,-5.7 0.5,-5.7 0,-0.1 1.2,-2.5 1.2,-2.5 l 31.6,1.1 41.1,-0.2"
   id="path454" />
			</g>
		</g>
		<path
   class="st6"
   d="m 405.5,55.2 c 0,0 -1.7,-0.1 -2.8,-1.2 -1.1,-1.1 -2.2,-1.2 -3.1,-0.2 -0.9,1 1,2.2 -1.2,2.9 -2.3,0.7 -10.2,-8.1 -13.1,-5.6 -2.9,2.5 -2.7,5.4 -4.5,5.6 -1.8,0.2 -1.3,2.7 -0.2,2.5 1,-0.3 2.7,-2.1 3.8,-1.6 1,0.6 3.5,2.8 4.2,-0.2 0.6,-3 -0.3,-4.4 1.5,-3 1.7,1.4 3.5,-0.6 4.7,1.8 1.1,2.4 2.3,4.2 3.6,2.2 1.2,-2 0.7,-2.2 1.4,-2 0.7,0.2 2.7,-1.7 3.5,-0.8 0.6,1 2.6,2.2 2.2,-0.4 z"
   id="path460" />
		<path
   class="st6"
   d="m 421,57.3 c 0,0 0,-2.6 -0.8,-3.4 -0.8,-0.8 -1.5,-1.7 -3,-0.8 -1.5,0.9 -1.3,0.8 -2,0.2 -0.7,-0.6 -2,-0.6 -2.1,0 -0.1,0.6 -0.9,0.5 0.7,1.7 1.5,1.2 0.7,1 1.8,2.3 1.1,1.3 3.1,2.8 5.4,0 z"
   id="path462" />
		<path
   class="st6"
   d="m 366.7,57.3 c 1.3,0.7 1.8,-4.4 0.4,-5.2 -0.3,-0.2 -0.6,-0.2 -1,-0.1 -1.4,0.5 -2.8,3.6 -3.4,3.1 -0.6,-0.5 -2,-0.6 -2,0.9 0.1,1.6 0.1,1.3 0.3,2.2 0.2,1 2.9,0.6 3.1,-0.5 0.2,-1.1 1.8,-1.5 2,-1 0.2,0.2 0.4,0.4 0.6,0.6 z"
   id="path464" />
		<path
   class="st6"
   d="m 370.2,54.4 c 0,0 -0.7,-0.1 -0.8,0.5 0,0.6 -0.5,3.8 0.4,3.1 0.9,-0.7 0.7,-1.9 0.4,-3.6 z"
   id="path466" />
	</g>
	<path
   class="st7"
   d="m 362,58.7 h 88.8 c 1.6,0 2.8,-1.3 2.8,-2.8 V 54 c 0,-1.6 -1.3,-2.8 -2.8,-2.8 H 362 c -1.6,0 -2.8,1.3 -2.8,2.8 v 1.9 c 0,1.5 1.3,2.8 2.8,2.8 z"
   id="path470" />
	<path
   class="st8"
   d="m 451.6,64.6 h -90.5 c -3.1,0 -7.9,-3.6 -7.9,-8.1 v -3.1 c 0,-4.4 4.8,-8.1 7.9,-8.1 h 90.5 c 3.1,0 7.8,3.6 7.8,8.1 v 3.1 c 0,4.4 -4.7,8.1 -7.8,8.1 z M 361.1,49.4 c -1.6,0 -2.8,1.8 -2.8,4.1 v 3.1 c 0,2.2 1.3,4.1 2.8,4.1 h 90.5 c 1.6,0 2.8,-1.8 2.8,-4.1 v -3.1 c 0,-2.2 -1.3,-4.1 -2.8,-4.1 z"
   id="path472" />
	<path
   class="st9"
   d="m 451.1,60.8 h -89.3 c -2.3,0 -4.3,-2.7 -4.3,-6.1 0,-3.4 1.9,-6.1 4.3,-6.1 h 89.3 c 2.3,0 4.3,2.7 4.3,6.1 0,3.4 -2,6.1 -4.3,6.1 z M 361.8,51 c -1.4,0 -2.6,1.7 -2.6,3.8 0,2.1 1.2,3.8 2.6,3.8 h 89.3 c 1.4,0 2.6,-1.7 2.6,-3.8 0,-2.1 -1.2,-3.8 -2.6,-3.8 z"
   id="path474" />
	<g
   class="st10"
   id="g482">
		<defs
   id="defs477">
			<path
   id="SVGID_00000014594043905467074140000018167570831183904653_"
   class="st10"
   d="M 442.1,64.6 H 351 c -3.1,0 -5.6,-3.6 -5.6,-8.1 v -3.1 c 0,-4.4 2.5,-8.1 5.6,-8.1 h 91.1 c 3.1,0 5.6,3.6 5.6,8.1 v 3.1 c 0,4.4 -2.5,8.1 -5.6,8.1 z M 350.9,49.4 c -1.6,0 -2.8,1.8 -2.8,4.1 v 3.1 c 0,2.2 1.3,4.1 2.8,4.1 H 442 c 1.6,0 2.8,-1.8 2.8,-4.1 v -3.1 c 0,-2.2 -1.3,-4.1 -2.8,-4.1 z" />
		</defs>
		<clipPath
   id="SVGID_00000033330806828712456950000013098861291032221856_">
			<use
   xlink:href="#SVGID_00000014594043905467074140000018167570831183904653_"
   style="overflow:visible"
   id="use479"
   x="0"
   y="0"
   width="100%"
   height="100%" />
		</clipPath>
	</g>
	<g
   id="g488">
		<ellipse
   class="st11"
   cx="446.70001"
   cy="47"
   rx="1.3"
   ry="1.2"
   id="ellipse484" />
		<polygon
   class="st12"
   points="446.3,47.1 446.1,47.8 446.4,47.2 446.8,46.8 447.4,46.4 446.7,46.6 "
   id="polygon486" />
	</g>
	<g
   id="g494">
		<ellipse
   class="st11"
   cx="446.70001"
   cy="63.099998"
   rx="1.3"
   ry="1.2"
   id="ellipse490" />
		<polygon
   class="st12"
   points="446.3,63.2 446.1,63.9 446.4,63.3 446.8,62.9 447.4,62.5 446.7,62.8 "
   id="polygon492" />
	</g>
	<g
   id="g500">
		<ellipse
   class="st11"
   cx="366.10001"
   cy="47"
   rx="1.3"
   ry="1.2"
   id="ellipse496" />
		<polygon
   class="st12"
   points="365.7,47.1 365.5,47.8 365.8,47.2 366.2,46.8 366.8,46.4 366.2,46.6 "
   id="polygon498" />
	</g>
	<g
   id="g506">
		<ellipse
   class="st11"
   cx="366.10001"
   cy="63.099998"
   rx="1.3"
   ry="1.2"
   id="ellipse502" />
		<polygon
   class="st12"
   points="365.7,63.2 365.5,63.9 365.8,63.3 366.2,62.9 366.8,62.5 366.2,62.8 "
   id="polygon504" />
	</g>
	<g
   id="g512">
		<ellipse
   class="st11"
   cx="406.79999"
   cy="47"
   rx="1.3"
   ry="1.2"
   id="ellipse508" />
		<polygon
   class="st12"
   points="406.4,47.1 406.2,47.8 406.6,47.2 407,46.8 407.5,46.4 406.9,46.6 "
   id="polygon510" />
	</g>
	<g
   id="g518">
		<ellipse
   class="st11"
   cx="406.79999"
   cy="63.099998"
   rx="1.3"
   ry="1.2"
   id="ellipse514" />
		<polygon
   class="st12"
   points="406.4,63.2 406.2,63.9 406.6,63.3 407,62.9 407.5,62.5 406.9,62.8 "
   id="polygon516" />
	</g>
	<g
   id="g524">
		<ellipse
   class="st11"
   cx="457.20001"
   cy="54.900002"
   rx="1.3"
   ry="1.2"
   id="ellipse520" />
		<polygon
   class="st12"
   points="456.8,54.9 456.6,55.6 456.9,55.1 457.3,54.7 457.9,54.3 457.3,54.5 "
   id="polygon522" />
	</g>
	<g
   id="g530">
		<ellipse
   class="st11"
   cx="355.39999"
   cy="54.900002"
   rx="1.3"
   ry="1.2"
   id="ellipse526" />
		<polygon
   class="st12"
   points="355,54.9 354.8,55.6 355.1,55.1 355.5,54.7 356.1,54.3 355.5,54.5 "
   id="polygon528" />
	</g>
	<rect
   x="461.79999"
   y="52.5"
   class="st1"
   width="4.5999999"
   height="4.6999998"
   id="rect532" />
	<path
   class="st1"
   d="m 466.7,56.8 h -3.8 c -0.2,0 -0.4,-0.2 -0.4,-0.4 v -3.1 c 0,-0.2 0.2,-0.4 0.4,-0.4 h 3.8 c 0.2,0 0.4,0.2 0.4,0.4 v 3.1 c 0,0.3 -0.2,0.4 -0.4,0.4 z"
   id="path534" />
	<rect
   x="463.79999"
   y="53.400002"
   class="st1"
   width="4.5999999"
   height="2.9000001"
   id="rect536" />
	<rect
   x="462.79999"
   y="50.799999"
   class="st13"
   width="3.9000001"
   height="0.80000001"
   id="rect538" />
	<rect
   x="464.5"
   y="51.5"
   class="st13"
   width="0.5"
   height="1"
   id="rect540" />
	<rect
   x="464.5"
   y="51.5"
   class="st0"
   width="0.5"
   height="0.2"
   id="rect542" />
</g>
<g
   id="g698"
   transform="translate(0.01483043,0.02581547)">
	<polygon
   class="st14"
   points="133.8,63.5 137.3,57.3 160.8,57.4 164,63.8 "
   id="polygon546" />
	<polygon
   class="st14"
   points="477.8,88.2 484.1,91.6 484.1,115.1 477.8,118.3 "
   id="polygon548" />
	<g
   id="g694">
		<polygon
   class="st15"
   points="80.2,99.6 478,113.9 462.7,98.6 "
   id="polygon550" />
		<path
   class="st14"
   d="M 42.8,77 91.7,32 c 0,0 31.1,32.2 32.7,32.2 0.5,0 133.3,2.1 133.3,1.1 l 68.3,18.5 151.4,0.7 v 36.8 H 212.2 72.8 Z"
   id="path552" />
		<g
   id="g558">
			<circle
   class="st13"
   cx="84.099998"
   cy="110.8"
   r="6.1999998"
   id="circle554" />
			<polygon
   class="st12"
   points="82.2,111 81.2,114.7 82.8,111.8 84.8,109.7 87.3,107.6 84.3,108.8 "
   id="polygon556" />
		</g>
		<g
   id="g564">
			<circle
   class="st13"
   cx="460.60001"
   cy="110.8"
   r="6.1999998"
   id="circle560" />
			<polygon
   class="st12"
   points="458.8,111 457.7,114.7 459.3,111.8 461.2,109.7 463.9,107.6 460.9,108.8 "
   id="polygon562" />
		</g>
		<g
   id="g570">
			<circle
   class="st13"
   cx="272.39999"
   cy="110.8"
   r="6.1999998"
   id="circle566" />
			<polygon
   class="st12"
   points="270.6,111 269.5,114.7 271.1,111.8 273,109.7 275.5,107.6 272.6,108.8 "
   id="polygon568" />
		</g>
		<g
   id="g576">
			<circle
   class="st13"
   cx="372.5"
   cy="110.8"
   r="6.1999998"
   id="circle572" />
			<polygon
   class="st12"
   points="370.6,111 369.6,114.7 371.2,111.8 373.2,109.7 375.7,107.6 372.8,108.8 "
   id="polygon574" />
		</g>
		<g
   id="g582">
			<circle
   class="st13"
   cx="174.5"
   cy="110.8"
   r="6.1999998"
   id="circle578" />
			<polygon
   class="st12"
   points="172.7,111 171.7,114.7 173.2,111.8 175.1,109.7 177.7,107.6 174.7,108.8 "
   id="polygon580" />
		</g>
		<rect
   x="167.60001"
   y="121.6"
   class="st13"
   width="13.8"
   height="3.8"
   id="rect584" />
		<rect
   x="77.199997"
   y="121.6"
   class="st13"
   width="13.8"
   height="3.8"
   id="rect586" />
		<rect
   x="366.10001"
   y="121.6"
   class="st13"
   width="13.8"
   height="3.8"
   id="rect588" />
		<rect
   x="453.70001"
   y="121.6"
   class="st13"
   width="13.8"
   height="3.8"
   id="rect590" />
		<rect
   x="266.10001"
   y="121.7"
   class="st13"
   width="13.8"
   height="3.8"
   id="rect592" />
		<polygon
   class="st16"
   points="117.9,72.4 113.7,74.9 107.9,67.8 88.4,71.1 78.2,69.3 88.7,59.1 95.6,56.1 107.8,48 117.7,58 127.8,63.9 137.7,64.4 143.3,69 141.5,74 140.4,80.9 133.6,79.2 "
   id="polygon594" />
		<path
   class="st17"
   d="m 81.9,70 4,-1.6 5.1,-3.8 2.5,1.1 4.5,-1.6 1.9,-2.5 2.9,0.6 2.9,-2.2 -0.3,-1.3 1.5,1.1 1.1,1.6 h 2.4 l 1.5,-1.6 0.5,2.2 c 0,0 1.5,-0.1 1.5,0 0,0.1 1.2,2.9 1.2,2.9 0,0 4.9,2.9 5,3 0.1,0.1 3.4,-1.1 3.5,-1 0.1,0.1 1.9,4.5 1.9,4.5 0,0 3.5,1.9 3.4,2 -0.1,0.1 -0.1,3.6 -0.1,3.6 L 118,72.3 113.8,74.8 108,67.7 88.5,71 Z"
   id="path596" />
		<rect
   x="350.79999"
   y="57.400002"
   class="st18"
   width="110.7"
   height="26.1"
   id="rect598" />
		<g
   id="g608">
			<rect
   x="449.10001"
   y="64.400002"
   class="st19"
   width="3.2"
   height="20.299999"
   id="rect600" />
			<polygon
   class="st19"
   points="462.1,63.6 463.1,63.6 468.4,83.9 462.1,83.9 "
   id="polygon602" />
			<polygon
   class="st19"
   points="350.1,63 349.1,63 343.8,83.3 350.1,83.3 "
   id="polygon604" />
			<path
   class="st20"
   d="m 449.1,64.4 -6,20.3 h 6 c 0,-0.3 0,-20.3 0,-20.3 z"
   id="path606" />
		</g>
		<g
   id="g614">
			<rect
   x="420.20001"
   y="64.300003"
   class="st19"
   width="3.2"
   height="20.299999"
   id="rect610" />
			<path
   class="st20"
   d="m 420.2,64.3 -6,20.3 h 6 c 0,-0.3 0,-20.3 0,-20.3 z"
   id="path612" />
		</g>
		<g
   id="g620">
			<rect
   x="396.60001"
   y="64"
   class="st19"
   width="3.2"
   height="20.299999"
   id="rect616" />
			<path
   class="st20"
   d="m 396.6,64 -6,20.3 h 6 c 0,-0.2 0,-20.3 0,-20.3 z"
   id="path618" />
		</g>
		<g
   id="g626">
			<rect
   x="368.29999"
   y="63.799999"
   class="st19"
   width="3.2"
   height="20.299999"
   id="rect622" />
			<path
   class="st20"
   d="m 368.3,63.8 -6,20.4 6,-0.1 c 0,-0.2 0,-20.3 0,-20.3 z"
   id="path624" />
		</g>
		<g
   id="g652">
			<rect
   x="159.89999"
   y="75.199997"
   class="st21"
   width="41.200001"
   height="0.80000001"
   id="rect628" />
			<rect
   x="159.89999"
   y="87.400002"
   class="st21"
   width="41.200001"
   height="1"
   id="rect630" />
			<rect
   x="159.89999"
   y="75.900002"
   class="st21"
   width="1.1"
   height="11.9"
   id="rect632" />
			<rect
   x="200"
   y="75.699997"
   class="st21"
   width="1.1"
   height="12.2"
   id="rect634" />
			<g
   id="g650">
				<rect
   x="162.60001"
   y="76.599998"
   class="st22"
   width="36"
   height="0.69999999"
   id="rect636" />
				<rect
   x="162.60001"
   y="78.199997"
   class="st22"
   width="36"
   height="0.69999999"
   id="rect638" />
				<rect
   x="162.60001"
   y="79.800003"
   class="st22"
   width="36"
   height="0.69999999"
   id="rect640" />
				<rect
   x="162.60001"
   y="81.400002"
   class="st22"
   width="36"
   height="0.69999999"
   id="rect642" />
				<rect
   x="162.60001"
   y="82.900002"
   class="st22"
   width="36"
   height="0.69999999"
   id="rect644" />
				<rect
   x="162.60001"
   y="84.5"
   class="st22"
   width="36"
   height="0.69999999"
   id="rect646" />
				<rect
   x="162.60001"
   y="86"
   class="st22"
   width="36"
   height="0.69999999"
   id="rect648" />
			</g>
		</g>
		<g
   id="g678">
			<rect
   x="210.39999"
   y="75.199997"
   class="st21"
   width="41.200001"
   height="0.80000001"
   id="rect654" />
			<rect
   x="210.39999"
   y="87.400002"
   class="st21"
   width="41.200001"
   height="1"
   id="rect656" />
			<rect
   x="210.39999"
   y="75.900002"
   class="st21"
   width="1.1"
   height="11.9"
   id="rect658" />
			<rect
   x="250.5"
   y="75.699997"
   class="st21"
   width="1.1"
   height="12.2"
   id="rect660" />
			<g
   id="g676">
				<rect
   x="212.89999"
   y="76.599998"
   class="st22"
   width="36"
   height="0.69999999"
   id="rect662" />
				<rect
   x="212.89999"
   y="78.199997"
   class="st22"
   width="36"
   height="0.69999999"
   id="rect664" />
				<rect
   x="212.89999"
   y="79.800003"
   class="st22"
   width="36"
   height="0.69999999"
   id="rect666" />
				<rect
   x="212.89999"
   y="81.400002"
   class="st22"
   width="36"
   height="0.69999999"
   id="rect668" />
				<rect
   x="212.89999"
   y="82.900002"
   class="st22"
   width="36"
   height="0.69999999"
   id="rect670" />
				<rect
   x="212.89999"
   y="84.5"
   class="st22"
   width="36"
   height="0.69999999"
   id="rect672" />
				<rect
   x="212.89999"
   y="86"
   class="st22"
   width="36"
   height="0.69999999"
   id="rect674" />
			</g>
		</g>
		<polyline
   class="st23"
   points="77.7,82.5 93.6,95.1 147.9,95.1 153.1,100.3 269.5,100.3 285.3,84.3 303.4,84.3   "
   id="polyline680" />
		<circle
   class="st21"
   cx="77.199997"
   cy="81.800003"
   r="1.5"
   id="circle682" />
		<circle
   class="st21"
   cx="203.5"
   cy="109.1"
   r="1.5"
   id="circle684" />
		<circle
   class="st21"
   cx="303.70001"
   cy="84.5"
   r="1.5"
   id="circle686" />
		<polyline
   class="st23"
   points="204.6,109.1 224.1,109.1 233.1,100.3   "
   id="polyline688" />
		<polyline
   class="st23"
   points="218.8,75.7 214.5,70.5 198.1,70.5 193.1,75.7   "
   id="polyline690" />
		<line
   class="st23"
   x1="206"
   y1="70.5"
   x2="206"
   y2="99.900002"
   id="line692" />
	</g>
	<polygon
   class="st14"
   points="265.4,66.8 270.3,61.6 293,67.7 294.4,74.6 "
   id="polygon696" />
</g>
<polyline
   class="st36"
   points="468.4,54.9 471.5,54.9 474.2,57.6 474.2,83.9 "
   id="polyline700"
   transform="translate(0.01483043,0.02581547)" />
<rect
   x="-84.193604"
   y="471.65955"
   transform="rotate(-90)"
   class="st1"
   width="4.5999999"
   height="4.6999998"
   id="rect702" />
<path
   class="st1"
   d="m 476.01483,79.225815 v 3.8 c 0,0.2 -0.2,0.4 -0.4,0.4 h -3.1 c -0.2,0 -0.4,-0.2 -0.4,-0.4 v -3.8 c 0,-0.2 0.2,-0.4 0.4,-0.4 h 3.1 c 0.2,0 0.4,0.2 0.4,0.4 z"
   id="path704" />
<rect
   x="-82.1819"
   y="472.67123"
   transform="rotate(-90)"
   class="st1"
   width="4.5999999"
   height="2.9000001"
   id="rect706" />
<g
   id="g868"
   transform="translate(0.01483043,0.02581547)">
	<g
   id="g710">
		<path
   class="st0"
   d="m 34.5,125.2 v 24.7 h 9.6 l 30.9,-14 v -24.7 z m 11.3,15.7 c -3.1,0 -5.7,-2.5 -5.7,-5.7 0,-3.1 2.5,-5.7 5.7,-5.7 3.1,0 5.7,2.5 5.7,5.7 -0.1,3.2 -2.6,5.7 -5.7,5.7 z m 15.6,-7.4 c -3.1,0 -5.7,-2.5 -5.7,-5.7 0,-3.2 2.5,-5.7 5.7,-5.7 3.1,0 5.7,2.5 5.7,5.7 0,3.2 -2.6,5.7 -5.7,5.7 z"
   id="path708" />
	</g>
	<path
   class="st24"
   d="m 31.4,128.4 h -21 c -5.5,0 -10,-4.5 -10,-10 V 43.6 C 0.4,33.4 8.7,25.1 18.9,25.1 h 6.2 c 10.2,0 18.5,8.3 18.5,18.5 v 72.7 c -0.1,6.7 -5.5,12.1 -12.2,12.1 z"
   id="path712" />
	<rect
   x="0.1"
   y="40.599998"
   class="st0"
   width="34.200001"
   height="4.8000002"
   id="rect714" />
	<rect
   x="0.1"
   y="109.7"
   class="st0"
   width="34.200001"
   height="4.8000002"
   id="rect716" />
	<rect
   x="0.1"
   y="78.400002"
   class="st0"
   width="34.200001"
   height="4.8000002"
   id="rect718" />
	<polygon
   class="st0"
   points="41.6,53.1 91.3,31.9 75.1,120.2 41.6,120.2 "
   id="polygon720" />
	<g
   id="g742">
		<polygon
   class="st25"
   points="54.6,28.6 28.5,28.6 25.8,45.4 25.2,45.5 17.4,53.3 17.4,120.2 65.7,120.2 65.7,56.4 63.8,50.8 54.6,45.7 "
   id="polygon722" />
		<polygon
   class="st26"
   points="38.3,179.1 19.8,179.1 13.2,157.7 44.9,157.7 "
   id="polygon724" />
		<rect
   x="17"
   y="61.799999"
   class="st27"
   width="20.4"
   height="38.799999"
   id="rect726" />
		<polygon
   class="st28"
   points="37.4,100.6 42.5,100.6 42.5,58.6 37.4,61.8 "
   id="polygon728" />
		<g
   id="g734">
			<path
   class="st25"
   d="m 41.3,150.5 7.9,-1.5 v -41.3 -2.5 0 -0.4 0 C 49,102.5 47,100.7 44.7,100.7 H 13.6 c -2.4,0 -4.3,1.8 -4.5,4.1 v 0 0.4 0 43.8 l 7.9,1.5 c 8,1.6 16.2,1.6 24.3,0 z"
   id="path730" />
			<path
   class="st29"
   d="m 41.3,158.4 3.6,-0.7 -0.1,-0.6 v 0 l 4.4,-7 V 149 l -7.9,1.5 c -8.1,1.6 -16.3,1.6 -24.4,0 L 9,148.9 v 1.1 l 4.4,7 -0.3,0.6 3.7,0.7 c 8.2,1.7 16.4,1.7 24.5,0.1 z"
   id="path732" />
		</g>
		<polygon
   class="st30"
   points="17,61.8 37.4,61.8 42.5,58.6 17,58.6 "
   id="polygon736" />
		<path
   class="st29"
   d="m 49.2,113.1 -7.9,1 c -8.1,1 -16.3,1 -24.4,0 l -7.9,-1 v -4.9 l 7.9,1 c 8.1,1 16.3,1 24.4,0 l 7.9,-1 z"
   id="path738" />
		<path
   class="st29"
   d="m 49.2,134.6 -7.9,1 c -8.1,1 -16.3,1 -24.4,0 l -7.9,-1 v -4.9 l 7.9,1 c 8.1,1 16.3,1 24.4,0 l 7.9,-1 z"
   id="path740" />
	</g>
	<path
   class="st26"
   d="M 49.6,6.5 C 49.2,4.7 47.6,3.3 45.7,3.3 H 37 c -1.9,0 -3.5,1.3 -3.9,3.2 l -3.2,15.6 3,3 v 3.5 H 50 v -3.5 l 2.8,-3 z"
   id="path744" />
	<g
   id="g750">
		<circle
   class="st13"
   cx="62.200001"
   cy="54.799999"
   r="1.7"
   id="circle746" />
		<polygon
   class="st12"
   points="62.7,54.9 63,55.8 62.5,55 62,54.5 61.3,54 62.1,54.3 "
   id="polygon748" />
	</g>
	<g
   id="g756">
		<circle
   class="st13"
   cx="20.9"
   cy="54.799999"
   r="1.7"
   id="circle752" />
		<polygon
   class="st12"
   points="21.4,54.9 21.7,55.8 21.2,55 20.7,54.5 20,54 20.8,54.3 "
   id="polygon754" />
	</g>
	<g
   id="g762">
		<circle
   class="st13"
   cx="63"
   cy="116.9"
   r="1.7"
   id="circle758" />
		<polygon
   class="st12"
   points="63.4,117 63.7,118 63.3,117.2 62.8,116.6 62.1,116.1 62.9,116.4 "
   id="polygon760" />
	</g>
	<g
   id="g768">
		<circle
   class="st13"
   cx="20.9"
   cy="95.400002"
   r="1.7"
   id="circle764" />
		<polygon
   class="st12"
   points="21.4,95.5 21.7,96.5 21.2,95.7 20.7,95.1 20,94.6 20.8,94.9 "
   id="polygon766" />
	</g>
	<g
   id="g774">
		<circle
   class="st13"
   cx="20.9"
   cy="66.099998"
   r="1.7"
   id="circle770" />
		<polygon
   class="st12"
   points="21.4,66.2 21.7,67.2 21.2,66.4 20.7,65.8 20,65.3 20.8,65.6 "
   id="polygon772" />
	</g>
	<g
   id="g780">
		<circle
   class="st13"
   cx="33.5"
   cy="95.400002"
   r="1.7"
   id="circle776" />
		<polygon
   class="st12"
   points="33.9,95.5 34.2,96.5 33.8,95.7 33.3,95.1 32.6,94.6 33.4,94.9 "
   id="polygon778" />
	</g>
	<g
   id="g786">
		<circle
   class="st13"
   cx="33.5"
   cy="66.099998"
   r="1.7"
   id="circle782" />
		<polygon
   class="st12"
   points="33.9,66.2 34.2,67.2 33.8,66.4 33.3,65.8 32.6,65.3 33.4,65.6 "
   id="polygon784" />
	</g>
	<polyline
   class="st31"
   points="37.8,28.6 37.8,39.3 45.5,47 45.5,54 54.9,63.3 54.9,68.3 45.2,68.4 45.2,93.8 54.9,94 54.9,102.8    59.3,108.9 59.3,120.2  "
   id="polyline788" />
	<g
   id="g814">
		<rect
   x="46.400002"
   y="70.199997"
   class="st21"
   width="16.200001"
   height="0.60000002"
   id="rect790" />
		<rect
   x="46.400002"
   y="79.199997"
   class="st21"
   width="16.200001"
   height="0.69999999"
   id="rect792" />
		<rect
   x="46.400002"
   y="70.599998"
   class="st21"
   width="0.2"
   height="8.8999996"
   id="rect794" />
		<rect
   x="62.400002"
   y="70.400002"
   class="st21"
   width="0.2"
   height="9.1000004"
   id="rect796" />
		<g
   id="g812">
			<rect
   x="46.799999"
   y="71.199997"
   class="st22"
   width="15.3"
   height="0.60000002"
   id="rect798" />
			<rect
   x="46.799999"
   y="72.400002"
   class="st22"
   width="15.3"
   height="0.60000002"
   id="rect800" />
			<rect
   x="46.799999"
   y="73.5"
   class="st22"
   width="15.3"
   height="0.60000002"
   id="rect802" />
			<rect
   x="46.799999"
   y="74.699997"
   class="st22"
   width="15.3"
   height="0.60000002"
   id="rect804" />
			<rect
   x="46.799999"
   y="75.900002"
   class="st22"
   width="15.3"
   height="0.60000002"
   id="rect806" />
			<rect
   x="46.799999"
   y="77.099998"
   class="st22"
   width="15.3"
   height="0.60000002"
   id="rect808" />
			<rect
   x="46.799999"
   y="78.199997"
   class="st22"
   width="15.3"
   height="0.60000002"
   id="rect810" />
		</g>
	</g>
	<g
   id="g840">
		<rect
   x="46.400002"
   y="82.400002"
   class="st21"
   width="16.200001"
   height="0.60000002"
   id="rect816" />
		<rect
   x="46.400002"
   y="91.5"
   class="st21"
   width="16.200001"
   height="0.69999999"
   id="rect818" />
		<rect
   x="46.400002"
   y="82.900002"
   class="st21"
   width="0.2"
   height="8.8999996"
   id="rect820" />
		<rect
   x="62.400002"
   y="82.699997"
   class="st21"
   width="0.2"
   height="9.1000004"
   id="rect822" />
		<g
   id="g838">
			<rect
   x="46.799999"
   y="83.5"
   class="st22"
   width="15.3"
   height="0.60000002"
   id="rect824" />
			<rect
   x="46.799999"
   y="84.599998"
   class="st22"
   width="15.3"
   height="0.60000002"
   id="rect826" />
			<rect
   x="46.799999"
   y="85.800003"
   class="st22"
   width="15.3"
   height="0.60000002"
   id="rect828" />
			<rect
   x="46.799999"
   y="87"
   class="st22"
   width="15.3"
   height="0.60000002"
   id="rect830" />
			<rect
   x="46.799999"
   y="88.099998"
   class="st22"
   width="15.3"
   height="0.60000002"
   id="rect832" />
			<rect
   x="46.799999"
   y="89.300003"
   class="st22"
   width="15.3"
   height="0.60000002"
   id="rect834" />
			<rect
   x="46.799999"
   y="90.5"
   class="st22"
   width="15.3"
   height="0.60000002"
   id="rect836" />
		</g>
	</g>
	
		<rect
   x="-0.1"
   y="25.299999"
   transform="matrix(0.8236,-0.5671,0.5671,0.8236,-14.2801,9.4041)"
   class="st32"
   width="16.1"
   height="4.8000002"
   id="rect842" />
	
		<rect
   x="1.6"
   y="26.299999"
   transform="matrix(0.8236,-0.5671,0.5671,0.8236,-14.6362,9.8429)"
   class="st33"
   width="13.8"
   height="4.4000001"
   id="rect844" />
	<g
   id="g866">
		<path
   class="st34"
   d="M 11.6,23.7 2.8,29.8 2,28.6 C 1.8,28.4 1.9,28.1 2.1,27.9 l 8,-5.5 c 0.2,-0.1 0.5,-0.1 0.6,0.1 z"
   id="path846" />
		
			<rect
   x="2.9000001"
   y="28.200001"
   transform="matrix(0.8228,-0.5683,0.5683,0.8228,-15.8465,6.8495)"
   class="st35"
   width="0.40000001"
   height="1.2"
   id="rect848" />
		
			<rect
   x="10.5"
   y="22.9"
   transform="matrix(0.8228,-0.5683,0.5683,0.8228,-11.4891,10.2603)"
   class="st35"
   width="0.40000001"
   height="1.2"
   id="rect850" />
		
			<rect
   x="9.6000004"
   y="23.6"
   transform="matrix(-0.8228,0.5683,-0.5683,-0.8228,31.5426,38.5989)"
   class="st35"
   width="0.40000001"
   height="1.2"
   id="rect852" />
		
			<rect
   x="8.6000004"
   y="24.299999"
   transform="matrix(0.8228,-0.5683,0.5683,0.8228,-12.5785,9.4076)"
   class="st35"
   width="0.40000001"
   height="1.2"
   id="rect854" />
		
			<rect
   x="7.5999999"
   y="24.9"
   transform="matrix(-0.8228,0.5683,-0.5683,-0.8228,28.8076,42.0929)"
   class="st35"
   width="0.40000001"
   height="1.2"
   id="rect856" />
		
			<rect
   x="6.6999998"
   y="25.6"
   transform="matrix(0.8228,-0.5683,0.5683,0.8228,-13.6678,8.5549)"
   class="st35"
   width="0.40000001"
   height="1.2"
   id="rect858" />
		
			<rect
   x="4.8000002"
   y="26.9"
   transform="matrix(-0.8228,0.5683,-0.5683,-0.8228,24.705,47.334)"
   class="st35"
   width="0.40000001"
   height="1.2"
   id="rect860" />
		
			<rect
   x="5.6999998"
   y="26.200001"
   transform="matrix(0.8228,-0.5683,0.5683,0.8228,-14.2125,8.1285)"
   class="st35"
   width="0.40000001"
   height="1.2"
   id="rect862" />
		
			<rect
   x="3.8"
   y="27.6"
   transform="matrix(-0.8228,0.5683,-0.5683,-0.8228,23.3374,49.0811)"
   class="st35"
   width="0.40000001"
   height="1.2"
   id="rect864" />
	</g>
</g>
<g
   id="g910"
   transform="translate(0.01483043,0.02581547)">
	<path
   class="st39"
   d="m 532.1,163 c 0.4,2 2.1,3.4 4.1,3.4 h 9.3 c 2,0 3.7,-1.4 4.1,-3.4 l 3.4,-16.5 -3.2,-3.2 v -3.7 h -18.1 v 3.7 l -2.9,3.2 z"
   id="path870" />
	<path
   class="st40"
   d="m 554.4,156.2 h -27 c -1,0 -1.9,-0.8 -1.9,-1.9 v -4 c 0,-1 0.8,-1.9 1.9,-1.9 h 27 c 1,0 1.9,0.8 1.9,1.9 v 4 c -0.1,1.1 -0.9,1.9 -1.9,1.9 z"
   id="path872" />
	<path
   class="st41"
   d="m 553.1,160 h -24.4 c -0.7,0 -1.2,-0.5 -1.2,-1.2 v -1.4 c 0,-0.7 0.5,-1.2 1.2,-1.2 h 24.4 c 0.7,0 1.2,0.5 1.2,1.2 v 1.4 c 0,0.7 -0.5,1.2 -1.2,1.2 z"
   id="path874" />
	<rect
   x="528.79999"
   y="110.6"
   class="st42"
   width="24.1"
   height="35.799999"
   id="rect876" />
	<g
   id="g882">
		<circle
   class="st13"
   cx="531"
   cy="144.2"
   r="1.2"
   id="circle878" />
		<polygon
   class="st12"
   points="530.7,144.2 530.5,144.9 530.8,144.4 531.2,144 531.7,143.6 531.1,143.8 "
   id="polygon880" />
	</g>
	<g
   id="g908">
		<circle
   class="st13"
   cx="531"
   cy="131.10001"
   r="1.2"
   id="circle884" />
		<polygon
   class="st12"
   points="530.7,131.2 530.5,131.9 530.8,131.3 531.2,130.9 531.7,130.5 531.1,130.7 "
   id="polygon886" />
		<g
   id="g892">
			<circle
   class="st13"
   cx="550.79999"
   cy="144.2"
   r="1.2"
   id="circle888" />
			<polygon
   class="st12"
   points="550.5,144.2 550.3,144.9 550.6,144.4 551,144 551.5,143.6 550.9,143.8 "
   id="polygon890" />
		</g>
		<circle
   class="st13"
   cx="550.79999"
   cy="131.10001"
   r="1.2"
   id="circle894" />
		<polygon
   class="st12"
   points="550.5,131.2 550.3,131.9 550.6,131.3 551,130.9 551.5,130.5 550.9,130.7 "
   id="polygon896" />
		<g
   id="g902">
			<circle
   class="st13"
   cx="541"
   cy="144.2"
   r="1.2"
   id="circle898" />
			<polygon
   class="st12"
   points="540.7,144.2 540.5,144.9 540.8,144.4 541.1,144 541.7,143.6 541.1,143.8 "
   id="polygon900" />
		</g>
		<circle
   class="st13"
   cx="541"
   cy="131.10001"
   r="1.2"
   id="circle904" />
		<polygon
   class="st12"
   points="540.7,131.2 540.5,131.9 540.8,131.3 541.1,130.9 541.7,130.5 541.1,130.7 "
   id="polygon906" />
	</g>
</g>
<path
   class="st43"
   d="m 571.61483,128.62582 h -64.4 c -8.6,0 -15.5,-6.9 -15.5,-15.5 V 47.925815 c 0,-15.9 12.9,-28.8 28.8,-28.8 h 41.3 c 15.9,0 28.8,12.9 28.8,28.8 v 61.800005 c -0.2,10.4 -8.6,18.9 -19,18.9 z"
   id="path912" />
<rect
   x="485.51483"
   y="35.525814"
   class="st0"
   width="110.2"
   height="22.6"
   id="rect914" />
<rect
   x="485.11484"
   y="35.525814"
   class="st15"
   width="106.4"
   height="9.8999996"
   id="rect916" />
<path
   class="st0"
   d="M 512.41483,85.225815"
   id="path918" />
<rect
   x="523.11481"
   y="48.825813"
   class="st0"
   width="35.200001"
   height="79.800003"
   id="rect920" />
<polygon
   class="st15"
   points="523.1,55.7 528.5,52.2 528.5,40.9 523.1,40.9 "
   id="polygon922"
   transform="translate(0.01483043,0.02581547)" />
<polygon
   class="st15"
   points="552.8,52 558.2,55.7 558.2,40.9 552.8,40.9 "
   id="polygon924"
   transform="translate(0.01483043,0.02581547)" />
<rect
   x="530.01483"
   y="73.325821"
   class="st44"
   width="22.4"
   height="29.799999"
   id="rect926" />
<g
   id="g932"
   transform="translate(0.01483043,0.02581547)">
	<path
   class="st45"
   d="m 548.4,75.4 c -0.6,0.6 -0.9,1.4 -0.9,2.3 0.1,3.2 0.1,6.1 0.1,6.1 h 1.2 c 0,0 0,-2.9 -0.1,-6.2 0,-0.6 0.1,-1 0.5,-1.3 0.8,-0.7 2.4,-0.8 3.2,-0.8 v -1.2 c -0.8,0 -2.8,0 -4,1.1 z"
   id="path928" />
	<path
   class="st45"
   d="m 550,78.8 c -0.4,0.4 -0.6,0.8 -0.5,1.4 0.1,2 0.1,3.8 0.1,3.8 h 0.8 c 0,0 0,-1.8 -0.1,-3.9 0,-0.4 0.1,-0.6 0.3,-0.8 0.5,-0.4 1.3,-0.5 1.9,-0.5 V 78 c -0.7,0.1 -1.8,0.2 -2.5,0.8 z"
   id="path930" />
</g>
<rect
   x="540.61481"
   y="83.025818"
   class="st0"
   width="12.1"
   height="16.6"
   id="rect934" />
<rect
   x="543.41486"
   y="92.625816"
   class="st46"
   width="0.69999999"
   height="6.9000001"
   id="rect936" />
<rect
   x="544.61481"
   y="92.625816"
   class="st46"
   width="0.69999999"
   height="6.9000001"
   id="rect938" />
<rect
   x="545.91486"
   y="92.625816"
   class="st46"
   width="0.69999999"
   height="6.9000001"
   id="rect940" />
<rect
   x="547.11481"
   y="92.625816"
   class="st46"
   width="0.69999999"
   height="6.9000001"
   id="rect942" />
<rect
   x="548.31482"
   y="92.625816"
   class="st46"
   width="0.69999999"
   height="6.9000001"
   id="rect944" />
<rect
   x="549.61481"
   y="92.625816"
   class="st46"
   width="0.69999999"
   height="6.9000001"
   id="rect946" />
<g
   id="g980"
   transform="translate(0.01483043,0.02581547)">
	<path
   class="st47"
   d="m 522.1,35.5 c 0,-0.4 -0.1,-20 -0.1,-20 h 37 v 20 h -36.9"
   id="path948" />
	<path
   class="st48"
   d="m 559,15.5 -4.4,-2.9 h -28.9 l -3.7,2.9 v 0 c 12.1,1.3 24.2,1.3 36.3,0.1 z"
   id="path950" />
	<path
   class="st44"
   d="m 554.6,12.6 v 0 c -9.6,1 -19.3,1 -28.9,0 v 0 -3.9 h 28.9 z"
   id="path952" />
	<path
   class="st47"
   d="m 528.9,2.8 -3.2,6 5.8,0.4 c 5.8,0.4 11.7,0.4 17.6,0 L 554.6,8.8 551.8,1.9 551,1.6 c -7,-2.2 -14.6,-2.2 -21.6,0.2 v 0 L 528.8,3"
   id="path954" />
	<polyline
   class="st47"
   points="526.7,16.2 526.7,16.1 528.8,12.9 530.4,13 528.7,16.3  "
   id="polyline956" />
	<polygon
   class="st47"
   points="536.8,13.3 536.7,16.5 534.5,16.5 535,13.3 "
   id="polygon958" />
	<polyline
   class="st47"
   points="554.6,16.2 554.5,16.1 552.5,12.9 550.9,13 552.6,16.3  "
   id="polyline960" />
	<polygon
   class="st47"
   points="544.5,13.3 544.7,16.5 547,16.5 546.5,13.3 "
   id="polygon962" />
	<path
   class="st48"
   d="m 533.9,21.9 v 0 c 4,1.6 8.4,1.6 12.3,0 v 0 13.7 h -12.3 z"
   id="path964" />
	<polygon
   class="st44"
   points="518.5,28.1 522.1,24.6 522.1,35.5 518.5,35.5 "
   id="polygon966" />
	<polygon
   class="st44"
   points="562.6,28.1 559,24.6 559,35.5 562.6,35.5 "
   id="polygon968" />
	<g
   id="g978">
		<path
   class="st49"
   d="m 538.8,25.1 h 2.7 c 0.5,0 1,0.3 1.3,0.7 l 1.3,2.3 c 0.3,0.5 0.3,1 0,1.5 l -1.3,2.3 c -0.3,0.5 -0.7,0.7 -1.3,0.7 h -1.3 -1.3 c -0.5,0 -1,-0.3 -1.3,-0.7 l -1.3,-2.3 c -0.3,-0.5 -0.3,-1 0,-1.5 l 1.3,-2.3 c 0.2,-0.4 0.7,-0.7 1.2,-0.7 z"
   id="path970" />
		<line
   class="st49"
   x1="544.5"
   y1="28.9"
   x2="535.79999"
   y2="28.9"
   id="line972" />
		<line
   class="st49"
   x1="540.09998"
   y1="25.1"
   x2="540.09998"
   y2="32.599998"
   id="line974" />
		<circle
   class="st34"
   cx="540.09998"
   cy="28.9"
   r="1.6"
   id="circle976" />
	</g>
</g>
<rect
   x="537.45087"
   y="-174.76932"
   transform="rotate(19.498511)"
   class="st32"
   width="17.100904"
   height="5.0002642"
   id="rect982"
   style="stroke-width:1.00005" />
<rect
   x="538.70026"
   y="-173.58679"
   transform="rotate(19.498511)"
   class="st33"
   width="14.600772"
   height="5.3002806"
   id="rect984"
   style="stroke-width:1.00005" />
<g
   id="g1006"
   transform="translate(0.01483043,0.02581547)">
	<path
   class="st34"
   d="m 577.8,20.4 -10.7,-3.8 0.5,-1.4 c 0.1,-0.3 0.4,-0.4 0.7,-0.3 l 9.7,3.4 c 0.3,0.1 0.4,0.4 0.3,0.6 z"
   id="path986" />
	
		<rect
   x="567.90002"
   y="15.7"
   transform="matrix(0.9431,0.3324,-0.3324,0.9431,37.7363,-187.9224)"
   class="st35"
   width="0.40000001"
   height="1.3"
   id="rect988" />
	
		<rect
   x="577.20001"
   y="19"
   transform="matrix(0.9431,0.3324,-0.3324,0.9431,39.353,-190.8239)"
   class="st35"
   width="0.40000001"
   height="1.3"
   id="rect990" />
	
		<rect
   x="576"
   y="18.5"
   transform="matrix(-0.9431,-0.3324,0.3324,-0.9431,1113.2576,228.8394)"
   class="st35"
   width="0.40000001"
   height="1.3"
   id="rect992" />
	
		<rect
   x="574.79999"
   y="18.1"
   transform="matrix(0.9431,0.3324,-0.3324,0.9431,38.9488,-190.0986)"
   class="st35"
   width="0.40000001"
   height="1.3"
   id="rect994" />
	
		<rect
   x="573.70001"
   y="17.700001"
   transform="matrix(-0.9431,-0.3324,0.3324,-0.9431,1109.0177,226.477)"
   class="st35"
   width="0.40000001"
   height="1.3"
   id="rect996" />
	
		<rect
   x="572.5"
   y="17.299999"
   transform="matrix(0.9431,0.3324,-0.3324,0.9431,38.5447,-189.3732)"
   class="st35"
   width="0.40000001"
   height="1.3"
   id="rect998" />
	
		<rect
   x="570.20001"
   y="16.5"
   transform="matrix(-0.9431,-0.3324,0.3324,-0.9431,1102.6578,222.9335)"
   class="st35"
   width="0.40000001"
   height="1.3"
   id="rect1000" />
	
		<rect
   x="571.29999"
   y="16.9"
   transform="matrix(0.9431,0.3324,-0.3324,0.9431,38.3426,-189.0105)"
   class="st35"
   width="0.40000001"
   height="1.3"
   id="rect1002" />
	
		<rect
   x="569"
   y="16.1"
   transform="matrix(-0.9431,-0.3324,0.3324,-0.9431,1100.538,221.7523)"
   class="st35"
   width="0.40000001"
   height="1.3"
   id="rect1004" />
</g>
<g
   id="g1010"
   transform="translate(0.01483043,0.02581547)">
	<path
   class="st0"
   d="m 483.6,90.4 v 26.2 h 10.2 l 32.7,-14.9 V 75.5 Z m 11.9,16.7 c -3.3,0 -6,-2.7 -6,-6 0,-3.3 2.7,-6 6,-6 3.3,0 6,2.7 6,6 0,3.3 -2.7,6 -6,6 z M 512,99.3 c -3.3,0 -6,-2.7 -6,-6 0,-3.3 2.7,-6 6,-6 3.3,0 6,2.7 6,6 0,3.3 -2.6,6 -6,6 z"
   id="path1008" />
</g>
<g
   id="g1014"
   transform="translate(0.01483043,0.02581547)">
	<path
   class="st0"
   d="m 554.1,75.5 v 26.2 l 32.7,14.9 H 597 V 90.4 Z m 25.1,25.6 c 0,-3.3 2.7,-6 6,-6 3.3,0 6,2.7 6,6 0,3.3 -2.7,6 -6,6 -3.3,0 -6,-2.7 -6,-6 z m -16.6,-7.8 c 0,-3.3 2.7,-6 6,-6 3.3,0 6,2.7 6,6 0,3.3 -2.7,6 -6,6 -3.3,0 -6,-2.7 -6,-6 z"
   id="path1012" />
</g>
<polygon
   class="st0"
   points="478.4,58.1 486.5,58.1 485.5,51 482.9,51 "
   id="polygon1016"
   transform="translate(0.01483043,0.02581547)" />
<polygon
   class="st0"
   points="602.8,58 594.7,58 595.6,50.8 598.3,50.8 "
   id="polygon1018"
   transform="translate(0.01483043,0.02581547)" />
</svg>
