<?xml version="1.0" encoding="UTF-8" standalone="no"?>
<!-- Generator: Adobe Illustrator 26.2.1, SVG Export Plug-In . SVG Version: 6.00 Build 0)  -->

<svg
   version="1.1"
   id="Layer_1"
   x="0px"
   y="0px"
   viewBox="0 0 656.8 745.3"
   style="enable-background:new 0 0 656.8 745.3;"
   xml:space="preserve"
   sodipodi:docname="LobbieRock.svg"
   inkscape:version="1.1 (c68e22c387, 2021-05-23)"
   xmlns:inkscape="http://www.inkscape.org/namespaces/inkscape"
   xmlns:sodipodi="http://sodipodi.sourceforge.net/DTD/sodipodi-0.dtd"
   xmlns:xlink="http://www.w3.org/1999/xlink"
   xmlns="http://www.w3.org/2000/svg"
   xmlns:svg="http://www.w3.org/2000/svg"><defs
   id="defs493" /><sodipodi:namedview
   id="namedview491"
   pagecolor="#ffffff"
   bordercolor="#666666"
   borderopacity="1.0"
   inkscape:pageshadow="2"
   inkscape:pageopacity="0.0"
   inkscape:pagecheckerboard="0"
   showgrid="false"
   inkscape:zoom="0.827314"
   inkscape:cx="153.50883"
   inkscape:cy="364.43237"
   inkscape:window-width="1842"
   inkscape:window-height="1057"
   inkscape:window-x="-8"
   inkscape:window-y="-8"
   inkscape:window-maximized="1"
   inkscape:current-layer="Layer_1" />
<style
   type="text/css"
   id="style2">
	.st0{fill:#636363;}
	.st1{fill:#828282;}
	.st2{fill:#CECECE;}
	.st3{fill:#4F4F4F;}
	.st4{fill:#AAAAAA;}
	.st5{fill:#705E51;stroke:#5B5B5B;stroke-width:1.095;stroke-miterlimit:10;}
	.st6{fill:none;stroke:#999999;stroke-width:0.5472;stroke-miterlimit:10;}
	.st7{fill:#727272;stroke:#5B5B5B;stroke-width:1.3394;stroke-miterlimit:10;}
	.st8{fill:#4F403A;}
	.st9{fill:#705E51;stroke:#5B5B5B;stroke-width:0.9908;stroke-miterlimit:10;}
	.st10{fill:#705E51;stroke:#5B5B5B;stroke-width:1.3889;stroke-miterlimit:10;}
	.st11{fill:#54463C;}
	.st12{fill:#AFAFAF;}
	.st13{fill:#B79F2A;}
	.st14{filter:url(#Adobe_OpacityMaskFilter);}
	.st15{mask:url(#SVGID_1_);}
	.st16{fill:#8C811E;}
	.st17{fill:#FCE249;}
	.st18{fill:#706051;}
	.st19{opacity:0.36;}
	.st20{clip-path:url(#SVGID_00000129197584485123070760000015990805320475500209_);fill:#FFFFFF;}
	.st21{opacity:0.21;fill:#F2EEEB;stroke:#5B5B5B;stroke-width:1.5042;stroke-miterlimit:10;}
	.st22{fill:#606060;}
	.st23{fill:#939393;}
	.st24{fill:#727272;}
	.st25{fill:none;stroke:#54463C;stroke-miterlimit:10;}
	.st26{fill:#6B3F34;}
	.st27{fill:#603E26;}
	.st28{fill:#663C2B;}
	.st29{fill:#F4D8AB;}
	.st30{fill:#FFDC48;}
	.st31{fill:#3A2607;}
	.st32{fill:none;stroke:#999999;stroke-width:0.6233;stroke-miterlimit:10;}
	.st33{fill:#775742;}
	.st34{opacity:0.46;fill:#33302D;}
	.st35{fill:#333333;}
	.st36{opacity:0.53;fill:#CECECE;}
	.st37{fill:#231F20;}
	.st38{fill:none;}
	.st39{fill:#686868;}
	.st40{fill:#4DBA2F;}
	.st41{fill:#56CC2F;}
	.st42{fill:#429E20;}
	.st43{fill:#75EA49;}
	.st44{opacity:0.52;fill:#56CC2F;}
</style>
<g
   id="g408">
	<g
   id="g22">
		<path
   class="st0"
   d="M96.1,88.4l-28,25.7l-24,90.5L27.1,484.3l11.8,31.8l12.5,34l24.6,13l-13.5,21.1l-8.6,11l14.5,107l17.4,12.5    l94.2,12l192.6,12.7l11.8-1.2l6.2,2.4H512l53.4-4.6c0,0,49.9-32.7,49.9-42.1c0-9.4-23.7-461.2-23.7-461.2l9.5-132    c0,0-58.8-27.3-64.8-25.4S421.4,54.2,417,54.2s-267,5-267,5L96.1,88.4z"
   id="path4" />
		<polygon
   class="st1"
   points="155.2,70.1 104.5,102.6 89.3,106.1 57.8,194.7 49.2,333.8 38.9,489.5 43,499.2 51.3,550.1     68.9,560.2 68.9,570.7 62.4,584.1 83.8,704.9 119.7,704.9 178.6,717.9 231.6,720.4 371.5,730.4 371.5,721.9 375.4,717.4     377.9,724.9 383.4,728.4 471.7,730.4 555.6,727.4 603.5,694.4 595.5,625.5 580.6,231.6 589.1,107.1 557.6,90.6 519.2,79.6     416.8,61.7 329.8,61.7 311,70.1   "
   id="polygon6" />
		<polygon
   class="st2"
   points="155.2,70.1 150,59.2 304,56.2 311,70.1   "
   id="polygon8" />
		<polygon
   class="st3"
   points="329.8,61.7 328.1,55.8 304,56.2 311,70.1   "
   id="polygon10" />
		<polygon
   class="st4"
   points="416.8,61.7 418.3,54.2 532,75.1 538.3,75.2 557.6,90.6 519.2,79.6   "
   id="polygon12" />
		<polygon
   class="st3"
   points="589.1,107.1 601.3,100.6 591.7,232.6 580.6,231.6   "
   id="polygon14" />
		<polygon
   class="st3"
   points="384.8,738.4 383.4,728.4 377.9,724.9 375.4,717.4 371.5,721.9 371.5,730.4 372.3,739.3   "
   id="polygon16" />
		<polygon
   class="st3"
   points="180.1,726.6 178.6,717.9 227.8,720.2 304,734.8   "
   id="polygon18" />
		<polygon
   class="st3"
   points="615.4,693.8 603.5,694.4 555.6,727.4 565.4,735.9 598.4,716.6 614,704.3   "
   id="polygon20" />
	</g>
	<path
   class="st0"
   d="M95.3,476"
   id="path24" />
	<path
   class="st3"
   d="M339.6,738.9"
   id="path26" />
	<path
   class="st0"
   d="M339.6,738.9"
   id="path28" />
	<polygon
   class="st3"
   points="248.2,745.3 263.8,702.9 280.2,714.2 295.8,708.2 317,741.4  "
   id="polygon30" />
	<polygon
   class="st2"
   points="282,697.7 264.5,703.4 280.2,714.2 295.8,708.2  "
   id="polygon32" />
	<polyline
   class="st1"
   points="280.2,714.2 282,727.8 278.8,728.8 278.8,731.2 285,743.8 248.2,745.3 263.8,702.9  "
   id="polyline34" />
	<polygon
   class="st3"
   points="292.1,744.1 307.5,720.4 323.6,726.7 338.9,723.4 359.7,741.9  "
   id="polygon36" />
	<polygon
   class="st2"
   points="325.3,717.5 308.1,720.6 323.6,726.7 338.9,723.4  "
   id="polygon38" />
	<polygon
   class="st1"
   points="323.6,726.7 343,742.5 292.1,744.1 307.5,720.4  "
   id="polygon40" />
	<rect
   x="510"
   class="st5"
   width="75.5"
   height="22.2"
   id="rect42" />
	<rect
   x="468.3"
   y="46.7"
   class="st6"
   width="0.4"
   height="3.4"
   id="rect44" />
	<path
   class="st6"
   d="M468.8,55h-0.7c-0.7,0-1.3-0.6-1.3-1.3v-2.6c0-0.7,0.6-1.3,1.3-1.3h0.7c0.7,0,1.3,0.6,1.3,1.3v2.6   C470.1,54.4,469.5,55,468.8,55z"
   id="path46" />
	<rect
   x="468.3"
   y="54.5"
   class="st6"
   width="0.4"
   height="3.4"
   id="rect48" />
	<rect
   x="456.1"
   y="26.1"
   class="st7"
   width="55.3"
   height="7.8"
   id="rect50" />
	<path
   class="st8"
   d="M599.9,393.3v254.3h35.3V393.3H599.9z M617.5,642c-6.1,0-11.1-5-11.1-11.1c0-6.1,5-11.1,11.1-11.1   c6.1,0,11.1,5,11.1,11.1C628.6,637,623.7,642,617.5,642z M617.5,605.1c-6.1,0-11.1-5-11.1-11.1c0-6.1,5-11.1,11.1-11.1   c6.1,0,11.1,5,11.1,11.1C628.6,600.1,623.7,605.1,617.5,605.1z M617.5,568.2c-6.1,0-11.1-5-11.1-11.1c0-6.1,5-11.1,11.1-11.1   c6.1,0,11.1,5,11.1,11.1C628.6,563.3,623.7,568.2,617.5,568.2z M617.5,531.4c-6.1,0-11.1-5-11.1-11.1s5-11.1,11.1-11.1   c6.1,0,11.1,5,11.1,11.1S623.7,531.4,617.5,531.4z M617.5,494.5c-6.1,0-11.1-5-11.1-11.1s5-11.1,11.1-11.1c6.1,0,11.1,5,11.1,11.1   S623.7,494.5,617.5,494.5z M617.5,457.6c-6.1,0-11.1-5-11.1-11.1c0-6.1,5-11.1,11.1-11.1c6.1,0,11.1,5,11.1,11.1   C628.6,452.7,623.7,457.6,617.5,457.6z M617.5,420.8c-6.1,0-11.1-5-11.1-11.1c0-6.1,5-11.1,11.1-11.1c6.1,0,11.1,5,11.1,11.1   C628.6,415.8,623.7,420.8,617.5,420.8z"
   id="path52" />
	<path
   class="st8"
   d="M599.9,129v254.3h35.3V129H599.9z M617.5,377.7c-6.1,0-11.1-5-11.1-11.1c0-6.1,5-11.1,11.1-11.1   c6.1,0,11.1,5,11.1,11.1C628.6,372.7,623.7,377.7,617.5,377.7z M617.5,340.8c-6.1,0-11.1-5-11.1-11.1c0-6.1,5-11.1,11.1-11.1   c6.1,0,11.1,5,11.1,11.1C628.6,335.8,623.7,340.8,617.5,340.8z M617.5,303.9c-6.1,0-11.1-5-11.1-11.1c0-6.1,5-11.1,11.1-11.1   c6.1,0,11.1,5,11.1,11.1C628.6,299,623.7,303.9,617.5,303.9z M617.5,267.1c-6.1,0-11.1-5-11.1-11.1c0-6.1,5-11.1,11.1-11.1   c6.1,0,11.1,5,11.1,11.1C628.6,262.1,623.7,267.1,617.5,267.1z M617.5,230.2c-6.1,0-11.1-5-11.1-11.1c0-6.1,5-11.1,11.1-11.1   c6.1,0,11.1,5,11.1,11.1C628.6,225.2,623.7,230.2,617.5,230.2z M617.5,193.3c-6.1,0-11.1-5-11.1-11.1c0-6.1,5-11.1,11.1-11.1   c6.1,0,11.1,5,11.1,11.1C628.6,188.4,623.7,193.3,617.5,193.3z M617.5,156.5c-6.1,0-11.1-5-11.1-11.1c0-6.1,5-11.1,11.1-11.1   c6.1,0,11.1,5,11.1,11.1C628.6,151.5,623.7,156.5,617.5,156.5z"
   id="path54" />
	<polygon
   class="st9"
   points="498.8,17.7 498.8,61.7 514.7,77.6 523.5,81.8 531.7,85.6 532.5,94.3 537.1,94.5 545.8,108.7    572.9,135.8 589.9,152.8 589.9,203.9 640.3,203.9 640.3,89.3 619.9,54.4 619.9,16.4  "
   id="polygon56" />
	<path
   class="st10"
   d="M591.8,644.9c2.8-1.8,62.8,0,62.8,0v101.5H541.7L591.8,644.9z"
   id="path58" />
	<g
   id="g84">
		<rect
   x="525.2"
   y="27.9"
   class="st11"
   width="67.8"
   height="1.4"
   id="rect60" />
		<rect
   x="525.2"
   y="47.8"
   class="st11"
   width="67.8"
   height="1.6"
   id="rect62" />
		<rect
   x="525.2"
   y="28.9"
   class="st11"
   width="1.8"
   height="19.7"
   id="rect64" />
		<rect
   x="591.2"
   y="28.5"
   class="st11"
   width="1.8"
   height="20.1"
   id="rect66" />
		<g
   id="g82">
			<rect
   x="529.5"
   y="30.2"
   class="st12"
   width="59.2"
   height="1.2"
   id="rect68" />
			<rect
   x="529.5"
   y="32.7"
   class="st12"
   width="59.2"
   height="1.2"
   id="rect70" />
			<rect
   x="529.5"
   y="35.3"
   class="st12"
   width="59.2"
   height="1.2"
   id="rect72" />
			<rect
   x="529.5"
   y="37.9"
   class="st12"
   width="59.2"
   height="1.2"
   id="rect74" />
			<rect
   x="529.5"
   y="40.5"
   class="st12"
   width="59.2"
   height="1.2"
   id="rect76" />
			<rect
   x="529.5"
   y="43.1"
   class="st12"
   width="59.2"
   height="1.2"
   id="rect78" />
			<rect
   x="529.5"
   y="45.7"
   class="st12"
   width="59.2"
   height="1.2"
   id="rect80" />
		</g>
	</g>
	<rect
   x="599.4"
   y="92.9"
   class="st11"
   width="4.8"
   height="4.8"
   id="rect86" />
	<rect
   x="599.4"
   y="99.9"
   class="st11"
   width="4.8"
   height="4.8"
   id="rect88" />
	<rect
   x="599.4"
   y="107.1"
   class="st11"
   width="4.8"
   height="4.8"
   id="rect90" />
	<rect
   x="599.4"
   y="114.2"
   class="st11"
   width="4.8"
   height="4.8"
   id="rect92" />
	<g
   id="g198">
		<path
   class="st8"
   d="M607,744.9h-180c-14.9,0-27-12.1-27-27v0c0-14.9,12.1-27,27-27h180c14.9,0,27,12.1,27,27v0    C634,732.9,621.9,744.9,607,744.9z"
   id="path94" />
		<g
   id="g124">
			<g
   id="g114">
				<g
   id="g98">
					<path
   class="st13"
   d="M567.3,707.1l1,4.3v6.6l0.5,5.7l-0.4,6.6H417.1c0,0-3.1,0.2-3.1,0c0-0.2-1.7-7.1-1.8-7.4       c0-0.4,1.1-12.6,1.1-12.8c0-0.2,2.5-5.5,2.5-5.5l65.9,2.4l85.6-0.4"
   id="path96" />
				</g>
				<defs
   id="defs103">
					<filter
   id="Adobe_OpacityMaskFilter"
   filterUnits="userSpaceOnUse"
   x="412.2"
   y="704.6"
   width="156.6"
   height="25.8">
						
							<feColorMatrix
   type="matrix"
   values="-1 0 0 0 1  0 -1 0 0 1  0 0 -1 0 1  0 0 0 1 0"
   color-interpolation-filters="sRGB"
   result="source"
   id="feColorMatrix100" />
					</filter>
				</defs>
				<mask
   maskUnits="userSpaceOnUse"
   x="412.2"
   y="704.6"
   width="156.6"
   height="25.8"
   id="SVGID_1_">
					<g
   class="st14"
   id="g107">
						
							<image
   style="overflow:visible;"
   width="162"
   height="31"
   xlink:href="510C12A9.jpg"
   transform="matrix(1 0 0 1 409.6628 701.7346)"
   id="image105">
						</image>
					</g>
				</mask>
				<g
   class="st15"
   mask="url(#SVGID_1_)"
   id="g112">
					<path
   class="st16"
   d="M567.3,707.1l1,4.3v6.6l0.5,5.7l-0.4,6.6H417.1c0,0-3.1,0.2-3.1,0c0-0.2-1.7-7.1-1.8-7.4       c0-0.4,1.1-12.6,1.1-12.8c0-0.2,2.5-5.5,2.5-5.5l65.9,2.4l85.6-0.4"
   id="path110" />
				</g>
			</g>
			<path
   class="st17"
   d="M515.3,718.6c0,0-3.5-0.3-5.9-2.6c-2.4-2.4-4.6-2.6-6.4-0.5c-1.8,2.1,2.2,4.9-2.6,6.5     c-4.7,1.6-21.2-18-27.3-12.4c-6,5.6-5.7,12.1-9.5,12.5s-2.6,6.1-0.5,5.5c2.2-0.6,5.7-4.8,7.8-3.5c2.2,1.2,7.4,6.2,8.7-0.5     c1.3-6.7-0.6-9.8,3-6.6s7.4-1.3,9.7,4.1c2.4,5.4,4.8,9.4,7.4,4.9c2.6-4.5,1.5-4.9,2.9-4.5c1.5,0.4,5.7-3.7,7.4-1.7     S516.1,724.5,515.3,718.6z"
   id="path116" />
			<path
   class="st17"
   d="M547.6,723.3c0,0,0-5.8-1.6-7.7c-1.6-1.9-3.1-3.8-6.3-1.8s-2.7,1.8-4.2,0.5c-1.6-1.3-4.2-1.3-4.4,0     c-0.2,1.3-1.8,1.1,1.4,3.8c3.1,2.7,1.4,2.3,3.7,5.1C538.4,726.1,542.8,729.5,547.6,723.3z"
   id="path118" />
			<path
   class="st17"
   d="M434.6,723.2c2.8,1.5,3.7-9.8,0.9-11.5c-0.6-0.4-1.3-0.5-2-0.3c-2.8,1.1-5.8,7.9-7,6.9s-4.3-1.4-4.1,2.1     c0.1,3.5,0.2,2.8,0.6,4.9c0.4,2.1,6.1,1.4,6.5-1.1c0.4-2.5,3.7-3.4,4.1-2.1C433.7,722.5,434.1,723,434.6,723.2z"
   id="path120" />
			<path
   class="st17"
   d="M441.9,716.8c0,0-1.5-0.2-1.6,1.2c-0.1,1.4-1,8.5,0.8,6.9C442.8,723.2,442.4,720.6,441.9,716.8z"
   id="path122" />
		</g>
		<path
   class="st3"
   d="M611.4,739.5H422.9c-6.4,0-16.5-8-16.5-17.9v-6.8c0-9.9,10.1-17.9,16.5-17.9h188.5c6.4,0,16.3,8,16.3,17.9    v6.8C627.7,731.5,617.8,739.5,611.4,739.5z M422.9,705.7c-3.2,0-5.9,4.1-5.9,9.1v6.8c0,5,2.6,9.1,5.9,9.1h188.5    c3.2,0,5.9-4.1,5.9-9.1v-6.8c0-5-2.6-9.1-5.9-9.1H422.9z"
   id="path126" />
		<path
   class="st18"
   d="M610.3,731.2H424.4c-4.9,0-8.9-6.1-8.9-13.6c0-7.5,4-13.6,8.9-13.6h185.9c4.9,0,8.9,6.1,8.9,13.6    C619.2,725.1,615.2,731.2,610.3,731.2z M424.4,709.2c-3,0-5.4,3.7-5.4,8.4c0,4.6,2.4,8.4,5.4,8.4h185.9c3,0,5.5-3.7,5.5-8.4    c0-4.6-2.4-8.4-5.5-8.4H424.4z"
   id="path128" />
		<g
   class="st19"
   id="g140">
			<defs
   id="defs131">
				<path
   id="SVGID_00000083057896394357645300000013600141423430026173_"
   class="st19"
   d="M591.6,739.5H401.8      c-6.4,0-11.7-8-11.7-17.9v-6.8c0-9.9,5.2-17.9,11.7-17.9h189.8c6.4,0,11.7,8,11.7,17.9v6.8C603.3,731.5,598,739.5,591.6,739.5z       M401.8,705.7c-3.3,0-5.9,4.1-5.9,9.1v6.8c0,5,2.7,9.1,5.9,9.1h189.8c3.3,0,5.9-4.1,5.9-9.1v-6.8c0-5-2.7-9.1-5.9-9.1H401.8z" />
			</defs>
			<clipPath
   id="SVGID_00000172411476129169454820000011457052281360982687_">
				<use
   xlink:href="#SVGID_00000083057896394357645300000013600141423430026173_"
   style="overflow:visible;"
   id="use133" />
			</clipPath>
			<polygon
   style="clip-path:url(#SVGID_00000172411476129169454820000011457052281360982687_);fill:#FFFFFF;"
   points="472.1,765.3      464.8,760.3 501.9,631.7 509.2,636.6    "
   clip-path="url(#SVGID_00000172411476129169454820000011457052281360982687_)"
   id="polygon136" />
			<polygon
   style="clip-path:url(#SVGID_00000172411476129169454820000011457052281360982687_);fill:#FFFFFF;"
   points="487.9,774.8      474.7,765.8 511.7,637.2 524.9,646.1    "
   clip-path="url(#SVGID_00000172411476129169454820000011457052281360982687_)"
   id="polygon138" />
		</g>
		<path
   class="st21"
   d="M425.1,726.4h184.6c3.4,0,6.1-2.7,6.1-6.1v-4.6c0-3.4-2.7-6.1-6.1-6.1H425.1c-3.4,0-6.1,2.7-6.1,6.1v4.6    C418.9,723.7,421.7,726.4,425.1,726.4z"
   id="path142" />
		<g
   id="g148">
			<circle
   class="st22"
   cx="601.2"
   cy="700.4"
   r="2.7"
   id="circle144" />
			<polygon
   class="st23"
   points="602.5,699.1 601.3,699.6 600.4,700.6 599.9,702.1 600.6,700.9 601.4,700    "
   id="polygon146" />
		</g>
		<g
   id="g154">
			<circle
   class="st22"
   cx="601.2"
   cy="736.3"
   r="2.7"
   id="circle150" />
			<polygon
   class="st23"
   points="602.5,735 601.3,735.5 600.4,736.4 599.9,738 600.6,736.7 601.4,735.8    "
   id="polygon152" />
		</g>
		<g
   id="g160">
			<circle
   class="st22"
   cx="433.4"
   cy="700.4"
   r="2.7"
   id="circle156" />
			<polygon
   class="st23"
   points="434.7,699.1 433.5,699.6 432.6,700.6 432.1,702.1 432.8,700.9 433.6,700    "
   id="polygon158" />
		</g>
		<g
   id="g166">
			<circle
   class="st22"
   cx="433.4"
   cy="736.3"
   r="2.7"
   id="circle162" />
			<polygon
   class="st23"
   points="434.7,735 433.5,735.5 432.6,736.4 432.1,738 432.8,736.7 433.6,735.8    "
   id="polygon164" />
		</g>
		<g
   id="g172">
			<circle
   class="st22"
   cx="518.2"
   cy="700.4"
   r="2.7"
   id="circle168" />
			<polygon
   class="st23"
   points="519.5,699.1 518.3,699.6 517.4,700.6 516.9,702.1 517.6,700.9 518.4,700    "
   id="polygon170" />
		</g>
		<g
   id="g178">
			<circle
   class="st22"
   cx="518.2"
   cy="736.3"
   r="2.7"
   id="circle174" />
			<polygon
   class="st23"
   points="519.5,735 518.3,735.5 517.4,736.4 516.9,738 517.6,736.7 518.4,735.8    "
   id="polygon176" />
		</g>
		<g
   id="g184">
			<circle
   class="st22"
   cx="623.1"
   cy="717.9"
   r="2.7"
   id="circle180" />
			<polygon
   class="st23"
   points="624.5,716.6 623.2,717.1 622.3,718 621.8,719.6 622.5,718.3 623.4,717.4    "
   id="polygon182" />
		</g>
		<rect
   x="632.6"
   y="712.7"
   class="st8"
   width="9.6"
   height="10.6"
   id="rect186" />
		<path
   class="st8"
   d="M642.8,722.3h-7.9c-0.5,0-0.8-0.4-0.8-0.8v-7c0-0.5,0.4-0.8,0.8-0.8h7.9c0.5,0,0.8,0.4,0.8,0.8v7    C643.7,721.9,643.3,722.3,642.8,722.3z"
   id="path188" />
		<rect
   x="636.7"
   y="714.7"
   class="st8"
   width="9.6"
   height="6.4"
   id="rect190" />
		<rect
   x="634.7"
   y="708.8"
   class="st24"
   width="8.1"
   height="1.7"
   id="rect192" />
		<rect
   x="638.2"
   y="710.5"
   class="st24"
   width="1.1"
   height="2.1"
   id="rect194" />
		<rect
   x="638.2"
   y="710.5"
   class="st3"
   width="1.1"
   height="0.5"
   id="rect196" />
	</g>
	<g
   id="g204">
		<circle
   class="st24"
   cx="630.7"
   cy="195"
   r="3.3"
   id="circle200" />
		<polygon
   class="st23"
   points="632.4,193.3 630.8,194 629.7,195.1 629.2,197.1 630,195.5 631,194.4   "
   id="polygon202" />
	</g>
	<g
   id="g210">
		<circle
   class="st24"
   cx="615.6"
   cy="195"
   r="3.3"
   id="circle206" />
		<polygon
   class="st23"
   points="617.3,193.3 615.7,194 614.6,195.1 614.1,197.1 614.9,195.5 615.9,194.4   "
   id="polygon208" />
	</g>
	<g
   id="g216">
		<circle
   class="st24"
   cx="599.4"
   cy="195"
   r="3.3"
   id="circle212" />
		<polygon
   class="st23"
   points="601.1,193.3 599.5,194 598.4,195.1 597.9,197.1 598.7,195.5 599.7,194.4   "
   id="polygon214" />
	</g>
	<rect
   x="640.8"
   y="191.7"
   class="st24"
   width="1.1"
   height="6.6"
   id="rect218" />
	<rect
   x="588.3"
   y="191.7"
   class="st24"
   width="1.1"
   height="6.6"
   id="rect220" />
	<g
   id="g226">
		<circle
   class="st24"
   cx="630.7"
   cy="156.2"
   r="3.3"
   id="circle222" />
		<polygon
   class="st23"
   points="632.4,154.6 630.8,155.2 629.7,156.3 629.2,158.3 630,156.7 631,155.6   "
   id="polygon224" />
	</g>
	<g
   id="g232">
		<circle
   class="st24"
   cx="615.6"
   cy="156.2"
   r="3.3"
   id="circle228" />
		<polygon
   class="st23"
   points="617.3,154.6 615.7,155.2 614.6,156.3 614.1,158.3 614.9,156.7 615.9,155.6   "
   id="polygon230" />
	</g>
	<g
   id="g238">
		<circle
   class="st24"
   cx="599.4"
   cy="156.2"
   r="3.3"
   id="circle234" />
		<polygon
   class="st23"
   points="601.1,154.6 599.5,155.2 598.4,156.3 597.9,158.3 598.7,156.7 599.7,155.6   "
   id="polygon236" />
	</g>
	<rect
   x="640.8"
   y="152.9"
   class="st24"
   width="1.1"
   height="6.6"
   id="rect240" />
	<rect
   x="588.3"
   y="152.9"
   class="st24"
   width="1.1"
   height="6.6"
   id="rect242" />
	<g
   id="g248">
		<circle
   class="st24"
   cx="641.1"
   cy="657"
   r="4.6"
   id="circle244" />
		<polygon
   class="st23"
   points="643.5,654.7 641.3,655.6 639.8,657.2 639,659.9 640.2,657.8 641.6,656.2   "
   id="polygon246" />
	</g>
	<g
   id="g254">
		<circle
   class="st24"
   cx="620"
   cy="657"
   r="4.6"
   id="circle250" />
		<polygon
   class="st23"
   points="622.3,654.7 620.2,655.6 618.6,657.2 617.8,659.9 619,657.8 620.4,656.2   "
   id="polygon252" />
	</g>
	<g
   id="g260">
		<circle
   class="st24"
   cx="597.2"
   cy="657"
   r="4.6"
   id="circle256" />
		<polygon
   class="st23"
   points="599.6,654.7 597.4,655.6 595.9,657.2 595.1,659.9 596.3,657.8 597.7,656.2   "
   id="polygon258" />
	</g>
	<rect
   x="655.3"
   y="652.4"
   class="st24"
   width="1.6"
   height="9.2"
   id="rect262" />
	
		<rect
   x="583.7"
   y="651.6"
   transform="matrix(0.895 0.446 -0.446 0.895 354.0664 -191.8185)"
   class="st24"
   width="1.6"
   height="9.2"
   id="rect264" />
	<circle
   class="st11"
   cx="586.9"
   cy="123.4"
   r="2"
   id="circle266" />
	<polyline
   class="st25"
   points="586.9,123.4 586.9,103.4 566.1,82.6 566.1,48.6  "
   id="polyline268" />
	<polyline
   class="st25"
   points="566.1,71.7 609.5,71.7 609.5,78.8 601.9,78.8 601.9,90.2  "
   id="polyline270" />
	<polygon
   class="st26"
   points="547.9,111.6 545.2,108.8 536.7,94.9 532.1,94.7 531.3,86 514.3,78 507.4,71.1 521.2,68.8 528.1,70.3    542,70.5 544.3,83.6 548.9,93.8 548,102.7 549.2,105 549.6,107.5  "
   id="polygon272" />
	<path
   class="st27"
   d="M510,73.7l4,0.9l5.9-0.2l1.4,2.2l4.4,1.2l2.8-1l1.9,2l3.4-0.2l0.4-1.2l0.6,1.6V81l1.8,1.3l2-0.5l-0.8,2   c0,0,1.2,0.7,1.2,0.8s-0.7,2.8-0.7,2.8s2.2,4.9,2.3,5c0.1,0.1,3.2,1,3.2,1.2c0,0.1-0.9,4.6-0.9,4.6s1.7,3.3,1.6,3.4   c-0.1,0.1-2.1,2.7-2.1,2.7l-5.7-9.3l-4.6-0.3l-0.7-8.7l-17-8L510,73.7z"
   id="path274" />
	<polygon
   class="st28"
   points="520.1,80.2 522.6,79.8 524.4,81 528.8,81.3 529.1,82.7 527.1,81.8 524.4,81.8 522.8,80.4  "
   id="polygon276" />
	<polygon
   class="st7"
   points="483.1,33.8 500.3,46.4 500.3,41.5 488.7,33.8  "
   id="polygon278" />
	<path
   class="st29"
   d="M462.1,85.2h11c1.1,0,1.9-0.9,1.9-1.9V59.4c0-1.1-0.9-1.9-1.9-1.9h-11c-1.1,0-1.9,0.9-1.9,1.9v23.9   C460.2,84.4,461,85.2,462.1,85.2z"
   id="path280" />
	<g
   id="g288">
		
			
		<g
   id="g286">
			<ellipse
   class="st30"
   cx="467.6"
   cy="74"
   rx="5.3"
   ry="10.8"
   id="ellipse284" />
		</g>
	</g>
	<polygon
   class="st31"
   points="481.1,58.4 478.8,61.9 456.7,61.9 454.8,59.8 454.8,56.2 481.1,56.2  "
   id="polygon290" />
	<polygon
   class="st31"
   points="457.6,84.8 459.4,82.1 476.2,82.1 477.6,83.6 477.6,86.4 457.6,86.4  "
   id="polygon292" />
	<polygon
   class="st31"
   points="457.6,55.9 459.4,53.2 476.2,53.2 477.6,54.8 477.6,57.5 457.6,57.5  "
   id="polygon294" />
	
		<rect
   x="466.8"
   y="60.3"
   transform="matrix(-1 -4.474611e-11 4.474611e-11 -1 935.2143 142.4832)"
   class="st31"
   width="1.7"
   height="21.9"
   id="rect296" />
	
		<rect
   x="472"
   y="60.3"
   transform="matrix(-1 -4.527901e-11 4.527901e-11 -1 945.6719 142.4832)"
   class="st31"
   width="1.7"
   height="21.9"
   id="rect298" />
	
		<rect
   x="461.4"
   y="60.3"
   transform="matrix(-1 -4.527901e-11 4.527901e-11 -1 924.5433 142.4832)"
   class="st31"
   width="1.7"
   height="21.9"
   id="rect300" />
	<polygon
   class="st31"
   points="475,60.1 476.6,61.5 476.6,80.2 475.8,82.2 476.4,82.8 477.6,80.8 477.6,61.4 475.5,59.5  "
   id="polygon302" />
	<polygon
   class="st31"
   points="460.8,60.1 459.2,61.5 459.2,80.2 460,82.2 459.4,82.8 458.2,80.8 458.2,61.4 460.3,59.5  "
   id="polygon304" />
	<path
   class="st6"
   d="M468.8,30.6h-0.7c-0.7,0-1.3-0.6-1.3-1.3v-2.6c0-0.7,0.6-1.3,1.3-1.3h0.7c0.7,0,1.3,0.6,1.3,1.3v2.6   C470.1,30,469.5,30.6,468.8,30.6z"
   id="path306" />
	<rect
   x="468.3"
   y="30.2"
   class="st6"
   width="0.4"
   height="3.4"
   id="rect308" />
	<path
   class="st32"
   d="M472,31.4l-0.8-0.3c-0.7-0.3-1.1-1.1-0.8-1.9l1.1-2.8c0.3-0.7,1.1-1.1,1.9-0.8l0.8,0.3   c0.7,0.3,1.1,1.1,0.8,1.9l-1.1,2.8C473.6,31.3,472.8,31.6,472,31.4z"
   id="path310" />
	
		<rect
   x="470.9"
   y="30.6"
   transform="matrix(0.9343 0.3565 -0.3565 0.9343 42.5652 -165.8127)"
   class="st32"
   width="0.5"
   height="3.9"
   id="rect312" />
	<path
   class="st32"
   d="M475.7,29.1l0.8-0.3c0.7-0.3,1.6,0,1.9,0.7l1.2,2.7c0.3,0.7,0,1.6-0.7,1.9l-0.8,0.3c-0.7,0.3-1.6,0-1.9-0.7   L475,31C474.6,30.3,475,29.4,475.7,29.1z"
   id="path314" />
	
		<rect
   x="475.2"
   y="25.7"
   transform="matrix(-0.9127 0.4086 -0.4086 -0.9127 920.731 -141.4054)"
   class="st32"
   width="0.5"
   height="3.9"
   id="rect316" />
	<path
   class="st6"
   d="M468.8,38.4h-0.7c-0.7,0-1.3-0.6-1.3-1.3v-2.6c0-0.7,0.6-1.3,1.3-1.3h0.7c0.7,0,1.3,0.6,1.3,1.3v2.6   C470.1,37.8,469.5,38.4,468.8,38.4z"
   id="path318" />
	<rect
   x="468.3"
   y="38"
   class="st6"
   width="0.4"
   height="3.4"
   id="rect320" />
	<path
   class="st6"
   d="M468.8,46.2h-0.7c-0.7,0-1.3-0.6-1.3-1.3v-2.6c0-0.7,0.6-1.3,1.3-1.3h0.7c0.7,0,1.3,0.6,1.3,1.3v2.6   C470.1,45.6,469.5,46.2,468.8,46.2z"
   id="path322" />
	<g
   id="g330">
		<rect
   x="577.1"
   y="2.6"
   class="st33"
   width="2.2"
   height="13.9"
   id="rect324" />
		<polygon
   class="st33"
   points="590.4,16.4 586.1,16.4 586.1,2.6 586.8,2.6   "
   id="polygon326" />
		<path
   class="st34"
   d="M577.1,2.6L573,16.4h4.1C577.1,16.2,577.1,2.6,577.1,2.6z"
   id="path328" />
	</g>
	<g
   id="g336">
		<rect
   x="557.3"
   y="2.8"
   class="st33"
   width="2.2"
   height="13.9"
   id="rect332" />
		<path
   class="st34"
   d="M557.3,2.8l-4.1,13.9h4.1C557.3,16.4,557.3,2.8,557.3,2.8z"
   id="path334" />
	</g>
	<g
   id="g342">
		<rect
   x="541.3"
   y="2.9"
   class="st33"
   width="2.2"
   height="13.9"
   id="rect338" />
		<path
   class="st34"
   d="M541.3,2.9l-4.1,13.9h4.1C541.3,16.5,541.3,2.9,541.3,2.9z"
   id="path340" />
	</g>
	<g
   id="g348">
		<rect
   x="522"
   y="3.1"
   class="st33"
   width="2.2"
   height="13.9"
   id="rect344" />
		<path
   class="st34"
   d="M522,3.1L517.9,17L522,17C522,16.8,522,3.1,522,3.1z"
   id="path346" />
	</g>
	<path
   class="st3"
   d="M68.9,560.2h9.7c0,0,11.5-13.7,11.5-14.4s0-11.8,0-11.8l5.2,20.4l-4.7,7.9l-14.5,12l-7.2-3.7V560.2z"
   id="path350" />
	<g
   id="g400">
		<polygon
   class="st3"
   points="77.3,678.3 83.8,664.8 83.8,654.3 66.2,644.3 56.3,644.3 57.9,667 64.1,683.4   "
   id="polygon352" />
		<polygon
   class="st3"
   points="98.2,609.2 36.4,609.2 0,647.9 9.3,717.4 26.7,727.7 73.7,729.6 113.6,706.8 122.3,688.1     122.3,632.1   "
   id="polygon354" />
		<polygon
   class="st1"
   points="49.2,631.6 42.5,636.1 32.4,641.2 24.3,648.4 19.2,652.6 19.4,659.1 20.1,671.1 23.9,688.3     25.3,704.3 63.5,706.3 98.7,672.1   "
   id="polygon356" />
		<polygon
   class="st4"
   points="98.2,609.2 49.2,631.6 61.7,643.5 85.7,661.5 94.4,670.4 98.7,672.1 122.3,632.1   "
   id="polygon358" />
		<polygon
   class="st2"
   points="36.4,609.2 49.2,631.6 98.2,609.2   "
   id="polygon360" />
		<polygon
   class="st0"
   points="73.7,729.6 63.5,706.3 68.5,698.3 81.3,689 90.1,680.5 96.7,673.1 98.7,672.1 122.3,688.1     114.6,706.3   "
   id="polygon362" />
		<polygon
   class="st0"
   points="25.3,704.3 9.2,716.6 24.5,726.4 73.7,729.6 63.5,706.3   "
   id="polygon364" />
		<path
   class="st2"
   d="M73.7,689.1"
   id="path366" />
		<polygon
   class="st35"
   points="134.3,681.7 105.3,679.8 85.1,687.1 78.8,698.3 80.9,715.1 85.7,722.8 90.5,720.1 120.6,724.2     142.9,719.8 147,712.6 147,690.6   "
   id="polygon368" />
		<path
   class="st2"
   d="M120.3,714.3"
   id="path370" />
		<g
   id="g384">
			<polygon
   class="st3"
   points="137.8,679.8 105.3,679.8 86.5,689 82.4,696.5 84.5,713.3 91.1,722.3 100.2,726.4 124.9,727.1      146,718.2 150.5,710.8 150.5,688.8    "
   id="polygon372" />
			<polygon
   class="st1"
   points="109.8,684.6 104,685.8 99.2,688.8 94.9,691.6 93.2,697.9 94,701.3 95.3,707.2 94.5,713 99.5,717.2      119.6,718 138.1,704.5    "
   id="polygon374" />
			<polygon
   class="st36"
   points="137.8,679.8 109.8,684.6 119.9,691.9 131.3,700.4 135.8,703.9 138.1,704.5 150.5,688.8    "
   id="polygon376" />
			<polygon
   class="st2"
   points="105.3,679.8 109.8,684.6 137.8,679.8    "
   id="polygon378" />
			<polygon
   class="st0"
   points="124.9,727.1 119.6,718 122.2,714.8 129,711.2 133.6,707.8 137,704.9 138.1,704.5 150.5,710.8      146.5,718    "
   id="polygon380" />
			<polygon
   class="st3"
   points="99.5,717.2 91,722 99.1,725.9 124.9,727.1 119.6,718    "
   id="polygon382" />
		</g>
		<polygon
   class="st1"
   points="128.3,727 142.3,707.1 152.9,703.5 164.7,713.1 168.2,727   "
   id="polygon386" />
		<polygon
   class="st2"
   points="159,704.9 155.3,712 144.2,713.1 142.3,707.1 152.9,703.5   "
   id="polygon388" />
		<polygon
   class="st0"
   points="155.3,712 155.9,727 168.2,727 164.7,713.1 159,704.9   "
   id="polygon390" />
		<polygon
   class="st1"
   points="137.3,727.1 165.3,719.1 190.6,715.8 210,721.5 217,727.1   "
   id="polygon392" />
		<polygon
   class="st2"
   points="198.6,718.2 191.2,721 169.1,721.5 165.3,719.1 190.3,715.9   "
   id="polygon394" />
		<polygon
   class="st0"
   points="191.2,721 192.6,727.1 217,727.1 210,721.5 198.6,718.2   "
   id="polygon396" />
		<path
   class="st35"
   d="M150.6,704.3L150.6,704.3l-9.1,2c0,0-16.2,20.5-16.1,20.7c0.1,0.2,2.9,0,2.9,0s13.4-18.8,13.5-19    C142,707.9,150.6,704.3,150.6,704.3z"
   id="path398" />
	</g>
	<polygon
   class="st2"
   points="50.7,309.3 44.2,204.5 57.8,194.7  "
   id="polygon402" />
	<rect
   x="600"
   y="383.2"
   class="st8"
   width="35.2"
   height="14.7"
   id="rect404" />
	<path
   class="st3"
   d="M145.2,240.2"
   id="path406" />
</g>








</svg>
