<?xml version="1.0" encoding="UTF-8" standalone="no"?>
<!-- Generator: Adobe Illustrator 26.1.0, SVG Export Plug-In . SVG Version: 6.00 Build 0)  -->

<svg
   version="1.1"
   id="Layer_1"
   x="0px"
   y="0px"
   viewBox="0 0 1155.5498 297.87751"
   xml:space="preserve"
   sodipodi:docname="leaderboard_podium_v2.svg"
   width="1155.5498"
   height="297.8775"
   inkscape:version="1.1 (c68e22c387, 2021-05-23)"
   xmlns:inkscape="http://www.inkscape.org/namespaces/inkscape"
   xmlns:sodipodi="http://sodipodi.sourceforge.net/DTD/sodipodi-0.dtd"
   xmlns="http://www.w3.org/2000/svg"
   xmlns:svg="http://www.w3.org/2000/svg"><defs
   id="defs291" /><sodipodi:namedview
   id="namedview289"
   pagecolor="#ffffff"
   bordercolor="#666666"
   borderopacity="1.0"
   inkscape:pageshadow="2"
   inkscape:pageopacity="0.0"
   inkscape:pagecheckerboard="0"
   showgrid="false"
   inkscape:zoom="0.87308133"
   inkscape:cx="581.84728"
   inkscape:cy="154.05209"
   inkscape:window-width="1842"
   inkscape:window-height="1057"
   inkscape:window-x="-8"
   inkscape:window-y="-8"
   inkscape:window-maximized="1"
   inkscape:current-layer="Layer_1" />
<style
   type="text/css"
   id="style2">
	.st0{fill:#C6C1B3;}
	.st1{fill:#B2B1AF;}
	.st2{fill:#FFFFFF;}
	.st3{fill:#A39F93;}
	.st4{fill:#BCA173;}
	.st5{fill:#7C532E;}
	.st6{fill:#B2A184;}
	.st7{fill:#E8B72E;}
	.st8{fill:#E59D0E;}
	.st9{fill:#FFE9A1;}
	.st10{fill:#828282;}
	.st11{fill:#CECECE;}
	.st12{fill:#4F4F4F;}
	.st13{fill:none;}
	.st14{font-family:'Rocks__G';}
	.st15{font-size:30px;}
	.st16{font-size:25px;}
	.st17{font-size:20px;}
	.st18{font-size:15px;}
	.st19{font-size:21px;}
	.st20{fill:#636363;}
	.st21{opacity:0.25;enable-background:new    ;}
	.st22{fill:#705E51;stroke:#5B5B5B;stroke-width:0.9908;stroke-miterlimit:10;}
	.st23{fill:#727272;}
	.st24{fill:#939393;}
	.st25{fill:#6B3F34;}
	.st26{fill:#603E26;}
	.st27{fill:#705E51;stroke:#5B5B5B;stroke-width:1.361;stroke-miterlimit:10;}
	.st28{fill:#775742;}
	.st29{opacity:0.46;fill:#33302D;}
	.st30{fill:#54463C;}
	.st31{fill:#AFAFAF;}
	.st32{fill:none;stroke:#54463C;stroke-miterlimit:10;}
</style>
<g
   id="g10"
   transform="translate(-23.850202,-22.3)">
	<polygon
   class="st0"
   points="135.7,109.8 136.3,141.9 143.4,141.8 158.2,142 163.2,132.1 153.5,104.6 152.8,104.1 140.9,100 "
   id="polygon4" />
	<polygon
   class="st1"
   points="153.2,104.2 169.6,131.3 158.2,142 140.9,100 "
   id="polygon6" />
	<polyline
   class="st2"
   points="140.9,100 141,111.1 143.4,141.8 136.3,141.9 135.7,109.8  "
   id="polyline8" />
</g>
<g
   id="g18"
   transform="translate(-23.850202,-22.3)">
	<polygon
   class="st3"
   points="162.5,117.6 153.7,137.7 158.1,139.7 167.3,144.1 173.3,139.4 175.1,119.5 174.8,119 168.6,113 "
   id="polygon12" />
	<polygon
   class="st1"
   points="175,119.1 177.4,140.7 167.3,144.1 168.6,113 "
   id="polygon14" />
	<polyline
   class="st2"
   points="168.6,113 165.4,119.9 158.1,139.7 153.7,137.7 162.5,117.6  "
   id="polyline16" />
</g>
<g
   id="g26"
   transform="translate(-23.850202,-22.3)">
	<polygon
   class="st4"
   points="888.3,156.5 888.9,188.5 896,188.5 910.8,188.6 915.8,178.7 906.1,151.3 905.4,150.8 893.5,146.6 "
   id="polygon20" />
	<polygon
   class="st5"
   points="905.8,150.8 922.1,178 910.8,188.6 893.5,146.6 "
   id="polygon22" />
	<polyline
   class="st6"
   points="893.5,146.6 893.6,157.8 896,188.5 888.9,188.5 888.3,156.5  "
   id="polyline24" />
</g>
<g
   id="g34"
   transform="translate(-23.850202,-22.3)">
	<polygon
   class="st4"
   points="1080,158.8 1068.8,177.7 1072.9,180.3 1081.5,185.7 1088,181.7 1092.2,162.2 1092,161.7 1086.6,155 "
   id="polygon28" />
	<polygon
   class="st5"
   points="1092.2,161.8 1092,183.6 1081.5,185.7 1086.6,155 "
   id="polygon30" />
	<polyline
   class="st6"
   points="1086.6,155 1082.6,161.5 1072.9,180.3 1068.8,177.7 1080,158.8  "
   id="polyline32" />
</g>
<g
   id="g42"
   transform="translate(-23.850202,-22.3)">
	<polygon
   class="st3"
   points="414.3,119.4 404.4,139 408.8,141.2 417.7,146 423.9,141.6 426.8,121.9 426.5,121.4 420.6,115.1 "
   id="polygon36" />
	<polygon
   class="st1"
   points="426.7,121.5 428,143.2 417.7,146 420.6,115.1 "
   id="polygon38" />
	<polyline
   class="st2"
   points="420.6,115.1 417.1,121.8 408.8,141.2 404.4,139 414.3,119.4  "
   id="polyline40" />
</g>
<g
   id="g50"
   transform="translate(-23.850202,-22.3)">
	<polygon
   class="st7"
   points="800.7,51.6 787.1,74.8 792.3,77.8 802.8,84.3 810.7,79.4 815.7,55.6 815.4,54.9 808.7,46.8 "
   id="polygon44" />
	<polygon
   class="st8"
   points="815.6,55.1 815.6,81.6 802.8,84.3 808.7,46.8 "
   id="polygon46" />
	<polyline
   class="st9"
   points="808.7,46.8 803.9,54.8 792.3,77.8 787.1,74.8 800.7,51.6  "
   id="polyline48" />
</g>
<g
   id="g58"
   transform="translate(-23.850202,-22.3)">
	<polygon
   class="st7"
   points="828.3,143.9 818.8,130.5 815.8,137.5 809.3,156.6 816.7,175 825.7,177.5 826.5,177 835.6,158 "
   id="polygon52" />
	<polygon
   class="st8"
   points="826.3,177.3 814.7,181.5 809.3,156.6 835.6,158 "
   id="polygon54" />
	<polyline
   class="st9"
   points="835.6,158 824.8,148.5 815.8,137.5 818.8,130.5 828.3,143.9  "
   id="polyline56" />
</g>
<g
   id="g66"
   transform="translate(-23.850202,-22.3)">
	<polygon
   class="st7"
   points="500.7,37.5 501.6,87 512.6,86.9 535.4,87 543.2,71.8 528.3,29.4 527.2,28.7 508.8,22.3 "
   id="polygon60" />
	<polygon
   class="st8"
   points="527.8,28.7 553,70.6 535.4,87 508.8,22.3 "
   id="polygon62" />
	<polyline
   class="st9"
   points="508.8,22.3 508.9,39.5 512.6,86.9 501.6,87 500.7,37.5  "
   id="polyline64" />
</g>
<g
   id="g74"
   transform="translate(-23.850202,-22.3)">
	<polygon
   class="st7"
   points="544.4,47.2 526.9,76.2 533.3,80.1 546.5,88.5 556.6,82.5 563.3,52.5 563,51.7 554.6,41.3 "
   id="polygon68" />
	<polygon
   class="st8"
   points="563.3,51.9 562.7,85.4 546.5,88.5 554.6,41.3 "
   id="polygon70" />
	<polyline
   class="st9"
   points="554.6,41.3 548.5,51.3 533.3,80.1 526.9,76.2 544.4,47.2  "
   id="polyline72" />
</g>
<polygon
   class="st10"
   points="1154.4,219.2 1110.4,222.7 1102.2,209.1 1102.2,203.4 1104.8,183.4 1099.4,170.8 1054.1,174.7 958.7,183.4 894.7,175 867.7,195.2 867.5,224.3 866.8,238.8 812.2,157.9 831.8,87.2 823.7,68.4 770.6,73.6 767.4,76.4 748.5,77.6 746.5,75.1 742.2,74.6 614.7,78.1 519.7,65.5 487,114.1 499.4,176 476.4,232.8 464.5,232.8 464.5,143.9 435.1,136.1 389.2,130.9 247.6,143.9 152.5,131.3 119.8,170.8 116.5,230.3 72.9,219.7 51.6,243.4 60,295.7 434,309.2 1074.5,296.9 1179.4,269.9 "
   id="polygon76"
   transform="translate(-23.850202,-22.3)" />
<polygon
   class="st11"
   points="486.9,114.1 519.5,65.6 488.9,74.7 "
   id="polygon78"
   transform="translate(-23.850202,-22.3)" />
<path
   class="st12"
   d="m 629.9498,146.5 -15.6,-0.5 -1.5,-12.5 9.9,-2.4 1.6,-35 -11,3.9 -3.4,-18 20.5,-10.5 9.6,12.8 -2.6,47 6.8,1 2.4,10.7 z"
   id="path80" />
<path
   class="st12"
   d="m 129.2498,217.4 1.7,-22.1 17.7,-7.3 2.5,-8.1 -6.8,-3.8 -7.3,6.7 -8.6,-8.7 6.1,-13.4 22.7,-1.6 7.2,16.8 -3.8,17.8 -17.2,7.7 2.9,5.8 15.8,-2.6 -0.4,12.6 z"
   id="path82" />
<path
   class="st12"
   d="m 884.8498,217.4 -9.5,-3.7 2.9,-8.2 7.5,3.4 4.9,-2.4 -5.9,-6.5 5.1,-7.9 -4.5,-2.6 -3.9,5.3 -6.4,-4.5 3.8,-11.8 15,-1.6 4.9,13.8 -5.9,7.3 6.1,4.5 -2.6,12.2 z"
   id="path84" />
<rect
   x="545.74976"
   y="164.89999"
   class="st13"
   width="273.10001"
   height="47.099998"
   id="rect86" />

<rect
   x="178.04979"
   y="177.39999"
   class="st13"
   width="273.10001"
   height="47.099998"
   id="rect90" />

<g
   id="g98"
   transform="translate(-23.850202,-22.3)">
	<rect
   x="201.89999"
   y="223.3"
   class="st13"
   width="273.10001"
   height="47.099998"
   id="rect94" />
	
</g>




<polyline
   class="st11"
   points="125.5,165.5 121.9,231.6 116.3,230.4 119.6,170.8 123.7,137.7 152.3,131.3 "
   id="polyline124"
   transform="translate(-23.850202,-22.3)" />
<polygon
   class="st20"
   points="476.2,232.8 499.2,176 489.9,175.1 "
   id="polygon126"
   transform="translate(-23.850202,-22.3)" />
<polygon
   class="st12"
   points="499.2,176 486.9,114.1 489.9,175.1 "
   id="polygon128"
   transform="translate(-23.850202,-22.3)" />
<polygon
   class="st11"
   points="1099.2,170.8 958.5,183.5 894.5,175 968.3,178.9 "
   id="polygon130"
   transform="translate(-23.850202,-22.3)" />
<path
   class="st20"
   d="m 842.7498,216.6 4.6,-6.1 4.6,-34.5 18.7,-23.3 c 0,0 -27,19.6 -27,20.2 0,0.7 -0.9,43.7 -0.9,43.7 z"
   id="path132" />
<g
   id="g136"
   transform="translate(-23.850202,-22.3)">
	<path
   class="st21"
   d="m 681.8,57.1 v -2.5 h 2.5 v -2.5 h -2.5"
   id="path134" />
</g>
<path
   class="st8"
   d="m 743.3498,54.2 -10.1,0.9 -8.7,0.3 1.6,7.3 -5.1,11.2 -2,24.6 -7.9,6.5 11.7,-5.2 c 0,0 1.2,-20.2 1.4,-20.8 0.1,-0.7 10.8,-12.5 11.1,-12.7 0.3,-0.2 8,-12.1 8,-12.1 z"
   id="path138" />
<polygon
   class="st20"
   points="60,295.7 436.8,309.2 422.3,294.7 "
   id="polygon140"
   transform="translate(-23.850202,-22.3)" />
<path
   class="st12"
   d="m 1050.6498,274.6 -52.6,-13.4 c 0,0 -67.3,15.7 -65.2,15.7 2.1,0 117.8,-2.3 117.8,-2.3 z"
   id="path142" />
<polygon
   class="st0"
   points="394.2,160 406.3,184.2 431.6,196.2 411.1,181.9 399.6,158.5 385.2,149.4 375.2,132.1 366.7,132.9 364.6,148 "
   id="polygon144"
   transform="translate(-23.850202,-22.3)" />
<path
   class="st22"
   d="M 0.64979799,252 46.949798,209.4 c 0,0 29.5,30.5 31,30.5 0.5,0 126.300002,2 126.300002,1 l 64.7,17.5 143.4,0.7 V 294 h -251.2 -132.000002 z"
   id="path146" />
<g
   id="g152"
   transform="translate(-23.850202,-22.3)">
	<circle
   class="st23"
   cx="63.700001"
   cy="306.29999"
   r="5.9000001"
   id="circle148" />
	<polygon
   class="st24"
   points="62,306.5 60.9,310 62.4,307.2 64.3,305.2 66.7,303.3 63.9,304.4 "
   id="polygon150" />
</g>
<g
   id="g158"
   transform="translate(-23.850202,-22.3)">
	<circle
   class="st23"
   cx="420.39999"
   cy="306.29999"
   r="5.9000001"
   id="circle154" />
	<polygon
   class="st24"
   points="418.6,306.5 417.6,310 419.1,307.2 420.9,305.2 423.4,303.3 420.6,304.4 "
   id="polygon156" />
</g>
<g
   id="g164"
   transform="translate(-23.850202,-22.3)">
	<circle
   class="st23"
   cx="242"
   cy="306.29999"
   r="5.9000001"
   id="circle160" />
	<polygon
   class="st24"
   points="240.3,306.5 239.3,310 240.8,307.2 242.6,305.2 245.1,303.3 242.3,304.4 "
   id="polygon162" />
</g>
<g
   id="g170"
   transform="translate(-23.850202,-22.3)">
	<circle
   class="st23"
   cx="336.89999"
   cy="306.29999"
   r="5.9000001"
   id="circle166" />
	<polygon
   class="st24"
   points="335.2,306.5 334.1,310 335.6,307.2 337.5,305.2 339.9,303.3 337.1,304.4 "
   id="polygon168" />
</g>
<g
   id="g176"
   transform="translate(-23.850202,-22.3)">
	<circle
   class="st23"
   cx="149.3"
   cy="306.29999"
   r="5.9000001"
   id="circle172" />
	<polygon
   class="st24"
   points="147.6,306.5 146.6,310 148.1,307.2 149.9,305.2 152.3,303.3 149.6,304.4 "
   id="polygon174" />
</g>
<rect
   x="294.22781"
   y="-132.0144"
   transform="rotate(90)"
   class="st23"
   width="3.5999999"
   height="13.1"
   id="rect178" />
<rect
   x="294.25641"
   y="-46.385712"
   transform="rotate(90)"
   class="st23"
   width="3.5999999"
   height="13.1"
   id="rect180" />
<rect
   x="294.2489"
   y="-320.0932"
   transform="rotate(90)"
   class="st23"
   width="3.5999999"
   height="13.1"
   id="rect182" />
<rect
   x="294.194"
   y="-403.0481"
   transform="rotate(90)"
   class="st23"
   width="3.5999999"
   height="13.1"
   id="rect184" />
<rect
   x="294.2775"
   y="-225.36461"
   transform="rotate(90)"
   class="st23"
   width="3.5999999"
   height="13.1"
   id="rect186" />
<polygon
   class="st25"
   points="95.7,269.9 91.7,272.3 86.2,265.6 67.7,268.7 58.1,267 68,257.3 74.6,254.5 86.1,246.8 95.5,256.3 105.1,261.9 114.4,262.3 119.7,266.7 118,271.4 117,278 110.6,276.4 "
   id="polygon188"
   transform="translate(-23.850202,-22.3)" />
<path
   class="st26"
   d="m 37.849798,245.3 3.8,-1.5 4.8,-3.6 2.4,1 4.3,-1.5 1.8,-2.4 2.7,0.6 2.7,-2.1 -0.3,-1.2 1.4,1 1,1.5 h 2.3 l 1.4,-1.5 0.5,2.1 c 0,0 1.4,-0.1 1.4,0 0,0.1 1.1,2.7 1.1,2.7 0,0 4.6,2.7 4.7,2.8 0.1,0.1 3.2,-1 3.3,-0.9 0.1,0.1 1.8,4.3 1.8,4.3 0,0 3.3,1.8 3.2,1.9 -0.1,0.1 -0.1,3.4 -0.1,3.4 l -10,-4.4 -4,2.4 -5.5,-6.7 -18.5,3.1 z"
   id="path190" />
<rect
   x="292.4498"
   y="233.39999"
   class="st27"
   width="104.9"
   height="24.700001"
   id="rect192" />
<g
   id="g202"
   transform="translate(-23.850202,-22.3)">
	<rect
   x="409.39999"
   y="262.29999"
   class="st28"
   width="3"
   height="19.200001"
   id="rect194" />
	<polygon
   class="st28"
   points="421.7,261.6 422.7,261.6 427.7,280.8 421.7,280.8 "
   id="polygon196" />
	<polygon
   class="st28"
   points="315.6,261 314.7,261 309.7,280.2 315.6,280.2 "
   id="polygon198" />
	<path
   class="st29"
   d="m 409.4,262.3 -5.7,19.2 h 5.7 c 0,-0.2 0,-19.2 0,-19.2 z"
   id="path200" />
</g>
<g
   id="g208"
   transform="translate(-23.850202,-22.3)">
	<rect
   x="382"
   y="262.20001"
   class="st28"
   width="3"
   height="19.200001"
   id="rect204" />
	<path
   class="st29"
   d="m 382,262.2 -5.7,19.2 h 5.7 c 0,-0.2 0,-19.2 0,-19.2 z"
   id="path206" />
</g>
<g
   id="g214"
   transform="translate(-23.850202,-22.3)">
	<rect
   x="359.70001"
   y="262"
   class="st28"
   width="3"
   height="19.200001"
   id="rect210" />
	<path
   class="st29"
   d="m 359.7,262 -5.7,19.2 h 5.7 c 0,-0.2 0,-19.2 0,-19.2 z"
   id="path212" />
</g>
<g
   id="g220"
   transform="translate(-23.850202,-22.3)">
	<rect
   x="332.89999"
   y="261.79999"
   class="st28"
   width="3"
   height="19.200001"
   id="rect216" />
	<path
   class="st29"
   d="m 332.9,261.8 -5.7,19.3 5.7,-0.1 c 0,-0.2 0,-19.2 0,-19.2 z"
   id="path218" />
</g>
<g
   id="g246"
   transform="translate(-23.850202,-22.3)">
	<rect
   x="135.5"
   y="272.60001"
   class="st30"
   width="39"
   height="0.80000001"
   id="rect222" />
	<rect
   x="135.5"
   y="284.10001"
   class="st30"
   width="39"
   height="0.89999998"
   id="rect224" />
	<rect
   x="135.5"
   y="273.20001"
   class="st30"
   width="1"
   height="11.3"
   id="rect226" />
	<rect
   x="173.5"
   y="273"
   class="st30"
   width="1"
   height="11.6"
   id="rect228" />
	<g
   id="g244">
		<rect
   x="138"
   y="273.89999"
   class="st31"
   width="34.099998"
   height="0.69999999"
   id="rect230" />
		<rect
   x="138"
   y="275.39999"
   class="st31"
   width="34.099998"
   height="0.69999999"
   id="rect232" />
		<rect
   x="138"
   y="276.89999"
   class="st31"
   width="34.099998"
   height="0.69999999"
   id="rect234" />
		<rect
   x="138"
   y="278.39999"
   class="st31"
   width="34.099998"
   height="0.69999999"
   id="rect236" />
		<rect
   x="138"
   y="279.89999"
   class="st31"
   width="34.099998"
   height="0.69999999"
   id="rect238" />
		<rect
   x="138"
   y="281.39999"
   class="st31"
   width="34.099998"
   height="0.69999999"
   id="rect240" />
		<rect
   x="138"
   y="282.79999"
   class="st31"
   width="34.099998"
   height="0.69999999"
   id="rect242" />
	</g>
</g>
<g
   id="g272"
   transform="translate(-23.850202,-22.3)">
	<rect
   x="183.3"
   y="272.60001"
   class="st30"
   width="39"
   height="0.80000001"
   id="rect248" />
	<rect
   x="183.3"
   y="284.10001"
   class="st30"
   width="39"
   height="0.89999998"
   id="rect250" />
	<rect
   x="183.3"
   y="273.20001"
   class="st30"
   width="1"
   height="11.3"
   id="rect252" />
	<rect
   x="221.3"
   y="273"
   class="st30"
   width="1"
   height="11.6"
   id="rect254" />
	<g
   id="g270">
		<rect
   x="185.7"
   y="273.89999"
   class="st31"
   width="34.099998"
   height="0.69999999"
   id="rect256" />
		<rect
   x="185.7"
   y="275.39999"
   class="st31"
   width="34.099998"
   height="0.69999999"
   id="rect258" />
		<rect
   x="185.7"
   y="276.89999"
   class="st31"
   width="34.099998"
   height="0.69999999"
   id="rect260" />
		<rect
   x="185.7"
   y="278.39999"
   class="st31"
   width="34.099998"
   height="0.69999999"
   id="rect262" />
		<rect
   x="185.7"
   y="279.89999"
   class="st31"
   width="34.099998"
   height="0.69999999"
   id="rect264" />
		<rect
   x="185.7"
   y="281.39999"
   class="st31"
   width="34.099998"
   height="0.69999999"
   id="rect266" />
		<rect
   x="185.7"
   y="282.79999"
   class="st31"
   width="34.099998"
   height="0.69999999"
   id="rect268" />
	</g>
</g>
<polyline
   class="st32"
   points="57.6,279.5 72.7,291.4 124.1,291.4 129,296.3 239.3,296.3 254.3,281.2 271.4,281.2 "
   id="polyline274"
   transform="translate(-23.850202,-22.3)" />
<circle
   class="st30"
   cx="33.249798"
   cy="256.5"
   r="1.4"
   id="circle276" />
<circle
   class="st30"
   cx="152.9498"
   cy="282.40002"
   r="1.4"
   id="circle278" />
<circle
   class="st30"
   cx="247.84981"
   cy="259.10001"
   r="1.4"
   id="circle280" />
<polyline
   class="st32"
   points="177.8,304.7 196.3,304.7 204.8,296.3 "
   id="polyline282"
   transform="translate(-23.850202,-22.3)" />
<polyline
   class="st32"
   points="191.3,273 187.2,268.1 171.7,268.1 166.9,273 "
   id="polyline284"
   transform="translate(-23.850202,-22.3)" />
<line
   class="st32"
   x1="155.2498"
   y1="245.8"
   x2="155.2498"
   y2="273.70001"
   id="line286" />
</svg>
