<?xml version="1.0" encoding="UTF-8" standalone="no"?>
<!-- Generator: Adobe Illustrator 26.2.0, SVG Export Plug-In . SVG Version: 6.00 Build 0)  -->

<svg
   version="1.1"
   id="Layer_1"
   x="0px"
   y="0px"
   viewBox="0 0 825.29999 871.00002"
   xml:space="preserve"
   sodipodi:docname="leaderboard_podium.svg"
   width="825.29999"
   height="871"
   inkscape:version="1.1 (c68e22c387, 2021-05-23)"
   xmlns:inkscape="http://www.inkscape.org/namespaces/inkscape"
   xmlns:sodipodi="http://sodipodi.sourceforge.net/DTD/sodipodi-0.dtd"
   xmlns:xlink="http://www.w3.org/1999/xlink"
   xmlns="http://www.w3.org/2000/svg"
   xmlns:svg="http://www.w3.org/2000/svg"><defs
   id="defs384" /><sodipodi:namedview
   id="namedview382"
   pagecolor="#ffffff"
   bordercolor="#666666"
   borderopacity="1.0"
   inkscape:pageshadow="2"
   inkscape:pageopacity="0.0"
   inkscape:pagecheckerboard="0"
   showgrid="false"
   inkscape:zoom="0.99736934"
   inkscape:cx="468.23176"
   inkscape:cy="297.28205"
   inkscape:window-width="1842"
   inkscape:window-height="1057"
   inkscape:window-x="-8"
   inkscape:window-y="-8"
   inkscape:window-maximized="1"
   inkscape:current-layer="Layer_1" />
<style
   type="text/css"
   id="style2">
	.st0{fill:#C6C1B3;}
	.st1{fill:#B2B1AF;}
	.st2{fill:#FFFFFF;}
	.st3{fill:#A39F93;}
	.st4{fill:#BCA173;}
	.st5{fill:#7C532E;}
	.st6{fill:#B2A184;}
	.st7{fill:#E8B72E;}
	.st8{fill:#E59D0E;}
	.st9{fill:#FFE9A1;}
	.st10{fill:#828282;}
	.st11{fill:#CECECE;}
	.st12{fill:none;}
	.st13{fill:#636363;}
	.st14{fill:#4F4F4F;}
	.st15{opacity:0.26;fill:#FFFFFF;enable-background:new    ;}
	.st16{fill:#9E9E9E;}
	.st17{opacity:0.15;fill:#FFFFFF;enable-background:new    ;}
	.st18{fill:#333333;}
	.st19{opacity:0.53;fill:#CECECE;enable-background:new    ;}
	.st20{fill:#DBDBDB;}
	.st21{opacity:0.22;fill:url(#SVGID_1_);}
	.st22{opacity:0.22;fill:url(#SVGID_00000117673459940636324020000002915445882014076073_);}
	.st23{opacity:0.28;fill:url(#SVGID_00000171694094123258731040000015540984480235654831_);}
	.st24{opacity:0.25;}
	.st25{opacity:0.26;fill:#FFFFFF;}
	.st26{opacity:0.15;fill:#FFFFFF;}
</style>

<linearGradient
   id="SVGID_1_"
   gradientUnits="userSpaceOnUse"
   x1="423.92459"
   y1="123.6209"
   x2="434.69049"
   y2="479.55249">
	<stop
   offset="3.723485e-03"
   style="stop-color:#FFFFFF;stop-opacity:0"
   id="stop168" />
	<stop
   offset="0.4005"
   style="stop-color:#FFEFBA;stop-opacity:0.7404"
   id="stop170" />
	<stop
   offset="0.5396"
   style="stop-color:#FFE9A1"
   id="stop172" />
</linearGradient>
<polygon
   class="st21"
   points="195.3,3.3 645.2,3.3 490.6,553.2 360.4,553.2 "
   id="polygon175"
   style="fill:url(#SVGID_1_)"
   transform="translate(5.9,-3.3)" />
<linearGradient
   id="SVGID_00000081643156274173412680000016575443327356855964_"
   gradientUnits="userSpaceOnUse"
   x1="164.3089"
   y1="271.84549"
   x2="175.03011"
   y2="626.30109">
	<stop
   offset="3.723485e-03"
   style="stop-color:#FFFFFF;stop-opacity:0"
   id="stop177" />
	<stop
   offset="0.2339"
   style="stop-color:#BABABA;stop-opacity:0.5539"
   id="stop179" />
	<stop
   offset="0.4192"
   style="stop-color:#808080"
   id="stop181" />
</linearGradient>
<polygon
   style="opacity:0.22;fill:url(#SVGID_00000081643156274173412680000016575443327356855964_)"
   points="-5.9,150.3 327.2,150.3 212.7,700.2 116.3,700.2 "
   id="polygon184"
   transform="translate(5.9,-3.3)" />
<linearGradient
   id="SVGID_00000098202884565938082360000011368804175412617393_"
   gradientUnits="userSpaceOnUse"
   x1="652.03259"
   y1="205.9101"
   x2="662.75378"
   y2="560.36572">
	<stop
   offset="3.723485e-03"
   style="stop-color:#FFFFFF;stop-opacity:0"
   id="stop186" />
	<stop
   offset="0.2164"
   style="stop-color:#D0C4B9;stop-opacity:0.3091"
   id="stop188" />
	<stop
   offset="0.6917"
   style="stop-color:#603813"
   id="stop190" />
</linearGradient>
<polygon
   style="opacity:0.28;fill:url(#SVGID_00000098202884565938082360000011368804175412617393_)"
   points="481.8,84.3 814.9,84.3 700.4,634.3 604,634.3 "
   id="polygon193"
   transform="translate(5.9,-3.3)" />
<g
   id="g201"
   transform="translate(5.9,-3.3)">
	<polygon
   class="st0"
   points="62.1,534.3 72.3,534.4 75.8,527.6 69.1,508.6 68.6,508.2 60.3,505.3 56.7,512.2 57.2,534.3 "
   id="polygon195" />
	<polygon
   class="st1"
   points="72.3,534.4 60.3,505.3 68.9,508.2 80.2,527.1 "
   id="polygon197" />
	<polyline
   class="st2"
   points="60.3,505.3 60.4,513.1 62.1,534.3 57.2,534.3 56.7,512.2  "
   id="polyline199" />
</g>
<g
   id="g209"
   transform="translate(5.9,-3.3)">
	<polygon
   class="st3"
   points="72.3,532.9 78.7,535.9 82.8,532.6 84.1,518.8 83.9,518.5 79.6,514.3 75.3,517.6 69.2,531.5 "
   id="polygon203" />
	<polygon
   class="st1"
   points="78.7,535.9 79.6,514.3 84,518.5 85.7,533.5 "
   id="polygon205" />
	<polyline
   class="st2"
   points="79.6,514.3 77.3,519.2 72.3,532.9 69.2,531.5 75.3,517.6  "
   id="polyline207" />
</g>
<g
   id="g217"
   transform="translate(5.9,-3.3)">
	<polygon
   class="st4"
   points="584,566.7 594.2,566.7 597.7,559.9 591,540.9 590.5,540.5 582.2,537.7 578.6,544.5 579,566.7 "
   id="polygon211" />
	<polygon
   class="st5"
   points="594.2,566.7 582.2,537.7 590.8,540.6 602.1,559.4 "
   id="polygon213" />
	<polyline
   class="st6"
   points="582.2,537.7 582.3,545.4 584,566.7 579,566.7 578.6,544.5  "
   id="polyline215" />
</g>
<g
   id="g225"
   transform="translate(5.9,-3.3)">
	<polygon
   class="st4"
   points="706.6,561 712.6,564.7 717.1,562 720,548.5 719.9,548.1 716.1,543.4 711.5,546.1 703.8,559.2 "
   id="polygon219" />
	<polygon
   class="st5"
   points="712.6,564.7 716.1,543.4 720,548.2 719.9,563.3 "
   id="polygon221" />
	<polyline
   class="st6"
   points="716.1,543.4 713.4,547.9 706.6,561 703.8,559.2 711.5,546.1  "
   id="polyline223" />
</g>
<g
   id="g233"
   transform="translate(5.9,-3.3)">
	<polygon
   class="st3"
   points="246,533.9 252.3,537.3 256.6,534.2 258.6,520.5 258.4,520.1 254.3,515.8 249.9,518.7 243.1,532.3 "
   id="polygon227" />
	<polygon
   class="st1"
   points="252.3,537.3 254.3,515.8 258.5,520.2 259.4,535.2 "
   id="polygon229" />
	<polyline
   class="st2"
   points="254.3,515.8 251.9,520.5 246,533.9 243.1,532.3 249.9,518.7  "
   id="polyline231" />
</g>
<g
   id="g241"
   transform="translate(5.9,-3.3)">
	<polygon
   class="st7"
   points="512,489.9 519.3,494.4 524.8,491.1 528.3,474.6 528.1,474.1 523.4,468.5 517.9,471.7 508.4,487.8 "
   id="polygon235" />
	<polygon
   class="st8"
   points="519.3,494.4 523.4,468.5 528.2,474.2 528.2,492.6 "
   id="polygon237" />
	<polyline
   class="st9"
   points="523.4,468.5 520.1,474 512,489.9 508.4,487.8 517.9,471.7  "
   id="polyline239" />
</g>
<g
   id="g249"
   transform="translate(5.9,-3.3)">
	<polygon
   class="st7"
   points="528.3,531.3 523.8,544.5 529,557.3 535.2,559 535.8,558.7 542.1,545.5 537,535.7 530.4,526.4 "
   id="polygon243" />
	<polygon
   class="st8"
   points="523.8,544.5 542.1,545.5 535.6,559 527.6,561.8 "
   id="polygon245" />
	<polyline
   class="st9"
   points="542.1,545.5 534.6,538.9 528.3,531.3 530.4,526.4 537,535.7  "
   id="polyline247" />
</g>
<g
   id="g257"
   transform="translate(5.9,-3.3)">
	<polygon
   class="st7"
   points="318.1,496.2 333.9,496.3 339.3,485.7 329,456.4 328.2,455.9 315.5,451.5 309.8,462 310.4,496.3 "
   id="polygon251" />
	<polygon
   class="st8"
   points="333.9,496.3 315.5,451.5 328.6,455.9 346.1,484.9 "
   id="polygon253" />
	<polyline
   class="st9"
   points="315.5,451.5 315.5,463.3 318.1,496.2 310.4,496.3 309.8,462  "
   id="polyline255" />
</g>
<g
   id="g265"
   transform="translate(5.9,-3.3)">
	<polygon
   class="st7"
   points="332.4,491.6 341.6,497.4 348.6,493.2 353.3,472.4 353,471.8 347.2,464.6 340.1,468.7 328,488.8 "
   id="polygon259" />
	<polygon
   class="st8"
   points="341.6,497.4 347.2,464.6 353.3,471.9 352.8,495.2 "
   id="polygon261" />
	<polyline
   class="st9"
   points="347.2,464.6 343,471.5 332.4,491.6 328,488.8 340.1,468.7  "
   id="polyline263" />
</g>
<polygon
   class="st10"
   points="726.9,580.5 726.9,576.5 728.7,562.7 725,553.9 693.6,556.6 627.4,562.7 583.1,556.9 564.3,570.9 564.2,591 563.7,601.2 554.6,587.7 545.8,588.3 538.8,578 541.7,569.2 525.8,545 539.4,496 533.8,482.9 497,486.5 494.8,488.6 481.7,489.3 480.3,487.6 477.3,487.2 388.9,489.7 322.9,481 300.3,514.6 308.9,557.5 293,596.9 284.7,597 284.7,535.3 264.4,529.9 232.5,526.3 134.3,535.3 68.4,526.6 45.7,553.9 43.4,595.3 38.7,587.9 24,604.3 25.4,692.6 33,703.4 33.9,714.5 26,730.6 28.2,862.6 359.6,872.3 392,868.9 424.4,873.9 474.7,866.6 515.8,870 533.6,869.5 535.8,866.6 541.8,865.7 545.6,867.8 716.3,866.6 774,865.4 760.1,633.1 745,599.4 734.3,587.7 "
   id="polygon267"
   transform="translate(5.9,-3.3)" />
<polygon
   class="st11"
   points="301.7,487.7 300.2,515.1 322.9,481.4 "
   id="polygon269"
   transform="translate(5.9,-3.3)" />
<rect
   x="363.5"
   y="562.5"
   class="st12"
   width="189.39999"
   height="32.700001"
   id="rect271" />
<rect
   x="108.5"
   y="571.10004"
   class="st12"
   width="189.39999"
   height="32.700001"
   id="rect273" />
<polyline
   class="st11"
   points="49.7,550.7 47.2,596.5 43.3,595.7 45.6,554.4 48.4,531.4 68.2,527.1 "
   id="polyline275"
   transform="translate(5.9,-3.3)" />
<polygon
   class="st13"
   points="302.4,557.4 292.9,597.5 308.8,558.1 "
   id="polygon277"
   transform="translate(5.9,-3.3)" />
<polygon
   class="st14"
   points="302.4,557.4 308.8,558.1 300.2,515.1 "
   id="polygon279"
   transform="translate(5.9,-3.3)" />
<polygon
   class="st11"
   points="582.9,557.3 634.1,560 724.9,554.4 627.3,563.2 "
   id="polygon281"
   transform="translate(5.9,-3.3)" />
<path
   class="st13"
   d="m 569.5,598.3 3.2,-4.2 3.2,-23.9 13,-16.2 c 0,0 -18.7,13.6 -18.7,14 -0.1,0.5 -0.7,30.3 -0.7,30.3 z"
   id="path283" />
<path
   class="st8"
   d="m 500.5,485.7 -7,0.6 -6,0.2 1.1,5.1 -3.5,7.8 -1.4,17.1 -5.5,4.5 8.1,-3.6 c 0,0 0.8,-14 1,-14.4 0.1,-0.5 7.5,-8.7 7.7,-8.8 0.1,-0.3 5.5,-8.5 5.5,-8.5 z"
   id="path285" />
<polygon
   class="st0"
   points="261.9,572.1 247.7,562.2 239.7,545.9 229.8,539.6 222.8,527.6 216.9,528.2 215.5,538.6 236,546.9 244.4,563.7 "
   id="polygon287"
   transform="translate(5.9,-3.3)" />
<g
   class="st24"
   id="g295"
   transform="translate(5.9,-3.3)">
	<defs
   id="defs290">
		<polygon
   id="SVGID_00000074421625001528934480000007010097333129969309_"
   class="st24"
   points="564.1,633.5 579.4,633.5 579.4,624.2 564.1,624.2 " />
	</defs>
	<clipPath
   id="SVGID_00000026127053966525122360000017485882966203746730_">
		<use
   xlink:href="#SVGID_00000074421625001528934480000007010097333129969309_"
   style="overflow:visible"
   id="use292"
   x="0"
   y="0"
   width="100%"
   height="100%" />
	</clipPath>
</g>
<g
   class="st24"
   id="g303"
   transform="translate(5.9,-3.3)">
	<defs
   id="defs298">
		<polygon
   id="SVGID_00000082361142500574866560000009551238982115173289_"
   class="st24"
   points="254.7,633.5 239.4,633.5 239.4,624.2 254.7,624.2 " />
	</defs>
	<clipPath
   id="SVGID_00000150088114201813223940000008466166036867008681_">
		<use
   xlink:href="#SVGID_00000082361142500574866560000009551238982115173289_"
   style="overflow:visible"
   id="use300"
   x="0"
   y="0"
   width="100%"
   height="100%" />
	</clipPath>
</g>
<polygon
   class="st13"
   points="515.8,870.4 474.7,867 474.8,871 "
   id="polygon305"
   transform="translate(5.9,-3.3)" />
<polygon
   class="st14"
   points="474.8,871 474.7,867 424.4,874.2 "
   id="polygon307"
   transform="translate(5.9,-3.3)" />
<path
   class="st14"
   d="M 549.6,865.1"
   id="path309" />
<polygon
   class="st14"
   points="541.8,866.1 536.7,863.7 534.4,860.1 529.9,857.2 529.3,849.1 529.3,857.4 533,860.6 535.8,866.9 "
   id="polygon311"
   transform="translate(5.9,-3.3)" />
<polygon
   class="st2"
   points="359.6,509.1 332.5,512.1 322.9,563.2 334.3,513.5 "
   id="polygon313"
   transform="translate(5.9,-3.3)" />
<polygon
   class="st25"
   points="334.3,513.5 359.6,509.1 339.3,517.5 322.9,563.2 "
   id="polygon315"
   transform="translate(5.9,-3.3)" />
<path
   class="st14"
   d="M 365.5,505.8"
   id="path317" />
<polygon
   class="st25"
   points="232.5,526.6 222.8,527.6 229.8,539.6 239.7,545.9 247.7,562.2 261.9,572.1 284.4,576.1 284.7,535.7 264.4,530.3 "
   id="polygon319"
   transform="translate(5.9,-3.3)" />
<path
   class="st2"
   d="m 669.6,629.1 c 0,0 39.8,-3.5 40,-3.6 0.3,-0.2 19.8,-22.9 19.8,-22.9 l -20.8,22.1 z"
   id="path321" />
<polygon
   class="st14"
   points="542.6,594.1 542.4,602.1 536.1,612.7 539.1,602.1 540,593.8 538.6,588 532,592.1 525.5,590.8 518.1,592.1 515.1,583.1 520.5,585.2 538.8,578.3 545.8,588.7 "
   id="polygon323"
   transform="translate(5.9,-3.3)" />
<polyline
   class="st2"
   points="536.2,612.5 536.1,612.7 534.4,614.5 538.5,602.1 539.4,593.8 538.6,588 540,593.8 539.3,602.1 "
   id="polyline325"
   transform="translate(5.9,-3.3)" />
<polygon
   class="st13"
   points="520.5,585.2 538.8,578.3 537.6,581 520,587 515.1,583.1 "
   id="polygon327"
   transform="translate(5.9,-3.3)" />
<path
   class="st14"
   d="m 423.5,546.3 -9.5,-0.3 -0.9,-7.6 6.1,-1.5 1,-21.4 -6.7,2.4 -2.1,-11 12.5,-6.4 5.9,7.8 -1.6,28.7 4.2,0.6 1.5,6.5 z"
   id="path329" />
<path
   class="st14"
   d="m 79.1,588 1.1,-14 11.2,-4.6 1.6,-5.1 -4.3,-2.4 -4.6,4.2 -5.4,-5.5 3.9,-8.5 14.4,-1 4.6,10.6 -2.7,11.3 -10.9,4.9 1.8,3.7 10,-1.6 -0.3,8 z"
   id="path331" />
<path
   class="st14"
   d="m 592.6,600 -6.5,-2.5 2,-5.6 5.1,2.3 3.3,-1.6 -4,-4.4 3.5,-5.4 -3.1,-1.8 -2.7,3.6 -4.4,-3.1 2.6,-8 10.2,-1.1 3.3,9.4 -4,5 4.2,3.1 -1.8,8.3 z"
   id="path333" />
<path
   class="st16"
   d="M 210,652.8"
   id="path335" />
<path
   class="st16"
   d="M 349.9,858.4 281.5,844.2 242.1,833.6 H 91.2 L 74.8,818 71,817.1 63.9,810.1 63.7,805.8 51.6,794.1 36.3,778.7 H 18.6 c 0,0 -11.5,43.7 -11.5,45.7 0,2 -2.7,36.5 3.4,38 6.1,1.4 120.9,5.6 122.9,6.5 2,0.9 212.5,0.5 212.5,0.5 z"
   id="path337" />
<polygon
   class="st14"
   points="19.4,822.3 41.4,816.6 57.9,813.2 65.1,820.4 44.6,823.2 "
   id="polygon339"
   transform="translate(5.9,-3.3)" />
<path
   class="st16"
   d="M 42.4,813.5"
   id="path341" />
<polygon
   class="st11"
   points="5,783.4 1.2,827.7 12.7,782 "
   id="polygon343"
   transform="translate(5.9,-3.3)" />
<polygon
   class="st11"
   points="85.3,836.8 236.2,836.8 251.3,842.2 119.2,844.5 "
   id="polygon345"
   transform="translate(5.9,-3.3)" />
<polygon
   class="st13"
   points="344,861.7 322.5,865.1 322.5,868.7 340.1,872.7 "
   id="polygon347"
   transform="translate(5.9,-3.3)" />
<polygon
   class="st26"
   points="44.6,823.2 65.1,820.4 68.9,821.2 64,827.4 43.3,831 19.4,822.3 "
   id="polygon349"
   transform="translate(5.9,-3.3)" />
<polygon
   class="st16"
   points="642.7,766 647.4,755.4 644.4,748.9 674.8,681.4 746.5,664.7 780.6,688.3 755.6,762 801.1,865.7 755.6,870.6 612.2,863.3 629.1,783 636.4,766.7 "
   id="polygon351"
   transform="translate(5.9,-3.3)" />
<polygon
   class="st13"
   points="772.3,763.5 755.6,762 780.6,688.3 "
   id="polygon353"
   transform="translate(5.9,-3.3)" />
<polygon
   class="st14"
   points="801.1,865.7 819.4,861.2 772.3,763.5 755.6,762 "
   id="polygon355"
   transform="translate(5.9,-3.3)" />
<polygon
   class="st2"
   points="708.1,692 676.7,681.4 746.5,664.7 "
   id="polygon357"
   transform="translate(5.9,-3.3)" />
<polygon
   class="st14"
   points="642.7,766 647.4,755.4 660.1,762 708.8,767.7 660.4,766 "
   id="polygon359"
   transform="translate(5.9,-3.3)" />
<polygon
   class="st26"
   points="636.4,766.7 642.7,766 708.8,767.7 730.3,780.9 739.9,802.7 629.1,783 "
   id="polygon361"
   transform="translate(5.9,-3.3)" />
<polyline
   class="st16"
   points="555.3,865.2 595.9,848.8 652.5,844 706,868 651.9,874.3 555.3,865.2 "
   id="polyline363"
   transform="translate(5.9,-3.3)" />
<polygon
   class="st20"
   points="596.5,848.8 556,865.2 598.5,856.5 651.6,855.4 653.2,844 "
   id="polygon365"
   transform="translate(5.9,-3.3)" />
<polygon
   class="st13"
   points="651.6,855.4 702.1,868.5 706.7,868 653.2,844 "
   id="polygon367"
   transform="translate(5.9,-3.3)" />
<polyline
   class="st14"
   points="88.9,723.5 63.3,722.4 33.9,714.9 33,703.8 44.3,711.7 62.1,719 88.9,723.5 "
   id="polyline369"
   transform="translate(5.9,-3.3)" />
<polygon
   class="st26"
   points="133,751.3 64,748.6 25.7,731.4 33.9,714.9 63.3,722.4 88.9,723.5 120.1,736.6 "
   id="polygon371"
   transform="translate(5.9,-3.3)" />
<polygon
   class="st14"
   points="447.2,759.4 474.1,766.7 542.4,766.4 476.2,775.6 "
   id="polygon373"
   transform="translate(5.9,-3.3)" />
<polygon
   class="st16"
   points="565.5,742.7 509.6,735.3 427.9,736.5 447.2,759.4 475.3,766.7 542.4,766.4 "
   id="polygon375"
   transform="translate(5.9,-3.3)" />
<polygon
   class="st14"
   points="278.7,735.3 283.4,733.8 294,713 308.9,703.3 320.8,700.1 307.9,700.7 293.1,710.3 281.7,732.9 "
   id="polygon377"
   transform="translate(5.9,-3.3)" />
<polygon
   class="st26"
   points="281.7,732.9 278.7,735.3 266.3,734.4 259.7,726 252,719.2 319.7,681.4 320.8,700.1 307.9,700.7 293.1,710.3 "
   id="polygon379"
   transform="translate(5.9,-3.3)" />
</svg>
