<?xml version="1.0" encoding="UTF-8" standalone="no"?>
<!-- Generator: Adobe Illustrator 26.1.0, SVG Export Plug-In . SVG Version: 6.00 Build 0)  -->

<svg
   version="1.1"
   id="Layer_1"
   x="0px"
   y="0px"
   viewBox="0 0 1208.6455 328.36876"
   xml:space="preserve"
   sodipodi:docname="podium.svg"
   width="1208.6455"
   height="328.36874"
   inkscape:version="1.1 (c68e22c387, 2021-05-23)"
   xmlns:inkscape="http://www.inkscape.org/namespaces/inkscape"
   xmlns:sodipodi="http://sodipodi.sourceforge.net/DTD/sodipodi-0.dtd"
   xmlns:xlink="http://www.w3.org/1999/xlink"
   xmlns="http://www.w3.org/2000/svg"
   xmlns:svg="http://www.w3.org/2000/svg"><defs
   id="defs1099" /><sodipodi:namedview
   id="namedview1097"
   pagecolor="#ffffff"
   bordercolor="#666666"
   borderopacity="1.0"
   inkscape:pageshadow="2"
   inkscape:pageopacity="0.0"
   inkscape:pagecheckerboard="0"
   showgrid="false"
   inkscape:zoom="0.87308133"
   inkscape:cx="603.60929"
   inkscape:cy="152.90672"
   inkscape:window-width="1842"
   inkscape:window-height="1057"
   inkscape:window-x="-8"
   inkscape:window-y="-8"
   inkscape:window-maximized="1"
   inkscape:current-layer="Layer_1" />
<style
   type="text/css"
   id="style2">
	.st0{fill:#C6C1B3;}
	.st1{fill:#B2B1AF;}
	.st2{fill:#FFFFFF;}
	.st3{fill:#A39F93;}
	.st4{fill:#BCA173;}
	.st5{fill:#7C532E;}
	.st6{fill:#B2A184;}
	.st7{fill:#E8B72E;}
	.st8{fill:#E59D0E;}
	.st9{fill:#FFE9A1;}
	.st10{fill:#828282;}
	.st11{fill:#CECECE;}
	.st12{fill:#4F4F4F;}
	.st13{fill:none;}
	.st14{fill:#636363;}
	.st15{fill:#4F403A;}
	.st16{fill:#B79F2A;}
	.st17{filter:url(#Adobe_OpacityMaskFilter);}
	.st18{mask:url(#SVGID_1_);}
	.st19{fill:#8C811E;}
	.st20{fill:#FCE249;}
	.st21{opacity:0.21;fill:#F2EEEB;stroke:#5B5B5B;stroke-width:0.6619;stroke-miterlimit:10;}
	.st22{fill:#3D3D3D;}
	.st23{fill:#706051;}
	.st24{opacity:0.36;}
	.st25{fill:#606060;}
	.st26{fill:#939393;}
	.st27{fill:#727272;}
	.st28{opacity:0.25;}
	.st29{clip-path:url(#SVGID_00000177468298298753940190000018371585048672273812_);fill:#FFFFFF;}
	.st30{filter:url(#Adobe_OpacityMaskFilter_00000149357920685097186860000015821726256352310970_);}
	.st31{mask:url(#SVGID_00000108301715773500498710000012550477293722414265_);}
	.st32{fill:#705E51;stroke:#5B5B5B;stroke-width:0.9908;stroke-miterlimit:10;}
	.st33{fill:#6B3F34;}
	.st34{fill:#603E26;}
	.st35{fill:#4F4F4F;stroke:#4F4F4F;stroke-miterlimit:10;}
	.st36{fill:#775742;}
	.st37{opacity:0.46;fill:#33302D;enable-background:new    ;}
	.st38{fill:#54463C;}
	.st39{fill:#AFAFAF;}
	.st40{fill:none;stroke:#54463C;stroke-miterlimit:10;}
	.st41{fill:#686868;stroke:#5B5B5B;stroke-width:0.7414;stroke-miterlimit:10;}
	.st42{fill:#705E51;stroke:#5B5B5B;stroke-width:0.6006;stroke-miterlimit:10;}
	.st43{fill:#919191;stroke:#5B5B5B;stroke-width:0.3375;stroke-miterlimit:10;}
	.st44{fill:#6E655C;}
	.st45{fill:#56504A;}
	.st46{fill:#F1A957;stroke:#5B5B5B;stroke-width:0.5815;stroke-miterlimit:10;}
	.st47{fill:#6B6865;}
	.st48{fill:none;stroke:#5B5B5B;stroke-width:0.3635;stroke-miterlimit:10;}
	.st49{fill:#5B5B5B;}
	.st50{fill:#686868;}
	.st51{fill:#561C1C;}
	.st52{fill:#6D6D6D;}
	.st53{clip-path:url(#SVGID_00000091716860810376428090000018157401767729325194_);fill:#FFFFFF;}
	.st54{fill:none;stroke:#455132;stroke-width:2;stroke-miterlimit:10;}
	.st55{opacity:0.26;fill:#FFFFFF;}
</style>
<g
   id="g10"
   transform="translate(-2.1295099,-23.2)">
	<polygon
   class="st0"
   points="98,110.7 98.6,142.7 105.7,142.7 120.5,142.8 125.5,132.9 115.8,105.5 115.1,105 103.2,100.8 "
   id="polygon4" />
	<polygon
   class="st1"
   points="115.5,105 131.9,132.2 120.5,142.8 103.2,100.8 "
   id="polygon6" />
	<polyline
   class="st2"
   points="103.2,100.8 103.3,112 105.7,142.7 98.6,142.7 98,110.7  "
   id="polyline8" />
</g>
<g
   id="g18"
   transform="translate(-2.1295099,-23.2)">
	<polygon
   class="st3"
   points="124.8,118.5 116,138.6 120.4,140.6 129.6,144.9 135.6,140.2 137.4,120.3 137.1,119.8 130.9,113.8 "
   id="polygon12" />
	<polygon
   class="st1"
   points="137.3,119.9 139.7,141.5 129.6,144.9 130.9,113.8 "
   id="polygon14" />
	<polyline
   class="st2"
   points="130.9,113.8 127.7,120.8 120.4,140.6 116,138.6 124.8,118.5  "
   id="polyline16" />
</g>
<g
   id="g26"
   transform="translate(-2.1295099,-23.2)">
	<polygon
   class="st4"
   points="850.6,157.3 851.2,189.4 858.3,189.3 873.1,189.4 878.1,179.6 868.4,152.1 867.7,151.6 855.8,147.5 "
   id="polygon20" />
	<polygon
   class="st5"
   points="868.1,151.7 884.4,178.8 873.1,189.4 855.8,147.5 "
   id="polygon22" />
	<polyline
   class="st6"
   points="855.8,147.5 855.9,158.6 858.3,189.3 851.2,189.4 850.6,157.3  "
   id="polyline24" />
</g>
<g
   id="g34"
   transform="translate(-2.1295099,-23.2)">
	<polygon
   class="st4"
   points="1042.3,159.7 1031.1,178.6 1035.2,181.1 1043.8,186.5 1050.3,182.6 1054.5,163.1 1054.3,162.5 1048.8,155.8 "
   id="polygon28" />
	<polygon
   class="st5"
   points="1054.5,162.7 1054.3,184.4 1043.8,186.5 1048.8,155.8 "
   id="polygon30" />
	<polyline
   class="st6"
   points="1048.8,155.8 1044.9,162.3 1035.2,181.1 1031.1,178.6 1042.3,159.7  "
   id="polyline32" />
</g>
<g
   id="g42"
   transform="translate(-2.1295099,-23.2)">
	<polygon
   class="st3"
   points="376.6,120.2 366.7,139.8 371,142.1 380,146.9 386.2,142.5 389.1,122.7 388.8,122.2 382.9,115.9 "
   id="polygon36" />
	<polygon
   class="st1"
   points="389,122.3 390.3,144 380,146.9 382.9,115.9 "
   id="polygon38" />
	<polyline
   class="st2"
   points="382.9,115.9 379.4,122.7 371,142.1 366.7,139.8 376.6,120.2  "
   id="polyline40" />
</g>
<g
   id="g50"
   transform="translate(-2.1295099,-23.2)">
	<polygon
   class="st7"
   points="763,52.4 749.4,75.6 754.6,78.6 765.1,85.1 773,80.3 778,56.5 777.7,55.8 771,47.7 "
   id="polygon44" />
	<polygon
   class="st8"
   points="777.9,56 777.9,82.5 765.1,85.1 771,47.7 "
   id="polygon46" />
	<polyline
   class="st9"
   points="771,47.7 766.2,55.7 754.6,78.6 749.4,75.6 763,52.4  "
   id="polyline48" />
</g>
<g
   id="g58"
   transform="translate(-2.1295099,-23.2)">
	<polygon
   class="st7"
   points="790.6,144.7 781.1,131.3 778.1,138.3 771.6,157.4 779,175.8 788,178.3 788.8,177.8 797.9,158.8 "
   id="polygon52" />
	<polygon
   class="st8"
   points="788.6,178.2 777,182.3 771.6,157.4 797.9,158.8 "
   id="polygon54" />
	<polyline
   class="st9"
   points="797.9,158.8 787.1,149.3 778.1,138.3 781.1,131.3 790.6,144.7  "
   id="polyline56" />
</g>
<g
   id="g66"
   transform="translate(-2.1295099,-23.2)">
	<polygon
   class="st7"
   points="463,38.3 463.8,87.8 474.9,87.7 497.7,87.9 505.5,72.6 490.6,30.3 489.5,29.5 471.1,23.2 "
   id="polygon60" />
	<polygon
   class="st8"
   points="490.1,29.6 515.3,71.4 497.7,87.9 471.1,23.2 "
   id="polygon62" />
	<polyline
   class="st9"
   points="471.1,23.2 471.2,40.3 474.9,87.7 463.8,87.8 463,38.3  "
   id="polyline64" />
</g>
<g
   id="g74"
   transform="translate(-2.1295099,-23.2)">
	<polygon
   class="st7"
   points="506.7,48 489.2,77 495.6,81 508.8,89.4 518.9,83.4 525.6,53.3 525.3,52.5 516.9,42.1 "
   id="polygon68" />
	<polygon
   class="st8"
   points="525.6,52.7 525,86.2 508.8,89.4 516.9,42.1 "
   id="polygon70" />
	<polyline
   class="st9"
   points="516.9,42.1 510.8,52.1 495.6,81 489.2,77 506.7,48  "
   id="polyline72" />
</g>
<polygon
   class="st10"
   points="1110.6,232.4 1072.7,223.4 1064.5,209.8 1064.5,204.1 1067.1,184.2 1061.7,171.5 1016.4,175.4 921,184.2 857,175.7 830,195.9 829.8,225 829.1,239.6 815.9,220.1 803.3,221.1 793.2,206.1 797.3,193.5 774.4,158.6 794.1,87.9 786,69.1 732.9,74.3 729.7,77.2 710.8,78.3 708.8,75.8 704.5,75.3 577,78.8 481.9,66.3 449.3,114.8 461.7,176.7 438.7,233.5 426.8,233.6 426.8,144.6 397.4,136.9 351.5,131.6 209.9,144.6 114.8,132 82.1,171.5 78.8,231.1 72,220.5 50.7,244.1 57.7,323.5 395.2,331.1 459.7,326.7 506.4,333.8 579,323.4 641.8,330.8 663.9,327.6 667.2,323.4 675.7,322.1 681.3,325.1 700.4,322.3 1066.6,324.1 1132.4,285.2 "
   id="polygon76"
   transform="translate(-2.1295099,-23.2)" />
<polygon
   class="st11"
   points="449.1,115 481.8,66.4 451.2,75.5 "
   id="polygon78"
   transform="translate(-2.1295099,-23.2)" />
<path
   class="st12"
   d="m 613.97049,146.5 -15.6,-0.5 -1.5,-12.5 9.9,-2.4 1.6,-35 -11,3.9 -3.4,-18 20.5,-10.5 9.6,12.8 -2.6,47 6.8,1 2.4,10.7 z"
   id="path80" />
<path
   class="st12"
   d="m 113.27049,217.3 1.7,-22.1 17.7,-7.3 2.5,-8.1 -6.8,-3.8 -7.3,6.7 -8.6,-8.7 6.1,-13.4 22.7,-1.6 7.2,16.8 -3.8,17.8 -17.2,7.7 2.9,5.8 15.8,-2.6 -0.4,12.6 z"
   id="path82" />
<path
   class="st12"
   d="m 868.87049,217.3 -9.5,-3.7 2.9,-8.2 7.5,3.4 4.9,-2.4 -5.9,-6.5 5.1,-7.9 -4.5,-2.6 -3.9,5.3 -6.4,-4.5 3.8,-11.8 15,-1.6 4.9,13.8 -5.9,7.3 6.1,4.5 -2.6,12.2 z"
   id="path84" />
<rect
   x="529.77051"
   y="164.8"
   class="st13"
   width="273.10001"
   height="47.099998"
   id="rect86" />
<rect
   x="162.07048"
   y="177.3"
   class="st13"
   width="273.10001"
   height="47.099998"
   id="rect88" />
<polyline
   class="st11"
   points="87.8,166.3 84.2,232.4 78.6,231.2 81.9,171.6 86,138.5 114.6,132.2 "
   id="polyline90"
   transform="translate(-2.1295099,-23.2)" />
<polygon
   class="st14"
   points="438.5,233.7 461.5,176.9 452.2,176 "
   id="polygon92"
   transform="translate(-2.1295099,-23.2)" />
<polygon
   class="st12"
   points="461.5,176.9 449.1,115 452.2,176 "
   id="polygon94"
   transform="translate(-2.1295099,-23.2)" />
<polygon
   class="st11"
   points="1061.5,171.6 920.8,184.3 856.8,175.8 930.6,179.7 "
   id="polygon96"
   transform="translate(-2.1295099,-23.2)" />
<path
   class="st14"
   d="m 826.77049,216.5 4.6,-6.1 4.6,-34.5 18.7,-23.3 c 0,0 -27,19.6 -27,20.2 0,0.7 -0.9,43.7 -0.9,43.7 z"
   id="path98" />
<path
   class="st8"
   d="m 727.37049,54.1 -10.1,0.9 -8.7,0.3 1.6,7.3 -5.1,11.2 -2,24.6 -7.9,6.5 11.7,-5.2 c 0,0 1.2,-20.2 1.4,-20.8 0.1,-0.7 10.8,-12.5 11.1,-12.7 0.1,-0.3 8,-12.1 8,-12.1 z"
   id="path100" />
<polygon
   class="st0"
   points="356.5,160.8 368.6,185 393.9,197.1 373.4,182.8 361.9,159.3 347.5,150.3 337.5,133 329,133.8 326.9,148.8 "
   id="polygon102"
   transform="translate(-2.1295099,-23.2)" />
<g
   id="g210"
   transform="translate(-2.1295099,-23.2)">
	<path
   class="st15"
   d="M 784.6,295.2 H 868 c 6.3,0 11.5,-5.1 11.5,-11.5 v 0 c 0,-6.3 -5.1,-11.5 -11.5,-11.5 h -83.4 c -6.3,0 -11.5,5.1 -11.5,11.5 v 0 c 0,6.4 5.1,11.5 11.5,11.5 z"
   id="path104" />
	<g
   id="g134">
		<g
   id="g124">
			<g
   id="g108">
				<path
   class="st16"
   d="m 803.4,279.1 -0.5,1.8 v 2.8 l -0.2,2.4 0.2,2.8 h 68.9 c 0,0 1.4,0.1 1.4,0 0,-0.1 0.8,-3 0.8,-3.2 0,-0.2 -0.5,-5.4 -0.5,-5.4 0,-0.1 -1.2,-2.4 -1.2,-2.4 l -30,1 -39,-0.2"
   id="path106" />
			</g>
			<defs
   id="defs113">
				<filter
   id="Adobe_OpacityMaskFilter"
   filterUnits="userSpaceOnUse"
   x="802.70001"
   y="278.10001"
   width="71.199997"
   height="11">
					
						<feColorMatrix
   type="matrix"
   values="-1 0 0 0 1  0 -1 0 0 1  0 0 -1 0 1  0 0 0 1 0"
   color-interpolation-filters="sRGB"
   result="source"
   id="feColorMatrix110" />
				</filter>
			</defs>
			<mask
   maskUnits="userSpaceOnUse"
   x="802.7"
   y="278.1"
   width="71.2"
   height="11"
   id="SVGID_1_">
				<g
   class="st17"
   id="g117">
					<image
   style="overflow:visible"
   width="76"
   height="16"
   xlink:href="64FD3468.jpg"
   transform="translate(800,275.8)"
   id="image115">
					</image>
				</g>
			</mask>
			<g
   class="st18"
   mask="url(#SVGID_1_)"
   id="g122">
				<path
   class="st19"
   d="m 803.4,279.1 -0.5,1.8 v 2.8 l -0.2,2.4 0.2,2.8 h 68.9 c 0,0 1.4,0.1 1.4,0 0,-0.1 0.8,-3 0.8,-3.2 0,-0.2 -0.5,-5.4 -0.5,-5.4 0,-0.1 -1.2,-2.4 -1.2,-2.4 l -30,1 -39,-0.2"
   id="path120" />
			</g>
		</g>
		<path
   class="st20"
   d="m 827.1,284 c 0,0 1.6,-0.1 2.7,-1.1 1.1,-1 2.1,-1.1 2.9,-0.2 0.8,0.9 -1,2.1 1.2,2.8 2.2,0.7 9.6,-7.7 12.4,-5.3 2.8,2.4 2.6,5.2 4.3,5.3 1.7,0.2 1.2,2.6 0.2,2.3 -1,-0.3 -2.6,-2 -3.6,-1.5 -1,0.5 -3.4,2.6 -4,-0.2 -0.6,-2.9 0.3,-4.2 -1.4,-2.8 -1.6,1.4 -3.4,-0.6 -4.4,1.7 -1.1,2.3 -2.2,4 -3.4,2.1 -1.2,-1.9 -0.7,-2.1 -1.3,-1.9 -0.6,0.2 -2.6,-1.6 -3.4,-0.7 -0.7,0.8 -2.6,2 -2.2,-0.5 z"
   id="path126" />
		<path
   class="st20"
   d="m 812.4,286 c 0,0 0,-2.5 0.7,-3.3 0.7,-0.8 1.4,-1.6 2.8,-0.8 1.4,0.9 1.2,0.8 1.9,0.2 0.7,-0.6 1.9,-0.6 2,0 0.1,0.6 0.8,0.5 -0.6,1.6 -1.4,1.1 -0.6,1 -1.7,2.2 -0.9,1.3 -2.9,2.8 -5.1,0.1 z"
   id="path128" />
		<path
   class="st20"
   d="m 863.8,286 c -1.3,0.6 -1.7,-4.2 -0.4,-4.9 0.3,-0.2 0.6,-0.2 0.9,-0.1 1.3,0.5 2.6,3.4 3.2,2.9 0.6,-0.5 1.9,-0.6 1.9,0.9 -0.1,1.5 -0.1,1.2 -0.3,2.1 -0.2,0.9 -2.8,0.6 -3,-0.5 -0.2,-1.1 -1.7,-1.5 -1.9,-0.9 0,0.2 -0.2,0.4 -0.4,0.5 z"
   id="path130" />
		<path
   class="st20"
   d="m 860.5,283.2 c 0,0 0.7,-0.1 0.7,0.5 0,0.6 0.4,3.6 -0.4,2.9 -0.8,-0.6 -0.6,-1.8 -0.3,-3.4 z"
   id="path132" />
	</g>
	<path
   class="st21"
   d="m 868.2,287.3 h -84.1 c -1.5,0 -2.7,-1.2 -2.7,-2.7 v -1.8 c 0,-1.5 1.2,-2.7 2.7,-2.7 h 84.1 c 1.5,0 2.7,1.2 2.7,2.7 v 1.8 c 0,1.5 -1.2,2.7 -2.7,2.7 z"
   id="path136" />
	<path
   class="st22"
   d="m 776,285.3 v -2.9 c 0,-4.2 4.5,-7.6 7.4,-7.6 h 85.7 c 2.9,0 7.5,3.4 7.5,7.6 v 2.9 c 0,4.2 -4.6,7.6 -7.5,7.6 h -85.7 c -2.9,0 -7.4,-3.4 -7.4,-7.6 z m 7.4,-6.8 c -1.5,0 -2.7,1.7 -2.7,3.9 v 2.9 c 0,2.1 1.2,3.9 2.7,3.9 h 85.7 c 1.5,0 2.7,-1.7 2.7,-3.9 v -2.9 c 0,-2.1 -1.2,-3.9 -2.7,-3.9 z"
   id="path138" />
	<path
   class="st23"
   d="m 779.8,283.6 c 0,-3.2 1.8,-5.8 4,-5.8 h 84.6 c 2.2,0 4,2.6 4,5.8 0,3.2 -1.8,5.8 -4,5.8 h -84.6 c -2.1,0 -4,-2.6 -4,-5.8 z m 4.1,-3.6 c -1.4,0 -2.5,1.6 -2.5,3.6 0,2 1.1,3.6 2.5,3.6 h 84.6 c 1.4,0 2.5,-1.6 2.5,-3.6 0,-2 -1.1,-3.6 -2.5,-3.6 z"
   id="path140" />
	<g
   class="st24"
   id="g148">
		<defs
   id="defs143">
			<path
   id="SVGID_00000151530283518696442290000017831115993139440294_"
   class="st24"
   d="m 787.1,285.3 v -2.9 c 0,-4.2 2.4,-7.6 5.3,-7.6 h 86.3 c 2.9,0 5.3,3.4 5.3,7.6 v 2.9 c 0,4.2 -2.4,7.6 -5.3,7.6 h -86.3 c -2.9,0 -5.3,-3.4 -5.3,-7.6 z m 5.3,-6.8 c -1.5,0 -2.7,1.7 -2.7,3.9 v 2.9 c 0,2.1 1.2,3.9 2.7,3.9 h 86.3 c 1.5,0 2.7,-1.7 2.7,-3.9 v -2.9 c 0,-2.1 -1.2,-3.9 -2.7,-3.9 z" />
		</defs>
		<clipPath
   id="SVGID_00000182522230209824554700000010066383638195703214_">
			<use
   xlink:href="#SVGID_00000151530283518696442290000017831115993139440294_"
   style="overflow:visible"
   id="use145"
   x="0"
   y="0"
   width="100%"
   height="100%" />
		</clipPath>
	</g>
	<g
   id="g154">
		<circle
   class="st25"
   cx="788"
   cy="276.29999"
   id="ellipse150"
   r="1.2" />
		<polygon
   class="st26"
   points="788.4,276.3 788.6,277 788.3,276.5 787.9,276.1 787.4,275.7 788,275.9 "
   id="polygon152" />
	</g>
	<g
   id="g160">
		<circle
   class="st25"
   cx="788"
   cy="291.5"
   id="ellipse156"
   r="1.2" />
		<polygon
   class="st26"
   points="788.4,291.6 788.6,292.3 788.3,291.7 787.9,291.3 787.4,291 788,291.2 "
   id="polygon158" />
	</g>
	<g
   id="g166">
		<circle
   class="st25"
   cx="864.40002"
   cy="276.29999"
   id="ellipse162"
   r="1.2" />
		<polygon
   class="st26"
   points="864.7,276.3 864.9,277 864.6,276.5 864.2,276.1 863.7,275.7 864.3,275.9 "
   id="polygon164" />
	</g>
	<g
   id="g172">
		<circle
   class="st25"
   cx="864.40002"
   cy="291.5"
   id="ellipse168"
   r="1.2" />
		<polygon
   class="st26"
   points="864.7,291.6 864.9,292.3 864.6,291.7 864.2,291.3 863.7,291 864.3,291.2 "
   id="polygon170" />
	</g>
	<g
   id="g178">
		<circle
   class="st25"
   cx="825.79999"
   cy="276.29999"
   id="ellipse174"
   r="1.2" />
		<polygon
   class="st26"
   points="826.2,276.3 826.4,277 826,276.5 825.7,276.1 825.2,275.7 825.7,275.9 "
   id="polygon176" />
	</g>
	<g
   id="g184">
		<circle
   class="st25"
   cx="825.79999"
   cy="291.5"
   id="ellipse180"
   r="1.2" />
		<polygon
   class="st26"
   points="826.2,291.6 826.4,292.3 826,291.7 825.7,291.3 825.2,291 825.7,291.2 "
   id="polygon182" />
	</g>
	<g
   id="g190">
		<circle
   class="st25"
   cx="778.09998"
   cy="283.70001"
   id="ellipse186"
   r="1.2" />
		<polygon
   class="st26"
   points="778.4,283.8 778.6,284.4 778.3,283.9 777.9,283.5 777.4,283.1 778,283.4 "
   id="polygon188" />
	</g>
	<g
   id="g196">
		<circle
   class="st25"
   cx="874.5"
   cy="283.70001"
   id="ellipse192"
   r="1.2" />
		<polygon
   class="st26"
   points="874.9,283.8 875.1,284.4 874.8,283.9 874.4,283.5 873.9,283.1 874.5,283.4 "
   id="polygon194" />
	</g>
	
		<rect
   x="769.40002"
   y="281.5"
   transform="rotate(180,771.5606,283.72775)"
   class="st15"
   width="4.4000001"
   height="4.5"
   id="rect198" />
	<path
   class="st15"
   d="m 769.1,285.6 h 3.6 c 0.2,0 0.4,-0.2 0.4,-0.4 v -3 c 0,-0.2 -0.2,-0.4 -0.4,-0.4 h -3.6 c -0.2,0 -0.4,0.2 -0.4,0.4 v 3 c 0,0.2 0.2,0.4 0.4,0.4 z"
   id="path200" />
	
		<rect
   x="767.5"
   y="282.39999"
   transform="rotate(180,769.65505,283.72775)"
   class="st15"
   width="4.4000001"
   height="2.7"
   id="rect202" />
	
		<rect
   x="769.09998"
   y="279.79999"
   transform="rotate(180,770.9315,280.20525)"
   class="st27"
   width="3.7"
   height="0.69999999"
   id="rect204" />
	
		<rect
   x="770.70001"
   y="280.60001"
   transform="rotate(180,770.9315,281.0241)"
   class="st27"
   width="0.5"
   height="0.89999998"
   id="rect206" />
	
		<rect
   x="770.70001"
   y="280.60001"
   transform="rotate(180,770.93065,280.6833)"
   class="st12"
   width="0.5"
   height="0.2"
   id="rect208" />
</g>
<g
   class="st28"
   id="g222"
   transform="translate(-2.1295099,-23.2)">
	<defs
   id="defs213">
		<polygon
   id="SVGID_00000047049920948773522160000001257066598389932722_"
   class="st28"
   points="851.6,272.2 829.6,272.2 829.6,285.6 851.6,285.7 " />
	</defs>
	<clipPath
   id="SVGID_00000170277874043516128040000006567138776226546335_">
		<use
   xlink:href="#SVGID_00000047049920948773522160000001257066598389932722_"
   style="overflow:visible"
   id="use215"
   x="0"
   y="0"
   width="100%"
   height="100%" />
	</clipPath>
	<polygon
   style="fill:#ffffff"
   points="835.7,245.2 832.3,247.4 849.2,302.1 852.5,300 "
   clip-path="url(#SVGID_00000170277874043516128040000006567138776226546335_)"
   id="polygon218" />
	<polygon
   style="fill:#ffffff"
   points="831.2,247.6 825.2,251.4 842,306.1 848,302.3 "
   clip-path="url(#SVGID_00000170277874043516128040000006567138776226546335_)"
   id="polygon220" />
</g>
<g
   id="g330"
   transform="translate(-2.1295099,-23.2)">
	<path
   class="st15"
   d="M 428.5,295.2 H 345 c -6.3,0 -11.5,-5.1 -11.5,-11.5 v 0 c 0,-6.3 5.1,-11.5 11.5,-11.5 h 83.4 c 6.3,0 11.5,5.1 11.5,11.5 v 0 c 0.1,6.4 -5.1,11.5 -11.4,11.5 z"
   id="path224" />
	<g
   id="g254">
		<g
   id="g244">
			<g
   id="g228">
				<path
   class="st16"
   d="m 409.6,279.1 0.5,1.8 v 2.8 l 0.2,2.4 -0.2,2.8 h -68.9 c 0,0 -1.4,0.1 -1.4,0 0,-0.1 -0.8,-3 -0.8,-3.2 0,-0.2 0.5,-5.4 0.5,-5.4 0,-0.1 1.2,-2.4 1.2,-2.4 l 30,1 39,-0.2"
   id="path226" />
			</g>
			<defs
   id="defs233">
				
					<filter
   id="Adobe_OpacityMaskFilter_00000096750543054812495180000009021734709616797315_"
   filterUnits="userSpaceOnUse"
   x="339.10001"
   y="278.10001"
   width="71.199997"
   height="11">
					
						<feColorMatrix
   type="matrix"
   values="-1 0 0 0 1  0 -1 0 0 1  0 0 -1 0 1  0 0 0 1 0"
   color-interpolation-filters="sRGB"
   result="source"
   id="feColorMatrix230" />
				</filter>
			</defs>
			
				<mask
   maskUnits="userSpaceOnUse"
   x="339.1"
   y="278.1"
   width="71.2"
   height="11"
   id="SVGID_00000046329917595448546270000001497075355088196021_">
				<g
   style="filter:url(#Adobe_OpacityMaskFilter_00000096750543054812495180000009021734709616797315_)"
   id="g237">
					<image
   style="overflow:visible"
   width="76"
   height="16"
   xlink:href="64FD346F.jpg"
   transform="translate(337,275.8)"
   id="image235">
					</image>
				</g>
			</mask>
			<g
   mask="url(#SVGID_00000046329917595448546270000001497075355088196021_)"
   id="g242">
				<path
   class="st19"
   d="m 409.6,279.1 0.5,1.8 v 2.8 l 0.2,2.4 -0.2,2.8 h -68.9 c 0,0 -1.4,0.1 -1.4,0 0,-0.1 -0.8,-3 -0.8,-3.2 0,-0.2 0.5,-5.4 0.5,-5.4 0,-0.1 1.2,-2.4 1.2,-2.4 l 30,1 39,-0.2"
   id="path240" />
			</g>
		</g>
		<path
   class="st20"
   d="m 386,284 c 0,0 -1.6,-0.1 -2.7,-1.1 -1.1,-1 -2.1,-1.1 -2.9,-0.2 -0.8,0.9 1,2.1 -1.2,2.8 -2.2,0.7 -9.6,-7.7 -12.4,-5.3 -2.8,2.4 -2.6,5.2 -4.3,5.3 -1.7,0.2 -1.2,2.6 -0.2,2.3 1,-0.3 2.6,-2 3.6,-1.5 1,0.5 3.4,2.6 4,-0.2 0.6,-2.9 -0.3,-4.2 1.4,-2.8 1.6,1.4 3.4,-0.6 4.4,1.7 1.1,2.3 2.2,4 3.4,2.1 1.2,-1.9 0.7,-2.1 1.3,-1.9 0.6,0.2 2.6,-1.6 3.4,-0.7 0.7,0.8 2.5,2 2.2,-0.5 z"
   id="path246" />
		<path
   class="st20"
   d="m 400.7,286 c 0,0 0,-2.5 -0.7,-3.3 -0.7,-0.8 -1.4,-1.6 -2.8,-0.8 -1.4,0.9 -1.2,0.8 -1.9,0.2 -0.7,-0.6 -1.9,-0.6 -2,0 -0.1,0.6 -0.8,0.5 0.6,1.6 1.4,1.1 0.6,1 1.7,2.2 0.9,1.3 2.9,2.8 5.1,0.1 z"
   id="path248" />
		<path
   class="st20"
   d="m 349.3,286 c 1.3,0.6 1.7,-4.2 0.4,-4.9 -0.3,-0.2 -0.6,-0.2 -0.9,-0.1 -1.3,0.5 -2.6,3.4 -3.2,2.9 -0.6,-0.5 -1.9,-0.6 -1.9,0.9 0.1,1.5 0.1,1.2 0.3,2.1 0.2,0.9 2.8,0.6 3,-0.5 0.2,-1.1 1.7,-1.5 1.9,-0.9 -0.1,0.2 0.1,0.4 0.4,0.5 z"
   id="path250" />
		<path
   class="st20"
   d="m 352.6,283.2 c 0,0 -0.7,-0.1 -0.7,0.5 0,0.6 -0.4,3.6 0.4,2.9 0.7,-0.6 0.5,-1.8 0.3,-3.4 z"
   id="path252" />
	</g>
	<path
   class="st21"
   d="M 344.8,287.3 H 429 c 1.5,0 2.7,-1.2 2.7,-2.7 v -1.8 c 0,-1.5 -1.2,-2.7 -2.7,-2.7 h -84.1 c -1.5,0 -2.7,1.2 -2.7,2.7 v 1.8 c -0.1,1.5 1.1,2.7 2.6,2.7 z"
   id="path256" />
	<path
   class="st22"
   d="M 429.7,292.9 H 344 c -2.9,0 -7.5,-3.4 -7.5,-7.6 v -2.9 c 0,-4.2 4.6,-7.6 7.5,-7.6 h 85.7 c 2.9,0 7.4,3.4 7.4,7.6 v 2.9 c 0,4.2 -4.5,7.6 -7.4,7.6 z m -85.8,-14.4 c -1.5,0 -2.7,1.7 -2.7,3.9 v 2.9 c 0,2.1 1.2,3.9 2.7,3.9 h 85.7 c 1.5,0 2.7,-1.7 2.7,-3.9 v -2.9 c 0,-2.1 -1.2,-3.9 -2.7,-3.9 z"
   id="path258" />
	<path
   class="st23"
   d="m 429.2,289.4 h -84.6 c -2.2,0 -4,-2.6 -4,-5.8 0,-3.2 1.8,-5.8 4,-5.8 h 84.6 c 2.2,0 4,2.6 4,5.8 0,3.2 -1.8,5.8 -4,5.8 z M 344.6,280 c -1.4,0 -2.5,1.6 -2.5,3.6 0,2 1.1,3.6 2.5,3.6 h 84.6 c 1.4,0 2.5,-1.6 2.5,-3.6 0,-2 -1.1,-3.6 -2.5,-3.6 z"
   id="path260" />
	<g
   class="st24"
   id="g268">
		<defs
   id="defs263">
			<path
   id="SVGID_00000116215813904229268950000012571695028320901791_"
   class="st24"
   d="m 420.7,292.9 h -86.3 c -2.9,0 -5.3,-3.4 -5.3,-7.6 v -2.9 c 0,-4.2 2.4,-7.6 5.3,-7.6 h 86.3 c 2.9,0 5.3,3.4 5.3,7.6 v 2.9 c 0,4.2 -2.4,7.6 -5.3,7.6 z m -86.4,-14.4 c -1.5,0 -2.7,1.7 -2.7,3.9 v 2.9 c 0,2.1 1.2,3.9 2.7,3.9 h 86.3 c 1.5,0 2.7,-1.7 2.7,-3.9 v -2.9 c 0,-2.1 -1.2,-3.9 -2.7,-3.9 z" />
		</defs>
		<clipPath
   id="SVGID_00000009579946904616653680000008481453339400575675_">
			<use
   xlink:href="#SVGID_00000116215813904229268950000012571695028320901791_"
   style="overflow:visible"
   id="use265"
   x="0"
   y="0"
   width="100%"
   height="100%" />
		</clipPath>
	</g>
	<g
   id="g274">
		<circle
   class="st25"
   cx="425"
   cy="276.29999"
   id="ellipse270"
   r="1.2" />
		<polygon
   class="st26"
   points="424.7,276.3 424.4,277 424.8,276.5 425.1,276.1 425.6,275.7 425.1,275.9 "
   id="polygon272" />
	</g>
	<g
   id="g280">
		<circle
   class="st25"
   cx="425"
   cy="291.5"
   id="ellipse276"
   r="1.2" />
		<polygon
   class="st26"
   points="424.7,291.6 424.4,292.3 424.8,291.7 425.1,291.3 425.6,291 425.1,291.2 "
   id="polygon278" />
	</g>
	<g
   id="g286">
		<circle
   class="st25"
   cx="348.70001"
   cy="276.29999"
   id="ellipse282"
   r="1.2" />
		<polygon
   class="st26"
   points="348.3,276.3 348.1,277 348.4,276.5 348.8,276.1 349.3,275.7 348.7,275.9 "
   id="polygon284" />
	</g>
	<g
   id="g292">
		<circle
   class="st25"
   cx="348.70001"
   cy="291.5"
   id="ellipse288"
   r="1.2" />
		<polygon
   class="st26"
   points="348.3,291.6 348.1,292.3 348.4,291.7 348.8,291.3 349.3,291 348.7,291.2 "
   id="polygon290" />
	</g>
	<g
   id="g298">
		<circle
   class="st25"
   cx="387.29999"
   cy="276.29999"
   id="ellipse294"
   r="1.2" />
		<polygon
   class="st26"
   points="386.9,276.3 386.7,277 387,276.5 387.4,276.1 387.9,275.7 387.3,275.9 "
   id="polygon296" />
	</g>
	<g
   id="g304">
		<circle
   class="st25"
   cx="387.29999"
   cy="291.5"
   id="ellipse300"
   r="1.2" />
		<polygon
   class="st26"
   points="386.9,291.6 386.7,292.3 387,291.7 387.4,291.3 387.9,291 387.3,291.2 "
   id="polygon302" />
	</g>
	<g
   id="g310">
		<circle
   class="st25"
   cx="435"
   cy="283.70001"
   id="ellipse306"
   r="1.2" />
		<polygon
   class="st26"
   points="434.6,283.8 434.4,284.4 434.7,283.9 435.1,283.5 435.6,283.1 435,283.4 "
   id="polygon308" />
	</g>
	<g
   id="g316">
		<circle
   class="st25"
   cx="338.5"
   cy="283.70001"
   id="ellipse312"
   r="1.2" />
		<polygon
   class="st26"
   points="338.2,283.8 338,284.4 338.3,283.9 338.7,283.5 339.2,283.1 338.6,283.4 "
   id="polygon314" />
	</g>
	<rect
   x="439.29999"
   y="281.5"
   class="st15"
   width="4.4000001"
   height="4.5"
   id="rect318" />
	<path
   class="st15"
   d="m 444,285.6 h -3.6 c -0.2,0 -0.4,-0.2 -0.4,-0.4 v -3 c 0,-0.2 0.2,-0.4 0.4,-0.4 h 3.6 c 0.2,0 0.4,0.2 0.4,0.4 v 3 c -0.1,0.2 -0.2,0.4 -0.4,0.4 z"
   id="path320" />
	<rect
   x="441.20001"
   y="282.39999"
   class="st15"
   width="4.4000001"
   height="2.7"
   id="rect322" />
	<rect
   x="440.29999"
   y="279.79999"
   class="st27"
   width="3.7"
   height="0.69999999"
   id="rect324" />
	<rect
   x="441.89999"
   y="280.60001"
   class="st27"
   width="0.5"
   height="0.89999998"
   id="rect326" />
	<rect
   x="441.89999"
   y="280.60001"
   class="st12"
   width="0.5"
   height="0.2"
   id="rect328" />
</g>
<g
   id="g522"
   transform="translate(-2.1295099,-23.2)">
	<path
   class="st15"
   d="m 1080.1,329 -3.3,-60.8 -15.4,0.8 3.3,60.9 z m -10.3,-48.4 c -2.7,0.1 -5,-1.9 -5.1,-4.6 -0.1,-2.7 1.9,-5 4.6,-5.1 2.7,-0.1 5,1.9 5.1,4.6 0.1,2.7 -1.9,5 -4.6,5.1 z m 0.9,16.1 c -2.7,0.1 -5,-1.9 -5.1,-4.6 -0.1,-2.7 1.9,-5 4.6,-5.1 2.7,-0.1 5,1.9 5.1,4.6 0.1,2.7 -1.9,5 -4.6,5.1 z m 0.8,16.1 c -2.7,0.1 -5,-1.9 -5.1,-4.6 -0.1,-2.7 1.9,-5 4.6,-5.1 2.7,-0.1 5,1.9 5.1,4.6 0.1,2.7 -1.9,5 -4.6,5.1 z m 0.9,16.1 c -2.7,0.1 -5,-1.9 -5.1,-4.6 -0.1,-2.7 1.9,-5 4.6,-5.1 2.7,-0.1 5,1.9 5.1,4.6 0.1,2.7 -1.9,4.9 -4.6,5.1 z"
   id="path332" />
	<polygon
   class="st10"
   points="1073.9,270 1068.2,268.6 1061.5,271.4 1058.6,271.9 1056.5,263.9 1082.8,264.3 1083.2,272 1080.3,276 "
   id="polygon334" />
	<polygon
   class="st12"
   points="1061.2,272.1 1060.1,273.9 1061,271.5 1064.1,270.2 1067.8,268.7 1064.3,271.1 "
   id="polygon336" />
	<polygon
   class="st12"
   points="1069,265.9 1066.6,259.4 1068.2,265.9 1069,267.1 1067.3,269 1069.1,268.8 1070.1,267.5 "
   id="polygon338" />
	<path
   class="st12"
   d="m 1063,270.6 -1.2,-1.1 -0.3,-1.6 -1.8,-1.6 -3.8,-0.4 -2.7,-2.7 -1.4,0.1 1.3,0.4 2.4,2.5 3.6,0.6 -1.5,0.8 -0.8,-0.1 c 0,0 0.8,0.6 0.8,0.5 0,-0.1 1.8,-0.7 1.8,-0.7 l 1.2,1 0.4,3 z"
   id="path340" />
	<polygon
   class="st32"
   points="1084.3,291.9 1081.1,286 1058.8,286.2 1055.8,292.1 "
   id="polygon342" />
	<path
   class="st15"
   d="m 763.9,326.8 -57.7,-41.3 -10.4,14.6 57.8,41.3 z M 712.4,301 c -1.8,2.5 -5.3,3.1 -7.9,1.3 -2.5,-1.8 -3.1,-5.3 -1.3,-7.9 1.8,-2.5 5.3,-3.1 7.9,-1.3 2.5,1.8 3.1,5.3 1.3,7.9 z m 15.3,10.9 c -1.8,2.5 -5.3,3.1 -7.9,1.3 -2.5,-1.8 -3.1,-5.3 -1.3,-7.9 1.8,-2.5 5.3,-3.1 7.9,-1.3 2.5,1.8 3.1,5.4 1.3,7.9 z m 15.2,10.9 c -1.8,2.5 -5.3,3.1 -7.9,1.3 -2.6,-1.8 -3.1,-5.3 -1.3,-7.9 1.8,-2.5 5.3,-3.1 7.9,-1.3 2.6,1.8 3.1,5.4 1.3,7.9 z m 15.3,10.9 c -1.8,2.5 -5.3,3.1 -7.9,1.3 -2.5,-1.8 -3.1,-5.3 -1.3,-7.9 1.8,-2.5 5.3,-3.1 7.9,-1.3 2.5,1.9 3.1,5.4 1.3,7.9 z"
   id="path344" />
	<polygon
   class="st32"
   points="758.6,315.3 752.6,318.5 752.6,340.8 758.6,343.8 "
   id="polygon346" />
	<polygon
   class="st10"
   points="705.7,289.5 700.2,293.7 697.9,301.8 696.3,304.8 687.4,300.9 707,277.2 715.6,283.5 710.2,289.3 "
   id="polygon348" />
	<polygon
   class="st12"
   points="709.8,289.3 705.7,289.5 708.3,287.6 714.3,288.1 719,287.6 715.1,289 "
   id="polygon350" />
	<polygon
   class="st12"
   points="698.4,302.6 699.2,304.9 697.6,302.3 698.7,298.6 700.1,294.1 699.7,299 "
   id="polygon352" />
	<polygon
   class="st12"
   points="705.6,285.4 700.4,280.3 705,286 706.8,286.2 707.2,289.1 708.4,287.3 707.9,285.5 "
   id="polygon354" />
	<path
   class="st12"
   d="m 707.5,286.9 -1.9,0.3 -1.7,-0.9 -2.7,0.5 -3.1,3.2 -4.4,0.5 -0.9,1.3 1.3,-0.9 4,-0.4 3.1,-2.9 -0.3,2 -0.6,0.7 c 0,0 1.1,-0.3 1,-0.3 0,0 0.6,-2.2 0.6,-2.2 l 1.8,-0.3 3.1,1.8 z"
   id="path356" />
	<path
   class="st15"
   d="m 965,332 -18.5,-58 -14.7,4.7 18.6,58.1 z m -22.2,-44.2 c -2.6,0.8 -5.3,-0.6 -6.1,-3.1 -0.8,-2.6 0.6,-5.3 3.1,-6.1 2.6,-0.8 5.3,0.6 6.1,3.1 0.9,2.5 -0.5,5.3 -3.1,6.1 z m 4.9,15.3 c -2.6,0.8 -5.3,-0.6 -6.1,-3.1 -0.8,-2.6 0.6,-5.3 3.1,-6.1 2.6,-0.8 5.3,0.6 6.1,3.1 0.9,2.6 -0.5,5.3 -3.1,6.1 z m 4.9,15.4 c -2.6,0.8 -5.3,-0.6 -6.1,-3.1 -0.8,-2.6 0.6,-5.3 3.1,-6.1 2.6,-0.8 5.3,0.6 6.1,3.1 0.9,2.5 -0.5,5.2 -3.1,6.1 z m 5,15.3 c -2.6,0.8 -5.3,-0.6 -6.1,-3.1 -0.8,-2.6 0.6,-5.3 3.1,-6.1 2.6,-0.8 5.3,0.6 6.1,3.1 0.8,2.6 -0.6,5.3 -3.1,6.1 z"
   id="path358" />
	<polygon
   class="st10"
   points="944.1,276.5 938.2,276.5 932.5,280.9 929.8,282.2 925.7,274.9 951.3,268.7 954,277.4 947.3,278.6 "
   id="polygon360" />
	<polygon
   class="st12"
   points="947,278.4 944.1,276.5 945.6,276.3 950,279.5 954.4,280.1 950.9,280.9 "
   id="polygon362" />
	<polygon
   class="st12"
   points="932.4,281.7 931.7,283.7 932,281.1 934.6,279.1 937.9,276.8 935.1,279.9 "
   id="polygon364" />
	<polygon
   class="st12"
   points="954.4,271.7 952.9,274 944.5,276.3 938,269 944.4,276.8 953.5,274.3 "
   id="polygon366" />
	<path
   class="st12"
   d="m 921.6,277.9 1.6,0.5 1,1.3 2.3,0.6 3.6,-1.4 3.6,1.2 1.2,-0.7 -1.4,0.2 -3.3,-1.2 -3.5,1.1 1,-1.4 0.7,-0.3 c 0,0 -1,-0.1 -0.9,-0.1 0,0 -1.3,1.5 -1.3,1.5 l -1.5,-0.4 -1.7,-2.5 z"
   id="path368" />
	<g
   id="g514">
		<polygon
   class="st14"
   points="758.3,339.6 1135.1,326.1 772.8,325.1 "
   id="polygon370" />
		<path
   class="st32"
   d="m 1142.1,346.7 h -132 -251.2 v -34.9 l 143.4,-0.7 64.7,-17.5 c 0,1 125.8,-1 126.3,-1 1.5,0 31,-30.5 31,-30.5 l 46.3,42.6 z"
   id="path372" />
		<g
   id="g378">
			<circle
   class="st27"
   cx="1131.4"
   cy="336.70001"
   r="5.9000001"
   id="circle374" />
			<polygon
   class="st26"
   points="1134.2,340.4 1133.2,336.9 1131.2,334.8 1128.4,333.7 1130.8,335.6 1132.7,337.6 "
   id="polygon376" />
		</g>
		<g
   id="g384">
			<circle
   class="st27"
   cx="774.79999"
   cy="336.70001"
   r="5.9000001"
   id="circle380" />
			<polygon
   class="st26"
   points="777.5,340.4 776.5,336.9 774.5,334.8 771.7,333.7 774.2,335.6 776,337.6 "
   id="polygon382" />
		</g>
		<g
   id="g390">
			<circle
   class="st27"
   cx="953.09998"
   cy="336.70001"
   r="5.9000001"
   id="circle386" />
			<polygon
   class="st26"
   points="955.8,340.4 954.8,336.9 952.9,334.8 950.1,333.7 952.5,335.6 954.3,337.6 "
   id="polygon388" />
		</g>
		<g
   id="g396">
			<circle
   class="st27"
   cx="858.20001"
   cy="336.70001"
   r="5.9000001"
   id="circle392" />
			<polygon
   class="st26"
   points="861,340.4 860,336.9 858,334.8 855.2,333.7 857.6,335.6 859.5,337.6 "
   id="polygon394" />
		</g>
		<g
   id="g402">
			<circle
   class="st27"
   cx="1045.8"
   cy="336.70001"
   r="5.9000001"
   id="circle398" />
			<polygon
   class="st26"
   points="1048.5,340.4 1047.5,336.9 1045.6,334.8 1042.8,333.7 1045.2,335.6 1047,337.6 "
   id="polygon400" />
		</g>
		<rect
   x="1039.3"
   y="346.89999"
   class="st27"
   width="13.1"
   height="3.5999999"
   id="rect404" />
		<rect
   x="1124.9"
   y="347"
   class="st27"
   width="13.1"
   height="3.5999999"
   id="rect406" />
		<rect
   x="851.20001"
   y="347"
   class="st27"
   width="13.1"
   height="3.5999999"
   id="rect408" />
		<rect
   x="768.20001"
   y="346.89999"
   class="st27"
   width="13.1"
   height="3.5999999"
   id="rect410" />
		<rect
   x="945.90002"
   y="347"
   class="st27"
   width="13.1"
   height="3.5999999"
   id="rect412" />
		<polygon
   class="st33"
   points="1080.7,292.7 1090,292.3 1099.6,286.7 1109,277.2 1120.5,284.9 1127.1,287.7 1137,297.4 1127.4,299.1 1108.9,296 1103.4,302.7 1099.4,300.3 1084.5,306.8 1078.1,308.4 1077.1,301.8 1075.4,297.1 "
   id="polygon414" />
		<path
   class="st34"
   d="m 1127.3,299 -18.5,-3.1 -5.5,6.7 -4,-2.4 -10,4.4 c 0,0 0,-3.3 -0.1,-3.4 -0.1,-0.1 3.2,-1.9 3.2,-1.9 0,0 1.7,-4.2 1.8,-4.3 0.1,-0.1 3.2,1 3.3,0.9 0.1,-0.1 4.7,-2.8 4.7,-2.8 0,0 1.1,-2.6 1.1,-2.7 0,-0.1 1.4,0 1.4,0 l 0.5,-2.1 1.4,1.5 h 2.3 l 1,-1.5 1.4,-1 -0.3,1.2 2.7,2.1 2.7,-0.6 1.8,2.4 4.3,1.5 2.4,-1 4.8,3.6 3.8,1.5 z"
   id="path416" />
		<rect
   x="773.90002"
   y="286.10001"
   class="st35"
   width="104.9"
   height="24.700001"
   id="rect418" />
		<g
   id="g428">
			<rect
   x="782.70001"
   y="292.70001"
   class="st36"
   width="3"
   height="19.200001"
   id="rect420" />
			<polygon
   class="st36"
   points="773.4,311.2 767.4,311.2 772.4,292 773.4,292 "
   id="polygon422" />
			<polygon
   class="st36"
   points="879.5,310.6 885.4,310.6 880.4,291.4 879.5,291.4 "
   id="polygon424" />
			<path
   class="st37"
   d="m 785.7,311.9 h 5.7 l -5.7,-19.2 c 0,0 0,19 0,19.2 z"
   id="path426" />
		</g>
		<g
   id="g434">
			<rect
   x="810.09998"
   y="292.60001"
   class="st36"
   width="3"
   height="19.200001"
   id="rect430" />
			<path
   class="st37"
   d="m 813.1,311.8 h 5.7 l -5.7,-19.2 c 0,0 0,19 0,19.2 z"
   id="path432" />
		</g>
		<g
   id="g440">
			<rect
   x="832.40002"
   y="292.39999"
   class="st36"
   width="3"
   height="19.200001"
   id="rect436" />
			<path
   class="st37"
   d="m 835.4,311.6 h 5.7 l -5.7,-19.2 c 0,0 0,19 0,19.2 z"
   id="path438" />
		</g>
		<g
   id="g446">
			<rect
   x="859.20001"
   y="292.20001"
   class="st36"
   width="3"
   height="19.200001"
   id="rect442" />
			<path
   class="st37"
   d="m 862.2,311.4 5.7,0.1 -5.7,-19.3 c 0,0 0,19 0,19.2 z"
   id="path444" />
		</g>
		<g
   id="g472">
			<rect
   x="1020.6"
   y="303"
   class="st38"
   width="39"
   height="0.80000001"
   id="rect448" />
			<rect
   x="1020.6"
   y="314.5"
   class="st38"
   width="39"
   height="0.89999998"
   id="rect450" />
			<rect
   x="1058.6"
   y="303.60001"
   class="st38"
   width="1"
   height="11.3"
   id="rect452" />
			<rect
   x="1020.6"
   y="303.39999"
   class="st38"
   width="1"
   height="11.6"
   id="rect454" />
			<g
   id="g470">
				<rect
   x="1023"
   y="304.29999"
   class="st39"
   width="34.099998"
   height="0.69999999"
   id="rect456" />
				<rect
   x="1023"
   y="305.79999"
   class="st39"
   width="34.099998"
   height="0.69999999"
   id="rect458" />
				<rect
   x="1023"
   y="307.29999"
   class="st39"
   width="34.099998"
   height="0.69999999"
   id="rect460" />
				<rect
   x="1023"
   y="308.79999"
   class="st39"
   width="34.099998"
   height="0.69999999"
   id="rect462" />
				<rect
   x="1023"
   y="310.29999"
   class="st39"
   width="34.099998"
   height="0.69999999"
   id="rect464" />
				<rect
   x="1023"
   y="311.79999"
   class="st39"
   width="34.099998"
   height="0.69999999"
   id="rect466" />
				<rect
   x="1023"
   y="313.20001"
   class="st39"
   width="34.099998"
   height="0.69999999"
   id="rect468" />
			</g>
		</g>
		<g
   id="g498">
			<rect
   x="972.79999"
   y="303"
   class="st38"
   width="39"
   height="0.80000001"
   id="rect474" />
			<rect
   x="972.79999"
   y="314.5"
   class="st38"
   width="39"
   height="0.89999998"
   id="rect476" />
			<rect
   x="1010.8"
   y="303.60001"
   class="st38"
   width="1"
   height="11.3"
   id="rect478" />
			<rect
   x="972.79999"
   y="303.39999"
   class="st38"
   width="1"
   height="11.6"
   id="rect480" />
			<g
   id="g496">
				<rect
   x="975.29999"
   y="304.29999"
   class="st39"
   width="34.099998"
   height="0.69999999"
   id="rect482" />
				<rect
   x="975.29999"
   y="305.79999"
   class="st39"
   width="34.099998"
   height="0.69999999"
   id="rect484" />
				<rect
   x="975.29999"
   y="307.29999"
   class="st39"
   width="34.099998"
   height="0.69999999"
   id="rect486" />
				<rect
   x="975.29999"
   y="308.79999"
   class="st39"
   width="34.099998"
   height="0.69999999"
   id="rect488" />
				<rect
   x="975.29999"
   y="310.29999"
   class="st39"
   width="34.099998"
   height="0.69999999"
   id="rect490" />
				<rect
   x="975.29999"
   y="311.79999"
   class="st39"
   width="34.099998"
   height="0.69999999"
   id="rect492" />
				<rect
   x="975.29999"
   y="313.20001"
   class="st39"
   width="34.099998"
   height="0.69999999"
   id="rect494" />
			</g>
		</g>
		<polyline
   class="st40"
   points="923.7,311.6 940.8,311.6 955.8,326.7 1066.1,326.7 1071,321.8 1122.4,321.8 1137.5,309.9   "
   id="polyline500" />
		<circle
   class="st38"
   cx="1138"
   cy="309.20001"
   r="1.4"
   id="circle502" />
		<circle
   class="st38"
   cx="1018.3"
   cy="335.10001"
   r="1.4"
   id="circle504" />
		<circle
   class="st38"
   cx="923.40002"
   cy="311.79999"
   r="1.4"
   id="circle506" />
		<polyline
   class="st40"
   points="990.3,326.7 998.8,335.1 1017.3,335.1   "
   id="polyline508" />
		<polyline
   class="st40"
   points="1028.2,303.4 1023.4,298.5 1007.9,298.5 1003.8,303.4   "
   id="polyline510" />
		<line
   class="st40"
   x1="1016"
   y1="326.39999"
   x2="1016"
   y2="298.5"
   id="line512" />
	</g>
	<polygon
   class="st32"
   points="959.8,295 955.1,290.1 933.6,295.9 932.2,302.4 "
   id="polygon516" />
	<path
   class="st12"
   d="m 697.6,302.3 -4.9,-1.3 -7.3,1.3 c 0,0 -14.3,-5.3 -14,-5.3 0.3,0 14.3,3.8 14.3,3.8 l 7.4,-1.4 5.6,-0.9 -0.7,3.7"
   id="path518" />
	<polyline
   class="st12"
   points="950,279.5 957,281.3 950.9,280.9  "
   id="polyline520" />
</g>
<g
   id="g718"
   transform="translate(-2.1295099,-23.2)">
	<path
   class="st15"
   d="m 148.2,330 3.3,-60.9 -15.4,-0.8 -3.3,60.8 z m -9.6,-54.5 c 0.1,-2.7 2.4,-4.7 5.1,-4.6 2.7,0.1 4.7,2.4 4.6,5.1 -0.1,2.7 -2.4,4.7 -5.1,4.6 -2.7,-0.1 -4.7,-2.4 -4.6,-5.1 z m -0.9,16.1 c 0.1,-2.7 2.4,-4.7 5.1,-4.6 2.7,0.1 4.7,2.4 4.6,5.1 -0.1,2.7 -2.4,4.7 -5.1,4.6 -2.6,-0.1 -4.7,-2.4 -4.6,-5.1 z m -0.8,16.1 c 0.1,-2.7 2.4,-4.7 5.1,-4.6 2.7,0.1 4.7,2.4 4.6,5.1 -0.1,2.7 -2.4,4.7 -5.1,4.6 -2.7,-0.1 -4.8,-2.4 -4.6,-5.1 z m -0.9,16.1 c 0.1,-2.7 2.4,-4.7 5.1,-4.6 2.7,0.1 4.7,2.4 4.6,5.1 -0.1,2.7 -2.4,4.7 -5.1,4.6 -2.7,-0.2 -4.7,-2.4 -4.6,-5.1 z"
   id="path524" />
	<polygon
   class="st10"
   points="139.1,270 144.8,268.6 151.5,271.4 154.4,271.9 156.6,263.9 130.2,264.3 129.7,273.4 136.5,272.9 "
   id="polygon526" />
	<polygon
   class="st12"
   points="136.8,272.6 139.1,270 134.4,268.9 133.2,272.4 130,276.2 133.7,276 "
   id="polygon528" />
	<polygon
   class="st12"
   points="151.8,272.1 152.9,273.9 152,271.5 149,270.2 145.2,268.7 148.7,271.1 "
   id="polygon530" />
	<polygon
   class="st12"
   points="139.1,270 136.3,270 129.8,264.2 132.4,254.9 129.4,264.4 136.4,270.7 "
   id="polygon532" />
	<polygon
   class="st12"
   points="144,265.9 146.4,259.4 144.8,265.9 144,267.1 145.7,269 143.9,268.8 142.9,267.5 "
   id="polygon534" />
	<path
   class="st12"
   d="m 150,270.6 1.2,-1.1 0.3,-1.6 1.8,-1.6 3.8,-0.4 2.7,-2.7 1.4,0.1 -1.3,0.4 -2.4,2.5 -3.6,0.6 1.5,0.8 0.8,-0.1 c 0,0 -0.8,0.6 -0.8,0.5 0,0 -1.8,-0.7 -1.8,-0.7 l -1.2,1 -0.4,3 z"
   id="path536" />
	<polygon
   class="st32"
   points="128.7,291.9 131.9,286 154.2,286.2 157.2,292.1 "
   id="polygon538" />
	<path
   class="st15"
   d="m 459.9,341.4 57.2,-42.2 -10.7,-14.4 -57.1,42.1 z m 41.8,-49 c 2.5,-1.9 6.1,-1.3 7.9,1.2 1.9,2.5 1.3,6.1 -1.2,7.9 -2.5,1.9 -6.1,1.3 -7.9,-1.2 -1.9,-2.5 -1.3,-6.1 1.2,-7.9 z m -15.1,11.1 c 2.5,-1.9 6.1,-1.3 7.9,1.2 1.9,2.5 1.3,6.1 -1.2,7.9 -2.5,1.9 -6.1,1.3 -7.9,-1.2 -1.9,-2.5 -1.3,-6 1.2,-7.9 z m -15.1,11.2 c 2.5,-1.9 6.1,-1.3 7.9,1.2 1.9,2.5 1.3,6.1 -1.2,7.9 -2.5,1.9 -6.1,1.3 -7.9,-1.2 -1.9,-2.5 -1.3,-6.1 1.2,-7.9 z m -15.1,11.1 c 2.5,-1.9 6.1,-1.3 7.9,1.2 1.9,2.5 1.3,6.1 -1.2,7.9 -2.5,1.9 -6.1,1.3 -7.9,-1.2 -1.9,-2.5 -1.3,-6 1.2,-7.9 z"
   id="path540" />
	<polygon
   class="st32"
   points="454.5,315.3 460.4,318.5 460.4,340.8 454.5,343.8 "
   id="polygon542" />
	<polygon
   class="st10"
   points="507,288.7 512.5,292.8 515,300.8 516.6,303.9 525.5,299.8 505.5,276.4 497,282.8 502.5,288.6 "
   id="polygon544" />
	<polygon
   class="st12"
   points="502.9,288.6 507,288.7 504.4,286.8 498.4,287.4 493.7,287 497.6,288.3 "
   id="polygon546" />
	<polygon
   class="st12"
   points="514.5,301.6 513.8,304 515.3,301.4 514.2,297.7 512.7,293.2 513.2,298.1 "
   id="polygon548" />
	<polygon
   class="st12"
   points="507,288.7 505,286.2 505.3,276.1 512.3,265.3 504.8,275.8 504.4,286.8 "
   id="polygon550" />
	<polygon
   class="st12"
   points="514.3,290.1 519.5,285 515,290.7 513.2,291 512.9,293.9 511.6,292.1 512.1,290.3 "
   id="polygon552" />
	<path
   class="st12"
   d="m 514.5,299 1.9,0.3 1.6,-0.9 2.8,0.4 3.2,3.2 4.4,0.4 0.9,1.3 -1.4,-0.9 -4,-0.3 -3.2,-2.8 0.4,1.9 0.6,0.7 c 0,0 -1.1,-0.3 -1,-0.3 0,0 -0.7,-2.2 -0.7,-2.2 l -1.8,-0.3 -3.1,1.9 z"
   id="path554" />
	<polygon
   class="st11"
   points="503.7,286.9 504.4,286.8 504.8,275.8 512.3,265.3 504.4,275.3 "
   id="polygon556" />
	<path
   class="st15"
   d="M 262.6,336.8 281.2,278.7 266.5,274 248,332 Z m 4.4,-55.1 c 0.8,-2.6 3.5,-4 6.1,-3.1 2.6,0.8 4,3.5 3.1,6.1 -0.8,2.6 -3.5,4 -6.1,3.1 -2.5,-0.8 -3.9,-3.6 -3.1,-6.1 z m -4.9,15.3 c 0.8,-2.6 3.5,-4 6.1,-3.1 2.6,0.8 4,3.5 3.1,6.1 -0.8,2.6 -3.5,4 -6.1,3.1 -2.5,-0.8 -3.9,-3.5 -3.1,-6.1 z m -4.9,15.4 c 0.8,-2.6 3.5,-4 6.1,-3.1 2.6,0.8 4,3.5 3.1,6.1 -0.8,2.6 -3.5,4 -6.1,3.1 -2.5,-0.9 -3.9,-3.6 -3.1,-6.1 z m -4.9,15.3 c 0.8,-2.6 3.5,-4 6.1,-3.1 2.6,0.8 4,3.5 3.1,6.1 -0.8,2.6 -3.5,4 -6.1,3.1 -2.5,-0.8 -3.9,-3.5 -3.1,-6.1 z"
   id="path558" />
	<polygon
   class="st10"
   points="268.9,276.5 274.8,276.5 280.5,280.9 283.2,282.2 287.3,274.9 261.7,268.7 259,277.4 265.7,278.6 "
   id="polygon560" />
	<polygon
   class="st12"
   points="280.6,281.7 281.3,283.7 281,281.1 278.4,279.1 275.1,276.8 277.9,279.9 "
   id="polygon562" />
	<path
   class="st12"
   d="m 274.1,276.8 1.2,-1.1 0.3,-1.6 1.8,-1.6 3.8,-0.4 2.7,-2.7 1.4,0.1 -1.3,0.5 -2.4,2.5 -3.6,0.6 1.5,0.8 0.8,-0.1 c 0,0 -0.8,0.6 -0.8,0.5 0,-0.1 -1.8,-0.7 -1.8,-0.7 l -1.2,1 -0.4,3 z"
   id="path564" />
	<g
   id="g710">
		<polygon
   class="st14"
   points="77.9,326.1 454.7,339.6 440.2,325.1 "
   id="polygon566" />
		<path
   class="st32"
   d="m 42.4,304.7 46.3,-42.6 c 0,0 29.5,30.5 31,30.5 0.5,0 126.3,2 126.3,1 l 64.7,17.5 143.4,0.7 v 34.9 H 202.9 70.9 Z"
   id="path568" />
		<g
   id="g574">
			<circle
   class="st27"
   cx="81.599998"
   cy="336.70001"
   r="5.9000001"
   id="circle570" />
			<polygon
   class="st26"
   points="79.8,336.9 78.8,340.4 80.3,337.6 82.2,335.6 84.6,333.7 81.8,334.8 "
   id="polygon572" />
		</g>
		<g
   id="g580">
			<circle
   class="st27"
   cx="438.20001"
   cy="336.70001"
   r="5.9000001"
   id="circle576" />
			<polygon
   class="st26"
   points="436.5,336.9 435.5,340.4 437,337.6 438.8,335.6 441.3,333.7 438.5,334.8 "
   id="polygon578" />
		</g>
		<g
   id="g586">
			<circle
   class="st27"
   cx="259.89999"
   cy="336.70001"
   r="5.9000001"
   id="circle582" />
			<polygon
   class="st26"
   points="258.2,336.9 257.2,340.4 258.7,337.6 260.5,335.6 262.9,333.7 260.1,334.8 "
   id="polygon584" />
		</g>
		<g
   id="g592">
			<circle
   class="st27"
   cx="354.79999"
   cy="336.70001"
   r="5.9000001"
   id="circle588" />
			<polygon
   class="st26"
   points="353,336.9 352,340.4 353.5,337.6 355.4,335.6 357.8,333.7 355,334.8 "
   id="polygon590" />
		</g>
		<g
   id="g598">
			<circle
   class="st27"
   cx="167.2"
   cy="336.70001"
   r="5.9000001"
   id="circle594" />
			<polygon
   class="st26"
   points="165.5,336.9 164.5,340.4 166,337.6 167.8,335.6 170.2,333.7 167.4,334.8 "
   id="polygon596" />
		</g>
		<rect
   x="160.60001"
   y="346.89999"
   class="st27"
   width="13.1"
   height="3.5999999"
   id="rect600" />
		<rect
   x="75"
   y="347"
   class="st27"
   width="13.1"
   height="3.5999999"
   id="rect602" />
		<rect
   x="348.70001"
   y="347"
   class="st27"
   width="13.1"
   height="3.5999999"
   id="rect604" />
		<rect
   x="431.70001"
   y="346.89999"
   class="st27"
   width="13.1"
   height="3.5999999"
   id="rect606" />
		<rect
   x="254"
   y="347"
   class="st27"
   width="13.1"
   height="3.5999999"
   id="rect608" />
		<polygon
   class="st33"
   points="113.6,300.3 109.6,302.7 104.1,296 85.6,299.1 76,297.4 85.9,287.7 92.5,284.9 104,277.2 113.4,286.7 123,292.3 132.3,292.7 137.6,297.1 135.9,301.8 134.9,308.4 128.5,306.8 "
   id="polygon610" />
		<path
   class="st34"
   d="m 79.5,298 3.8,-1.5 4.8,-3.6 2.4,1 4.3,-1.5 1.8,-2.4 2.7,0.6 2.7,-2.1 -0.3,-1.2 1.4,1 1,1.5 h 2.3 l 1.4,-1.5 0.5,2.1 c 0,0 1.4,-0.1 1.4,0 0,0.1 1.1,2.7 1.1,2.7 0,0 4.6,2.7 4.7,2.8 0.1,0.1 3.2,-1 3.3,-0.9 0.1,0.1 1.8,4.3 1.8,4.3 0,0 3.3,1.8 3.2,1.9 -0.1,0.1 -0.1,3.4 -0.1,3.4 l -10,-4.4 -4,2.4 -5.5,-6.7 -18.5,3.1 z"
   id="path612" />
		<rect
   x="334.20001"
   y="286.10001"
   class="st35"
   width="104.9"
   height="24.700001"
   id="rect614" />
		<g
   id="g624">
			<rect
   x="427.29999"
   y="292.70001"
   class="st36"
   width="3"
   height="19.200001"
   id="rect616" />
			<polygon
   class="st36"
   points="439.6,292 440.6,292 445.6,311.2 439.6,311.2 "
   id="polygon618" />
			<polygon
   class="st36"
   points="333.5,291.4 332.6,291.4 327.6,310.6 333.5,310.6 "
   id="polygon620" />
			<path
   class="st37"
   d="m 427.3,292.7 -5.7,19.2 h 5.7 c 0,-0.2 0,-19.2 0,-19.2 z"
   id="path622" />
		</g>
		<g
   id="g630">
			<rect
   x="399.89999"
   y="292.60001"
   class="st36"
   width="3"
   height="19.200001"
   id="rect626" />
			<path
   class="st37"
   d="m 399.9,292.6 -5.7,19.2 h 5.7 c 0,-0.2 0,-19.2 0,-19.2 z"
   id="path628" />
		</g>
		<g
   id="g636">
			<rect
   x="377.60001"
   y="292.39999"
   class="st36"
   width="3"
   height="19.200001"
   id="rect632" />
			<path
   class="st37"
   d="m 377.6,292.4 -5.7,19.2 h 5.7 c 0,-0.2 0,-19.2 0,-19.2 z"
   id="path634" />
		</g>
		<g
   id="g642">
			<rect
   x="350.79999"
   y="292.20001"
   class="st36"
   width="3"
   height="19.200001"
   id="rect638" />
			<path
   class="st37"
   d="m 350.8,292.2 -5.7,19.3 5.7,-0.1 c 0,-0.2 0,-19.2 0,-19.2 z"
   id="path640" />
		</g>
		<g
   id="g668">
			<rect
   x="153.39999"
   y="303"
   class="st38"
   width="39"
   height="0.80000001"
   id="rect644" />
			<rect
   x="153.39999"
   y="314.5"
   class="st38"
   width="39"
   height="0.89999998"
   id="rect646" />
			<rect
   x="153.39999"
   y="303.60001"
   class="st38"
   width="1"
   height="11.3"
   id="rect648" />
			<rect
   x="191.39999"
   y="303.39999"
   class="st38"
   width="1"
   height="11.6"
   id="rect650" />
			<g
   id="g666">
				<rect
   x="155.89999"
   y="304.29999"
   class="st39"
   width="34.099998"
   height="0.69999999"
   id="rect652" />
				<rect
   x="155.89999"
   y="305.79999"
   class="st39"
   width="34.099998"
   height="0.69999999"
   id="rect654" />
				<rect
   x="155.89999"
   y="307.29999"
   class="st39"
   width="34.099998"
   height="0.69999999"
   id="rect656" />
				<rect
   x="155.89999"
   y="308.79999"
   class="st39"
   width="34.099998"
   height="0.69999999"
   id="rect658" />
				<rect
   x="155.89999"
   y="310.29999"
   class="st39"
   width="34.099998"
   height="0.69999999"
   id="rect660" />
				<rect
   x="155.89999"
   y="311.79999"
   class="st39"
   width="34.099998"
   height="0.69999999"
   id="rect662" />
				<rect
   x="155.89999"
   y="313.20001"
   class="st39"
   width="34.099998"
   height="0.69999999"
   id="rect664" />
			</g>
		</g>
		<g
   id="g694">
			<rect
   x="201.2"
   y="303"
   class="st38"
   width="39"
   height="0.80000001"
   id="rect670" />
			<rect
   x="201.2"
   y="314.5"
   class="st38"
   width="39"
   height="0.89999998"
   id="rect672" />
			<rect
   x="201.2"
   y="303.60001"
   class="st38"
   width="1"
   height="11.3"
   id="rect674" />
			<rect
   x="239.2"
   y="303.39999"
   class="st38"
   width="1"
   height="11.6"
   id="rect676" />
			<g
   id="g692">
				<rect
   x="203.60001"
   y="304.29999"
   class="st39"
   width="34.099998"
   height="0.69999999"
   id="rect678" />
				<rect
   x="203.60001"
   y="305.79999"
   class="st39"
   width="34.099998"
   height="0.69999999"
   id="rect680" />
				<rect
   x="203.60001"
   y="307.29999"
   class="st39"
   width="34.099998"
   height="0.69999999"
   id="rect682" />
				<rect
   x="203.60001"
   y="308.79999"
   class="st39"
   width="34.099998"
   height="0.69999999"
   id="rect684" />
				<rect
   x="203.60001"
   y="310.29999"
   class="st39"
   width="34.099998"
   height="0.69999999"
   id="rect686" />
				<rect
   x="203.60001"
   y="311.79999"
   class="st39"
   width="34.099998"
   height="0.69999999"
   id="rect688" />
				<rect
   x="203.60001"
   y="313.20001"
   class="st39"
   width="34.099998"
   height="0.69999999"
   id="rect690" />
			</g>
		</g>
		<polyline
   class="st40"
   points="75.5,309.9 90.6,321.8 142,321.8 146.9,326.7 257.2,326.7 272.2,311.6 289.3,311.6   "
   id="polyline696" />
		<circle
   class="st38"
   cx="75"
   cy="309.20001"
   r="1.4"
   id="circle698" />
		<circle
   class="st38"
   cx="194.7"
   cy="335.10001"
   r="1.4"
   id="circle700" />
		<circle
   class="st38"
   cx="289.60001"
   cy="311.79999"
   r="1.4"
   id="circle702" />
		<polyline
   class="st40"
   points="195.7,335.1 214.2,335.1 222.7,326.7   "
   id="polyline704" />
		<polyline
   class="st40"
   points="209.2,303.4 205.1,298.5 189.6,298.5 184.8,303.4   "
   id="polyline706" />
		<line
   class="st40"
   x1="197"
   y1="298.5"
   x2="197"
   y2="326.39999"
   id="line708" />
	</g>
	<polygon
   class="st32"
   points="253.2,295 257.9,290.1 279.4,295.9 280.8,302.4 "
   id="polygon712" />
	<polygon
   class="st12"
   points="261.6,277.7 259.3,276.5 261.3,278.6 265,278.6 265.8,278.6 268.9,276.6 265.5,276.2 "
   id="polygon714" />
	<path
   class="st12"
   d="m 270,276.5 c 0,0 -0.1,-1.4 0,-1.6 0.1,-0.2 -1.1,-3.6 -1.1,-3.6 l 5.7,-5.1 -4,4.4 4,6.2 z"
   id="path716" />
</g>
<g
   id="g880"
   transform="translate(-2.1295099,-23.2)">
	<g
   id="g722">
		<path
   class="st12"
   d="m 34.9,300.2 v 23.4 H 44 l 29.3,-13.3 v -23.4 z m 10.6,14.9 c -3,0 -5.4,-2.4 -5.4,-5.4 0,-3 2.4,-5.4 5.4,-5.4 3,0 5.4,2.4 5.4,5.4 0,3 -2.4,5.4 -5.4,5.4 z m 14.8,-7 c -3,0 -5.4,-2.4 -5.4,-5.4 0,-3 2.4,-5.4 5.4,-5.4 3,0 5.4,2.4 5.4,5.4 0,3 -2.5,5.4 -5.4,5.4 z"
   id="path720" />
	</g>
	<path
   class="st41"
   d="M 31.9,303.2 H 12 c -5.2,0 -9.4,-4.2 -9.4,-9.4 v -70.9 c 0,-9.7 7.8,-17.5 17.5,-17.5 H 26 c 9.7,0 17.5,7.8 17.5,17.5 v 68.9 c -0.1,6.3 -5.3,11.4 -11.6,11.4 z"
   id="path724" />
	<rect
   x="2.2"
   y="220"
   class="st12"
   width="32.400002"
   height="4.5999999"
   id="rect726" />
	<rect
   x="2.2"
   y="285.60001"
   class="st12"
   width="32.400002"
   height="4.5999999"
   id="rect728" />
	<rect
   x="2.2"
   y="255.89999"
   class="st12"
   width="32.400002"
   height="4.5999999"
   id="rect730" />
	<polygon
   class="st12"
   points="41.5,231.9 88.7,261.4 73.3,295.4 41.5,295.4 "
   id="polygon732" />
	<g
   id="g754">
		<polygon
   class="st42"
   points="53.9,208.7 29.2,208.7 26.6,224.6 26.1,224.7 18.6,232.1 18.6,295.4 64.4,295.4 64.4,235.1 62.6,229.7 53.9,224.9 "
   id="polygon734" />
		<polygon
   class="st43"
   points="38.4,351.3 20.9,351.3 14.6,330.9 44.7,330.9 "
   id="polygon736" />
		<rect
   x="18.299999"
   y="240.10001"
   class="st44"
   width="19.299999"
   height="36.799999"
   id="rect738" />
		<polygon
   class="st45"
   points="37.6,276.9 42.4,276.9 42.4,237.1 37.6,240.1 "
   id="polygon740" />
		<g
   id="g746">
			<path
   class="st42"
   d="m 41.3,324.1 7.5,-1.5 v -39.1 -2.4 0 -0.4 0 c -0.2,-2.2 -2,-3.9 -4.3,-3.9 H 15 c -2.3,0 -4.1,1.7 -4.3,3.9 v 0 0.4 0 41.5 l 7.5,1.5 c 7.6,1.6 15.4,1.6 23.1,0 z"
   id="path742" />
			<path
   class="st46"
   d="m 41.3,331.6 3.4,-0.7 -0.1,-0.6 v 0 l 4.2,-6.7 v -1 l -7.5,1.5 c -7.7,1.5 -15.5,1.5 -23.1,0 l -7.5,-1.5 v 1 l 4.2,6.7 -0.3,0.6 3.6,0.7 c 7.6,1.5 15.4,1.5 23.1,0 z"
   id="path744" />
		</g>
		<polygon
   class="st47"
   points="18.3,240.1 37.6,240.1 42.4,237.1 18.3,237.1 "
   id="polygon748" />
		<path
   class="st46"
   d="m 48.8,288.7 -7.5,0.9 c -7.7,0.9 -15.5,0.9 -23.1,0 l -7.5,-0.9 V 284 l 7.5,0.9 c 7.7,0.9 15.5,0.9 23.1,0 l 7.5,-0.9 z"
   id="path750" />
		<path
   class="st46"
   d="m 48.8,309.1 -7.5,0.9 c -7.7,0.9 -15.5,0.9 -23.1,0 l -7.5,-0.9 v -4.7 l 7.5,0.9 c 7.7,0.9 15.5,0.9 23.1,0 l 7.5,-0.9 z"
   id="path752" />
	</g>
	<path
   class="st43"
   d="m 49.2,187.8 c -0.4,-1.7 -1.9,-3 -3.7,-3 h -8.3 c -1.8,0 -3.3,1.3 -3.7,3 l -3,14.8 2.8,2.9 v 3.3 h 16.2 v -3.3 l 2.6,-2.9 z"
   id="path756" />
	<g
   id="g762">
		<circle
   class="st27"
   cx="61.099998"
   cy="233.5"
   r="1.6"
   id="circle758" />
		<polygon
   class="st26"
   points="61.5,233.6 61.8,234.5 61.4,233.7 60.9,233.2 60.3,232.7 61,233 "
   id="polygon760" />
	</g>
	<g
   id="g768">
		<circle
   class="st27"
   cx="21.9"
   cy="233.5"
   r="1.6"
   id="circle764" />
		<polygon
   class="st26"
   points="22.4,233.6 22.7,234.5 22.3,233.7 21.8,233.2 21.1,232.7 21.9,233 "
   id="polygon766" />
	</g>
	<g
   id="g774">
		<circle
   class="st27"
   cx="61.799999"
   cy="292.39999"
   r="1.6"
   id="circle770" />
		<polygon
   class="st26"
   points="62.2,292.4 62.5,293.3 62.1,292.6 61.6,292.1 61,291.6 61.7,291.9 "
   id="polygon772" />
	</g>
	<g
   id="g780">
		<circle
   class="st27"
   cx="21.9"
   cy="272"
   r="1.6"
   id="circle776" />
		<polygon
   class="st26"
   points="22.4,272.1 22.7,273 22.3,272.2 21.8,271.7 21.1,271.2 21.9,271.5 "
   id="polygon778" />
	</g>
	<g
   id="g786">
		<circle
   class="st27"
   cx="21.9"
   cy="244.2"
   r="1.6"
   id="circle782" />
		<polygon
   class="st26"
   points="22.4,244.3 22.7,245.2 22.3,244.5 21.8,244 21.1,243.4 21.9,243.8 "
   id="polygon784" />
	</g>
	<g
   id="g792">
		<circle
   class="st27"
   cx="33.799999"
   cy="272"
   r="1.6"
   id="circle788" />
		<polygon
   class="st26"
   points="34.3,272.1 34.6,273 34.2,272.2 33.7,271.7 33,271.2 33.8,271.5 "
   id="polygon790" />
	</g>
	<g
   id="g798">
		<circle
   class="st27"
   cx="33.799999"
   cy="244.2"
   r="1.6"
   id="circle794" />
		<polygon
   class="st26"
   points="34.3,244.3 34.6,245.2 34.2,244.5 33.7,244 33,243.4 33.8,243.8 "
   id="polygon796" />
	</g>
	<polyline
   class="st48"
   points="37.9,208.7 37.9,218.8 45.2,226.2 45.2,232.7 54.1,241.6 54.1,246.3 45,246.4 45,270.4 54.1,270.6    54.1,279 58.4,284.7 58.4,295.4  "
   id="polyline800" />
	<g
   id="g826">
		<rect
   x="46.099998"
   y="248.10001"
   class="st38"
   width="15.3"
   height="0.60000002"
   id="rect802" />
		<rect
   x="46.099998"
   y="256.60001"
   class="st38"
   width="15.3"
   height="0.69999999"
   id="rect804" />
		<rect
   x="46.099998"
   y="248.5"
   class="st38"
   width="0.2"
   height="8.5"
   id="rect806" />
		<rect
   x="61.200001"
   y="248.3"
   class="st38"
   width="0.2"
   height="8.6000004"
   id="rect808" />
		<g
   id="g824">
			<rect
   x="46.5"
   y="249"
   class="st39"
   width="14.5"
   height="0.5"
   id="rect810" />
			<rect
   x="46.5"
   y="250.10001"
   class="st39"
   width="14.5"
   height="0.5"
   id="rect812" />
			<rect
   x="46.5"
   y="251.3"
   class="st39"
   width="14.5"
   height="0.5"
   id="rect814" />
			<rect
   x="46.5"
   y="252.39999"
   class="st39"
   width="14.5"
   height="0.5"
   id="rect816" />
			<rect
   x="46.5"
   y="253.5"
   class="st39"
   width="14.5"
   height="0.5"
   id="rect818" />
			<rect
   x="46.5"
   y="254.60001"
   class="st39"
   width="14.5"
   height="0.5"
   id="rect820" />
			<rect
   x="46.5"
   y="255.7"
   class="st39"
   width="14.5"
   height="0.5"
   id="rect822" />
		</g>
	</g>
	<g
   id="g852">
		<rect
   x="46.099998"
   y="259.70001"
   class="st38"
   width="15.3"
   height="0.60000002"
   id="rect828" />
		<rect
   x="46.099998"
   y="268.20001"
   class="st38"
   width="15.3"
   height="0.69999999"
   id="rect830" />
		<rect
   x="46.099998"
   y="260.10001"
   class="st38"
   width="0.2"
   height="8.5"
   id="rect832" />
		<rect
   x="61.200001"
   y="259.89999"
   class="st38"
   width="0.2"
   height="8.6000004"
   id="rect834" />
		<g
   id="g850">
			<rect
   x="46.5"
   y="260.60001"
   class="st39"
   width="14.5"
   height="0.5"
   id="rect836" />
			<rect
   x="46.5"
   y="261.79999"
   class="st39"
   width="14.5"
   height="0.5"
   id="rect838" />
			<rect
   x="46.5"
   y="262.89999"
   class="st39"
   width="14.5"
   height="0.5"
   id="rect840" />
			<rect
   x="46.5"
   y="264"
   class="st39"
   width="14.5"
   height="0.5"
   id="rect842" />
			<rect
   x="46.5"
   y="265.10001"
   class="st39"
   width="14.5"
   height="0.5"
   id="rect844" />
			<rect
   x="46.5"
   y="266.20001"
   class="st39"
   width="14.5"
   height="0.5"
   id="rect846" />
			<rect
   x="46.5"
   y="267.29999"
   class="st39"
   width="14.5"
   height="0.5"
   id="rect848" />
		</g>
	</g>
	
		<rect
   x="2.0999999"
   y="205.5"
   transform="matrix(0.8236,-0.5671,0.5671,0.8236,-116.1391,42.157)"
   class="st49"
   width="15.2"
   height="4.5"
   id="rect854" />
	
		<rect
   x="3.7"
   y="206.5"
   transform="matrix(0.8236,-0.5671,0.5671,0.8236,-116.4763,42.5727)"
   class="st50"
   width="13"
   height="4.0999999"
   id="rect856" />
	<g
   id="g878">
		<path
   class="st51"
   d="m 13.2,204 -8.3,5.7 -0.8,-1.1 C 4,208.4 4,208.1 4.2,207.9 l 7.6,-5.2 c 0.2,-0.1 0.5,-0.1 0.6,0.1 z"
   id="path858" />
		
			<rect
   x="4.9000001"
   y="208.3"
   transform="matrix(0.8228,-0.5683,0.5683,0.8228,-117.8292,39.8831)"
   class="st52"
   width="0.40000001"
   height="1.2"
   id="rect860" />
		
			<rect
   x="12.1"
   y="203.3"
   transform="matrix(0.8228,-0.5683,0.5683,0.8228,-113.7018,43.114)"
   class="st52"
   width="0.40000001"
   height="1.2"
   id="rect862" />
		
			<rect
   x="11.2"
   y="204"
   transform="matrix(-0.8228,0.5683,-0.5683,-0.8228,136.9944,366.3573)"
   class="st52"
   width="0.40000001"
   height="1.2"
   id="rect864" />
		
			<rect
   x="10.3"
   y="204.60001"
   transform="matrix(0.8228,-0.5683,0.5683,0.8228,-114.7336,42.3063)"
   class="st52"
   width="0.40000001"
   height="1.2"
   id="rect866" />
		
			<rect
   x="9.3999996"
   y="205.2"
   transform="matrix(-0.8228,0.5683,-0.5683,-0.8228,134.4036,369.6671)"
   class="st52"
   width="0.40000001"
   height="1.2"
   id="rect868" />
		
			<rect
   x="8.5"
   y="205.8"
   transform="matrix(0.8228,-0.5683,0.5683,0.8228,-115.7655,41.4986)"
   class="st52"
   width="0.40000001"
   height="1.2"
   id="rect870" />
		
			<rect
   x="6.6999998"
   y="207.10001"
   transform="matrix(-0.8228,0.5683,-0.5683,-0.8228,130.5174,374.6317)"
   class="st52"
   width="0.40000001"
   height="1.2"
   id="rect872" />
		
			<rect
   x="7.5999999"
   y="206.5"
   transform="matrix(0.8228,-0.5683,0.5683,0.8228,-116.2814,41.0947)"
   class="st52"
   width="0.40000001"
   height="1.2"
   id="rect874" />
		
			<rect
   x="5.8000002"
   y="207.7"
   transform="matrix(-0.8228,0.5683,-0.5683,-0.8228,129.222,376.2866)"
   class="st52"
   width="0.40000001"
   height="1.2"
   id="rect876" />
	</g>
</g>
<g
   id="g1042"
   transform="translate(-2.1295099,-23.2)">
	<g
   id="g884">
		<path
   class="st12"
   d="m 1139.6,287 v 23.4 l 29.3,13.3 h 9.1 v -23.4 z m 22.4,22.9 c 0,-3 2.4,-5.4 5.4,-5.4 3,0 5.4,2.4 5.4,5.4 0,3 -2.4,5.4 -5.4,5.4 -3,-0.1 -5.4,-2.5 -5.4,-5.4 z m -14.7,-7.1 c 0,-3 2.4,-5.4 5.4,-5.4 3,0 5.4,2.4 5.4,5.4 0,3 -2.4,5.4 -5.4,5.4 -3,0 -5.4,-2.4 -5.4,-5.4 z"
   id="path882" />
	</g>
	<path
   class="st41"
   d="m 1181,303.4 h 19.9 c 5.2,0 9.4,-4.2 9.4,-9.4 v -71 c 0,-9.7 -7.8,-17.5 -17.5,-17.5 h -5.9 c -9.7,0 -17.5,7.8 -17.5,17.5 v 68.9 c 0.1,6.3 5.3,11.5 11.6,11.5 z"
   id="path886" />
	
		<rect
   x="1178.4"
   y="220.2"
   transform="rotate(180,1194.5301,222.46865)"
   class="st12"
   width="32.400002"
   height="4.5999999"
   id="rect888" />
	
		<rect
   x="1178.4"
   y="285.70001"
   transform="rotate(180,1194.5301,287.98115)"
   class="st12"
   width="32.400002"
   height="4.5999999"
   id="rect890" />
	
		<rect
   x="1178.4"
   y="256"
   transform="rotate(180,1194.5301,258.27845)"
   class="st12"
   width="32.400002"
   height="4.5999999"
   id="rect892" />
	<polygon
   class="st12"
   points="1171.4,232.1 1124.2,261.5 1139.6,295.6 1171.4,295.6 "
   id="polygon894" />
	<g
   id="g916">
		<polygon
   class="st42"
   points="1159.1,208.9 1183.8,208.9 1186.3,224.8 1186.9,224.8 1194.3,232.3 1194.3,295.6 1148.5,295.6 1148.5,235.2 1150.3,229.9 1159.1,225.1 "
   id="polygon896" />
		<polygon
   class="st43"
   points="1174.5,351.4 1192,351.4 1198.3,331.1 1168.2,331.1 "
   id="polygon898" />
		
			<rect
   x="1175.3"
   y="240.2"
   transform="rotate(180,1184.9781,258.6154)"
   class="st44"
   width="19.299999"
   height="36.799999"
   id="rect900" />
		<polygon
   class="st45"
   points="1175.3,277 1170.5,277 1170.5,237.2 1175.3,240.2 "
   id="polygon902" />
		<g
   id="g908">
			<path
   class="st42"
   d="m 1171.6,324.3 -7.5,-1.5 v -39.1 -2.4 0 -0.4 0 c 0.2,-2.2 2,-3.9 4.3,-3.9 h 29.5 c 2.3,0 4.1,1.7 4.3,3.9 v 0 0.4 0 41.5 l -7.5,1.5 c -7.6,1.5 -15.4,1.5 -23.1,0 z"
   id="path904" />
			<path
   class="st46"
   d="m 1171.6,331.8 -3.4,-0.7 0.1,-0.6 v 0 l -4.2,-6.7 v -1 l 7.5,1.5 c 7.7,1.5 15.5,1.5 23.2,0 l 7.5,-1.5 v 1 l -4.2,6.7 0.3,0.6 -3.6,0.7 c -7.7,1.5 -15.5,1.5 -23.2,0 z"
   id="path906" />
		</g>
		<polygon
   class="st47"
   points="1194.6,240.2 1175.3,240.2 1170.5,237.2 1194.6,237.2 "
   id="polygon910" />
		<path
   class="st46"
   d="m 1164.1,288.8 7.5,0.9 c 7.7,0.9 15.5,0.9 23.1,0 l 7.5,-0.9 v -4.7 l -7.5,0.9 c -7.7,0.9 -15.5,0.9 -23.1,0 l -7.5,-0.9 z"
   id="path912" />
		<path
   class="st46"
   d="m 1164.1,309.2 7.5,0.9 c 7.7,0.9 15.5,0.9 23.1,0 l 7.5,-0.9 v -4.7 l -7.5,0.9 c -7.7,0.9 -15.5,0.9 -23.1,0 l -7.5,-0.9 z"
   id="path914" />
	</g>
	<path
   class="st43"
   d="m 1163.8,187.9 c 0.4,-1.7 1.9,-3 3.7,-3 h 8.3 c 1.8,0 3.3,1.3 3.7,3 l 3,14.8 -2.8,2.9 v 3.3 h -16.2 v -3.3 l -2.6,-2.9 z"
   id="path918" />
	<g
   id="g924">
		<circle
   class="st27"
   cx="1151.9"
   cy="233.60001"
   r="1.6"
   id="circle920" />
		<polygon
   class="st26"
   points="1151.4,233.7 1151.1,234.6 1151.5,233.9 1152,233.3 1152.7,232.8 1151.9,233.1 "
   id="polygon922" />
	</g>
	<g
   id="g930">
		<circle
   class="st27"
   cx="1191"
   cy="233.60001"
   r="1.6"
   id="circle926" />
		<polygon
   class="st26"
   points="1190.5,233.7 1190.3,234.6 1190.7,233.9 1191.1,233.3 1191.8,232.8 1191,233.1 "
   id="polygon928" />
	</g>
	<g
   id="g936">
		<circle
   class="st27"
   cx="1151.1"
   cy="292.5"
   r="1.6"
   id="circle932" />
		<polygon
   class="st26"
   points="1150.7,292.6 1150.4,293.5 1150.8,292.7 1151.3,292.2 1151.9,291.7 1151.2,292 "
   id="polygon934" />
	</g>
	<g
   id="g942">
		<circle
   class="st27"
   cx="1191"
   cy="272.10001"
   r="1.6"
   id="circle938" />
		<polygon
   class="st26"
   points="1190.5,272.2 1190.3,273.1 1190.7,272.4 1191.1,271.8 1191.8,271.3 1191,271.6 "
   id="polygon940" />
	</g>
	<g
   id="g948">
		<path
   class="st27"
   d="m 1192.6,244.4 c 0,0.9 -0.7,1.6 -1.6,1.6 -0.9,0 -1.6,-0.7 -1.6,-1.6 0,-0.9 0.7,-1.6 1.6,-1.6 0.9,0 1.6,0.7 1.6,1.6 z"
   id="path944" />
		<polygon
   class="st26"
   points="1190.5,244.4 1190.3,245.4 1190.7,244.6 1191.1,244.1 1191.8,243.6 1191,243.9 "
   id="polygon946" />
	</g>
	<g
   id="g954">
		<circle
   class="st27"
   cx="1179.1"
   cy="272.10001"
   r="1.6"
   id="circle950" />
		<polygon
   class="st26"
   points="1178.6,272.2 1178.4,273.1 1178.7,272.4 1179.2,271.8 1179.9,271.3 1179.1,271.6 "
   id="polygon952" />
	</g>
	<g
   id="g960">
		<path
   class="st27"
   d="m 1180.6,244.4 c 0,0.9 -0.7,1.6 -1.6,1.6 -0.9,0 -1.6,-0.7 -1.6,-1.6 0,-0.9 0.7,-1.6 1.6,-1.6 0.9,0 1.6,0.7 1.6,1.6 z"
   id="path956" />
		<polygon
   class="st26"
   points="1178.6,244.4 1178.4,245.4 1178.7,244.6 1179.2,244.1 1179.9,243.6 1179.1,243.9 "
   id="polygon958" />
	</g>
	<polyline
   class="st48"
   points="1175,208.9 1175,219 1167.7,226.3 1167.7,232.8 1158.8,241.7 1158.8,246.4 1167.9,246.5    1167.9,270.6 1158.8,270.7 1158.8,279.1 1154.5,284.9 1154.5,295.6  "
   id="polyline962" />
	<g
   id="g988">
		<rect
   x="1151.5"
   y="248.2"
   class="st38"
   width="15.3"
   height="0.60000002"
   id="rect964" />
		<rect
   x="1151.5"
   y="256.79999"
   class="st38"
   width="15.3"
   height="0.69999999"
   id="rect966" />
		<rect
   x="1166.7"
   y="248.60001"
   class="st38"
   width="0.2"
   height="8.5"
   id="rect968" />
		<rect
   x="1151.5"
   y="248.5"
   class="st38"
   width="0.2"
   height="8.6000004"
   id="rect970" />
		<g
   id="g986">
			<rect
   x="1151.9"
   y="249.2"
   class="st39"
   width="14.5"
   height="0.5"
   id="rect972" />
			<rect
   x="1151.9"
   y="250.3"
   class="st39"
   width="14.5"
   height="0.5"
   id="rect974" />
			<rect
   x="1151.9"
   y="251.39999"
   class="st39"
   width="14.5"
   height="0.5"
   id="rect976" />
			<rect
   x="1151.9"
   y="252.5"
   class="st39"
   width="14.5"
   height="0.5"
   id="rect978" />
			<rect
   x="1151.9"
   y="253.60001"
   class="st39"
   width="14.5"
   height="0.5"
   id="rect980" />
			<rect
   x="1151.9"
   y="254.7"
   class="st39"
   width="14.5"
   height="0.5"
   id="rect982" />
			<rect
   x="1151.9"
   y="255.8"
   class="st39"
   width="14.5"
   height="0.5"
   id="rect984" />
		</g>
	</g>
	<g
   id="g1014">
		<rect
   x="1151.5"
   y="259.79999"
   class="st38"
   width="15.3"
   height="0.60000002"
   id="rect990" />
		<rect
   x="1151.5"
   y="268.39999"
   class="st38"
   width="15.3"
   height="0.69999999"
   id="rect992" />
		<rect
   x="1166.7"
   y="260.20001"
   class="st38"
   width="0.2"
   height="8.5"
   id="rect994" />
		<rect
   x="1151.5"
   y="260.10001"
   class="st38"
   width="0.2"
   height="8.6000004"
   id="rect996" />
		<g
   id="g1012">
			<rect
   x="1151.9"
   y="260.79999"
   class="st39"
   width="14.5"
   height="0.5"
   id="rect998" />
			<rect
   x="1151.9"
   y="261.89999"
   class="st39"
   width="14.5"
   height="0.5"
   id="rect1000" />
			<rect
   x="1151.9"
   y="263"
   class="st39"
   width="14.5"
   height="0.5"
   id="rect1002" />
			<rect
   x="1151.9"
   y="264.10001"
   class="st39"
   width="14.5"
   height="0.5"
   id="rect1004" />
			<rect
   x="1151.9"
   y="265.20001"
   class="st39"
   width="14.5"
   height="0.5"
   id="rect1006" />
			<rect
   x="1151.9"
   y="266.29999"
   class="st39"
   width="14.5"
   height="0.5"
   id="rect1008" />
			<rect
   x="1151.9"
   y="267.5"
   class="st39"
   width="14.5"
   height="0.5"
   id="rect1010" />
		</g>
	</g>
	
		<rect
   x="1195.6"
   y="205.7"
   transform="matrix(-0.8236,-0.5671,0.5671,-0.8236,2076.2668,1061.5851)"
   class="st49"
   width="15.2"
   height="4.5"
   id="rect1016" />
	
		<rect
   x="1196.2"
   y="206.60001"
   transform="matrix(-0.8236,-0.5671,0.5671,-0.8236,2074.9302,1062.6694)"
   class="st50"
   width="13"
   height="4.0999999"
   id="rect1018" />
	<g
   id="g1040">
		<path
   class="st51"
   d="m 1199.8,204.2 8.3,5.7 0.8,-1.1 c 0.1,-0.2 0.1,-0.5 -0.1,-0.7 l -7.6,-5.2 c -0.2,-0.1 -0.5,-0.1 -0.6,0.1 z"
   id="path1020" />
		
			<rect
   x="1207.7"
   y="208.5"
   transform="matrix(-0.8228,-0.5683,0.5683,-0.8228,2082.9336,1067.4816)"
   class="st52"
   width="0.40000001"
   height="1.2"
   id="rect1022" />
		
			<rect
   x="1200.4"
   y="203.5"
   transform="matrix(-0.8228,-0.5683,0.5683,-0.8228,2072.5703,1054.2426)"
   class="st52"
   width="0.40000001"
   height="1.2"
   id="rect1024" />
		
			<rect
   x="1201.3"
   y="204.10001"
   transform="matrix(0.8228,0.5683,-0.5683,0.8228,329.1927,-646.5605)"
   class="st52"
   width="0.40000001"
   height="1.2"
   id="rect1026" />
		
			<rect
   x="1202.2"
   y="204.7"
   transform="matrix(-0.8228,-0.5683,0.5683,-0.8228,2075.1611,1057.5524)"
   class="st52"
   width="0.40000001"
   height="1.2"
   id="rect1028" />
		
			<rect
   x="1203.2"
   y="205.3"
   transform="matrix(0.8228,0.5683,-0.5683,0.8228,330.2246,-647.3682)"
   class="st52"
   width="0.40000001"
   height="1.2"
   id="rect1030" />
		
			<rect
   x="1204.1"
   y="206"
   transform="matrix(-0.8228,-0.5683,0.5683,-0.8228,2077.752,1060.8621)"
   class="st52"
   width="0.40000001"
   height="1.2"
   id="rect1032" />
		
			<rect
   x="1205.9"
   y="207.2"
   transform="matrix(0.8228,0.5683,-0.5683,0.8228,331.7724,-648.5798)"
   class="st52"
   width="0.40000001"
   height="1.2"
   id="rect1034" />
		
			<rect
   x="1205"
   y="206.60001"
   transform="matrix(-0.8228,-0.5683,0.5683,-0.8228,2079.0474,1062.517)"
   class="st52"
   width="0.40000001"
   height="1.2"
   id="rect1036" />
		
			<rect
   x="1206.8"
   y="207.8"
   transform="matrix(0.8228,0.5683,-0.5683,0.8228,332.2884,-648.9836)"
   class="st52"
   width="0.40000001"
   height="1.2"
   id="rect1038" />
	</g>
</g>
<g
   class="st28"
   id="g1054"
   transform="translate(-2.1295099,-23.2)">
	<defs
   id="defs1045">
		<polygon
   id="SVGID_00000144333439612259462010000005766901365515565486_"
   class="st28"
   points="361.4,272.2 383.4,272.2 383.4,285.6 361.4,285.7 " />
	</defs>
	<clipPath
   id="SVGID_00000118383677491654722110000018367229197031323792_">
		<use
   xlink:href="#SVGID_00000144333439612259462010000005766901365515565486_"
   style="overflow:visible"
   id="use1047"
   x="0"
   y="0"
   width="100%"
   height="100%" />
	</clipPath>
	<polygon
   style="fill:#ffffff"
   points="377.4,245.2 380.7,247.4 363.9,302.1 360.5,300 "
   clip-path="url(#SVGID_00000118383677491654722110000018367229197031323792_)"
   id="polygon1050" />
	<polygon
   style="fill:#ffffff"
   points="381.9,247.6 387.9,251.4 371,306.1 365,302.3 "
   clip-path="url(#SVGID_00000118383677491654722110000018367229197031323792_)"
   id="polygon1052" />
</g>
<polyline
   class="st54"
   points="445.6,283.7 448.5,283.7 451.1,286.4 451.1,311.2 "
   id="polyline1056"
   transform="translate(-2.1295099,-23.2)" />
<polyline
   class="st54"
   points="767.4,283.7 764.5,283.7 761.9,286.4 761.9,311.2 "
   id="polyline1058"
   transform="translate(-2.1295099,-23.2)" />
<rect
   x="-288.27679"
   y="446.56927"
   transform="rotate(-90)"
   class="st15"
   width="4.4000001"
   height="4.5"
   id="rect1060" />
<path
   class="st15"
   d="m 450.67049,283.6 v 3.6 c 0,0.2 -0.2,0.4 -0.4,0.4 h -3 c -0.2,0 -0.4,-0.2 -0.4,-0.4 v -3.6 c 0,-0.2 0.2,-0.4 0.4,-0.4 h 3 c 0.2,0 0.4,0.1 0.4,0.4 z"
   id="path1062" />
<rect
   x="-286.37128"
   y="447.47479"
   transform="rotate(-90)"
   class="st15"
   width="4.4000001"
   height="2.7"
   id="rect1064" />
<rect
   x="-288.24579"
   y="757.53821"
   transform="rotate(-90)"
   class="st15"
   width="4.4000001"
   height="4.5"
   id="rect1066" />
<path
   class="st15"
   d="m 761.67049,283.6 v 3.6 c 0,0.2 -0.2,0.4 -0.4,0.4 h -3 c -0.2,0 -0.4,-0.2 -0.4,-0.4 v -3.6 c 0,-0.2 0.2,-0.4 0.4,-0.4 h 3 c 0.2,0 0.4,0.1 0.4,0.4 z"
   id="path1068" />
<rect
   x="-286.34018"
   y="758.44379"
   transform="rotate(-90)"
   class="st15"
   width="4.4000001"
   height="2.7"
   id="rect1070" />
<polygon
   class="st14"
   points="579,323.4 579.1,329.2 641.8,330.8 "
   id="polygon1072"
   transform="translate(-2.1295099,-23.2)" />
<polygon
   class="st12"
   points="579,323.4 506.4,333.8 579.1,329.2 "
   id="polygon1074"
   transform="translate(-2.1295099,-23.2)" />
<path
   class="st12"
   d="M 676.37049,302.3"
   id="path1076" />
<polygon
   class="st12"
   points="663,314.3 667.2,323.4 675.7,322.1 668.4,318.7 665.1,313.5 658.6,309.3 657.8,297.7 657.8,309.5 "
   id="polygon1078"
   transform="translate(-2.1295099,-23.2)" />
<polygon
   class="st2"
   points="481.8,184.3 498.2,112.6 534.7,106.3 495.6,110.6 "
   id="polygon1080"
   transform="translate(-2.1295099,-23.2)" />
<polygon
   class="st55"
   points="505.5,118.4 481.8,184.3 498.2,112.6 534.7,106.3 "
   id="polygon1082"
   transform="translate(-2.1295099,-23.2)" />
<path
   class="st12"
   d="M 532.57049,83.1"
   id="path1084" />
<polygon
   class="st55"
   points="426.8,144.6 397.4,136.9 351.5,131.6 337.5,133 347.5,150.3 361.9,159.3 373.4,182.8 393.9,197.1 426.2,203 "
   id="polygon1086"
   transform="translate(-2.1295099,-23.2)" />
<path
   class="st2"
   d="m 971.17049,261 c 0,0 57.30001,-5 57.70001,-5.2 0.4,-0.2 28.6,-33 28.6,-33 l -30.1,31.8 z"
   id="path1088" />
<polygon
   class="st12"
   points="793.2,206.1 803.3,221.1 798.6,228.9 798.4,240.5 789.3,255.7 793.6,240.4 794.8,228.5 792.8,220.1 783.4,226 773.9,224.1 763.3,226 758.9,213.1 766.7,216 "
   id="polygon1090"
   transform="translate(-2.1295099,-23.2)" />
<polyline
   class="st2"
   points="789.3,255.5 789.2,255.6 786.8,258.3 792.7,240.4 794.1,228.5 792.8,220.1 794.8,228.5 793.9,240.5   "
   id="polyline1092"
   transform="translate(-2.1295099,-23.2)" />
<polygon
   class="st14"
   points="766.1,218.6 758.9,213.1 766.7,216 793.2,206.1 791.4,209.9 "
   id="polygon1094"
   transform="translate(-2.1295099,-23.2)" />
</svg>
