<?xml version="1.0" encoding="UTF-8"?><svg id="Layer_1" xmlns="http://www.w3.org/2000/svg" viewBox="0 0 200.02 200"><defs><style>.cls-1,.cls-2{fill:#fff;}.cls-3{fill:#b4b4b4;}.cls-4{fill:#d7d7d7;}.cls-5{opacity:.48;}.cls-2,.cls-6{opacity:.61;}.cls-7{fill:#a5a4a4;}</style></defs><g><circle class="cls-3" cx="100" cy="100" r="100" transform="translate(-41.42 100) rotate(-45)"/><path class="cls-4" d="M.33,100.44c0,5.44,.44,10.78,1.28,15.99,14.52,8.21,31.29,12.91,49.16,12.91,55.23,0,100-44.77,100-100,0-5.44-.44-10.78-1.28-15.99C134.97,5.13,118.2,.44,100.33,.44,45.1,.44,.33,45.21,.33,100.44Z"/><path class="cls-7" d="M99.02,173.45c-39.96,0-72.47-32.51-72.47-72.47S59.06,28.51,99.02,28.51s72.47,32.51,72.47,72.47-32.51,72.47-72.47,72.47Zm0-142.5c-38.62,0-70.03,31.42-70.03,70.03s31.42,70.03,70.03,70.03,70.03-31.42,70.03-70.03S137.64,30.95,99.02,30.95Z"/><path class="cls-7" d="M185.26,47.68c6.53,13.29,10.94,28.52,11.99,44.29,4.01,60.65-46.3,109.95-105.85,104.11-35.88-3.52-63.59-23.44-81.18-52.06,16.28,33.15,50.38,55.97,89.8,55.97,55.23,0,100-44.77,100-100,0-19.17-5.4-37.08-14.76-52.3Z"/></g><path class="cls-2" d="M171.11,107.72c-.72,.22-1.56,.49-2.53,.8-3.77,35.08-33.56,62.49-69.62,62.49-16.12,0-30.97-5.47-42.82-14.66-.62,.62-1.36,1.09-2.06,1.54,12.28,9.56,28.15,15.56,44.88,15.56,37.69,0,68.74-28.92,72.15-65.73Z"/><polygon class="cls-1" points="141.49 45.04 146.92 31.32 152.01 45.23 161.52 50.67 151.82 55.75 146.38 73.2 141.3 55.56 131.78 50.13 141.49 45.04"/><path class="cls-2" d="M50.89,24.95c15.24-10.47,35.81-10.83,49.99-12.26-6.39-2.23-13.25-3.45-20.4-3.45-34.19,0-61.9,27.71-61.9,61.9,0,1.23,.04,2.46,.11,3.67,5.13-15.13,13.73-37.19,32.2-49.87Z"/><polygon class="cls-3" points="99.52 48.89 108.28 66.64 127.88 69.49 113.7 83.31 117.05 102.83 99.52 93.61 81.99 102.83 85.34 83.31 71.16 69.49 90.76 66.64 99.52 48.89"/><polygon class="cls-2" points="113.7 83.31 127.88 69.49 108.28 66.64 99.52 48.89 99.52 93.61 117.05 102.83 113.7 83.31"/><polygon class="cls-3" points="117.05 102.83 99.12 78.58 113.7 83.31 117.05 102.83"/><polygon class="cls-3" points="108.28 66.64 99.12 78.58 127.88 69.49 108.28 66.64"/><g class="cls-5"><polygon class="cls-2" points="99.12 78.58 90.76 66.64 71.16 69.49 99.12 78.58"/></g><g class="cls-5"><polygon class="cls-2" points="99.12 78.58 85.34 83.31 81.99 102.83 99.12 78.58"/></g><g class="cls-6"><g><g><path class="cls-1" d="M80.01,144.53s-12.15,5.23-17.36-7.36c0,0,12.39-.36,17.36,7.36Z"/><path class="cls-1" d="M84.88,144.3s-8.86,.51-10.47-13.7c0,0,8.29,2.56,10.47,13.7Z"/></g><g><path class="cls-1" d="M67.56,133.72s-12.97,2.59-15.45-10.81c0,0,12.19,2.22,15.45,10.81Z"/><path class="cls-1" d="M72.37,134.5s-8.77-1.34-7.39-15.57c0,0,7.57,4.23,7.39,15.57Z"/></g><g><path class="cls-1" d="M57.76,121.3s-13.23,.09-13.12-13.54c0,0,11.55,4.49,13.12,13.54Z"/><path class="cls-1" d="M62.34,122.98s-8.36-2.98-4.31-16.69c0,0,6.64,5.58,4.31,16.69Z"/></g><g><path class="cls-1" d="M50.45,107.52s-12.66-3.84-8.52-16.82c0,0,9.7,7.72,8.52,16.82Z"/><path class="cls-1" d="M54.33,110.48s-7.1-5.32,.84-17.22c0,0,4.68,7.3-.84,17.22Z"/></g><g><path class="cls-1" d="M47.95,91.81s-10.9-7.49-3.03-18.61c0,0,6.91,10.29,3.03,18.61Z"/><path class="cls-1" d="M50.75,95.81s-5.15-7.22,6.01-16.16c0,0,2.25,8.38-6.01,16.16Z"/></g></g><g><g><path class="cls-1" d="M118.03,144.53s12.15,5.23,17.36-7.36c0,0-12.39-.36-17.36,7.36Z"/><path class="cls-1" d="M113.16,144.3s8.86,.51,10.47-13.7c0,0-8.29,2.56-10.47,13.7Z"/></g><g><path class="cls-1" d="M130.48,133.72s12.97,2.59,15.45-10.81c0,0-12.19,2.22-15.45,10.81Z"/><path class="cls-1" d="M125.67,134.5s8.77-1.34,7.39-15.57c0,0-7.57,4.23-7.39,15.57Z"/></g><g><path class="cls-1" d="M140.28,121.3s13.23,.09,13.12-13.54c0,0-11.55,4.49-13.12,13.54Z"/><path class="cls-1" d="M135.71,122.98s8.36-2.98,4.31-16.69c0,0-6.64,5.58-4.31,16.69Z"/></g><g><path class="cls-1" d="M147.59,107.52s12.66-3.84,8.52-16.82c0,0-9.7,7.72-8.52,16.82Z"/><path class="cls-1" d="M143.72,110.48s7.1-5.32-.84-17.22c0,0-4.68,7.3,.84,17.22Z"/></g><g><path class="cls-1" d="M150.09,91.81s10.9-7.49,3.03-18.61c0,0-6.91,10.29-3.03,18.61Z"/><path class="cls-1" d="M147.3,95.81s5.15-7.22-6.01-16.16c0,0-2.25,8.38,6.01,16.16Z"/></g></g><circle class="cls-1" cx="99.52" cy="149.1" r="6.08"/></g></svg>