<?xml version="1.0" encoding="UTF-8" standalone="no"?>
<!-- Generator: Adobe Illustrator 27.0.0, SVG Export Plug-In . SVG Version: 6.00 Build 0)  -->

<svg
   version="1.1"
   id="Layer_1"
   x="0px"
   y="0px"
   viewBox="0 0 754.40999 274.18169"
   xml:space="preserve"
   sodipodi:docname="vitals_console.svg"
   width="754.40997"
   height="274.1817"
   inkscape:version="1.1 (c68e22c387, 2021-05-23)"
   xmlns:inkscape="http://www.inkscape.org/namespaces/inkscape"
   xmlns:sodipodi="http://sodipodi.sourceforge.net/DTD/sodipodi-0.dtd"
   xmlns:xlink="http://www.w3.org/1999/xlink"
   xmlns="http://www.w3.org/2000/svg"
   xmlns:svg="http://www.w3.org/2000/svg"><defs
   id="defs575">
	
	
	
	
	
	
	
	
	
	
	
	
	
	
	
	
	
	
	
	
</defs><sodipodi:namedview
   id="namedview573"
   pagecolor="#ffffff"
   bordercolor="#666666"
   borderopacity="1.0"
   inkscape:pageshadow="2"
   inkscape:pageopacity="0.0"
   inkscape:pagecheckerboard="0"
   showgrid="false"
   showguides="true"
   inkscape:guide-bbox="true"
   inkscape:zoom="0.47772039"
   inkscape:cx="225.02703"
   inkscape:cy="-26.165933"
   inkscape:window-width="1858"
   inkscape:window-height="1057"
   inkscape:window-x="-8"
   inkscape:window-y="-8"
   inkscape:window-maximized="1"
   inkscape:current-layer="Layer_1"><sodipodi:guide
     position="671.05869,484.13914"
     orientation="1,0"
     id="guide52994" /><sodipodi:guide
     position="620.51221,297.09784"
     orientation="0,-1"
     id="guide65616" /><sodipodi:guide
     position="1048.7195,179.10999"
     orientation="0,-1"
     id="guide65618" /><sodipodi:guide
     position="619.01221,105.39785"
     orientation="0,-1"
     id="guide65620" /></sodipodi:namedview>
<style
   type="text/css"
   id="style2">
	.st0{fill:none;}
	.st1{fill:#FFFFFF;}
	.st2{font-family:'Verdana';}
	.st3{font-size:22.4371px;}
	.st4{font-size:26.1766px;}
	.st5{fill:#727272;stroke:#5B5B5B;stroke-width:2.3444;stroke-miterlimit:10;}
	.st6{fill:#3C4C41;stroke:#2F3D33;stroke-width:4.7471;stroke-miterlimit:10;}
	.st7{fill:#4F4F4F;}
	.st8{fill:#706051;}
	.st9{opacity:0.36;}
	.st10{clip-path:url(#SVGID_00000157997431950957199410000010763921759304585886_);fill:#FFFFFF;}
	.st11{clip-path:url(#SVGID_00000013902378823662353230000004111240800790278813_);fill:#FFFFFF;}
	.st12{fill:#606060;}
	.st13{fill:#939393;}
	.st14{clip-path:url(#SVGID_00000029757706319506662500000001309155297285646765_);fill:#FFFFFF;}
	.st15{clip-path:url(#SVGID_00000052087529828851358510000017478173917012196287_);fill:#FFFFFF;}
	.st16{fill:#3A3838;}
	.st17{clip-path:url(#SVGID_00000052799663345895777090000013164707923160945308_);fill:#FFFFFF;}
	.st18{clip-path:url(#SVGID_00000067215189611019518910000007364085013734249393_);fill:#FFFFFF;}
	.st19{fill:#727272;stroke:#5B5B5B;stroke-width:1.4244;stroke-miterlimit:10;}
	.st20{fill:#3C4C41;stroke:#2F3D33;stroke-width:1.4678;stroke-miterlimit:10;}
	.st21{fill:#3C4C41;stroke:#2F3D33;stroke-width:3.3266;stroke-miterlimit:10;}
	.st22{fill:#66605C;}
	.st23{opacity:3.000000e-02;fill:#FFFFFF;enable-background:new    ;}
	.st24{fill:#727272;}
	.st25{fill:#A4FFFF;}
	.st26{fill:none;stroke:#561C1C;stroke-width:0.778;stroke-miterlimit:10;}
	.st27{fill:#3C4C41;stroke:#2F3D33;stroke-width:1.112;stroke-miterlimit:10;}
	.st28{fill:none;stroke:#561C1C;stroke-width:0.4787;stroke-miterlimit:10;}
	.st29{fill:none;stroke:#A4FFFF;stroke-width:1.8698;stroke-miterlimit:10;}
</style>
<rect
   x="11.312201"
   y="1.3021498"
   class="st0"
   width="338.20001"
   height="69.900002"
   id="rect12" /><text
   class="st1 st2 st3"
   id="text14"
   x="23.3039"
   y="20.390652"
   style="font-size:26.6667px">Time Left </text><g
   id="g546"
   transform="translate(0.0122,-45.297849)">
		<g
   id="g134">
			<path
   class="st5"
   d="M 499.2,231.3 H 211.3 c -11.3,0 -20.5,-9.2 -20.5,-20.5 v 0 c 0,-11.3 9.2,-20.5 20.5,-20.5 h 287.9 c 11.3,0 20.5,9.2 20.5,20.5 v 0 c 0,11.3 -9.2,20.5 -20.5,20.5 z"
   id="path44" />
			<path
   class="st6"
   d="M 491,223.1 H 208.1 c -6.7,0 -12,-5.3 -12,-12 v -0.8 c 0,-6.7 5.3,-12 12,-12 H 491 c 6.7,0 12,5.3 12,12 v 0.8 c -0.2,6.7 -5.5,12 -12,12 z"
   id="path46" />
			<path
   class="st7"
   d="M 494.9,227.3 H 215.5 c -9.5,0 -17.2,-6.3 -17.2,-13.9 v -5.3 c 0,-7.7 7.7,-13.9 17.2,-13.9 H 495 c 9.5,0 17.2,6.3 17.2,13.9 v 5.3 c -0.1,7.6 -7.8,13.9 -17.3,13.9 z M 215.5,201 c -4.8,0 -8.7,3.2 -8.7,7.1 v 5.3 c 0,3.9 3.9,7.1 8.7,7.1 H 495 c 4.8,0 8.7,-3.2 8.7,-7.1 v -5.3 c 0,-3.9 -3.9,-7.1 -8.7,-7.1 z"
   id="path48" />
			<path
   class="st8"
   d="M 492.3,220.7 H 216.4 c -7.2,0 -10.8,-4.7 -10.8,-10.5 0,-5.8 5.9,-10.5 13.1,-10.5 h 273.8 c 7.2,0 13.1,4.7 13.1,10.5 0,5.8 -6.1,10.5 -13.3,10.5 z M 214.1,203.8 c -4.4,0 -3.6,2.9 -3.6,6.5 0,3.6 0.3,6.5 4.7,6.5 h 277.1 c 4.4,0 8,-2.9 8,-6.5 0,-3.6 -3.6,-6.5 -8,-6.5 z"
   id="path50" />
			<g
   class="st9"
   id="g72">
				<g
   id="g60">
					<defs
   id="defs53">
						<path
   id="SVGID_1_"
   d="M 483.1,227.3 H 203.6 c -9.5,0 -17.2,-6.3 -17.2,-13.9 v -5.3 c 0,-7.7 7.7,-13.9 17.2,-13.9 h 279.5 c 9.5,0 17.2,6.3 17.2,13.9 v 5.3 c 0.1,7.6 -7.6,13.9 -17.2,13.9 z M 203.6,201 c -4.8,0 -8.7,3.2 -8.7,7.1 v 5.3 c 0,3.9 3.9,7.1 8.7,7.1 h 279.5 c 4.8,0 8.7,-3.2 8.7,-7.1 v -5.3 c 0,-3.9 -3.9,-7.1 -8.7,-7.1 z" />
					</defs>
					<clipPath
   id="SVGID_00000015339074023291510850000000327386046936659081_">
						<use
   xlink:href="#SVGID_1_"
   style="overflow:visible"
   id="use55"
   x="0"
   y="0"
   width="100%"
   height="100%" />
					</clipPath>
					<polygon
   style="fill:#ffffff"
   points="351.1,143.7 361.9,147.6 307.2,247.2 296.5,243.4 "
   clip-path="url(#SVGID_00000015339074023291510850000000327386046936659081_)"
   id="polygon58" />
				</g>
				<g
   id="g70">
					<defs
   id="defs63">
						<path
   id="SVGID_00000139277790935823728190000011181837855982362285_"
   d="M 483.1,227.3 H 203.6 c -9.5,0 -17.2,-6.3 -17.2,-13.9 v -5.3 c 0,-7.7 7.7,-13.9 17.2,-13.9 h 279.5 c 9.5,0 17.2,6.3 17.2,13.9 v 5.3 c 0.1,7.6 -7.6,13.9 -17.2,13.9 z M 203.6,201 c -4.8,0 -8.7,3.2 -8.7,7.1 v 5.3 c 0,3.9 3.9,7.1 8.7,7.1 h 279.5 c 4.8,0 8.7,-3.2 8.7,-7.1 v -5.3 c 0,-3.9 -3.9,-7.1 -8.7,-7.1 z" />
					</defs>
					<clipPath
   id="SVGID_00000096040935877550282600000015230401953845916068_">
						<use
   xlink:href="#SVGID_00000139277790935823728190000011181837855982362285_"
   style="overflow:visible"
   id="use65"
   x="0"
   y="0"
   width="100%"
   height="100%" />
					</clipPath>
					<polygon
   style="fill:#ffffff"
   points="365.6,148 385,154.9 330.4,254.6 311,247.6 "
   clip-path="url(#SVGID_00000096040935877550282600000015230401953845916068_)"
   id="polygon68" />
				</g>
			</g>
			<g
   id="g78">
				<circle
   class="st12"
   cx="221.60001"
   cy="197"
   r="2"
   id="circle74" />
				<polygon
   class="st13"
   points="222.7,195.9 221.7,196.3 220.9,197.1 220.7,198.3 221.2,197.3 221.7,196.6 "
   id="polygon76" />
			</g>
			<g
   id="g84">
				<circle
   class="st12"
   cx="221.60001"
   cy="224.2"
   r="2"
   id="circle80" />
				<polygon
   class="st13"
   points="222.7,223.1 221.7,223.5 220.9,224.2 220.7,225.4 221.2,224.5 221.7,223.8 "
   id="polygon82" />
			</g>
			<g
   id="g90">
				<circle
   class="st12"
   cx="491.89999"
   cy="197"
   r="2"
   id="circle86" />
				<polygon
   class="st13"
   points="493,195.9 491.9,196.3 491.2,197.1 491,198.3 491.5,197.3 492,196.6 "
   id="polygon88" />
			</g>
			<g
   id="g96">
				<circle
   class="st12"
   cx="491.89999"
   cy="224.2"
   r="2"
   id="circle92" />
				<polygon
   class="st13"
   points="493,223.1 491.9,223.5 491.2,224.2 491,225.4 491.5,224.5 492,223.8 "
   id="polygon94" />
			</g>
			<g
   id="g102">
				<circle
   class="st12"
   cx="413.20001"
   cy="197"
   r="2"
   id="circle98" />
				<polygon
   class="st13"
   points="414.1,195.9 413.2,196.3 412.5,197.1 412.1,198.3 412.6,197.3 413.3,196.6 "
   id="polygon100" />
			</g>
			<g
   id="g108">
				<circle
   class="st12"
   cx="413.20001"
   cy="224.2"
   r="2"
   id="circle104" />
				<polygon
   class="st13"
   points="414.1,223.1 413.2,223.5 412.5,224.2 412.1,225.4 412.6,224.5 413.3,223.8 "
   id="polygon106" />
			</g>
			<g
   id="g114">
				<circle
   class="st12"
   cx="289.39999"
   cy="197"
   r="2"
   id="circle110" />
				<polygon
   class="st13"
   points="290.5,195.9 289.5,196.3 288.9,197.1 288.5,198.3 289,197.3 289.7,196.6 "
   id="polygon112" />
			</g>
			<g
   id="g120">
				<circle
   class="st12"
   cx="289.39999"
   cy="224.2"
   r="2"
   id="circle116" />
				<polygon
   class="st13"
   points="290.5,223.1 289.5,223.5 288.9,224.2 288.5,225.4 289,224.5 289.7,223.8 "
   id="polygon118" />
			</g>
			<g
   id="g126">
				<circle
   class="st12"
   cx="201.3"
   cy="210.2"
   r="2"
   id="circle122" />
				<polygon
   class="st13"
   points="202.4,209.3 201.3,209.5 200.7,210.3 200.4,211.5 200.8,210.6 201.5,209.9 "
   id="polygon124" />
			</g>
			<g
   id="g132">
				<circle
   class="st12"
   cx="508.39999"
   cy="210.2"
   r="2"
   id="circle128" />
				<polygon
   class="st13"
   points="509.5,209.3 508.5,209.5 507.9,210.3 507.5,211.5 508,210.6 508.7,209.9 "
   id="polygon130" />
			</g>
		</g>
		<g
   id="g226">
			<path
   class="st5"
   d="M 499.2,280.7 H 211.3 c -11.3,0 -20.5,-9.2 -20.5,-20.5 v 0 c 0,-11.3 9.2,-20.5 20.5,-20.5 h 287.9 c 11.3,0 20.5,9.2 20.5,20.5 v 0 c 0,11.3 -9.2,20.5 -20.5,20.5 z"
   id="path136" />
			<path
   class="st6"
   d="M 491,272.5 H 208.1 c -6.7,0 -12,-5.3 -12,-12 v -0.8 c 0,-6.7 5.3,-12 12,-12 H 491 c 6.7,0 12,5.3 12,12 v 0.8 c -0.2,6.7 -5.5,12 -12,12 z"
   id="path138" />
			<path
   class="st7"
   d="M 494.9,276.7 H 215.5 c -9.5,0 -17.2,-6.3 -17.2,-13.9 v -5.3 c 0,-7.7 7.7,-13.9 17.2,-13.9 H 495 c 9.5,0 17.2,6.3 17.2,13.9 v 5.3 c -0.1,7.6 -7.8,13.9 -17.3,13.9 z M 215.5,250.4 c -4.8,0 -8.7,3.2 -8.7,7.1 v 5.3 c 0,3.9 3.9,7.1 8.7,7.1 H 495 c 4.8,0 8.7,-3.2 8.7,-7.1 v -5.3 c 0,-3.9 -3.9,-7.1 -8.7,-7.1 z"
   id="path140" />
			<path
   class="st8"
   d="M 492.3,270.1 H 216.4 c -7.2,0 -10.8,-4.7 -10.8,-10.5 0,-5.8 5.9,-10.5 13.1,-10.5 h 273.8 c 7.2,0 13.1,4.7 13.1,10.5 -0.3,5.9 -6.1,10.5 -13.3,10.5 z M 214.1,253.2 c -4.4,0 -3.6,2.9 -3.6,6.5 0,3.6 0.3,6.5 4.7,6.5 h 277.1 c 4.4,0 8,-2.9 8,-6.5 0,-3.6 -3.6,-6.5 -8,-6.5 z"
   id="path142" />
			<g
   class="st9"
   id="g164">
				<g
   id="g152">
					<defs
   id="defs145">
						<path
   id="SVGID_00000075153099331908598390000013020197400078623409_"
   d="M 483.1,276.7 H 203.6 c -9.5,0 -17.2,-6.3 -17.2,-13.9 v -5.3 c 0,-7.7 7.7,-13.9 17.2,-13.9 h 279.5 c 9.5,0 17.2,6.3 17.2,13.9 v 5.3 c 0.1,7.6 -7.6,13.9 -17.2,13.9 z M 203.6,250.4 c -4.8,0 -8.7,3.2 -8.7,7.1 v 5.3 c 0,3.9 3.9,7.1 8.7,7.1 h 279.5 c 4.8,0 8.7,-3.2 8.7,-7.1 v -5.3 c 0,-3.9 -3.9,-7.1 -8.7,-7.1 z" />
					</defs>
					<clipPath
   id="SVGID_00000103974439024088959760000018179197851041678013_">
						<use
   xlink:href="#SVGID_00000075153099331908598390000013020197400078623409_"
   style="overflow:visible"
   id="use147"
   x="0"
   y="0"
   width="100%"
   height="100%" />
					</clipPath>
					<polygon
   style="fill:#ffffff"
   points="351.1,193.1 361.9,197 307.2,296.7 296.5,292.8 "
   clip-path="url(#SVGID_00000103974439024088959760000018179197851041678013_)"
   id="polygon150" />
				</g>
				<g
   id="g162">
					<defs
   id="defs155">
						<path
   id="SVGID_00000145020745138251797840000002620198868453285813_"
   d="M 483.1,276.7 H 203.6 c -9.5,0 -17.2,-6.3 -17.2,-13.9 v -5.3 c 0,-7.7 7.7,-13.9 17.2,-13.9 h 279.5 c 9.5,0 17.2,6.3 17.2,13.9 v 5.3 c 0.1,7.6 -7.6,13.9 -17.2,13.9 z M 203.6,250.4 c -4.8,0 -8.7,3.2 -8.7,7.1 v 5.3 c 0,3.9 3.9,7.1 8.7,7.1 h 279.5 c 4.8,0 8.7,-3.2 8.7,-7.1 v -5.3 c 0,-3.9 -3.9,-7.1 -8.7,-7.1 z" />
					</defs>
					<clipPath
   id="SVGID_00000023999733867363437070000010438941711481884037_">
						<use
   xlink:href="#SVGID_00000145020745138251797840000002620198868453285813_"
   style="overflow:visible"
   id="use157"
   x="0"
   y="0"
   width="100%"
   height="100%" />
					</clipPath>
					<polygon
   style="fill:#ffffff"
   points="365.6,197.4 385,204.3 330.4,304 311,297.1 "
   clip-path="url(#SVGID_00000023999733867363437070000010438941711481884037_)"
   id="polygon160" />
				</g>
			</g>
			<g
   id="g170">
				<circle
   class="st12"
   cx="221.60001"
   cy="246.39999"
   r="2"
   id="circle166" />
				<polygon
   class="st13"
   points="222.7,245.4 221.7,245.8 220.9,246.6 220.7,247.8 221.2,246.7 221.7,246 "
   id="polygon168" />
			</g>
			<g
   id="g176">
				<circle
   class="st12"
   cx="221.60001"
   cy="273.60001"
   r="2"
   id="circle172" />
				<polygon
   class="st13"
   points="222.7,272.5 221.7,272.9 220.9,273.6 220.7,274.8 221.2,273.9 221.7,273.2 "
   id="polygon174" />
			</g>
			<g
   id="g182">
				<circle
   class="st12"
   cx="491.89999"
   cy="246.39999"
   r="2"
   id="circle178" />
				<polygon
   class="st13"
   points="493,245.4 491.9,245.8 491.2,246.6 491,247.8 491.5,246.7 492,246 "
   id="polygon180" />
			</g>
			<g
   id="g188">
				<circle
   class="st12"
   cx="491.89999"
   cy="273.60001"
   r="2"
   id="circle184" />
				<polygon
   class="st13"
   points="493,272.5 491.9,272.9 491.2,273.6 491,274.8 491.5,273.9 492,273.2 "
   id="polygon186" />
			</g>
			<g
   id="g194">
				<circle
   class="st12"
   cx="413.20001"
   cy="246.39999"
   r="2"
   id="circle190" />
				<polygon
   class="st13"
   points="414.1,245.4 413.2,245.8 412.5,246.6 412.1,247.8 412.6,246.7 413.3,246 "
   id="polygon192" />
			</g>
			<g
   id="g200">
				<circle
   class="st12"
   cx="413.20001"
   cy="273.60001"
   r="2"
   id="circle196" />
				<polygon
   class="st13"
   points="414.1,272.5 413.2,272.9 412.5,273.6 412.1,274.8 412.6,273.9 413.3,273.2 "
   id="polygon198" />
			</g>
			<g
   id="g206">
				<circle
   class="st12"
   cx="289.39999"
   cy="246.39999"
   r="2"
   id="circle202" />
				<polygon
   class="st13"
   points="290.5,245.4 289.5,245.8 288.9,246.6 288.5,247.8 289,246.7 289.7,246 "
   id="polygon204" />
			</g>
			<g
   id="g212">
				<circle
   class="st12"
   cx="289.39999"
   cy="273.60001"
   r="2"
   id="circle208" />
				<polygon
   class="st13"
   points="290.5,272.5 289.5,272.9 288.9,273.6 288.5,274.8 289,273.9 289.7,273.2 "
   id="polygon210" />
			</g>
			<g
   id="g218">
				<circle
   class="st12"
   cx="201.3"
   cy="259.60001"
   r="2"
   id="circle214" />
				<polygon
   class="st13"
   points="202.4,258.6 201.3,259 200.7,259.8 200.4,261 200.8,260 201.5,259.2 "
   id="polygon216" />
			</g>
			<g
   id="g224">
				<circle
   class="st12"
   cx="508.39999"
   cy="259.60001"
   r="2"
   id="circle220" />
				<polygon
   class="st13"
   points="509.5,258.6 508.5,259 507.9,259.8 507.5,261 508,260 508.7,259.2 "
   id="polygon222" />
			</g>
		</g>
		<polygon
   class="st16"
   points="142.2,184.2 198.9,143.7 198.9,248.4 141.5,251.6 "
   id="polygon228" />
		<g
   id="g320">
			<path
   class="st5"
   d="M 497.1,181.8 H 209.2 c -11.3,0 -20.5,-9.2 -20.5,-20.5 v 0 c 0,-11.3 9.2,-20.5 20.5,-20.5 h 287.9 c 11.3,0 20.5,9.2 20.5,20.5 v 0 c -0.1,11.3 -9.2,20.5 -20.5,20.5 z"
   id="path230" />
			<path
   class="st6"
   d="M 488.7,173.7 H 205.9 c -6.7,0 -12,-5.3 -12,-12 v -0.8 c 0,-6.7 5.3,-12 12,-12 h 282.8 c 6.7,0 12,5.3 12,12 v 0.8 c 0,6.7 -5.4,12 -12,12 z"
   id="path232" />
			<path
   class="st7"
   d="M 492.8,177.8 H 213.3 c -9.5,0 -17.2,-6.3 -17.2,-13.9 v -5.3 c 0,-7.7 7.7,-13.9 17.2,-13.9 h 279.5 c 9.5,0 17.2,6.3 17.2,13.9 v 5.3 c 0,7.7 -7.7,13.9 -17.2,13.9 z M 213.3,151.6 c -4.8,0 -8.7,3.2 -8.7,7.1 v 5.3 c 0,3.9 3.9,7.1 8.7,7.1 h 279.5 c 4.8,0 8.7,-3.2 8.7,-7.1 v -5.3 c 0,-3.9 -3.9,-7.1 -8.7,-7.1 0,0 -279.5,0 -279.5,0 z"
   id="path234" />
			<path
   class="st8"
   d="M 490.2,171.3 H 214.3 c -7.2,0 -10.8,-4.7 -10.8,-10.5 0,-5.8 5.9,-10.5 13.1,-10.5 h 273.8 c 7.2,0 13.1,4.7 13.1,10.5 0,5.8 -6.2,10.5 -13.3,10.5 z M 212,154.4 c -4.4,0 -3.6,2.9 -3.6,6.5 0,3.6 0.3,6.5 4.7,6.5 h 277.1 c 4.4,0 8,-2.9 8,-6.5 0,-3.6 -3.6,-6.5 -8,-6.5 0,0 -278.2,0 -278.2,0 z"
   id="path236" />
			<g
   class="st9"
   id="g258">
				<g
   id="g246">
					<defs
   id="defs239">
						<path
   id="SVGID_00000182500929186084125130000005438520731620713109_"
   d="M 481,177.8 H 201.5 c -9.5,0 -17.2,-6.3 -17.2,-13.9 v -5.3 c 0,-7.7 7.7,-13.9 17.2,-13.9 H 481 c 9.5,0 17.2,6.3 17.2,13.9 v 5.3 c 0.1,7.7 -7.6,13.9 -17.2,13.9 z M 201.5,151.6 c -4.8,0 -8.7,3.2 -8.7,7.1 v 5.3 c 0,3.9 3.9,7.1 8.7,7.1 H 481 c 4.8,0 8.7,-3.2 8.7,-7.1 v -5.3 c 0,-3.9 -3.9,-7.1 -8.7,-7.1 0,0 -279.5,0 -279.5,0 z" />
					</defs>
					<clipPath
   id="SVGID_00000012445067110258692820000012066208585205329079_">
						<use
   xlink:href="#SVGID_00000182500929186084125130000005438520731620713109_"
   style="overflow:visible"
   id="use241"
   x="0"
   y="0"
   width="100%"
   height="100%" />
					</clipPath>
					<polygon
   style="fill:#ffffff"
   points="348.9,94.3 359.7,98.2 305.1,197.8 294.3,193.9 "
   clip-path="url(#SVGID_00000012445067110258692820000012066208585205329079_)"
   id="polygon244" />
				</g>
				<g
   id="g256">
					<defs
   id="defs249">
						<path
   id="SVGID_00000039856650512984169350000002582979135681590670_"
   d="M 481,177.8 H 201.5 c -9.5,0 -17.2,-6.3 -17.2,-13.9 v -5.3 c 0,-7.7 7.7,-13.9 17.2,-13.9 H 481 c 9.5,0 17.2,6.3 17.2,13.9 v 5.3 c 0.1,7.7 -7.6,13.9 -17.2,13.9 z M 201.5,151.6 c -4.8,0 -8.7,3.2 -8.7,7.1 v 5.3 c 0,3.9 3.9,7.1 8.7,7.1 H 481 c 4.8,0 8.7,-3.2 8.7,-7.1 v -5.3 c 0,-3.9 -3.9,-7.1 -8.7,-7.1 0,0 -279.5,0 -279.5,0 z" />
					</defs>
					<clipPath
   id="SVGID_00000167386031417511509670000007488188076853173643_">
						<use
   xlink:href="#SVGID_00000039856650512984169350000002582979135681590670_"
   style="overflow:visible"
   id="use251"
   x="0"
   y="0"
   width="100%"
   height="100%" />
					</clipPath>
					<polygon
   style="fill:#ffffff"
   points="363.5,98.6 382.9,105.5 328.3,205.1 308.8,198.2 "
   clip-path="url(#SVGID_00000167386031417511509670000007488188076853173643_)"
   id="polygon254" />
				</g>
			</g>
			<g
   id="g264">
				<circle
   class="st12"
   cx="219.5"
   cy="147.60001"
   r="2"
   id="circle260" />
				<polygon
   class="st13"
   points="220.5,146.5 219.6,146.9 218.8,147.7 218.5,148.9 219.1,148 219.6,147.2 "
   id="polygon262" />
			</g>
			<g
   id="g270">
				<circle
   class="st12"
   cx="219.5"
   cy="174.8"
   r="2"
   id="circle266" />
				<polygon
   class="st13"
   points="220.5,173.7 219.6,174.1 218.8,174.8 218.5,176 219.1,175 219.6,174.4 "
   id="polygon268" />
			</g>
			<g
   id="g276">
				<circle
   class="st12"
   cx="489.79999"
   cy="147.60001"
   r="2"
   id="circle272" />
				<polygon
   class="st13"
   points="490.8,146.5 489.8,146.9 489.1,147.7 488.8,148.9 489.2,148 489.9,147.2 "
   id="polygon274" />
			</g>
			<g
   id="g282">
				<circle
   class="st12"
   cx="489.79999"
   cy="174.8"
   r="2"
   id="circle278" />
				<polygon
   class="st13"
   points="490.8,173.7 489.8,174.1 489.1,174.8 488.8,176 489.2,175 489.9,174.4 "
   id="polygon280" />
			</g>
			<g
   id="g288">
				<circle
   class="st12"
   cx="410.89999"
   cy="147.60001"
   r="2"
   id="circle284" />
				<polygon
   class="st13"
   points="412,146.5 411,146.9 410.4,147.7 410,148.9 410.5,148 411.2,147.2 "
   id="polygon286" />
			</g>
			<g
   id="g294">
				<circle
   class="st12"
   cx="410.89999"
   cy="174.8"
   r="2"
   id="circle290" />
				<polygon
   class="st13"
   points="412,173.7 411,174.1 410.4,174.8 410,176 410.5,175 411.2,174.4 "
   id="polygon292" />
			</g>
			<g
   id="g300">
				<circle
   class="st12"
   cx="287.29999"
   cy="147.60001"
   r="2"
   id="circle296" />
				<polygon
   class="st13"
   points="288.3,146.5 287.4,146.9 286.6,147.7 286.3,148.9 286.9,148 287.4,147.2 "
   id="polygon298" />
			</g>
			<g
   id="g306">
				<circle
   class="st12"
   cx="287.29999"
   cy="174.8"
   r="2"
   id="circle302" />
				<polygon
   class="st13"
   points="288.3,173.7 287.4,174.1 286.6,174.8 286.3,176 286.9,175 287.4,174.4 "
   id="polygon304" />
			</g>
			<g
   id="g312">
				<circle
   class="st12"
   cx="199.2"
   cy="160.8"
   r="2"
   id="circle308" />
				<polygon
   class="st13"
   points="200.3,159.8 199.2,160.2 198.5,160.9 198.3,162.1 198.7,161.2 199.3,160.5 "
   id="polygon310" />
			</g>
			<g
   id="g318">
				<circle
   class="st12"
   cx="506.29999"
   cy="160.8"
   r="2"
   id="circle314" />
				<polygon
   class="st13"
   points="507.3,159.8 506.4,160.2 505.7,160.9 505.3,162.1 505.9,161.2 506.5,160.5 "
   id="polygon316" />
			</g>
		</g>
		<g
   id="g326">
			<rect
   x="150.2"
   y="138.7"
   class="st19"
   width="63.700001"
   height="45.299999"
   id="rect322" />
			<path
   class="st20"
   d="m 203.9,177.2 -17.5,1.3 c -3.1,0.3 -6.3,0.3 -9.3,0 l -16.5,-1.3 c -1.3,0 -2.4,-1.3 -2.4,-2.9 v -27.2 c 0,-1.6 1.1,-2.9 2.4,-2.9 l 17.9,-1.3 c 2.9,-0.3 5.9,-0.3 8.9,0 l 16.5,1.3 c 1.3,0 2.4,1.3 2.4,2.9 v 27.3 c 0.1,1.6 -1.1,2.8 -2.4,2.8 z"
   id="path324" />
		</g>
		<g
   id="g332">
			<rect
   x="150.2"
   y="188.10001"
   class="st19"
   width="63.700001"
   height="45.299999"
   id="rect328" />
			<path
   class="st20"
   d="m 203.9,226.6 -17.5,1.3 c -3.1,0.3 -6.3,0.3 -9.3,0 l -16.5,-1.3 c -1.3,0 -2.4,-1.3 -2.4,-2.9 v -27.2 c 0,-1.6 1.1,-2.9 2.4,-2.9 l 17.9,-1.3 c 2.9,-0.3 5.9,-0.3 8.9,0 l 16.5,1.2 c 1.3,0 2.4,1.3 2.4,2.9 v 27.3 c 0.1,1.7 -1.1,2.9 -2.4,2.9 z"
   id="path330" />
		</g>
		<g
   id="g338">
			<rect
   x="150.2"
   y="237.5"
   class="st19"
   width="63.700001"
   height="45.299999"
   id="rect334" />
			<path
   class="st20"
   d="m 203.9,276 -17.5,1.3 c -3.1,0.3 -6.3,0.3 -9.3,0 L 160.6,276 c -1.3,0 -2.4,-1.3 -2.4,-2.9 v -27.2 c 0,-1.6 1.1,-2.9 2.4,-2.9 l 17.9,-1.3 c 2.9,-0.3 5.9,-0.3 8.9,0 l 16.5,1.2 c 1.3,0 2.4,1.3 2.4,2.9 v 27.3 c 0.1,1.7 -1.1,2.9 -2.4,2.9 z"
   id="path336" />
		</g>
		<rect
   x="0.69999999"
   y="191.7"
   class="st19"
   width="149.10001"
   height="91.099998"
   id="rect340" />
		<path
   class="st21"
   d="m 128.3,272.8 -44,2.8 c -7.9,0.5 -15.6,0.5 -23.4,0 l -41.4,-2.7 c -3.5,0 -6.1,-2.7 -6.1,-6.1 v -57.3 c 0,-3.3 2.8,-6.1 6.1,-6.1 l 44.9,-2.7 c 7.5,-0.4 14.9,-0.4 22.2,0 l 41.6,2.7 c 3.5,0 6.1,2.7 6.1,6.1 v 57.2 c 0.2,3.3 -2.6,6.1 -6,6.1 z"
   id="path342" />
		<g
   id="g348">
			<ellipse
   class="st22"
   cx="10.2"
   cy="200.3"
   rx="4.5"
   ry="4.0999999"
   id="ellipse344" />
			<polygon
   class="st13"
   points="12.6,198.3 10.4,199.1 8.8,200.6 8.2,203 9.2,201 10.7,199.7 "
   id="polygon346" />
		</g>
		<g
   id="g354">
			<ellipse
   class="st22"
   cx="8.1999998"
   cy="275.5"
   rx="4.5"
   ry="4.0999999"
   id="ellipse350" />
			<polygon
   class="st13"
   points="10.6,273.3 8.4,274.1 6.8,275.6 6.2,278 7.2,276.1 8.7,274.7 "
   id="polygon352" />
		</g>
		<g
   id="g360">
			<ellipse
   class="st22"
   cx="141.3"
   cy="199.10001"
   rx="4.5"
   ry="4.0999999"
   id="ellipse356" />
			<polygon
   class="st13"
   points="143.5,197 141.4,197.9 139.9,199.4 139.1,201.8 140.2,199.8 141.7,198.5 "
   id="polygon358" />
		</g>
		<g
   id="g366">
			<ellipse
   class="st22"
   cx="141.39999"
   cy="272.29999"
   rx="4.5"
   ry="4.0999999"
   id="ellipse362" />
			<polygon
   class="st13"
   points="143.8,270.1 141.7,270.9 140.1,272.4 139.4,274.9 140.5,272.9 141.9,271.5 "
   id="polygon364" />
		</g>
		<polygon
   class="st23"
   points="118.1,274 76.8,274 65.1,201.8 104.5,201.8 "
   id="polygon368" />
		<polygon
   class="st23"
   points="73.7,275.1 50.1,275.1 37.9,202.9 60.4,202.9 "
   id="polygon370" />
		<rect
   x="4.5999999"
   y="188"
   class="st16"
   width="137.60001"
   height="3.2"
   id="rect372" />
		<g
   id="g404">
			<path
   class="st24"
   d="m 39.6,187.8 c 0,-0.7 -0.1,-35.7 -0.1,-35.7 h 22.9 v 35.7 H 39.6"
   id="path374" />
			<path
   class="st25"
   d="m 62.5,152.1 -2.8,-2.5 H 41.9 l -2.3,2.5 v 0 c 7.5,1.1 15.1,1.2 22.5,0 z"
   id="path376" />
			<path
   class="st13"
   d="m 59.7,149.6 v 0 c -6,0.8 -12,0.8 -17.9,0 v 0 -3.3 h 17.9 z"
   id="path378" />
			<path
   class="st24"
   d="m 43.9,141.2 -2,5.1 3.6,0.4 c 3.6,0.4 7.2,0.4 10.9,0 l 3.3,-0.4 -1.7,-5.9 -0.5,-0.3 c -4.4,-1.9 -9.1,-1.9 -13.3,0.3 v 0 l -0.4,1.1"
   id="path380" />
			<polyline
   class="st13"
   points="42.4,152.7 42.5,152.5 43.7,149.9 44.8,149.9 43.7,152.7    "
   id="polyline382" />
			<polygon
   class="st13"
   points="48.7,150.1 48.7,152.9 47.3,152.9 47.6,150.1 "
   id="polygon384" />
			<polyline
   class="st13"
   points="59.7,152.7 59.7,152.5 58.4,149.9 57.5,149.9 58.5,152.7    "
   id="polyline386" />
			<polygon
   class="st13"
   points="53.5,150.1 53.6,152.9 55.1,152.8 54.7,150.1 "
   id="polygon388" />
			<polygon
   class="st13"
   points="37.3,181.4 39.6,178.4 39.6,187.8 37.3,187.8 "
   id="polygon390" />
			<polygon
   class="st13"
   points="64.7,181.4 62.5,178.4 62.5,187.8 64.7,187.8 "
   id="polygon392" />
			<g
   id="g402">
				<path
   class="st26"
   d="M 48.1,163.4"
   id="path394" />
				<path
   class="st26"
   d="M 53.5,163.4"
   id="path396" />
				<path
   class="st26"
   d="M 50.8,166.8"
   id="path398" />
				<path
   class="st26"
   d="M 50.8,160.2"
   id="path400" />
			</g>
		</g>
		<rect
   x="41.900002"
   y="155.39999"
   class="st27"
   width="18.4"
   height="29.299999"
   id="rect406" />
		<g
   id="g438">
			<path
   class="st24"
   d="m 10.3,187.8 c 0,-0.7 0,-35.7 0,-35.7 h 22.9 v 35.7 H 10.3"
   id="path408" />
			<path
   class="st25"
   d="m 33.2,152.1 -2.8,-2.5 H 12.6 l -2.3,2.5 v 0 c 7.5,1.1 15.1,1.2 22.5,0 z"
   id="path410" />
			<path
   class="st13"
   d="m 30.4,149.6 v 0 c -6,0.8 -12,0.8 -17.9,0 v 0 -3.3 h 17.9 z"
   id="path412" />
			<path
   class="st24"
   d="m 14.6,141.2 -2,5.1 3.6,0.4 c 3.6,0.4 7.2,0.4 10.9,0 l 3.3,-0.4 -1.7,-5.9 -0.5,-0.3 c -4.4,-1.9 -9.1,-1.9 -13.3,0.3 v 0 l -0.4,1.1"
   id="path414" />
			<polyline
   class="st13"
   points="13.2,152.7 13.2,152.5 14.4,149.9 15.5,149.9 14.4,152.7    "
   id="polyline416" />
			<polygon
   class="st13"
   points="19.5,150.1 19.4,152.9 18,152.9 18.3,150.1 "
   id="polygon418" />
			<polyline
   class="st13"
   points="30.4,152.7 30.4,152.5 29.2,149.9 28.2,149.9 29.2,152.7    "
   id="polyline420" />
			<polygon
   class="st13"
   points="24.3,150.1 24.3,152.9 25.8,152.8 25.5,150.1 "
   id="polygon422" />
			<polygon
   class="st13"
   points="8.2,181.4 10.3,178.4 10.3,187.8 8.2,187.8 "
   id="polygon424" />
			<polygon
   class="st13"
   points="35.5,181.4 33.2,178.4 33.2,187.8 35.5,187.8 "
   id="polygon426" />
			<g
   id="g436">
				<path
   class="st26"
   d="M 18.8,163.4"
   id="path428" />
				<path
   class="st26"
   d="M 24.2,163.4"
   id="path430" />
				<path
   class="st26"
   d="M 21.5,166.8"
   id="path432" />
				<path
   class="st26"
   d="M 21.5,160.2"
   id="path434" />
			</g>
		</g>
		<rect
   x="12.6"
   y="155.39999"
   class="st27"
   width="18.4"
   height="29.299999"
   id="rect440" />
		<g
   id="g472">
			<path
   class="st24"
   d="m 114.6,187.7 c 0,-0.7 -0.1,-35.7 -0.1,-35.7 h 22.9 v 35.7 h -22.8"
   id="path442" />
			<path
   class="st25"
   d="m 137.4,152 -2.7,-2.5 h -18 l -2.3,2.5 v 0 c 7.5,1.1 15.1,1.2 22.5,0 z"
   id="path444" />
			<path
   class="st13"
   d="m 134.7,149.5 v 0 c -6,0.8 -12,0.8 -17.9,0 v 0 -3.3 h 17.9 z"
   id="path446" />
			<path
   class="st24"
   d="m 118.9,141.1 -2,5.1 3.6,0.4 c 3.6,0.3 7.2,0.3 10.8,-0.1 l 3.5,-0.3 -1.7,-5.9 -0.5,-0.3 c -4.4,-1.9 -9.1,-1.9 -13.3,0.3 v 0 l -0.4,1.1"
   id="path448" />
			<polyline
   class="st13"
   points="117.4,152.5 117.4,152.4 118.7,149.7 119.7,149.7 118.6,152.5    "
   id="polyline450" />
			<polygon
   class="st13"
   points="123.7,150 123.7,152.8 122.3,152.8 122.6,150 "
   id="polygon452" />
			<polyline
   class="st13"
   points="134.7,152.5 134.7,152.4 133.4,149.7 132.5,149.7 133.5,152.5    "
   id="polyline454" />
			<polygon
   class="st13"
   points="128.5,150 128.6,152.8 130.1,152.7 129.7,150 "
   id="polygon456" />
			<polygon
   class="st13"
   points="112.3,181.3 114.6,178.2 114.6,187.7 112.3,187.7 "
   id="polygon458" />
			<polygon
   class="st13"
   points="139.7,181.3 137.4,178.2 137.4,187.7 139.7,187.7 "
   id="polygon460" />
			<g
   id="g470">
				<path
   class="st26"
   d="M 123,163.3"
   id="path462" />
				<path
   class="st26"
   d="M 128.5,163.3"
   id="path464" />
				<path
   class="st26"
   d="M 125.8,166.6"
   id="path466" />
				<path
   class="st26"
   d="M 125.8,160.1"
   id="path468" />
			</g>
		</g>
		<rect
   x="116.7"
   y="155.3"
   class="st27"
   width="18.4"
   height="29.299999"
   id="rect474" />
		<g
   id="g506">
			<path
   class="st24"
   d="M 85.3,187.7 C 85.3,187 85.2,152 85.2,152 h 22.9 v 35.7 H 85.3"
   id="path476" />
			<path
   class="st25"
   d="m 108.2,152 -2.8,-2.5 H 87.6 l -2.3,2.5 v 0 c 7.5,1.1 15.1,1.2 22.5,0 z"
   id="path478" />
			<path
   class="st13"
   d="m 105.4,149.5 v 0 c -6,0.8 -12,0.8 -17.9,0 v 0 -3.3 h 17.9 z"
   id="path480" />
			<path
   class="st24"
   d="m 89.6,141.1 -2,5.1 3.6,0.4 c 3.6,0.3 7.2,0.3 10.8,-0.1 l 3.5,-0.3 -1.7,-5.9 -0.5,-0.3 c -4.4,-1.9 -9.1,-1.9 -13.3,0.3 v 0 l -0.4,1.1"
   id="path482" />
			<polyline
   class="st13"
   points="88.1,152.5 88.2,152.4 89.4,149.7 90.4,149.7 89.4,152.5    "
   id="polyline484" />
			<polygon
   class="st13"
   points="94.4,150 94.4,152.8 93,152.8 93.3,150 "
   id="polygon486" />
			<polyline
   class="st13"
   points="105.4,152.5 105.4,152.4 104.1,149.7 103.2,149.7 104.2,152.5    "
   id="polyline488" />
			<polygon
   class="st13"
   points="99.2,150 99.3,152.8 100.8,152.7 100.4,150 "
   id="polygon490" />
			<polygon
   class="st13"
   points="83,181.3 85.3,178.2 85.3,187.7 83,187.7 "
   id="polygon492" />
			<polygon
   class="st13"
   points="110.4,181.3 108.2,178.2 108.2,187.7 110.4,187.7 "
   id="polygon494" />
			<g
   id="g504">
				<path
   class="st26"
   d="M 93.8,163.3"
   id="path496" />
				<path
   class="st26"
   d="M 99.2,163.3"
   id="path498" />
				<path
   class="st26"
   d="M 96.5,166.6"
   id="path500" />
				<path
   class="st26"
   d="M 96.5,160.1"
   id="path502" />
			</g>
		</g>
		<g
   id="g538">
			<path
   class="st24"
   d="m 68.4,187.7 c 0,-0.5 0,-28.4 0,-28.4 h 10.9 v 28.4 H 68.4"
   id="path508" />
			<path
   class="st25"
   d="m 79.2,159.3 -1.3,-2 h -8.5 l -1.1,2 v 0 c 3.6,0.9 7.2,0.9 10.7,0 z"
   id="path510" />
			<path
   class="st13"
   d="m 78,157.6 v 0 c -2.8,0.4 -5.7,0.4 -8.5,0 v 0 -1.3 H 78 Z"
   id="path512" />
			<path
   class="st24"
   d="m 70.4,154.3 -0.9,2 1.7,0.1 c 1.7,0.1 3.5,0.1 5.2,0 l 1.6,-0.1 -1,-2.3 -0.3,-0.1 c -2.1,-0.8 -4.3,-0.7 -6.4,0.1 v 0 0.3"
   id="path514" />
			<polyline
   class="st13"
   points="69.7,159.7 69.7,159.7 70.3,157.4 70.8,157.6 70.3,159.8    "
   id="polyline516" />
			<polygon
   class="st13"
   points="72.6,157.8 72.6,160 72,160 72.1,157.7 "
   id="polygon518" />
			<polyline
   class="st13"
   points="78,159.7 77.8,159.7 77.3,157.4 76.8,157.6 77.3,159.8    "
   id="polyline520" />
			<polygon
   class="st13"
   points="74.9,157.7 75,160 75.7,160 75.6,157.7 "
   id="polygon522" />
			<polygon
   class="st13"
   points="67.3,183.3 68.3,181.2 68.4,187.7 67.3,187.7 "
   id="polygon524" />
			<polygon
   class="st13"
   points="80.2,183.3 79.2,181.2 79.2,187.7 80.2,187.7 "
   id="polygon526" />
			<g
   id="g536">
				<path
   class="st28"
   d="M 72.4,168.4"
   id="path528" />
				<path
   class="st28"
   d="M 74.9,168.4"
   id="path530" />
				<path
   class="st28"
   d="M 73.7,170.9"
   id="path532" />
				<path
   class="st28"
   d="M 73.7,165.8"
   id="path534" />
			</g>
		</g>
		<rect
   x="87.400002"
   y="155.3"
   class="st27"
   width="18.4"
   height="29.299999"
   id="rect540" />
		<rect
   x="72.5"
   y="164.60001"
   class="st25"
   width="2.0999999"
   height="2.8"
   id="rect542" />
		<rect
   x="72.5"
   y="172"
   class="st25"
   width="2.0999999"
   height="2.8"
   id="rect544" />
	</g><path
   class="st25"
   d="m 637.8122,52.802151 c 0,0 12.9,19.5 2.8,21.8 -16.8,3.7 -2.8,-21.8 -2.8,-21.8 z"
   id="path548" /><path
   class="st25"
   d="m 181.7122,105.00215 c 0,0 11.6,17.5 2.5,19.6 -15.1,3.3 -2.5,-19.6 -2.5,-19.6 z"
   id="path550" /><polygon
   class="st25"
   points="632.3,215.3 639.1,215.3 639.1,222.4 646.5,222.4 646.5,215.3 653.3,215.3 653.3,207.9 646.5,207.9 646.5,201.4 639.1,201.4 639.1,207.9 632.3,207.9 "
   id="polygon552"
   transform="translate(0.0122,-45.297849)" /><polygon
   class="st25"
   points="172.6,213.4 178.7,213.4 178.7,219.7 185.3,219.7 185.3,213.4 191.4,213.4 191.4,206.8 185.3,206.8 185.3,200.9 178.7,200.9 178.7,206.8 172.6,206.8 "
   id="polygon554"
   transform="translate(0.0122,-45.297849)" /><path
   class="st25"
   d="m 656.2122,255.10215 h -4.5 l -1.4,-1.5 -2.3,0.7 -0.9,-1.1 c 0,0 -2.4,0.2 -2.6,0.2 -0.2,0 -0.5,-1.3 -0.5,-1.3 0,0 -3.9,0 -3.9,0 0,0 -0.8,1.4 -1,1.5 -0.1,0 -2.2,-0.6 -2.2,-0.6 l -1.8,2.1 h -2.9 l 2.2,9.3 h 3.2 c 0,0.1 -0.1,0.2 -0.1,0.3 0,1.3 1.1,2.4 2.4,2.4 1.3,0 2.4,-1.1 2.4,-2.4 0,-0.1 -0.1,-0.2 -0.1,-0.3 h 4.1 c 0,0.2 -0.1,0.3 -0.1,0.5 0,1.2 1,2.2 2.2,2.2 1.2,0 2.2,-1 2.2,-2.2 0,-0.2 -0.1,-0.4 -0.1,-0.5 h 2.2 z"
   id="path556" /><path
   class="st25"
   d="m 193.0122,210.80215 h -4.1 l -1.3,-1.3 -2.1,0.7 -0.8,-1 c 0,0 -2.2,0.2 -2.4,0.2 -0.2,0 -0.4,-1.1 -0.4,-1.1 0,0 -3.5,0 -3.5,0 0,0 -0.8,1.3 -0.9,1.3 -0.1,0 -2,-0.5 -2,-0.5 l -1.6,1.9 h -2.6 l 2,8.3 h 2.9 c 0,0.1 -0.1,0.2 -0.1,0.3 0,1.2 1,2.2 2.2,2.2 1.2,0 2.2,-1 2.2,-2.2 0,-0.1 0,-0.2 -0.1,-0.3 h 3.7 c 0,0.2 -0.1,0.3 -0.1,0.5 0,1.1 0.9,2 2,2 1.1,0 2,-0.9 2,-2 0,-0.2 -0.1,-0.3 -0.1,-0.5 h 2 z"
   id="path558" /><line
   class="st29"
   x1="610.31219"
   y1="166.90215"
   x2="536.31219"
   y2="166.90215"
   id="line560" /><polyline
   class="st29"
   points="534.1,160.8 610.3,160.8 610.3,113.2 620.5,113.2  "
   id="polyline562"
   transform="translate(0.0122,-45.297849)" /><polyline
   class="st29"
   points="536.3,259.8 610.3,259.8 610.3,304.9 619,304.9  "
   id="polyline564"
   transform="translate(0.0122,-45.297849)" /><polyline
   class="st29"
   points="75.2,76.7 74.9,90.1 21.5,90.5 21.5,124.6  "
   id="polyline568"
   transform="translate(0.0122,-45.297849)" />
<text
   xml:space="preserve"
   style="font-style:normal;font-weight:normal;font-size:26.6667px;line-height:1.25;font-family:sans-serif;fill:#000000;fill-opacity:1;stroke:none"
   x="669.08911"
   y="75.782585"
   id="text54340"><tspan
     sodipodi:role="line"
     id="tspan54338"
     x="669.08911"
     y="75.782585"
     style="font-size:26.6667px;fill:#ffffff;fill-opacity:1">Fuel</tspan></text><text
   xml:space="preserve"
   style="font-style:normal;font-weight:normal;font-size:26.6667px;line-height:1.25;font-family:sans-serif;fill:#000000;fill-opacity:1;stroke:none"
   x="670.07391"
   y="176.28911"
   id="text58894"><tspan
     sodipodi:role="line"
     id="tspan58892"
     x="670.07391"
     y="176.28911"
     style="font-size:26.6667px;fill:#ffffff;fill-opacity:1">Health</tspan></text><text
   xml:space="preserve"
   style="font-style:normal;font-weight:normal;font-size:26.6667px;line-height:1.25;font-family:sans-serif;fill:#000000;fill-opacity:1;stroke:none"
   x="670.04346"
   y="268.67386"
   id="text61556"><tspan
     sodipodi:role="line"
     id="tspan61554"
     x="670.04346"
     y="268.67386"
     style="font-size:26.6667px;fill:#ffffff;fill-opacity:1">Cargo</tspan></text></svg>
