<?xml version="1.0" encoding="utf-8"?>
<!-- Generator: Adobe Illustrator 26.3.1, SVG Export Plug-In . SVG Version: 6.00 Build 0)  -->
<svg version="1.1" id="a" xmlns="http://www.w3.org/2000/svg" xmlns:xlink="http://www.w3.org/1999/xlink" x="0px" y="0px"
	 viewBox="0 0 458.2 188.1" style="enable-background:new 0 0 458.2 188.1;" xml:space="preserve">
<style type="text/css">
	.st0{fill:#B0B0B0;}
	.st1{fill:#5C5C5C;}
	.st2{fill:#67615D;}
	.st3{fill:#705F51;}
	.st4{fill:#737374;}
	.st5{fill:#606161;}
	.st6{fill:#939393;}
	.st7{fill:none;stroke:#4D4B37;stroke-width:6.66;}
	.st8{fill:none;stroke:#312F2D;stroke-width:6.66;}
	.st9{fill:#191919;}
	.st10{fill:none;stroke:#1F291C;stroke-width:6.66;}
	.st11{fill:#3D4D42;stroke:#303E34;stroke-width:1.56;}
	.st12{fill:#A4FFFF;}
	.st13{opacity:0.24;fill:#FFFFFF;enable-background:new    ;}
	.st14{clip-path:url(#SVGID_00000160882380856328201930000017518483370402725519_);}
	.st15{opacity:0.26;fill:#FFFFFF;enable-background:new    ;}
	.st16{clip-path:url(#SVGID_00000050630291050741413730000004837797266635535262_);}
	.st17{clip-path:url(#SVGID_00000076572655810145639320000017708274618944261019_);}
	.st18{fill:#55473D;}
	.st19{fill:none;stroke:#55473D;stroke-width:0.5;}
	.st20{fill:#5F5467;}
	.st21{fill:#817887;}
	.st22{opacity:0.53;fill:#CFCFCE;enable-background:new    ;}
	.st23{fill:#CFCFCE;}
	.st24{fill:#4E4752;}
	.st25{fill:#605B67;}
	.st26{fill:#55473D;stroke:#34302E;stroke-width:0.17;}
	.st27{fill:#010101;}
	.st28{fill:#2A391D;}
	.st29{fill:none;stroke:#606161;stroke-width:0.67;}
	.st30{fill:#848181;}
	.st31{fill:none;stroke:#FFFFFF;}
	.st32{fill:#727272;stroke:#5B5B5B;stroke-width:1.088;stroke-miterlimit:10;}
	.st33{fill:#B79F2A;}
	.st34{fill:#8C811E;}
	.st35{fill:#4F4F4F;}
	.st36{fill:#706051;}
	.st37{opacity:0.36;}
	.st38{clip-path:url(#SVGID_00000113316557047528187730000006560757375662559646_);fill:#FFFFFF;}
	.st39{clip-path:url(#SVGID_00000116924232045783887460000012019456312682569896_);fill:#FFFFFF;}
	.st40{fill:#FCE249;}
	.st41{opacity:0.21;fill:#F2EEEB;stroke:#5B5B5B;stroke-width:0.7456;stroke-miterlimit:10;enable-background:new    ;}
	.st42{fill:#606060;}
	.st43{fill:#439B0B;}
	.st44{fill:#316311;}
	.st45{clip-path:url(#SVGID_00000157293083456794019040000005491367841943192747_);fill:#FFFFFF;}
	.st46{clip-path:url(#SVGID_00000098191342498886231800000009102188541535458185_);fill:#FFFFFF;}
	.st47{fill:#DDDDDD;}
	.st48{fill:#6B6B6B;}
	.st49{clip-path:url(#SVGID_00000124120145581856728240000008099513654789027746_);fill:#FFFFFF;}
	.st50{clip-path:url(#SVGID_00000044866245404315838190000016912508728522675376_);fill:#FFFFFF;}
	.st51{fill:#FFFFFF;}
</style>
<g>
	<g>
		<rect x="209.9" y="163.4" class="st0" width="27.9" height="2.8"/>
		<path class="st1" d="M208.1,162v5.6h21.8V162H208.1z M214.4,166.5c-1,0-1.8-0.8-1.8-1.8s0.8-1.8,1.8-1.8s1.8,0.8,1.8,1.8
			S215.4,166.5,214.4,166.5z M218.6,166.5c-1,0-1.8-0.8-1.8-1.8s0.8-1.8,1.8-1.8s1.8,0.8,1.8,1.8S219.6,166.5,218.6,166.5z
			 M223,166.5c-1,0-1.8-0.8-1.8-1.8s0.8-1.8,1.8-1.8s1.8,0.8,1.8,1.8S224,166.5,223,166.5z M227.2,166.5c-1,0-1.8-0.8-1.8-1.8
			s0.8-1.8,1.8-1.8s1.8,0.8,1.8,1.8S228.2,166.5,227.2,166.5z"/>
		<polygon class="st2" points="122.5,163.7 130.4,169.6 211.5,169.6 225.3,155.8 133.2,155.8 		"/>
		<polygon class="st3" points="109.8,84.3 88,72.3 32.6,72.3 9.8,93.6 9.8,179.3 29.3,179.3 39.8,168.9 91.4,168.9 101.7,158.6 		
			"/>
		<polygon class="st4" points="127.8,68.2 110.5,74.5 93.2,94.4 91.4,167.2 107.3,168.7 145.9,157.7 214.3,156.2 228,160 
			248.3,159.8 248.3,67.6 		"/>
		<g>
			<circle class="st5" cx="97" cy="162.5" r="3.1"/>
			<polygon class="st6" points="98.6,160.9 97.2,161.5 96.1,162.6 95.6,164.5 96.4,163 97.3,162 			"/>
		</g>
		<g>
			<circle class="st4" cx="88.2" cy="165" r="1.4"/>
			<polygon class="st6" points="88.9,164.2 88.2,164.5 87.7,165 87.5,165.9 87.8,165.2 88.3,164.7 			"/>
		</g>
		<g>
			<circle class="st4" cx="88.1" cy="157.7" r="1.4"/>
			<polygon class="st6" points="88.8,157 88.2,157.3 87.7,157.8 87.4,158.6 87.8,158 88.2,157.5 			"/>
		</g>
		<g>
			<circle class="st4" cx="88.1" cy="150.1" r="1.4"/>
			<polygon class="st6" points="88.8,149.4 88.2,149.7 87.7,150.2 87.4,151.1 87.8,150.4 88.2,149.9 			"/>
		</g>
		<g>
			<circle class="st4" cx="88.1" cy="104.1" r="1.4"/>
			<polygon class="st6" points="88.8,103.4 88.2,103.6 87.7,104.1 87.4,105 87.8,104.3 88.2,103.8 			"/>
		</g>
		<g>
			<circle class="st4" cx="88.1" cy="96.5" r="1.4"/>
			<polygon class="st6" points="88.8,95.8 88.2,96 87.7,96.5 87.4,97.4 87.8,96.7 88.2,96.2 			"/>
		</g>
		<g>
			<circle class="st4" cx="88.1" cy="88.9" r="1.4"/>
			<polygon class="st6" points="88.8,88.2 88.2,88.4 87.7,89 87.4,89.8 87.8,89.1 88.2,88.6 			"/>
		</g>
		<g>
			<circle class="st4" cx="92.5" cy="83.7" r="1.4"/>
			<polygon class="st6" points="93.3,83 92.6,83.3 92.1,83.8 91.9,84.6 92.2,84 92.7,83.5 			"/>
		</g>
		<g>
			<circle class="st4" cx="96.7" cy="79.6" r="1.4"/>
			<polygon class="st6" points="97.5,78.9 96.8,79.2 96.3,79.7 96.1,80.5 96.4,79.9 96.9,79.4 			"/>
		</g>
		<g>
			<circle class="st4" cx="88.1" cy="142.6" r="1.4"/>
			<polygon class="st6" points="88.8,141.8 88.2,142.1 87.7,142.6 87.4,143.5 87.8,142.8 88.2,142.3 			"/>
		</g>
		<g>
			<circle class="st4" cx="88.1" cy="135" r="1.4"/>
			<polygon class="st6" points="88.8,134.2 88.2,134.5 87.7,135 87.4,135.9 87.8,135.2 88.2,134.7 			"/>
		</g>
		<g>
			<circle class="st4" cx="88.1" cy="127.4" r="1.4"/>
			<polygon class="st6" points="88.8,126.6 88.2,126.9 87.7,127.4 87.4,128.3 87.8,127.6 88.2,127.1 			"/>
		</g>
		<g>
			<circle class="st4" cx="88.1" cy="119.8" r="1.4"/>
			<polygon class="st6" points="88.8,119.1 88.2,119.3 87.7,119.9 87.4,120.7 87.8,120 88.2,119.5 			"/>
		</g>
		<g>
			<circle class="st4" cx="88.1" cy="112.2" r="1.4"/>
			<polygon class="st6" points="88.8,111.5 88.2,111.8 87.7,112.3 87.4,113.1 87.8,112.4 88.2,111.9 			"/>
		</g>
		<g>
			<circle class="st5" cx="97.1" cy="96.7" r="3.1"/>
			<polygon class="st6" points="98.7,95.1 97.2,95.7 96.2,96.8 95.7,98.6 96.4,97.2 97.4,96.1 			"/>
		</g>
		<g>
			<circle class="st5" cx="243.2" cy="153.9" r="3.1"/>
			<polygon class="st6" points="244.8,152.4 243.4,153 242.3,154.1 241.8,155.9 242.6,154.4 243.6,153.4 			"/>
		</g>
		<g>
			<circle class="st5" cx="243.2" cy="73.4" r="3.1"/>
			<polygon class="st6" points="244.8,71.8 243.4,72.4 242.3,73.5 241.8,75.3 242.6,73.8 243.6,72.8 			"/>
		</g>
		<path class="st7" d="M106.5,76c0,0-23-31.2-24.8-5.1"/>
		<path class="st8" d="M96.7,90c0,0-16.7-14.4-28.4,0.7"/>
		<polygon class="st9" points="110.4,74.2 108.8,72.9 102.3,77.7 104.2,81.2 		"/>
		<polygon class="st9" points="85.1,70 86.1,70.9 86.3,72.4 76.1,72.1 76.7,70.6 78,70.2 		"/>
		<polygon class="st9" points="100,86 93.9,93.5 93.1,92.8 91.9,90.6 96.7,85.4 98.9,85.4 		"/>
		<path class="st9" d="M69.9,95.9c0,0,0.9-0.8,0.9-0.9c0-0.1,0.2-2.3,0.2-2.3l-5.3-4.1H64l-0.8,1.2L69.9,95.9z"/>
		<polygon class="st4" points="97.6,77.1 98.1,76.8 100.6,78.2 100.3,78.7 		"/>
		<polygon class="st4" points="89.7,169.2 89.5,169.7 86.6,169.6 86.5,169.2 		"/>
		<path class="st10" d="M101,170.8l-0.6,4.6c-3.4,15.9-23.7,9.6-27.6-5.1l-1.2-10.1"/>
		<path class="st9" d="M76.3,155.8c0,0.1,0.2,2.3,0.2,2.3l-1.8,1.9l-6.5,0.7l-2.7-0.7v-2.5L76.3,155.8L76.3,155.8z"/>
		<path class="st9" d="M107,169c0,0.1-0.4,2.3-0.4,2.3l-2.2,1.4l-6.5-1l-2.4-1.3l0.6-2.4L107,169L107,169z"/>
		<circle class="st11" cx="118.1" cy="87.2" r="8"/>
		<circle class="st11" cx="118.1" cy="113.1" r="8"/>
		<circle class="st11" cx="118.1" cy="139.1" r="8"/>
		<path class="st12" d="M117.9,82.3c0,0,5.4,8.1,1.2,9.1C112.1,92.9,117.9,82.3,117.9,82.3z"/>
		<path class="st12" d="M335.5,53.3c0,0,6.9,10.4,1.5,11.6C328,66.9,335.5,53.3,335.5,53.3z"/>
		<rect x="116.6" y="108.8" class="st12" width="3.1" height="8.7"/>
		<rect x="113.8" y="111.5" class="st12" width="8.7" height="3.1"/>
		<polygon class="st12" points="343.8,109.5 340.1,109.5 340.1,106.1 336.2,106.1 336.2,109.5 332.6,109.5 332.6,113.5 336.2,113.5 
			336.2,117.3 340.1,117.3 340.1,113.5 343.8,113.5 		"/>
		<path class="st12" d="M123.1,137.6h-1.9l-0.6-0.6l-1,0.3l-0.4-0.5c0,0-1,0.1-1.1,0.1s-0.2-0.5-0.2-0.5h-1.6c0,0-0.3,0.6-0.4,0.6
			s-0.9-0.2-0.9-0.2l-0.7,0.9h-1.2l0.9,3.9h1.3v0.1c0,0.6,0.4,1,1,1s1-0.4,1-1c0-0.1,0-0.1,0-0.1h1.7c0,0.1-0.1,0.1-0.1,0.2
			c0,0.5,0.4,0.9,0.9,0.9s0.9-0.4,0.9-0.9c0-0.1,0-0.1-0.1-0.2h0.9L123.1,137.6L123.1,137.6z"/>
		<path class="st12" d="M345.3,164.6h-2.4l-0.8-0.8l-1.2,0.4l-0.5-0.6c0,0-1.3,0.1-1.4,0.1s-0.3-0.7-0.3-0.7h-2.1l-0.5,0.8
			c-0.1,0-1.2-0.3-1.2-0.3l-1,1.1h-1.5l1.2,4.9h1.7c0,0.1,0,0.1,0,0.2c0,0.7,0.6,1.3,1.3,1.3s1.3-0.6,1.3-1.3c0-0.1,0-0.1,0-0.2h2.2
			c0,0.1-0.1,0.2-0.1,0.3c0,0.7,0.5,1.2,1.2,1.2s1.2-0.5,1.2-1.2c0-0.1,0-0.2-0.1-0.3h1.2L345.3,164.6L345.3,164.6z"/>
		<polygon class="st0" points="152.5,162.1 204.8,162.1 206.2,163.5 151.1,163.5 		"/>
		<polygon class="st0" points="152.5,164.1 204.8,164.1 206.2,165.4 151.1,165.4 		"/>
		<polygon class="st0" points="152.5,166.3 204.8,166.3 206.2,167.7 151.1,167.7 		"/>
		<circle class="st13" cx="118.1" cy="87.1" r="8"/>
		<g>
			<g>
				<g>
					<defs>
						<circle id="SVGID_1_" cx="118.2" cy="87.2" r="7.4"/>
					</defs>
					<clipPath id="SVGID_00000075880912826534671630000001632544322113015709_">
						<use xlink:href="#SVGID_1_"  style="overflow:visible;"/>
					</clipPath>
					<g style="clip-path:url(#SVGID_00000075880912826534671630000001632544322113015709_);">
						
							<rect x="107.1" y="85.9" transform="matrix(0.2743 -0.9616 0.9616 0.2743 0.9888 175.7988)" class="st15" width="19.7" height="2.7"/>
						
							<rect x="109.5" y="87.2" transform="matrix(0.2743 -0.9616 0.9616 0.2743 2.085 178.5558)" class="st15" width="19.7" height="1.4"/>
					</g>
				</g>
			</g>
		</g>
		<circle class="st13" cx="118.1" cy="113.1" r="8"/>
		<g>
			<g>
				<g>
					<defs>
						<circle id="SVGID_00000053529239915538173780000009794556277864574873_" cx="118.1" cy="113.1" r="7.4"/>
					</defs>
					<clipPath id="SVGID_00000134959110049856841270000015300096273925405862_">
						<use xlink:href="#SVGID_00000053529239915538173780000009794556277864574873_"  style="overflow:visible;"/>
					</clipPath>
					<g style="clip-path:url(#SVGID_00000134959110049856841270000015300096273925405862_);">
						
							<rect x="114.1" y="111.8" transform="matrix(0.2743 -0.9616 0.9616 0.2743 -18.943 201.2951)" class="st15" width="19.7" height="2.7"/>
						
							<rect x="109.4" y="113.2" transform="matrix(0.2743 -0.9616 0.9616 0.2743 -22.9569 197.3225)" class="st15" width="19.7" height="1.4"/>
					</g>
				</g>
			</g>
		</g>
		<circle class="st13" cx="118.1" cy="139" r="8"/>
		<g>
			<g>
				<g>
					<defs>
						<circle id="SVGID_00000174574879482911900750000000309760739336619445_" cx="118.1" cy="139" r="7.4"/>
					</defs>
					<clipPath id="SVGID_00000052799908939180005400000010684948156474089887_">
						<use xlink:href="#SVGID_00000174574879482911900750000000309760739336619445_"  style="overflow:visible;"/>
					</clipPath>
					<g style="clip-path:url(#SVGID_00000052799908939180005400000010684948156474089887_);">
						
							<rect x="113" y="137.7" transform="matrix(0.2743 -0.9616 0.9616 0.2743 -44.5651 219.0136)" class="st15" width="19.7" height="2.7"/>
						
							<rect x="115.2" y="139" transform="matrix(0.2743 -0.9616 0.9616 0.2743 -43.6148 221.6789)" class="st15" width="19.7" height="1.4"/>
					</g>
				</g>
			</g>
		</g>
		<rect x="2.6" y="57.1" class="st2" width="71.9" height="49.1"/>
		<path class="st11" d="M65.7,98.2l-22.2,1.4c-3.9,0.2-7.9,0.2-11.8,0l-20.9-1.4c-1.7,0-3.1-1.4-3.1-3.1V65.9c0-1.7,1.4-3.1,3.1-3.1
			l22.7-1.4c3.7-0.2,7.5-0.2,11.2,0l21,1.3c1.7,0,3.1,1.4,3.1,3.1V95C68.8,96.8,67.4,98.2,65.7,98.2L65.7,98.2z"/>
		<g>
			<circle class="st4" cx="70.9" cy="100.5" r="1.4"/>
			<polygon class="st6" points="71.6,99.7 70.9,100 70.5,100.5 70.2,101.4 70.6,100.7 71,100.2 			"/>
		</g>
		<g>
			<circle class="st4" cx="6.3" cy="100.5" r="1.4"/>
			<polygon class="st6" points="7,99.7 6.3,100 5.8,100.5 5.6,101.4 6,100.7 6.4,100.2 			"/>
		</g>
		<g>
			<circle class="st4" cx="6.3" cy="60.8" r="1.5"/>
			<polygon class="st6" points="7,60.1 6.3,60.4 5.8,60.9 5.6,61.7 6,61 6.4,60.6 			"/>
		</g>
		<g>
			<circle class="st4" cx="71.1" cy="60.8" r="1.4"/>
			<polygon class="st6" points="71.8,60.1 71.1,60.4 70.6,60.9 70.4,61.7 70.8,61 71.2,60.6 			"/>
		</g>
		<g>
			<rect x="14.8" y="108.1" class="st18" width="45.6" height="0.9"/>
			<rect x="14.8" y="121.5" class="st18" width="45.6" height="1.1"/>
			<rect x="14.8" y="108.8" class="st18" width="1.2" height="13.2"/>
			<rect x="59.2" y="108.5" class="st18" width="1.2" height="13.5"/>
			<g>
				<rect x="17.7" y="109.6" class="st0" width="39.8" height="0.8"/>
				<rect x="17.7" y="111.4" class="st0" width="39.8" height="0.8"/>
				<rect x="17.7" y="113.1" class="st0" width="39.8" height="0.8"/>
				<rect x="17.7" y="114.8" class="st0" width="39.8" height="0.8"/>
				<rect x="17.7" y="116.6" class="st0" width="39.8" height="0.8"/>
				<rect x="17.7" y="118.3" class="st0" width="39.8" height="0.8"/>
				<rect x="17.7" y="120" class="st0" width="39.8" height="0.8"/>
			</g>
		</g>
		<rect x="68.6" y="111.2" class="st18" width="3.2" height="3.2"/>
		<rect x="73.2" y="111.2" class="st18" width="3.2" height="3.2"/>
		<rect x="68.6" y="116" class="st18" width="3.2" height="3.2"/>
		<rect x="73.2" y="116" class="st18" width="3.2" height="3.2"/>
		<rect x="68.6" y="120.7" class="st18" width="3.2" height="3.2"/>
		<rect x="73.2" y="120.7" class="st18" width="3.2" height="3.2"/>
		<rect x="68.6" y="125.5" class="st18" width="3.2" height="3.2"/>
		<rect x="73.2" y="125.5" class="st18" width="3.2" height="3.2"/>
		<rect x="68.6" y="130.3" class="st18" width="3.2" height="3.2"/>
		<rect x="73.2" y="130.3" class="st18" width="3.2" height="3.2"/>
		<rect x="68.6" y="135" class="st18" width="3.2" height="3.2"/>
		<rect x="73.2" y="135" class="st18" width="3.2" height="3.2"/>
		<polyline class="st19" points="67.5,111.2 66.2,111.2 66.2,138.2 67.5,138.2 		"/>
		<polyline class="st19" points="66.2,124.3 12.9,124.3 9.8,121.1 		"/>
		<polyline class="st19" points="53.3,124.3 53.3,143.5 60.4,150.5 76.1,150.5 		"/>
		<circle class="st18" cx="76.6" cy="150.5" r="1"/>
		<g>
			<g>
				<polygon class="st20" points="43.8,126.9 16.2,126.9 0,144.1 4.2,175.1 11.9,179.7 32.9,180.6 50.7,170.4 54.5,162 54.5,137.1 
									"/>
				<polygon class="st21" points="21.9,136.8 19,138.8 14.4,141.1 10.8,144.3 8.6,146.2 8.6,149.1 9,154.4 10.7,162.1 11.3,169.3 
					28.3,170.1 44,154.9 				"/>
				<polygon class="st22" points="43.8,126.9 21.9,136.8 27.5,142.1 38.2,150.2 42.1,154.1 44,154.9 54.5,137.1 				"/>
				<polygon class="st23" points="16.2,126.9 21.9,136.8 43.8,126.9 				"/>
				<polygon class="st24" points="32.9,180.6 28.3,170.1 30.5,166.6 36.2,162.4 40.2,158.6 43.1,155.4 44,154.9 54.5,162 
					51.1,170.1 				"/>
				<polygon class="st25" points="11.3,169.3 4.1,174.7 10.9,179.1 32.9,180.6 28.3,170.1 				"/>
			</g>
			<g>
				<polygon class="st20" points="56.6,157.2 44.3,157.2 37,165 38.9,178.9 42.3,180.9 51.8,181.3 59.7,176.7 61.5,173 61.5,161.8 
									"/>
				<polygon class="st21" points="46.8,161.7 45.5,162.6 43.5,163.6 41.9,165.1 40.8,165.9 40.9,167.2 41,169.6 41.8,173.1 
					42.1,176.2 49.7,176.6 56.8,169.8 				"/>
				<polygon class="st22" points="56.6,157.2 46.8,161.7 49.3,164.1 54.2,167.7 55.9,169.4 56.8,169.8 61.5,161.8 				"/>
				<polygon class="st23" points="44.3,157.2 46.8,161.7 56.6,157.2 				"/>
				<polygon class="st24" points="51.8,181.3 49.7,176.6 50.7,175 53.3,173.2 55,171.5 56.3,170 56.8,169.8 61.5,173 59.9,176.6 
									"/>
				<polygon class="st25" points="42.1,176.2 38.8,178.7 41.9,180.7 51.8,181.3 49.7,176.6 				"/>
			</g>
			<g>
				<polygon class="st20" points="66.2,170.4 56.5,169.4 50.4,172.7 51.2,179.8 53.8,181.1 61.2,182.1 67.7,180.4 69.2,178.6 
					69.8,173 				"/>
				<polygon class="st21" points="58.3,171.8 57.2,172.2 55.5,172.5 54.2,173.1 53.4,173.5 53.3,174.1 53.3,175.3 53.7,177.1 
					53.8,178.8 59.8,179.6 65.7,176.7 				"/>
				<polygon class="st22" points="66.2,170.4 58.3,171.8 60.1,173.2 63.7,175.4 65,176.4 65.7,176.7 69.8,173 				"/>
				<polygon class="st23" points="56.5,169.4 58.3,171.8 66.2,170.4 				"/>
				<polygon class="st24" points="61.2,182.1 59.8,179.6 60.7,178.8 62.8,178.1 64.2,177.4 65.3,176.8 65.7,176.7 69.2,178.6 
					67.8,180.3 				"/>
				<polygon class="st25" points="53.8,178.8 51.1,179.7 53.5,181 61.2,182.1 59.8,179.6 				"/>
			</g>
			<g>
				<polygon class="st20" points="38.9,174.9 35.7,174.9 33.8,176.9 34.3,180.5 35.2,181 37.6,181.1 39.7,179.9 40.2,179 
					40.2,176.1 				"/>
				<polygon class="st21" points="36.4,176.1 36,176.3 35.5,176.6 35.1,176.9 34.8,177.1 34.8,177.5 34.9,178.1 35.1,179 
					35.2,179.8 37.1,179.9 38.9,178.1 				"/>
				<polygon class="st22" points="38.9,174.9 36.4,176.1 37,176.7 38.3,177.6 38.7,178.1 38.9,178.1 40.2,176.1 				"/>
				<polygon class="st23" points="35.7,174.9 36.4,176.1 38.9,174.9 				"/>
				<polygon class="st24" points="37.6,181.1 37.1,179.9 37.4,179.5 38,179 38.5,178.6 38.8,178.2 38.9,178.1 40.2,179 39.8,179.9 
									"/>
				<polygon class="st25" points="35.2,179.8 34.3,180.4 35.1,181 37.6,181.1 37.1,179.9 				"/>
			</g>
			<g>
				<polygon class="st20" points="41.1,178.8 39.8,178.8 39.1,179.6 39.3,181 39.6,181.2 40.6,181.3 41.4,180.8 41.6,180.4 
					41.6,179.3 				"/>
				<polygon class="st21" points="40.1,179.2 40,179.3 39.8,179.4 39.6,179.6 39.5,179.7 39.5,179.8 39.5,180.1 39.6,180.4 
					39.6,180.8 40.4,180.8 41.1,180.1 				"/>
				<polygon class="st22" points="41.1,178.8 40.1,179.2 40.3,179.5 40.8,179.9 41,180 41.1,180.1 41.6,179.3 				"/>
				<polygon class="st23" points="39.8,178.8 40.1,179.2 41.1,178.8 				"/>
				<polygon class="st24" points="40.6,181.3 40.4,180.8 40.5,180.6 40.8,180.4 40.9,180.3 41.1,180.1 41.1,180.1 41.6,180.4 
					41.5,180.8 				"/>
				<polygon class="st25" points="39.6,180.8 39.3,181 39.6,181.2 40.6,181.3 40.4,180.8 				"/>
			</g>
		</g>
		<rect x="79.6" y="111.2" class="st26" width="2.4" height="27"/>
		<rect x="79.9" y="122.2" class="st1" width="1.9" height="4.4"/>
		<rect x="80.3" y="124.4" class="st27" width="1" height="12.2"/>
		<path class="st28" d="M80.9,135.2h2.7c0.5,0,1,0.5,1,1.1l0,0c0,0.6-0.4,1.1-1,1.1h-5.5c-0.5,0-1-0.5-1-1.1l0,0
			c0-0.6,0.4-1.1,1-1.1H80.9"/>
		<polyline class="st29" points="96.1,119.2 102.3,119.2 102.3,145.4 112.8,155.9 130,155.9 134.8,160.7 		"/>
		<rect x="97.3" y="122.3" class="st30" width="2.3" height="20.1"/>
		<polygon class="st5" points="97.4,142.4 94.6,142.4 94.8,135.1 97.3,122.3 		"/>
		<rect x="237" y="162.6" class="st0" width="1.7" height="4.2"/>
		<rect x="236.6" y="163.4" class="st1" width="0.4" height="2.8"/>
		<polyline class="st31" points="35.9,45.6 35.9,31.8 286.7,33 286.4,6.7 327.8,6.7 		"/>
		<line class="st31" x1="289.8" y1="111.5" x2="327.8" y2="111.5"/>
		<polyline class="st31" points="327.8,60.7 307.8,60.7 307.8,87.1 289.8,87.1 		"/>
		<polyline class="st31" points="327.8,167.3 307.8,167.3 307.8,140.9 289.8,140.9 		"/>
		<g>
			<path class="st32" d="M274,97.1H140.5c-5.2,0-9.5-4.3-9.5-9.5l0,0c0-5.2,4.3-9.5,9.5-9.5H274c5.2,0,9.5,4.3,9.5,9.5l0,0
				C283.5,92.9,279.3,97.1,274,97.1z"/>
			<g>
				<g>
					<path class="st33" d="M256.7,84.7l0.6,1.1v1.8l0.3,1.5l-0.2,1.8H141.8c0,0-1.9,0.1-1.9,0c0-0.1-1.1-1.9-1.1-2
						c0-0.1,0.7-3.4,0.7-3.4l1.6-1.5l40.3,0.7l75.4-0.1"/>
				</g>
				<g>
					<path class="st34" d="M256.7,84.7l0.6,1.1v1.8l0.3,1.5l-0.2,1.8H141.8c0,0-1.9,0.1-1.9,0c0-0.1-1.1-1.9-1.1-2
						c0-0.1,0.7-3.4,0.7-3.4l1.6-1.5l40.3,0.7l75.4-0.1"/>
				</g>
			</g>
			<path class="st35" d="M272.1,95.3H142.3c-4.4,0-8-2.9-8-6.4v-2.5c0-3.6,3.6-6.4,8-6.4H272c4.4,0,8,2.9,8,6.4v2.5
				C280,92.4,276.5,95.3,272.1,95.3z M142.3,83.2c-2.2,0-4,1.5-4,3.3V89c0,1.8,1.8,3.3,4,3.3H272c2.2,0,4-1.5,4-3.3v-2.5
				c0-1.8-1.8-3.3-4-3.3H142.3z"/>
			<path class="st36" d="M270.9,92.3h-127c-3.3,0-6.1-2.2-6.1-4.9c0-2.7,2.7-4.9,6.1-4.9h127c3.3,0,6.1,2.2,6.1,4.9
				C277,90.1,274.2,92.3,270.9,92.3z M143.8,84.4c-2.1,0-3.7,1.3-3.7,3s1.7,3,3.7,3h127c2.1,0,3.7-1.3,3.7-3s-1.7-3-3.7-3H143.8z"/>
			<g class="st37">
				<g>
					<g>
						<defs>
							<path id="SVGID_00000067231560237226429440000014243836357375764119_" d="M266.6,95.3H136.9c-4.4,0-8-2.9-8-6.4v-2.5
								c0-3.6,3.6-6.4,8-6.4h129.7c4.4,0,8,2.9,8,6.4v2.5C274.6,92.4,271,95.3,266.6,95.3z M136.9,83.2c-2.2,0-4,1.5-4,3.3V89
								c0,1.8,1.8,3.3,4,3.3h129.7c2.2,0,4-1.5,4-3.3v-2.5c0-1.8-1.8-3.3-4-3.3H136.9z"/>
						</defs>
						<clipPath id="SVGID_00000022535337789953105110000009925478932013555855_">
							<use xlink:href="#SVGID_00000067231560237226429440000014243836357375764119_"  style="overflow:visible;"/>
						</clipPath>
						<polygon style="clip-path:url(#SVGID_00000022535337789953105110000009925478932013555855_);fill:#FFFFFF;" points="
							185,104.6 180,102.8 205.3,56.5 210.3,58.3 						"/>
					</g>
				</g>
				<g>
					<g>
						<defs>
							<path id="SVGID_00000183937874391796833590000007276262179490705297_" d="M266.6,95.3H136.9c-4.4,0-8-2.9-8-6.4v-2.5
								c0-3.6,3.6-6.4,8-6.4h129.7c4.4,0,8,2.9,8,6.4v2.5C274.6,92.4,271,95.3,266.6,95.3z M136.9,83.2c-2.2,0-4,1.5-4,3.3V89
								c0,1.8,1.8,3.3,4,3.3h129.7c2.2,0,4-1.5,4-3.3v-2.5c0-1.8-1.8-3.3-4-3.3H136.9z"/>
						</defs>
						<clipPath id="SVGID_00000084495159393055053900000013786596453747223704_">
							<use xlink:href="#SVGID_00000183937874391796833590000007276262179490705297_"  style="overflow:visible;"/>
						</clipPath>
						<polygon style="clip-path:url(#SVGID_00000084495159393055053900000013786596453747223704_);fill:#FFFFFF;" points="
							195.7,108 186.7,104.8 212,58.5 221.1,61.7 						"/>
					</g>
				</g>
			</g>
			<path class="st40" d="M243.5,87.8c0,0-1.8-0.1-2.9-0.7c-1.2-0.6-2.3-0.7-3.2-0.1c-0.9,0.6,1.1,1.3-1.3,1.7s-10.6-4.8-13.6-3.3
				s-2.8,3.2-4.7,3.3c-1.9,0.1-1.3,1.6-0.2,1.5c1.1-0.2,2.8-1.3,3.9-0.9c1.1,0.3,3.7,1.6,4.3-0.1s-0.3-2.6,1.5-1.8s3.7-0.4,4.8,1.1
				c1.2,1.4,2.4,2.5,3.7,1.3s0.7-1.3,1.5-1.2c0.7,0.1,2.8-1,3.7-0.4C241.8,88.6,243.9,89.4,243.5,87.8z"/>
			<path class="st40" d="M198.5,88.9c0,0,0-1.5-1.1-2c-1.2-0.5-2.2-1-4.4-0.5s-1.9,0.5-3,0.1c-1.1-0.3-3-0.3-3.1,0
				c-0.2,0.3-1.3,0.3,1,1c2.2,0.7,1,0.6,2.6,1.4C192,89.6,195.1,90.5,198.5,88.9z"/>
			<path class="st40" d="M154.7,88.9c2,0.4,2.6-2.6,0.7-3.1c-0.4-0.1-0.9-0.1-1.4-0.1c-2,0.3-4.1,2.1-5,1.8c-0.8-0.3-3-0.4-2.9,0.6
				s0.2,0.7,0.4,1.3s4.3,0.4,4.6-0.3c0.3-0.7,2.6-0.9,2.9-0.6C154,88.8,154.3,88.9,154.7,88.9z"/>
			<path class="st40" d="M159.8,87.2c0,0-1.1-0.1-1.1,0.3c0,0.4-0.7,2.3,0.6,1.8C160.5,88.9,160.2,88.2,159.8,87.2z"/>
			<path class="st41" d="M143.1,90.5h128.4c1.7,0,3-1.4,3-3l0,0c0-1.7-1.4-3-3-3H143.1c-1.7,0-3,1.4-3,3l0,0
				C140.1,89.1,141.4,90.5,143.1,90.5z"/>
			<g>
				<circle class="st42" cx="145.2" cy="81.3" r="1"/>
				<polygon class="st6" points="145.7,80.8 145.2,81 144.9,81.3 144.8,81.9 145,81.4 145.3,81.1 				"/>
			</g>
			<g>
				<circle class="st42" cx="145.2" cy="93.9" r="1"/>
				<polygon class="st6" points="145.7,93.4 145.2,93.6 144.9,93.9 144.8,94.5 145,94 145.3,93.7 				"/>
			</g>
			<g>
				<circle class="st42" cx="270.6" cy="81.3" r="1"/>
				<polygon class="st6" points="271.1,80.8 270.7,81 270.3,81.3 270.2,81.9 270.4,81.4 270.7,81.1 				"/>
			</g>
			<g>
				<circle class="st42" cx="270.6" cy="93.9" r="1"/>
				<polygon class="st6" points="271.1,93.4 270.7,93.6 270.3,93.9 270.2,94.5 270.4,94 270.7,93.7 				"/>
			</g>
			<g>
				<circle class="st42" cx="234.1" cy="81.3" r="1"/>
				<polygon class="st6" points="234.6,80.8 234.1,81 233.8,81.3 233.6,81.9 233.9,81.4 234.2,81.1 				"/>
			</g>
			<g>
				<circle class="st42" cx="234.1" cy="93.9" r="1"/>
				<polygon class="st6" points="234.6,93.4 234.1,93.6 233.8,93.9 233.6,94.5 233.9,94 234.2,93.7 				"/>
			</g>
			<g>
				<circle class="st42" cx="176.7" cy="81.3" r="1"/>
				<polygon class="st6" points="177.2,80.8 176.7,81 176.4,81.3 176.2,81.9 176.5,81.4 176.8,81.1 				"/>
			</g>
			<g>
				<circle class="st42" cx="176.7" cy="93.9" r="1"/>
				<polygon class="st6" points="177.2,93.4 176.7,93.6 176.4,93.9 176.2,94.5 176.5,94 176.8,93.7 				"/>
			</g>
			<g>
				<circle class="st42" cx="135.8" cy="87.4" r="1"/>
				<polygon class="st6" points="136.3,86.9 135.8,87.1 135.5,87.5 135.3,88 135.6,87.6 135.9,87.3 				"/>
			</g>
			<g>
				<circle class="st42" cx="278.3" cy="87.4" r="1"/>
				<polygon class="st6" points="278.8,86.9 278.4,87.1 278,87.5 277.9,88 278.1,87.6 278.4,87.3 				"/>
			</g>
		</g>
		<g>
			<path class="st32" d="M274,122.5H140.5c-5.2,0-9.5-4.3-9.5-9.5l0,0c0-5.2,4.3-9.5,9.5-9.5H274c5.2,0,9.5,4.3,9.5,9.5l0,0
				C283.5,118.2,279.3,122.5,274,122.5z"/>
			<g>
				<g>
					<path class="st43" d="M271.5,109l0.7,1.4v2.1l0.3,1.9l-0.2,2.2H143.4c0,0-2.1,0.1-2.1,0s-1.2-2.3-1.2-2.4s0.7-4.1,0.7-4.2
						s1.7-1.8,1.7-1.8l45,0.8H271.5"/>
				</g>
				<g>
					<path class="st44" d="M271.5,109l0.7,1.4v2.1l0.3,1.9l-0.2,2.2H143.4c0,0-2.1,0.1-2.1,0s-1.2-2.3-1.2-2.4s0.7-4.1,0.7-4.2
						s1.7-1.8,1.7-1.8l45,0.8H271.5"/>
				</g>
			</g>
			<path class="st35" d="M272.1,120.3H142.3c-4.4,0-8-2.9-8-6.4v-2.5c0-3.6,3.6-6.4,8-6.4H272c4.4,0,8,2.9,8,6.4v2.5
				C280,117.4,276.5,120.3,272.1,120.3z M142.3,108.1c-2.2,0-4,1.5-4,3.3v2.5c0,1.8,1.8,3.3,4,3.3H272c2.2,0,4-1.5,4-3.3v-2.5
				c0-1.8-1.8-3.3-4-3.3H142.3z"/>
			<path class="st36" d="M270.9,117.3h-127c-3.3,0-6.1-2.2-6.1-4.9s2.7-4.9,6.1-4.9h127c3.3,0,6.1,2.2,6.1,4.9
				S274.2,117.3,270.9,117.3z M143.8,109.4c-2.1,0-3.7,1.3-3.7,3s1.7,3,3.7,3h127c2.1,0,3.7-1.3,3.7-3s-1.7-3-3.7-3H143.8z"/>
			<g class="st37">
				<g>
					<g>
						<defs>
							<path id="SVGID_00000144327243650200428920000000540947460897940385_" d="M266.6,120.3H136.9c-4.4,0-8-2.9-8-6.4v-2.5
								c0-3.6,3.6-6.4,8-6.4h129.7c4.4,0,8,2.9,8,6.4v2.5C274.6,117.4,271,120.3,266.6,120.3z M136.9,108.1c-2.2,0-4,1.5-4,3.3v2.5
								c0,1.8,1.8,3.3,4,3.3h129.7c2.2,0,4-1.5,4-3.3v-2.5c0-1.8-1.8-3.3-4-3.3H136.9z"/>
						</defs>
						<clipPath id="SVGID_00000065058140787771674660000002408776635504484263_">
							<use xlink:href="#SVGID_00000144327243650200428920000000540947460897940385_"  style="overflow:visible;"/>
						</clipPath>
						<polygon style="clip-path:url(#SVGID_00000065058140787771674660000002408776635504484263_);fill:#FFFFFF;" points="
							185,129.6 180,127.8 205.3,81.5 210.3,83.3 						"/>
					</g>
				</g>
				<g>
					<g>
						<defs>
							<path id="SVGID_00000033330781719990325930000008972644253280415673_" d="M266.6,120.3H136.9c-4.4,0-8-2.9-8-6.4v-2.5
								c0-3.6,3.6-6.4,8-6.4h129.7c4.4,0,8,2.9,8,6.4v2.5C274.6,117.4,271,120.3,266.6,120.3z M136.9,108.1c-2.2,0-4,1.5-4,3.3v2.5
								c0,1.8,1.8,3.3,4,3.3h129.7c2.2,0,4-1.5,4-3.3v-2.5c0-1.8-1.8-3.3-4-3.3H136.9z"/>
						</defs>
						<clipPath id="SVGID_00000080169807816514795580000000809457391358636946_">
							<use xlink:href="#SVGID_00000033330781719990325930000008972644253280415673_"  style="overflow:visible;"/>
						</clipPath>
						<polygon style="clip-path:url(#SVGID_00000080169807816514795580000000809457391358636946_);fill:#FFFFFF;" points="
							195.7,133 186.7,129.7 212,83.5 221.1,86.7 						"/>
					</g>
				</g>
			</g>
			<path class="st41" d="M143.1,115.4h128.4c1.7,0,3-1.4,3-3l0,0c0-1.7-1.4-3-3-3H143.1c-1.7,0-3,1.4-3,3l0,0
				C140.1,114.1,141.4,115.4,143.1,115.4z"/>
			<g>
				<circle class="st42" cx="145.2" cy="106.1" r="1"/>
				<polygon class="st6" points="145.7,105.6 145.2,105.8 144.9,106.1 144.8,106.7 145,106.3 145.3,105.9 				"/>
			</g>
			<g>
				<circle class="st42" cx="145.2" cy="118.7" r="1"/>
				<polygon class="st6" points="145.7,118.2 145.2,118.4 144.9,118.7 144.8,119.3 145,118.8 145.3,118.5 				"/>
			</g>
			<g>
				<circle class="st42" cx="270.6" cy="106.1" r="1"/>
				<polygon class="st6" points="271.1,105.6 270.7,105.8 270.3,106.1 270.2,106.7 270.4,106.3 270.7,105.9 				"/>
			</g>
			<g>
				<circle class="st42" cx="270.6" cy="118.7" r="1"/>
				<polygon class="st6" points="271.1,118.2 270.7,118.4 270.3,118.7 270.2,119.3 270.4,118.8 270.7,118.5 				"/>
			</g>
			<g>
				<circle class="st42" cx="234.1" cy="106.1" r="1"/>
				<polygon class="st6" points="234.6,105.6 234.1,105.8 233.8,106.1 233.6,106.7 233.9,106.3 234.2,105.9 				"/>
			</g>
			<g>
				<circle class="st42" cx="234.1" cy="118.7" r="1"/>
				<polygon class="st6" points="234.6,118.2 234.1,118.4 233.8,118.7 233.6,119.3 233.9,118.8 234.2,118.5 				"/>
			</g>
			<g>
				<circle class="st42" cx="176.7" cy="106.1" r="1"/>
				<polygon class="st6" points="177.2,105.6 176.7,105.8 176.4,106.1 176.2,106.7 176.5,106.3 176.8,105.9 				"/>
			</g>
			<g>
				<circle class="st42" cx="176.7" cy="118.7" r="1"/>
				<polygon class="st6" points="177.2,118.2 176.7,118.4 176.4,118.7 176.2,119.3 176.5,118.8 176.8,118.5 				"/>
			</g>
			<g>
				<circle class="st42" cx="135.8" cy="112.2" r="1"/>
				<polygon class="st6" points="136.3,111.8 135.8,111.9 135.5,112.3 135.3,112.8 135.6,112.4 135.9,112.1 				"/>
			</g>
			<g>
				<circle class="st42" cx="278.3" cy="112.2" r="1"/>
				<polygon class="st6" points="278.8,111.8 278.4,111.9 278,112.3 277.9,112.8 278.1,112.4 278.4,112.1 				"/>
			</g>
		</g>
		<g>
			<path class="st32" d="M274,148.9H140.5c-5.2,0-9.5-4.3-9.5-9.5l0,0c0-5.2,4.3-9.5,9.5-9.5H274c5.2,0,9.5,4.3,9.5,9.5l0,0
				C283.5,144.6,279.3,148.9,274,148.9z"/>
			<g>
				<g>
					<path class="st47" d="M239.5,135.8l0.5,1.4v2.1l0.3,1.9l-0.2,2.2h-98c0,0-1.6,0.1-1.6,0s-0.9-2.3-0.9-2.4
						c0-0.1,0.6-4.1,0.6-4.2c0-0.1,1.3-1.8,1.3-1.8l34.2,0.8l63.9-0.1"/>
				</g>
				<g>
					<path class="st48" d="M239.5,135.8l0.5,1.4v2.1l0.3,1.9l-0.2,2.2h-98c0,0-1.6,0.1-1.6,0s-0.9-2.3-0.9-2.4
						c0-0.1,0.6-4.1,0.6-4.2c0-0.1,1.3-1.8,1.3-1.8l34.2,0.8l63.9-0.1"/>
				</g>
			</g>
			<path class="st35" d="M272.1,147H142.3c-4.4,0-8-2.9-8-6.4v-2.5c0-3.6,3.6-6.4,8-6.4H272c4.4,0,8,2.9,8,6.4v2.5
				C280,144.2,276.5,147,272.1,147z M142.3,134.9c-2.2,0-4,1.5-4,3.3v2.5c0,1.8,1.8,3.3,4,3.3H272c2.2,0,4-1.5,4-3.3v-2.5
				c0-1.8-1.8-3.3-4-3.3H142.3z"/>
			<path class="st36" d="M270.9,144h-127c-3.3,0-6.1-2.2-6.1-4.9s2.7-4.9,6.1-4.9h127c3.3,0,6.1,2.2,6.1,4.9S274.2,144,270.9,144z
				 M143.8,136.2c-2.1,0-3.7,1.3-3.7,3s1.7,3,3.7,3h127c2.1,0,3.7-1.3,3.7-3s-1.7-3-3.7-3H143.8z"/>
			<g class="st37">
				<g>
					<g>
						<defs>
							<path id="SVGID_00000149367952480139671480000006935791033671450803_" d="M266.6,147H136.9c-4.4,0-8-2.9-8-6.4v-2.5
								c0-3.6,3.6-6.4,8-6.4h129.7c4.4,0,8,2.9,8,6.4v2.5C274.6,144.2,271,147,266.6,147z M136.9,134.9c-2.2,0-4,1.5-4,3.3v2.5
								c0,1.8,1.8,3.3,4,3.3h129.7c2.2,0,4-1.5,4-3.3v-2.5c0-1.8-1.8-3.3-4-3.3H136.9z"/>
						</defs>
						<clipPath id="SVGID_00000114038087948979034770000003998225368288674194_">
							<use xlink:href="#SVGID_00000149367952480139671480000006935791033671450803_"  style="overflow:visible;"/>
						</clipPath>
						<polygon style="clip-path:url(#SVGID_00000114038087948979034770000003998225368288674194_);fill:#FFFFFF;" points="
							185,156.3 180,154.5 205.3,108.3 210.3,110.1 						"/>
					</g>
				</g>
				<g>
					<g>
						<defs>
							<path id="SVGID_00000128484154703222513170000006274697344340989842_" d="M266.6,147H136.9c-4.4,0-8-2.9-8-6.4v-2.5
								c0-3.6,3.6-6.4,8-6.4h129.7c4.4,0,8,2.9,8,6.4v2.5C274.6,144.2,271,147,266.6,147z M136.9,134.9c-2.2,0-4,1.5-4,3.3v2.5
								c0,1.8,1.8,3.3,4,3.3h129.7c2.2,0,4-1.5,4-3.3v-2.5c0-1.8-1.8-3.3-4-3.3H136.9z"/>
						</defs>
						<clipPath id="SVGID_00000142140317280167802230000004438291659363893663_">
							<use xlink:href="#SVGID_00000128484154703222513170000006274697344340989842_"  style="overflow:visible;"/>
						</clipPath>
						<polygon style="clip-path:url(#SVGID_00000142140317280167802230000004438291659363893663_);fill:#FFFFFF;" points="
							195.7,159.7 186.7,156.5 212,110.2 221.1,113.5 						"/>
					</g>
				</g>
			</g>
			<path class="st41" d="M143.1,142.2h128.4c1.7,0,3-1.4,3-3l0,0c0-1.7-1.4-3-3-3H143.1c-1.7,0-3,1.4-3,3l0,0
				C140.1,140.9,141.4,142.2,143.1,142.2z"/>
			<g>
				<circle class="st42" cx="145.2" cy="132.9" r="1"/>
				<polygon class="st6" points="145.7,132.4 145.2,132.6 144.9,132.9 144.8,133.5 145,133 145.3,132.7 				"/>
			</g>
			<g>
				<circle class="st42" cx="145.2" cy="145.5" r="1"/>
				<polygon class="st6" points="145.7,145 145.2,145.2 144.9,145.5 144.8,146.1 145,145.6 145.3,145.3 				"/>
			</g>
			<g>
				<circle class="st42" cx="270.6" cy="132.9" r="1"/>
				<polygon class="st6" points="271.1,132.4 270.7,132.6 270.3,132.9 270.2,133.5 270.4,133 270.7,132.7 				"/>
			</g>
			<g>
				<circle class="st42" cx="270.6" cy="145.5" r="1"/>
				<polygon class="st6" points="271.1,145 270.7,145.2 270.3,145.5 270.2,146.1 270.4,145.6 270.7,145.3 				"/>
			</g>
			<g>
				<circle class="st42" cx="234.1" cy="132.9" r="1"/>
				<polygon class="st6" points="234.6,132.4 234.1,132.6 233.8,132.9 233.6,133.5 233.9,133 234.2,132.7 				"/>
			</g>
			<g>
				<circle class="st42" cx="234.1" cy="145.5" r="1"/>
				<polygon class="st6" points="234.6,145 234.1,145.2 233.8,145.5 233.6,146.1 233.9,145.6 234.2,145.3 				"/>
			</g>
			<g>
				<circle class="st42" cx="176.7" cy="132.9" r="1"/>
				<polygon class="st6" points="177.2,132.4 176.7,132.6 176.4,132.9 176.2,133.5 176.5,133 176.8,132.7 				"/>
			</g>
			<g>
				<circle class="st42" cx="176.7" cy="145.5" r="1"/>
				<polygon class="st6" points="177.2,145 176.7,145.2 176.4,145.5 176.2,146.1 176.5,145.6 176.8,145.3 				"/>
			</g>
			<g>
				<circle class="st42" cx="135.8" cy="139" r="1"/>
				<polygon class="st6" points="136.3,138.6 135.8,138.7 135.5,139.1 135.3,139.6 135.6,139.2 135.9,138.9 				"/>
			</g>
			<g>
				<circle class="st42" cx="278.3" cy="139" r="1"/>
				<polygon class="st6" points="278.8,138.6 278.4,138.7 278,139.1 277.9,139.6 278.1,139.2 278.4,138.9 				"/>
			</g>
		</g>
		<g>
			<path class="st12" d="M23,68.6v5.3h3.2v1H22v-7.4h4.2v1L23,68.6L23,68.6z M26.1,68.6h1v5.3h-1V68.6z"/>
			<path class="st12" d="M33.5,70.8v2.1h-4.2V74h-1v-3.2h1v1.1h3.2v-1.1H33.5z M32.5,70.8h-3.2v-1h3.2V70.8z M29.3,75v-1h4.2v1H29.3
				z"/>
			<path class="st12" d="M35.6,70.8V74h3.2v1h-3.2v2.1h-1v-7.4h4.2v1h-3.2V70.8z M38.8,70.8h1V74h-1V70.8z"/>
			<path class="st12" d="M44,70.8h-2.1V74h-1v-5.3h1v1.1H44V70.8z M44,75h-2.1v-1H44V75z"/>
			<path class="st12" d="M46.1,70.8V75h-1v-7.4h1v2.1h3.2v1h-3.2V70.8z M49.3,70.8h1V75h-1V70.8z"/>
			<path class="st12" d="M51.4,69.7h1v1h-1V69.7z M51.4,75v-1h1v1H51.4z"/>
			<path class="st12" d="M33,90.6h-4.2v-1H33V90.6z"/>
			<path class="st12" d="M39.3,86.4h-4.2v2.1h3.2v1.1H34v-4.2h5.3V86.4z M34,92.7v-1h4.2v1H34z M39.3,91.6h-1v-2.1h1V91.6z"/>
			<path class="st12" d="M40.3,86.4h1v5.3h-1V86.4z M44.6,85.3v1h-3.2v-1H44.6z M41.4,92.7v-1h3.2v1H41.4z M44.6,86.4h1v5.3h-1V86.4
				z"/>
		</g>
		<g>
			<path class="st51" d="M370.2,1.3h-1.4V0h1.4V1.3z M370.1,10.3h-1.3V2.6h1.3V10.3z"/>
			<path class="st51" d="M379,10.3h-1.3V5.9c0-0.4,0-0.7-0.1-1s-0.1-0.5-0.2-0.7c-0.1-0.2-0.3-0.3-0.5-0.4s-0.5-0.1-0.8-0.1
				c-0.4,0-0.7,0.1-1.1,0.3s-0.8,0.4-1.1,0.7v5.7h-1.3V2.6h1.3v0.8c0.4-0.3,0.8-0.6,1.2-0.8s0.9-0.3,1.3-0.3c0.8,0,1.5,0.2,1.9,0.7
				s0.6,1.2,0.6,2.1V10.3z"/>
			<path class="st51" d="M382.9,1.3h-1.4V0h1.4V1.3z M382.8,10.3h-1.3V2.6h1.3V10.3z"/>
			<path class="st51" d="M391.7,10.3h-1.3V5.9c0-0.4,0-0.7-0.1-1s-0.1-0.5-0.2-0.7c-0.1-0.2-0.3-0.3-0.5-0.4s-0.5-0.1-0.8-0.1
				c-0.4,0-0.7,0.1-1.1,0.3s-0.8,0.4-1.1,0.7v5.7h-1.3V2.6h1.3v0.8c0.4-0.3,0.8-0.6,1.2-0.8s0.9-0.3,1.3-0.3c0.8,0,1.5,0.2,1.9,0.7
				s0.6,1.2,0.6,2.1V10.3z"/>
			<path class="st51" d="M400.4,9.4c0,1.3-0.3,2.2-0.9,2.9s-1.5,0.9-2.7,0.9c-0.4,0-0.8,0-1.2-0.1c-0.4-0.1-0.8-0.1-1.1-0.2v-1.3
				h0.1c0.2,0.1,0.5,0.2,1,0.3s0.9,0.2,1.4,0.2c0.4,0,0.8-0.1,1.1-0.2s0.5-0.3,0.7-0.4c0.2-0.2,0.3-0.4,0.3-0.6s0.1-0.5,0.1-0.8V9.2
				c-0.4,0.3-0.8,0.5-1.1,0.7c-0.4,0.2-0.8,0.2-1.4,0.2c-0.9,0-1.6-0.3-2.2-1c-0.5-0.7-0.8-1.6-0.8-2.8c0-0.7,0.1-1.2,0.3-1.7
				c0.2-0.5,0.4-0.9,0.8-1.2c0.3-0.3,0.7-0.6,1.1-0.8s0.8-0.3,1.3-0.3c0.4,0,0.8,0,1.1,0.1c0.3,0.1,0.6,0.2,0.9,0.4l0.1-0.3h1.2V9.4
				z M399.1,8.2V4c-0.3-0.2-0.7-0.3-1-0.3c-0.3-0.1-0.6-0.1-0.9-0.1c-0.7,0-1.3,0.2-1.7,0.7S395,5.4,395,6.3c0,0.9,0.2,1.5,0.5,1.9
				s0.8,0.7,1.5,0.7c0.4,0,0.7-0.1,1.1-0.2C398.5,8.6,398.8,8.4,399.1,8.2z"/>
			<path class="st51" d="M409.4,10.6h-1.3V0h1.3V10.6z"/>
			<path class="st51" d="M418.3,7h-5.6c0,0.5,0.1,0.9,0.2,1.2c0.1,0.3,0.3,0.6,0.6,0.9c0.2,0.2,0.5,0.4,0.8,0.5
				c0.3,0.1,0.7,0.2,1.1,0.2c0.5,0,1-0.1,1.6-0.3s0.9-0.4,1.1-0.6h0.1v1.4c-0.4,0.2-0.9,0.3-1.3,0.5s-0.9,0.2-1.4,0.2
				c-1.3,0-2.3-0.3-3-1s-1.1-1.7-1.1-2.9c0-1.2,0.3-2.2,1-3c0.7-0.7,1.6-1.1,2.7-1.1c1,0,1.8,0.3,2.4,0.9c0.6,0.6,0.8,1.5,0.8,2.6V7
				z M417.1,6c0-0.7-0.2-1.2-0.5-1.6s-0.8-0.6-1.5-0.6c-0.7,0-1.2,0.2-1.6,0.6c-0.4,0.4-0.6,0.9-0.7,1.5H417.1z"/>
			<path class="st51" d="M426.9,3l-3.1,7.6h-1.3L419.4,3h1.4l2.4,6.1l2.3-6.1H426.9z"/>
			<path class="st51" d="M434.8,7h-5.6c0,0.5,0.1,0.9,0.2,1.2c0.1,0.3,0.3,0.6,0.6,0.9c0.2,0.2,0.5,0.4,0.8,0.5
				c0.3,0.1,0.7,0.2,1.1,0.2c0.5,0,1-0.1,1.6-0.3s0.9-0.4,1.1-0.6h0.1v1.4c-0.4,0.2-0.9,0.3-1.3,0.5s-0.9,0.2-1.4,0.2
				c-1.3,0-2.3-0.3-3-1s-1.1-1.7-1.1-2.9c0-1.2,0.3-2.2,1-3c0.7-0.7,1.6-1.1,2.7-1.1c1,0,1.8,0.3,2.4,0.9c0.6,0.6,0.8,1.5,0.8,2.6V7
				z M433.6,6c0-0.7-0.2-1.2-0.5-1.6s-0.8-0.6-1.5-0.6c-0.7,0-1.2,0.2-1.6,0.6c-0.4,0.4-0.6,0.9-0.7,1.5H433.6z"/>
			<path class="st51" d="M438.1,10.6h-1.3V0h1.3V10.6z"/>
		</g>
		<g>
			<path class="st51" d="M362.9,53.4h-5.1v2.9h4.4v1.2h-4.4v4.9h-1.4V52.2h6.5V53.4z"/>
			<path class="st51" d="M370.3,58.7h-5.6c0,0.5,0.1,0.9,0.2,1.2c0.1,0.3,0.3,0.6,0.6,0.9c0.2,0.2,0.5,0.4,0.8,0.5
				c0.3,0.1,0.7,0.2,1.1,0.2c0.5,0,1-0.1,1.6-0.3s0.9-0.4,1.1-0.6h0.1v1.4c-0.4,0.2-0.9,0.3-1.3,0.5s-0.9,0.2-1.4,0.2
				c-1.3,0-2.3-0.3-3-1s-1.1-1.7-1.1-2.9c0-1.2,0.3-2.2,1-3c0.7-0.7,1.6-1.1,2.7-1.1c1,0,1.8,0.3,2.4,0.9c0.6,0.6,0.8,1.5,0.8,2.6
				V58.7z M369.1,57.7c0-0.7-0.2-1.2-0.5-1.6s-0.8-0.6-1.5-0.6c-0.7,0-1.2,0.2-1.6,0.6c-0.4,0.4-0.6,0.9-0.7,1.5H369.1z"/>
			<path class="st51" d="M378.6,62.4h-1.3v-0.8c-0.4,0.3-0.8,0.6-1.2,0.8s-0.8,0.3-1.3,0.3c-0.8,0-1.4-0.2-1.9-0.7
				c-0.4-0.5-0.7-1.2-0.7-2.2v-5h1.3v4.3c0,0.4,0,0.7,0.1,1c0,0.3,0.1,0.5,0.2,0.7c0.1,0.2,0.3,0.3,0.5,0.4c0.2,0.1,0.5,0.1,0.9,0.1
				c0.3,0,0.7-0.1,1.1-0.3c0.4-0.2,0.8-0.4,1.1-0.7v-5.7h1.3V62.4z"/>
			<path class="st51" d="M382.5,62.4h-1.3V51.7h1.3V62.4z"/>
			<path class="st51" d="M401.1,62.4h-1.3V58c0-0.3,0-0.6,0-1c0-0.3-0.1-0.5-0.2-0.7c-0.1-0.2-0.3-0.3-0.5-0.4
				c-0.2-0.1-0.5-0.2-0.8-0.2c-0.4,0-0.7,0.1-1.1,0.3c-0.4,0.2-0.7,0.4-1.1,0.7c0,0.1,0,0.2,0,0.4c0,0.1,0,0.3,0,0.4v4.9h-1.3V58
				c0-0.3,0-0.7,0-1c0-0.3-0.1-0.5-0.2-0.7c-0.1-0.2-0.3-0.3-0.5-0.4c-0.2-0.1-0.5-0.1-0.8-0.1c-0.4,0-0.7,0.1-1.1,0.3
				c-0.4,0.2-0.7,0.4-1.1,0.7v5.7h-1.3v-7.6h1.3v0.8c0.4-0.3,0.8-0.6,1.2-0.8c0.4-0.2,0.8-0.3,1.3-0.3c0.5,0,1,0.1,1.3,0.3
				s0.6,0.5,0.8,0.9c0.5-0.4,1-0.8,1.4-0.9c0.4-0.2,0.9-0.3,1.4-0.3c0.8,0,1.5,0.3,1.9,0.8c0.4,0.5,0.6,1.2,0.6,2.1V62.4z"/>
			<path class="st51" d="M409.9,58.7h-5.6c0,0.5,0.1,0.9,0.2,1.2c0.1,0.3,0.3,0.6,0.6,0.9c0.2,0.2,0.5,0.4,0.8,0.5
				c0.3,0.1,0.7,0.2,1.1,0.2c0.5,0,1-0.1,1.6-0.3s0.9-0.4,1.1-0.6h0.1v1.4c-0.4,0.2-0.9,0.3-1.3,0.5s-0.9,0.2-1.4,0.2
				c-1.3,0-2.3-0.3-3-1s-1.1-1.7-1.1-2.9c0-1.2,0.3-2.2,1-3c0.7-0.7,1.6-1.1,2.7-1.1c1,0,1.8,0.3,2.4,0.9c0.6,0.6,0.8,1.5,0.8,2.6
				V58.7z M408.7,57.7c0-0.7-0.2-1.2-0.5-1.6s-0.8-0.6-1.5-0.6c-0.7,0-1.2,0.2-1.6,0.6c-0.4,0.4-0.6,0.9-0.7,1.5H408.7z"/>
			<path class="st51" d="M415.8,62.3c-0.2,0.1-0.5,0.1-0.8,0.2c-0.3,0-0.5,0.1-0.8,0.1c-0.8,0-1.4-0.2-1.8-0.6
				c-0.4-0.4-0.6-1.1-0.6-2v-4.1H411v-1.1h0.9v-2.2h1.3v2.2h2.7v1.1h-2.7v3.5c0,0.4,0,0.7,0,0.9c0,0.2,0.1,0.4,0.2,0.6
				c0.1,0.2,0.2,0.3,0.4,0.4c0.2,0.1,0.4,0.1,0.8,0.1c0.2,0,0.4,0,0.7-0.1c0.2-0.1,0.4-0.1,0.5-0.2h0.1V62.3z"/>
			<path class="st51" d="M423.8,58.7h-5.6c0,0.5,0.1,0.9,0.2,1.2c0.1,0.3,0.3,0.6,0.6,0.9c0.2,0.2,0.5,0.4,0.8,0.5
				c0.3,0.1,0.7,0.2,1.1,0.2c0.5,0,1-0.1,1.6-0.3s0.9-0.4,1.1-0.6h0.1v1.4c-0.4,0.2-0.9,0.3-1.3,0.5s-0.9,0.2-1.4,0.2
				c-1.3,0-2.3-0.3-3-1s-1.1-1.7-1.1-2.9c0-1.2,0.3-2.2,1-3c0.7-0.7,1.6-1.1,2.7-1.1c1,0,1.8,0.3,2.4,0.9c0.6,0.6,0.8,1.5,0.8,2.6
				V58.7z M422.5,57.7c0-0.7-0.2-1.2-0.5-1.6s-0.8-0.6-1.5-0.6c-0.7,0-1.2,0.2-1.6,0.6c-0.4,0.4-0.6,0.9-0.7,1.5H422.5z"/>
			<path class="st51" d="M430.5,56.1L430.5,56.1c-0.3,0-0.4-0.1-0.6-0.1c-0.2,0-0.4,0-0.6,0c-0.4,0-0.8,0.1-1.1,0.3
				s-0.7,0.4-1.1,0.7v5.4h-1.3v-7.6h1.3v1.1c0.5-0.4,1-0.7,1.4-0.9s0.8-0.3,1.2-0.3c0.2,0,0.4,0,0.5,0c0.1,0,0.3,0,0.5,0.1V56.1z"/>
		</g>
		<g>
			<g>
				<path class="st51" d="M364.1,116.1h-1.4v-5h-5.1v5h-1.4v-10.2h1.4v4h5.1v-4h1.4V116.1z"/>
				<path class="st51" d="M373.2,112.4h-5.6c0,0.5,0.1,0.9,0.2,1.2c0.1,0.3,0.3,0.6,0.6,0.9c0.2,0.2,0.5,0.4,0.8,0.5
					c0.3,0.1,0.7,0.2,1.1,0.2c0.5,0,1-0.1,1.6-0.3s0.9-0.4,1.1-0.6h0.1v1.4c-0.4,0.2-0.9,0.3-1.3,0.5s-0.9,0.2-1.4,0.2
					c-1.3,0-2.3-0.3-3-1s-1.1-1.7-1.1-2.9c0-1.2,0.3-2.2,1-3c0.7-0.7,1.6-1.1,2.7-1.1c1,0,1.8,0.3,2.4,0.9c0.6,0.6,0.8,1.5,0.8,2.6
					V112.4z M371.9,111.4c0-0.7-0.2-1.2-0.5-1.6s-0.8-0.6-1.5-0.6c-0.7,0-1.2,0.2-1.6,0.6c-0.4,0.4-0.6,0.9-0.7,1.5H371.9z"/>
				<path class="st51" d="M381,116.1h-1.3v-0.8c-0.1,0.1-0.3,0.2-0.5,0.3c-0.2,0.1-0.4,0.2-0.6,0.3c-0.2,0.1-0.5,0.2-0.7,0.3
					c-0.3,0.1-0.6,0.1-1,0.1c-0.7,0-1.3-0.2-1.8-0.7s-0.7-1-0.7-1.7c0-0.6,0.1-1,0.4-1.4c0.2-0.4,0.6-0.6,1.1-0.8
					c0.5-0.2,1-0.3,1.7-0.4c0.7-0.1,1.4-0.1,2.1-0.2v-0.2c0-0.3-0.1-0.5-0.2-0.7s-0.2-0.3-0.4-0.5c-0.2-0.1-0.4-0.2-0.7-0.2
					c-0.3,0-0.5-0.1-0.8-0.1c-0.3,0-0.7,0-1.1,0.1c-0.4,0.1-0.8,0.2-1.3,0.4h-0.1v-1.3c0.3-0.1,0.6-0.1,1.1-0.2
					c0.5-0.1,0.9-0.1,1.4-0.1c0.5,0,1,0,1.4,0.1c0.4,0.1,0.7,0.2,1,0.5c0.3,0.2,0.5,0.5,0.7,0.8s0.2,0.7,0.2,1.2V116.1z
					 M379.8,114.2V112c-0.4,0-0.9,0.1-1.4,0.1c-0.5,0-1,0.1-1.3,0.2c-0.4,0.1-0.7,0.3-0.9,0.5c-0.2,0.2-0.3,0.5-0.3,0.9
					c0,0.4,0.1,0.8,0.4,1c0.3,0.2,0.7,0.3,1.2,0.3c0.5,0,0.9-0.1,1.2-0.3C379.1,114.6,379.5,114.4,379.8,114.2z"/>
				<path class="st51" d="M384.8,116.1h-1.3v-10.6h1.3V116.1z"/>
				<path class="st51" d="M391.3,116c-0.2,0.1-0.5,0.1-0.8,0.2c-0.3,0-0.5,0.1-0.8,0.1c-0.8,0-1.4-0.2-1.8-0.6
					c-0.4-0.4-0.6-1.1-0.6-2v-4.1h-0.9v-1.1h0.9v-2.2h1.3v2.2h2.7v1.1h-2.7v3.5c0,0.4,0,0.7,0,0.9c0,0.2,0.1,0.4,0.2,0.6
					c0.1,0.2,0.2,0.3,0.4,0.4c0.2,0.1,0.4,0.1,0.8,0.1c0.2,0,0.4,0,0.7-0.1c0.2-0.1,0.4-0.1,0.5-0.2h0.1V116z"/>
				<path class="st51" d="M399.3,116.1H398v-4.3c0-0.4,0-0.7-0.1-1s-0.1-0.5-0.2-0.7c-0.1-0.2-0.3-0.3-0.5-0.4
					c-0.2-0.1-0.5-0.1-0.8-0.1c-0.4,0-0.7,0.1-1.1,0.3s-0.7,0.4-1.1,0.7v5.7h-1.3v-10.6h1.3v3.8c0.4-0.3,0.8-0.6,1.2-0.8
					c0.4-0.2,0.9-0.3,1.3-0.3c0.8,0,1.5,0.2,1.9,0.7c0.4,0.5,0.6,1.2,0.6,2.1V116.1z"/>
				<path class="st51" d="M414.4,112.9c0,0.5-0.1,1-0.3,1.3s-0.4,0.7-0.8,1c-0.4,0.3-0.8,0.5-1.3,0.6s-1,0.2-1.7,0.2h-3.6v-10.2h3
					c0.7,0,1.3,0,1.7,0.1s0.7,0.2,1.1,0.3c0.4,0.2,0.6,0.4,0.8,0.8c0.2,0.3,0.3,0.7,0.3,1.1c0,0.5-0.1,0.9-0.4,1.2s-0.6,0.6-1,0.8
					v0.1c0.7,0.1,1.2,0.4,1.6,0.9S414.4,112.2,414.4,112.9z M412.2,108.3c0-0.2,0-0.5-0.1-0.6s-0.2-0.3-0.4-0.4
					c-0.2-0.1-0.5-0.2-0.8-0.2c-0.3,0-0.7,0-1.1,0h-1.6v2.9h1.8c0.4,0,0.8,0,1-0.1c0.3,0,0.5-0.1,0.7-0.3c0.2-0.1,0.4-0.3,0.5-0.5
					S412.2,108.6,412.2,108.3z M413,113c0-0.4-0.1-0.7-0.2-1s-0.3-0.4-0.7-0.6c-0.2-0.1-0.5-0.2-0.8-0.2c-0.3,0-0.7-0.1-1.1-0.1
					h-2.1v3.8h1.8c0.6,0,1.1,0,1.5-0.1c0.4-0.1,0.7-0.2,0.9-0.3c0.3-0.2,0.4-0.4,0.6-0.6C413,113.6,413,113.3,413,113z"/>
				<path class="st51" d="M422.2,116.1h-1.3v-0.8c-0.1,0.1-0.3,0.2-0.5,0.3c-0.2,0.1-0.4,0.2-0.6,0.3c-0.2,0.1-0.5,0.2-0.7,0.3
					c-0.3,0.1-0.6,0.1-1,0.1c-0.7,0-1.3-0.2-1.8-0.7s-0.7-1-0.7-1.7c0-0.6,0.1-1,0.4-1.4c0.2-0.4,0.6-0.6,1.1-0.8
					c0.5-0.2,1-0.3,1.7-0.4c0.7-0.1,1.4-0.1,2.1-0.2v-0.2c0-0.3-0.1-0.5-0.2-0.7s-0.2-0.3-0.4-0.5c-0.2-0.1-0.4-0.2-0.7-0.2
					c-0.3,0-0.5-0.1-0.8-0.1c-0.3,0-0.7,0-1.1,0.1c-0.4,0.1-0.8,0.2-1.3,0.4h-0.1v-1.3c0.3-0.1,0.6-0.1,1.1-0.2
					c0.5-0.1,0.9-0.1,1.4-0.1c0.5,0,1,0,1.4,0.1c0.4,0.1,0.7,0.2,1,0.5c0.3,0.2,0.5,0.5,0.7,0.8s0.2,0.7,0.2,1.2V116.1z
					 M420.9,114.2V112c-0.4,0-0.9,0.1-1.4,0.1c-0.5,0-1,0.1-1.3,0.2c-0.4,0.1-0.7,0.3-0.9,0.5c-0.2,0.2-0.3,0.5-0.3,0.9
					c0,0.4,0.1,0.8,0.4,1c0.3,0.2,0.7,0.3,1.2,0.3c0.5,0,0.9-0.1,1.2-0.3C420.2,114.6,420.6,114.4,420.9,114.2z"/>
				<path class="st51" d="M429.4,109.8L429.4,109.8c-0.3,0-0.4-0.1-0.6-0.1c-0.2,0-0.4,0-0.6,0c-0.4,0-0.8,0.1-1.1,0.3
					s-0.7,0.4-1.1,0.7v5.4h-1.3v-7.6h1.3v1.1c0.5-0.4,1-0.7,1.4-0.9s0.8-0.3,1.2-0.3c0.2,0,0.4,0,0.5,0c0.1,0,0.3,0,0.5,0.1V109.8z"
					/>
			</g>
		</g>
		<g>
			<g>
				<path class="st51" d="M363.8,170.7c-0.2,0.1-0.5,0.2-0.7,0.3c-0.2,0.1-0.5,0.2-0.8,0.3c-0.3,0.1-0.6,0.2-0.9,0.2
					c-0.3,0.1-0.7,0.1-1.1,0.1c-0.7,0-1.4-0.1-2-0.3c-0.6-0.2-1.1-0.5-1.6-1c-0.4-0.4-0.8-1-1-1.7c-0.2-0.7-0.4-1.4-0.4-2.3
					c0-0.8,0.1-1.6,0.4-2.2c0.2-0.7,0.6-1.2,1-1.7c0.4-0.4,1-0.8,1.6-1c0.6-0.2,1.3-0.3,2-0.3c0.5,0,1.1,0.1,1.6,0.2
					c0.5,0.1,1.1,0.4,1.8,0.7v1.6h-0.1c-0.6-0.5-1.1-0.8-1.7-1c-0.6-0.2-1.1-0.3-1.8-0.3c-0.5,0-1,0.1-1.4,0.2
					c-0.4,0.2-0.8,0.4-1.1,0.8c-0.3,0.3-0.6,0.8-0.7,1.3c-0.2,0.5-0.3,1.1-0.3,1.8c0,0.7,0.1,1.3,0.3,1.8c0.2,0.5,0.4,0.9,0.7,1.3
					c0.3,0.3,0.7,0.6,1.1,0.7c0.4,0.2,0.9,0.2,1.3,0.2c0.7,0,1.3-0.1,1.8-0.3c0.6-0.2,1.1-0.6,1.6-1h0.1V170.7z"/>
				<path class="st51" d="M371.6,171.5h-1.3v-0.8c-0.1,0.1-0.3,0.2-0.5,0.3c-0.2,0.1-0.4,0.2-0.6,0.3c-0.2,0.1-0.5,0.2-0.7,0.3
					c-0.3,0.1-0.6,0.1-1,0.1c-0.7,0-1.3-0.2-1.8-0.7c-0.5-0.5-0.7-1-0.7-1.7c0-0.6,0.1-1,0.4-1.4c0.2-0.4,0.6-0.6,1.1-0.8
					c0.5-0.2,1-0.3,1.7-0.4c0.7-0.1,1.4-0.1,2.1-0.2v-0.2c0-0.3-0.1-0.5-0.2-0.7s-0.2-0.3-0.4-0.5c-0.2-0.1-0.4-0.2-0.7-0.2
					c-0.3,0-0.5-0.1-0.8-0.1c-0.3,0-0.7,0-1.1,0.1c-0.4,0.1-0.8,0.2-1.3,0.4h-0.1V164c0.3-0.1,0.6-0.1,1.1-0.2
					c0.5-0.1,0.9-0.1,1.4-0.1c0.5,0,1,0,1.4,0.1c0.4,0.1,0.7,0.2,1,0.5c0.3,0.2,0.5,0.5,0.7,0.8c0.2,0.3,0.2,0.7,0.2,1.2V171.5z
					 M370.3,169.6v-2.1c-0.4,0-0.9,0.1-1.4,0.1c-0.5,0-1,0.1-1.3,0.2c-0.4,0.1-0.7,0.3-0.9,0.5c-0.2,0.2-0.3,0.5-0.3,0.9
					c0,0.4,0.1,0.8,0.4,1c0.3,0.2,0.7,0.3,1.2,0.3c0.5,0,0.9-0.1,1.2-0.3C369.6,170.1,370,169.8,370.3,169.6z"/>
				<path class="st51" d="M378.8,165.2L378.8,165.2c-0.3,0-0.4-0.1-0.6-0.1c-0.2,0-0.4,0-0.6,0c-0.4,0-0.8,0.1-1.1,0.3
					c-0.4,0.2-0.7,0.4-1.1,0.7v5.4H374v-7.6h1.3v1.1c0.5-0.4,1-0.7,1.4-0.9s0.8-0.3,1.2-0.3c0.2,0,0.4,0,0.5,0c0.1,0,0.3,0,0.5,0.1
					V165.2z"/>
				<path class="st51" d="M386.2,170.6c0,1.3-0.3,2.2-0.9,2.9c-0.6,0.6-1.5,0.9-2.7,0.9c-0.4,0-0.8,0-1.2-0.1
					c-0.4-0.1-0.8-0.1-1.1-0.2v-1.3h0.1c0.2,0.1,0.5,0.2,1,0.3c0.5,0.1,0.9,0.2,1.4,0.2c0.4,0,0.8-0.1,1.1-0.2
					c0.3-0.1,0.5-0.3,0.7-0.4c0.2-0.2,0.3-0.4,0.3-0.6c0.1-0.3,0.1-0.5,0.1-0.8v-0.7c-0.4,0.3-0.8,0.5-1.1,0.7
					c-0.4,0.2-0.8,0.2-1.4,0.2c-0.9,0-1.6-0.3-2.2-1c-0.5-0.7-0.8-1.6-0.8-2.8c0-0.7,0.1-1.2,0.3-1.7c0.2-0.5,0.4-0.9,0.8-1.2
					c0.3-0.3,0.7-0.6,1.1-0.8c0.4-0.2,0.8-0.3,1.3-0.3c0.4,0,0.8,0,1.1,0.1c0.3,0.1,0.6,0.2,0.9,0.4l0.1-0.3h1.2V170.6z
					 M384.9,169.4v-4.2c-0.3-0.2-0.7-0.3-1-0.3c-0.3-0.1-0.6-0.1-0.9-0.1c-0.7,0-1.3,0.2-1.7,0.7c-0.4,0.5-0.6,1.2-0.6,2.1
					c0,0.9,0.2,1.5,0.5,1.9c0.3,0.4,0.8,0.7,1.5,0.7c0.4,0,0.7-0.1,1.1-0.2S384.6,169.6,384.9,169.4z"/>
				<path class="st51" d="M395.2,167.7c0,1.2-0.3,2.2-1,2.9c-0.6,0.7-1.5,1.1-2.6,1.1c-1.1,0-1.9-0.4-2.6-1.1c-0.6-0.7-1-1.7-1-2.9
					s0.3-2.2,1-3c0.6-0.7,1.5-1.1,2.6-1.1c1.1,0,1.9,0.4,2.6,1.1C394.9,165.4,395.2,166.4,395.2,167.7z M393.9,167.7
					c0-1-0.2-1.7-0.6-2.2c-0.4-0.5-0.9-0.7-1.6-0.7c-0.7,0-1.2,0.2-1.6,0.7c-0.4,0.5-0.6,1.2-0.6,2.2c0,1,0.2,1.7,0.6,2.2
					c0.4,0.5,0.9,0.7,1.6,0.7c0.7,0,1.2-0.2,1.6-0.7C393.7,169.4,393.9,168.6,393.9,167.7z"/>
				<path class="st51" d="M407.8,171c-0.4,0.2-0.8,0.4-1.2,0.5c-0.4,0.1-0.8,0.2-1.2,0.2c-0.6,0-1.1-0.1-1.5-0.2
					c-0.5-0.2-0.9-0.4-1.2-0.7c-0.3-0.3-0.6-0.7-0.8-1.2c-0.2-0.5-0.3-1.1-0.3-1.8c0-1.2,0.3-2.2,1-2.9c0.7-0.7,1.6-1.1,2.7-1.1
					c0.4,0,0.9,0.1,1.3,0.2c0.4,0.1,0.8,0.3,1.2,0.5v1.4h-0.1c-0.4-0.3-0.8-0.5-1.2-0.7s-0.8-0.2-1.2-0.2c-0.7,0-1.3,0.2-1.7,0.7
					c-0.4,0.5-0.6,1.2-0.6,2.2c0,0.9,0.2,1.6,0.6,2.1c0.4,0.5,1,0.7,1.7,0.7c0.3,0,0.5,0,0.8-0.1c0.3-0.1,0.5-0.2,0.7-0.3
					c0.2-0.1,0.4-0.2,0.5-0.3c0.2-0.1,0.3-0.2,0.4-0.3h0.1V171z"/>
				<path class="st51" d="M415.4,171.5h-1.3v-0.8c-0.1,0.1-0.3,0.2-0.5,0.3c-0.2,0.1-0.4,0.2-0.6,0.3c-0.2,0.1-0.5,0.2-0.7,0.3
					c-0.3,0.1-0.6,0.1-1,0.1c-0.7,0-1.3-0.2-1.8-0.7c-0.5-0.5-0.7-1-0.7-1.7c0-0.6,0.1-1,0.4-1.4c0.2-0.4,0.6-0.6,1.1-0.8
					c0.5-0.2,1-0.3,1.7-0.4c0.7-0.1,1.4-0.1,2.1-0.2v-0.2c0-0.3-0.1-0.5-0.2-0.7s-0.2-0.3-0.4-0.5c-0.2-0.1-0.4-0.2-0.7-0.2
					c-0.3,0-0.5-0.1-0.8-0.1c-0.3,0-0.7,0-1.1,0.1c-0.4,0.1-0.8,0.2-1.3,0.4h-0.1V164c0.3-0.1,0.6-0.1,1.1-0.2
					c0.5-0.1,0.9-0.1,1.4-0.1c0.5,0,1,0,1.4,0.1c0.4,0.1,0.7,0.2,1,0.5c0.3,0.2,0.5,0.5,0.7,0.8c0.2,0.3,0.2,0.7,0.2,1.2V171.5z
					 M414.1,169.6v-2.1c-0.4,0-0.9,0.1-1.4,0.1c-0.5,0-1,0.1-1.3,0.2c-0.4,0.1-0.7,0.3-0.9,0.5c-0.2,0.2-0.3,0.5-0.3,0.9
					c0,0.4,0.1,0.8,0.4,1c0.3,0.2,0.7,0.3,1.2,0.3c0.5,0,0.9-0.1,1.2-0.3C413.4,170.1,413.8,169.8,414.1,169.6z"/>
				<path class="st51" d="M424.6,167.6c0,0.6-0.1,1.2-0.3,1.7s-0.4,0.9-0.8,1.3c-0.3,0.3-0.7,0.6-1.1,0.8c-0.4,0.2-0.8,0.3-1.3,0.3
					c-0.4,0-0.8,0-1.1-0.1c-0.3-0.1-0.6-0.2-1-0.4v3.2h-1.3v-10.5h1.3v0.8c0.3-0.3,0.7-0.5,1.2-0.7c0.4-0.2,0.9-0.3,1.4-0.3
					c0.9,0,1.6,0.3,2.2,1C424.3,165.4,424.6,166.3,424.6,167.6z M423.2,167.6c0-0.9-0.2-1.6-0.5-2.1c-0.3-0.5-0.8-0.7-1.4-0.7
					c-0.4,0-0.7,0.1-1.1,0.2c-0.4,0.2-0.7,0.4-1.1,0.6v4.3c0.4,0.2,0.7,0.3,0.9,0.3c0.3,0.1,0.6,0.1,0.9,0.1c0.7,0,1.3-0.2,1.7-0.7
					C423,169.3,423.2,168.5,423.2,167.6z"/>
				<path class="st51" d="M432.5,171.5h-1.3v-0.8c-0.1,0.1-0.3,0.2-0.5,0.3c-0.2,0.1-0.4,0.2-0.6,0.3c-0.2,0.1-0.5,0.2-0.7,0.3
					c-0.3,0.1-0.6,0.1-1,0.1c-0.7,0-1.3-0.2-1.8-0.7c-0.5-0.5-0.7-1-0.7-1.7c0-0.6,0.1-1,0.4-1.4c0.2-0.4,0.6-0.6,1.1-0.8
					c0.5-0.2,1-0.3,1.7-0.4c0.7-0.1,1.4-0.1,2.1-0.2v-0.2c0-0.3-0.1-0.5-0.2-0.7s-0.2-0.3-0.4-0.5c-0.2-0.1-0.4-0.2-0.7-0.2
					c-0.3,0-0.5-0.1-0.8-0.1c-0.3,0-0.7,0-1.1,0.1c-0.4,0.1-0.8,0.2-1.3,0.4h-0.1V164c0.3-0.1,0.6-0.1,1.1-0.2
					c0.5-0.1,0.9-0.1,1.4-0.1c0.5,0,1,0,1.4,0.1c0.4,0.1,0.7,0.2,1,0.5c0.3,0.2,0.5,0.5,0.7,0.8c0.2,0.3,0.2,0.7,0.2,1.2V171.5z
					 M431.2,169.6v-2.1c-0.4,0-0.9,0.1-1.4,0.1c-0.5,0-1,0.1-1.3,0.2c-0.4,0.1-0.7,0.3-0.9,0.5c-0.2,0.2-0.3,0.5-0.3,0.9
					c0,0.4,0.1,0.8,0.4,1c0.3,0.2,0.7,0.3,1.2,0.3c0.5,0,0.9-0.1,1.2-0.3C430.6,170.1,430.9,169.8,431.2,169.6z"/>
				<path class="st51" d="M440.6,171c-0.4,0.2-0.8,0.4-1.2,0.5c-0.4,0.1-0.8,0.2-1.2,0.2c-0.6,0-1.1-0.1-1.5-0.2
					c-0.5-0.2-0.9-0.4-1.2-0.7c-0.3-0.3-0.6-0.7-0.8-1.2c-0.2-0.5-0.3-1.1-0.3-1.8c0-1.2,0.3-2.2,1-2.9c0.7-0.7,1.6-1.1,2.7-1.1
					c0.4,0,0.9,0.1,1.3,0.2c0.4,0.1,0.8,0.3,1.2,0.5v1.4h-0.1c-0.4-0.3-0.8-0.5-1.2-0.7s-0.8-0.2-1.2-0.2c-0.7,0-1.3,0.2-1.7,0.7
					c-0.4,0.5-0.6,1.2-0.6,2.2c0,0.9,0.2,1.6,0.6,2.1c0.4,0.5,1,0.7,1.7,0.7c0.3,0,0.5,0,0.8-0.1c0.3-0.1,0.5-0.2,0.7-0.3
					c0.2-0.1,0.4-0.2,0.5-0.3c0.2-0.1,0.3-0.2,0.4-0.3h0.1V171z"/>
				<path class="st51" d="M443.7,162.6h-1.4v-1.3h1.4V162.6z M443.6,171.5h-1.3v-7.6h1.3V171.5z"/>
				<path class="st51" d="M450.1,171.4c-0.2,0.1-0.5,0.1-0.8,0.2c-0.3,0-0.5,0.1-0.8,0.1c-0.8,0-1.4-0.2-1.8-0.6
					c-0.4-0.4-0.6-1.1-0.6-2v-4.1h-0.9v-1.1h0.9v-2.2h1.3v2.2h2.7v1.1h-2.7v3.5c0,0.4,0,0.7,0,0.9c0,0.2,0.1,0.4,0.2,0.6
					c0.1,0.2,0.2,0.3,0.4,0.4c0.2,0.1,0.4,0.1,0.8,0.1c0.2,0,0.4,0,0.7-0.1c0.2-0.1,0.4-0.1,0.5-0.2h0.1V171.4z"/>
				<path class="st51" d="M458.2,163.8l-4.5,10.5h-1.4l1.4-3.2l-3-7.3h1.4l2.3,5.7l2.4-5.7H458.2z"/>
			</g>
		</g>
	</g>
	<g>
		<path class="st51" d="M361.5,7.1c0,0.1,0.1,0.2,0.1,0.4c0-0.1,0.1-0.3,0.1-0.4c0.1-0.1,0.1-0.2,0.2-0.4l3.4-6.2
			c0.1-0.1,0.1-0.2,0.2-0.2s0.2,0,0.3,0h1v10h-1.2V3c0-0.1,0-0.2,0-0.3c0-0.1,0-0.2,0-0.3l-3.4,6.3c-0.1,0.2-0.3,0.3-0.5,0.3h-0.2
			c-0.2,0-0.4-0.1-0.5-0.3l-3.5-6.3c0,0.1,0,0.2,0,0.4s0,0.2,0,0.3v7.4h-1.2v-10h1c0.1,0,0.2,0,0.3,0s0.1,0.1,0.2,0.2l3.5,6.2
			C361.4,6.8,361.4,6.9,361.5,7.1z"/>
	</g>
</g>
</svg>
