<?xml version="1.0" encoding="utf-8"?>
<!-- Generator: Adobe Illustrator 26.2.1, SVG Export Plug-In . SVG Version: 6.00 Build 0)  -->
<svg version="1.1" id="a" xmlns="http://www.w3.org/2000/svg" xmlns:xlink="http://www.w3.org/1999/xlink" x="0px" y="0px"
	 viewBox="0 0 345.3 181.8" style="enable-background:new 0 0 345.3 181.8;" xml:space="preserve">
<style type="text/css">
	.st0{fill:#B0B0B0;}
	.st1{fill:#5C5C5C;}
	.st2{fill:#67615D;}
	.st3{fill:#705F51;}
	.st4{fill:#737374;}
	.st5{fill:#606161;}
	.st6{fill:#939393;}
	.st7{fill:none;stroke:#4D4B37;stroke-width:6.66;}
	.st8{fill:none;stroke:#312F2D;stroke-width:6.66;}
	.st9{fill:#191919;}
	.st10{fill:none;stroke:#1F291C;stroke-width:6.66;}
	.st11{fill:#3D4D42;stroke:#303E34;stroke-width:1.56;}
	.st12{fill:#A4FFFF;}
	.st13{opacity:0.24;fill:#FFFFFF;enable-background:new    ;}
	.st14{clip-path:url(#SVGID_00000170998883270292145840000016012825358440524686_);}
	.st15{opacity:0.26;fill:#FFFFFF;enable-background:new    ;}
	.st16{clip-path:url(#SVGID_00000003799678384456487110000005531240825580405695_);}
	.st17{clip-path:url(#SVGID_00000023977090580104059150000016523158209488590773_);}
	.st18{fill:#55473D;}
	.st19{fill:none;stroke:#55473D;stroke-width:0.5;}
	.st20{fill:#5F5467;}
	.st21{fill:#817887;}
	.st22{opacity:0.53;fill:#CFCFCE;enable-background:new    ;}
	.st23{fill:#CFCFCE;}
	.st24{fill:#4E4752;}
	.st25{fill:#605B67;}
	.st26{fill:#55473D;stroke:#34302E;stroke-width:0.17;}
	.st27{fill:#010101;}
	.st28{fill:#2A391D;}
	.st29{fill:none;stroke:#606161;stroke-width:0.67;}
	.st30{fill:#848181;}
	.st31{fill:none;stroke:#FFFFFF;}
	.st32{fill:#727272;stroke:#5B5B5B;stroke-width:1.088;stroke-miterlimit:10;}
	.st33{fill:#B79F2A;}
	.st34{filter:url(#Adobe_OpacityMaskFilter);}
	.st35{mask:url(#SVGID_00000021111563716395678130000010296694889346352302_);}
	.st36{fill:#8C811E;}
	.st37{fill:#4F4F4F;}
	.st38{fill:#706051;}
	.st39{opacity:0.36;}
	.st40{clip-path:url(#SVGID_00000081633616076874545520000016964907321284640903_);fill:#FFFFFF;}
	.st41{clip-path:url(#SVGID_00000119084012361739940960000004134107426869824148_);fill:#FFFFFF;}
	.st42{fill:#FCE249;}
	.st43{opacity:0.21;fill:#F2EEEB;stroke:#5B5B5B;stroke-width:0.7456;stroke-miterlimit:10;enable-background:new    ;}
	.st44{fill:#606060;}
	.st45{fill:#439B0B;}
	.st46{filter:url(#Adobe_OpacityMaskFilter_00000106124712555231154350000008021921071919587007_);}
	.st47{mask:url(#SVGID_00000078047046898476001310000014106119525408279962_);}
	.st48{fill:#316311;}
	.st49{clip-path:url(#SVGID_00000148632037927816852990000012772018566059301292_);fill:#FFFFFF;}
	.st50{clip-path:url(#SVGID_00000050663820956969138430000005538852407894086832_);fill:#FFFFFF;}
	.st51{fill:#DDDDDD;}
	.st52{filter:url(#Adobe_OpacityMaskFilter_00000020356586272981378260000015176907139491675312_);}
	.st53{mask:url(#SVGID_00000106842269120676317980000008094888434435506346_);}
	.st54{fill:#6B6B6B;}
	.st55{clip-path:url(#SVGID_00000090262665294315605350000004138276857441762232_);fill:#FFFFFF;}
	.st56{clip-path:url(#SVGID_00000139273954091467180280000016738967827631926186_);fill:#FFFFFF;}
</style>
<rect x="209.9" y="157.2" class="st0" width="27.9" height="2.8"/>
<path class="st1" d="M208.1,155.8v5.6h21.8v-5.6H208.1z M214.4,160.3c-1,0-1.8-0.8-1.8-1.8s0.8-1.8,1.8-1.8s1.8,0.8,1.8,1.8
	S215.4,160.3,214.4,160.3z M218.6,160.3c-1,0-1.8-0.8-1.8-1.8s0.8-1.8,1.8-1.8s1.8,0.8,1.8,1.8S219.6,160.3,218.6,160.3z M223,160.3
	c-1,0-1.8-0.8-1.8-1.8s0.8-1.8,1.8-1.8s1.8,0.8,1.8,1.8S224,160.3,223,160.3z M227.2,160.3c-1,0-1.8-0.8-1.8-1.8s0.8-1.8,1.8-1.8
	s1.8,0.8,1.8,1.8S228.2,160.3,227.2,160.3z"/>
<polygon class="st2" points="122.5,157.5 130.4,163.4 211.5,163.4 225.3,149.6 133.2,149.6 "/>
<polygon class="st3" points="109.8,78.1 88,66.1 32.6,66.1 9.8,87.4 9.8,173.1 29.3,173.1 39.8,162.7 91.4,162.7 101.7,152.4 "/>
<polygon class="st4" points="127.8,62 110.5,68.3 93.2,88.2 91.4,161 107.3,162.5 145.9,151.5 214.3,150 228,153.8 248.3,153.6 
	248.3,61.4 "/>
<g>
	<circle class="st5" cx="97" cy="156.3" r="3.1"/>
	<polygon class="st6" points="98.6,154.7 97.2,155.3 96.1,156.4 95.6,158.3 96.4,156.8 97.3,155.8 	"/>
</g>
<g>
	<circle class="st4" cx="88.2" cy="158.8" r="1.4"/>
	<polygon class="st6" points="88.9,158 88.2,158.3 87.7,158.8 87.5,159.7 87.8,159 88.3,158.5 	"/>
</g>
<g>
	<circle class="st4" cx="88.1" cy="151.5" r="1.4"/>
	<polygon class="st6" points="88.8,150.8 88.2,151.1 87.7,151.6 87.4,152.4 87.8,151.8 88.2,151.3 	"/>
</g>
<g>
	<circle class="st4" cx="88.1" cy="143.9" r="1.4"/>
	<polygon class="st6" points="88.8,143.2 88.2,143.5 87.7,144 87.4,144.9 87.8,144.2 88.2,143.7 	"/>
</g>
<g>
	<circle class="st4" cx="88.1" cy="97.9" r="1.4"/>
	<polygon class="st6" points="88.8,97.2 88.2,97.4 87.7,97.9 87.4,98.8 87.8,98.1 88.2,97.6 	"/>
</g>
<g>
	<circle class="st4" cx="88.1" cy="90.3" r="1.4"/>
	<polygon class="st6" points="88.8,89.6 88.2,89.8 87.7,90.3 87.4,91.2 87.8,90.5 88.2,90 	"/>
</g>
<g>
	<circle class="st4" cx="88.1" cy="82.7" r="1.4"/>
	<polygon class="st6" points="88.8,82 88.2,82.2 87.7,82.8 87.4,83.6 87.8,82.9 88.2,82.4 	"/>
</g>
<g>
	<circle class="st4" cx="92.5" cy="77.5" r="1.4"/>
	<polygon class="st6" points="93.3,76.8 92.6,77.1 92.1,77.6 91.9,78.4 92.2,77.8 92.7,77.3 	"/>
</g>
<g>
	<circle class="st4" cx="96.7" cy="73.4" r="1.4"/>
	<polygon class="st6" points="97.5,72.7 96.8,73 96.3,73.5 96.1,74.3 96.4,73.7 96.9,73.2 	"/>
</g>
<g>
	<circle class="st4" cx="88.1" cy="136.4" r="1.4"/>
	<polygon class="st6" points="88.8,135.6 88.2,135.9 87.7,136.4 87.4,137.3 87.8,136.6 88.2,136.1 	"/>
</g>
<g>
	<circle class="st4" cx="88.1" cy="128.8" r="1.4"/>
	<polygon class="st6" points="88.8,128 88.2,128.3 87.7,128.8 87.4,129.7 87.8,129 88.2,128.5 	"/>
</g>
<g>
	<circle class="st4" cx="88.1" cy="121.2" r="1.4"/>
	<polygon class="st6" points="88.8,120.4 88.2,120.7 87.7,121.2 87.4,122.1 87.8,121.4 88.2,120.9 	"/>
</g>
<g>
	<circle class="st4" cx="88.1" cy="113.6" r="1.4"/>
	<polygon class="st6" points="88.8,112.9 88.2,113.1 87.7,113.7 87.4,114.5 87.8,113.8 88.2,113.3 	"/>
</g>
<g>
	<circle class="st4" cx="88.1" cy="106" r="1.4"/>
	<polygon class="st6" points="88.8,105.3 88.2,105.6 87.7,106.1 87.4,106.9 87.8,106.2 88.2,105.7 	"/>
</g>
<g>
	<circle class="st5" cx="97.1" cy="90.5" r="3.1"/>
	<polygon class="st6" points="98.7,88.9 97.2,89.5 96.2,90.6 95.7,92.4 96.4,91 97.4,89.9 	"/>
</g>
<g>
	<circle class="st5" cx="243.2" cy="147.7" r="3.1"/>
	<polygon class="st6" points="244.8,146.2 243.4,146.8 242.3,147.9 241.8,149.7 242.6,148.2 243.6,147.2 	"/>
</g>
<g>
	<circle class="st5" cx="243.2" cy="67.2" r="3.1"/>
	<polygon class="st6" points="244.8,65.6 243.4,66.2 242.3,67.3 241.8,69.1 242.6,67.6 243.6,66.6 	"/>
</g>
<path class="st7" d="M106.5,69.8c0,0-23-31.2-24.8-5.1"/>
<path class="st8" d="M96.7,83.8c0,0-16.7-14.4-28.4,0.7"/>
<polygon class="st9" points="110.4,68 108.8,66.7 102.3,71.5 104.2,75 "/>
<polygon class="st9" points="85.1,63.8 86.1,64.7 86.3,66.2 76.1,65.9 76.7,64.4 78,64 "/>
<polygon class="st9" points="100,79.8 93.9,87.3 93.1,86.6 91.9,84.4 96.7,79.2 98.9,79.2 "/>
<path class="st9" d="M69.9,89.7c0,0,0.9-0.8,0.9-0.9s0.2-2.3,0.2-2.3l-5.3-4.1H64l-0.8,1.2L69.9,89.7z"/>
<polygon class="st4" points="97.6,70.9 98.1,70.6 100.6,72 100.3,72.5 "/>
<polygon class="st4" points="89.7,163 89.5,163.5 86.6,163.4 86.5,163 "/>
<path class="st10" d="M101,164.6l-0.6,4.6c-3.4,15.9-23.7,9.6-27.6-5.1L71.6,154"/>
<path class="st9" d="M76.3,149.6c0,0.1,0.2,2.3,0.2,2.3l-1.8,1.9l-6.5,0.7l-2.7-0.7v-2.5L76.3,149.6L76.3,149.6z"/>
<path class="st9" d="M107,162.8c0,0.1-0.4,2.3-0.4,2.3l-2.2,1.4l-6.5-1l-2.4-1.3l0.6-2.4L107,162.8L107,162.8z"/>
<circle class="st11" cx="118.1" cy="81" r="8"/>
<circle class="st11" cx="118.1" cy="106.9" r="8"/>
<circle class="st11" cx="118.1" cy="132.9" r="8"/>
<path class="st12" d="M117.9,76.1c0,0,5.4,8.1,1.2,9.1C112.1,86.7,117.9,76.1,117.9,76.1z"/>
<path class="st12" d="M335.5,47.1c0,0,6.9,10.4,1.5,11.6C328,60.7,335.5,47.1,335.5,47.1z"/>
<rect x="116.6" y="102.6" class="st12" width="3.1" height="8.7"/>
<rect x="113.8" y="105.3" class="st12" width="8.7" height="3.1"/>
<polygon class="st12" points="343.8,103.3 340.1,103.3 340.1,99.9 336.2,99.9 336.2,103.3 332.6,103.3 332.6,107.3 336.2,107.3 
	336.2,111.1 340.1,111.1 340.1,107.3 343.8,107.3 "/>
<path class="st12" d="M123.1,131.4h-1.9l-0.6-0.6l-1,0.3l-0.4-0.5c0,0-1,0.1-1.1,0.1s-0.2-0.5-0.2-0.5h-1.6c0,0-0.3,0.6-0.4,0.6
	s-0.9-0.2-0.9-0.2l-0.7,0.9h-1.2l0.9,3.9h1.3v0.1c0,0.6,0.4,1,1,1s1-0.4,1-1c0-0.1,0-0.1,0-0.1h1.7c0,0.1-0.1,0.1-0.1,0.2
	c0,0.5,0.4,0.9,0.9,0.9s0.9-0.4,0.9-0.9c0-0.1,0-0.1-0.1-0.2h0.9L123.1,131.4L123.1,131.4z"/>
<path class="st12" d="M345.3,158.4h-2.4l-0.8-0.8l-1.2,0.4l-0.5-0.6c0,0-1.3,0.1-1.4,0.1s-0.3-0.7-0.3-0.7h-2.1l-0.5,0.8
	c-0.1,0-1.2-0.3-1.2-0.3l-1,1.1h-1.5l1.2,4.9h1.7c0,0.1,0,0.1,0,0.2c0,0.7,0.6,1.3,1.3,1.3s1.3-0.6,1.3-1.3c0-0.1,0-0.1,0-0.2h2.2
	c0,0.1-0.1,0.2-0.1,0.3c0,0.7,0.5,1.2,1.2,1.2s1.2-0.5,1.2-1.2c0-0.1,0-0.2-0.1-0.3h1.2L345.3,158.4L345.3,158.4z"/>
<polygon class="st0" points="152.5,155.9 204.8,155.9 206.2,157.3 151.1,157.3 "/>
<polygon class="st0" points="152.5,157.9 204.8,157.9 206.2,159.2 151.1,159.2 "/>
<polygon class="st0" points="152.5,160.1 204.8,160.1 206.2,161.5 151.1,161.5 "/>
<circle class="st13" cx="118.1" cy="80.9" r="8"/>
<g>
	<g>
		<defs>
			<circle id="SVGID_1_" cx="118.2" cy="81" r="7.4"/>
		</defs>
		<clipPath id="SVGID_00000158018815358228879070000013642962437337627318_">
			<use xlink:href="#SVGID_1_"  style="overflow:visible;"/>
		</clipPath>
		<g style="clip-path:url(#SVGID_00000158018815358228879070000013642962437337627318_);">
			
				<rect x="107.1" y="79.6" transform="matrix(0.2743 -0.9616 0.9616 0.2743 7.0528 171.2564)" class="st15" width="19.7" height="2.7"/>
			
				<rect x="109.5" y="81" transform="matrix(0.2743 -0.9616 0.9616 0.2743 8.0481 174.0107)" class="st15" width="19.7" height="1.4"/>
		</g>
	</g>
</g>
<circle class="st13" cx="118.1" cy="106.9" r="8"/>
<g>
	<g>
		<defs>
			<circle id="SVGID_00000170252665451691454540000004162050605919413150_" cx="118.1" cy="106.9" r="7.4"/>
		</defs>
		<clipPath id="SVGID_00000179644609569750458850000007153023142331033484_">
			<use xlink:href="#SVGID_00000170252665451691454540000004162050605919413150_"  style="overflow:visible;"/>
		</clipPath>
		<g style="clip-path:url(#SVGID_00000179644609569750458850000007153023142331033484_);">
			
				<rect x="114.1" y="105.6" transform="matrix(0.2743 -0.9616 0.9616 0.2743 -12.9417 196.8102)" class="st15" width="19.7" height="2.7"/>
			
				<rect x="109.4" y="106.9" transform="matrix(0.2743 -0.9616 0.9616 0.2743 -16.9166 192.7856)" class="st15" width="19.7" height="1.4"/>
		</g>
	</g>
</g>
<circle class="st13" cx="118.1" cy="132.8" r="8"/>
<g>
	<g>
		<defs>
			<circle id="SVGID_00000075147104344842053790000006443108828682590652_" cx="118.1" cy="132.8" r="7.4"/>
		</defs>
		<clipPath id="SVGID_00000020393591124424408860000017281969395302465206_">
			<use xlink:href="#SVGID_00000075147104344842053790000006443108828682590652_"  style="overflow:visible;"/>
		</clipPath>
		<g style="clip-path:url(#SVGID_00000020393591124424408860000017281969395302465206_);">
			
				<rect x="113" y="131.5" transform="matrix(0.2743 -0.9616 0.9616 0.2743 -38.6167 214.4838)" class="st15" width="19.7" height="2.7"/>
			
				<rect x="115.3" y="132.8" transform="matrix(0.2743 -0.9616 0.9616 0.2743 -37.6315 217.2202)" class="st15" width="19.7" height="1.4"/>
		</g>
	</g>
</g>
<rect x="2.6" y="50.9" class="st2" width="71.9" height="49.1"/>
<path class="st11" d="M65.7,92l-22.2,1.4c-3.9,0.2-7.9,0.2-11.8,0L10.8,92c-1.7,0-3.1-1.4-3.1-3.1V59.7c0-1.7,1.4-3.1,3.1-3.1
	l22.7-1.4c3.7-0.2,7.5-0.2,11.2,0l21,1.3c1.7,0,3.1,1.4,3.1,3.1v29.2C68.8,90.6,67.4,92,65.7,92L65.7,92z"/>
<g>
	<circle class="st4" cx="70.9" cy="94.3" r="1.4"/>
	<polygon class="st6" points="71.6,93.5 70.9,93.8 70.5,94.3 70.2,95.2 70.6,94.5 71,94 	"/>
</g>
<g>
	<circle class="st4" cx="6.3" cy="94.3" r="1.4"/>
	<polygon class="st6" points="7,93.5 6.3,93.8 5.8,94.3 5.6,95.2 6,94.5 6.4,94 	"/>
</g>
<g>
	<circle class="st4" cx="6.3" cy="54.6" r="1.5"/>
	<polygon class="st6" points="7,53.9 6.3,54.2 5.8,54.7 5.6,55.5 6,54.8 6.4,54.4 	"/>
</g>
<g>
	<circle class="st4" cx="71.1" cy="54.6" r="1.4"/>
	<polygon class="st6" points="71.8,53.9 71.1,54.2 70.6,54.7 70.4,55.5 70.8,54.8 71.2,54.4 	"/>
</g>
<g>
	<rect x="14.8" y="101.9" class="st18" width="45.6" height="0.9"/>
	<rect x="14.8" y="115.3" class="st18" width="45.6" height="1.1"/>
	<rect x="14.8" y="102.6" class="st18" width="1.2" height="13.2"/>
	<rect x="59.2" y="102.3" class="st18" width="1.2" height="13.5"/>
	<g>
		<rect x="17.7" y="103.4" class="st0" width="39.8" height="0.8"/>
		<rect x="17.7" y="105.2" class="st0" width="39.8" height="0.8"/>
		<rect x="17.7" y="106.9" class="st0" width="39.8" height="0.8"/>
		<rect x="17.7" y="108.6" class="st0" width="39.8" height="0.8"/>
		<rect x="17.7" y="110.4" class="st0" width="39.8" height="0.8"/>
		<rect x="17.7" y="112.1" class="st0" width="39.8" height="0.8"/>
		<rect x="17.7" y="113.8" class="st0" width="39.8" height="0.8"/>
	</g>
</g>
<rect x="68.6" y="105" class="st18" width="3.2" height="3.2"/>
<rect x="73.2" y="105" class="st18" width="3.2" height="3.2"/>
<rect x="68.6" y="109.8" class="st18" width="3.2" height="3.2"/>
<rect x="73.2" y="109.8" class="st18" width="3.2" height="3.2"/>
<rect x="68.6" y="114.5" class="st18" width="3.2" height="3.2"/>
<rect x="73.2" y="114.5" class="st18" width="3.2" height="3.2"/>
<rect x="68.6" y="119.3" class="st18" width="3.2" height="3.2"/>
<rect x="73.2" y="119.3" class="st18" width="3.2" height="3.2"/>
<rect x="68.6" y="124.1" class="st18" width="3.2" height="3.2"/>
<rect x="73.2" y="124.1" class="st18" width="3.2" height="3.2"/>
<rect x="68.6" y="128.8" class="st18" width="3.2" height="3.2"/>
<rect x="73.2" y="128.8" class="st18" width="3.2" height="3.2"/>
<polyline class="st19" points="67.5,105 66.2,105 66.2,132 67.5,132 "/>
<polyline class="st19" points="66.2,118.1 12.9,118.1 9.8,114.9 "/>
<polyline class="st19" points="53.3,118.1 53.3,137.3 60.4,144.3 76.1,144.3 "/>
<circle class="st18" cx="76.6" cy="144.3" r="1"/>
<g>
	<g>
		<polygon class="st20" points="43.8,120.7 16.2,120.7 0,137.9 4.2,168.9 11.9,173.5 32.9,174.4 50.7,164.2 54.5,155.8 54.5,130.9 
					"/>
		<polygon class="st21" points="21.9,130.6 19,132.6 14.4,134.9 10.8,138.1 8.6,140 8.6,142.9 9,148.2 10.7,155.9 11.3,163.1 
			28.3,163.9 44,148.7 		"/>
		<polygon class="st22" points="43.8,120.7 21.9,130.6 27.5,135.9 38.2,144 42.1,147.9 44,148.7 54.5,130.9 		"/>
		<polygon class="st23" points="16.2,120.7 21.9,130.6 43.8,120.7 		"/>
		<polygon class="st24" points="32.9,174.4 28.3,163.9 30.5,160.4 36.2,156.2 40.2,152.4 43.1,149.2 44,148.7 54.5,155.8 
			51.1,163.9 		"/>
		<polygon class="st25" points="11.3,163.1 4.1,168.5 10.9,172.9 32.9,174.4 28.3,163.9 		"/>
	</g>
	<g>
		<polygon class="st20" points="56.6,151 44.3,151 37,158.8 38.9,172.7 42.3,174.7 51.8,175.1 59.7,170.5 61.5,166.8 61.5,155.6 		
			"/>
		<polygon class="st21" points="46.8,155.5 45.5,156.4 43.5,157.4 41.9,158.9 40.8,159.7 40.9,161 41,163.4 41.8,166.9 42.1,170 
			49.7,170.4 56.8,163.6 		"/>
		<polygon class="st22" points="56.6,151 46.8,155.5 49.3,157.9 54.2,161.5 55.9,163.2 56.8,163.6 61.5,155.6 		"/>
		<polygon class="st23" points="44.3,151 46.8,155.5 56.6,151 		"/>
		<polygon class="st24" points="51.8,175.1 49.7,170.4 50.7,168.8 53.3,167 55,165.3 56.3,163.8 56.8,163.6 61.5,166.8 59.9,170.4 
					"/>
		<polygon class="st25" points="42.1,170 38.8,172.5 41.9,174.5 51.8,175.1 49.7,170.4 		"/>
	</g>
	<g>
		<polygon class="st20" points="66.2,164.2 56.5,163.2 50.4,166.5 51.2,173.6 53.8,174.9 61.2,175.9 67.7,174.2 69.2,172.4 
			69.8,166.8 		"/>
		<polygon class="st21" points="58.3,165.6 57.2,166 55.5,166.3 54.2,166.9 53.4,167.3 53.3,167.9 53.3,169.1 53.7,170.9 
			53.8,172.6 59.8,173.4 65.7,170.5 		"/>
		<polygon class="st22" points="66.2,164.2 58.3,165.6 60.1,167 63.7,169.2 65,170.2 65.7,170.5 69.8,166.8 		"/>
		<polygon class="st23" points="56.5,163.2 58.3,165.6 66.2,164.2 		"/>
		<polygon class="st24" points="61.2,175.9 59.8,173.4 60.7,172.6 62.8,171.9 64.2,171.2 65.3,170.6 65.7,170.5 69.2,172.4 
			67.8,174.1 		"/>
		<polygon class="st25" points="53.8,172.6 51.1,173.5 53.5,174.8 61.2,175.9 59.8,173.4 		"/>
	</g>
	<g>
		<polygon class="st20" points="38.9,168.7 35.7,168.7 33.8,170.7 34.3,174.3 35.2,174.8 37.6,174.9 39.7,173.7 40.2,172.8 
			40.2,169.9 		"/>
		<polygon class="st21" points="36.4,169.9 36,170.1 35.5,170.4 35.1,170.7 34.8,170.9 34.8,171.3 34.9,171.9 35.1,172.8 
			35.2,173.6 37.1,173.7 38.9,171.9 		"/>
		<polygon class="st22" points="38.9,168.7 36.4,169.9 37,170.5 38.3,171.4 38.7,171.9 38.9,171.9 40.2,169.9 		"/>
		<polygon class="st23" points="35.7,168.7 36.4,169.9 38.9,168.7 		"/>
		<polygon class="st24" points="37.6,174.9 37.1,173.7 37.4,173.3 38,172.8 38.5,172.4 38.8,172 38.9,171.9 40.2,172.8 39.8,173.7 
					"/>
		<polygon class="st25" points="35.2,173.6 34.3,174.2 35.1,174.8 37.6,174.9 37.1,173.7 		"/>
	</g>
	<g>
		<polygon class="st20" points="41.1,172.6 39.8,172.6 39.1,173.4 39.3,174.8 39.6,175 40.6,175.1 41.4,174.6 41.6,174.2 
			41.6,173.1 		"/>
		<polygon class="st21" points="40.1,173 40,173.1 39.8,173.2 39.6,173.4 39.5,173.5 39.5,173.6 39.5,173.9 39.6,174.2 39.6,174.6 
			40.4,174.6 41.1,173.9 		"/>
		<polygon class="st22" points="41.1,172.6 40.1,173 40.3,173.3 40.8,173.7 41,173.8 41.1,173.9 41.6,173.1 		"/>
		<polygon class="st23" points="39.8,172.6 40.1,173 41.1,172.6 		"/>
		<polygon class="st24" points="40.6,175.1 40.4,174.6 40.5,174.4 40.8,174.2 40.9,174.1 41.1,173.9 41.1,173.9 41.6,174.2 
			41.5,174.6 		"/>
		<polygon class="st25" points="39.6,174.6 39.3,174.8 39.6,175 40.6,175.1 40.4,174.6 		"/>
	</g>
</g>
<rect x="79.6" y="105" class="st26" width="2.4" height="27"/>
<rect x="79.9" y="116" class="st1" width="1.9" height="4.4"/>
<rect x="80.3" y="118.2" class="st27" width="1" height="12.2"/>
<path class="st28" d="M80.9,129h2.7c0.5,0,1,0.5,1,1.1l0,0c0,0.6-0.4,1.1-1,1.1h-5.5c-0.5,0-1-0.5-1-1.1l0,0c0-0.6,0.4-1.1,1-1.1
	H80.9"/>
<polyline class="st29" points="96.1,113 102.3,113 102.3,139.2 112.8,149.7 130,149.7 134.8,154.5 "/>
<rect x="97.3" y="116.1" class="st30" width="2.3" height="20.1"/>
<polygon class="st5" points="97.4,136.2 94.6,136.2 94.8,128.9 97.3,116.1 "/>
<rect x="237" y="156.4" class="st0" width="1.7" height="4.2"/>
<rect x="236.6" y="157.2" class="st1" width="0.4" height="2.8"/>
<polyline class="st31" points="35.9,39.4 35.9,25.6 286.7,26.8 286.4,0.5 327.8,0.5 "/>
<line class="st31" x1="289.8" y1="105.3" x2="327.8" y2="105.3"/>
<polyline class="st31" points="327.8,54.5 307.8,54.5 307.8,80.9 289.8,80.9 "/>
<polyline class="st31" points="327.8,161.1 307.8,161.1 307.8,134.7 289.8,134.7 "/>
<g>
	<path class="st32" d="M274,90.9H140.5c-5.2,0-9.5-4.3-9.5-9.5l0,0c0-5.2,4.3-9.5,9.5-9.5H274c5.2,0,9.5,4.3,9.5,9.5l0,0
		C283.5,86.7,279.3,90.9,274,90.9z"/>
	<g>
		<g>
			<path class="st33" d="M256.7,78.5l0.6,1.1v1.8l0.3,1.5l-0.2,1.8H141.8c0,0-1.9,0.1-1.9,0s-1.1-1.9-1.1-2s0.7-3.4,0.7-3.4l1.6-1.5
				l40.3,0.7l75.4-0.1"/>
		</g>
		<defs>
			<filter id="Adobe_OpacityMaskFilter" filterUnits="userSpaceOnUse" x="138.8" y="77.8" width="118.8" height="6.9">
				<feColorMatrix  type="matrix" values="1 0 0 0 0  0 1 0 0 0  0 0 1 0 0  0 0 0 1 0"/>
			</filter>
		</defs>
		
			<mask maskUnits="userSpaceOnUse" x="138.8" y="77.8" width="118.8" height="6.9" id="SVGID_00000021111563716395678130000010296694889346352302_">
			<g class="st34">
				
					<image style="overflow:visible;enable-background:new    ;" width="124" height="12" xlink:href="8957231A.jpg"  transform="matrix(1 0 0 1 136 74.83)">
				</image>
			</g>
		</mask>
		<g class="st35">
			<path class="st36" d="M256.7,78.5l0.6,1.1v1.8l0.3,1.5l-0.2,1.8H141.8c0,0-1.9,0.1-1.9,0s-1.1-1.9-1.1-2s0.7-3.4,0.7-3.4l1.6-1.5
				l40.3,0.7l75.4-0.1"/>
		</g>
	</g>
	<path class="st37" d="M272.1,89.1H142.3c-4.4,0-8-2.9-8-6.4v-2.5c0-3.6,3.6-6.4,8-6.4H272c4.4,0,8,2.9,8,6.4v2.5
		C280,86.2,276.5,89.1,272.1,89.1z M142.3,77c-2.2,0-4,1.5-4,3.3v2.5c0,1.8,1.8,3.3,4,3.3H272c2.2,0,4-1.5,4-3.3v-2.5
		c0-1.8-1.8-3.3-4-3.3H142.3z"/>
	<path class="st38" d="M270.9,86.1h-127c-3.3,0-6.1-2.2-6.1-4.9s2.7-4.9,6.1-4.9h127c3.3,0,6.1,2.2,6.1,4.9S274.2,86.1,270.9,86.1z
		 M143.8,78.2c-2.1,0-3.7,1.3-3.7,3s1.7,3,3.7,3h127c2.1,0,3.7-1.3,3.7-3s-1.7-3-3.7-3H143.8z"/>
	<g class="st39">
		<g>
			<defs>
				<path id="SVGID_00000022533012105647816340000013059459326268439703_" d="M266.6,89.1H136.9c-4.4,0-8-2.9-8-6.4v-2.5
					c0-3.6,3.6-6.4,8-6.4h129.7c4.4,0,8,2.9,8,6.4v2.5C274.6,86.2,271,89.1,266.6,89.1z M136.9,77c-2.2,0-4,1.5-4,3.3v2.5
					c0,1.8,1.8,3.3,4,3.3h129.7c2.2,0,4-1.5,4-3.3v-2.5c0-1.8-1.8-3.3-4-3.3H136.9z"/>
			</defs>
			<clipPath id="SVGID_00000144314538767621885500000012826040996828492447_">
				<use xlink:href="#SVGID_00000022533012105647816340000013059459326268439703_"  style="overflow:visible;"/>
			</clipPath>
			<polygon style="clip-path:url(#SVGID_00000144314538767621885500000012826040996828492447_);fill:#FFFFFF;" points="185,98.4 
				180,96.6 205.3,50.3 210.3,52.1 			"/>
		</g>
		<g>
			<defs>
				<path id="SVGID_00000147931283083315180920000006787739506588550325_" d="M266.6,89.1H136.9c-4.4,0-8-2.9-8-6.4v-2.5
					c0-3.6,3.6-6.4,8-6.4h129.7c4.4,0,8,2.9,8,6.4v2.5C274.6,86.2,271,89.1,266.6,89.1z M136.9,77c-2.2,0-4,1.5-4,3.3v2.5
					c0,1.8,1.8,3.3,4,3.3h129.7c2.2,0,4-1.5,4-3.3v-2.5c0-1.8-1.8-3.3-4-3.3H136.9z"/>
			</defs>
			<clipPath id="SVGID_00000090254456444792622960000017259736274261173919_">
				<use xlink:href="#SVGID_00000147931283083315180920000006787739506588550325_"  style="overflow:visible;"/>
			</clipPath>
			<polygon style="clip-path:url(#SVGID_00000090254456444792622960000017259736274261173919_);fill:#FFFFFF;" points="195.7,101.8 
				186.7,98.6 212,52.3 221.1,55.5 			"/>
		</g>
	</g>
	<path class="st42" d="M243.5,81.6c0,0-1.8-0.1-2.9-0.7c-1.2-0.6-2.3-0.7-3.2-0.1s1.1,1.3-1.3,1.7s-10.6-4.8-13.6-3.3
		s-2.8,3.2-4.7,3.3c-1.9,0.1-1.3,1.6-0.2,1.5c1.1-0.2,2.8-1.3,3.9-0.9c1.1,0.3,3.7,1.6,4.3-0.1s-0.3-2.6,1.5-1.8
		c1.8,0.8,3.7-0.4,4.8,1.1c1.2,1.4,2.4,2.5,3.7,1.3s0.7-1.3,1.5-1.2c0.7,0.1,2.8-1,3.7-0.4C241.8,82.4,243.9,83.2,243.5,81.6z"/>
	<path class="st42" d="M198.5,82.7c0,0,0-1.5-1.1-2c-1.2-0.5-2.2-1-4.4-0.5s-1.9,0.5-3,0.1c-1.1-0.3-3-0.3-3.1,0
		c-0.2,0.3-1.3,0.3,1,1c2.2,0.7,1,0.6,2.6,1.4C192,83.4,195.1,84.3,198.5,82.7z"/>
	<path class="st42" d="M154.7,82.7c2,0.4,2.6-2.6,0.7-3.1c-0.4-0.1-0.9-0.1-1.4-0.1c-2,0.3-4.1,2.1-5,1.8c-0.8-0.3-3-0.4-2.9,0.6
		s0.2,0.7,0.4,1.3s4.3,0.4,4.6-0.3s2.6-0.9,2.9-0.6C154,82.6,154.3,82.7,154.7,82.7z"/>
	<path class="st42" d="M159.8,81c0,0-1.1-0.1-1.1,0.3s-0.7,2.3,0.6,1.8C160.5,82.7,160.2,82,159.8,81z"/>
	<path class="st43" d="M143.1,84.3h128.4c1.7,0,3-1.4,3-3l0,0c0-1.7-1.4-3-3-3H143.1c-1.7,0-3,1.4-3,3l0,0
		C140.1,82.9,141.4,84.3,143.1,84.3z"/>
	<g>
		<circle class="st44" cx="145.2" cy="75.1" r="1"/>
		<polygon class="st6" points="145.7,74.6 145.2,74.8 144.9,75.1 144.8,75.7 145,75.2 145.3,74.9 		"/>
	</g>
	<g>
		<circle class="st44" cx="145.2" cy="87.7" r="1"/>
		<polygon class="st6" points="145.7,87.2 145.2,87.4 144.9,87.7 144.8,88.3 145,87.8 145.3,87.5 		"/>
	</g>
	<g>
		<circle class="st44" cx="270.6" cy="75.1" r="1"/>
		<polygon class="st6" points="271.1,74.6 270.7,74.8 270.3,75.1 270.2,75.7 270.4,75.2 270.7,74.9 		"/>
	</g>
	<g>
		<circle class="st44" cx="270.6" cy="87.7" r="1"/>
		<polygon class="st6" points="271.1,87.2 270.7,87.4 270.3,87.7 270.2,88.3 270.4,87.8 270.7,87.5 		"/>
	</g>
	<g>
		<circle class="st44" cx="234.1" cy="75.1" r="1"/>
		<polygon class="st6" points="234.6,74.6 234.1,74.8 233.8,75.1 233.6,75.7 233.9,75.2 234.2,74.9 		"/>
	</g>
	<g>
		<circle class="st44" cx="234.1" cy="87.7" r="1"/>
		<polygon class="st6" points="234.6,87.2 234.1,87.4 233.8,87.7 233.6,88.3 233.9,87.8 234.2,87.5 		"/>
	</g>
	<g>
		<circle class="st44" cx="176.7" cy="75.1" r="1"/>
		<polygon class="st6" points="177.2,74.6 176.7,74.8 176.4,75.1 176.2,75.7 176.5,75.2 176.8,74.9 		"/>
	</g>
	<g>
		<circle class="st44" cx="176.7" cy="87.7" r="1"/>
		<polygon class="st6" points="177.2,87.2 176.7,87.4 176.4,87.7 176.2,88.3 176.5,87.8 176.8,87.5 		"/>
	</g>
	<g>
		<circle class="st44" cx="135.8" cy="81.2" r="1"/>
		<polygon class="st6" points="136.3,80.7 135.8,80.9 135.5,81.3 135.3,81.8 135.6,81.4 135.9,81.1 		"/>
	</g>
	<g>
		<circle class="st44" cx="278.3" cy="81.2" r="1"/>
		<polygon class="st6" points="278.8,80.7 278.4,80.9 278,81.3 277.9,81.8 278.1,81.4 278.4,81.1 		"/>
	</g>
</g>
<g>
	<path class="st32" d="M274,116.3H140.5c-5.2,0-9.5-4.3-9.5-9.5l0,0c0-5.2,4.3-9.5,9.5-9.5H274c5.2,0,9.5,4.3,9.5,9.5l0,0
		C283.5,112,279.3,116.3,274,116.3z"/>
	<g>
		<g>
			<path class="st45" d="M271.5,102.8l0.7,1.4v2.1l0.3,1.9l-0.2,2.2H143.4c0,0-2.1,0.1-2.1,0s-1.2-2.3-1.2-2.4s0.7-4.1,0.7-4.2
				s1.7-1.8,1.7-1.8l45,0.8H271.5"/>
		</g>
		<defs>
			
				<filter id="Adobe_OpacityMaskFilter_00000143583824513140662290000016506808004655655338_" filterUnits="userSpaceOnUse" x="140.1" y="102" width="132.4" height="8.4">
				<feColorMatrix  type="matrix" values="1 0 0 0 0  0 1 0 0 0  0 0 1 0 0  0 0 0 1 0"/>
			</filter>
		</defs>
		
			<mask maskUnits="userSpaceOnUse" x="140.1" y="102" width="132.4" height="8.4" id="SVGID_00000078047046898476001310000014106119525408279962_">
			<g style="filter:url(#Adobe_OpacityMaskFilter_00000143583824513140662290000016506808004655655338_);">
				
					<image style="overflow:visible;enable-background:new    ;" width="137" height="13" xlink:href="8957231E.jpg"  transform="matrix(1 0 0 1 138 99.83)">
				</image>
			</g>
		</mask>
		<g class="st47">
			<path class="st48" d="M271.5,102.8l0.7,1.4v2.1l0.3,1.9l-0.2,2.2H143.4c0,0-2.1,0.1-2.1,0s-1.2-2.3-1.2-2.4s0.7-4.1,0.7-4.2
				s1.7-1.8,1.7-1.8l45,0.8H271.5"/>
		</g>
	</g>
	<path class="st37" d="M272.1,114.1H142.3c-4.4,0-8-2.9-8-6.4v-2.5c0-3.6,3.6-6.4,8-6.4H272c4.4,0,8,2.9,8,6.4v2.5
		C280,111.2,276.5,114.1,272.1,114.1z M142.3,101.9c-2.2,0-4,1.5-4,3.3v2.5c0,1.8,1.8,3.3,4,3.3H272c2.2,0,4-1.5,4-3.3v-2.5
		c0-1.8-1.8-3.3-4-3.3H142.3z"/>
	<path class="st38" d="M270.9,111.1h-127c-3.3,0-6.1-2.2-6.1-4.9s2.7-4.9,6.1-4.9h127c3.3,0,6.1,2.2,6.1,4.9
		S274.2,111.1,270.9,111.1z M143.8,103.2c-2.1,0-3.7,1.3-3.7,3s1.7,3,3.7,3h127c2.1,0,3.7-1.3,3.7-3s-1.7-3-3.7-3H143.8z"/>
	<g class="st39">
		<g>
			<defs>
				<path id="SVGID_00000176036613655931120070000001113759463393574047_" d="M266.6,114.1H136.9c-4.4,0-8-2.9-8-6.4v-2.5
					c0-3.6,3.6-6.4,8-6.4h129.7c4.4,0,8,2.9,8,6.4v2.5C274.6,111.2,271,114.1,266.6,114.1z M136.9,101.9c-2.2,0-4,1.5-4,3.3v2.5
					c0,1.8,1.8,3.3,4,3.3h129.7c2.2,0,4-1.5,4-3.3v-2.5c0-1.8-1.8-3.3-4-3.3H136.9z"/>
			</defs>
			<clipPath id="SVGID_00000132799430107797819480000005055948652450186656_">
				<use xlink:href="#SVGID_00000176036613655931120070000001113759463393574047_"  style="overflow:visible;"/>
			</clipPath>
			<polygon style="clip-path:url(#SVGID_00000132799430107797819480000005055948652450186656_);fill:#FFFFFF;" points="185,123.4 
				180,121.6 205.3,75.3 210.3,77.1 			"/>
		</g>
		<g>
			<defs>
				<path id="SVGID_00000137844782553188153720000012271321350064769976_" d="M266.6,114.1H136.9c-4.4,0-8-2.9-8-6.4v-2.5
					c0-3.6,3.6-6.4,8-6.4h129.7c4.4,0,8,2.9,8,6.4v2.5C274.6,111.2,271,114.1,266.6,114.1z M136.9,101.9c-2.2,0-4,1.5-4,3.3v2.5
					c0,1.8,1.8,3.3,4,3.3h129.7c2.2,0,4-1.5,4-3.3v-2.5c0-1.8-1.8-3.3-4-3.3H136.9z"/>
			</defs>
			<clipPath id="SVGID_00000065772378994209112080000011126739819128341409_">
				<use xlink:href="#SVGID_00000137844782553188153720000012271321350064769976_"  style="overflow:visible;"/>
			</clipPath>
			<polygon style="clip-path:url(#SVGID_00000065772378994209112080000011126739819128341409_);fill:#FFFFFF;" points="195.7,126.8 
				186.7,123.5 212,77.3 221.1,80.5 			"/>
		</g>
	</g>
	<path class="st43" d="M143.1,109.2h128.4c1.7,0,3-1.4,3-3l0,0c0-1.7-1.4-3-3-3H143.1c-1.7,0-3,1.4-3,3l0,0
		C140.1,107.9,141.4,109.2,143.1,109.2z"/>
	<g>
		<circle class="st44" cx="145.2" cy="99.9" r="1"/>
		<polygon class="st6" points="145.7,99.4 145.2,99.6 144.9,99.9 144.8,100.5 145,100.1 145.3,99.7 		"/>
	</g>
	<g>
		<circle class="st44" cx="145.2" cy="112.5" r="1"/>
		<polygon class="st6" points="145.7,112 145.2,112.2 144.9,112.5 144.8,113.1 145,112.6 145.3,112.3 		"/>
	</g>
	<g>
		<circle class="st44" cx="270.6" cy="99.9" r="1"/>
		<polygon class="st6" points="271.1,99.4 270.7,99.6 270.3,99.9 270.2,100.5 270.4,100.1 270.7,99.7 		"/>
	</g>
	<g>
		<circle class="st44" cx="270.6" cy="112.5" r="1"/>
		<polygon class="st6" points="271.1,112 270.7,112.2 270.3,112.5 270.2,113.1 270.4,112.6 270.7,112.3 		"/>
	</g>
	<g>
		<circle class="st44" cx="234.1" cy="99.9" r="1"/>
		<polygon class="st6" points="234.6,99.4 234.1,99.6 233.8,99.9 233.6,100.5 233.9,100.1 234.2,99.7 		"/>
	</g>
	<g>
		<circle class="st44" cx="234.1" cy="112.5" r="1"/>
		<polygon class="st6" points="234.6,112 234.1,112.2 233.8,112.5 233.6,113.1 233.9,112.6 234.2,112.3 		"/>
	</g>
	<g>
		<circle class="st44" cx="176.7" cy="99.9" r="1"/>
		<polygon class="st6" points="177.2,99.4 176.7,99.6 176.4,99.9 176.2,100.5 176.5,100.1 176.8,99.7 		"/>
	</g>
	<g>
		<circle class="st44" cx="176.7" cy="112.5" r="1"/>
		<polygon class="st6" points="177.2,112 176.7,112.2 176.4,112.5 176.2,113.1 176.5,112.6 176.8,112.3 		"/>
	</g>
	<g>
		<circle class="st44" cx="135.8" cy="106" r="1"/>
		<polygon class="st6" points="136.3,105.6 135.8,105.7 135.5,106.1 135.3,106.6 135.6,106.2 135.9,105.9 		"/>
	</g>
	<g>
		<circle class="st44" cx="278.3" cy="106" r="1"/>
		<polygon class="st6" points="278.8,105.6 278.4,105.7 278,106.1 277.9,106.6 278.1,106.2 278.4,105.9 		"/>
	</g>
</g>
<g>
	<path class="st32" d="M274,142.7H140.5c-5.2,0-9.5-4.3-9.5-9.5l0,0c0-5.2,4.3-9.5,9.5-9.5H274c5.2,0,9.5,4.3,9.5,9.5l0,0
		C283.5,138.4,279.3,142.7,274,142.7z"/>
	<g>
		<g>
			<path class="st51" d="M239.5,129.6l0.5,1.4v2.1l0.3,1.9l-0.2,2.2h-98c0,0-1.6,0.1-1.6,0s-0.9-2.3-0.9-2.4c0-0.1,0.6-4.1,0.6-4.2
				c0-0.1,1.3-1.8,1.3-1.8l34.2,0.8l63.9-0.1"/>
		</g>
		<defs>
			
				<filter id="Adobe_OpacityMaskFilter_00000077287471483121367780000017854331254129799869_" filterUnits="userSpaceOnUse" x="139.6" y="128.8" width="100.7" height="8.4">
				<feColorMatrix  type="matrix" values="1 0 0 0 0  0 1 0 0 0  0 0 1 0 0  0 0 0 1 0"/>
			</filter>
		</defs>
		
			<mask maskUnits="userSpaceOnUse" x="139.6" y="128.8" width="100.7" height="8.4" id="SVGID_00000106842269120676317980000008094888434435506346_">
			<g style="filter:url(#Adobe_OpacityMaskFilter_00000077287471483121367780000017854331254129799869_);">
				
					<image style="overflow:visible;enable-background:new    ;" width="106" height="14" xlink:href="89572319.jpg"  transform="matrix(1 0 0 1 137 125.83)">
				</image>
			</g>
		</mask>
		<g class="st53">
			<path class="st54" d="M239.5,129.6l0.5,1.4v2.1l0.3,1.9l-0.2,2.2h-98c0,0-1.6,0.1-1.6,0s-0.9-2.3-0.9-2.4c0-0.1,0.6-4.1,0.6-4.2
				c0-0.1,1.3-1.8,1.3-1.8l34.2,0.8l63.9-0.1"/>
		</g>
	</g>
	<path class="st37" d="M272.1,140.8H142.3c-4.4,0-8-2.9-8-6.4v-2.5c0-3.6,3.6-6.4,8-6.4H272c4.4,0,8,2.9,8,6.4v2.5
		C280,138,276.5,140.8,272.1,140.8z M142.3,128.7c-2.2,0-4,1.5-4,3.3v2.5c0,1.8,1.8,3.3,4,3.3H272c2.2,0,4-1.5,4-3.3V132
		c0-1.8-1.8-3.3-4-3.3H142.3z"/>
	<path class="st38" d="M270.9,137.8h-127c-3.3,0-6.1-2.2-6.1-4.9s2.7-4.9,6.1-4.9h127c3.3,0,6.1,2.2,6.1,4.9
		S274.2,137.8,270.9,137.8z M143.8,130c-2.1,0-3.7,1.3-3.7,3s1.7,3,3.7,3h127c2.1,0,3.7-1.3,3.7-3s-1.7-3-3.7-3H143.8z"/>
	<g class="st39">
		<g>
			<defs>
				<path id="SVGID_00000142867976564519821060000003297043411767671453_" d="M266.6,140.8H136.9c-4.4,0-8-2.9-8-6.4v-2.5
					c0-3.6,3.6-6.4,8-6.4h129.7c4.4,0,8,2.9,8,6.4v2.5C274.6,138,271,140.8,266.6,140.8z M136.9,128.7c-2.2,0-4,1.5-4,3.3v2.5
					c0,1.8,1.8,3.3,4,3.3h129.7c2.2,0,4-1.5,4-3.3V132c0-1.8-1.8-3.3-4-3.3H136.9z"/>
			</defs>
			<clipPath id="SVGID_00000183947818983309713290000014325659532242781579_">
				<use xlink:href="#SVGID_00000142867976564519821060000003297043411767671453_"  style="overflow:visible;"/>
			</clipPath>
			<polygon style="clip-path:url(#SVGID_00000183947818983309713290000014325659532242781579_);fill:#FFFFFF;" points="185,150.1 
				180,148.3 205.3,102.1 210.3,103.9 			"/>
		</g>
		<g>
			<defs>
				<path id="SVGID_00000055691617065636514050000009284824629857451403_" d="M266.6,140.8H136.9c-4.4,0-8-2.9-8-6.4v-2.5
					c0-3.6,3.6-6.4,8-6.4h129.7c4.4,0,8,2.9,8,6.4v2.5C274.6,138,271,140.8,266.6,140.8z M136.9,128.7c-2.2,0-4,1.5-4,3.3v2.5
					c0,1.8,1.8,3.3,4,3.3h129.7c2.2,0,4-1.5,4-3.3V132c0-1.8-1.8-3.3-4-3.3H136.9z"/>
			</defs>
			<clipPath id="SVGID_00000076591866179288228410000002521064274158555307_">
				<use xlink:href="#SVGID_00000055691617065636514050000009284824629857451403_"  style="overflow:visible;"/>
			</clipPath>
			<polygon style="clip-path:url(#SVGID_00000076591866179288228410000002521064274158555307_);fill:#FFFFFF;" points="195.7,153.5 
				186.7,150.3 212,104 221.1,107.3 			"/>
		</g>
	</g>
	<path class="st43" d="M143.1,136h128.4c1.7,0,3-1.4,3-3l0,0c0-1.7-1.4-3-3-3H143.1c-1.7,0-3,1.4-3,3l0,0
		C140.1,134.7,141.4,136,143.1,136z"/>
	<g>
		<circle class="st44" cx="145.2" cy="126.7" r="1"/>
		<polygon class="st6" points="145.7,126.2 145.2,126.4 144.9,126.7 144.8,127.3 145,126.8 145.3,126.5 		"/>
	</g>
	<g>
		<circle class="st44" cx="145.2" cy="139.3" r="1"/>
		<polygon class="st6" points="145.7,138.8 145.2,139 144.9,139.3 144.8,139.9 145,139.4 145.3,139.1 		"/>
	</g>
	<g>
		<circle class="st44" cx="270.6" cy="126.7" r="1"/>
		<polygon class="st6" points="271.1,126.2 270.7,126.4 270.3,126.7 270.2,127.3 270.4,126.8 270.7,126.5 		"/>
	</g>
	<g>
		<circle class="st44" cx="270.6" cy="139.3" r="1"/>
		<polygon class="st6" points="271.1,138.8 270.7,139 270.3,139.3 270.2,139.9 270.4,139.4 270.7,139.1 		"/>
	</g>
	<g>
		<circle class="st44" cx="234.1" cy="126.7" r="1"/>
		<polygon class="st6" points="234.6,126.2 234.1,126.4 233.8,126.7 233.6,127.3 233.9,126.8 234.2,126.5 		"/>
	</g>
	<g>
		<circle class="st44" cx="234.1" cy="139.3" r="1"/>
		<polygon class="st6" points="234.6,138.8 234.1,139 233.8,139.3 233.6,139.9 233.9,139.4 234.2,139.1 		"/>
	</g>
	<g>
		<circle class="st44" cx="176.7" cy="126.7" r="1"/>
		<polygon class="st6" points="177.2,126.2 176.7,126.4 176.4,126.7 176.2,127.3 176.5,126.8 176.8,126.5 		"/>
	</g>
	<g>
		<circle class="st44" cx="176.7" cy="139.3" r="1"/>
		<polygon class="st6" points="177.2,138.8 176.7,139 176.4,139.3 176.2,139.9 176.5,139.4 176.8,139.1 		"/>
	</g>
	<g>
		<circle class="st44" cx="135.8" cy="132.8" r="1"/>
		<polygon class="st6" points="136.3,132.4 135.8,132.5 135.5,132.9 135.3,133.4 135.6,133 135.9,132.7 		"/>
	</g>
	<g>
		<circle class="st44" cx="278.3" cy="132.8" r="1"/>
		<polygon class="st6" points="278.8,132.4 278.4,132.5 278,132.9 277.9,133.4 278.1,133 278.4,132.7 		"/>
	</g>
</g>
<g>
	<path class="st12" d="M23,62.4v5.3h3.2v1h-4.2v-7.4h4.2v1H23z M26.1,62.4h1v5.3h-1V62.4z"/>
	<path class="st12" d="M33.5,64.6v2.1h-4.2v1.1h-1v-3.2h1v1.1h3.2v-1.1H33.5z M32.5,64.6h-3.2v-1h3.2V64.6z M29.3,68.8v-1h4.2v1
		H29.3z"/>
	<path class="st12" d="M35.6,64.6v3.2h3.2v1h-3.2v2.1h-1v-7.4h4.2v1H35.6z M38.8,64.6h1v3.2h-1V64.6z"/>
	<path class="st12" d="M44,64.6h-2.1v3.2h-1v-5.3h1v1.1H44V64.6z M44,68.8h-2.1v-1H44V68.8z"/>
	<path class="st12" d="M46.1,64.6v4.2h-1v-7.4h1v2.1h3.2v1H46.1z M49.3,64.6h1v4.2h-1V64.6z"/>
	<path class="st12" d="M51.4,63.5h1v1h-1V63.5z M51.4,68.8v-1h1v1H51.4z"/>
	<path class="st12" d="M33,84.4h-4.2v-1H33V84.4z"/>
	<path class="st12" d="M39.3,80.2h-4.2v2.1h3.2v1.1H34v-4.2h5.3V80.2z M34,86.5v-1h4.2v1H34z M39.3,85.4h-1v-2.1h1V85.4z"/>
	<path class="st12" d="M40.3,80.2h1v5.3h-1V80.2z M44.6,79.1v1h-3.2v-1H44.6z M41.4,86.5v-1h3.2v1H41.4z M44.6,80.2h1v5.3h-1V80.2z"
		/>
</g>
</svg>
