<?xml version="1.0" encoding="utf-8"?>
<!-- Generator: Adobe Illustrator 26.1.0, SVG Export Plug-In . SVG Version: 6.00 Build 0)  -->
<svg version="1.1" id="Layer_1" xmlns="http://www.w3.org/2000/svg" xmlns:xlink="http://www.w3.org/1999/xlink" x="0px" y="0px"
	 viewBox="0 0 64 64" style="enable-background:new 0 0 64 64;" xml:space="preserve">
<style type="text/css">
	.st0{fill:#FFA62B;}
	.st1{fill:none;stroke:#DB7C26;stroke-width:3.0215;stroke-miterlimit:10;}
	.st2{fill:#DB7C26;}
	.st3{fill:none;stroke:#727272;stroke-width:3.1571;stroke-miterlimit:10;}
	.st4{fill:#B0FFF2;}
	.st5{fill:#FFFFFF;}
</style>
<g>
	<g>
		<path class="st0" d="M52.7,17.6c-11-12.1-30.1-12.2-41.3-0.2c-4.8,5.2-7.5,11.9-7.5,19L3.8,48.7l56.1,0l0.1-12
			C60,29.6,57.4,22.8,52.7,17.6L52.7,17.6z"/>
		<path class="st1" d="M19.9,40c0,0-2.5-21.3,9.3-31.6"/>
		<path class="st1" d="M43.3,40c0,0,2.5-21.3-9.3-31.6"/>
		<rect x="0.2" y="34.3" class="st2" width="63.3" height="15.3"/>
		<circle class="st2" cx="31.9" cy="32.8" r="13.3"/>
		<path class="st1" d="M10.1,37c0,0-2.1-17.2,7.5-25.5"/>
		<path class="st1" d="M52.7,37c0,0,2-17.2-7.5-25.5"/>
		<path class="st3" d="M30,8.4"/>
		<path class="st3" d="M20.7,40"/>
		<path class="st3" d="M34,8.4"/>
		<path class="st3" d="M43.3,40"/>
		<circle class="st4" cx="32" cy="32.9" r="9.8"/>
	</g>
	<path class="st5" d="M40,27.2c0,0-1.9-2.5-3.8-3.2L23.5,37.7c0,0,1.1,2.3,3.9,3.8L40,27.2z"/>
</g>
</svg>
