<?xml version="1.0" encoding="UTF-8" standalone="no"?>
<!-- Generator: Adobe Illustrator 26.0.1, SVG Export Plug-In . SVG Version: 6.00 Build 0)  -->

<svg
   version="1.1"
   id="Layer_1"
   x="0px"
   y="0px"
   viewBox="0 0 208.25 100"
   style="enable-background:new 0 0 208.25 100;"
   xml:space="preserve"
   sodipodi:docname="logo.svg"
   inkscape:version="1.1 (c68e22c387, 2021-05-23)"
   xmlns:inkscape="http://www.inkscape.org/namespaces/inkscape"
   xmlns:sodipodi="http://sodipodi.sourceforge.net/DTD/sodipodi-0.dtd"
   xmlns="http://www.w3.org/2000/svg"
   xmlns:svg="http://www.w3.org/2000/svg"><defs
   id="defs165" /><sodipodi:namedview
   id="namedview163"
   pagecolor="#ffffff"
   bordercolor="#666666"
   borderopacity="1.0"
   inkscape:pageshadow="2"
   inkscape:pageopacity="0.0"
   inkscape:pagecheckerboard="0"
   showgrid="false"
   inkscape:zoom="5.0804322"
   inkscape:cx="104.125"
   inkscape:cy="50.094164"
   inkscape:window-width="1842"
   inkscape:window-height="1057"
   inkscape:window-x="-8"
   inkscape:window-y="-8"
   inkscape:window-maximized="1"
   inkscape:current-layer="Layer_1" />
<style
   type="text/css"
   id="style2">
	.st0{fill:#3F3F3F;}
	.st1{fill:#68523C;}
	.st2{fill:#828282;}
	.st3{fill:#B5B5B5;}
	.st4{fill:#6D6D6D;}
	.st5{fill:#757575;}
	.st6{fill:#D1D1D1;}
	.st7{fill:#B7B7B7;}
	.st8{fill:#AF9D90;}
	.st9{fill:#7F6A58;}
	.st10{fill:#38322C;}
	.st11{opacity:0.61;fill:#565656;}
	.st12{fill:#FFA62B;}
	.st13{fill:none;stroke:#DB7C26;stroke-width:1.724;stroke-miterlimit:10;}
	.st14{fill:#DB7C26;}
	.st15{fill:none;stroke:#727272;stroke-width:1.8014;stroke-miterlimit:10;}
	.st16{fill:#B0FFF2;}
	.st17{fill:#FFFFFF;}
</style>
<path
   class="st0"
   d="M26.6,6.17"
   id="path4" />
<g
   id="g18"
   style="fill:#cecece;fill-opacity:1">
	<path
   class="st0"
   d="M4.55,23.44L2.09,12.23l2.47-9.95l10.1-2.07l4.21,8.15l-4.42,3.07l-3.01-3.67l-3.52,2.71l0.12,7.58l3.76,1.44   l0.93-2.17L9.6,15.93l1.86-4.3l7.4,3.19l-3.82,9.95L4.55,23.44z"
   id="path6"
   style="fill:#cecece;fill-opacity:1" />
	<path
   class="st0"
   d="M28.07,25.25l-5.32-1.86l-2.07-6.43l1.14-9.08l6.25-2.47l5.77,3.25l0.54,12.15L28.07,25.25z M29.99,18.51   l-0.12-5.89l-2.04-2.04l-2.17,1.44l-0.12,6.98l3.01,1.44L29.99,18.51z"
   id="path8"
   style="fill:#cecece;fill-opacity:1" />
	<path
   class="st0"
   d="M41.24,23.9l-0.18-11.76l-3.85,0.84l-1.02-6.13l4.45-0.54l-0.21-5.02l5.98-0.93l0.27,5.26l4.36-0.33l0.48,4.69   l-4.84,1.2l-0.27,13.77L41.24,23.9z"
   id="path10"
   style="fill:#cecece;fill-opacity:1" />
	<path
   class="st0"
   d="M57.56,25.13l-4.15-3.73V11.09l2.26-4.93l7.04-0.69l3.46,3.55l0.12,6.01l-4.75-0.24l0.36-2.89l-2.89-0.6   l-1.2,2.04v5.29l1.44,1.44l2.53-0.24l0.12-2.04l4.27,0.09l-0.66,5.8L57.56,25.13z"
   id="path12"
   style="fill:#cecece;fill-opacity:1" />
	<path
   class="st0"
   d="M69.23,25.01l-1.14-12.39l1.02-11.79l5.92-0.48l-0.51,7.1l4.24-1.92l4.3,3.28l0.66,11.52l-1.86,4.69   l-5.29-0.72l1.68-4.57l-0.6-7.7l-3.37,0.96l0.12,11.43L69.23,25.01z"
   id="path14"
   style="fill:#cecece;fill-opacity:1" />
	<path
   class="st0"
   d="M85.71,5.28l-0.18-4.93l7.4,1.08l-0.12,4.45L85.71,5.28z M86.22,24.77l-0.39-17.8l6.86,0.36l-0.93,17.05   L86.22,24.77z"
   id="path16"
   style="fill:#cecece;fill-opacity:1" />
</g>
<polygon
   class="st1"
   points="65.59,34.03 63.77,35.59 63.57,33.62 "
   id="polygon20" />
<g
   id="g126">
	<polygon
   class="st2"
   points="27.9,30 5.91,32.73 2.4,38.97 5,48.6 3.18,88.68 0.05,96.88 1.22,98.7 13.98,99.87 29.72,95.61    32.32,93.1 31.75,89.85 33.86,86.6 34.12,89.85 36.49,91.8 37.92,95.61 43.08,97.14 57.57,96.48 59.91,94.78 65.76,96.48    82.42,95.61 89.44,96.61 104.28,94.78 109.16,95.61 121.32,95.61 124.31,93.88 125.49,90.76 124.05,87.64 125.49,85.56    127.7,90.37 127.7,92.84 131.99,94.78 136.03,96.48 147.35,98.44 157.1,94.78 163.22,94.78 169.33,97.92 181.7,97.79 189.63,96.61    192.11,88.42 187.16,81.78 190.02,75.18 194.97,76.71 208.25,67.84 207.37,53.67 204.7,48.73 185.34,41.71 167.38,39.23    159.58,44.96 152.16,41.71 138.89,42.1 128.09,49.25 125.36,52.12 118.2,47.95 115.08,42.75 107.92,44.31 105.58,47.04    102.06,43.79 95.9,43.27 90.87,40.01 92.31,35.85 85.66,31.82 71.21,29.59 69.33,31.83 69.18,30.14 67.81,28.97 64.33,28.43    59.39,30.91 58.74,33.41 52.62,30.39 44.68,29.21 36.49,31.17 35.32,35.07 33.1,39.23 31.75,34.09  "
   id="polygon22" />
	<g
   id="g34">
		<path
   class="st3"
   d="M13.86,95.39l-6.67-7.58L8.4,36.82l16.06-1.74l9.39,30l5.23-30.76l11.97-0.91l5.23,5l0.4,6.36l-0.31,0.27    l0.14,2.28l0.36,0.43l2.44,38.85l-4.17,7.88l-12.2,0.3l0.61-28.49l-7.27,17.27l-3.03,0.91l-10.3-15.76l3.64,24.24L13.86,95.39z"
   id="path24" />
		<path
   class="st3"
   d="M108.64,93.8l2.12-24.77l-9.09,2.42l0.08,22.27l-14,0.02l-0.02-43.89l12.73-3.49l0.3,10l7.35-6.97l13.79,6.74    l2.05,17.43l-4.62,20.99L108.64,93.8z"
   id="path26" />
		<path
   class="st3"
   d="M144.47,95.61l-13.71-5.99l-2.27-22.2l5.53-16.14l20.02-4.71l11.27,16.68l-2.8,10.76l-19.55,4.09l1.67,5.83    l15.83-4.32l4.39,9.93L144.47,95.61z M153.64,66.44l-3.79-6.74l-5.76,0.83l-2.73,4.55l0.91,3.94L153.64,66.44z"
   id="path28" />
		<path
   class="st3"
   d="M171.52,95.39l-1.67-49.7l14.09,1.82l-0.76,10.3l6.36-9.39l12.43,4.47l2.73,12.12l-10.3,5.99l-2.95-6.21    l-8.26,8.49l0.38,20.3L171.52,95.39z"
   id="path30" />
		<path
   class="st3"
   d="M64.24,45.99l-0.45-12.43l18.64,2.73l-0.3,11.21L64.24,45.99z M65.53,95.08l-0.98-44.85l17.27,0.91    l-0.12,2.26l-0.1,0.29l-0.12,2.12l0.06,0.34L79.47,94.1L65.53,95.08z"
   id="path32" />
	</g>
	<polygon
   class="st4"
   points="27.9,30 24.46,35.08 33.95,65.38 33.1,39.23 31.75,34.09  "
   id="polygon36" />
	<path
   class="st0"
   d="M36.49,31.17l2.6,3.15l-5.23,30.76L33.1,39.23c0,0,2.21-3.9,2.21-4.16C35.32,34.81,36.49,31.17,36.49,31.17z"
   id="path38" />
	<polygon
   class="st4"
   points="2.4,38.97 8.4,36.82 8.1,49.32 4.99,48.83  "
   id="polygon40" />
	<polygon
   class="st0"
   points="33.86,86.6 36.28,83.57 33.25,84.48  "
   id="polygon42" />
	<path
   class="st4"
   d="M31.75,89.85l-8.8-21.13l3.64,24.24l2.91,2.71c0,0,2.5-2.26,2.67-2.41C32.32,93.1,31.75,89.85,31.75,89.85z"
   id="path44" />
	<polygon
   class="st0"
   points="31.75,89.85 33.86,86.6 33.25,84.38 22.95,68.72  "
   id="polygon46" />
	<polygon
   class="st4"
   points="7.19,87.81 3.18,88.68 0.05,96.88 1.22,98.7 14.16,99.87 13.86,95.39  "
   id="polygon48" />
	<polygon
   class="st0"
   points="64.24,45.99 65.73,48.34 81.2,49.32 82.12,47.5  "
   id="polygon50" />
	<polygon
   class="st0"
   points="110.76,69.02 110.58,71.07 102.52,72.25 101.67,71.45  "
   id="polygon52" />
	<path
   class="st5"
   d="M101.74,93.72l0.88-0.73l-0.1-20.74c0,0-0.86-1.03-0.85-0.81S101.74,93.72,101.74,93.72z"
   id="path54" />
	<polygon
   class="st4"
   points="59.91,94.78 64.54,50.23 65.52,94.78 65.76,96.48  "
   id="polygon56" />
	<path
   class="st0"
   d="M79.47,94.1l2.95,1.51l-16.65,0.87c0,0-6.02-1.62-5.86-1.7c0.16-0.08,5.55,0.14,5.55,0.14L79.47,94.1z"
   id="path58" />
	<polygon
   class="st0"
   points="149.71,59.72 147.64,63.73 153.64,66.44 149.85,59.7  "
   id="polygon60" />
	<polygon
   class="st5"
   points="141.37,65.08 147.77,63.79 149.71,59.72 144.09,60.54  "
   id="polygon62" />
	<polygon
   class="st6"
   points="142.27,69.02 141.37,65.08 147.77,63.79 153.64,66.44  "
   id="polygon64" />
	<path
   class="st7"
   d="M160.46,79.63l-3.39-0.35c0,0-12.22,1.7-13.25,1.86c-0.08,0.01,0.8,2.81,0.8,2.81L160.46,79.63z"
   id="path66" />
	<polygon
   class="st4"
   points="147.35,98.44 144.33,95.55 130.76,89.63 127.7,92.84 136.03,96.48  "
   id="polygon68" />
	<polygon
   class="st0"
   points="163.22,94.78 164.85,89.55 144.47,95.61 147.35,98.44 157.1,94.78  "
   id="polygon70" />
	<polygon
   class="st5"
   points="134.02,51.29 138.89,42.1 128.09,49.25 125.36,52.12 128.49,67.43 133.09,54.01  "
   id="polygon72" />
	<path
   class="st8"
   d="M154.04,46.59c0,0-2.08-4.97-1.88-4.88c0.2,0.09-13.48,0.39-13.48,0.39l-4.66,9.2L154.04,46.59z"
   id="path74" />
	<polyline
   class="st4"
   points="90.87,40.01 87.73,49.85 100.45,46.37 95.9,43.27 95.9,43.27  "
   id="polyline76" />
	<polygon
   class="st0"
   points="183.57,93.57 189.63,96.61 181.7,97.79 169.33,97.92 171.52,95.39  "
   id="polygon78" />
	<path
   class="st4"
   d="M159.58,44.96c0.1,0.29,5.73,18.3,5.73,18.3l0.43,2.25l0.3,0.28l0.7,3.46l-0.17,0.55l4.95,25.58l-1.67-49.7   l-2.47-6.45l18.19,2.56l-1.63,5.71"
   id="path80" />
	<path
   class="st9"
   d="M167.05,39.48"
   id="path82" />
	<polygon
   class="st2"
   points="56.42,45.04 54.37,44.61 52.22,45.61 50.3,45.61 52.32,46.47 54.2,45.68 56.57,47.37  "
   id="polygon84" />
	<polygon
   class="st0"
   points="56.68,44.77 56.68,44.99 56.42,45.41 54.39,44.94 52.21,45.95 50.5,45.7 50.3,45.61 52.19,45.62    54.37,44.61 56.08,44.96  "
   id="polygon86" />
	<path
   class="st2"
   d="M7.63,69.23c0,0,1.74-2.05,1.74-2.12s0.24-2.15,0.24-2.15l2.07-3.59v-1.46l0.59,2.49l-1.37,2.34l0.07,2.44   l1.42-1.15v-0.95l0.44,1.31l-0.44,0.88l-0.78,1.78l-2,1.9L7.4,74.98L7.63,69.23z"
   id="path88" />
	<polyline
   class="st0"
   points="12.05,61.44 9.89,65.24 9.71,67.19 7.61,69.99 7.63,69.23 9.34,67.11 9.62,64.96 11.69,61.37    11.69,59.91  "
   id="polyline90" />
	<path
   class="st1"
   d="M104.16,53.14"
   id="path92" />
	<path
   class="st2"
   d="M170.5,65.08l1.87-0.32l1.46,0.61l1.88-0.1l-2.07,0.73l-1.06,0.61l-2.07,0.15l-1.5,1.85l-2.24,0.66L166,65.76   c0,0,2.34-0.7,2.56-0.68S170.5,65.08,170.5,65.08z"
   id="path94" />
	<polygon
   class="st0"
   points="175.71,65.27 173.82,65.79 172.28,65.08 170.51,65.43 168.53,65.43 166.09,66.44 165.76,66.18    165.74,65.51 166,65.76 168.56,65.08 170.5,65.08 172.37,64.76 173.83,65.37  "
   id="polygon96" />
	<polygon
   class="st2"
   points="80.8,69.75 80.47,70.67 80.47,71.4 80.04,72.48 80.04,74.76 80.22,75.94 80.04,76.87 80.42,77.98  "
   id="polygon98" />
	<polygon
   class="st2"
   points="81.68,53.67 80.8,54.76 80.42,55.95 79.78,56.38 80.73,56.67 81.13,55.64 81.56,55.8  "
   id="polygon100" />
	<polygon
   class="st2"
   points="77.66,35.59 77.17,35.91 77.03,36.4 76.57,37.58 76.75,38.14 76.88,37.55 77.6,36.57 77.94,36.22    78.94,35.78  "
   id="polygon102" />
	<path
   class="st0"
   d="M87.74,93.74c0.13,0.44,1.7,2.87,1.7,2.87l10.25-1.17l2.93-2.45l-0.88,0.73L87.74,93.74z"
   id="path104" />
	<path
   class="st4"
   d="M123.54,90.77l0.51-3.13l-1.93-5.84l-1.71,1l0.52,1.62l-0.03,1.94l0.1,0.55l-1.68,7.64   c0.03,0.22,2,1.06,2,1.06l2.99-1.73L123.54,90.77z"
   id="path106" />
	<polygon
   class="st0"
   points="124.05,87.64 125.49,90.76 124.31,93.88 123.54,90.77  "
   id="polygon108" />
	<polygon
   class="st5"
   points="125.49,85.56 129.11,73.57 130.61,89.79 127.7,92.63 127.9,90.35  "
   id="polygon110" />
	<polygon
   class="st6"
   points="115.08,42.75 112.03,45.12 109.59,45.42 107.92,44.31  "
   id="polygon112" />
	<polygon
   class="st5"
   points="108.11,49.4 112.03,45.12 109.59,45.42 100.76,56.37  "
   id="polygon114" />
	<polygon
   class="st5"
   points="208.25,67.84 204.7,65.01 194.4,70.99 194.86,76.67  "
   id="polygon116" />
	<path
   class="st9"
   d="M87.39,69.53"
   id="path118" />
	<path
   class="st2"
   d="M87.12,84.44l0.64,0.85v1.24c0,0,0.3,1.66,0.33,1.76c0.03,0.1,0,2.8,0,2.8l-0.33,1.46v1.18l-0.64,0.84   l-1.3-0.42L87.12,84.44z"
   id="path120" />
	<polygon
   class="st0"
   points="108.64,93.8 109.16,95.61 121.32,95.61 119.32,94.55  "
   id="polygon122" />
	<path
   class="st10"
   d="M107.02,98.02"
   id="path124" />
</g>
<polygon
   class="st6"
   points="51.06,33.41 44.68,29.21 36.49,31.17 39.08,34.32 51.06,33.62 "
   id="polygon128" />
<polygon
   class="st11"
   points="160.23,46.73 160.51,47.94 127.87,64.4 127.24,61.26 "
   id="polygon130" />
<g
   id="g160">
	<g
   id="g156">
		<path
   class="st12"
   d="M146.61,33.12c-8.71-3.42-18.49,1.33-21.18,10.3c-1.16,3.85-0.82,8,0.93,11.61l3.07,6.32l28.72-14.18    l-2.99-6.15C153.4,37.41,150.35,34.59,146.61,33.12L146.61,33.12z"
   id="path132" />
		<path
   class="st13"
   d="M135.51,52.86c0,0-6.69-10.28-3.23-18.5"
   id="path134" />
		<path
   class="st13"
   d="M147.46,46.96c0,0-4.09-11.56-12.72-13.81"
   id="path136" />
		
			<rect
   x="124.05"
   y="46.46"
   transform="matrix(0.8967 -0.4427 0.4427 0.8967 -7.8121 68.168)"
   class="st14"
   width="36.12"
   height="8.72"
   id="rect138" />
		<circle
   class="st14"
   cx="139.81"
   cy="46.17"
   r="7.59"
   id="circle140" />
		<path
   class="st13"
   d="M129.72,53.77c0,0-5.39-8.29-2.61-14.92"
   id="path142" />
		<path
   class="st13"
   d="M151.48,43.02c0,0-3.3-9.32-10.26-11.14"
   id="path144" />
		<path
   class="st15"
   d="M132.67,34.16"
   id="path146" />
		<path
   class="st15"
   d="M135.91,52.66"
   id="path148" />
		<path
   class="st15"
   d="M134.74,33.14"
   id="path150" />
		<path
   class="st15"
   d="M147.46,46.96"
   id="path152" />
		<circle
   class="st16"
   cx="139.88"
   cy="46.18"
   r="5.59"
   id="circle154" />
	</g>
	<path
   class="st17"
   d="M142.55,41.25c0,0-1.63-0.78-2.74-0.65l-3.08,10.21c0,0,1.12,0.88,2.94,0.97L142.55,41.25z"
   id="path158" />
</g>
</svg>
