<?xml version="1.0" encoding="utf-8"?>
<!-- Generator: Adobe Illustrator 26.2.1, SVG Export Plug-In . SVG Version: 6.00 Build 0)  -->
<svg version="1.1" id="Layer_1" xmlns="http://www.w3.org/2000/svg" xmlns:xlink="http://www.w3.org/1999/xlink" x="0px" y="0px"
	 viewBox="0 0 188.4 44.3" style="enable-background:new 0 0 188.4 44.3;" xml:space="preserve">
<style type="text/css">
	.st0{fill:#646464;}
	.st1{fill:#838383;}
	.st2{fill:#A3A3A2;}
	.st3{fill:#505050;}
</style>
<g>
	<g>
		<polygon class="st0" points="18.2,1.5 32.2,2.4 36.2,3.2 39,6.9 41.6,8.9 42.7,10.4 42.5,11.8 43.3,26.9 43.7,29.2 43.3,29.9 
			43.4,31.2 43.9,31.9 44.1,33.3 43,34.5 41.6,40.9 41,41.3 36.6,41.7 29.8,44.1 22.8,43.7 10.6,44.3 8.2,43.8 3.1,39 0.5,37 
			0,35.3 0.7,24.3 0,10.3 1.2,8 4.9,3.3 5.5,1.7 8.2,0.3 		"/>
		<polygon class="st1" points="7.3,2.4 35.4,3.4 41.7,10.3 42.5,32.6 40.4,39.7 29.1,42.7 8.2,43.4 1.7,35.5 1.7,9.3 		"/>
		<polygon class="st2" points="7.3,2.4 8.2,0 5.5,1.3 2.3,4.8 0,10 1.7,13.9 		"/>
		<polygon class="st3" points="29.1,42.7 30,43.9 37,42.1 41,40.9 41.6,40.5 40.4,39.7 		"/>
	</g>
	<g>
		<path class="st3" d="M22.7,34.2l-4.9-0.2l-0.5-3.9l3.1-0.7L21,18.5l-3.4,1.2l-1.1-5.6l6.4-3.3l3,4L25,29.5l2.1,0.3l0.7,3.3
			L22.7,34.2z"/>
	</g>
</g>
<g>
	<g>
		<polygon class="st0" points="66.3,1.5 80.3,2.4 84.3,3.2 87.1,6.9 89.7,8.9 90.8,10.4 90.6,11.8 91.4,26.9 91.8,29.2 91.4,29.9 
			91.5,31.2 92,31.9 92.2,33.3 91.1,34.5 89.7,40.9 89.1,41.3 84.8,41.7 77.9,44.1 70.9,43.7 58.7,44.3 56.3,43.8 51.2,39 48.6,37 
			48.1,35.3 48.9,24.3 48.1,10.3 49.3,8 53,3.3 53.6,1.7 56.3,0.3 		"/>
		<polygon class="st1" points="55.5,2.4 83.6,3.4 89.8,10.3 90.6,32.6 88.5,39.7 77.2,42.7 56.3,43.4 49.8,35.5 49.8,9.3 		"/>
		<polygon class="st2" points="55.5,2.4 56.3,0 53.6,1.3 50.4,4.8 48.1,10 49.8,13.9 		"/>
		<polygon class="st3" points="77.2,42.7 78.1,43.9 85.1,42.1 89.1,40.9 89.7,40.5 88.5,39.7 		"/>
	</g>
	<g>
		<path class="st3" d="M63.5,33.8l0.7-8.6l6.9-2.8l1-3.2l-2.7-1.5l-2.8,2.6L63.2,17l2.4-5.2l8.8-0.6l2.8,6.5l-1.5,6.9l-6.7,3
			l1.1,2.3l6.2-1l-0.1,4.9L63.5,33.8z"/>
	</g>
</g>
<g>
	<g>
		<polygon class="st0" points="114.4,1.5 128.4,2.4 132.4,3.2 135.2,6.9 137.8,8.9 138.9,10.4 138.7,11.8 139.5,26.9 139.9,29.2 
			139.5,29.9 139.6,31.2 140.1,31.9 140.3,33.3 139.3,34.5 137.9,40.9 137.2,41.3 132.9,41.7 126,44.1 119.1,43.7 106.8,44.3 
			104.4,43.8 99.3,39 96.7,37 96.2,35.3 97,24.3 96.2,10.3 97.5,8 101.1,3.3 101.7,1.7 104.4,0.3 		"/>
		<polygon class="st1" points="103.6,2.4 131.7,3.4 137.9,10.3 138.7,32.6 136.6,39.7 125.3,42.7 104.4,43.4 97.9,35.5 97.9,9.3 		
			"/>
		<polygon class="st2" points="103.6,2.4 104.4,0 101.7,1.3 98.5,4.8 96.2,10 97.9,13.9 		"/>
		<polygon class="st3" points="125.3,42.7 126.2,43.9 133.2,42.1 137.2,40.9 137.9,40.5 136.6,39.7 		"/>
	</g>
	<g>
		<path class="st3" d="M116.8,34.2l-5.4-2.1l1.7-4.7l4.3,2l2.8-1.4l-3.4-3.7l2.9-4.5l-2.6-1.5l-2.3,3l-3.7-2.6l2.2-6.8l8.6-0.9
			l2.8,7.9l-3.4,4.2l3.5,2.6l-1.5,7L116.8,34.2z"/>
	</g>
</g>
<g>
	<g>
		<polygon class="st0" points="162.5,1.5 176.5,2.4 180.6,3.2 183.3,6.9 185.9,8.9 187,10.4 186.8,11.8 187.6,26.9 188,29.2 
			187.6,29.9 187.7,31.2 188.2,31.9 188.4,33.3 187.4,34.5 186,40.9 185.3,41.3 181,41.7 174.1,44.1 167.2,43.7 154.9,44.3 
			152.5,43.8 147.4,39 144.8,37 144.3,35.3 145.1,24.3 144.3,10.3 145.6,8 149.2,3.3 149.9,1.7 152.5,0.3 		"/>
		<polygon class="st1" points="151.7,2.4 179.8,3.4 186,10.3 186.8,32.6 184.7,39.7 173.4,42.7 152.5,43.4 146,35.5 146,9.3 		"/>
		<polygon class="st2" points="151.7,2.4 152.5,0 149.9,1.3 146.7,4.8 144.3,10 146,13.9 		"/>
		<polygon class="st3" points="173.4,42.7 174.3,43.9 181.3,42.1 185.3,40.9 186,40.5 184.7,39.7 		"/>
	</g>
	<g>
		<path class="st3" d="M161.1,34.4l-0.3-3.8l3.8-1.1l0.2-3.2l-7-1.6l3.3-12.8l9.1-0.9l0.8,6l-1.1,0.1l-0.5,6.1l1.5,0.5l-0.4,3.5
			l-1.1-0.3l-0.3,6.8L161.1,34.4z M166,17l-1.9,0l-1.4,4.9l2.7,0.2L166,17z"/>
	</g>
</g>
</svg>
