<?xml version="1.0" encoding="UTF-8" standalone="no"?>
<!-- Generator: Adobe Illustrator 26.2.1, SVG Export Plug-In . SVG Version: 6.00 Build 0)  -->

<svg
   version="1.1"
   id="Layer_1"
   x="0px"
   y="0px"
   viewBox="0 0 136.6 92.8"
   style="enable-background:new 0 0 136.6 92.8;"
   xml:space="preserve"
   sodipodi:docname="azerty.svg"
   inkscape:version="1.1 (c68e22c387, 2021-05-23)"
   xmlns:inkscape="http://www.inkscape.org/namespaces/inkscape"
   xmlns:sodipodi="http://sodipodi.sourceforge.net/DTD/sodipodi-0.dtd"
   xmlns="http://www.w3.org/2000/svg"
   xmlns:svg="http://www.w3.org/2000/svg"><defs
   id="defs61" /><sodipodi:namedview
   id="namedview59"
   pagecolor="#ffffff"
   bordercolor="#666666"
   borderopacity="1.0"
   inkscape:pageshadow="2"
   inkscape:pageopacity="0.0"
   inkscape:pagecheckerboard="0"
   showgrid="false"
   showguides="true"
   inkscape:guide-bbox="true"
   inkscape:zoom="3.7071369"
   inkscape:cx="31.965369"
   inkscape:cy="68.111863"
   inkscape:window-width="1852"
   inkscape:window-height="1057"
   inkscape:window-x="-8"
   inkscape:window-y="-8"
   inkscape:window-maximized="1"
   inkscape:current-layer="Layer_1"><sodipodi:guide
     position="92.702079,21.143099"
     orientation="0,-1"
     id="guide12135" /><sodipodi:guide
     position="71.199997,67.000001"
     orientation="1,0"
     id="guide12137" /><sodipodi:guide
     position="24.272968,70.334593"
     orientation="0,-1"
     id="guide12139" /></sodipodi:namedview>
<style
   type="text/css"
   id="style2">
	.st0{fill:#646464;}
	.st1{fill:#838383;}
	.st2{fill:#A3A3A2;}
	.st3{fill:#505050;}
</style>
<g
   id="g56">
	<polygon
   class="st0"
   points="66.4,1.1 80.2,2.1 84.1,2.8 86.8,6.4 89.4,8.4 90.5,9.9 90.3,11.3 91.1,26.1 91.5,28.4 91.1,29    91.2,30.3 91.7,31 91.9,32.4 90.8,33.5 89.5,39.8 88.8,40.2 84.6,40.6 77.8,43 71,42.6 59,43.1 56.7,42.6 51.6,38 49.1,36    48.6,34.3 49.3,23.5 48.6,9.8 49.8,7.5 53.4,2.9 54,1.3 56.7,0  "
   id="polygon4" />
	<polygon
   class="st0"
   points="66.4,49.9 80.2,50.8 84.1,51.6 86.8,55.2 89.4,57.2 90.5,58.7 90.3,60 91.1,74.9 91.5,77.1 91.1,77.8    91.2,79.1 91.7,79.8 91.9,81.1 90.8,82.3 89.5,88.6 88.8,88.9 84.6,89.3 77.8,91.7 71,91.3 59,91.9 56.7,91.4 51.6,86.7 49.1,84.7    48.6,83.1 49.3,72.3 48.6,58.5 49.8,56.3 53.4,51.6 54,50.1 56.7,48.8  "
   id="polygon6" />
	<polygon
   class="st1"
   points="55.8,2.3 83.4,3.3 89.5,10.1 90.3,32 88.3,39 77.2,41.9 57.9,41.9 50.2,34.9 50.2,9.1  "
   id="polygon8" />
	<polygon
   class="st2"
   points="55.8,2.3 56.7,0 54,1.3 53.5,2.6 49.8,7.5 50.2,9.1  "
   id="polygon10" />
	<polygon
   class="st2"
   points="50.2,34.9 49.1,36 56.7,42.6 57.9,41.9  "
   id="polygon12" />
	<polygon
   class="st3"
   points="77.2,41.9 78,43.1 84.6,40.6 88.8,40.2 89.5,39.8 88.3,39  "
   id="polygon14" />
	<polygon
   class="st3"
   points="91.1,29 90.2,29 88.7,28.7 86.2,27.9 88.8,29.2 90.3,30.5 91.2,30.3  "
   id="polygon16" />
	<polygon
   class="st3"
   points="90.5,9.9 89.5,10.1 83.4,3.3 84,2.8 86.7,6.2 90.2,9  "
   id="polygon18" />
	<polygon
   class="st0"
   points="118.7,91.7 105,90.7 101,89.9 98.3,86.4 95.8,84.3 94.7,82.9 94.9,81.5 94.1,66.7 93.7,64.4    94.1,63.7 94,62.4 93.5,61.7 93.3,60.4 94.3,59.3 95.7,53 96.4,52.6 100.6,52.2 107.3,49.8 114.2,50.2 126.2,49.6 128.5,50.1    133.6,54.8 136.1,56.8 136.6,58.5 135.8,69.3 136.6,83 135.4,85.2 131.8,89.9 131.2,91.4 128.5,92.8  "
   id="polygon20" />
	<polygon
   class="st1"
   points="129.4,90.4 101.8,89.4 95.6,82.7 94.9,60.8 96.9,53.8 108,50.8 127.2,50.8 134.9,57.9 134.9,83.6  "
   id="polygon22" />
	<polygon
   class="st2"
   points="129.4,90.4 128.5,92.8 131.2,91.4 131.7,90.1 135.4,85.2 134.9,83.6  "
   id="polygon24" />
	<polygon
   class="st2"
   points="134.9,57.9 136.1,56.8 128.5,50.1 127.2,50.8  "
   id="polygon26" />
	<polygon
   class="st3"
   points="108,50.8 107.1,49.6 100.6,52.2 96.4,52.6 95.7,53 96.9,53.8  "
   id="polygon28" />
	<polygon
   class="st3"
   points="94.1,63.7 95,63.7 96.4,64.1 99,64.8 96.3,63.6 94.9,62.3 94,62.4  "
   id="polygon30" />
	<polygon
   class="st3"
   points="94.7,82.9 95.6,82.7 101.8,89.4 101.2,90 98.4,86.6 95,83.8  "
   id="polygon32" />
	<polygon
   class="st1"
   points="55.8,50.8 83.4,51.8 89.5,58.6 90.3,80.4 88.3,87.4 77.2,90.4 56.7,91.1 50.2,83.3 50.2,57.6  "
   id="polygon34" />
	<polygon
   class="st2"
   points="55.8,50.8 56.7,48.4 54,49.8 50.9,53.1 48.6,58.2 50.2,62.1  "
   id="polygon36" />
	<polygon
   class="st3"
   points="77.2,90.4 78,91.6 84.9,89.7 88.8,88.6 89.5,88.2 88.3,87.4  "
   id="polygon38" />
	<polygon
   class="st0"
   points="25.4,90.5 11.7,89.5 7.7,88.7 5,85.2 2.5,83.2 1.3,81.7 1.5,80.3 0.8,65.5 0.4,63.2 0.8,62.5    0.7,61.2 0.2,60.5 0,59.2 1,58.1 2.4,51.8 3,51.4 7.3,51 14,48.6 20.8,49 32.9,48.4 35.2,48.9 40.2,53.6 42.8,55.6 43.2,57.3    42.5,68.1 43.2,81.8 42,84.1 38.4,88.7 37.8,90.2 35.2,91.6  "
   id="polygon40" />
	<polygon
   class="st1"
   points="36,89.6 8.5,88.6 2.3,81.8 1.5,59.9 3.6,52.9 14.7,49.9 35.2,49.3 41.6,57 41.6,82.7  "
   id="polygon42" />
	<polygon
   class="st3"
   points="36,89.6 35.2,91.9 37.8,90.6 41,87.2 43.2,82.1 41.7,81.9  "
   id="polygon44" />
	<polygon
   class="st2"
   points="14.7,49.9 13.8,48.8 6.9,50.6 3,51.7 2.4,52.1 3.6,52.9  "
   id="polygon46" />
	
	
	<path
   class="st3"
   d="M70.2,80.6l-6.2-1.8l-0.6-4l4.1-0.9l0.5,1.9h2.1l0.7-1.5l-7.2-3.5l-0.3-6.6l5-4.1l6.7,2.3l2.1,4l-1.6,4.5   l-3.7-1.8l0.4-1.7l-3.1-1.3l-1,2.4l7.7,4.2l-0.2,5L70.2,80.6z"
   id="path52" />
	<path
   class="st3"
   d="M112.7,82.2l-6.3-2.6l0.5-13l5-4.1l4.7,2l0.8-8.1l5.9,0.3L122,75l1.4,7.3l-6.6,0.1l-0.4-1.8L112.7,82.2z    M111.2,75.9l2.3,1.5l2.4-1.2l0.1-6.2l-2.6-1.5l-1.9,1.4L111.2,75.9z"
   id="path54" />
</g>
<text
   xml:space="preserve"
   style="font-style:normal;font-weight:normal;font-size:32px;line-height:1.25;font-family:sans-serif;fill:#505050;fill-opacity:1;stroke:none;stroke-width:0.1;stroke-miterlimit:4;stroke-dasharray:none;stroke-opacity:1"
   x="12.007372"
   y="77.402039"
   id="text10106"><tspan
     sodipodi:role="line"
     id="tspan10104"
     x="12.007372"
     y="77.402039"
     style="font-style:normal;font-variant:normal;font-weight:normal;font-stretch:normal;font-size:32px;font-family:Rocks__G;-inkscape-font-specification:Rocks__G;fill:#505050;fill-opacity:1;stroke:none;stroke-width:0.1;stroke-miterlimit:4;stroke-dasharray:none;stroke-opacity:1">q</tspan></text><text
   xml:space="preserve"
   style="font-style:normal;font-weight:normal;font-size:32px;line-height:1.25;font-family:sans-serif;fill:#505050;fill-opacity:1;stroke:none"
   x="63.08382"
   y="32.021633"
   id="text21683"><tspan
     sodipodi:role="line"
     id="tspan21681"
     x="63.08382"
     y="32.021633"
     style="font-style:normal;font-variant:normal;font-weight:normal;font-stretch:normal;font-size:32px;font-family:Rocks__G;-inkscape-font-specification:Rocks__G;fill:#505050;fill-opacity:1">z</tspan></text></svg>
