<?xml version="1.0" encoding="utf-8"?>
<!-- Generator: Adobe Illustrator 26.2.1, SVG Export Plug-In . SVG Version: 6.00 Build 0)  -->
<svg version="1.1" id="Layer_1" xmlns="http://www.w3.org/2000/svg" xmlns:xlink="http://www.w3.org/1999/xlink" x="0px" y="0px"
	 viewBox="0 0 45.1 45.3" style="enable-background:new 0 0 45.1 45.3;" xml:space="preserve">
<style type="text/css">
	.st0{fill:#646464;}
	.st1{fill:#838383;}
	.st2{fill:#505050;}
	.st3{fill:#A3A3A2;}
</style>
<g>
	<polygon class="st0" points="26.5,43.8 12.2,42.8 8,42 5.2,38.3 2.6,36.2 1.4,34.6 1.6,33.2 0.8,17.8 0.4,15.4 0.8,14.7 0.7,13.4 
		0.2,12.6 0,11.2 1.1,10 2.5,3.5 3.2,3.1 7.6,2.7 14.6,0.2 21.7,0.6 34.3,0 36.7,0.5 41.9,5.4 44.6,7.5 45.1,9.2 44.3,20.5 
		45.1,34.8 43.8,37.1 40.1,41.9 39.4,43.6 36.7,45 	"/>
	<polygon class="st1" points="37.6,42.9 8.8,41.8 2.4,34.8 1.6,12 3.7,4.7 15.3,1.6 36.7,0.9 43.4,8.9 43.4,35.8 	"/>
	<polygon class="st2" points="37.6,42.9 36.7,45.3 39.4,43.9 42.7,40.4 45.1,35.1 43.4,34.9 	"/>
	<polygon class="st3" points="15.3,1.6 14.4,0.3 7.2,2.2 3.2,3.4 2.5,3.8 3.7,4.7 	"/>
	<path class="st2" d="M21.8,33.4l-6.1-2.7l-1-9.8l2.5-7.2l9-2.1L31,19l-1.2,4.8l-8.7,1.8l0.7,2.6l7-1.9l1.9,4.4L21.8,33.4z
		 M25.8,20.4l-1.7-3l-2.6,0.4l-1.2,2l0.4,1.7L25.8,20.4z"/>
</g>
</svg>
