<?xml version="1.0" encoding="utf-8"?>
<!-- Generator: Adobe Illustrator 27.0.0, SVG Export Plug-In . SVG Version: 6.00 Build 0)  -->
<svg version="1.1" id="Layer_1" xmlns="http://www.w3.org/2000/svg" xmlns:xlink="http://www.w3.org/1999/xlink" x="0px" y="0px"
	 viewBox="0 0 45.1 45.3" style="enable-background:new 0 0 45.1 45.3;" xml:space="preserve">
<style type="text/css">
	.st0{fill:#636363;}
	.st1{fill:#828282;}
	.st2{fill:#A3A3A3;}
	.st3{fill:#4F4F4F;}
</style>
<polygon class="st0" points="18.6,1.5 32.9,2.5 37.1,3.3 39.9,7 42.5,9.1 43.7,10.7 43.5,12.1 44.3,27.5 44.7,29.9 44.3,30.6 
	44.4,31.9 44.9,32.7 45.1,34.1 44,35.3 42.6,41.8 41.9,42.2 37.5,42.6 30.5,45.1 23.3,44.7 10.8,45.3 8.4,44.8 3.1,39.9 0.4,37.8 
	0,36.1 0.7,24.8 0,10.5 1.2,8.2 5,3.3 5.6,1.7 8.4,0.3 "/>
<polygon class="st1" points="7.5,2.4 36.3,3.5 42.7,10.5 43.5,33.3 41.4,40.6 29.8,43.7 8.4,44.4 1.7,36.4 1.7,9.5 "/>
<polygon class="st2" points="7.5,2.4 8.4,0 5.6,1.4 2.3,4.9 0,10.2 1.7,14.2 "/>
<polygon class="st3" points="29.8,43.7 30.7,45 37.9,43.1 41.9,41.9 42.6,41.5 41.4,40.6 "/>
<g>
	<path class="st3" d="M7.8,31.4L6.6,20.6l1.3-4.9l2.7,0.9l4.8-1.1l0.5,4.2l-5.2,0.5l-0.2,2.1l4.9-0.6l0.5,3l-5.4,0.5V27l5.3-0.6
		l0.5,4.5L7.8,31.4z"/>
	<path class="st3" d="M18.7,31.7l-1.3-5.1l3.3-0.8l0.5,2.6l2.3-0.6l0.1-1.6l-6.3-2l1-6.9l6.2-1.5l2.7,2.8l-0.4,4.3l-3-0.4l-0.4-2.4
		l-2.2,0.5l-0.2,2l6.3,2.2l-1.1,5.7L18.7,31.7z"/>
	<path class="st3" d="M33.1,31.3l-3.9-1.9l-0.8-8.7l3-4.7l6.2,0.5l0.9,5.5L35,22.6l-0.4-2.4l-1.4-0.3l-1.3,2.4l0.5,4.4l2.2,0.8
		l0.8-2.2l3.1,0.8l-1.7,5.2H33.1z"/>
</g>
</svg>
