<?xml version="1.0" encoding="utf-8"?>
<!-- Generator: Adobe Illustrator 26.2.1, SVG Export Plug-In . SVG Version: 6.00 Build 0)  -->
<svg version="1.1" id="Layer_1" xmlns="http://www.w3.org/2000/svg" xmlns:xlink="http://www.w3.org/1999/xlink" x="0px" y="0px"
	 viewBox="0 0 44.1 44.3" style="enable-background:new 0 0 44.1 44.3;" xml:space="preserve">
<style type="text/css">
	.st0{fill:#646464;}
	.st1{fill:#838383;}
	.st2{fill:#A3A3A2;}
	.st3{fill:#505050;}
</style>
<g>
	<polygon class="st0" points="18.2,1.5 32.2,2.4 36.2,3.2 39,6.9 41.6,8.9 42.7,10.4 42.5,11.8 43.3,26.9 43.7,29.2 43.3,29.9 
		43.4,31.2 43.9,31.9 44.1,33.3 43,34.5 41.6,40.9 41,41.3 36.6,41.7 29.8,44.1 22.8,43.7 10.6,44.3 8.2,43.8 3.1,39 0.5,37 0,35.3 
		0.7,24.3 0,10.3 1.2,8 4.9,3.3 5.5,1.7 8.2,0.3 	"/>
	<polygon class="st1" points="7.3,2.4 35.4,3.4 41.7,10.3 42.5,32.6 40.4,39.7 29.1,42.7 8.2,43.4 1.7,35.5 1.7,9.3 	"/>
	<polygon class="st2" points="7.3,2.4 8.2,0 5.5,1.3 2.3,4.8 0,10 1.7,13.9 	"/>
	<polygon class="st3" points="29.1,42.7 30,43.9 37,42.1 41,40.9 41.6,40.5 40.4,39.7 	"/>
	<path class="st3" d="M27.3,35.7l-5.1,0.4L21.7,34l0.1-5.5l-2.1,2.1l-5.6,0.1L11.2,21l1.6-9.2l6.7-1.4l2.6,3.2l0.8-2.9l5.9,0.9
		L27.3,35.7z M17.9,25.7l3.2-0.8l0.6-6.8l-3.3-1.6l-1.6,3.6L17.9,25.7z"/>
</g>
</svg>
