<?xml version="1.0" encoding="utf-8"?>
<!-- Generator: Adobe Illustrator 26.2.1, SVG Export Plug-In . SVG Version: 6.00 Build 0)  -->
<svg version="1.1" id="Layer_1" xmlns="http://www.w3.org/2000/svg" xmlns:xlink="http://www.w3.org/1999/xlink" x="0px" y="0px"
	 viewBox="0 0 156.1 41.9" style="enable-background:new 0 0 156.1 41.9;" xml:space="preserve">
<style type="text/css">
	.st0{fill:#646464;}
	.st1{fill:#838383;}
	.st2{fill:#A3A3A2;}
	.st3{fill:#505050;}
</style>
<g>
	<polygon class="st0" points="154.5,17.7 153.5,30.8 152.6,34.5 148.7,37.1 146.6,39.5 144.9,40.6 143.4,40.4 18.6,41.1 16.1,41.5 
		15.4,41.1 14,41.2 13.2,41.7 11.7,41.9 10.5,40.9 3.6,39.6 3.2,39 2.8,34.9 0.2,28.5 0.6,22 0,10.6 0.5,8.4 5.6,3.6 7.8,1.2 
		9.6,0.7 21.4,1.4 72.1,0 145.1,0.7 147.5,1.9 152.6,5.3 154.3,5.9 155.7,8.4 	"/>
	<polygon class="st1" points="153.5,7.6 152.4,33.8 145,39.7 12.5,40.4 4.9,38.5 1.6,27.9 0.9,8.4 9.3,2.3 146.1,2.3 	"/>
	<polygon class="st2" points="153.5,7.6 156.1,8.4 154.6,5.9 151,2.9 145.4,0.7 141.2,2.3 	"/>
	<polygon class="st3" points="1.6,27.9 0.4,28.7 2.4,35.3 3.6,39 4,39.6 4.9,38.5 	"/>
	<path class="st3" d="M49.5,30.4l-5.1-1.5l-0.5-3.3l3.4-0.7l0.4,1.6h1.7l0.6-1.3L44,22.3l-0.2-5.4l4.1-3.4l5.5,1.9l1.7,3.3l-1.3,3.7
		L50.8,21l0.3-1.4l-2.5-1.1l-0.8,2L54,24L53.9,28L49.5,30.4z"/>
	<path class="st3" d="M57.8,34.6l-1.1-20.1l4.7-0.7l0.4,2.5l2-2.1l5.4,0.3l1.6,7.7l-3.3,8.2h-3.6l-1.8-1.3l0.4,5.2L57.8,34.6z
		 M65.5,26.1l1.4-4.3l-1.8-3.5l-3,1.7l0.3,5.5L65.5,26.1z"/>
	<path class="st3" d="M81.3,30.5l-0.4-1.7l-2.4,1.7l-4.9-1.3l-1-5.1l1.9-3.3l5.8,0.4l-0.2-2.1l-2.9-0.7l-1,1.8l-3.7-1.3l1.1-4.3
		l7.3-0.7l3.4,4.5L85,29.8L81.3,30.5z M80.4,25.9l-0.2-1.5l-3-0.3l-0.6,1.1l0.3,1.2l1.6,0.4L80.4,25.9z"/>
	<path class="st3" d="M90.2,30.6l-3.6-3.3v-9.1l2-4.3l6.2-0.6l3,3.1l0.1,5.3l-4.2-0.2L94,19l-2.5-0.5l-1.1,1.8v4.6l1.3,1.3l2.2-0.2
		l0.1-1.8l3.7,0.1l-0.6,5.1L90.2,30.6z"/>
	<path class="st3" d="M105,30.4l-4.8-2.1l-0.8-7.7l1.9-5.6l7.1-1.7l3.8,5.8l-1,3.7l-6.8,1.4l0.6,2l5.5-1.5l1.5,3.5L105,30.4z
		 M108.2,20.3l-1.3-2.3l-2,0.3l-1,1.6l0.3,1.4L108.2,20.3z"/>
	<polygon class="st2" points="70.2,1.3 72.1,0 110.8,0 115.2,2.3 69.1,2.3 	"/>
	<polygon class="st3" points="47.1,40.2 47.4,41 98.6,40.6 99.2,39.9 	"/>
</g>
</svg>
