<?xml version="1.0" encoding="utf-8"?>
<!-- Generator: Adobe Illustrator 27.0.0, SVG Export Plug-In . SVG Version: 6.00 Build 0)  -->
<svg version="1.1" id="Layer_1" xmlns="http://www.w3.org/2000/svg" xmlns:xlink="http://www.w3.org/1999/xlink" x="0px" y="0px"
	 viewBox="0 0 105.9 44.9" style="enable-background:new 0 0 105.9 44.9;" xml:space="preserve">
<style type="text/css">
	.st0{fill:#636363;}
	.st1{fill:#828282;}
	.st2{fill:#A3A3A3;}
	.st3{fill:#4F4F4F;}
</style>
<g>
	<polygon class="st0" points="104.2,19 103,33 102.2,37.1 98,39.8 95.6,42.4 93.9,43.5 92.3,43.4 19.9,44.1 17.3,44.6 16.5,44.1 
		15,44.2 14.2,44.7 12.6,44.9 11.3,43.9 3.9,42.5 3.5,41.8 3,37.5 0.2,30.6 0.7,23.7 0,11.4 0.6,9 6,3.9 8.4,1.3 10.3,0.8 23,1.5 
		48.9,0 94,0.8 96.7,2 102.1,5.7 103.9,6.3 105.5,9 	"/>
	<polygon class="st1" points="103.1,8.1 102,36.3 94,42.5 13.4,43.4 5.2,41.3 1.8,29.9 1,9 10,2.5 95.2,2.5 	"/>
	<polygon class="st2" points="103.1,8.1 105.9,9 104.3,6.3 100.4,3.1 94.4,0.8 89.9,2.5 	"/>
	<polygon class="st3" points="1.8,29.9 0.4,30.8 2.5,37.8 3.8,41.8 4.3,42.5 5.2,41.3 	"/>
	<polygon class="st2" points="46.8,1.4 48.9,0 57.3,0 62,2.5 45.6,2.5 	"/>
	<polygon class="st3" points="22,43.1 22.3,43.9 44.2,43.5 44.8,42.8 	"/>
	<g>
		<path class="st3" d="M32.3,33.8l-0.2-11.9l-3.9,0.9l-1-6.2l4.5-0.5l-0.2-5.1l6.1-0.9l0.3,5.3l4.4-0.3l0.5,4.8l-4.9,1.2l-0.3,13.9
			L32.3,33.8z"/>
		<path class="st3" d="M54.8,34.9L54.4,33l-2.8,1.9l-5.7-1.5l-1.2-5.9l2.2-3.8l6.7,0.5l-0.2-2.4l-3.3-0.9L49,23l-4.3-1.5l1.3-5
			l8.5-0.9l3.9,5.2L59,34.1L54.8,34.9z M53.7,29.7L53.5,28l-3.4-0.4l-0.7,1.2l0.4,1.3l1.8,0.5L53.7,29.7z"/>
		<path class="st3" d="M72,34.8l-4.5-1.1l-0.1,1h-6.5l1-7.1l-1-17.1l5.6-0.3l0.8,7.9l4.9-1.9l3.8,3.3l1,10.1L72,34.8z M71.3,29.2
			l1.2-3.8l-1.6-3.3l-3.3,1.2l0.1,5.2L71.3,29.2z"/>
	</g>
</g>
</svg>
